<?xml version="1.0" encoding="utf-8"?>
<!-- Generator: Adobe Illustrator 25.4.1, SVG Export Plug-In . SVG Version: 6.00 Build 0)  -->
<svg version="1.1" xmlns="http://www.w3.org/2000/svg" xmlns:xlink="http://www.w3.org/1999/xlink" x="0px" y="0px"
	 viewBox="0 0 164.41 252.28" enable-background="new 0 0 164.41 252.28" xml:space="preserve">
<g id="地">
	<rect fill="#DCDDDD" width="164.41" height="252.28"/>
</g>
<g id="枠">
</g>
<g id="国旗">
	<g>
		<g>
			<rect x="25.51" y="59.85" fill="#040000" width="113.39" height="75.59"/>
			<rect x="25.51" y="59.85" fill="#C8152A" width="113.39" height="37.8"/>
			<path fill="#F5CF21" stroke="#040000" stroke-width="2" d="M94.42,96.76v-3.19h-1.46c-0.08-0.89-0.23-1.75-0.46-2.59l1.6-0.61
				l-1.17-2.97l-1.58,0.66c-0.39-0.75-0.84-1.46-1.35-2.12l1.25-1.17l-2.2-2.32l-1.22,1.2c-0.6-0.51-1.24-0.98-1.92-1.39l0.77-1.53
				l-2.89-1.35l-0.7,1.56c-0.7-0.24-1.42-0.43-2.16-0.57l-0.66,1.5c6.32,0.96,11.15,6.41,11.15,12.99c0,7.26-5.88,13.14-13.14,13.14
				c-3.57,0-6.81-1.43-9.18-3.74l-0.76,1.48c0.19,0.17,0.38,0.34,0.58,0.51l-0.96,1.42l2.67,1.75l0.91-1.45
				c0.91,0.47,1.87,0.84,2.88,1.12l-0.27,1.69l3.15,0.5l0.26-1.69c0.24,0.01,0.47,0.02,0.71,0.02c1.01,0,2-0.1,2.95-0.3l0.47,1.65
				l3.04-0.97l-0.54-1.62c1-0.44,1.95-0.99,2.82-1.63l1.08,1.33l2.36-2.15l-1.17-1.25c0.64-0.72,1.21-1.49,1.69-2.32l1.54,0.74
				l1.32-2.91l-1.57-0.68c0.29-0.88,0.5-1.79,0.62-2.74H94.42z"/>
			<polygon fill="#F5CF21" stroke="#040000" stroke-width="2" points="80.26,83.74 81.27,86.84 84.53,86.84 81.9,88.76 82.9,91.86 
				80.26,89.95 77.63,91.86 78.63,88.76 76,86.84 79.26,86.84 			"/>
			<path fill="#F5CF21" stroke="#040000" stroke-width="2" d="M77.34,97.11c-2.08-2.21-2.95-5.63-3.64-5.63
				c-0.69,0-1.52,1.48-1.52,3.55c0,2.08,0.69,3.74,7.47,8.81c3.5,2.62,7.12,5.19,9.85,7.11l1.57-1.8
				C85.99,104.79,78.75,98.62,77.34,97.11z"/>
			<path fill="#F5CF21" stroke="#040000" stroke-width="2" d="M95.98,113.49c-0.48-0.48-1.88-1.71-3.7-3.29l-1.46,1.67
				c1.84,1.29,3.04,2.12,3.14,2.21c0.23,0.23-0.42,1.29,0.65,1.98C95.66,116.77,97.78,115.29,95.98,113.49z"/>
			<polygon fill="#040000" points="77.96,99.15 78.2,98.86 91.17,110.07 90.92,110.36 			"/>
			<circle fill="#040000" cx="92.7" cy="111.65" r="0.32"/>
			<path fill="#040000" d="M94.23,112.75c0,0.18-0.14,0.32-0.32,0.32c-0.18,0-0.32-0.14-0.32-0.32c0-0.18,0.14-0.32,0.32-0.32
				C94.08,112.43,94.23,112.57,94.23,112.75z"/>
			<circle fill="#040000" cx="95.06" cy="114" r="0.32"/>
		</g>
	</g>
</g>
<g id="国名">
	<g>
		<path d="M68.65,146.52c0.24,0,0.46,0.06,0.66,0.18c0.27,0.17,0.4,0.41,0.4,0.72c0,0.2-0.08,0.44-0.25,0.74
			c-0.47,0.82-1.06,1.53-1.76,2.15c-0.39,0.34-0.7,0.51-0.91,0.51c-0.15,0-0.28-0.07-0.38-0.2c-0.07-0.1-0.11-0.19-0.11-0.28
			c0-0.15,0.09-0.31,0.28-0.49c0.56-0.54,0.99-1.08,1.28-1.63c0.08-0.15,0.12-0.25,0.12-0.3c0-0.06-0.05-0.09-0.15-0.09
			c-0.09,0-0.21,0-0.35,0.02c-0.08,0.01-0.33,0.02-0.75,0.05c-0.31,0.02-1.66,0.13-4.02,0.33c-0.8,0.07-1.23,0.1-1.29,0.1
			c-0.47,0-0.7-0.22-0.7-0.65c0-0.37,0.19-0.59,0.56-0.66c0.04-0.01,1.36-0.1,3.94-0.28C67.46,146.6,68.6,146.52,68.65,146.52z
			 M65.09,148.82c0.19,0,0.36,0.06,0.51,0.18c0.09,0.07,0.15,0.15,0.18,0.24c0.04,0.11,0.05,0.3,0.05,0.57
			c0,0.99-0.07,1.76-0.22,2.33c-0.32,1.22-1.05,2.18-2.18,2.86c-0.18,0.11-0.34,0.16-0.48,0.16c-0.17,0-0.29-0.06-0.38-0.17
			c-0.08-0.1-0.12-0.21-0.12-0.33c0-0.14,0.05-0.27,0.16-0.4c0.04-0.06,0.16-0.17,0.36-0.33c0.7-0.57,1.13-1.33,1.31-2.31
			c0.08-0.48,0.13-1.09,0.13-1.82l-0.01-0.3c0-0.28,0.1-0.47,0.31-0.59C64.83,148.85,64.95,148.82,65.09,148.82z"/>
		<path d="M73.41,146.82c0.15,0,0.41,0.07,0.78,0.2c0.69,0.24,1.26,0.53,1.71,0.86c0.24,0.17,0.35,0.39,0.35,0.65
			c0,0.14-0.05,0.29-0.14,0.43c-0.14,0.21-0.33,0.32-0.56,0.32c-0.2,0-0.43-0.09-0.67-0.28c-0.62-0.49-1.18-0.88-1.68-1.16
			c-0.25-0.14-0.38-0.31-0.38-0.51C72.82,146.99,73.02,146.82,73.41,146.82z M80.53,148.59c0.13,0,0.25,0.04,0.36,0.13
			c0.15,0.11,0.23,0.26,0.23,0.45c0,0.15-0.06,0.32-0.18,0.5c-0.85,1.27-1.97,2.37-3.36,3.3c-1.16,0.77-2.35,1.32-3.59,1.66
			c-0.13,0.03-0.24,0.05-0.34,0.05c-0.31,0-0.54-0.14-0.67-0.43c-0.06-0.13-0.09-0.25-0.09-0.37c0-0.27,0.13-0.47,0.4-0.6
			c0.05-0.03,0.3-0.1,0.74-0.23c1.59-0.47,3.06-1.3,4.43-2.51c0.52-0.47,1.02-1,1.48-1.59C80.13,148.7,80.32,148.59,80.53,148.59z"
			/>
		<path d="M89.41,152.51c0.12-0.82,0.27-2,0.44-3.55c0.01-0.07,0.01-0.13,0.01-0.16c0-0.1-0.06-0.16-0.17-0.16
			c-0.05,0-0.17,0.01-0.37,0.03c-0.29,0.03-0.88,0.08-1.76,0.15c-0.93,0.07-1.79,0.14-2.58,0.22c-0.08,0.01-0.14,0.01-0.18,0.01
			c-0.21,0-0.37-0.06-0.49-0.19c-0.1-0.11-0.16-0.25-0.16-0.43c0-0.32,0.12-0.53,0.35-0.64c0.08-0.04,0.29-0.07,0.62-0.09
			c3.06-0.25,4.71-0.39,4.93-0.41c0.07-0.01,0.12-0.01,0.17-0.01c0.47,0,0.8,0.2,0.98,0.6c0.07,0.15,0.1,0.31,0.1,0.48
			c0,0.05-0.01,0.19-0.04,0.42c-0.21,1.71-0.36,2.96-0.47,3.75c0.24,0.1,0.37,0.3,0.37,0.6c0,0.29-0.13,0.49-0.39,0.6
			c-0.1,0.03-0.31,0.06-0.63,0.08c-1.03,0.04-2.79,0.16-5.26,0.35c-0.08,0.01-0.13,0.01-0.17,0.01c-0.43,0-0.64-0.22-0.64-0.66
			c0-0.4,0.2-0.62,0.6-0.67C85.11,152.77,86.68,152.67,89.41,152.51z M90.85,145.73c0.21,0,0.54,0.21,1,0.62
			c0.39,0.35,0.58,0.63,0.58,0.83c0,0.15-0.06,0.27-0.19,0.38c-0.1,0.08-0.21,0.12-0.33,0.12c-0.17,0-0.31-0.1-0.43-0.29
			c-0.23-0.37-0.49-0.7-0.79-1.01c-0.1-0.11-0.16-0.22-0.16-0.33C90.53,145.83,90.64,145.73,90.85,145.73z M91.95,144.95
			c0.22,0,0.54,0.18,0.95,0.53c0.39,0.33,0.58,0.6,0.58,0.83c0,0.16-0.06,0.28-0.18,0.38c-0.09,0.07-0.19,0.1-0.3,0.1
			c-0.16,0-0.3-0.09-0.42-0.28c-0.2-0.3-0.46-0.61-0.79-0.92c-0.12-0.11-0.18-0.23-0.18-0.33c0-0.08,0.03-0.15,0.09-0.2
			C91.76,144.98,91.84,144.95,91.95,144.95z"/>
		<path d="M102.05,148.71c0.42,0,0.72,0.15,0.91,0.44c0.1,0.17,0.15,0.37,0.15,0.6c0,0.33-0.11,0.76-0.34,1.29
			c-0.49,1.17-1.32,2.17-2.47,3.02c-0.61,0.45-1.25,0.79-1.92,1.04c-0.17,0.06-0.31,0.09-0.43,0.09c-0.16,0-0.29-0.07-0.38-0.2
			c-0.07-0.11-0.11-0.22-0.11-0.34c0-0.17,0.08-0.31,0.23-0.42c0.03-0.02,0.2-0.11,0.49-0.26c0.73-0.38,1.42-0.91,2.06-1.6
			c0.54-0.58,0.94-1.17,1.2-1.77c0.09-0.2,0.13-0.34,0.13-0.43c0-0.09-0.07-0.13-0.2-0.13c-0.06,0-0.72,0.04-1.99,0.12l-2.37,0.17
			c-0.9,0.07-1.37,0.1-1.4,0.1c-0.23,0-0.4-0.08-0.52-0.25c-0.07-0.11-0.11-0.24-0.11-0.39c0-0.39,0.19-0.62,0.56-0.67
			c0.24-0.03,2.02-0.15,5.37-0.34c0.27-0.01,0.47-0.03,0.61-0.04C101.82,148.72,101.99,148.71,102.05,148.71z M101.17,146.17
			c0.19,0,0.34,0.08,0.45,0.23c0.08,0.12,0.13,0.26,0.13,0.42c0,0.37-0.18,0.59-0.53,0.64c-0.28,0.04-0.68,0.08-1.22,0.13
			c-0.14,0.01-0.75,0.05-1.81,0.11c-0.65,0.04-1.08,0.05-1.31,0.05c-0.46,0-0.7-0.22-0.7-0.65c0-0.33,0.14-0.53,0.41-0.61
			c0.07-0.02,0.23-0.03,0.48-0.03c1.02-0.01,2.21-0.09,3.58-0.23c0.05-0.01,0.17-0.02,0.35-0.04
			C101.08,146.17,101.13,146.17,101.17,146.17z"/>
	</g>
</g>
<g id="ガイド" display="none">
</g>
</svg>
