<?xml version="1.0" encoding="utf-8"?>
<!-- Generator: Adobe Illustrator 25.4.1, SVG Export Plug-In . SVG Version: 6.00 Build 0)  -->
<svg version="1.1" xmlns="http://www.w3.org/2000/svg" xmlns:xlink="http://www.w3.org/1999/xlink" x="0px" y="0px"
	 viewBox="0 0 164.41 252.28" enable-background="new 0 0 164.41 252.28" xml:space="preserve">
<g id="地">
	<rect fill="#DCDDDD" width="164.41" height="252.28"/>
</g>
<g id="枠">
</g>
<g id="国旗">
	<g>
		<g>
			<rect x="25.51" y="60" fill="#FFFFFF" width="113.39" height="75.59"/>
			<path fill="#147F49" d="M64.52,92.75l-39.01-26V129l39.04-26.03c-0.48-1.64-0.74-3.38-0.74-5.17
				C63.81,96.05,64.06,94.35,64.52,92.75z"/>
			<path fill="#C8152A" d="M128.78,135.59l-35.12-23.41c-3.14,2.51-7.12,4.01-11.46,4.01c-4.33,0-8.31-1.5-11.46-4.01l-35.12,23.41
				H128.78z"/>
			<path fill="#147F49" d="M99.89,102.84l39.01,26V66.59L99.86,92.62c0.48,1.64,0.74,3.38,0.74,5.17
				C100.6,99.55,100.35,101.24,99.89,102.84z"/>
			<path fill="#C8152A" d="M35.63,60l35.12,23.41c3.14-2.51,7.12-4.01,11.46-4.01c4.33,0,8.31,1.5,11.46,4.01L128.78,60H35.63z"/>
			<polygon fill="#147F49" points="82.2,82.14 84.29,85.75 88.46,85.75 86.37,89.36 88.46,92.97 84.29,92.97 82.2,96.58 
				80.12,92.97 75.95,92.97 78.04,89.36 75.95,85.75 80.12,85.75 			"/>
			<polygon fill="#D81624" points="82.2,95.07 80.56,92.22 77.26,92.22 78.91,89.36 77.26,86.51 80.56,86.51 82.2,83.65 
				83.85,86.51 87.15,86.51 85.5,89.36 87.15,92.22 83.85,92.22 			"/>
			<polygon fill="#147F49" points="90.13,95.87 92.22,99.48 96.38,99.48 94.3,103.09 96.38,106.7 92.22,106.7 90.13,110.31 
				88.05,106.7 83.88,106.7 85.96,103.09 83.88,99.48 88.05,99.48 			"/>
			<polygon fill="#D81624" points="90.13,108.8 88.48,105.95 85.19,105.95 86.84,103.09 85.19,100.24 88.48,100.24 90.13,97.39 
				91.78,100.24 95.07,100.24 93.43,103.09 95.07,105.95 91.78,105.95 			"/>
			<polygon fill="#147F49" points="74.28,95.87 76.36,99.48 80.53,99.48 78.45,103.09 80.53,106.7 76.36,106.7 74.28,110.31 
				72.19,106.7 68.03,106.7 70.11,103.09 68.03,99.48 72.19,99.48 			"/>
			<polygon fill="#D81624" points="74.28,108.8 72.63,105.95 69.33,105.95 70.98,103.09 69.33,100.24 72.63,100.24 74.28,97.39 
				75.93,100.24 79.22,100.24 77.57,103.09 79.22,105.95 75.93,105.95 			"/>
		</g>
	</g>
</g>
<g id="国名">
	<g>
		<path d="M67.4,146.99c0.35,0,0.64,0.11,0.86,0.33c0.19,0.19,0.29,0.44,0.29,0.74c0,0.21-0.06,0.54-0.17,0.99
			c-0.11,0.45-0.23,0.85-0.37,1.2c-0.7,1.79-1.86,3.18-3.46,4.16c-0.64,0.39-1.1,0.59-1.38,0.59c-0.18,0-0.32-0.07-0.41-0.22
			c-0.07-0.11-0.1-0.21-0.1-0.32c0-0.2,0.13-0.38,0.38-0.52c1.08-0.62,1.97-1.43,2.65-2.42c0.61-0.87,1.03-1.82,1.26-2.85
			c0.02-0.08,0.03-0.14,0.03-0.19c0-0.09-0.05-0.13-0.16-0.13c-0.08,0-0.18,0.01-0.3,0.02c-0.21,0.02-1.16,0.08-2.86,0.2
			c-0.63,0.04-1.32,0.1-2.07,0.16c-0.07,0.01-0.13,0.01-0.16,0.01c-0.46,0-0.69-0.24-0.69-0.71c0-0.36,0.17-0.57,0.51-0.64
			c0.16-0.03,1.81-0.14,4.96-0.33c0.31-0.02,0.56-0.04,0.73-0.05C67.19,147,67.33,146.99,67.4,146.99z M68.23,145.66
			c0.21,0,0.54,0.21,1,0.62c0.39,0.35,0.58,0.63,0.58,0.83c0,0.14-0.06,0.27-0.19,0.37c-0.1,0.08-0.21,0.12-0.34,0.12
			c-0.17,0-0.31-0.1-0.43-0.29c-0.21-0.35-0.47-0.68-0.79-1.01c-0.1-0.11-0.15-0.22-0.15-0.33
			C67.91,145.77,68.02,145.66,68.23,145.66z M69.27,144.87c0.22,0,0.54,0.18,0.95,0.53c0.39,0.33,0.58,0.6,0.58,0.83
			c0,0.16-0.06,0.28-0.18,0.38c-0.09,0.07-0.19,0.1-0.3,0.1c-0.16,0-0.3-0.09-0.42-0.28c-0.2-0.3-0.46-0.61-0.79-0.92
			c-0.12-0.11-0.18-0.23-0.18-0.33c0-0.08,0.03-0.15,0.09-0.2C69.09,144.9,69.17,144.87,69.27,144.87z"/>
		<path d="M74.34,147.24c0.47,0,0.7,0.27,0.7,0.8c0,1.92-0.36,3.46-1.07,4.63c-0.3,0.5-0.67,0.91-1.09,1.24
			c-0.15,0.12-0.31,0.18-0.49,0.18c-0.12,0-0.22-0.04-0.32-0.12c-0.11-0.1-0.16-0.21-0.16-0.35c0-0.16,0.07-0.32,0.22-0.49
			c0.6-0.69,1.01-1.51,1.22-2.46c0.17-0.74,0.26-1.64,0.26-2.7c0-0.22,0.05-0.38,0.15-0.49C73.91,147.32,74.1,147.24,74.34,147.24z
			 M77.52,146.83v5.65c0,0.14,0.03,0.22,0.1,0.22c0.14,0,0.49-0.2,1.07-0.6c0.82-0.56,1.5-1.13,2.03-1.72
			c0.18-0.21,0.36-0.31,0.52-0.31c0.13,0,0.26,0.05,0.39,0.16c0.12,0.1,0.19,0.24,0.19,0.42c0,0.15-0.06,0.31-0.18,0.48
			c-0.43,0.59-1.08,1.23-1.94,1.92c-0.68,0.54-1.33,0.95-1.94,1.26c-0.23,0.11-0.44,0.17-0.62,0.17c-0.2,0-0.39-0.07-0.59-0.21
			c-0.28-0.2-0.42-0.5-0.42-0.92v-6.51c0-0.24,0.1-0.42,0.32-0.54c0.11-0.06,0.23-0.09,0.37-0.09c0.2,0,0.37,0.06,0.51,0.17
			C77.45,146.49,77.52,146.64,77.52,146.83z"/>
		<path d="M84.75,146.82c0.15,0,0.41,0.07,0.78,0.2c0.69,0.24,1.26,0.53,1.71,0.86c0.24,0.17,0.35,0.39,0.35,0.65
			c0,0.14-0.05,0.29-0.14,0.43c-0.14,0.21-0.33,0.32-0.56,0.32c-0.2,0-0.43-0.09-0.67-0.28c-0.62-0.49-1.18-0.88-1.68-1.16
			c-0.25-0.14-0.38-0.31-0.38-0.51C84.16,146.99,84.36,146.82,84.75,146.82z M91.87,148.59c0.12,0,0.25,0.04,0.36,0.13
			c0.15,0.11,0.23,0.26,0.23,0.45c0,0.15-0.06,0.32-0.18,0.5c-0.85,1.27-1.97,2.37-3.36,3.3c-1.16,0.77-2.35,1.32-3.59,1.66
			c-0.13,0.03-0.24,0.05-0.34,0.05c-0.31,0-0.54-0.14-0.67-0.43c-0.06-0.13-0.09-0.25-0.09-0.37c0-0.27,0.13-0.47,0.4-0.6
			c0.06-0.03,0.3-0.1,0.74-0.23c1.59-0.47,3.07-1.3,4.43-2.51c0.52-0.47,1.02-1,1.48-1.59C91.47,148.7,91.66,148.59,91.87,148.59z"
			/>
		<path d="M95.26,148.77c0.23,0,0.56,0.08,1.01,0.24c0.52,0.19,0.95,0.41,1.3,0.66c0.24,0.18,0.36,0.39,0.36,0.65
			c0,0.16-0.06,0.31-0.17,0.45c-0.14,0.19-0.33,0.29-0.56,0.29c-0.17,0-0.35-0.08-0.56-0.25c-0.42-0.34-0.95-0.7-1.61-1.07
			c-0.22-0.13-0.33-0.28-0.33-0.48c0-0.09,0.02-0.17,0.07-0.26C94.86,148.85,95.02,148.77,95.26,148.77z M103.13,148.4
			c0.11,0,0.21,0.03,0.32,0.09c0.18,0.11,0.28,0.27,0.28,0.48c0,0.21-0.17,0.6-0.52,1.18c-0.57,0.96-1.35,1.83-2.34,2.63
			c-1.18,0.95-2.48,1.67-3.92,2.16c-0.16,0.06-0.3,0.08-0.41,0.08c-0.29,0-0.51-0.13-0.64-0.4c-0.07-0.13-0.1-0.26-0.1-0.38
			c0-0.28,0.13-0.48,0.38-0.62c0.04-0.02,0.28-0.11,0.72-0.26c1.2-0.42,2.31-1.04,3.35-1.87c1-0.79,1.77-1.68,2.31-2.67
			C102.7,148.54,102.9,148.4,103.13,148.4z M96.6,146.26c0.34,0,0.9,0.24,1.68,0.72c0.24,0.14,0.41,0.26,0.52,0.35
			c0.21,0.17,0.32,0.38,0.32,0.61c0,0.16-0.06,0.3-0.17,0.44c-0.17,0.2-0.36,0.3-0.58,0.3c-0.19,0-0.38-0.1-0.58-0.3
			c-0.33-0.34-0.81-0.73-1.45-1.2c-0.2-0.14-0.29-0.3-0.29-0.46c0-0.09,0.03-0.18,0.08-0.26C96.23,146.33,96.38,146.26,96.6,146.26z
			 M101.74,145.94c0.21,0,0.54,0.21,0.99,0.62c0.39,0.35,0.58,0.63,0.58,0.84c0,0.14-0.06,0.27-0.19,0.37
			c-0.1,0.08-0.21,0.12-0.34,0.12c-0.17,0-0.31-0.1-0.43-0.29c-0.21-0.35-0.48-0.69-0.79-1.01c-0.1-0.11-0.16-0.22-0.16-0.33
			C101.41,146.05,101.52,145.94,101.74,145.94z M102.89,145.11c0.22,0,0.54,0.18,0.96,0.53c0.39,0.32,0.58,0.6,0.58,0.82
			c0,0.17-0.06,0.29-0.18,0.38c-0.09,0.07-0.19,0.1-0.3,0.1c-0.16,0-0.3-0.09-0.42-0.28c-0.2-0.3-0.47-0.61-0.79-0.92
			c-0.12-0.11-0.18-0.22-0.18-0.33c0-0.07,0.03-0.14,0.09-0.21C102.7,145.14,102.78,145.11,102.89,145.11z"/>
	</g>
</g>
<g id="ガイド" display="none">
</g>
</svg>
