<?xml version="1.0" encoding="utf-8"?>
<!-- Generator: Adobe Illustrator 25.4.1, SVG Export Plug-In . SVG Version: 6.00 Build 0)  -->
<svg version="1.1" xmlns="http://www.w3.org/2000/svg" xmlns:xlink="http://www.w3.org/1999/xlink" x="0px" y="0px"
	 viewBox="0 0 164.41 252.28" enable-background="new 0 0 164.41 252.28" xml:space="preserve">
<g id="地">
	<rect fill="#DCDDDD" width="164.41" height="252.28"/>
</g>
<g id="枠">
</g>
<g id="国旗">
	<g>
		<g>
			<rect x="25.51" y="60.12" fill="#C8152A" width="113.39" height="75.59"/>
			<polygon fill="#F5CF21" points="82.2,77.21 87.37,93.12 104.1,93.12 90.57,102.95 95.74,118.87 82.2,109.03 68.67,118.87 
				73.84,102.95 60.3,93.12 77.03,93.12 			"/>
		</g>
	</g>
</g>
<g id="国名">
	<g>
		<path d="M63.8,147.77c0.23,0,0.48,0.09,0.76,0.27c0.13,0.08,0.34,0.24,0.64,0.48c2.18,1.78,3.68,2.98,4.51,3.6
			c0.25,0.18,0.37,0.41,0.37,0.67c0,0.22-0.08,0.41-0.24,0.57c-0.15,0.15-0.32,0.22-0.52,0.22c-0.19,0-0.37-0.07-0.54-0.2
			c-0.4-0.32-1.67-1.44-3.8-3.35c-0.49-0.44-0.76-0.67-0.8-0.7c-0.13-0.1-0.25-0.15-0.35-0.15c-0.11,0-0.28,0.12-0.5,0.38
			c-0.71,0.81-1.32,1.46-1.84,1.97c-0.18,0.17-0.37,0.26-0.56,0.26c-0.18,0-0.34-0.07-0.48-0.2c-0.17-0.16-0.26-0.34-0.26-0.52
			c0-0.16,0.06-0.31,0.19-0.43c0.02-0.02,0.09-0.09,0.23-0.19c0.48-0.4,1.16-1.05,2.04-1.98c0.23-0.23,0.4-0.39,0.51-0.47
			C63.37,147.84,63.58,147.77,63.8,147.77z M66.89,147.03c0.21,0,0.54,0.21,1,0.62c0.39,0.35,0.58,0.63,0.58,0.83
			c0,0.14-0.06,0.27-0.19,0.37c-0.1,0.08-0.21,0.12-0.34,0.12c-0.17,0-0.31-0.1-0.43-0.29c-0.21-0.34-0.47-0.68-0.79-1.01
			c-0.1-0.11-0.15-0.22-0.15-0.33C66.57,147.14,66.68,147.03,66.89,147.03z M68.2,146.23c0.22,0,0.54,0.18,0.96,0.53
			c0.39,0.32,0.58,0.6,0.58,0.83c0,0.16-0.06,0.28-0.18,0.38c-0.09,0.07-0.19,0.1-0.3,0.1c-0.16,0-0.3-0.09-0.42-0.28
			c-0.2-0.3-0.46-0.61-0.79-0.92c-0.12-0.11-0.18-0.22-0.18-0.33c0-0.07,0.03-0.14,0.09-0.21C68.02,146.26,68.1,146.23,68.2,146.23z
			"/>
		<path d="M76.37,150.28v4.34c0,0.21-0.07,0.37-0.2,0.48c-0.13,0.11-0.29,0.16-0.5,0.16c-0.47,0-0.71-0.21-0.71-0.64v-8.28
			c0-0.42,0.24-0.63,0.71-0.63c0.31,0,0.52,0.11,0.63,0.32c0.05,0.09,0.07,0.2,0.07,0.32v2.72c1.32,0.34,2.34,0.76,3.07,1.24
			c0.32,0.21,0.48,0.46,0.48,0.76c0,0.2-0.07,0.36-0.2,0.5c-0.14,0.15-0.31,0.23-0.52,0.23c-0.18,0-0.4-0.09-0.66-0.27
			C77.93,151.1,77.21,150.69,76.37,150.28z"/>
		<path d="M87.26,148.62v-2.13c0-0.2,0.07-0.36,0.21-0.48c0.13-0.11,0.3-0.17,0.51-0.17c0.28,0,0.49,0.1,0.63,0.31
			c0.06,0.1,0.09,0.21,0.09,0.34v2.04l0.23-0.02c1.41-0.1,2.32-0.17,2.75-0.21c0.06,0,0.1-0.01,0.13-0.01c0.2,0,0.36,0.06,0.49,0.18
			c0.12,0.12,0.19,0.27,0.19,0.46c0,0.28-0.09,0.48-0.27,0.59c-0.11,0.07-0.32,0.11-0.63,0.12c-0.96,0.04-1.92,0.1-2.9,0.17v0.16
			c0,1.91-0.53,3.34-1.58,4.27c-0.5,0.44-0.89,0.67-1.17,0.67c-0.17,0-0.31-0.07-0.42-0.21c-0.07-0.09-0.1-0.19-0.1-0.3
			c0-0.17,0.09-0.34,0.28-0.51c0.72-0.65,1.18-1.41,1.39-2.26c0.11-0.47,0.17-1,0.17-1.57v-0.13c-1.23,0.09-2.26,0.18-3.08,0.25
			c-0.08,0.01-0.14,0.01-0.18,0.01c-0.22,0-0.39-0.06-0.52-0.19c-0.11-0.11-0.17-0.27-0.17-0.46c0-0.35,0.16-0.57,0.48-0.66
			c0.07-0.02,0.84-0.08,2.31-0.19l0.89-0.07L87.26,148.62z"/>
		<path d="M101.76,153.12c-1.44,0.32-3.04,0.64-4.79,0.95c-0.62,0.11-0.98,0.16-1.06,0.16c-0.26,0-0.48-0.07-0.65-0.22
			c-0.2-0.17-0.29-0.39-0.29-0.66c0-0.18,0.05-0.37,0.15-0.55c0.04-0.07,0.14-0.22,0.3-0.47c0.66-0.99,1.37-2.25,2.15-3.78
			c0.32-0.63,0.58-1.19,0.79-1.66c0.14-0.33,0.36-0.49,0.67-0.49c0.15,0,0.3,0.04,0.45,0.13c0.24,0.14,0.36,0.33,0.36,0.58
			c0,0.14-0.04,0.28-0.1,0.42c-0.3,0.62-0.77,1.46-1.4,2.52c-0.55,0.92-1.06,1.73-1.52,2.43c-0.05,0.08-0.08,0.14-0.08,0.18
			c0,0.05,0.04,0.07,0.12,0.07c0.03,0,0.15-0.01,0.35-0.04c1.96-0.28,3.27-0.47,3.93-0.59c-0.35-0.55-0.62-0.96-0.8-1.23
			c-0.11-0.16-0.17-0.31-0.17-0.44c0-0.15,0.06-0.28,0.18-0.39c0.1-0.09,0.2-0.13,0.33-0.13c0.18,0,0.39,0.1,0.61,0.31
			c0.41,0.38,0.88,0.93,1.41,1.65c0.34,0.46,0.6,0.85,0.79,1.19c0.12,0.21,0.18,0.41,0.18,0.61c0,0.24-0.09,0.44-0.28,0.59
			c-0.17,0.14-0.36,0.21-0.57,0.21c-0.28,0-0.49-0.15-0.64-0.45C102.06,153.71,101.92,153.42,101.76,153.12z"/>
	</g>
</g>
<g id="ガイド" display="none">
</g>
</svg>
