<?xml version="1.0" encoding="utf-8"?>
<!-- Generator: Adobe Illustrator 25.4.1, SVG Export Plug-In . SVG Version: 6.00 Build 0)  -->
<svg version="1.1" xmlns="http://www.w3.org/2000/svg" xmlns:xlink="http://www.w3.org/1999/xlink" x="0px" y="0px"
	 viewBox="0 0 164.41 252.28" enable-background="new 0 0 164.41 252.28" xml:space="preserve">
<g id="地">
	<rect fill="#DCDDDD" width="164.41" height="252.28"/>
</g>
<g id="枠">
</g>
<g id="国旗">
	<g>
		<g>
			<rect x="25.51" y="60.12" fill="#118749" width="113.39" height="75.59"/>
			<rect x="72.76" y="60.12" fill="#F5CF21" width="66.14" height="37.8"/>
			<rect x="72.76" y="97.92" fill="#C8152A" width="66.14" height="37.8"/>
		</g>
	</g>
</g>
<g id="国名">
	<g>
		<path d="M69.47,147.77c0.23,0,0.48,0.09,0.76,0.27c0.13,0.08,0.34,0.24,0.64,0.48c2.18,1.78,3.68,2.98,4.51,3.6
			c0.25,0.18,0.37,0.41,0.37,0.67c0,0.22-0.08,0.41-0.24,0.57c-0.15,0.15-0.32,0.22-0.52,0.22c-0.19,0-0.37-0.07-0.54-0.2
			c-0.4-0.32-1.67-1.44-3.8-3.35c-0.49-0.44-0.76-0.67-0.8-0.7c-0.13-0.1-0.25-0.15-0.35-0.15c-0.11,0-0.28,0.12-0.5,0.38
			c-0.71,0.81-1.32,1.46-1.84,1.97c-0.18,0.17-0.37,0.26-0.56,0.26c-0.18,0-0.34-0.07-0.48-0.2c-0.17-0.16-0.26-0.34-0.26-0.52
			c0-0.16,0.06-0.31,0.19-0.43c0.02-0.02,0.09-0.09,0.23-0.19c0.48-0.4,1.16-1.05,2.04-1.98c0.23-0.23,0.4-0.39,0.51-0.47
			C69.04,147.84,69.25,147.77,69.47,147.77z M72.56,147.03c0.21,0,0.54,0.21,1,0.62c0.39,0.35,0.58,0.63,0.58,0.83
			c0,0.14-0.06,0.27-0.19,0.37c-0.1,0.08-0.21,0.12-0.34,0.12c-0.17,0-0.31-0.1-0.43-0.29c-0.21-0.34-0.47-0.68-0.79-1.01
			c-0.1-0.11-0.15-0.22-0.15-0.33C72.24,147.14,72.35,147.03,72.56,147.03z M73.87,146.23c0.22,0,0.54,0.18,0.96,0.53
			c0.39,0.32,0.58,0.6,0.58,0.83c0,0.16-0.06,0.28-0.18,0.38c-0.09,0.07-0.19,0.1-0.3,0.1c-0.16,0-0.3-0.09-0.42-0.28
			c-0.2-0.3-0.46-0.61-0.79-0.92c-0.12-0.11-0.18-0.22-0.18-0.33c0-0.07,0.03-0.14,0.09-0.21
			C73.69,146.26,73.77,146.23,73.87,146.23z"/>
		<path d="M81.6,148.62v-2.13c0-0.2,0.07-0.36,0.21-0.48c0.13-0.11,0.3-0.17,0.51-0.17c0.28,0,0.49,0.1,0.63,0.31
			c0.06,0.1,0.09,0.21,0.09,0.34v2.04l0.23-0.02c1.41-0.1,2.32-0.17,2.75-0.21c0.06,0,0.1-0.01,0.13-0.01c0.2,0,0.36,0.06,0.49,0.18
			c0.12,0.12,0.19,0.27,0.19,0.46c0,0.28-0.09,0.48-0.27,0.59c-0.11,0.07-0.32,0.11-0.63,0.12c-0.96,0.04-1.92,0.1-2.9,0.17v0.16
			c0,1.91-0.53,3.34-1.58,4.27c-0.5,0.44-0.89,0.67-1.17,0.67c-0.17,0-0.31-0.07-0.42-0.21c-0.07-0.09-0.1-0.19-0.1-0.3
			c0-0.17,0.09-0.34,0.28-0.51c0.72-0.65,1.18-1.41,1.39-2.26c0.11-0.47,0.17-1,0.17-1.57v-0.13c-1.23,0.09-2.26,0.18-3.08,0.25
			c-0.08,0.01-0.14,0.01-0.18,0.01c-0.22,0-0.39-0.06-0.52-0.19c-0.11-0.11-0.17-0.27-0.17-0.46c0-0.35,0.16-0.57,0.48-0.66
			c0.07-0.02,0.84-0.08,2.31-0.19l0.89-0.07L81.6,148.62z"/>
		<path d="M90.42,146.82c0.15,0,0.41,0.07,0.78,0.2c0.69,0.24,1.26,0.53,1.71,0.86c0.24,0.17,0.35,0.39,0.35,0.65
			c0,0.14-0.05,0.29-0.14,0.43c-0.14,0.21-0.33,0.32-0.56,0.32c-0.2,0-0.43-0.09-0.67-0.28c-0.62-0.49-1.18-0.88-1.68-1.16
			c-0.25-0.14-0.38-0.31-0.38-0.51C89.83,146.99,90.03,146.82,90.42,146.82z M97.54,148.59c0.13,0,0.25,0.04,0.36,0.13
			c0.15,0.11,0.23,0.26,0.23,0.45c0,0.15-0.06,0.32-0.18,0.5c-0.85,1.27-1.97,2.37-3.36,3.3c-1.16,0.77-2.35,1.32-3.59,1.66
			c-0.13,0.03-0.24,0.05-0.34,0.05c-0.31,0-0.54-0.14-0.67-0.43c-0.06-0.13-0.09-0.25-0.09-0.37c0-0.27,0.13-0.47,0.4-0.6
			c0.06-0.03,0.3-0.1,0.74-0.23c1.59-0.47,3.06-1.3,4.43-2.51c0.52-0.47,1.02-1,1.48-1.59C97.14,148.7,97.33,148.59,97.54,148.59z"
			/>
	</g>
</g>
<g id="ガイド" display="none">
</g>
</svg>
