<?xml version="1.0" encoding="utf-8"?>
<!-- Generator: Adobe Illustrator 25.4.1, SVG Export Plug-In . SVG Version: 6.00 Build 0)  -->
<svg version="1.1" xmlns="http://www.w3.org/2000/svg" xmlns:xlink="http://www.w3.org/1999/xlink" x="0px" y="0px"
	 viewBox="0 0 164.41 252.28" enable-background="new 0 0 164.41 252.28" xml:space="preserve">
<g id="地">
	<rect fill="#DCDDDD" width="164.41" height="252.28"/>
</g>
<g id="枠">
</g>
<g id="国旗">
	<g>
		<g>
			<rect x="25.51" y="60.17" fill="#FFFFFF" width="113.39" height="75.59"/>
			<rect x="25.51" y="92.04" fill="#040000" width="113.39" height="11.84"/>
			<rect x="25.51" y="60.17" fill="#6CC5E3" width="113.39" height="29.61"/>
			<rect x="25.51" y="106.15" fill="#6CC5E3" width="113.39" height="29.61"/>
		</g>
	</g>
</g>
<g id="国名">
	<g>
		<path d="M62.27,150.43c0.11,0,0.21,0.03,0.3,0.08c0.2,0.11,0.29,0.29,0.29,0.53c0,0.21-0.08,0.52-0.25,0.95
			c-0.25,0.66-0.54,1.17-0.86,1.52c-0.18,0.21-0.39,0.31-0.61,0.31c-0.16,0-0.3-0.05-0.44-0.15c-0.19-0.14-0.28-0.32-0.28-0.54
			c0-0.18,0.1-0.39,0.3-0.63c0.4-0.46,0.73-1.01,1.01-1.64C61.85,150.58,62.03,150.43,62.27,150.43z M64.48,148.07v-1.77
			c0-0.19,0.06-0.34,0.17-0.45c0.13-0.13,0.3-0.19,0.52-0.19c0.29,0,0.5,0.11,0.61,0.33c0.05,0.09,0.08,0.2,0.08,0.32v1.68
			l0.21-0.02l0.69-0.05l1.24-0.1c0.38-0.03,0.6-0.05,0.65-0.05c0.18,0,0.32,0.06,0.44,0.19c0.11,0.12,0.17,0.28,0.17,0.48
			c0,0.4-0.18,0.62-0.55,0.65c-0.25,0.03-1.2,0.09-2.85,0.2c0.01,1.9,0.03,3.04,0.03,3.42c0.01,0.6,0.02,1.01,0.02,1.24
			c0,0.37-0.07,0.66-0.22,0.87c-0.19,0.29-0.44,0.43-0.74,0.43c-0.15,0-0.31-0.05-0.48-0.15c-0.49-0.28-0.95-0.56-1.37-0.84
			c-0.2-0.13-0.3-0.28-0.3-0.45c0-0.08,0.02-0.16,0.07-0.24c0.08-0.15,0.21-0.23,0.4-0.23c0.08,0,0.19,0.02,0.3,0.07
			c0.46,0.18,0.73,0.27,0.81,0.27c0.1,0,0.15-0.14,0.15-0.41c0-0.01,0-0.08-0.01-0.2c-0.01-0.18-0.01-0.79-0.02-1.81
			c0-0.23-0.01-0.85-0.02-1.88l-0.22,0.02l-1.29,0.09c-0.94,0.06-1.42,0.09-1.44,0.09c-0.2,0-0.35-0.06-0.47-0.18
			c-0.11-0.11-0.16-0.27-0.16-0.46c0-0.32,0.12-0.54,0.37-0.63c0.08-0.03,0.23-0.05,0.44-0.06c0.37-0.01,1.21-0.07,2.52-0.15
			L64.48,148.07z M67.56,150.2c0.34,0,0.87,0.47,1.58,1.42c0.4,0.53,0.59,0.93,0.59,1.2c0,0.24-0.11,0.44-0.32,0.59
			c-0.16,0.12-0.33,0.17-0.49,0.17c-0.28,0-0.5-0.19-0.66-0.56c-0.28-0.68-0.64-1.31-1.05-1.91c-0.11-0.16-0.17-0.31-0.17-0.43
			c0-0.11,0.04-0.21,0.13-0.3C67.28,150.26,67.41,150.2,67.56,150.2z M68.05,145.5c0.21,0,0.54,0.21,1,0.62
			c0.39,0.35,0.58,0.63,0.58,0.84c0,0.14-0.06,0.27-0.19,0.37c-0.1,0.08-0.21,0.12-0.33,0.12c-0.17,0-0.31-0.1-0.43-0.29
			c-0.23-0.37-0.49-0.7-0.79-1.01c-0.1-0.11-0.16-0.22-0.16-0.33C67.74,145.61,67.84,145.5,68.05,145.5z M69.27,144.84
			c0.22,0,0.54,0.18,0.96,0.53c0.39,0.33,0.58,0.6,0.58,0.83c0,0.16-0.06,0.28-0.18,0.38c-0.09,0.07-0.19,0.1-0.3,0.1
			c-0.16,0-0.3-0.09-0.42-0.28c-0.2-0.3-0.47-0.61-0.79-0.92c-0.12-0.12-0.18-0.23-0.18-0.33c0-0.07,0.03-0.14,0.09-0.2
			C69.08,144.87,69.16,144.84,69.27,144.84z"/>
		<path d="M72.56,147.19c0.25,0,0.62,0.29,1.1,0.88c0.53,0.65,0.8,1.14,0.8,1.49c0,0.22-0.09,0.4-0.26,0.55
			c-0.17,0.14-0.35,0.22-0.55,0.22c-0.29,0-0.5-0.19-0.64-0.56c-0.22-0.6-0.48-1.15-0.8-1.66c-0.11-0.17-0.16-0.32-0.16-0.44
			c0-0.11,0.05-0.22,0.14-0.31C72.29,147.25,72.42,147.19,72.56,147.19z M79.92,146.62c0.15,0,0.29,0.04,0.43,0.11
			c0.24,0.12,0.36,0.33,0.36,0.62c0,0.25-0.08,0.69-0.24,1.32c-0.69,2.61-2.15,4.57-4.4,5.87c-0.38,0.22-0.65,0.33-0.82,0.33
			c-0.2,0-0.35-0.09-0.45-0.27c-0.05-0.1-0.08-0.19-0.08-0.28c0-0.19,0.13-0.38,0.4-0.56c1.34-0.89,2.35-1.97,3.05-3.24
			c0.51-0.94,0.87-2,1.07-3.18C79.33,146.86,79.55,146.62,79.92,146.62z M75.41,146.29c0.24,0,0.51,0.22,0.81,0.66
			c0.32,0.47,0.56,0.93,0.73,1.4c0.06,0.17,0.09,0.32,0.09,0.46c0,0.28-0.11,0.5-0.32,0.64c-0.14,0.09-0.3,0.14-0.46,0.14
			c-0.3,0-0.5-0.14-0.62-0.41c-0.02-0.04-0.05-0.13-0.08-0.28c-0.17-0.69-0.36-1.27-0.57-1.75c-0.06-0.15-0.09-0.28-0.09-0.4
			c0-0.16,0.06-0.28,0.19-0.37C75.18,146.32,75.29,146.29,75.41,146.29z"/>
		<path d="M85.22,148.2l0.19,2.03c0,0.04,0.01,0.08,0.01,0.11c0,0.47-0.24,0.7-0.73,0.7c-0.4,0-0.62-0.21-0.66-0.63l-0.26-2.88
			c0-0.04-0.01-0.08-0.01-0.12c0-0.46,0.23-0.69,0.69-0.69c0.25,0,0.44,0.08,0.56,0.25l0.4-0.03c3.19-0.19,4.94-0.29,5.25-0.29
			c0.37,0,0.65,0.1,0.84,0.29c0.19,0.19,0.29,0.45,0.29,0.76c0,0.31-0.09,0.8-0.27,1.5c-0.31,1.18-0.75,2.18-1.32,3.01
			c-0.69,1-1.55,1.8-2.6,2.4c-0.16,0.09-0.3,0.14-0.42,0.14c-0.16,0-0.29-0.06-0.39-0.19c-0.08-0.1-0.12-0.2-0.12-0.3
			c0-0.14,0.06-0.26,0.17-0.38c0.03-0.03,0.13-0.11,0.29-0.23c0.7-0.53,1.32-1.21,1.87-2.05c0.46-0.71,0.81-1.56,1.06-2.53
			c0.11-0.45,0.17-0.76,0.17-0.95c0-0.08-0.03-0.13-0.08-0.16c-0.03-0.01-0.11-0.02-0.22-0.02c-0.48,0-1.92,0.08-4.33,0.25
			L85.22,148.2z"/>
		<path d="M98.6,148.62v-2.13c0-0.2,0.07-0.36,0.21-0.48c0.13-0.11,0.3-0.17,0.51-0.17c0.28,0,0.49,0.1,0.63,0.31
			c0.06,0.1,0.09,0.21,0.09,0.34v2.04l0.23-0.02c1.41-0.1,2.32-0.17,2.75-0.21c0.06,0,0.1-0.01,0.13-0.01c0.2,0,0.36,0.06,0.49,0.18
			c0.12,0.12,0.19,0.27,0.19,0.46c0,0.28-0.09,0.48-0.27,0.59c-0.11,0.07-0.32,0.11-0.63,0.12c-0.96,0.04-1.92,0.1-2.9,0.17v0.16
			c0,1.91-0.53,3.34-1.58,4.27c-0.5,0.44-0.89,0.67-1.17,0.67c-0.17,0-0.31-0.07-0.42-0.21c-0.07-0.09-0.1-0.19-0.1-0.3
			c0-0.17,0.09-0.34,0.28-0.51c0.72-0.65,1.18-1.41,1.39-2.26c0.11-0.47,0.17-1,0.17-1.57v-0.13c-1.23,0.09-2.26,0.18-3.08,0.25
			c-0.08,0.01-0.14,0.01-0.18,0.01c-0.22,0-0.39-0.06-0.52-0.19c-0.11-0.11-0.17-0.27-0.17-0.46c0-0.35,0.16-0.57,0.48-0.66
			c0.07-0.02,0.84-0.08,2.31-0.19l0.89-0.07L98.6,148.62z"/>
	</g>
</g>
<g id="ガイド" display="none">
</g>
</svg>
