<?xml version="1.0" encoding="utf-8"?>
<!-- Generator: Adobe Illustrator 25.4.1, SVG Export Plug-In . SVG Version: 6.00 Build 0)  -->
<svg version="1.1" xmlns="http://www.w3.org/2000/svg" xmlns:xlink="http://www.w3.org/1999/xlink" x="0px" y="0px"
	 viewBox="0 0 164.41 252.28" enable-background="new 0 0 164.41 252.28" xml:space="preserve">
<g id="地">
	<rect fill="#DCDDDD" width="164.41" height="252.28"/>
</g>
<g id="枠">
</g>
<g id="国旗">
	<g>
		<g>
			<rect x="25.51" y="60.17" fill="#FFFFFF" width="113.39" height="75.59"/>
			<rect x="25.51" y="60.17" fill="#128CBA" width="113.39" height="25.2"/>
			<rect x="25.51" y="110.56" fill="#128CBA" width="113.39" height="25.2"/>
			<polygon fill="#128CBA" points="81.45,94.31 82.48,97.49 85.82,97.49 83.12,99.45 84.15,102.63 81.45,100.67 78.75,102.63 
				79.78,99.45 77.08,97.49 80.42,97.49 			"/>
			<polygon fill="#128CBA" points="71.33,86.66 72.37,89.83 75.71,89.83 73,91.79 74.04,94.97 71.33,93.01 68.63,94.97 69.66,91.79 
				66.96,89.83 70.3,89.83 			"/>
			<polygon fill="#128CBA" points="91.56,86.66 90.53,89.83 87.19,89.83 89.89,91.79 88.86,94.97 91.56,93.01 94.26,94.97 
				93.23,91.79 95.93,89.83 92.6,89.83 			"/>
			<polygon fill="#128CBA" points="71.33,101.33 72.37,104.51 75.71,104.51 73,106.47 74.04,109.64 71.33,107.68 68.63,109.64 
				69.66,106.47 66.96,104.51 70.3,104.51 			"/>
			<polygon fill="#128CBA" points="91.56,101.33 90.53,104.51 87.19,104.51 89.89,106.47 88.86,109.64 91.56,107.68 94.26,109.64 
				93.23,106.47 95.93,104.51 92.6,104.51 			"/>
		</g>
	</g>
</g>
<g id="国名">
	<g>
		<path d="M50.93,150.43c0.11,0,0.21,0.03,0.3,0.08c0.2,0.11,0.29,0.29,0.29,0.53c0,0.21-0.08,0.52-0.25,0.95
			c-0.25,0.66-0.54,1.17-0.86,1.52c-0.18,0.21-0.39,0.31-0.61,0.31c-0.16,0-0.3-0.05-0.44-0.15c-0.19-0.14-0.28-0.32-0.28-0.54
			c0-0.18,0.1-0.39,0.3-0.63c0.39-0.46,0.73-1.01,1.01-1.64C50.51,150.58,50.69,150.43,50.93,150.43z M53.14,147.95v-1.66
			c0-0.19,0.06-0.34,0.17-0.45c0.13-0.13,0.3-0.19,0.52-0.19c0.29,0,0.5,0.11,0.62,0.33c0.05,0.09,0.08,0.2,0.08,0.32v1.57
			l0.21-0.02l0.69-0.05l1.24-0.1c0.39-0.03,0.61-0.05,0.65-0.05c0.18,0,0.33,0.06,0.44,0.19c0.11,0.13,0.17,0.28,0.17,0.48
			c0,0.4-0.18,0.62-0.55,0.66c-0.25,0.03-1.2,0.09-2.85,0.19c0.01,1.59,0.02,2.75,0.03,3.48c0.01,0.71,0.02,1.13,0.02,1.27
			c0,0.38-0.07,0.68-0.22,0.9c-0.19,0.29-0.44,0.43-0.75,0.43c-0.14,0-0.3-0.05-0.48-0.15c-0.48-0.28-0.94-0.56-1.37-0.84
			c-0.2-0.13-0.3-0.28-0.3-0.45c0-0.08,0.02-0.16,0.07-0.24c0.08-0.15,0.21-0.23,0.4-0.23c0.08,0,0.19,0.02,0.3,0.07
			c0.46,0.18,0.73,0.27,0.8,0.27c0.05,0,0.08-0.02,0.1-0.06c0.03-0.04,0.04-0.17,0.04-0.39l-0.01-0.8l-0.02-1.84l-0.01-0.96v-0.36
			l-0.22,0.01l-1.29,0.09c-0.93,0.06-1.41,0.09-1.44,0.09c-0.2,0-0.35-0.06-0.46-0.18c-0.11-0.11-0.16-0.27-0.16-0.46
			c0-0.33,0.12-0.54,0.37-0.64c0.08-0.03,0.23-0.05,0.44-0.06c0.35-0.01,1.19-0.06,2.52-0.15L53.14,147.95z M56.22,150.2
			c0.34,0,0.87,0.47,1.58,1.42c0.4,0.53,0.59,0.93,0.59,1.2c0,0.24-0.11,0.44-0.32,0.59c-0.16,0.12-0.33,0.17-0.49,0.17
			c-0.28,0-0.5-0.19-0.66-0.56c-0.29-0.68-0.64-1.31-1.05-1.91c-0.11-0.16-0.17-0.31-0.17-0.43c0-0.11,0.04-0.21,0.13-0.3
			C55.95,150.26,56.07,150.2,56.22,150.2z"/>
		<path d="M62.07,146.82c0.15,0,0.41,0.07,0.78,0.2c0.69,0.24,1.26,0.53,1.71,0.86c0.24,0.17,0.35,0.39,0.35,0.65
			c0,0.14-0.05,0.29-0.14,0.43c-0.14,0.21-0.33,0.32-0.56,0.32c-0.2,0-0.43-0.09-0.67-0.28c-0.62-0.49-1.18-0.88-1.68-1.16
			c-0.25-0.14-0.38-0.31-0.38-0.51C61.48,146.99,61.68,146.82,62.07,146.82z M69.19,148.59c0.12,0,0.25,0.04,0.36,0.13
			c0.15,0.11,0.23,0.26,0.23,0.45c0,0.15-0.06,0.32-0.18,0.5c-0.85,1.27-1.97,2.37-3.36,3.3c-1.16,0.77-2.35,1.32-3.59,1.66
			c-0.13,0.03-0.24,0.05-0.34,0.05c-0.31,0-0.54-0.14-0.67-0.43c-0.06-0.13-0.09-0.25-0.09-0.37c0-0.27,0.13-0.47,0.4-0.6
			c0.06-0.03,0.3-0.1,0.74-0.23c1.59-0.47,3.07-1.3,4.43-2.51c0.52-0.47,1.02-1,1.48-1.59C68.79,148.7,68.98,148.59,69.19,148.59z"
			/>
		<path d="M72.58,148.77c0.23,0,0.56,0.08,1.01,0.24c0.52,0.19,0.95,0.41,1.3,0.66c0.24,0.18,0.36,0.39,0.36,0.65
			c0,0.16-0.06,0.31-0.17,0.45c-0.14,0.19-0.33,0.29-0.56,0.29c-0.17,0-0.35-0.08-0.56-0.25c-0.42-0.34-0.95-0.7-1.61-1.07
			c-0.22-0.13-0.33-0.28-0.33-0.48c0-0.09,0.02-0.17,0.07-0.26C72.18,148.85,72.35,148.77,72.58,148.77z M80.45,148.4
			c0.11,0,0.21,0.03,0.32,0.09c0.18,0.11,0.28,0.27,0.28,0.48c0,0.21-0.17,0.6-0.52,1.18c-0.57,0.96-1.35,1.83-2.34,2.63
			c-1.18,0.95-2.48,1.67-3.92,2.16c-0.16,0.06-0.3,0.08-0.41,0.08c-0.29,0-0.51-0.13-0.64-0.4c-0.07-0.13-0.1-0.26-0.1-0.38
			c0-0.28,0.13-0.48,0.38-0.62c0.04-0.02,0.28-0.11,0.72-0.26c1.2-0.42,2.31-1.04,3.35-1.87c1-0.79,1.77-1.68,2.31-2.67
			C80.03,148.54,80.22,148.4,80.45,148.4z M73.92,146.26c0.34,0,0.9,0.24,1.68,0.72c0.24,0.14,0.41,0.26,0.52,0.35
			c0.21,0.17,0.32,0.38,0.32,0.61c0,0.16-0.06,0.3-0.17,0.44c-0.17,0.2-0.36,0.3-0.58,0.3c-0.19,0-0.38-0.1-0.58-0.3
			c-0.33-0.34-0.81-0.73-1.45-1.2c-0.2-0.14-0.29-0.3-0.29-0.46c0-0.09,0.03-0.18,0.08-0.26C73.55,146.33,73.71,146.26,73.92,146.26
			z M79.06,145.94c0.21,0,0.54,0.21,0.99,0.62c0.39,0.35,0.58,0.63,0.58,0.84c0,0.14-0.06,0.27-0.19,0.37
			c-0.1,0.08-0.21,0.12-0.34,0.12c-0.17,0-0.31-0.1-0.43-0.29c-0.21-0.35-0.48-0.69-0.79-1.01c-0.1-0.11-0.16-0.22-0.16-0.33
			C78.74,146.05,78.85,145.94,79.06,145.94z M80.21,145.11c0.22,0,0.54,0.18,0.96,0.53c0.39,0.32,0.58,0.6,0.58,0.82
			c0,0.17-0.06,0.29-0.18,0.38c-0.09,0.07-0.19,0.1-0.3,0.1c-0.16,0-0.3-0.09-0.42-0.28c-0.2-0.3-0.47-0.61-0.79-0.92
			c-0.12-0.11-0.18-0.22-0.18-0.33c0-0.07,0.03-0.14,0.09-0.21C80.03,145.14,80.11,145.11,80.21,145.11z"/>
		<path d="M88.22,152.74c0.21-1.23,0.31-1.97,0.31-2.21c0-0.11-0.05-0.16-0.14-0.16c-0.04,0-0.1,0-0.18,0.01
			c-0.25,0.03-0.69,0.06-1.32,0.11c-0.38,0.03-0.67,0.05-0.88,0.08c-0.06,0.01-0.11,0.01-0.15,0.01c-0.19,0-0.34-0.07-0.45-0.22
			c-0.07-0.1-0.11-0.23-0.11-0.38c0-0.29,0.13-0.48,0.39-0.56c0.06-0.02,0.19-0.03,0.39-0.04l1.29-0.1c0.96-0.07,1.47-0.1,1.54-0.1
			c0.38,0,0.66,0.15,0.82,0.44c0.07,0.14,0.11,0.29,0.11,0.46c0,0.07-0.01,0.17-0.03,0.32c-0.02,0.13-0.05,0.34-0.09,0.63
			c-0.07,0.47-0.14,0.95-0.21,1.44l-0.03,0.21l0.12-0.01c0.86-0.05,1.34-0.08,1.45-0.09c0.04,0,0.07-0.01,0.08-0.01
			c0.13,0,0.25,0.04,0.34,0.12c0.14,0.11,0.21,0.27,0.21,0.48c0,0.32-0.14,0.51-0.42,0.57c-0.04,0.01-1.3,0.09-3.77,0.24
			c-2.03,0.12-3.07,0.18-3.1,0.18c-0.23,0-0.39-0.09-0.49-0.28c-0.04-0.09-0.07-0.19-0.07-0.31c0-0.21,0.07-0.37,0.22-0.48
			c0.12-0.08,0.31-0.13,0.6-0.13c0.06,0,1.15-0.07,3.28-0.19L88.22,152.74z"/>
		<path d="M102.05,148.71c0.42,0,0.72,0.15,0.91,0.44c0.1,0.17,0.15,0.37,0.15,0.6c0,0.33-0.11,0.76-0.34,1.29
			c-0.49,1.17-1.32,2.17-2.47,3.02c-0.61,0.45-1.25,0.79-1.92,1.04c-0.17,0.06-0.31,0.09-0.43,0.09c-0.16,0-0.29-0.07-0.38-0.2
			c-0.07-0.11-0.11-0.22-0.11-0.34c0-0.17,0.08-0.31,0.23-0.42c0.03-0.02,0.2-0.11,0.49-0.26c0.73-0.38,1.42-0.91,2.06-1.6
			c0.54-0.58,0.94-1.17,1.2-1.77c0.09-0.2,0.13-0.34,0.13-0.43c0-0.09-0.07-0.13-0.2-0.13c-0.06,0-0.72,0.04-1.99,0.12l-2.37,0.17
			c-0.9,0.07-1.37,0.1-1.4,0.1c-0.23,0-0.4-0.08-0.52-0.25c-0.07-0.11-0.11-0.24-0.11-0.39c0-0.39,0.19-0.62,0.56-0.67
			c0.24-0.03,2.02-0.15,5.37-0.34c0.27-0.01,0.47-0.03,0.61-0.04C101.82,148.72,101.99,148.71,102.05,148.71z M101.17,146.17
			c0.19,0,0.34,0.08,0.45,0.23c0.08,0.12,0.13,0.26,0.13,0.42c0,0.37-0.18,0.59-0.53,0.64c-0.28,0.04-0.68,0.08-1.22,0.13
			c-0.14,0.01-0.75,0.05-1.81,0.11c-0.65,0.04-1.08,0.05-1.31,0.05c-0.46,0-0.7-0.22-0.7-0.65c0-0.33,0.14-0.53,0.41-0.61
			c0.07-0.02,0.23-0.03,0.48-0.03c1.02-0.01,2.21-0.09,3.58-0.23c0.05-0.01,0.17-0.02,0.35-0.04
			C101.08,146.17,101.13,146.17,101.17,146.17z"/>
		<path d="M110.71,151.75c-1.04,1.06-2.12,1.91-3.23,2.56c-0.46,0.27-0.78,0.4-0.94,0.4c-0.2,0-0.35-0.09-0.45-0.27
			c-0.06-0.1-0.09-0.19-0.09-0.27c0-0.16,0.08-0.31,0.23-0.44c0.04-0.03,0.17-0.12,0.39-0.27c0.89-0.57,1.82-1.33,2.79-2.28
			c0.98-0.97,1.71-1.92,2.17-2.86c0.08-0.16,0.12-0.27,0.12-0.32c0-0.07-0.04-0.1-0.11-0.1c-0.05,0-0.13,0.01-0.25,0.03
			c-0.22,0.03-1.08,0.1-2.58,0.22c-0.26,0.02-0.48,0.04-0.67,0.05c-0.07,0.01-0.13,0.01-0.17,0.01c-0.3,0-0.5-0.11-0.62-0.33
			c-0.05-0.1-0.07-0.21-0.07-0.33c0-0.31,0.14-0.51,0.44-0.6c0.09-0.03,0.28-0.05,0.59-0.07c1.04-0.04,2.36-0.15,3.96-0.33
			c0.07-0.01,0.13-0.01,0.18-0.01c0.32,0,0.58,0.09,0.78,0.28c0.18,0.17,0.27,0.38,0.27,0.64c0,0.2-0.1,0.49-0.29,0.9
			c-0.38,0.79-0.94,1.64-1.68,2.55c1.22,0.76,2.17,1.47,2.85,2.14c0.31,0.3,0.46,0.58,0.46,0.83c0,0.19-0.07,0.36-0.21,0.51
			c-0.15,0.16-0.32,0.23-0.52,0.23c-0.2,0-0.37-0.07-0.52-0.22c-0.02-0.02-0.08-0.09-0.19-0.21
			C112.56,153.39,111.69,152.57,110.71,151.75z"/>
	</g>
</g>
<g id="ガイド" display="none">
</g>
</svg>
