<?xml version="1.0" encoding="utf-8"?>
<!-- Generator: Adobe Illustrator 25.4.1, SVG Export Plug-In . SVG Version: 6.00 Build 0)  -->
<svg version="1.1" xmlns="http://www.w3.org/2000/svg" xmlns:xlink="http://www.w3.org/1999/xlink" x="0px" y="0px"
	 viewBox="0 0 164.41 252.28" enable-background="new 0 0 164.41 252.28" xml:space="preserve">
<g id="地">
	<rect fill="#DCDDDD" width="164.41" height="252.28"/>
</g>
<g id="枠">
</g>
<g id="国旗">
	<g>
		<g>
			<rect x="25.51" y="60.17" fill="#04755C" width="113.39" height="75.59"/>
			<polygon fill="#F1CA27" points="82.2,72.47 83.19,75.51 86.39,75.51 83.8,77.39 84.79,80.43 82.2,78.55 79.62,80.43 80.61,77.39 
				78.02,75.51 81.22,75.51 			"/>
			<polygon fill="#F1CA27" points="93.77,82.44 92.95,80.6 90.94,80.82 92.44,79.46 91.61,77.63 93.36,78.63 94.85,77.27 
				94.44,79.25 96.19,80.25 94.19,80.47 			"/>
			<polygon fill="#F1CA27" points="98.19,90.12 98.39,88.12 96.55,87.3 98.52,86.88 98.72,84.87 99.73,86.61 101.7,86.19 
				100.36,87.69 101.38,89.43 99.53,88.62 			"/>
			<path fill="#FFFFFF" d="M82.2,103.11c-4.28,3.9-6.02,4.32-11.07,4.11c-5.05-0.22-8.55-3.32-8.55-3.32l1.77-1.05
				c5.18,4.06,10.82,3.25,10.82,3.25c-10.16-1.05-12.52-7.65-12.52-7.65c7.16-4.71,14.6,0.93,14.6,0.93
				C72.62,95.07,66.67,96,66.67,96l-1.55-1.89c7.31-1.05,12.86,4.09,12.86,4.09c-5.24-7.75-1.21-13.33-1.21-13.33l1.7,1.61
				c-2.94,6.17,0.25,11.19,0.25,11.19c-4.06-9.2,3.48-14.69,3.48-14.69s7.54,5.49,3.48,14.69c0,0,3.19-5.02,0.25-11.19l1.7-1.61
				c0,0,4.03,5.58-1.21,13.33c0,0,5.55-5.14,12.86-4.09L97.74,96c0,0-5.95-0.93-10.57,3.38c0,0,7.44-5.64,14.6-0.93
				c0,0-2.35,6.6-12.52,7.65c0,0,5.64,0.81,10.82-3.25l1.77,1.05c0,0-3.5,3.1-8.55,3.32C88.23,107.44,86.48,107.02,82.2,103.11z"/>
			<path fill="#FFFFFF" d="M82.2,106.47c-2.47,2.47-4.5,3.15-7.72,3.15c-3.22,0-9.07-0.01-10.17-0.01c-0.5-0.5-1.1-1.52-1.1-1.52
				s6.95,0,11.15,0c4.21,0,7.83-3.71,7.83-3.71s3.63,3.71,7.83,3.71c4.21,0,11.15,0,11.15,0s-0.6,1.02-1.1,1.52
				c-1.1,0-6.95,0.01-10.17,0.01C86.7,109.62,84.67,108.94,82.2,106.47z"/>
			<path fill="#FFFFFF" d="M65.62,111.5c-0.31-0.2-0.55-0.53-0.55-0.53h34.27c0,0-0.24,0.33-0.55,0.53
				C97.88,111.5,66.53,111.5,65.62,111.5z"/>
			<path fill="#FFFFFF" d="M68.06,114.17c-0.26-0.16-1.29-1.16-1.29-1.16h30.87c0,0-1.03,1-1.29,1.16H68.06z"/>
			<path fill="#FFFFFF" d="M71.83,116.78c-0.87-0.32-2.48-1.61-2.48-1.61h25.72c0,0-1.61,1.29-2.48,1.61H71.83z"/>
			<path fill="#FFFFFF" d="M82.2,119.42c-5.48,0-9.32-2.09-9.32-2.09h18.63C91.52,117.33,87.68,119.42,82.2,119.42z"/>
			<polygon fill="#F1CA27" points="70.64,82.44 71.46,80.6 73.47,80.82 71.97,79.46 72.8,77.63 71.05,78.63 69.56,77.27 
				69.97,79.25 68.22,80.25 70.22,80.47 			"/>
			<polygon fill="#F1CA27" points="66.22,90.12 66.02,88.12 67.86,87.3 65.89,86.88 65.69,84.87 64.68,86.61 62.7,86.19 
				64.05,87.69 63.03,89.43 64.88,88.62 			"/>
		</g>
	</g>
</g>
<g id="国名">
	<g>
		<path d="M71.01,151.51c0.94-0.7,1.72-1.48,2.35-2.34c0.12-0.17,0.18-0.27,0.18-0.31c0-0.05-0.05-0.07-0.16-0.07
			c-0.38,0-2.5,0.15-6.37,0.44c-0.08,0.01-0.13,0.01-0.15,0.01c-0.22,0-0.39-0.07-0.5-0.22c-0.1-0.12-0.15-0.28-0.15-0.46
			c0-0.37,0.17-0.58,0.5-0.66c0.06-0.01,0.86-0.07,2.41-0.19c3.25-0.2,4.99-0.29,5.2-0.29c0.34,0,0.62,0.09,0.82,0.26
			c0.2,0.17,0.3,0.39,0.3,0.65c0,0.27-0.16,0.61-0.47,1.04c-0.76,1.03-1.81,2-3.14,2.91c0.29,0.31,0.51,0.56,0.66,0.75
			c0.17,0.23,0.25,0.44,0.25,0.65c0,0.29-0.12,0.51-0.35,0.66c-0.14,0.09-0.28,0.13-0.42,0.13c-0.18,0-0.33-0.07-0.46-0.19
			c-0.04-0.04-0.12-0.15-0.23-0.31c-0.44-0.62-1-1.3-1.69-2.03c-0.16-0.17-0.33-0.34-0.52-0.52c-0.15-0.14-0.22-0.29-0.22-0.45
			c0-0.15,0.06-0.28,0.17-0.39c0.1-0.1,0.22-0.16,0.36-0.16c0.16,0,0.35,0.08,0.58,0.24C70.27,150.89,70.62,151.17,71.01,151.51z"/>
		<path d="M81.21,148.14c0.15-0.65,0.26-1.23,0.33-1.75c0.05-0.45,0.29-0.67,0.71-0.67c0.49,0,0.73,0.22,0.73,0.65
			c0,0.29-0.09,0.84-0.27,1.64c0.52-0.04,1.11-0.1,1.77-0.17c0.09-0.01,0.17-0.01,0.23-0.01c0.3,0,0.56,0.08,0.77,0.23
			c0.27,0.2,0.41,0.49,0.41,0.86c0,0.13-0.05,0.52-0.14,1.16c-0.28,1.85-0.65,3.24-1.11,4.16c-0.29,0.57-0.67,0.86-1.15,0.86
			c-0.25,0-0.52-0.1-0.8-0.29c-0.83-0.58-1.25-1.02-1.25-1.3c0-0.09,0.03-0.17,0.08-0.26c0.06-0.1,0.16-0.14,0.28-0.14
			c0.13,0,0.28,0.05,0.47,0.14c0.48,0.25,0.78,0.37,0.9,0.37c0.11,0,0.2-0.08,0.29-0.23c0.26-0.49,0.5-1.25,0.73-2.28
			c0.18-0.82,0.27-1.4,0.27-1.72c0-0.16-0.07-0.24-0.21-0.24c-0.24,0-0.87,0.05-1.89,0.15c-0.71,2.13-1.82,3.79-3.33,4.97
			c-0.33,0.26-0.58,0.39-0.75,0.39c-0.14,0-0.25-0.05-0.35-0.15c-0.12-0.13-0.18-0.25-0.18-0.38c0-0.14,0.06-0.27,0.19-0.41
			c0.03-0.03,0.16-0.15,0.38-0.35c0.92-0.84,1.67-1.91,2.25-3.2c0.09-0.21,0.19-0.47,0.3-0.77c-1.17,0.13-1.85,0.19-2.05,0.19
			c-0.45,0-0.68-0.22-0.68-0.67c0-0.41,0.28-0.62,0.85-0.64C79.47,148.26,80.21,148.21,81.21,148.14z"/>
		<path d="M93.93,148.02l-0.01-0.12c-0.02-0.76-0.03-1.22-0.04-1.39c0-0.06-0.01-0.1-0.01-0.13c0-0.44,0.22-0.66,0.67-0.66
			c0.49,0,0.73,0.24,0.73,0.71v1.49c0.25-0.02,0.74-0.06,1.46-0.12c0.27-0.02,0.44-0.03,0.51-0.03c0.44,0,0.65,0.23,0.65,0.7
			c0,0.4-0.27,0.61-0.8,0.64c-0.26,0.01-0.65,0.03-1.18,0.07c-0.22,0.01-0.43,0.03-0.64,0.04c0.01,1.35,0.02,2.18,0.02,2.49
			c0.02,1.08,0.03,1.85,0.03,2.32c0,0.3-0.07,0.56-0.2,0.76c-0.17,0.25-0.4,0.38-0.69,0.38c-0.14,0-0.31-0.05-0.51-0.15
			c-1-0.5-1.53-0.76-1.59-0.8c-0.21-0.12-0.31-0.27-0.31-0.46c0-0.07,0.02-0.14,0.05-0.2c0.08-0.16,0.21-0.23,0.4-0.23
			c0.12,0,0.51,0.1,1.16,0.29c0.08,0.03,0.15,0.04,0.19,0.04c0.08,0,0.12-0.07,0.12-0.21v-3.04c-1.14,1.24-2.4,2.26-3.78,3.06
			c-0.29,0.17-0.51,0.25-0.65,0.25c-0.15,0-0.27-0.07-0.36-0.21c-0.07-0.11-0.11-0.21-0.11-0.31c0-0.15,0.07-0.28,0.2-0.39
			c0.04-0.04,0.19-0.14,0.43-0.3c0.9-0.59,1.78-1.35,2.65-2.28c0.25-0.27,0.51-0.56,0.75-0.88l-0.22,0.02l-1.84,0.13
			c-0.72,0.05-1.11,0.08-1.15,0.08c-0.44,0-0.66-0.21-0.66-0.64c0-0.35,0.16-0.57,0.48-0.65c0.07-0.02,0.23-0.03,0.48-0.04
			C91.28,148.2,92.53,148.12,93.93,148.02z"/>
	</g>
</g>
<g id="ガイド" display="none">
</g>
</svg>
