<?xml version="1.0" encoding="utf-8"?>
<!-- Generator: Adobe Illustrator 25.4.1, SVG Export Plug-In . SVG Version: 6.00 Build 0)  -->
<svg version="1.1" xmlns="http://www.w3.org/2000/svg" xmlns:xlink="http://www.w3.org/1999/xlink" x="0px" y="0px"
	 viewBox="0 0 164.41 252.28" enable-background="new 0 0 164.41 252.28" xml:space="preserve">
<g id="地">
	<rect fill="#DCDDDD" width="164.41" height="252.28"/>
</g>
<g id="枠">
</g>
<g id="国旗">
	<g>
		<g>
			<rect x="25.55" y="60.38" fill="#C8152A" width="113.14" height="75.42"/>
			<rect x="25.55" y="110.66" fill="#147F49" width="113.14" height="25.14"/>
			<rect x="25.3" y="60.13" fill="#040000" width="113.14" height="25.14"/>
			<path fill="#C8152A" d="M82.12,70c0,0-0.88-6.03-0.88-7.23c0-1.2,0.88-1.23,0.88-1.23S83,61.57,83,62.77
				C83,63.96,82.12,70,82.12,70z"/>
			<path fill="#C8152A" d="M83.62,70.06c0,0-0.37-6.09-0.27-7.28c0.1-1.19,0.98-1.16,0.98-1.16s0.87,0.11,0.77,1.3
				C85,64.12,83.62,70.06,83.62,70.06z"/>
			<path fill="#C8152A" d="M85.11,70.25c0,0,0.15-6.1,0.35-7.28c0.2-1.18,1.07-1.07,1.07-1.07s0.86,0.18,0.66,1.36
				C86.99,64.45,85.11,70.25,85.11,70.25z"/>
			<path fill="#C8152A" d="M86.76,70.61c0,0,0.73-6.05,1.04-7.21c0.31-1.16,1.17-0.96,1.17-0.96s0.84,0.27,0.53,1.42
				C89.18,65.02,86.76,70.61,86.76,70.61z"/>
			<path fill="#C8152A" d="M88.28,71.1c0,0,1.27-5.96,1.68-7.09c0.41-1.12,1.25-0.85,1.25-0.85s0.81,0.34,0.4,1.46
				C91.19,65.74,88.28,71.1,88.28,71.1z"/>
			<path fill="#C8152A" d="M89.93,71.81c0,0,1.86-5.81,2.39-6.88c0.53-1.08,1.33-0.72,1.33-0.72s0.77,0.42,0.25,1.49
				C93.37,66.77,89.93,71.81,89.93,71.81z"/>
			<path fill="#C8152A" d="M91.31,72.56c0,0,2.37-5.62,2.98-6.64c0.62-1.02,1.39-0.6,1.39-0.6s0.73,0.49,0.11,1.51
				C95.18,67.84,91.31,72.56,91.31,72.56z"/>
			<path fill="#C8152A" d="M92.68,73.48c0,0,2.88-5.38,3.59-6.34c0.71-0.96,1.44-0.47,1.44-0.47s0.68,0.55-0.03,1.51
				C96.97,69.15,92.68,73.48,92.68,73.48z"/>
			<path fill="#C8152A" d="M94.01,74.56c0,0,3.38-5.07,4.18-5.96c0.8-0.89,1.48-0.33,1.48-0.33s0.63,0.61-0.17,1.5
				C98.69,70.66,94.01,74.56,94.01,74.56z"/>
			<path fill="#C8152A" d="M95.21,75.75c0,0,3.85-4.73,4.73-5.54c0.88-0.81,1.5-0.19,1.5-0.19s0.57,0.67-0.31,1.48
				C100.25,72.32,95.21,75.75,95.21,75.75z"/>
			<path fill="#C8152A" d="M96.21,76.93c0,0,4.25-4.38,5.19-5.11c0.95-0.73,1.51-0.06,1.51-0.06s0.51,0.72-0.44,1.45
				C101.53,73.95,96.21,76.93,96.21,76.93z"/>
			<path fill="#C8152A" d="M97.2,78.37c0,0,4.65-3.94,5.67-4.57c1.01-0.63,1.51,0.09,1.51,0.09s0.43,0.76-0.58,1.4
				C102.79,75.92,97.2,78.37,97.2,78.37z"/>
			<path fill="#C8152A" d="M98.03,79.85c0,0,5.01-3.48,6.08-4.01c1.07-0.53,1.5,0.24,1.5,0.24s0.36,0.8-0.71,1.34
				C103.83,77.95,98.03,79.85,98.03,79.85z"/>
			<path fill="#C8152A" d="M98.67,81.28c0,0,5.3-3.02,6.41-3.46c1.11-0.44,1.47,0.37,1.47,0.37s0.29,0.83-0.83,1.27
				C104.61,79.9,98.67,81.28,98.67,81.28z"/>
			<path fill="#C8152A" d="M99.24,82.99c0,0,5.57-2.47,6.73-2.79c1.15-0.32,1.43,0.51,1.43,0.51s0.2,0.86-0.95,1.18
				C105.29,82.21,99.24,82.99,99.24,82.99z"/>
			<path fill="#C8152A" d="M80.62,70.06c0,0,0.37-6.09,0.27-7.28c-0.1-1.19-0.98-1.16-0.98-1.16s-0.87,0.11-0.77,1.3
				C79.24,64.12,80.62,70.06,80.62,70.06z"/>
			<path fill="#C8152A" d="M79.12,70.25c0,0-0.15-6.1-0.35-7.28c-0.2-1.18-1.07-1.07-1.07-1.07s-0.86,0.18-0.66,1.36
				C77.24,64.45,79.12,70.25,79.12,70.25z"/>
			<path fill="#C8152A" d="M77.48,70.61c0,0-0.73-6.05-1.04-7.21c-0.31-1.16-1.17-0.96-1.17-0.96s-0.84,0.27-0.53,1.42
				C75.06,65.02,77.48,70.61,77.48,70.61z"/>
			<path fill="#C8152A" d="M75.96,71.1c0,0-1.27-5.96-1.68-7.09c-0.41-1.12-1.25-0.85-1.25-0.85s-0.81,0.34-0.4,1.46
				C73.04,65.74,75.96,71.1,75.96,71.1z"/>
			<path fill="#C8152A" d="M74.31,71.81c0,0-1.86-5.81-2.39-6.88c-0.53-1.08-1.33-0.72-1.33-0.72s-0.77,0.42-0.25,1.49
				C70.87,66.77,74.31,71.81,74.31,71.81z"/>
			<path fill="#C8152A" d="M72.93,72.56c0,0-2.37-5.62-2.98-6.64c-0.62-1.02-1.39-0.6-1.39-0.6s-0.73,0.49-0.11,1.51
				C69.06,67.84,72.93,72.56,72.93,72.56z"/>
			<path fill="#C8152A" d="M71.56,73.48c0,0-2.88-5.38-3.59-6.34c-0.71-0.96-1.44-0.47-1.44-0.47s-0.68,0.55,0.03,1.51
				C67.26,69.15,71.56,73.48,71.56,73.48z"/>
			<path fill="#C8152A" d="M70.23,74.56c0,0-3.38-5.07-4.18-5.96c-0.8-0.89-1.48-0.33-1.48-0.33s-0.63,0.61,0.17,1.5
				C65.54,70.66,70.23,74.56,70.23,74.56z"/>
			<path fill="#C8152A" d="M69.02,75.75c0,0-3.85-4.73-4.73-5.54c-0.88-0.81-1.5-0.19-1.5-0.19s-0.57,0.67,0.31,1.48
				C63.99,72.32,69.02,75.75,69.02,75.75z"/>
			<path fill="#C8152A" d="M68.03,76.93c0,0-4.25-4.38-5.19-5.11c-0.95-0.73-1.51-0.06-1.51-0.06s-0.51,0.72,0.44,1.45
				C62.71,73.95,68.03,76.93,68.03,76.93z"/>
			<path fill="#C8152A" d="M67.03,78.37c0,0-4.65-3.94-5.67-4.57c-1.01-0.63-1.51,0.09-1.51,0.09s-0.43,0.76,0.58,1.4
				C61.45,75.92,67.03,78.37,67.03,78.37z"/>
			<path fill="#C8152A" d="M66.2,79.85c0,0-5.01-3.48-6.08-4.01c-1.07-0.53-1.5,0.24-1.5,0.24s-0.36,0.8,0.71,1.34
				C60.41,77.95,66.2,79.85,66.2,79.85z"/>
			<path fill="#C8152A" d="M65.57,81.28c0,0-5.3-3.02-6.41-3.46c-1.11-0.44-1.47,0.37-1.47,0.37s-0.29,0.83,0.83,1.27
				C59.63,79.9,65.57,81.28,65.57,81.28z"/>
			<path fill="#C8152A" d="M65,82.99c0,0-5.57-2.47-6.73-2.79c-1.15-0.32-1.43,0.51-1.43,0.51s-0.2,0.86,0.95,1.18
				C58.95,82.21,65,82.99,65,82.99z"/>
			<path fill="#C8152A" d="M64.67,84.38c0,0-5.88-1.6-7.07-1.74c-1.19-0.15-1.33,0.72-1.33,0.72s-0.07,0.88,1.12,1.02
				C58.57,84.52,64.67,84.38,64.67,84.38z"/>
			<path fill="#C8152A" d="M99.57,84.38c0,0,5.88-1.6,7.07-1.74c1.19-0.15,1.33,0.72,1.33,0.72s0.07,0.88-1.12,1.02
				C105.66,84.52,99.57,84.38,99.57,84.38z"/>
			<path fill="#C8152A" d="M82.12,72.53c-7.22,0-13.26,5.01-14.84,11.75h29.68C95.38,77.54,89.34,72.53,82.12,72.53z"/>
		</g>
	</g>
</g>
<g id="国名">
	<g>
		<path d="M65.34,151.51c0.94-0.7,1.72-1.48,2.35-2.34c0.12-0.17,0.18-0.27,0.18-0.31c0-0.05-0.05-0.07-0.16-0.07
			c-0.38,0-2.5,0.15-6.37,0.44c-0.08,0.01-0.13,0.01-0.15,0.01c-0.22,0-0.39-0.07-0.5-0.22c-0.1-0.12-0.15-0.28-0.15-0.46
			c0-0.37,0.17-0.58,0.5-0.66c0.06-0.01,0.86-0.07,2.41-0.19c3.25-0.2,4.99-0.29,5.2-0.29c0.34,0,0.62,0.09,0.82,0.26
			c0.2,0.17,0.3,0.39,0.3,0.65c0,0.27-0.16,0.61-0.47,1.04c-0.76,1.03-1.81,2-3.14,2.91c0.29,0.31,0.51,0.56,0.66,0.75
			c0.17,0.23,0.25,0.44,0.25,0.65c0,0.29-0.12,0.51-0.35,0.66c-0.14,0.09-0.28,0.13-0.42,0.13c-0.18,0-0.33-0.07-0.46-0.19
			c-0.04-0.04-0.12-0.15-0.23-0.31c-0.44-0.62-1-1.3-1.69-2.03c-0.16-0.17-0.33-0.34-0.52-0.52c-0.15-0.14-0.22-0.29-0.22-0.45
			c0-0.15,0.06-0.28,0.17-0.39c0.1-0.1,0.22-0.16,0.36-0.16c0.16,0,0.35,0.08,0.58,0.24C64.6,150.89,64.95,151.17,65.34,151.51z"/>
		<path d="M79.37,148.71c0.42,0,0.72,0.15,0.91,0.44c0.1,0.17,0.16,0.37,0.16,0.6c0,0.33-0.11,0.76-0.34,1.29
			c-0.5,1.17-1.32,2.17-2.47,3.02c-0.61,0.45-1.25,0.79-1.92,1.04c-0.17,0.06-0.31,0.09-0.43,0.09c-0.16,0-0.29-0.07-0.38-0.2
			c-0.07-0.11-0.11-0.22-0.11-0.34c0-0.17,0.08-0.31,0.23-0.42c0.03-0.02,0.2-0.11,0.49-0.26c0.73-0.38,1.42-0.91,2.07-1.6
			c0.54-0.58,0.94-1.17,1.2-1.77c0.09-0.2,0.13-0.34,0.13-0.43c0-0.09-0.07-0.13-0.2-0.13c-0.06,0-0.72,0.04-1.99,0.12l-2.37,0.17
			c-0.9,0.07-1.37,0.1-1.4,0.1c-0.23,0-0.4-0.08-0.52-0.25c-0.07-0.11-0.11-0.24-0.11-0.39c0-0.39,0.19-0.62,0.57-0.67
			c0.24-0.03,2.02-0.15,5.36-0.34c0.27-0.01,0.47-0.03,0.61-0.04C79.14,148.72,79.32,148.71,79.37,148.71z M78.49,146.17
			c0.19,0,0.34,0.08,0.45,0.23c0.08,0.12,0.13,0.26,0.13,0.42c0,0.37-0.17,0.59-0.53,0.64c-0.28,0.04-0.69,0.08-1.22,0.13
			c-0.14,0.01-0.75,0.05-1.81,0.11c-0.65,0.04-1.08,0.05-1.31,0.05c-0.46,0-0.7-0.22-0.7-0.65c0-0.33,0.14-0.53,0.41-0.61
			c0.07-0.02,0.23-0.03,0.48-0.03c1.02-0.01,2.21-0.09,3.58-0.23c0.05-0.01,0.17-0.02,0.35-0.04
			C78.4,146.17,78.45,146.17,78.49,146.17z"/>
		<path d="M87.08,147.67v-1.46c0-0.2,0.06-0.37,0.18-0.49c0.13-0.13,0.3-0.19,0.52-0.19c0.29,0,0.49,0.11,0.61,0.33
			c0.06,0.1,0.08,0.22,0.08,0.35v1.38l0.18-0.01c1.3-0.08,2.03-0.13,2.18-0.14c0.08-0.01,0.14-0.01,0.19-0.01
			c0.32,0,0.58,0.11,0.76,0.32c0.18,0.21,0.27,0.49,0.27,0.84c0,0.29-0.06,0.69-0.18,1.21c-0.28,1.23-0.79,2.28-1.5,3.15
			c-0.56,0.68-1.24,1.26-2.04,1.76c-0.54,0.34-0.93,0.51-1.16,0.51c-0.2,0-0.34-0.07-0.43-0.19c-0.07-0.1-0.11-0.21-0.11-0.33
			c0-0.17,0.07-0.31,0.21-0.43c0.04-0.03,0.15-0.1,0.34-0.22c0.79-0.48,1.49-1.1,2.1-1.87c0.41-0.52,0.73-1.12,0.95-1.81
			c0.19-0.58,0.28-1.06,0.28-1.46c0-0.13-0.07-0.2-0.2-0.2c-0.08,0-0.19,0-0.32,0.02c-0.79,0.08-2.4,0.18-4.81,0.3l0.17,1.74
			c0,0.04,0.01,0.07,0.01,0.09c0.01,0.3-0.13,0.5-0.44,0.6c-0.1,0.03-0.2,0.05-0.3,0.05c-0.23,0-0.4-0.08-0.53-0.25
			c-0.06-0.09-0.1-0.19-0.11-0.3l-0.27-2.69c-0.01-0.06-0.01-0.1-0.01-0.13c0-0.44,0.24-0.65,0.73-0.65c0.28,0,0.47,0.1,0.58,0.3
			l0.12-0.01l0.57-0.03C86.44,147.71,86.9,147.68,87.08,147.67z"/>
		<path d="M98.79,150.05c-0.94,0.64-1.88,1.17-2.8,1.57c-0.32,0.14-0.55,0.21-0.69,0.21c-0.16,0-0.29-0.06-0.38-0.18
			c-0.08-0.1-0.12-0.21-0.12-0.33c0-0.17,0.08-0.32,0.23-0.43c0.06-0.04,0.26-0.15,0.61-0.34c1.06-0.57,2.08-1.26,3.07-2.08
			c0.91-0.76,1.62-1.51,2.13-2.25c0.16-0.24,0.37-0.37,0.61-0.37c0.14,0,0.27,0.04,0.41,0.13c0.24,0.15,0.36,0.35,0.36,0.6
			c0,0.17-0.1,0.38-0.29,0.63c-0.53,0.67-1.21,1.35-2.04,2.03c0.2,0.12,0.3,0.3,0.3,0.54v4.65c0,0.23-0.07,0.4-0.22,0.52
			c-0.13,0.1-0.29,0.16-0.49,0.16c-0.32,0-0.53-0.12-0.64-0.37c-0.04-0.09-0.06-0.19-0.06-0.31V150.05z"/>
	</g>
</g>
<g id="ガイド" display="none">
</g>
</svg>
