<?xml version="1.0" encoding="utf-8"?>
<!-- Generator: Adobe Illustrator 25.4.1, SVG Export Plug-In . SVG Version: 6.00 Build 0)  -->
<svg version="1.1" xmlns="http://www.w3.org/2000/svg" xmlns:xlink="http://www.w3.org/1999/xlink" x="0px" y="0px"
	 viewBox="0 0 164.41 252.28" enable-background="new 0 0 164.41 252.28" xml:space="preserve">
<g id="地">
	<rect fill="#DCDDDD" width="164.41" height="252.28"/>
</g>
<g id="枠">
</g>
<g id="国旗">
	<g>
		<g>
			<rect x="25.51" y="60" fill="#F5CF21" width="113.39" height="75.59"/>
			<rect x="25.51" y="60" fill="#147F49" width="37.8" height="75.59"/>
			<rect x="101.1" y="60" fill="#C8152A" width="37.8" height="75.59"/>
		</g>
	</g>
</g>
<g id="国名">
	<g>
		<path d="M76.68,151.51c0.94-0.7,1.72-1.48,2.35-2.34c0.12-0.17,0.18-0.27,0.18-0.31c0-0.05-0.05-0.07-0.16-0.07
			c-0.38,0-2.5,0.15-6.37,0.44c-0.08,0.01-0.13,0.01-0.15,0.01c-0.22,0-0.39-0.07-0.5-0.22c-0.1-0.12-0.15-0.28-0.15-0.46
			c0-0.37,0.17-0.58,0.5-0.66c0.06-0.01,0.86-0.07,2.41-0.19c3.25-0.2,4.99-0.29,5.2-0.29c0.34,0,0.62,0.09,0.82,0.26
			c0.2,0.17,0.3,0.39,0.3,0.65c0,0.27-0.16,0.61-0.47,1.04c-0.76,1.03-1.81,2-3.14,2.91c0.29,0.31,0.51,0.56,0.66,0.75
			c0.17,0.23,0.25,0.44,0.25,0.65c0,0.29-0.12,0.51-0.35,0.66c-0.14,0.09-0.28,0.13-0.42,0.13c-0.18,0-0.33-0.07-0.46-0.19
			c-0.04-0.04-0.12-0.15-0.23-0.31c-0.44-0.62-1-1.3-1.69-2.03c-0.16-0.17-0.33-0.34-0.52-0.52c-0.15-0.14-0.22-0.29-0.22-0.45
			c0-0.15,0.06-0.28,0.17-0.39c0.1-0.1,0.22-0.16,0.36-0.16c0.16,0,0.35,0.08,0.58,0.24C75.94,150.89,76.29,151.17,76.68,151.51z"/>
		<path d="M86.5,146.75v3.86c0,0.2-0.06,0.35-0.19,0.46c-0.13,0.11-0.3,0.17-0.53,0.17c-0.31,0-0.52-0.11-0.63-0.32
			c-0.05-0.09-0.07-0.2-0.07-0.32v-3.86c0-0.26,0.1-0.44,0.31-0.55c0.12-0.06,0.25-0.09,0.39-0.09c0.24,0,0.43,0.07,0.56,0.21
			C86.45,146.43,86.5,146.57,86.5,146.75z M90.48,146.25v3.41c0,1.12-0.13,2.07-0.4,2.85c-0.35,1.01-1,1.85-1.95,2.54
			c-0.18,0.13-0.36,0.19-0.53,0.19c-0.16,0-0.27-0.05-0.35-0.14c-0.08-0.1-0.12-0.2-0.12-0.32c0-0.16,0.08-0.33,0.25-0.5
			c0.44-0.45,0.74-0.82,0.91-1.08c0.37-0.59,0.6-1.29,0.7-2.12c0.05-0.4,0.08-0.87,0.08-1.39v-3.42c0-0.38,0.23-0.58,0.7-0.58
			C90.24,145.68,90.48,145.87,90.48,146.25z"/>
	</g>
</g>
<g id="ガイド" display="none">
</g>
</svg>
