<?xml version="1.0" encoding="utf-8"?>
<!-- Generator: Adobe Illustrator 25.4.1, SVG Export Plug-In . SVG Version: 6.00 Build 0)  -->
<svg version="1.1" xmlns="http://www.w3.org/2000/svg" xmlns:xlink="http://www.w3.org/1999/xlink" x="0px" y="0px"
	 viewBox="0 0 164.41 252.28" enable-background="new 0 0 164.41 252.28" xml:space="preserve">
<g id="地">
	<rect fill="#DCDDDD" width="164.41" height="252.28"/>
</g>
<g id="枠">
</g>
<g id="国旗">
	<g>
		<g>
			<rect x="25.51" y="60" fill="#C91623" width="113.39" height="75.59"/>
			<rect x="25.51" y="60" fill="#00477E" width="51.57" height="37.73"/>
			<path fill="#FFFFFF" d="M62.43,78.87c0-0.32-0.02-0.64-0.04-0.95l1.53-0.34l-0.65-2.92l-1.52,0.34
				c-0.23-0.63-0.53-1.24-0.87-1.81l1.22-0.97l-1.86-2.35l-1.23,0.97c-0.48-0.46-1-0.88-1.56-1.25l0.68-1.41l-2.7-1.3l-0.68,1.41
				c-0.63-0.2-1.28-0.35-1.95-0.44v-1.56h-3v1.56c-0.64,0.09-1.26,0.22-1.85,0.41l-0.67-1.41l-2.71,1.28l0.67,1.41
				c-0.56,0.37-1.09,0.78-1.57,1.24l-1.22-0.98l-1.88,2.33l1.21,0.98c-0.35,0.57-0.64,1.17-0.88,1.8l-1.52-0.36l-0.68,2.92
				l1.52,0.36c-0.03,0.35-0.05,0.7-0.05,1.05c0,0.32,0.02,0.64,0.04,0.95l-1.53,0.34l0.65,2.92l1.52-0.34
				c0.23,0.63,0.53,1.24,0.87,1.81l-1.22,0.97l1.86,2.35l1.23-0.97c0.48,0.46,1,0.88,1.56,1.25l-0.68,1.41l2.7,1.3l0.68-1.41
				c0.63,0.2,1.28,0.35,1.95,0.44v1.56h3V89.9c0.64-0.09,1.26-0.22,1.85-0.41l0.67,1.41l2.71-1.28l-0.67-1.41
				c0.56-0.37,1.09-0.78,1.57-1.24l1.22,0.98l1.88-2.33l-1.21-0.98c0.35-0.57,0.64-1.17,0.88-1.8l1.52,0.36l0.68-2.92l-1.52-0.36
				C62.41,79.57,62.43,79.22,62.43,78.87z M58.52,78.87c0,3.99-3.23,7.22-7.22,7.22c-3.99,0-7.22-3.23-7.22-7.22
				c0-3.99,3.23-7.22,7.22-7.22C55.29,71.65,58.52,74.88,58.52,78.87z"/>
			<polygon fill="#FFFFFF" points="51.3,61.68 51.73,62.99 53.11,62.99 51.99,63.81 52.42,65.12 51.3,64.31 50.18,65.12 
				50.61,63.81 49.49,62.99 50.87,62.99 			"/>
			<polygon fill="#FFFFFF" points="51.3,92.46 51.73,93.77 53.11,93.77 51.99,94.58 52.42,95.9 51.3,95.08 50.18,95.9 50.61,94.58 
				49.49,93.77 50.87,93.77 			"/>
			<polygon fill="#FFFFFF" points="58.73,63.07 59.16,64.39 60.54,64.39 59.42,65.2 59.85,66.51 58.73,65.7 57.61,66.51 58.04,65.2 
				56.92,64.39 58.3,64.39 			"/>
			<polygon fill="#FFFFFF" points="63.49,67.83 63.92,69.15 65.3,69.15 64.18,69.96 64.61,71.27 63.49,70.46 62.37,71.27 
				62.8,69.96 61.68,69.15 63.06,69.15 			"/>
			<polygon fill="#FFFFFF" points="66.37,73.61 66.79,74.92 68.17,74.92 67.06,75.73 67.48,77.05 66.37,76.24 65.25,77.05 
				65.67,75.73 64.56,74.92 65.94,74.92 			"/>
			<polygon fill="#FFFFFF" points="66.37,80.57 66.79,81.88 68.17,81.88 67.06,82.69 67.48,84.01 66.37,83.2 65.25,84.01 
				65.67,82.69 64.56,81.88 65.94,81.88 			"/>
			<polygon fill="#FFFFFF" points="63.42,86.8 63.84,88.12 65.23,88.12 64.11,88.93 64.54,90.24 63.42,89.43 62.3,90.24 
				62.73,88.93 61.61,88.12 62.99,88.12 			"/>
			<polygon fill="#FFFFFF" points="58.29,90.86 58.72,92.17 60.1,92.17 58.99,92.99 59.41,94.3 58.29,93.49 57.18,94.3 57.6,92.99 
				56.49,92.17 57.87,92.17 			"/>
			<polygon fill="#FFFFFF" points="43.87,63.07 43.44,64.39 42.06,64.39 43.18,65.2 42.75,66.51 43.87,65.7 44.99,66.51 44.56,65.2 
				45.68,64.39 44.29,64.39 			"/>
			<polygon fill="#FFFFFF" points="39.11,67.83 38.68,69.15 37.3,69.15 38.42,69.96 37.99,71.27 39.11,70.46 40.23,71.27 
				39.8,69.96 40.92,69.15 39.53,69.15 			"/>
			<polygon fill="#FFFFFF" points="36.23,73.61 35.81,74.92 34.42,74.92 35.54,75.73 35.11,77.05 36.23,76.24 37.35,77.05 
				36.92,75.73 38.04,74.92 36.66,74.92 			"/>
			<polygon fill="#FFFFFF" points="36.23,80.57 35.81,81.88 34.42,81.88 35.54,82.69 35.11,84.01 36.23,83.2 37.35,84.01 
				36.92,82.69 38.04,81.88 36.66,81.88 			"/>
			<polygon fill="#FFFFFF" points="39.18,86.8 38.75,88.12 37.37,88.12 38.49,88.93 38.06,90.24 39.18,89.43 40.3,90.24 
				39.87,88.93 40.99,88.12 39.61,88.12 			"/>
			<polygon fill="#FFFFFF" points="44.3,90.86 43.88,92.17 42.49,92.17 43.61,92.99 43.18,94.3 44.3,93.49 45.42,94.3 44.99,92.99 
				46.11,92.17 44.73,92.17 			"/>
			<path fill="#FFFFFF" stroke="#00477E" stroke-width="1.8713" d="M54.17,82.63c0,0,2.15-6.59,4.45-8.8c1.8,1.69,2,3.92,2,3.92
				s0.19-4.38-1.87-5.43c-2.13,1.53-5.74,6.21-7.26,8.24l-0.07-0.01c-0.87-2.22-3.16-7.61-5.32-9.16c-2.07,1.76-3.67,4.12-3.67,4.12
				s1.87-0.89,3.67-2.58c2.3,2.2,2.3,9.7,2.3,9.7H54.17z"/>
			<path fill="#FFFFFF" stroke="#00477E" stroke-width="1.8713" d="M56.73,74.24c0.01,0.88-0.36,1.6-0.83,1.61
				c-0.47,0.01-0.87-0.7-0.88-1.59c-0.01-0.88,0.36-1.6,0.83-1.61C56.32,72.64,56.72,73.35,56.73,74.24z"/>
			<line fill="none" stroke="#00477E" stroke-width="1.8713" x1="55.85" y1="72.65" x2="55.9" y2="75.85"/>
			<path fill="#FFFFFF" stroke="#00477E" stroke-width="1.8713" d="M55.42,75.64c0.23,0.85,0.04,1.64-0.42,1.77
				c-0.46,0.12-1.01-0.47-1.24-1.32c-0.23-0.85-0.04-1.64,0.42-1.77C54.64,74.19,55.2,74.79,55.42,75.64z"/>
			<line fill="none" stroke="#00477E" stroke-width="1.8713" x1="54.19" y1="74.32" x2="55.01" y2="77.41"/>
			<path fill="#FFFFFF" stroke="#00477E" stroke-width="1.8713" d="M51.28,88.24c0,0-1.69-5.98-4.16-8.29
				c-2.64,0-4.01,4.33-4.01,4.33s1.28-1.39,3.28-2.83c2,2.48,2.97,8.97,2.97,8.97l1.92-0.41l1.92,0.41c0,0,1.41-6.92,3.41-9.41
				c2,1.44,2.48,3.63,2.48,3.63s-0.37-4.37-2.56-5.15C54.06,81.81,51.28,88.24,51.28,88.24z"/>
			<path fill="#FFFFFF" stroke="#00477E" stroke-width="1.8713" d="M56.35,77.45c-0.62,0.63-1.39,0.88-1.73,0.55
				c-0.34-0.33-0.11-1.11,0.5-1.74c0.62-0.63,1.39-0.88,1.73-0.55C57.19,76.03,56.97,76.81,56.35,77.45z"/>
			<line fill="none" stroke="#00477E" stroke-width="1.8713" x1="56.85" y1="75.7" x2="54.62" y2="78"/>
			<path fill="#FFFFFF" stroke="#00477E" stroke-width="1.8713" d="M55.62,79.34c-0.62,0.63-1.39,0.88-1.73,0.55
				c-0.34-0.33-0.11-1.11,0.5-1.74c0.62-0.63,1.39-0.88,1.73-0.55C56.45,77.92,56.23,78.7,55.62,79.34z"/>
			<line fill="none" stroke="#00477E" stroke-width="1.8713" x1="56.12" y1="77.59" x2="53.89" y2="79.89"/>
			<path fill="#FFFFFF" stroke="#00477E" stroke-width="1.8713" d="M54.63,78.56c0,0.88-0.38,1.6-0.86,1.6
				c-0.47,0-0.86-0.72-0.86-1.6c0-0.88,0.38-1.6,0.86-1.6C54.25,76.96,54.63,77.68,54.63,78.56z"/>
			<line fill="none" stroke="#00477E" stroke-width="1.8713" x1="53.78" y1="76.96" x2="53.78" y2="80.16"/>
			<path fill="#FFFFFF" stroke="#00477E" stroke-width="1.8713" d="M54.7,81.31c-0.62,0.63-1.39,0.88-1.73,0.55
				c-0.34-0.33-0.11-1.11,0.5-1.74c0.62-0.63,1.39-0.88,1.73-0.55C55.54,79.9,55.31,80.68,54.7,81.31z"/>
			<line fill="none" stroke="#00477E" stroke-width="1.8713" x1="55.2" y1="79.57" x2="52.97" y2="81.87"/>
			<path fill="#FFFFFF" stroke="#00477E" stroke-width="2.0458" d="M52.21,88.48c0.19,0.91-0.09,1.74-0.61,1.85
				c-0.52,0.11-1.1-0.55-1.29-1.46c-0.19-0.91,0.09-1.74,0.61-1.85C51.45,86.91,52.02,87.57,52.21,88.48z"/>
			<line fill="none" stroke="#00477E" stroke-width="2.0458" x1="50.92" y1="87.02" x2="51.6" y2="90.33"/>
			<path fill="#FFFFFF" stroke="#00477E" stroke-width="2.0458" d="M53.33,80.65c0,0.93-0.43,1.69-0.97,1.69
				c-0.53,0-0.97-0.76-0.97-1.69c0-0.93,0.43-1.69,0.97-1.69C52.9,78.96,53.33,79.72,53.33,80.65z"/>
			<path fill="#FFFFFF" stroke="#00477E" stroke-width="1.8713" d="M53.48,83.68c-0.62,0.63-1.39,0.88-1.73,0.55
				c-0.34-0.33-0.11-1.11,0.5-1.74c0.62-0.63,1.39-0.88,1.73-0.55C54.32,82.27,54.09,83.05,53.48,83.68z"/>
			<line fill="none" stroke="#00477E" stroke-width="1.8713" x1="53.98" y1="81.94" x2="51.75" y2="84.24"/>
			<path fill="#FFFFFF" stroke="#00477E" stroke-width="1.8713" d="M52.88,85.98c-0.62,0.63-1.39,0.88-1.73,0.55
				c-0.34-0.33-0.11-1.11,0.5-1.74c0.62-0.63,1.39-0.88,1.73-0.55C53.72,84.57,53.5,85.35,52.88,85.98z"/>
			<line fill="none" stroke="#00477E" stroke-width="1.8713" x1="53.38" y1="84.24" x2="51.16" y2="86.53"/>
			<line fill="none" stroke="#00477E" stroke-width="2.0458" x1="52.36" y1="78.96" x2="52.36" y2="82.34"/>
			<path fill="#FFFFFF" stroke="#00477E" stroke-width="1.8542" d="M51.46,78.21c0,0.89-0.37,1.6-0.84,1.6
				c-0.46,0-0.84-0.72-0.84-1.6c0-0.89,0.37-1.6,0.84-1.6C51.08,76.61,51.46,77.33,51.46,78.21z"/>
			<line fill="none" stroke="#00477E" stroke-width="1.8542" x1="50.62" y1="76.61" x2="50.62" y2="79.82"/>
			<path fill="#FFFFFF" stroke="#00477E" stroke-width="1.7469" d="M50.05,69.85c0.13,0.79-0.12,1.5-0.57,1.57
				c-0.45,0.07-0.91-0.51-1.04-1.3c-0.13-0.79,0.12-1.5,0.57-1.57C49.45,68.47,49.92,69.05,50.05,69.85z"/>
			<line fill="none" stroke="#00477E" stroke-width="1.7469" x1="49.01" y1="68.54" x2="49.48" y2="71.41"/>
			<path fill="#FFFFFF" stroke="#00477E" stroke-width="1.7469" d="M49.39,71.58c0.27,0.76,0.14,1.49-0.29,1.65
				c-0.43,0.15-0.99-0.34-1.26-1.1c-0.27-0.76-0.14-1.49,0.29-1.65C48.56,70.33,49.13,70.82,49.39,71.58z"/>
			<line fill="none" stroke="#00477E" stroke-width="1.7469" x1="48.14" y1="70.48" x2="49.11" y2="73.22"/>
			<path fill="#FFFFFF" stroke="#00477E" stroke-width="1.7469" d="M50.68,73.83c-0.35,0.73-0.96,1.16-1.37,0.96
				c-0.41-0.19-0.46-0.94-0.11-1.67c0.35-0.73,0.96-1.16,1.37-0.96C50.97,72.36,51.02,73.11,50.68,73.83z"/>
			<path fill="#FFFFFF" stroke="#00477E" stroke-width="2.0072" d="M49.57,80.44c0.54,0.69,0.62,1.52,0.19,1.86
				c-0.43,0.34-1.22,0.05-1.76-0.64c-0.54-0.69-0.62-1.52-0.19-1.86C48.25,79.47,49.04,79.75,49.57,80.44z"/>
			<line fill="none" stroke="#00477E" stroke-width="2.0072" x1="47.82" y1="79.8" x2="49.76" y2="82.3"/>
			<path fill="#FFFFFF" stroke="#00477E" stroke-width="2.0072" d="M50.39,82.41c0.54,0.69,0.62,1.52,0.19,1.86
				c-0.43,0.34-1.22,0.05-1.76-0.64c-0.54-0.69-0.62-1.52-0.19-1.86C49.06,81.43,49.85,81.71,50.39,82.41z"/>
			<line fill="none" stroke="#00477E" stroke-width="2.0072" x1="48.63" y1="81.76" x2="50.58" y2="84.27"/>
			<line fill="none" stroke="#00477E" stroke-width="1.7469" x1="50.56" y1="72.17" x2="49.31" y2="74.79"/>
			<path fill="#FFFFFF" stroke="#00477E" stroke-width="1.7469" d="M51.22,75.92c-0.35,0.73-0.96,1.16-1.37,0.96
				c-0.41-0.2-0.46-0.94-0.11-1.67c0.35-0.73,0.96-1.16,1.37-0.96C51.51,74.45,51.56,75.2,51.22,75.92z"/>
			<path fill="#FFFFFF" stroke="#00477E" stroke-width="2.0072" d="M49.72,78.44c0.54,0.69,0.62,1.52,0.19,1.86
				c-0.43,0.34-1.22,0.05-1.76-0.64c-0.54-0.69-0.62-1.52-0.19-1.86C48.4,77.47,49.18,77.75,49.72,78.44z"/>
			<line fill="none" stroke="#00477E" stroke-width="2.0072" x1="47.96" y1="77.8" x2="49.91" y2="80.3"/>
			<line fill="none" stroke="#00477E" stroke-width="1.7469" x1="51.11" y1="74.25" x2="49.85" y2="76.88"/>
			<path fill="#FFFFFF" stroke="#00477E" stroke-width="2.0072" d="M51.77,81.04c0,0.87-0.44,1.58-0.99,1.58
				c-0.55,0-0.99-0.71-0.99-1.58c0-0.87,0.44-1.58,0.99-1.58C51.33,79.45,51.77,80.16,51.77,81.04z"/>
			<line fill="none" stroke="#00477E" stroke-width="2.0072" x1="50.78" y1="79.45" x2="50.78" y2="82.62"/>
			<path fill="#FFFFFF" stroke="#00477E" stroke-width="2.0072" d="M49.46,73.63c0.54,0.69,0.62,1.52,0.19,1.86
				c-0.43,0.34-1.22,0.05-1.76-0.64c-0.54-0.69-0.62-1.52-0.19-1.86C48.14,72.65,48.92,72.94,49.46,73.63z"/>
			<line fill="none" stroke="#00477E" stroke-width="2.0072" x1="47.71" y1="72.99" x2="49.65" y2="75.49"/>
			<path fill="#FFFFFF" stroke="#00477E" stroke-width="2.0072" d="M50.79,84.59c0.54,0.69,0.62,1.52,0.19,1.86
				c-0.43,0.34-1.22,0.05-1.76-0.64c-0.54-0.69-0.62-1.52-0.19-1.86C49.47,83.61,50.26,83.9,50.79,84.59z"/>
			<line fill="none" stroke="#00477E" stroke-width="2.0072" x1="49.04" y1="83.95" x2="50.98" y2="86.45"/>
			<path fill="#FFFFFF" stroke="#00477E" stroke-width="2.0072" d="M49.46,76.07c0.54,0.69,0.62,1.52,0.19,1.86
				c-0.43,0.34-1.22,0.05-1.76-0.64c-0.54-0.69-0.62-1.52-0.19-1.86C48.14,75.1,48.92,75.38,49.46,76.07z"/>
			<path fill="#FFFFFF" stroke="#00477E" stroke-width="2.0458" d="M53.15,87.27c-0.35,0.86-1.04,1.4-1.53,1.2
				c-0.49-0.2-0.61-1.07-0.25-1.93c0.35-0.86,1.04-1.4,1.53-1.2C53.39,85.54,53.5,86.41,53.15,87.27z"/>
			<line fill="none" stroke="#00477E" stroke-width="2.0458" x1="52.89" y1="85.34" x2="51.61" y2="88.47"/>
			<line fill="none" stroke="#00477E" stroke-width="2.0072" x1="47.71" y1="75.43" x2="49.65" y2="77.93"/>
			<path fill="#FFFFFF" stroke="#00477E" stroke-width="2.0458" d="M52.25,83.86c0,0.93-0.43,1.69-0.97,1.69
				c-0.53,0-0.97-0.76-0.97-1.69c0-0.93,0.43-1.69,0.97-1.69C51.81,82.17,52.25,82.93,52.25,83.86z"/>
			<line fill="none" stroke="#00477E" stroke-width="2.0458" x1="51.28" y1="82.17" x2="51.28" y2="85.55"/>
			<path fill="#FFFFFF" stroke="#00477E" stroke-width="2.0458" d="M51.66,86.65c0.31,0.88,0.16,1.74-0.34,1.92
				c-0.5,0.18-1.16-0.39-1.48-1.27c-0.31-0.88-0.16-1.74,0.34-1.92C50.68,85.2,51.34,85.77,51.66,86.65z"/>
			<line fill="none" stroke="#00477E" stroke-width="2.0458" x1="50.18" y1="85.38" x2="51.31" y2="88.57"/>
		</g>
	</g>
</g>
<g id="国名">
	<g>
		<path d="M57.42,151.8c0.18,0,0.54,0.07,1.07,0.22c1.41,0.39,2.5,0.83,3.28,1.31c0.33,0.21,0.5,0.46,0.5,0.78
			c0,0.18-0.06,0.34-0.18,0.48c-0.14,0.17-0.32,0.26-0.54,0.26c-0.17,0-0.41-0.08-0.72-0.25c-1.31-0.71-2.48-1.27-3.51-1.67
			c-0.34-0.13-0.5-0.31-0.5-0.54C56.83,151.99,57.03,151.8,57.42,151.8z M57.97,146.14c0.19,0,0.54,0.05,1.05,0.16
			c1,0.21,1.82,0.49,2.47,0.85c0.34,0.19,0.51,0.44,0.51,0.75c0,0.14-0.05,0.28-0.15,0.42c-0.14,0.19-0.33,0.29-0.58,0.29
			c-0.15,0-0.36-0.07-0.64-0.22c-0.94-0.5-1.87-0.9-2.78-1.17c-0.34-0.1-0.51-0.28-0.51-0.54c0-0.14,0.04-0.26,0.13-0.35
			C57.6,146.2,57.76,146.14,57.97,146.14z M58.05,148.93c0.17,0,0.46,0.05,0.89,0.16c0.9,0.23,1.59,0.47,2.09,0.75
			c0.35,0.2,0.53,0.45,0.53,0.77c0,0.16-0.06,0.31-0.17,0.45c-0.14,0.17-0.32,0.25-0.54,0.25c-0.16,0-0.37-0.07-0.63-0.22
			c-0.82-0.48-1.61-0.86-2.39-1.16c-0.26-0.1-0.39-0.26-0.39-0.49C57.46,149.11,57.66,148.93,58.05,148.93z"/>
		<path d="M69.36,149.9l-0.02-0.09l-0.14-0.6c-0.13-0.51-0.19-0.79-0.19-0.86c0-0.2,0.08-0.34,0.24-0.44
			c0.13-0.07,0.26-0.11,0.41-0.11c0.31,0,0.51,0.18,0.59,0.54c0.01,0.07,0.04,0.19,0.08,0.34c0.07,0.25,0.14,0.53,0.21,0.84
			l0.03,0.11l0.21-0.04c1.35-0.32,2.2-0.52,2.55-0.61c0.12-0.03,0.22-0.04,0.31-0.04c0.2,0,0.38,0.05,0.52,0.16
			c0.2,0.15,0.29,0.35,0.29,0.61c0,0.42-0.3,1.02-0.91,1.8c-0.44,0.56-0.78,0.85-1.03,0.85c-0.12,0-0.22-0.04-0.3-0.13
			c-0.09-0.1-0.13-0.2-0.13-0.3c0-0.11,0.06-0.24,0.19-0.4c0.28-0.35,0.5-0.71,0.65-1.07c0.03-0.07,0.05-0.12,0.05-0.15
			c0-0.04-0.02-0.06-0.07-0.06c-0.06,0-0.69,0.15-1.88,0.44l-0.19,0.04l0.07,0.27c0.51,2.06,0.79,3.18,0.84,3.37
			c0.03,0.1,0.04,0.19,0.04,0.26c0,0.25-0.11,0.42-0.33,0.53c-0.1,0.05-0.21,0.07-0.34,0.07c-0.25,0-0.43-0.13-0.53-0.38
			c-0.01-0.03-0.2-0.78-0.55-2.24l-0.32-1.28l-0.07-0.3c-0.18,0.04-0.41,0.1-0.67,0.17c-0.75,0.19-1.18,0.29-1.29,0.29
			c-0.17,0-0.3-0.05-0.39-0.15c-0.1-0.11-0.15-0.26-0.15-0.44c0-0.31,0.2-0.51,0.61-0.6C68.23,150.17,68.77,150.05,69.36,149.9z"/>
		<path d="M79.08,146.82c0.15,0,0.41,0.07,0.78,0.2c0.69,0.24,1.26,0.53,1.71,0.86c0.24,0.17,0.35,0.39,0.35,0.65
			c0,0.14-0.05,0.29-0.14,0.43c-0.14,0.21-0.33,0.32-0.56,0.32c-0.2,0-0.43-0.09-0.67-0.28c-0.62-0.49-1.18-0.88-1.68-1.16
			c-0.25-0.14-0.38-0.31-0.38-0.51C78.49,146.99,78.69,146.82,79.08,146.82z M86.2,148.59c0.13,0,0.25,0.04,0.36,0.13
			c0.15,0.11,0.23,0.26,0.23,0.45c0,0.15-0.06,0.32-0.18,0.5c-0.85,1.27-1.97,2.37-3.36,3.3c-1.16,0.77-2.35,1.32-3.59,1.66
			c-0.13,0.03-0.24,0.05-0.34,0.05c-0.31,0-0.54-0.14-0.67-0.43c-0.06-0.13-0.09-0.25-0.09-0.37c0-0.27,0.13-0.47,0.4-0.6
			c0.06-0.03,0.3-0.1,0.74-0.23c1.59-0.47,3.06-1.3,4.43-2.51c0.52-0.47,1.02-1,1.48-1.59C85.8,148.7,85.99,148.59,86.2,148.59z"/>
		<path d="M93.69,151.51c0.94-0.7,1.72-1.48,2.35-2.34c0.12-0.17,0.18-0.27,0.18-0.31c0-0.05-0.05-0.07-0.16-0.07
			c-0.38,0-2.5,0.15-6.37,0.44c-0.08,0.01-0.13,0.01-0.15,0.01c-0.22,0-0.39-0.07-0.5-0.22c-0.1-0.12-0.15-0.28-0.15-0.46
			c0-0.37,0.17-0.58,0.5-0.66c0.06-0.01,0.86-0.07,2.41-0.19c3.25-0.2,4.99-0.29,5.2-0.29c0.34,0,0.62,0.09,0.82,0.26
			c0.2,0.17,0.3,0.39,0.3,0.65c0,0.27-0.16,0.61-0.47,1.04c-0.76,1.03-1.81,2-3.14,2.91c0.29,0.31,0.51,0.56,0.66,0.75
			c0.17,0.23,0.25,0.44,0.25,0.65c0,0.29-0.12,0.51-0.35,0.66c-0.14,0.09-0.28,0.13-0.42,0.13c-0.18,0-0.33-0.07-0.46-0.19
			c-0.04-0.04-0.12-0.15-0.23-0.31c-0.44-0.62-1-1.3-1.69-2.03c-0.16-0.17-0.33-0.34-0.52-0.52c-0.15-0.14-0.22-0.29-0.22-0.45
			c0-0.15,0.06-0.28,0.17-0.39c0.1-0.1,0.22-0.16,0.36-0.16c0.16,0,0.35,0.08,0.58,0.24C92.94,150.89,93.3,151.17,93.69,151.51z"/>
		<path d="M108.31,149.33c0.23,0,0.42,0.07,0.55,0.22c0.11,0.12,0.17,0.28,0.17,0.48c0,0.37-0.17,0.59-0.53,0.66
			c-0.09,0.02-1.34,0.08-3.74,0.19c-1.1,0.05-2.27,0.11-3.5,0.17c-0.04,0-0.09,0-0.13,0c-0.21,0-0.38-0.06-0.52-0.18
			c-0.14-0.13-0.22-0.3-0.22-0.51c0-0.3,0.13-0.51,0.4-0.63c0.11-0.04,0.37-0.07,0.79-0.09c0.37-0.01,1.29-0.05,2.77-0.13
			c0.63-0.03,1.5-0.07,2.59-0.12c0.37-0.01,0.66-0.03,0.87-0.04C108.1,149.33,108.26,149.33,108.31,149.33z"/>
	</g>
</g>
<g id="ガイド" display="none">
</g>
</svg>
