<?xml version="1.0" encoding="utf-8"?>
<!-- Generator: Adobe Illustrator 25.4.1, SVG Export Plug-In . SVG Version: 6.00 Build 0)  -->
<svg version="1.1" xmlns="http://www.w3.org/2000/svg" xmlns:xlink="http://www.w3.org/1999/xlink" x="0px" y="0px"
	 viewBox="0 0 164.41 252.28" enable-background="new 0 0 164.41 252.28" xml:space="preserve">
<g id="地">
	<rect fill="#DCDDDD" width="164.41" height="252.28"/>
</g>
<g id="枠">
</g>
<g id="国旗">
	<g>
		<g>
			<rect x="25.51" y="60" fill="#004876" width="113.39" height="75.59"/>
			<rect x="25.51" y="116.69" fill="#118749" width="113.39" height="18.9"/>
			<rect x="25.51" y="60" fill="#C91623" width="113.39" height="18.9"/>
			<rect x="25.51" y="97.8" fill="#F5CF21" width="113.39" height="18.9"/>
		</g>
	</g>
</g>
<g id="国名">
	<g>
		<path d="M52.71,148.02l-0.12,0.01c-0.89,0.05-1.39,0.07-1.49,0.07c-0.45,0-0.68-0.22-0.68-0.67c0-0.28,0.14-0.47,0.41-0.56
			c0.08-0.03,0.26-0.05,0.54-0.05c0.67-0.02,1.62-0.1,2.85-0.24c0.49-0.06,0.87-0.11,1.13-0.15c0.11-0.02,0.19-0.03,0.26-0.03
			c0.4,0,0.6,0.21,0.6,0.64c0,0.34-0.18,0.56-0.55,0.64c-0.44,0.1-1.15,0.19-2.15,0.27c0.17,0.07,0.29,0.17,0.35,0.3
			c0.04,0.07,0.05,0.24,0.05,0.5c0,0.19,0,0.48,0.01,0.87c2.34-0.17,3.66-0.25,3.97-0.25c0.24,0,0.42,0.09,0.54,0.27
			c0.08,0.11,0.12,0.24,0.12,0.4c0,0.33-0.15,0.54-0.44,0.62c-0.06,0.01-0.21,0.03-0.44,0.03c-0.81,0.02-2.06,0.09-3.75,0.22
			c0.01,0.49,0.01,0.99,0.01,1.49c0,0.24,0.03,0.4,0.07,0.5c0.08,0.17,0.3,0.26,0.64,0.26c0.73,0,1.4-0.05,2.01-0.14
			c0.08-0.01,0.15-0.02,0.19-0.02c0.27,0,0.47,0.12,0.59,0.37c0.05,0.11,0.08,0.23,0.08,0.37c0,0.3-0.14,0.5-0.42,0.61
			c-0.23,0.1-1.06,0.14-2.47,0.14c-1.06,0-1.72-0.32-1.98-0.95c-0.08-0.21-0.13-0.45-0.13-0.72c0-0.05,0-0.45-0.01-1.2
			c0-0.12,0-0.33-0.01-0.6l-0.2,0.02c-1.4,0.12-2.22,0.19-2.46,0.22c-0.07,0.01-0.12,0.01-0.15,0.01c-0.42,0-0.63-0.23-0.63-0.68
			c0-0.35,0.17-0.56,0.5-0.63c0.04-0.01,0.74-0.07,2.1-0.17l0.63-0.04l0.22-0.02v-0.1l-0.02-0.97c0-0.28,0.05-0.48,0.14-0.58
			C52.65,148.07,52.68,148.05,52.71,148.02z"/>
		<path d="M68.63,149.33c0.23,0,0.42,0.07,0.55,0.22c0.11,0.12,0.17,0.28,0.17,0.48c0,0.37-0.18,0.59-0.53,0.66
			c-0.09,0.02-1.34,0.08-3.74,0.19c-1.1,0.05-2.27,0.11-3.5,0.17c-0.04,0-0.09,0-0.13,0c-0.21,0-0.38-0.06-0.52-0.18
			c-0.14-0.13-0.22-0.3-0.22-0.51c0-0.3,0.13-0.51,0.4-0.63c0.11-0.04,0.37-0.07,0.79-0.09c0.37-0.01,1.29-0.05,2.77-0.13
			c0.63-0.03,1.5-0.07,2.59-0.12c0.37-0.01,0.66-0.03,0.87-0.04C68.42,149.33,68.58,149.33,68.63,149.33z"/>
		<path d="M75.16,146.75v3.86c0,0.2-0.06,0.35-0.19,0.46c-0.13,0.11-0.3,0.17-0.53,0.17c-0.31,0-0.52-0.11-0.63-0.32
			c-0.05-0.09-0.07-0.2-0.07-0.32v-3.86c0-0.26,0.1-0.44,0.31-0.55c0.12-0.06,0.25-0.09,0.39-0.09c0.24,0,0.43,0.07,0.56,0.21
			C75.11,146.43,75.16,146.57,75.16,146.75z M79.14,146.25v3.41c0,1.12-0.13,2.07-0.4,2.85c-0.35,1.01-1,1.85-1.95,2.54
			c-0.18,0.13-0.36,0.19-0.53,0.19c-0.16,0-0.27-0.05-0.35-0.14c-0.08-0.1-0.12-0.2-0.12-0.32c0-0.16,0.08-0.33,0.25-0.5
			c0.44-0.45,0.74-0.82,0.91-1.08c0.37-0.59,0.6-1.29,0.7-2.12c0.05-0.4,0.08-0.87,0.08-1.39v-3.42c0-0.38,0.23-0.58,0.7-0.58
			C78.9,145.68,79.14,145.87,79.14,146.25z"/>
		<path d="M84.03,148.77c0.23,0,0.56,0.08,1.01,0.24c0.52,0.19,0.95,0.41,1.3,0.66c0.24,0.18,0.36,0.39,0.36,0.65
			c0,0.16-0.06,0.31-0.17,0.45c-0.14,0.19-0.33,0.29-0.56,0.29c-0.17,0-0.35-0.08-0.56-0.25c-0.42-0.34-0.95-0.7-1.61-1.07
			c-0.22-0.13-0.33-0.28-0.33-0.48c0-0.09,0.02-0.17,0.07-0.26C83.63,148.85,83.79,148.77,84.03,148.77z M91.9,148.4
			c0.11,0,0.21,0.03,0.32,0.09c0.18,0.11,0.28,0.27,0.28,0.48c0,0.21-0.17,0.6-0.52,1.18c-0.57,0.96-1.35,1.83-2.34,2.63
			c-1.18,0.95-2.48,1.67-3.92,2.16c-0.16,0.06-0.3,0.08-0.41,0.08c-0.29,0-0.51-0.13-0.64-0.4c-0.07-0.13-0.1-0.26-0.1-0.38
			c0-0.28,0.13-0.48,0.38-0.62c0.04-0.02,0.28-0.11,0.72-0.26c1.2-0.42,2.31-1.04,3.35-1.87c1-0.79,1.77-1.68,2.31-2.67
			C91.48,148.54,91.67,148.4,91.9,148.4z M85.37,146.26c0.34,0,0.9,0.24,1.68,0.72c0.24,0.14,0.41,0.26,0.52,0.35
			c0.21,0.17,0.32,0.38,0.32,0.61c0,0.16-0.06,0.3-0.17,0.44c-0.17,0.2-0.36,0.3-0.58,0.3c-0.19,0-0.38-0.1-0.58-0.3
			c-0.32-0.34-0.81-0.73-1.44-1.2c-0.2-0.14-0.29-0.3-0.29-0.46c0-0.09,0.03-0.18,0.08-0.26C85,146.33,85.16,146.26,85.37,146.26z"
			/>
		<path d="M97.71,149.9l-0.02-0.09l-0.14-0.6c-0.13-0.51-0.19-0.79-0.19-0.86c0-0.2,0.08-0.34,0.24-0.44
			c0.13-0.07,0.26-0.11,0.41-0.11c0.31,0,0.51,0.18,0.59,0.54c0.01,0.07,0.04,0.19,0.08,0.34c0.07,0.25,0.14,0.53,0.21,0.84
			l0.03,0.11l0.21-0.04c1.35-0.32,2.2-0.52,2.55-0.61c0.12-0.03,0.22-0.04,0.31-0.04c0.2,0,0.38,0.05,0.52,0.16
			c0.2,0.15,0.29,0.35,0.29,0.61c0,0.42-0.3,1.02-0.91,1.8c-0.44,0.56-0.78,0.85-1.03,0.85c-0.12,0-0.22-0.04-0.3-0.13
			c-0.09-0.1-0.13-0.2-0.13-0.3c0-0.11,0.06-0.24,0.19-0.4c0.28-0.35,0.5-0.71,0.65-1.07c0.03-0.07,0.05-0.12,0.05-0.15
			c0-0.04-0.02-0.06-0.07-0.06c-0.06,0-0.69,0.15-1.88,0.44l-0.19,0.04l0.07,0.27c0.51,2.06,0.79,3.18,0.84,3.37
			c0.03,0.1,0.04,0.19,0.04,0.26c0,0.25-0.11,0.42-0.33,0.53c-0.1,0.05-0.21,0.07-0.34,0.07c-0.25,0-0.43-0.13-0.53-0.38
			c-0.01-0.03-0.2-0.78-0.55-2.24l-0.32-1.28l-0.07-0.3c-0.18,0.04-0.41,0.1-0.67,0.17c-0.75,0.19-1.18,0.29-1.29,0.29
			c-0.17,0-0.3-0.05-0.39-0.15c-0.1-0.11-0.15-0.26-0.15-0.44c0-0.31,0.2-0.51,0.61-0.6C96.57,150.17,97.12,150.05,97.71,149.9z"/>
		<path d="M110.71,151.75c-1.04,1.06-2.12,1.91-3.23,2.56c-0.46,0.27-0.78,0.4-0.94,0.4c-0.2,0-0.35-0.09-0.45-0.27
			c-0.06-0.1-0.09-0.19-0.09-0.27c0-0.16,0.08-0.31,0.23-0.44c0.04-0.03,0.17-0.12,0.39-0.27c0.89-0.57,1.82-1.33,2.79-2.28
			c0.98-0.97,1.71-1.92,2.17-2.86c0.08-0.16,0.12-0.27,0.12-0.32c0-0.07-0.04-0.1-0.11-0.1c-0.05,0-0.13,0.01-0.25,0.03
			c-0.22,0.03-1.08,0.1-2.58,0.22c-0.26,0.02-0.48,0.04-0.67,0.05c-0.07,0.01-0.13,0.01-0.17,0.01c-0.3,0-0.5-0.11-0.62-0.33
			c-0.05-0.1-0.07-0.21-0.07-0.33c0-0.31,0.14-0.51,0.44-0.6c0.09-0.03,0.28-0.05,0.59-0.07c1.04-0.04,2.36-0.15,3.96-0.33
			c0.07-0.01,0.13-0.01,0.18-0.01c0.32,0,0.58,0.09,0.78,0.28c0.18,0.17,0.27,0.38,0.27,0.64c0,0.2-0.1,0.49-0.29,0.9
			c-0.38,0.79-0.94,1.64-1.68,2.55c1.22,0.76,2.17,1.47,2.85,2.14c0.31,0.3,0.46,0.58,0.46,0.83c0,0.19-0.07,0.36-0.21,0.51
			c-0.15,0.16-0.32,0.23-0.52,0.23c-0.2,0-0.37-0.07-0.52-0.22c-0.02-0.02-0.08-0.09-0.19-0.21
			C112.56,153.39,111.69,152.57,110.71,151.75z"/>
	</g>
</g>
<g id="ガイド" display="none">
</g>
</svg>
