<?xml version="1.0" encoding="utf-8"?>
<!-- Generator: Adobe Illustrator 25.4.1, SVG Export Plug-In . SVG Version: 6.00 Build 0)  -->
<svg version="1.1" xmlns="http://www.w3.org/2000/svg" xmlns:xlink="http://www.w3.org/1999/xlink" x="0px" y="0px"
	 viewBox="0 0 164.41 252.28" enable-background="new 0 0 164.41 252.28" xml:space="preserve">
<g id="地">
	<rect fill="#DCDDDD" width="164.41" height="252.28"/>
</g>
<g id="枠">
</g>
<g id="国旗">
	<g>
		<g>
			<rect x="25.51" y="60" fill="#FFFFFF" width="113.39" height="75.59"/>
			<rect x="25.51" y="60" fill="#C91623" width="113.39" height="37.8"/>
		</g>
	</g>
</g>
<g id="国名">
	<g>
		<path d="M69.72,148.02l-0.12,0.01c-0.89,0.05-1.39,0.07-1.49,0.07c-0.45,0-0.68-0.22-0.68-0.67c0-0.28,0.14-0.47,0.41-0.56
			c0.08-0.03,0.26-0.05,0.54-0.05c0.67-0.02,1.62-0.1,2.85-0.24c0.49-0.06,0.87-0.11,1.13-0.15c0.11-0.02,0.19-0.03,0.26-0.03
			c0.4,0,0.6,0.21,0.6,0.64c0,0.34-0.18,0.56-0.55,0.64c-0.44,0.1-1.15,0.19-2.15,0.27c0.17,0.07,0.29,0.17,0.35,0.3
			c0.04,0.07,0.05,0.24,0.05,0.5c0,0.19,0,0.48,0.01,0.87c2.34-0.17,3.66-0.25,3.97-0.25c0.24,0,0.42,0.09,0.54,0.27
			c0.08,0.11,0.12,0.24,0.12,0.4c0,0.33-0.15,0.54-0.44,0.62c-0.06,0.01-0.21,0.03-0.44,0.03c-0.81,0.02-2.06,0.09-3.75,0.22
			c0.01,0.49,0.01,0.99,0.01,1.49c0,0.24,0.03,0.4,0.07,0.5c0.08,0.17,0.3,0.26,0.64,0.26c0.73,0,1.4-0.05,2.01-0.14
			c0.08-0.01,0.15-0.02,0.19-0.02c0.27,0,0.47,0.12,0.59,0.37c0.05,0.11,0.08,0.23,0.08,0.37c0,0.3-0.14,0.5-0.42,0.61
			c-0.23,0.1-1.06,0.14-2.47,0.14c-1.06,0-1.72-0.32-1.98-0.95c-0.08-0.21-0.12-0.45-0.13-0.72c0-0.05,0-0.45-0.01-1.2
			c0-0.12,0-0.33,0-0.6l-0.2,0.02c-1.4,0.12-2.22,0.19-2.46,0.22c-0.07,0.01-0.12,0.01-0.16,0.01c-0.42,0-0.63-0.23-0.63-0.68
			c0-0.35,0.17-0.56,0.5-0.63c0.04-0.01,0.74-0.07,2.1-0.17l0.63-0.04l0.22-0.02v-0.1l-0.02-0.97c0-0.28,0.05-0.48,0.14-0.58
			C69.66,148.07,69.69,148.05,69.72,148.02z"/>
		<path d="M81.6,148.62v-2.13c0-0.2,0.07-0.36,0.21-0.48c0.13-0.11,0.3-0.17,0.51-0.17c0.28,0,0.49,0.1,0.63,0.31
			c0.06,0.1,0.09,0.21,0.09,0.34v2.04l0.23-0.02c1.41-0.1,2.32-0.17,2.75-0.21c0.06,0,0.1-0.01,0.13-0.01c0.2,0,0.36,0.06,0.49,0.18
			c0.12,0.12,0.19,0.27,0.19,0.46c0,0.28-0.09,0.48-0.27,0.59c-0.11,0.07-0.32,0.11-0.63,0.12c-0.96,0.04-1.92,0.1-2.9,0.17v0.16
			c0,1.91-0.53,3.34-1.58,4.27c-0.5,0.44-0.89,0.67-1.17,0.67c-0.17,0-0.31-0.07-0.42-0.21c-0.07-0.09-0.1-0.19-0.1-0.3
			c0-0.17,0.09-0.34,0.28-0.51c0.72-0.65,1.18-1.41,1.39-2.26c0.11-0.47,0.17-1,0.17-1.57v-0.13c-1.23,0.09-2.26,0.18-3.08,0.25
			c-0.08,0.01-0.14,0.01-0.18,0.01c-0.22,0-0.39-0.06-0.51-0.19c-0.11-0.11-0.17-0.27-0.17-0.46c0-0.35,0.16-0.57,0.48-0.66
			c0.07-0.02,0.84-0.08,2.31-0.19l0.89-0.07L81.6,148.62z"/>
		<path d="M95.25,152.4c0.12-0.82,0.27-2.01,0.44-3.55c0.01-0.08,0.01-0.13,0.01-0.16c0-0.1-0.06-0.15-0.17-0.15
			c-0.05,0-0.17,0.01-0.37,0.03c-0.27,0.03-0.86,0.07-1.76,0.14c-1.02,0.08-1.88,0.16-2.58,0.22c-0.08,0.01-0.14,0.01-0.18,0.01
			c-0.21,0-0.37-0.07-0.49-0.19c-0.1-0.11-0.16-0.25-0.16-0.43c0-0.32,0.12-0.53,0.35-0.64c0.08-0.04,0.29-0.07,0.62-0.09
			c3.06-0.25,4.71-0.39,4.93-0.41c0.07-0.01,0.12-0.01,0.17-0.01c0.47,0,0.8,0.2,0.98,0.6c0.07,0.15,0.1,0.31,0.1,0.48
			c0,0.05-0.01,0.19-0.04,0.42c-0.21,1.72-0.36,2.97-0.47,3.75c0.24,0.1,0.37,0.3,0.37,0.6c0,0.3-0.13,0.49-0.39,0.59
			c-0.1,0.04-0.31,0.06-0.63,0.08c-1.03,0.05-2.79,0.17-5.26,0.35c-0.08,0.01-0.13,0.01-0.17,0.01c-0.43,0-0.64-0.22-0.64-0.67
			c0-0.39,0.2-0.61,0.6-0.66C90.95,152.66,92.52,152.55,95.25,152.4z"/>
	</g>
</g>
<g id="ガイド" display="none">
</g>
</svg>
