<?xml version="1.0" encoding="utf-8"?>
<!-- Generator: Adobe Illustrator 25.4.1, SVG Export Plug-In . SVG Version: 6.00 Build 0)  -->
<svg version="1.1" xmlns="http://www.w3.org/2000/svg" xmlns:xlink="http://www.w3.org/1999/xlink" x="0px" y="0px"
	 viewBox="0 0 164.41 252.28" enable-background="new 0 0 164.41 252.28" xml:space="preserve">
<g id="地">
	<rect fill="#DCDDDD" width="164.41" height="252.28"/>
</g>
<g id="枠">
</g>
<g id="国旗">
	<g>
		<g>
			<rect x="25.51" y="60" fill="#C91623" width="113.39" height="75.59"/>
			<rect x="44.58" y="78.98" fill="#118749" width="75.26" height="37.63"/>
			<path fill="#FFFFFF" d="M79.65,97.8c0-7.88,5.41-14.5,12.72-16.35c-1.33-0.34-2.71-0.51-4.14-0.51
				c-9.31,0-16.86,7.55-16.86,16.86c0,9.31,7.55,16.86,16.86,16.86c1.43,0,2.82-0.18,4.14-0.51C85.06,112.3,79.65,105.69,79.65,97.8
				z"/>
		</g>
	</g>
</g>
<g id="国名">
	<g>
		<path d="M58.38,148.02l-0.12,0.01c-0.89,0.05-1.39,0.07-1.49,0.07c-0.45,0-0.68-0.22-0.68-0.67c0-0.28,0.14-0.47,0.41-0.56
			c0.08-0.03,0.26-0.05,0.54-0.05c0.67-0.02,1.62-0.1,2.85-0.24c0.49-0.06,0.87-0.11,1.13-0.15c0.11-0.02,0.19-0.03,0.26-0.03
			c0.4,0,0.6,0.21,0.6,0.64c0,0.34-0.18,0.56-0.55,0.64c-0.44,0.1-1.15,0.19-2.15,0.27c0.17,0.07,0.29,0.17,0.35,0.3
			c0.04,0.07,0.05,0.24,0.05,0.5c0,0.19,0,0.48,0.01,0.87c2.34-0.17,3.66-0.25,3.97-0.25c0.24,0,0.42,0.09,0.54,0.27
			c0.08,0.11,0.12,0.24,0.12,0.4c0,0.33-0.15,0.54-0.44,0.62c-0.06,0.01-0.21,0.03-0.44,0.03c-0.81,0.02-2.06,0.09-3.75,0.22
			c0.01,0.49,0.01,0.99,0.01,1.49c0,0.24,0.03,0.4,0.07,0.5c0.08,0.17,0.29,0.26,0.64,0.26c0.73,0,1.4-0.05,2.01-0.14
			c0.08-0.01,0.15-0.02,0.19-0.02c0.27,0,0.47,0.12,0.59,0.37c0.05,0.11,0.08,0.23,0.08,0.37c0,0.3-0.14,0.5-0.42,0.61
			c-0.23,0.1-1.06,0.14-2.47,0.14c-1.06,0-1.72-0.32-1.98-0.95c-0.08-0.21-0.13-0.45-0.13-0.72c0-0.05,0-0.45-0.01-1.2
			c0-0.12,0-0.33-0.01-0.6l-0.2,0.02c-1.4,0.12-2.22,0.19-2.46,0.22c-0.07,0.01-0.12,0.01-0.15,0.01c-0.42,0-0.63-0.23-0.63-0.68
			c0-0.35,0.17-0.56,0.5-0.63c0.04-0.01,0.74-0.07,2.1-0.17l0.63-0.04l0.22-0.02v-0.1l-0.02-0.97c0-0.28,0.05-0.48,0.14-0.58
			C58.32,148.07,58.35,148.05,58.38,148.02z"/>
		<path d="M68.67,147.24c0.47,0,0.7,0.27,0.7,0.8c0,1.92-0.36,3.46-1.07,4.63c-0.3,0.5-0.67,0.91-1.09,1.24
			c-0.15,0.12-0.31,0.18-0.49,0.18c-0.12,0-0.22-0.04-0.32-0.12c-0.11-0.1-0.16-0.21-0.16-0.35c0-0.16,0.07-0.32,0.22-0.49
			c0.6-0.69,1.01-1.51,1.22-2.46c0.17-0.74,0.26-1.64,0.26-2.7c0-0.22,0.05-0.38,0.15-0.49C68.24,147.32,68.43,147.24,68.67,147.24z
			 M71.85,146.83v5.65c0,0.14,0.03,0.22,0.1,0.22c0.14,0,0.49-0.2,1.07-0.6c0.82-0.56,1.5-1.13,2.03-1.72
			c0.18-0.21,0.36-0.31,0.52-0.31c0.13,0,0.26,0.05,0.39,0.16c0.12,0.1,0.19,0.24,0.19,0.42c0,0.15-0.06,0.31-0.18,0.48
			c-0.43,0.59-1.08,1.23-1.94,1.92c-0.68,0.54-1.33,0.95-1.94,1.26c-0.23,0.11-0.44,0.17-0.62,0.17c-0.2,0-0.39-0.07-0.59-0.21
			c-0.28-0.2-0.42-0.5-0.42-0.92v-6.51c0-0.24,0.1-0.42,0.32-0.54c0.11-0.06,0.23-0.09,0.37-0.09c0.2,0,0.37,0.06,0.51,0.17
			C71.78,146.49,71.85,146.64,71.85,146.83z"/>
		<path d="M81.58,150.47c-1.07,0.06-2.23,0.14-3.47,0.24c-0.1,0.01-0.16,0.01-0.19,0.01c-0.27,0-0.46-0.11-0.57-0.32
			c-0.05-0.1-0.08-0.22-0.08-0.36c0-0.37,0.2-0.57,0.59-0.61c0.51-0.06,2.85-0.2,7.04-0.42c0.77-0.04,1.18-0.06,1.21-0.06
			c0.21,0,0.38,0.06,0.5,0.19c0.11,0.12,0.17,0.27,0.17,0.46c0,0.33-0.13,0.54-0.38,0.63c-0.08,0.03-0.24,0.04-0.47,0.05
			c-0.51,0.01-1.37,0.05-2.59,0.1l-0.27,0c-0.06,1.75-0.59,3.08-1.59,3.99c-0.58,0.53-1.03,0.79-1.36,0.79
			c-0.16,0-0.29-0.06-0.39-0.19c-0.09-0.12-0.13-0.24-0.13-0.35c0-0.14,0.06-0.27,0.17-0.38c0.04-0.04,0.15-0.13,0.35-0.28
			c0.61-0.46,1.03-1.11,1.26-1.95C81.48,151.59,81.55,151.08,81.58,150.47z M83.96,146.15c0.17,0,0.31,0.05,0.43,0.14
			c0.14,0.12,0.22,0.29,0.22,0.5c0,0.37-0.18,0.58-0.55,0.65c-0.21,0.03-0.63,0.08-1.26,0.13c-1.16,0.1-2.11,0.14-2.86,0.14
			c-0.55,0-0.83-0.22-0.83-0.67c0-0.26,0.11-0.44,0.32-0.54c0.11-0.06,0.36-0.08,0.74-0.08c0.91,0,1.82-0.04,2.75-0.14
			c0.2-0.02,0.46-0.05,0.76-0.1C83.81,146.16,83.91,146.15,83.96,146.15z M85.22,145.72c0.21,0,0.54,0.21,1,0.62
			c0.39,0.35,0.58,0.63,0.58,0.84c0,0.14-0.06,0.27-0.19,0.37c-0.1,0.08-0.21,0.12-0.34,0.12c-0.17,0-0.3-0.07-0.39-0.22
			c-0.24-0.4-0.52-0.75-0.83-1.08c-0.1-0.11-0.15-0.22-0.15-0.33C84.9,145.82,85.01,145.72,85.22,145.72z M86.26,144.89
			c0.22,0,0.54,0.18,0.96,0.53c0.39,0.33,0.58,0.6,0.58,0.83c0,0.16-0.06,0.28-0.18,0.38c-0.09,0.07-0.19,0.1-0.3,0.1
			c-0.16,0-0.3-0.09-0.42-0.28c-0.2-0.3-0.46-0.61-0.79-0.92c-0.12-0.11-0.18-0.23-0.18-0.34c0-0.07,0.03-0.14,0.09-0.2
			C86.08,144.92,86.16,144.89,86.26,144.89z"/>
		<path d="M93.11,151.2c-0.77,0.51-1.54,0.91-2.28,1.2c-0.15,0.06-0.27,0.09-0.37,0.09c-0.17,0-0.3-0.08-0.37-0.23
			c-0.04-0.08-0.06-0.16-0.06-0.23c0-0.16,0.07-0.3,0.21-0.4c0.03-0.02,0.18-0.1,0.46-0.25c0.72-0.38,1.45-0.88,2.19-1.51
			c0.72-0.61,1.3-1.23,1.75-1.88c0.16-0.21,0.34-0.32,0.57-0.32c0.15,0,0.29,0.05,0.4,0.15c0.17,0.14,0.26,0.31,0.26,0.49
			c0,0.14-0.07,0.31-0.22,0.51c-0.41,0.56-0.91,1.09-1.5,1.59c0.12,0.1,0.18,0.23,0.18,0.39v3.73c0,0.17-0.05,0.3-0.16,0.4
			c-0.11,0.11-0.26,0.16-0.46,0.16c-0.27,0-0.46-0.1-0.55-0.3c-0.04-0.08-0.06-0.17-0.06-0.27V151.2z"/>
		<path d="M107.08,146.99c0.35,0,0.64,0.11,0.86,0.33c0.19,0.19,0.29,0.44,0.29,0.74c0,0.21-0.05,0.54-0.17,0.99
			c-0.11,0.45-0.23,0.85-0.37,1.2c-0.7,1.79-1.85,3.18-3.46,4.16c-0.64,0.39-1.1,0.59-1.38,0.59c-0.18,0-0.32-0.07-0.41-0.22
			c-0.07-0.11-0.1-0.21-0.1-0.32c0-0.2,0.13-0.38,0.38-0.52c1.08-0.62,1.97-1.43,2.65-2.42c0.61-0.87,1.03-1.82,1.26-2.85
			c0.02-0.08,0.03-0.14,0.03-0.19c0-0.09-0.05-0.13-0.15-0.13c-0.08,0-0.18,0.01-0.3,0.02c-0.21,0.02-1.16,0.08-2.86,0.2
			c-0.63,0.04-1.32,0.1-2.07,0.16c-0.07,0.01-0.13,0.01-0.16,0.01c-0.46,0-0.69-0.24-0.69-0.71c0-0.36,0.17-0.57,0.51-0.64
			c0.16-0.03,1.81-0.14,4.96-0.33c0.31-0.02,0.56-0.04,0.73-0.05C106.87,147,107.02,146.99,107.08,146.99z M107.91,145.66
			c0.21,0,0.54,0.21,1,0.62c0.39,0.35,0.58,0.63,0.58,0.83c0,0.14-0.06,0.27-0.19,0.37c-0.1,0.08-0.21,0.12-0.34,0.12
			c-0.17,0-0.31-0.1-0.43-0.29c-0.21-0.35-0.47-0.68-0.79-1.01c-0.1-0.11-0.16-0.22-0.16-0.33
			C107.59,145.77,107.7,145.66,107.91,145.66z M108.96,144.87c0.22,0,0.54,0.18,0.95,0.53c0.39,0.33,0.58,0.6,0.58,0.83
			c0,0.16-0.06,0.28-0.18,0.38c-0.09,0.07-0.19,0.1-0.3,0.1c-0.16,0-0.3-0.09-0.42-0.28c-0.2-0.3-0.46-0.61-0.79-0.92
			c-0.12-0.11-0.18-0.23-0.18-0.33c0-0.08,0.03-0.15,0.09-0.2C108.77,144.9,108.85,144.87,108.96,144.87z"/>
	</g>
</g>
<g id="ガイド" display="none">
</g>
</svg>
