<?xml version="1.0" encoding="utf-8"?>
<!-- Generator: Adobe Illustrator 25.4.1, SVG Export Plug-In . SVG Version: 6.00 Build 0)  -->
<svg version="1.1" xmlns="http://www.w3.org/2000/svg" xmlns:xlink="http://www.w3.org/1999/xlink" x="0px" y="0px"
	 viewBox="0 0 164.41 252.28" enable-background="new 0 0 164.41 252.28" xml:space="preserve">
<g id="地">
	<rect fill="#DCDDDD" width="164.41" height="252.28"/>
</g>
<g id="枠">
</g>
<g id="国旗">
	<g>
		<g>
			<rect x="25.39" y="60" fill="#C8152A" width="113.39" height="75.59"/>
			<polygon fill="#147F49" stroke="#040000" points="82.08,81.9 85.39,92.1 96.12,92.1 87.44,98.4 90.76,108.6 82.08,102.3 
				73.4,108.6 76.72,98.4 68.04,92.1 78.77,92.1 			"/>
			<line fill="none" stroke="#040000" x1="85.39" y1="92.1" x2="83.54" y2="92.1"/>
			<line fill="none" stroke="#040000" x1="85.97" y1="93.86" x2="84.11" y2="93.86"/>
			<line fill="none" stroke="#040000" x1="80.62" y1="92.1" x2="80.05" y2="93.86"/>
			<line fill="none" stroke="#040000" x1="78.19" y1="93.86" x2="78.77" y2="92.1"/>
			<line fill="none" stroke="#040000" x1="77.29" y1="96.64" x2="78.79" y2="97.73"/>
			<line fill="none" stroke="#040000" x1="78.22" y1="99.49" x2="76.72" y2="98.4"/>
			<line fill="none" stroke="#040000" x1="80.58" y1="101.21" x2="82.08" y2="100.12"/>
			<line fill="none" stroke="#040000" x1="83.58" y1="101.21" x2="82.08" y2="102.3"/>
			<line fill="none" stroke="#040000" x1="85.37" y1="97.73" x2="85.94" y2="99.49"/>
			<line fill="none" stroke="#040000" x1="87.44" y1="98.4" x2="86.87" y2="96.64"/>
			<polygon fill="#C91623" stroke="#040000" points="78.22,99.49 76.76,103.98 80.58,101.21 			"/>
			<polygon fill="#C91623" stroke="#040000" points="90.69,93.86 85.97,93.86 86.87,96.64 			"/>
			<polygon fill="#C91623" stroke="#040000" points="73.47,93.86 77.29,96.64 78.19,93.86 			"/>
			<polygon fill="#C91623" stroke="#040000" points="82.08,87.61 80.62,92.1 83.54,92.1 			"/>
			<polygon fill="#C91623" stroke="#040000" points="83.58,101.21 87.4,103.98 85.94,99.49 			"/>
			<polygon fill="#C91623" stroke="#040000" points="82.08,100.12 85.37,97.73 84.11,93.86 80.05,93.86 78.79,97.73 			"/>
		</g>
	</g>
</g>
<g id="国名">
	<g>
		<path d="M64.05,148.02l-0.12,0.01c-0.89,0.05-1.39,0.07-1.49,0.07c-0.45,0-0.68-0.22-0.68-0.67c0-0.28,0.14-0.47,0.41-0.56
			c0.08-0.03,0.26-0.05,0.54-0.05c0.67-0.02,1.62-0.1,2.85-0.24c0.49-0.06,0.87-0.11,1.13-0.15c0.11-0.02,0.19-0.03,0.26-0.03
			c0.4,0,0.6,0.21,0.6,0.64c0,0.34-0.18,0.56-0.55,0.64c-0.44,0.1-1.15,0.19-2.15,0.27c0.17,0.07,0.29,0.17,0.35,0.3
			c0.04,0.07,0.05,0.24,0.05,0.5c0,0.19,0,0.48,0.01,0.87c2.34-0.17,3.66-0.25,3.97-0.25c0.24,0,0.42,0.09,0.54,0.27
			c0.08,0.11,0.12,0.24,0.12,0.4c0,0.33-0.15,0.54-0.44,0.62c-0.06,0.01-0.21,0.03-0.44,0.03c-0.81,0.02-2.06,0.09-3.75,0.22
			c0.01,0.49,0.01,0.99,0.01,1.49c0,0.24,0.03,0.4,0.07,0.5c0.08,0.17,0.3,0.26,0.64,0.26c0.73,0,1.4-0.05,2.01-0.14
			c0.08-0.01,0.15-0.02,0.19-0.02c0.27,0,0.47,0.12,0.59,0.37c0.05,0.11,0.08,0.23,0.08,0.37c0,0.3-0.14,0.5-0.42,0.61
			c-0.23,0.1-1.06,0.14-2.47,0.14c-1.06,0-1.72-0.32-1.98-0.95c-0.08-0.21-0.12-0.45-0.13-0.72c0-0.05,0-0.45-0.01-1.2
			c0-0.12,0-0.33,0-0.6l-0.2,0.02c-1.4,0.12-2.22,0.19-2.46,0.22c-0.07,0.01-0.12,0.01-0.16,0.01c-0.42,0-0.63-0.23-0.63-0.68
			c0-0.35,0.17-0.56,0.5-0.63c0.04-0.01,0.74-0.07,2.1-0.17l0.63-0.04l0.22-0.02v-0.1l-0.02-0.97c0-0.28,0.05-0.48,0.14-0.58
			C63.99,148.07,64.02,148.05,64.05,148.02z"/>
		<path d="M73.65,147.57l0.38-0.03c3.25-0.24,5-0.37,5.24-0.37c0.33,0,0.61,0.11,0.83,0.33c0.21,0.2,0.31,0.46,0.31,0.78
			c0,0.21-0.21,1.41-0.62,3.59l-0.05,0.28c0.25,0.1,0.38,0.33,0.38,0.67c0,0.33-0.17,0.53-0.5,0.6c-0.06,0.01-0.22,0.02-0.48,0.02
			c-1.92,0-3.48,0.05-4.67,0.16c-0.1,0.31-0.34,0.47-0.74,0.47c-0.28,0-0.48-0.14-0.58-0.43c-0.02-0.07-0.05-0.26-0.08-0.58
			c-0.07-0.67-0.26-2.02-0.55-4.07c-0.08-0.58-0.13-0.9-0.13-0.96c0-0.3,0.13-0.5,0.39-0.61c0.12-0.05,0.25-0.08,0.39-0.08
			C73.35,147.33,73.52,147.41,73.65,147.57z M78.42,152.12c0.18-1.05,0.34-2.14,0.5-3.27c0.01-0.07,0.02-0.12,0.02-0.16
			c0-0.13-0.07-0.19-0.22-0.19c-0.23,0-1.43,0.09-3.6,0.26c-0.41,0.03-0.81,0.07-1.22,0.09c0.15,1.33,0.29,2.48,0.43,3.47l0.36-0.02
			C76.29,152.22,77.53,152.15,78.42,152.12z"/>
		<path d="M84.53,148.78c0.27,0,0.64,0.3,1.09,0.91c0.31,0.41,0.46,0.74,0.46,0.98c0,0.22-0.09,0.4-0.28,0.53
			c-0.12,0.09-0.25,0.14-0.39,0.14c-0.28,0-0.47-0.17-0.58-0.5c-0.16-0.46-0.36-0.88-0.6-1.26c-0.09-0.14-0.14-0.28-0.14-0.41
			c0-0.1,0.03-0.18,0.09-0.25C84.27,148.83,84.39,148.78,84.53,148.78z M90.46,148.32c0.13,0,0.25,0.04,0.37,0.11
			c0.19,0.12,0.28,0.3,0.28,0.55c0,0.25-0.09,0.68-0.27,1.29c-0.55,1.93-1.63,3.38-3.26,4.35c-0.42,0.25-0.72,0.38-0.9,0.38
			c-0.17,0-0.3-0.08-0.39-0.23c-0.05-0.09-0.08-0.17-0.08-0.25c0-0.15,0.06-0.28,0.19-0.39c0.04-0.03,0.21-0.15,0.5-0.35
			c0.55-0.37,1.06-0.89,1.53-1.55c0.65-0.9,1.1-2,1.35-3.29C89.88,148.53,90.1,148.32,90.46,148.32z M86.82,148.05
			c0.17,0,0.32,0.08,0.46,0.25c0.34,0.4,0.59,0.84,0.76,1.32c0.06,0.17,0.09,0.33,0.09,0.45c0,0.28-0.11,0.48-0.33,0.6
			c-0.11,0.06-0.23,0.09-0.35,0.09c-0.31,0-0.5-0.19-0.58-0.56c-0.12-0.55-0.27-1.03-0.44-1.42c-0.05-0.11-0.08-0.22-0.08-0.32
			c0-0.16,0.07-0.27,0.2-0.35C86.64,148.08,86.72,148.05,86.82,148.05z"/>
		<path d="M100.92,152.4c0.12-0.82,0.27-2.01,0.44-3.55c0.01-0.08,0.01-0.13,0.01-0.16c0-0.1-0.06-0.15-0.17-0.15
			c-0.05,0-0.17,0.01-0.37,0.03c-0.27,0.03-0.86,0.07-1.76,0.14c-1.02,0.08-1.88,0.16-2.59,0.22c-0.08,0.01-0.14,0.01-0.18,0.01
			c-0.21,0-0.37-0.07-0.49-0.19c-0.1-0.11-0.15-0.25-0.15-0.43c0-0.32,0.12-0.53,0.35-0.64c0.08-0.04,0.29-0.07,0.62-0.09
			c3.06-0.25,4.71-0.39,4.93-0.41c0.07-0.01,0.12-0.01,0.17-0.01c0.47,0,0.8,0.2,0.98,0.6c0.07,0.15,0.1,0.31,0.1,0.48
			c0,0.05-0.01,0.19-0.04,0.42c-0.21,1.72-0.36,2.97-0.47,3.75c0.24,0.1,0.37,0.3,0.37,0.6c0,0.3-0.13,0.49-0.39,0.59
			c-0.1,0.04-0.31,0.06-0.63,0.08c-1.03,0.05-2.79,0.17-5.26,0.35c-0.08,0.01-0.13,0.01-0.17,0.01c-0.43,0-0.64-0.22-0.64-0.67
			c0-0.39,0.2-0.61,0.6-0.66C96.62,152.66,98.19,152.55,100.92,152.4z"/>
	</g>
</g>
<g id="ガイド" display="none">
</g>
</svg>
