<?xml version="1.0" encoding="utf-8"?>
<!-- Generator: Adobe Illustrator 25.4.1, SVG Export Plug-In . SVG Version: 6.00 Build 0)  -->
<svg version="1.1" xmlns="http://www.w3.org/2000/svg" xmlns:xlink="http://www.w3.org/1999/xlink" x="0px" y="0px"
	 viewBox="0 0 164.41 252.28" enable-background="new 0 0 164.41 252.28" xml:space="preserve">
<g id="地">
	<rect fill="#DCDDDD" width="164.41" height="252.28"/>
</g>
<g id="枠">
</g>
<g id="国旗">
	<g>
		<g>
			<rect x="25.51" y="60" fill="#C8152A" width="113.39" height="75.59"/>
			<rect x="63.36" y="60" fill="#147EAB" width="37.69" height="75.59"/>
			<path fill="#F5CF21" d="M48.73,87.37c0,2.37-1.92,4.29-4.29,4.29c-2.37,0-4.29-1.92-4.29-4.29c0-2.37,1.92-4.29,4.29-4.29
				C46.81,83.08,48.73,85,48.73,87.37z"/>
			<rect x="50.99" y="95.08" fill="#F5CF21" width="4.15" height="28.49"/>
			<rect x="33.16" y="95.08" fill="#F5CF21" width="4.15" height="28.49"/>
			<rect x="39.62" y="100.16" fill="#F5CF21" width="9.64" height="3.15"/>
			<rect x="39.62" y="115.69" fill="#F5CF21" width="9.64" height="3.15"/>
			<polygon fill="#F5CF21" points="39.62,120.36 49.25,120.36 44.44,123.57 			"/>
			<polygon fill="#F5CF21" points="39.62,95.33 49.25,95.33 44.44,98.54 			"/>
			<path fill="#F5CF21" d="M44.44,94.21c-2.18,0-4.51-1.69-4.51-5.08c0,0,0.86,3.33,4.51,3.33c3.66,0,4.51-3.33,4.51-3.33
				C48.95,92.51,46.62,94.21,44.44,94.21z"/>
			<path fill="#F5CF21" d="M44.44,82.49c-1.07,0-1.94-0.87-1.94-1.94c0-0.26,0.05-0.51,0.15-0.74c0,0,0.02-0.03,0.02-0.05
				c0.48-0.97,0.78-2.29,0.78-4.55c0,0,0.3,1.52,0.55,1.52s0.44-1.69,0.44-1.69s0.19,1.69,0.44,1.69c0.25,0,0.55-1.52,0.55-1.52
				c0,2.26,0.3,3.58,0.78,4.55c0.01,0.01,0.02,0.05,0.02,0.05c0.09,0.23,0.15,0.48,0.15,0.74C46.38,81.62,45.51,82.49,44.44,82.49z"
				/>
			<path fill="#C8152A" d="M42.72,107.93c0,0.33-0.27,0.6-0.61,0.6c-0.33,0-0.61-0.27-0.61-0.6c0-0.33,0.27-0.6,0.61-0.6
				C42.45,107.33,42.72,107.6,42.72,107.93z"/>
			<path fill="#F5CF21" d="M43.36,111.14c0-0.68,0.21-1.28,0.6-1.78l0,0c0.31-0.39,0.49-0.89,0.49-1.43c0-1.29-1.04-2.33-2.33-2.33
				c-0.74,0-1.39,0.34-1.82,0.88c0,0-0.02,0.02-0.05,0.07c-0.04,0.06-0.09,0.12-0.12,0.19c-0.49,0.77-1.74,3.2,0.11,5.59
				c2.25,2.9,5.49,1.69,5.49,1.69C44.38,113.75,43.36,112.57,43.36,111.14z"/>
			<path fill="#C8152A" d="M42.72,107.93c0,0.33-0.27,0.6-0.61,0.6c-0.33,0-0.61-0.27-0.61-0.6c0-0.33,0.27-0.6,0.61-0.6
				C42.45,107.33,42.72,107.6,42.72,107.93z"/>
			<path fill="#C8152A" d="M45.45,111.23c0-0.33,0.27-0.6,0.61-0.6s0.61,0.27,0.61,0.6c0,0.33-0.27,0.6-0.61,0.6
				S45.45,111.56,45.45,111.23z"/>
			<path fill="#F5CF21" d="M44.82,108.02c0,0.68-0.21,1.28-0.6,1.78l0,0c-0.31,0.39-0.49,0.89-0.49,1.43c0,1.29,1.04,2.33,2.33,2.33
				c0.74,0,1.39-0.34,1.82-0.88c0,0,0.02-0.02,0.05-0.07c0.04-0.06,0.09-0.12,0.12-0.19c0.49-0.77,1.74-3.2-0.11-5.59
				c-2.25-2.9-5.49-1.69-5.49-1.69C43.8,105.41,44.82,106.6,44.82,108.02z"/>
			<path fill="#C8152A" d="M45.45,111.23c0-0.33,0.27-0.6,0.61-0.6s0.61,0.27,0.61,0.6c0,0.33-0.27,0.6-0.61,0.6
				S45.45,111.56,45.45,111.23z"/>
		</g>
	</g>
</g>
<g id="国名">
	<g>
		<path d="M64.05,148.02l-0.12,0.01c-0.89,0.05-1.39,0.07-1.49,0.07c-0.45,0-0.68-0.22-0.68-0.67c0-0.28,0.14-0.47,0.41-0.56
			c0.08-0.03,0.26-0.05,0.54-0.05c0.67-0.02,1.62-0.1,2.85-0.24c0.49-0.06,0.87-0.11,1.13-0.15c0.11-0.02,0.19-0.03,0.26-0.03
			c0.4,0,0.6,0.21,0.6,0.64c0,0.34-0.18,0.56-0.55,0.64c-0.44,0.1-1.15,0.19-2.15,0.27c0.17,0.07,0.29,0.17,0.35,0.3
			c0.04,0.07,0.05,0.24,0.05,0.5c0,0.19,0,0.48,0.01,0.87c2.34-0.17,3.66-0.25,3.97-0.25c0.24,0,0.42,0.09,0.54,0.27
			c0.08,0.11,0.12,0.24,0.12,0.4c0,0.33-0.15,0.54-0.44,0.62c-0.06,0.01-0.21,0.03-0.44,0.03c-0.81,0.02-2.06,0.09-3.75,0.22
			c0.01,0.49,0.01,0.99,0.01,1.49c0,0.24,0.03,0.4,0.07,0.5c0.08,0.17,0.3,0.26,0.64,0.26c0.73,0,1.4-0.05,2.01-0.14
			c0.08-0.01,0.15-0.02,0.19-0.02c0.27,0,0.47,0.12,0.59,0.37c0.05,0.11,0.08,0.23,0.08,0.37c0,0.3-0.14,0.5-0.42,0.61
			c-0.23,0.1-1.06,0.14-2.47,0.14c-1.06,0-1.72-0.32-1.98-0.95c-0.08-0.21-0.12-0.45-0.13-0.72c0-0.05,0-0.45-0.01-1.2
			c0-0.12,0-0.33,0-0.6l-0.2,0.02c-1.4,0.12-2.22,0.19-2.46,0.22c-0.07,0.01-0.12,0.01-0.16,0.01c-0.42,0-0.63-0.23-0.63-0.68
			c0-0.35,0.17-0.56,0.5-0.63c0.04-0.01,0.74-0.07,2.1-0.17l0.63-0.04l0.22-0.02v-0.1l-0.02-0.97c0-0.28,0.05-0.48,0.14-0.58
			C63.99,148.07,64.02,148.05,64.05,148.02z"/>
		<path d="M73.41,146.82c0.15,0,0.41,0.07,0.78,0.2c0.69,0.24,1.26,0.53,1.71,0.86c0.24,0.17,0.35,0.39,0.35,0.65
			c0,0.14-0.05,0.29-0.14,0.43c-0.14,0.21-0.33,0.32-0.56,0.32c-0.2,0-0.43-0.09-0.67-0.28c-0.62-0.49-1.18-0.88-1.68-1.16
			c-0.25-0.14-0.38-0.31-0.38-0.51C72.82,146.99,73.02,146.82,73.41,146.82z M80.53,148.59c0.12,0,0.25,0.04,0.36,0.13
			c0.15,0.11,0.23,0.26,0.23,0.45c0,0.15-0.06,0.32-0.18,0.5c-0.85,1.27-1.97,2.37-3.36,3.3c-1.16,0.77-2.35,1.32-3.59,1.66
			c-0.13,0.03-0.24,0.05-0.34,0.05c-0.31,0-0.54-0.14-0.67-0.43c-0.06-0.13-0.09-0.25-0.09-0.37c0-0.27,0.13-0.47,0.4-0.6
			c0.06-0.03,0.3-0.1,0.74-0.23c1.59-0.47,3.07-1.3,4.43-2.51c0.52-0.47,1.02-1,1.48-1.59C80.13,148.7,80.32,148.59,80.53,148.59z"
			/>
		<path d="M89.41,152.51c0.12-0.82,0.27-2,0.44-3.55c0.01-0.07,0.01-0.13,0.01-0.16c0-0.1-0.06-0.16-0.17-0.16
			c-0.05,0-0.17,0.01-0.37,0.03c-0.29,0.03-0.87,0.08-1.76,0.15c-0.93,0.07-1.79,0.14-2.59,0.22c-0.08,0.01-0.14,0.01-0.18,0.01
			c-0.21,0-0.37-0.06-0.49-0.19c-0.1-0.11-0.16-0.25-0.16-0.43c0-0.32,0.12-0.53,0.35-0.64c0.08-0.04,0.29-0.07,0.62-0.09
			c3.06-0.25,4.71-0.39,4.93-0.41c0.07-0.01,0.12-0.01,0.17-0.01c0.47,0,0.8,0.2,0.98,0.6c0.07,0.15,0.1,0.31,0.1,0.48
			c0,0.05-0.01,0.19-0.04,0.42c-0.21,1.71-0.36,2.96-0.47,3.75c0.24,0.1,0.37,0.3,0.37,0.6c0,0.29-0.13,0.49-0.39,0.6
			c-0.1,0.03-0.31,0.06-0.63,0.08c-1.03,0.04-2.79,0.16-5.26,0.35c-0.08,0.01-0.13,0.01-0.17,0.01c-0.43,0-0.64-0.22-0.64-0.66
			c0-0.4,0.2-0.62,0.6-0.67C85.11,152.77,86.68,152.67,89.41,152.51z M90.85,145.73c0.21,0,0.54,0.21,1,0.62
			c0.39,0.35,0.58,0.63,0.58,0.83c0,0.15-0.06,0.27-0.19,0.38c-0.1,0.08-0.21,0.12-0.33,0.12c-0.17,0-0.31-0.1-0.43-0.29
			c-0.22-0.37-0.49-0.7-0.79-1.01c-0.1-0.11-0.16-0.22-0.16-0.33C90.53,145.83,90.64,145.73,90.85,145.73z M91.95,144.95
			c0.22,0,0.54,0.18,0.95,0.53c0.39,0.33,0.58,0.6,0.58,0.83c0,0.16-0.06,0.28-0.18,0.38c-0.09,0.07-0.19,0.1-0.3,0.1
			c-0.16,0-0.3-0.09-0.42-0.28c-0.2-0.3-0.46-0.61-0.79-0.92c-0.12-0.11-0.18-0.23-0.18-0.33c0-0.08,0.03-0.15,0.09-0.2
			C91.76,144.98,91.85,144.95,91.95,144.95z"/>
		<path d="M97.01,147.24c0.47,0,0.7,0.27,0.7,0.8c0,1.92-0.36,3.46-1.07,4.63c-0.3,0.5-0.66,0.91-1.08,1.24
			c-0.15,0.12-0.31,0.18-0.49,0.18c-0.12,0-0.22-0.04-0.32-0.12c-0.11-0.1-0.16-0.21-0.16-0.35c0-0.16,0.07-0.32,0.22-0.49
			c0.6-0.69,1-1.51,1.22-2.46c0.17-0.74,0.26-1.64,0.26-2.7c0-0.22,0.05-0.38,0.15-0.49C96.58,147.32,96.77,147.24,97.01,147.24z
			 M100.2,146.83v5.65c0,0.14,0.03,0.22,0.1,0.22c0.14,0,0.49-0.2,1.07-0.6c0.82-0.56,1.5-1.13,2.03-1.72
			c0.18-0.21,0.36-0.31,0.52-0.31c0.13,0,0.26,0.05,0.39,0.16c0.13,0.1,0.19,0.24,0.19,0.42c0,0.15-0.06,0.31-0.18,0.48
			c-0.43,0.59-1.08,1.23-1.94,1.92c-0.68,0.54-1.33,0.95-1.94,1.26c-0.23,0.11-0.44,0.17-0.61,0.17c-0.2,0-0.39-0.07-0.59-0.21
			c-0.28-0.2-0.42-0.5-0.42-0.92v-6.51c0-0.24,0.11-0.42,0.32-0.54c0.11-0.06,0.23-0.09,0.37-0.09c0.2,0,0.37,0.06,0.51,0.17
			C100.13,146.49,100.2,146.64,100.2,146.83z"/>
	</g>
</g>
<g id="ガイド" display="none">
</g>
</svg>
