<?xml version="1.0" encoding="utf-8"?>
<!-- Generator: Adobe Illustrator 25.4.1, SVG Export Plug-In . SVG Version: 6.00 Build 0)  -->
<svg version="1.1" xmlns="http://www.w3.org/2000/svg" xmlns:xlink="http://www.w3.org/1999/xlink" x="0px" y="0px"
	 viewBox="0 0 164.41 252.28" enable-background="new 0 0 164.41 252.28" xml:space="preserve">
<g id="地">
	<rect fill="#DCDDDD" width="164.41" height="252.28"/>
</g>
<g id="枠">
</g>
<g id="国旗">
	<g>
		<g>
			<rect x="25.51" y="60.44" fill="#044F7F" width="113.39" height="75.59"/>
			<polygon fill="#FFFFFF" points="82.2,60.44 75.27,60.44 58.3,71.75 58.3,60.44 49.41,60.44 49.41,71.45 32.89,60.44 25.51,60.44 
				25.51,65.37 39.79,74.89 25.51,74.89 25.51,83.78 40.25,83.78 25.51,93.61 25.51,98.23 33.33,98.23 49.41,87.51 49.41,98.23 
				58.3,98.23 58.3,87.23 74.81,98.23 82.2,98.23 82.2,93.31 67.9,83.78 82.2,83.78 82.2,74.89 68.35,74.89 82.2,65.65 			"/>
			<polygon fill="#C8152A" points="82.2,76.82 56.37,76.82 56.37,60.44 51.35,60.44 51.35,76.82 25.51,76.82 25.51,81.85 
				51.35,81.85 51.35,98.23 56.37,98.23 56.37,81.85 82.2,81.85 			"/>
			<polygon fill="#C8152A" points="25.51,60.44 25.51,63.53 42.47,74.83 47.1,74.83 			"/>
			<polygon fill="#C8152A" points="82.2,95.14 65.24,83.84 60.61,83.84 82.2,98.23 			"/>
			<polygon fill="#C8152A" points="58.3,74.83 58.3,73.29 77.57,60.44 82.2,60.44 60.61,74.83 			"/>
			<polygon fill="#C8152A" points="47.1,83.84 25.51,98.23 30.14,98.23 49.41,85.39 49.41,83.84 			"/>
			<polygon fill="#FFFFFF" points="100.7,83.97 101.93,87.75 105.91,87.75 102.69,90.09 103.92,93.88 100.7,91.54 97.48,93.88 
				98.71,90.09 95.49,87.75 99.47,87.75 			"/>
			<polygon fill="#C8152A" points="102.82,92.36 101.04,91.07 100.7,90.82 100.36,91.07 98.59,92.36 99.27,90.27 99.4,89.87 
				99.05,89.62 97.28,88.34 99.47,88.34 99.9,88.34 100.03,87.93 100.7,85.85 101.38,87.93 101.51,88.34 101.93,88.34 104.13,88.34 
				102.35,89.62 102.01,89.87 102.14,90.27 			"/>
			<polygon fill="#FFFFFF" points="110.87,70.63 112.1,74.41 116.08,74.41 112.86,76.75 114.09,80.54 110.87,78.2 107.65,80.54 
				108.88,76.75 105.66,74.41 109.64,74.41 			"/>
			<polygon fill="#C8152A" points="112.99,79.02 111.21,77.73 110.87,77.48 110.53,77.73 108.75,79.02 109.43,76.93 109.56,76.53 
				109.22,76.28 107.44,74.99 109.64,74.99 110.06,74.99 110.19,74.59 110.87,72.51 111.55,74.59 111.68,74.99 112.1,74.99 
				114.29,74.99 112.52,76.28 112.18,76.53 112.31,76.93 			"/>
			<polygon fill="#FFFFFF" points="110.87,115.87 112.1,119.66 116.08,119.66 112.86,122 114.09,125.78 110.87,123.44 
				107.65,125.78 108.88,122 105.66,119.66 109.64,119.66 			"/>
			<polygon fill="#C8152A" points="112.99,124.27 111.21,122.97 110.87,122.73 110.53,122.97 108.75,124.27 109.43,122.18 
				109.56,121.78 109.22,121.53 107.44,120.24 109.64,120.24 110.06,120.24 110.19,119.84 110.87,117.75 111.55,119.84 
				111.68,120.24 112.1,120.24 114.29,120.24 112.52,121.53 112.18,121.78 112.31,122.18 			"/>
			<polygon fill="#FFFFFF" points="123.84,81.89 124.92,85.2 128.4,85.2 125.58,87.24 126.66,90.55 123.84,88.5 121.03,90.55 
				122.11,87.24 119.29,85.2 122.77,85.2 			"/>
			<polygon fill="#C8152A" points="122.13,89.03 122.66,87.42 122.79,87.02 122.45,86.77 121.08,85.78 122.77,85.78 123.19,85.78 
				123.32,85.38 123.84,83.77 124.37,85.38 124.5,85.78 124.92,85.78 126.61,85.78 125.24,86.77 124.9,87.02 125.03,87.42 
				125.55,89.03 124.18,88.04 123.84,87.79 123.5,88.04 			"/>
		</g>
	</g>
</g>
<g id="国名">
	<g>
		<path d="M46.58,151.45c0.21,0,0.38,0.05,0.5,0.14c0.17,0.13,0.25,0.31,0.25,0.54c0,0.31-0.13,0.52-0.38,0.63
			c-0.08,0.03-0.33,0.06-0.75,0.08c-2.44,0.12-5.03,0.3-7.77,0.54c-0.08,0.01-0.15,0.01-0.19,0.01c-0.44,0-0.65-0.23-0.65-0.7
			c0-0.33,0.16-0.54,0.47-0.64c0.07-0.02,0.33-0.04,0.79-0.08C43.52,151.62,46.1,151.45,46.58,151.45z M44.29,147.44
			c0.18,0,0.34,0.06,0.47,0.18c0.13,0.12,0.2,0.29,0.2,0.5c0,0.39-0.24,0.62-0.71,0.69c-0.56,0.08-1.31,0.17-2.23,0.24
			c-0.86,0.07-1.42,0.11-1.69,0.11c-0.23,0-0.4-0.07-0.53-0.2c-0.11-0.12-0.16-0.27-0.16-0.46c0-0.31,0.12-0.52,0.36-0.62
			c0.08-0.04,0.28-0.06,0.57-0.07c1.14-0.03,2.26-0.14,3.35-0.33C44.11,147.46,44.23,147.44,44.29,147.44z"/>
		<path d="M54.2,152.74c0.21-1.23,0.31-1.97,0.31-2.21c0-0.11-0.05-0.16-0.14-0.16c-0.04,0-0.1,0-0.18,0.01
			c-0.25,0.03-0.69,0.06-1.32,0.11c-0.38,0.03-0.67,0.05-0.88,0.08c-0.06,0.01-0.11,0.01-0.15,0.01c-0.19,0-0.34-0.07-0.45-0.22
			c-0.07-0.1-0.11-0.23-0.11-0.38c0-0.29,0.13-0.48,0.39-0.56c0.06-0.02,0.19-0.03,0.39-0.04l1.28-0.1c0.96-0.07,1.47-0.1,1.54-0.1
			c0.38,0,0.66,0.15,0.82,0.44c0.07,0.14,0.11,0.29,0.11,0.46c0,0.07-0.01,0.17-0.03,0.32c-0.02,0.13-0.05,0.34-0.09,0.63
			c-0.07,0.47-0.14,0.95-0.21,1.44l-0.03,0.21l0.12-0.01c0.86-0.05,1.34-0.08,1.44-0.09c0.04,0,0.07-0.01,0.08-0.01
			c0.13,0,0.25,0.04,0.34,0.12c0.14,0.11,0.21,0.27,0.21,0.48c0,0.32-0.14,0.51-0.42,0.57c-0.04,0.01-1.3,0.09-3.77,0.24
			c-2.03,0.12-3.07,0.18-3.1,0.18c-0.23,0-0.39-0.09-0.49-0.28c-0.04-0.09-0.07-0.19-0.07-0.31c0-0.21,0.07-0.37,0.22-0.48
			c0.11-0.08,0.31-0.13,0.6-0.13c0.06,0,1.15-0.07,3.28-0.19L54.2,152.74z"/>
		<path d="M68.63,149.33c0.23,0,0.42,0.07,0.55,0.22c0.11,0.12,0.17,0.28,0.17,0.48c0,0.37-0.18,0.59-0.53,0.66
			c-0.09,0.02-1.34,0.08-3.74,0.19c-1.1,0.05-2.27,0.11-3.5,0.17c-0.04,0-0.09,0-0.13,0c-0.21,0-0.38-0.06-0.52-0.18
			c-0.14-0.13-0.22-0.3-0.22-0.51c0-0.3,0.13-0.51,0.4-0.63c0.11-0.04,0.37-0.07,0.79-0.09c0.37-0.01,1.29-0.05,2.77-0.13
			c0.63-0.03,1.5-0.07,2.59-0.12c0.37-0.01,0.66-0.03,0.87-0.04C68.42,149.33,68.58,149.33,68.63,149.33z"/>
		<path d="M72.58,148.77c0.23,0,0.56,0.08,1.01,0.24c0.52,0.19,0.95,0.41,1.3,0.66c0.24,0.18,0.36,0.39,0.36,0.65
			c0,0.16-0.06,0.31-0.17,0.45c-0.14,0.19-0.33,0.29-0.56,0.29c-0.17,0-0.35-0.08-0.56-0.25c-0.42-0.34-0.95-0.7-1.61-1.07
			c-0.22-0.13-0.33-0.28-0.33-0.48c0-0.09,0.02-0.17,0.07-0.26C72.18,148.85,72.35,148.77,72.58,148.77z M80.45,148.4
			c0.11,0,0.21,0.03,0.32,0.09c0.18,0.11,0.28,0.27,0.28,0.48c0,0.21-0.17,0.6-0.52,1.18c-0.57,0.96-1.35,1.83-2.34,2.63
			c-1.18,0.95-2.48,1.67-3.92,2.16c-0.16,0.06-0.3,0.08-0.41,0.08c-0.29,0-0.51-0.13-0.64-0.4c-0.07-0.13-0.1-0.26-0.1-0.38
			c0-0.28,0.13-0.48,0.38-0.62c0.04-0.02,0.28-0.11,0.72-0.26c1.2-0.42,2.31-1.04,3.35-1.87c1-0.79,1.77-1.68,2.31-2.67
			C80.03,148.54,80.22,148.4,80.45,148.4z M73.92,146.26c0.34,0,0.9,0.24,1.68,0.72c0.24,0.14,0.41,0.26,0.52,0.35
			c0.21,0.17,0.32,0.38,0.32,0.61c0,0.16-0.06,0.3-0.17,0.44c-0.17,0.2-0.36,0.3-0.58,0.3c-0.19,0-0.38-0.1-0.58-0.3
			c-0.33-0.34-0.81-0.73-1.45-1.2c-0.2-0.14-0.29-0.3-0.29-0.46c0-0.09,0.03-0.18,0.08-0.26C73.55,146.33,73.71,146.26,73.92,146.26
			z M79.06,145.94c0.21,0,0.54,0.21,0.99,0.62c0.39,0.35,0.58,0.63,0.58,0.84c0,0.14-0.06,0.27-0.19,0.37
			c-0.1,0.08-0.21,0.12-0.34,0.12c-0.17,0-0.31-0.1-0.43-0.29c-0.21-0.35-0.48-0.69-0.79-1.01c-0.1-0.11-0.16-0.22-0.16-0.33
			C78.74,146.05,78.85,145.94,79.06,145.94z M80.21,145.11c0.22,0,0.54,0.18,0.96,0.53c0.39,0.32,0.58,0.6,0.58,0.82
			c0,0.17-0.06,0.29-0.18,0.38c-0.09,0.07-0.19,0.1-0.3,0.1c-0.16,0-0.3-0.09-0.42-0.28c-0.2-0.3-0.47-0.61-0.79-0.92
			c-0.12-0.11-0.18-0.22-0.18-0.33c0-0.07,0.03-0.14,0.09-0.21C80.03,145.14,80.11,145.11,80.21,145.11z"/>
		<path d="M91.31,149.33c0.23,0,0.42,0.07,0.55,0.22c0.11,0.12,0.17,0.28,0.17,0.48c0,0.37-0.18,0.59-0.53,0.66
			c-0.09,0.02-1.34,0.08-3.74,0.19c-1.1,0.05-2.27,0.11-3.5,0.17c-0.04,0-0.09,0-0.13,0c-0.21,0-0.38-0.06-0.52-0.18
			c-0.14-0.13-0.22-0.3-0.22-0.51c0-0.3,0.13-0.51,0.4-0.63c0.11-0.04,0.37-0.07,0.79-0.09c0.37-0.01,1.29-0.05,2.77-0.13
			c0.63-0.03,1.5-0.07,2.59-0.12c0.37-0.01,0.66-0.03,0.87-0.04C91.09,149.33,91.25,149.33,91.31,149.33z"/>
		<path d="M102.05,148.71c0.42,0,0.72,0.15,0.91,0.44c0.1,0.17,0.15,0.37,0.15,0.6c0,0.33-0.11,0.76-0.34,1.29
			c-0.49,1.17-1.32,2.17-2.47,3.02c-0.61,0.45-1.25,0.79-1.92,1.04c-0.17,0.06-0.31,0.09-0.43,0.09c-0.16,0-0.29-0.07-0.38-0.2
			c-0.07-0.11-0.11-0.22-0.11-0.34c0-0.17,0.08-0.31,0.23-0.42c0.03-0.02,0.2-0.11,0.49-0.26c0.73-0.38,1.42-0.91,2.06-1.6
			c0.54-0.58,0.94-1.17,1.2-1.77c0.09-0.2,0.13-0.34,0.13-0.43c0-0.09-0.07-0.13-0.2-0.13c-0.06,0-0.72,0.04-1.99,0.12l-2.37,0.17
			c-0.9,0.07-1.37,0.1-1.4,0.1c-0.23,0-0.4-0.08-0.52-0.25c-0.07-0.11-0.11-0.24-0.11-0.39c0-0.39,0.19-0.62,0.56-0.67
			c0.24-0.03,2.02-0.15,5.37-0.34c0.27-0.01,0.47-0.03,0.61-0.04C101.82,148.72,101.99,148.71,102.05,148.71z M101.17,146.17
			c0.19,0,0.34,0.08,0.45,0.23c0.08,0.12,0.13,0.26,0.13,0.42c0,0.37-0.18,0.59-0.53,0.64c-0.28,0.04-0.68,0.08-1.22,0.13
			c-0.14,0.01-0.75,0.05-1.81,0.11c-0.65,0.04-1.08,0.05-1.31,0.05c-0.46,0-0.7-0.22-0.7-0.65c0-0.33,0.14-0.53,0.41-0.61
			c0.07-0.02,0.23-0.03,0.48-0.03c1.02-0.01,2.21-0.09,3.58-0.23c0.05-0.01,0.17-0.02,0.35-0.04
			C101.08,146.17,101.13,146.17,101.17,146.17z"/>
		<path d="M107.43,146.82c0.15,0,0.41,0.07,0.78,0.2c0.69,0.24,1.26,0.53,1.71,0.86c0.24,0.17,0.35,0.39,0.35,0.65
			c0,0.14-0.05,0.29-0.14,0.43c-0.14,0.21-0.33,0.32-0.56,0.32c-0.2,0-0.43-0.09-0.67-0.28c-0.62-0.49-1.18-0.88-1.68-1.16
			c-0.25-0.14-0.38-0.31-0.38-0.51C106.83,146.99,107.03,146.82,107.43,146.82z M114.55,148.59c0.12,0,0.25,0.04,0.36,0.13
			c0.15,0.11,0.23,0.26,0.23,0.45c0,0.15-0.06,0.32-0.18,0.5c-0.85,1.27-1.97,2.37-3.36,3.3c-1.16,0.77-2.35,1.32-3.59,1.66
			c-0.13,0.03-0.24,0.05-0.34,0.05c-0.31,0-0.54-0.14-0.67-0.43c-0.06-0.13-0.09-0.25-0.09-0.37c0-0.27,0.13-0.47,0.4-0.6
			c0.06-0.03,0.3-0.1,0.74-0.23c1.59-0.47,3.07-1.3,4.43-2.51c0.52-0.47,1.02-1,1.48-1.59C114.14,148.7,114.34,148.59,114.55,148.59
			z"/>
		<path d="M121.62,150.28v4.34c0,0.21-0.07,0.37-0.2,0.48c-0.12,0.11-0.29,0.16-0.5,0.16c-0.47,0-0.71-0.21-0.71-0.64v-8.28
			c0-0.42,0.24-0.63,0.71-0.63c0.31,0,0.51,0.11,0.63,0.32c0.05,0.09,0.07,0.2,0.07,0.32v2.72c1.32,0.34,2.34,0.76,3.07,1.24
			c0.32,0.21,0.48,0.46,0.48,0.76c0,0.2-0.07,0.36-0.2,0.5c-0.14,0.15-0.31,0.23-0.52,0.23c-0.18,0-0.4-0.09-0.66-0.27
			C123.18,151.1,122.45,150.69,121.62,150.28z M124.03,146.86c0.21,0,0.54,0.21,1,0.62c0.39,0.35,0.58,0.63,0.58,0.83
			c0,0.15-0.06,0.27-0.19,0.37c-0.1,0.08-0.22,0.12-0.34,0.12c-0.17,0-0.31-0.1-0.43-0.29c-0.21-0.35-0.48-0.69-0.79-1.01
			c-0.1-0.11-0.16-0.22-0.16-0.33C123.7,146.97,123.81,146.86,124.03,146.86z M125.18,145.99c0.22,0,0.54,0.18,0.96,0.53
			c0.39,0.32,0.58,0.6,0.58,0.83c0,0.16-0.06,0.28-0.18,0.38c-0.09,0.07-0.19,0.1-0.3,0.1c-0.16,0-0.3-0.09-0.42-0.28
			c-0.2-0.31-0.47-0.61-0.79-0.92c-0.12-0.11-0.18-0.22-0.18-0.33c0-0.07,0.03-0.14,0.09-0.2
			C124.99,146.02,125.07,145.99,125.18,145.99z"/>
	</g>
</g>
<g id="ガイド" display="none">
</g>
</svg>
