<?xml version="1.0" encoding="utf-8"?>
<!-- Generator: Adobe Illustrator 25.4.1, SVG Export Plug-In . SVG Version: 6.00 Build 0)  -->
<svg version="1.1" xmlns="http://www.w3.org/2000/svg" xmlns:xlink="http://www.w3.org/1999/xlink" x="0px" y="0px"
	 viewBox="0 0 164.41 252.28" enable-background="new 0 0 164.41 252.28" xml:space="preserve">
<g id="地">
	<rect fill="#DCDDDD" width="164.41" height="252.28"/>
</g>
<g id="枠">
</g>
<g id="国旗">
	<g>
		<g>
			<rect x="25.51" y="60" fill="#FFFFFF" width="113.39" height="75.59"/>
			<rect x="25.51" y="60" fill="#040000" width="113.39" height="24.78"/>
			<rect x="25.51" y="110.81" fill="#147F49" width="113.39" height="24.78"/>
			<polygon fill="#C8152A" points="25.51,60 82.2,97.8 25.51,135.59 			"/>
			<polygon fill="#FFFFFF" points="44.36,99.74 42.15,101.79 42.37,98.79 39.39,98.33 41.88,96.63 40.38,94.02 43.25,94.91 
				44.36,92.11 45.46,94.91 48.34,94.02 46.84,96.63 49.32,98.33 46.35,98.79 46.57,101.79 			"/>
		</g>
	</g>
</g>
<g id="国名">
	<g>
		<path d="M67.03,149.62l0.01-0.09c0.04-0.61,0.07-0.95,0.08-1.03c0.01-0.07,0.01-0.12,0.01-0.16c0-0.14-0.07-0.21-0.21-0.21
			c-0.41,0-1.43,0.08-3.07,0.23c-0.86,0.08-1.33,0.12-1.43,0.12c-0.41,0-0.62-0.23-0.62-0.69c0-0.3,0.14-0.49,0.42-0.58
			c0.06-0.01,0.68-0.07,1.87-0.15c2.01-0.15,3.11-0.23,3.3-0.24c0.07-0.01,0.13-0.01,0.17-0.01c0.47,0,0.79,0.2,0.97,0.61
			c0.07,0.15,0.1,0.31,0.1,0.49c0,0.07-0.04,0.58-0.13,1.53c-0.07,0.76-0.18,1.77-0.34,3.05c0.26,0.09,0.39,0.3,0.39,0.63
			c0,0.31-0.13,0.51-0.4,0.59c-0.08,0.03-0.26,0.05-0.55,0.06c-3.2,0.18-4.94,0.28-5.21,0.3c-0.06,0-0.1,0.01-0.13,0.01
			c-0.42,0-0.63-0.23-0.63-0.69c0-0.3,0.13-0.48,0.39-0.57c0.07-0.02,0.23-0.03,0.48-0.04c0.54-0.03,1.86-0.11,3.95-0.24l0.31-0.02
			c0.07-0.61,0.12-1.16,0.16-1.67c-0.8,0.04-2.19,0.14-4.19,0.28c-0.07,0-0.12,0.01-0.16,0.01c-0.41,0-0.61-0.21-0.61-0.61
			c0-0.37,0.19-0.58,0.56-0.62c0.29-0.03,1.7-0.13,4.21-0.28L67.03,149.62z"/>
		<path d="M74.34,147.24c0.47,0,0.7,0.27,0.7,0.8c0,1.92-0.36,3.46-1.07,4.63c-0.3,0.5-0.66,0.91-1.09,1.24
			c-0.15,0.12-0.31,0.18-0.49,0.18c-0.12,0-0.22-0.04-0.32-0.12c-0.11-0.1-0.16-0.21-0.16-0.35c0-0.16,0.07-0.32,0.22-0.49
			c0.6-0.69,1.01-1.51,1.22-2.46c0.17-0.74,0.26-1.64,0.26-2.7c0-0.22,0.05-0.38,0.15-0.49C73.91,147.32,74.1,147.24,74.34,147.24z
			 M77.52,146.83v5.65c0,0.14,0.03,0.22,0.1,0.22c0.14,0,0.49-0.2,1.07-0.6c0.82-0.56,1.5-1.13,2.03-1.72
			c0.18-0.21,0.36-0.31,0.52-0.31c0.13,0,0.26,0.05,0.39,0.16c0.13,0.1,0.19,0.24,0.19,0.42c0,0.15-0.06,0.31-0.18,0.48
			c-0.43,0.59-1.08,1.23-1.94,1.92c-0.68,0.54-1.33,0.95-1.94,1.26c-0.23,0.11-0.44,0.17-0.61,0.17c-0.2,0-0.39-0.07-0.59-0.21
			c-0.28-0.2-0.42-0.5-0.42-0.92v-6.51c0-0.24,0.1-0.42,0.32-0.54c0.11-0.06,0.23-0.09,0.37-0.09c0.2,0,0.37,0.06,0.51,0.17
			C77.45,146.49,77.52,146.64,77.52,146.83z"/>
		<path d="M87.77,146.7l2.1-0.08c0.05,0,0.08,0,0.09,0c0.68,0,1.02,0.29,1.02,0.88c0,0.18-0.04,0.42-0.13,0.74
			c-0.72,2.52-2.21,4.55-4.48,6.07c-0.89,0.59-1.49,0.89-1.82,0.89c-0.17,0-0.3-0.08-0.4-0.23c-0.07-0.1-0.1-0.2-0.1-0.29
			c0-0.13,0.06-0.26,0.18-0.38c0.05-0.04,0.19-0.14,0.42-0.28c1.04-0.64,1.97-1.41,2.8-2.32c-0.48-0.51-0.96-0.94-1.42-1.31
			c-0.2-0.15-0.3-0.31-0.3-0.47c0-0.09,0.03-0.18,0.09-0.27c0.1-0.14,0.24-0.21,0.41-0.21c0.14,0,0.31,0.05,0.51,0.14
			c0.6,0.28,1.13,0.6,1.58,0.98c0.48-0.76,0.83-1.5,1.04-2.23c0.05-0.17,0.07-0.27,0.07-0.32c0-0.09-0.07-0.13-0.21-0.12l-2.05,0.1
			c-0.76,1.02-1.55,1.8-2.36,2.35c-0.26,0.17-0.47,0.26-0.64,0.26c-0.15,0-0.27-0.06-0.35-0.18c-0.06-0.08-0.08-0.17-0.08-0.27
			c0-0.13,0.05-0.26,0.16-0.39c0.04-0.04,0.15-0.15,0.34-0.33c0.64-0.58,1.22-1.29,1.74-2.13c0.14-0.23,0.26-0.45,0.37-0.66
			c0.16-0.31,0.39-0.47,0.7-0.47c0.22,0,0.41,0.08,0.55,0.23C87.68,146.46,87.74,146.57,87.77,146.7z M90.94,145.74
			c0.21,0,0.54,0.21,1,0.62c0.39,0.35,0.58,0.63,0.58,0.84c0,0.14-0.06,0.27-0.19,0.37c-0.1,0.08-0.21,0.12-0.34,0.12
			c-0.17,0-0.31-0.1-0.43-0.29c-0.22-0.36-0.48-0.7-0.79-1.01c-0.1-0.11-0.15-0.22-0.15-0.33
			C90.62,145.84,90.73,145.74,90.94,145.74z M91.93,144.85c0.22,0,0.53,0.17,0.95,0.53c0.39,0.33,0.58,0.6,0.58,0.83
			c0,0.16-0.06,0.28-0.18,0.38c-0.09,0.07-0.19,0.1-0.3,0.1c-0.16,0-0.3-0.09-0.42-0.28c-0.2-0.31-0.46-0.62-0.79-0.92
			c-0.12-0.11-0.18-0.23-0.18-0.33c0-0.07,0.03-0.14,0.09-0.21C91.74,144.88,91.82,144.85,91.93,144.85z"/>
		<path d="M96.09,146.82c0.15,0,0.41,0.07,0.78,0.2c0.69,0.24,1.26,0.53,1.71,0.86c0.24,0.17,0.35,0.39,0.35,0.65
			c0,0.14-0.05,0.29-0.14,0.43c-0.14,0.21-0.33,0.32-0.56,0.32c-0.2,0-0.43-0.09-0.67-0.28c-0.62-0.49-1.18-0.88-1.68-1.16
			c-0.25-0.14-0.38-0.31-0.38-0.51C95.5,146.99,95.69,146.82,96.09,146.82z M103.21,148.59c0.13,0,0.25,0.04,0.36,0.13
			c0.15,0.11,0.23,0.26,0.23,0.45c0,0.15-0.06,0.32-0.18,0.5c-0.85,1.27-1.97,2.37-3.36,3.3c-1.16,0.77-2.35,1.32-3.59,1.66
			c-0.13,0.03-0.24,0.05-0.34,0.05c-0.31,0-0.54-0.14-0.67-0.43c-0.06-0.13-0.09-0.25-0.09-0.37c0-0.27,0.13-0.47,0.4-0.6
			c0.06-0.03,0.3-0.1,0.74-0.23c1.59-0.47,3.06-1.3,4.43-2.51c0.52-0.47,1.02-1,1.48-1.59C102.8,148.7,103,148.59,103.21,148.59z"/>
	</g>
</g>
<g id="ガイド" display="none">
</g>
</svg>
