<?xml version="1.0" encoding="utf-8"?>
<!-- Generator: Adobe Illustrator 25.4.1, SVG Export Plug-In . SVG Version: 6.00 Build 0)  -->
<svg version="1.1" xmlns="http://www.w3.org/2000/svg" xmlns:xlink="http://www.w3.org/1999/xlink" x="0px" y="0px"
	 viewBox="0 0 164.41 252.28" enable-background="new 0 0 164.41 252.28" xml:space="preserve">
<g id="地">
	<rect fill="#DCDDDD" width="164.41" height="252.28"/>
</g>
<g id="枠">
</g>
<g id="国旗">
	<g>
		<g>
			<rect x="25.51" y="60" fill="#C8152A" width="113.39" height="75.59"/>
			<rect x="25.51" y="78.46" fill="#003D8E" width="113.39" height="38.66"/>
			<path fill="#FFFFFF" d="M98.74,97.8c0,9.13-7.4,16.53-16.53,16.53c-9.13,0-16.53-7.4-16.53-16.53s7.4-16.53,16.53-16.53
				C91.34,81.26,98.74,88.66,98.74,97.8z"/>
		</g>
	</g>
</g>
<g id="国名">
	<g>
		<path d="M73.7,148.71c0.42,0,0.72,0.15,0.91,0.44c0.1,0.17,0.15,0.37,0.15,0.6c0,0.33-0.11,0.76-0.34,1.29
			c-0.49,1.17-1.32,2.17-2.47,3.02c-0.61,0.45-1.25,0.79-1.92,1.04c-0.17,0.06-0.31,0.09-0.43,0.09c-0.16,0-0.29-0.07-0.38-0.2
			c-0.07-0.11-0.11-0.22-0.11-0.34c0-0.17,0.08-0.31,0.23-0.42c0.03-0.02,0.2-0.11,0.49-0.26c0.73-0.38,1.42-0.91,2.06-1.6
			c0.54-0.58,0.94-1.17,1.2-1.77c0.09-0.2,0.13-0.34,0.13-0.43c0-0.09-0.07-0.13-0.2-0.13c-0.06,0-0.72,0.04-1.99,0.12l-2.37,0.17
			c-0.9,0.07-1.37,0.1-1.4,0.1c-0.23,0-0.4-0.08-0.52-0.25c-0.07-0.11-0.11-0.24-0.11-0.39c0-0.39,0.19-0.62,0.56-0.67
			c0.24-0.03,2.02-0.15,5.36-0.34c0.27-0.01,0.47-0.03,0.61-0.04C73.47,148.72,73.65,148.71,73.7,148.71z M72.82,146.17
			c0.19,0,0.34,0.08,0.45,0.23c0.08,0.12,0.13,0.26,0.13,0.42c0,0.37-0.18,0.59-0.53,0.64c-0.28,0.04-0.69,0.08-1.22,0.13
			c-0.14,0.01-0.75,0.05-1.81,0.11c-0.65,0.04-1.08,0.05-1.31,0.05c-0.46,0-0.7-0.22-0.7-0.65c0-0.33,0.14-0.53,0.41-0.61
			c0.07-0.02,0.23-0.03,0.48-0.03c1.02-0.01,2.21-0.09,3.58-0.23c0.05-0.01,0.17-0.02,0.35-0.04
			C72.73,146.17,72.78,146.17,72.82,146.17z"/>
		<path d="M82.59,148.02l-0.01-0.12c-0.02-0.76-0.03-1.22-0.04-1.39c0-0.06-0.01-0.1-0.01-0.13c0-0.44,0.22-0.66,0.67-0.66
			c0.49,0,0.73,0.24,0.73,0.71v1.49c0.25-0.02,0.74-0.06,1.46-0.12c0.27-0.02,0.44-0.03,0.52-0.03c0.44,0,0.65,0.23,0.65,0.7
			c0,0.4-0.27,0.61-0.8,0.64c-0.26,0.01-0.65,0.03-1.18,0.07c-0.22,0.01-0.43,0.03-0.64,0.04c0.01,1.35,0.02,2.18,0.02,2.49
			c0.02,1.08,0.03,1.85,0.03,2.32c0,0.3-0.07,0.56-0.2,0.76c-0.17,0.25-0.4,0.38-0.69,0.38c-0.14,0-0.31-0.05-0.51-0.15
			c-1-0.5-1.53-0.76-1.59-0.8c-0.21-0.12-0.31-0.27-0.31-0.46c0-0.07,0.02-0.14,0.05-0.2c0.08-0.16,0.21-0.23,0.4-0.23
			c0.12,0,0.51,0.1,1.16,0.29c0.08,0.03,0.15,0.04,0.19,0.04c0.08,0,0.12-0.07,0.12-0.21v-3.04c-1.14,1.24-2.4,2.26-3.78,3.06
			c-0.29,0.17-0.51,0.25-0.65,0.25c-0.15,0-0.27-0.07-0.36-0.21c-0.07-0.11-0.11-0.21-0.11-0.31c0-0.15,0.07-0.28,0.2-0.39
			c0.04-0.04,0.19-0.14,0.43-0.3c0.9-0.59,1.78-1.35,2.65-2.28c0.25-0.27,0.51-0.56,0.75-0.88l-0.22,0.02l-1.84,0.13
			c-0.72,0.05-1.11,0.08-1.15,0.08c-0.44,0-0.66-0.21-0.66-0.64c0-0.35,0.16-0.57,0.48-0.65c0.07-0.02,0.23-0.03,0.48-0.04
			C79.94,148.2,81.19,148.12,82.59,148.02z"/>
		<path d="M93.7,151.75c-1.04,1.06-2.12,1.91-3.23,2.56c-0.46,0.27-0.78,0.4-0.94,0.4c-0.2,0-0.35-0.09-0.45-0.27
			c-0.06-0.1-0.09-0.19-0.09-0.27c0-0.16,0.08-0.31,0.23-0.44c0.04-0.03,0.17-0.12,0.39-0.27c0.89-0.57,1.83-1.33,2.8-2.28
			c0.98-0.97,1.7-1.92,2.16-2.86c0.08-0.16,0.12-0.27,0.12-0.32c0-0.07-0.04-0.1-0.11-0.1c-0.05,0-0.13,0.01-0.25,0.03
			c-0.22,0.03-1.08,0.1-2.58,0.22c-0.26,0.02-0.48,0.04-0.67,0.05c-0.07,0.01-0.13,0.01-0.17,0.01c-0.3,0-0.5-0.11-0.61-0.33
			c-0.05-0.1-0.07-0.21-0.07-0.33c0-0.31,0.15-0.51,0.44-0.6c0.09-0.03,0.28-0.05,0.59-0.07c1.04-0.04,2.36-0.15,3.96-0.33
			c0.07-0.01,0.13-0.01,0.18-0.01c0.32,0,0.58,0.09,0.77,0.28c0.18,0.17,0.27,0.38,0.27,0.64c0,0.2-0.1,0.49-0.29,0.9
			c-0.38,0.79-0.94,1.64-1.68,2.55c1.22,0.76,2.17,1.47,2.85,2.14c0.31,0.3,0.46,0.58,0.46,0.83c0,0.19-0.07,0.36-0.22,0.51
			c-0.15,0.16-0.32,0.23-0.52,0.23c-0.2,0-0.37-0.07-0.52-0.22c-0.02-0.02-0.08-0.09-0.19-0.21
			C95.56,153.39,94.69,152.57,93.7,151.75z"/>
	</g>
</g>
<g id="ガイド" display="none">
</g>
</svg>
