<?xml version="1.0" encoding="utf-8"?>
<!-- Generator: Adobe Illustrator 25.4.1, SVG Export Plug-In . SVG Version: 6.00 Build 0)  -->
<svg version="1.1" xmlns="http://www.w3.org/2000/svg" xmlns:xlink="http://www.w3.org/1999/xlink" x="0px" y="0px"
	 viewBox="0 0 164.41 252.28" enable-background="new 0 0 164.41 252.28" xml:space="preserve">
<g id="地">
	<rect fill="#DCDDDD" width="164.41" height="252.28"/>
</g>
<g id="枠">
</g>
<g id="国旗">
	<g>
		<g>
			<rect x="25.51" y="60" fill="#004876" width="113.39" height="75.59"/>
			<path fill="#F5CF21" d="M55.9,82.65c1.28-1.28-3.76,0.09-4.53,0.47l-1.94-1.79c0-0.02-0.32-1.18-0.32-2.59l0,0
				c0-0.7,0.07-1.22,0.31-1.65l0,0c0.24-0.44,0.63-0.72,1.11-0.96l0,0c0.98-0.5,2.17-0.79,4.04-0.78l0,0c0.99,0,1.94,0.26,2.68,0.79
				l0,0c0.74,0.52,1.24,1.35,1.24,2.38l0,0c0,0.27,0,0.51,0,0.74l0,0c0.03,1.28-0.17,2.17-1.55,3.46l0,0l-0.54,0.33L55.9,82.65z"/>
			<rect x="25.51" y="97.8" fill="#B31D2A" width="113.39" height="37.8"/>
			<path fill="#F5CF21" d="M48.74,76.23c0,0.37-0.3,0.68-0.68,0.68c-0.37,0-0.68-0.3-0.68-0.68c0-0.37,0.3-0.68,0.68-0.68
				C48.43,75.55,48.74,75.85,48.74,76.23z"/>
			<path fill="#F5CF21" d="M48.74,78.06c0,0.37-0.3,0.68-0.68,0.68c-0.37,0-0.68-0.3-0.68-0.68c0-0.37,0.3-0.68,0.68-0.68
				C48.43,77.39,48.74,77.69,48.74,78.06z"/>
			<path fill="#F5CF21" d="M48.74,79.9c0,0.37-0.3,0.68-0.68,0.68c-0.37,0-0.68-0.3-0.68-0.68c0-0.37,0.3-0.68,0.68-0.68
				C48.43,79.22,48.74,79.53,48.74,79.9z"/>
			<path fill="#F5CF21" d="M50.36,75.6c0,0.37-0.3,0.68-0.68,0.68c-0.37,0-0.68-0.3-0.68-0.68c0-0.37,0.3-0.68,0.68-0.68
				C50.06,74.92,50.36,75.22,50.36,75.6z"/>
			<path fill="#F5CF21" d="M52.07,74.97c0,0.37-0.3,0.68-0.68,0.68c-0.37,0-0.68-0.3-0.68-0.68c0-0.37,0.3-0.68,0.68-0.68
				C51.77,74.29,52.07,74.6,52.07,74.97z"/>
			<path fill="#F5CF21" d="M53.89,74.63c0,0.37-0.3,0.68-0.68,0.68c-0.37,0-0.68-0.3-0.68-0.68c0-0.37,0.3-0.68,0.68-0.68
				C53.59,73.96,53.89,74.26,53.89,74.63z"/>
			<path fill="#F5CF21" d="M55.63,74.49c0,0.37-0.3,0.68-0.68,0.68c-0.37,0-0.68-0.3-0.68-0.68c0-0.37,0.3-0.68,0.68-0.68
				C55.33,73.81,55.63,74.11,55.63,74.49z"/>
			<path fill="#F5CF21" d="M57.42,74.87c0,0.37-0.3,0.68-0.68,0.68s-0.68-0.3-0.68-0.68c0-0.37,0.3-0.68,0.68-0.68
				S57.42,74.5,57.42,74.87z"/>
			<path fill="#F5CF21" d="M58.92,75.89c0,0.37-0.3,0.68-0.68,0.68c-0.37,0-0.68-0.3-0.68-0.68c0-0.37,0.3-0.68,0.68-0.68
				C58.61,75.21,58.92,75.51,58.92,75.89z"/>
			<path fill="#F5CF21" d="M59.83,77.53c0,0.37-0.3,0.68-0.68,0.68c-0.37,0-0.68-0.3-0.68-0.68c0-0.37,0.3-0.68,0.68-0.68
				C59.53,76.85,59.83,77.16,59.83,77.53z"/>
			<path fill="#F5CF21" d="M59.83,79.32c0,0.37-0.3,0.68-0.68,0.68c-0.37,0-0.68-0.3-0.68-0.68c0-0.37,0.3-0.68,0.68-0.68
				C59.53,78.64,59.83,78.95,59.83,79.32z"/>
			<path fill="#F5CF21" d="M59.54,81.06c0,0.37-0.3,0.68-0.68,0.68c-0.37,0-0.68-0.3-0.68-0.68c0-0.37,0.3-0.68,0.68-0.68
				C59.24,80.38,59.54,80.69,59.54,81.06z"/>
			<path fill="none" stroke="#004876" stroke-width="1.0229" d="M49.79,81.18c-0.06-0.25-0.29-1.26-0.29-2.43
				c0-1.34,0.29-1.81,1.21-2.27c0.92-0.46,2.03-0.74,3.87-0.74s3.53,0.97,3.53,2.78c0,1.81,0.14,2.41-1.43,3.92"/>
			<path fill="#F5CF21" d="M48.63,72c0,0.32-0.26,0.58-0.57,0.58c-0.32,0-0.58-0.26-0.58-0.58s0.26-0.58,0.58-0.58
				C48.38,71.43,48.63,71.68,48.63,72z"/>
			<path fill="#F5CF21" d="M48.63,69.58c0,0.32-0.26,0.57-0.57,0.57c-0.32,0-0.58-0.26-0.58-0.57c0-0.32,0.26-0.58,0.58-0.58
				C48.38,69.01,48.63,69.26,48.63,69.58z"/>
			<path fill="#F5CF21" d="M48.63,70.76c0,0.32-0.26,0.58-0.57,0.58c-0.32,0-0.58-0.26-0.58-0.58c0-0.32,0.26-0.58,0.58-0.58
				C48.38,70.19,48.63,70.45,48.63,70.76z"/>
			<path fill="#F5CF21" d="M49.82,70.76c0,0.32-0.26,0.58-0.58,0.58c-0.32,0-0.57-0.26-0.57-0.58c0-0.32,0.26-0.58,0.57-0.58
				C49.56,70.19,49.82,70.45,49.82,70.76z"/>
			<path fill="#F5CF21" d="M40.22,82.65c-1.28-1.28,3.76,0.09,4.53,0.47l1.94-1.79c0-0.02,0.32-1.18,0.32-2.59l0,0
				c0-0.7-0.07-1.22-0.31-1.65l0,0c-0.24-0.44-0.63-0.72-1.11-0.96l0,0c-0.98-0.5-2.17-0.79-4.04-0.78l0,0
				c-0.99,0-1.94,0.26-2.68,0.79l0,0c-0.74,0.52-1.24,1.35-1.24,2.38l0,0c0,0.27,0,0.51,0,0.74l0,0c-0.03,1.28,0.17,2.17,1.55,3.46
				l0,0l0.54,0.33L40.22,82.65z"/>
			<path fill="#F5CF21" d="M45.76,75.6c0,0.37,0.3,0.68,0.68,0.68c0.37,0,0.68-0.3,0.68-0.68c0-0.37-0.3-0.68-0.68-0.68
				C46.06,74.92,45.76,75.22,45.76,75.6z"/>
			<path fill="#F5CF21" d="M44.05,74.97c0,0.37,0.3,0.68,0.68,0.68c0.37,0,0.68-0.3,0.68-0.68c0-0.37-0.3-0.68-0.68-0.68
				C44.35,74.29,44.05,74.6,44.05,74.97z"/>
			<path fill="#F5CF21" d="M42.23,74.63c0,0.37,0.3,0.68,0.68,0.68s0.68-0.3,0.68-0.68c0-0.37-0.3-0.68-0.68-0.68
				S42.23,74.26,42.23,74.63z"/>
			<path fill="#F5CF21" d="M40.49,74.49c0,0.37,0.3,0.68,0.68,0.68c0.37,0,0.68-0.3,0.68-0.68c0-0.37-0.3-0.68-0.68-0.68
				C40.79,73.81,40.49,74.11,40.49,74.49z"/>
			<path fill="#F5CF21" d="M38.7,74.87c0,0.37,0.3,0.68,0.68,0.68c0.37,0,0.68-0.3,0.68-0.68c0-0.37-0.3-0.68-0.68-0.68
				C39,74.2,38.7,74.5,38.7,74.87z"/>
			<path fill="#F5CF21" d="M37.2,75.89c0,0.37,0.3,0.68,0.68,0.68c0.37,0,0.68-0.3,0.68-0.68c0-0.37-0.3-0.68-0.68-0.68
				C37.51,75.21,37.2,75.51,37.2,75.89z"/>
			<path fill="#F5CF21" d="M36.28,77.53c0,0.37,0.3,0.68,0.68,0.68c0.37,0,0.68-0.3,0.68-0.68c0-0.37-0.3-0.68-0.68-0.68
				C36.59,76.85,36.28,77.16,36.28,77.53z"/>
			<path fill="#F5CF21" d="M36.28,79.32c0,0.37,0.3,0.68,0.68,0.68c0.37,0,0.68-0.3,0.68-0.68c0-0.37-0.3-0.68-0.68-0.68
				C36.59,78.64,36.28,78.95,36.28,79.32z"/>
			<path fill="#F5CF21" d="M36.57,81.06c0,0.37,0.3,0.68,0.68,0.68s0.68-0.3,0.68-0.68c0-0.37-0.3-0.68-0.68-0.68
				S36.57,80.69,36.57,81.06z"/>
			<path fill="none" stroke="#004876" stroke-width="1.0229" d="M46.33,81.18c0.06-0.25,0.29-1.26,0.29-2.43
				c0-1.34-0.29-1.81-1.21-2.27c-0.92-0.46-2.03-0.74-3.87-0.74c-1.84,0-3.53,0.97-3.53,2.78c0,1.81-0.14,2.41,1.43,3.92"/>
			<path fill="#F5CF21" d="M46.3,70.76c0,0.32,0.26,0.58,0.58,0.58c0.32,0,0.57-0.26,0.57-0.58c0-0.32-0.26-0.58-0.57-0.58
				C46.56,70.19,46.3,70.45,46.3,70.76z"/>
			<path fill="#F5CF21" d="M48.06,74.92c0,0-1.09-0.05-1.09-0.58c0-0.1,0-0.21,0.01-0.32h2.17c0.01,0.11,0.01,0.22,0.01,0.32
				C49.15,74.87,48.06,74.92,48.06,74.92z"/>
			<path fill="#F5CF21" d="M46.99,73.83c0.07-0.47,0.29-0.96,1.07-1.11c0.77,0.15,1,0.65,1.07,1.11H46.99z"/>
			<path fill="#F5CF21" stroke="#004876" stroke-width="1.0229" d="M48.05,88.23c0,0-0.27-0.02-0.75-0.02
				c-1.35,0-4.38,0.12-7.84,1.01c0.49,0.67,1.41,1.05,3.49,1.16c3.87,0.19,5.11,0.14,5.11,0.14s1.24,0.05,5.11-0.14
				c2.08-0.1,3-0.49,3.49-1.16c-3.46-0.89-6.49-1.01-7.84-1.01C48.33,88.22,48.07,88.23,48.05,88.23z"/>
			<path fill="#F5CF21" stroke="#004876" stroke-width="1.0229" d="M48.05,88.04c0,0,0.27-0.02,0.76-0.02
				c1.37,0,4.44,0.12,7.95,1.03c0.33-0.56,0.43-1.29,0.66-2.2c0.53-2.17,2.42-4.45,2.42-4.45s-1.69-0.48-2.95,0.24
				c-1.64-1.74-4.11-1.93-5.65-0.48c-1.26-1.45-3.17-1.26-3.17-1.26s-1.92-0.19-3.17,1.26c-1.55-1.45-4.01-1.26-5.65,0.48
				c-1.26-0.72-2.95-0.24-2.95-0.24s1.88,2.27,2.42,4.45c0.22,0.91,0.33,1.64,0.66,2.2c3.51-0.91,6.58-1.03,7.95-1.03
				C47.79,88.02,48.06,88.04,48.05,88.04z"/>
			<path fill="#004876" d="M53.05,84.58c0,0,0.08-1.96-0.08-2.38c0,0,0.91-0.26,1.44,0.68C54.41,82.88,53.46,83.48,53.05,84.58z"/>
			<path fill="#004876" d="M57.39,84.65c0,0,0.08-1.25-0.08-1.59c0,0,0.91,0.08,1.02,0.64C58.34,83.71,57.54,84.31,57.39,84.65z"/>
			<path fill="#004876" d="M48.06,84.39c0-1.47-0.84-2.38-0.84-2.38c0.4-0.4,0.84-0.26,0.84-0.26s0.44-0.13,0.84,0.26
				C48.89,82.01,48.06,82.91,48.06,84.39z"/>
			<path fill="#004876" d="M43.07,84.58c0,0-0.08-1.96,0.08-2.38c0,0-0.91-0.26-1.43,0.68C41.71,82.88,42.65,83.48,43.07,84.58z"/>
			<path fill="#004876" d="M38.73,84.65c0,0-0.08-1.25,0.08-1.59c0,0-0.91,0.08-1.02,0.64C37.78,83.71,38.58,84.31,38.73,84.65z"/>
		</g>
	</g>
</g>
<g id="国名">
	<g>
		<path d="M35.48,146.75v3.86c0,0.2-0.06,0.35-0.19,0.46c-0.13,0.11-0.3,0.17-0.53,0.17c-0.31,0-0.52-0.11-0.63-0.32
			c-0.05-0.09-0.07-0.2-0.07-0.32v-3.86c0-0.26,0.1-0.44,0.31-0.55c0.12-0.06,0.25-0.09,0.39-0.09c0.24,0,0.43,0.07,0.56,0.21
			C35.42,146.43,35.48,146.57,35.48,146.75z M39.46,146.25v3.41c0,1.12-0.13,2.07-0.4,2.85c-0.35,1.01-1,1.85-1.95,2.54
			c-0.18,0.13-0.36,0.19-0.53,0.19c-0.16,0-0.27-0.05-0.35-0.14c-0.08-0.1-0.12-0.2-0.12-0.32c0-0.16,0.08-0.33,0.25-0.5
			c0.44-0.45,0.74-0.82,0.91-1.08c0.37-0.59,0.6-1.29,0.7-2.12c0.05-0.4,0.08-0.87,0.08-1.39v-3.42c0-0.38,0.23-0.58,0.7-0.58
			C39.22,145.68,39.46,145.87,39.46,146.25z"/>
		<path d="M46.26,150.13v2.09c0,0.4,0.15,0.64,0.45,0.72c0.29,0.08,0.79,0.12,1.5,0.12c0.97,0,1.95-0.07,2.95-0.19
			c0.07-0.01,0.12-0.01,0.16-0.01c0.23,0,0.41,0.1,0.53,0.29c0.09,0.14,0.13,0.31,0.13,0.49c0,0.35-0.21,0.56-0.63,0.63
			c-0.53,0.08-1.61,0.12-3.23,0.12c-0.84,0-1.43-0.03-1.77-0.1c-0.61-0.12-1.03-0.39-1.26-0.79c-0.16-0.27-0.24-0.63-0.24-1.07
			v-5.82c0-0.4,0.23-0.6,0.7-0.6s0.7,0.2,0.7,0.6v2.28c1.74-0.27,3.12-0.51,4.15-0.73c0.13-0.03,0.24-0.04,0.33-0.04
			c0.3,0,0.51,0.12,0.62,0.35c0.05,0.11,0.08,0.24,0.08,0.37c0,0.35-0.2,0.57-0.6,0.64c-0.54,0.11-1.95,0.31-4.24,0.62L46.26,150.13
			z"/>
		<path d="M59.07,150.47c-1.07,0.06-2.23,0.14-3.47,0.24c-0.1,0.01-0.16,0.01-0.19,0.01c-0.27,0-0.46-0.11-0.56-0.32
			c-0.05-0.1-0.08-0.22-0.08-0.36c0-0.37,0.2-0.57,0.59-0.61c0.51-0.06,2.85-0.2,7.04-0.42c0.77-0.04,1.18-0.06,1.21-0.06
			c0.21,0,0.38,0.06,0.5,0.19c0.11,0.12,0.17,0.27,0.17,0.46c0,0.33-0.13,0.54-0.38,0.63c-0.08,0.03-0.24,0.04-0.47,0.05
			c-0.51,0.01-1.37,0.05-2.59,0.1l-0.27,0c-0.06,1.75-0.59,3.08-1.59,3.99c-0.58,0.53-1.03,0.79-1.36,0.79
			c-0.16,0-0.29-0.06-0.39-0.19c-0.09-0.12-0.13-0.24-0.13-0.35c0-0.14,0.06-0.27,0.17-0.38c0.04-0.04,0.15-0.13,0.35-0.28
			c0.61-0.46,1.03-1.11,1.26-1.95C58.97,151.59,59.04,151.08,59.07,150.47z M61.52,146.13c0.2,0,0.36,0.06,0.48,0.18
			c0.12,0.11,0.18,0.26,0.18,0.44c0,0.36-0.17,0.58-0.5,0.66c-0.19,0.05-0.69,0.11-1.49,0.17c-1.09,0.09-2.02,0.14-2.77,0.14
			c-0.54,0-0.81-0.22-0.81-0.66c0-0.29,0.13-0.49,0.4-0.58c0.09-0.03,0.29-0.05,0.6-0.05c1,0,2.08-0.07,3.24-0.21
			c0.12-0.01,0.25-0.03,0.4-0.05C61.37,146.14,61.46,146.13,61.52,146.13z"/>
		<path d="M67.74,146.82c0.15,0,0.41,0.07,0.78,0.2c0.69,0.24,1.26,0.53,1.71,0.86c0.24,0.17,0.35,0.39,0.35,0.65
			c0,0.14-0.05,0.29-0.14,0.43c-0.14,0.21-0.33,0.32-0.56,0.32c-0.2,0-0.43-0.09-0.67-0.28c-0.62-0.49-1.18-0.88-1.68-1.16
			c-0.25-0.14-0.38-0.31-0.38-0.51C67.15,146.99,67.35,146.82,67.74,146.82z M74.86,148.59c0.12,0,0.25,0.04,0.36,0.13
			c0.15,0.11,0.23,0.26,0.23,0.45c0,0.15-0.06,0.32-0.18,0.5c-0.85,1.27-1.97,2.37-3.36,3.3c-1.16,0.77-2.35,1.32-3.59,1.66
			c-0.13,0.03-0.24,0.05-0.34,0.05c-0.31,0-0.54-0.14-0.67-0.43c-0.06-0.13-0.09-0.25-0.09-0.37c0-0.27,0.13-0.47,0.4-0.6
			c0.06-0.03,0.3-0.1,0.74-0.23c1.59-0.47,3.07-1.3,4.43-2.51c0.52-0.47,1.02-1,1.48-1.59C74.46,148.7,74.65,148.59,74.86,148.59z"
			/>
		<path d="M78.36,148.77c0.23,0,0.56,0.08,1.01,0.24c0.52,0.19,0.95,0.41,1.3,0.66c0.24,0.18,0.36,0.39,0.36,0.65
			c0,0.16-0.05,0.31-0.17,0.45c-0.14,0.19-0.33,0.29-0.56,0.29c-0.17,0-0.35-0.08-0.57-0.25c-0.42-0.34-0.95-0.7-1.61-1.07
			c-0.22-0.13-0.33-0.28-0.33-0.48c0-0.09,0.02-0.17,0.07-0.26C77.96,148.85,78.13,148.77,78.36,148.77z M86.23,148.4
			c0.11,0,0.21,0.03,0.32,0.09c0.18,0.11,0.28,0.27,0.28,0.48c0,0.21-0.17,0.6-0.52,1.18c-0.57,0.96-1.35,1.83-2.34,2.63
			c-1.18,0.95-2.48,1.67-3.92,2.16c-0.16,0.06-0.3,0.08-0.41,0.08c-0.29,0-0.51-0.13-0.64-0.4c-0.07-0.13-0.1-0.26-0.1-0.38
			c0-0.28,0.13-0.48,0.38-0.62c0.04-0.02,0.28-0.11,0.72-0.26c1.2-0.42,2.31-1.04,3.35-1.87c1-0.79,1.77-1.68,2.31-2.67
			C85.81,148.54,86,148.4,86.23,148.4z M79.7,146.26c0.33,0,0.89,0.24,1.68,0.72c0.24,0.14,0.41,0.26,0.52,0.35
			c0.21,0.17,0.32,0.38,0.32,0.61c0,0.16-0.06,0.3-0.17,0.44c-0.17,0.2-0.36,0.3-0.58,0.3c-0.19,0-0.38-0.1-0.58-0.3
			c-0.32-0.34-0.81-0.73-1.44-1.2c-0.2-0.14-0.29-0.3-0.29-0.46c0-0.09,0.03-0.18,0.08-0.26C79.33,146.33,79.49,146.26,79.7,146.26z
			"/>
		<path d="M93.89,152.74c0.21-1.23,0.31-1.97,0.31-2.21c0-0.11-0.05-0.16-0.14-0.16c-0.04,0-0.1,0-0.18,0.01
			c-0.25,0.03-0.69,0.06-1.32,0.11c-0.38,0.03-0.67,0.05-0.88,0.08c-0.06,0.01-0.11,0.01-0.15,0.01c-0.19,0-0.34-0.07-0.45-0.22
			c-0.07-0.1-0.11-0.23-0.11-0.38c0-0.29,0.13-0.48,0.39-0.56c0.06-0.02,0.19-0.03,0.39-0.04l1.29-0.1c0.96-0.07,1.47-0.1,1.54-0.1
			c0.38,0,0.66,0.15,0.82,0.44c0.07,0.14,0.11,0.29,0.11,0.46c0,0.07-0.01,0.17-0.03,0.32c-0.02,0.13-0.05,0.34-0.09,0.63
			c-0.07,0.47-0.14,0.95-0.21,1.44l-0.03,0.21l0.12-0.01c0.86-0.05,1.34-0.08,1.45-0.09c0.04,0,0.07-0.01,0.08-0.01
			c0.13,0,0.25,0.04,0.34,0.12c0.14,0.11,0.21,0.27,0.21,0.48c0,0.32-0.14,0.51-0.42,0.57c-0.04,0.01-1.3,0.09-3.77,0.24
			c-2.03,0.12-3.07,0.18-3.1,0.18c-0.23,0-0.39-0.09-0.49-0.28c-0.04-0.09-0.07-0.19-0.07-0.31c0-0.21,0.07-0.37,0.22-0.48
			c0.12-0.08,0.31-0.13,0.6-0.13c0.06,0,1.15-0.07,3.28-0.19L93.89,152.74z"/>
		<path d="M105.29,146.52l2.1-0.08l0.09-0.01c0.68,0,1.02,0.29,1.02,0.88c0,0.18-0.04,0.42-0.13,0.74
			c-0.73,2.58-2.23,4.62-4.48,6.13c-0.89,0.59-1.49,0.89-1.82,0.89c-0.17,0-0.3-0.07-0.4-0.22c-0.07-0.1-0.1-0.2-0.1-0.29
			c0-0.15,0.07-0.28,0.21-0.4c0.05-0.04,0.18-0.13,0.4-0.26c1.09-0.67,2.03-1.45,2.83-2.34c-0.53-0.55-1.01-0.99-1.45-1.34
			c-0.2-0.16-0.3-0.32-0.3-0.47c0-0.1,0.03-0.19,0.09-0.27c0.1-0.14,0.24-0.21,0.41-0.21c0.14,0,0.31,0.05,0.51,0.14
			c0.59,0.26,1.12,0.59,1.59,0.98c0.46-0.75,0.79-1.47,1-2.18c0.06-0.2,0.09-0.33,0.09-0.38c0-0.08-0.06-0.12-0.18-0.12
			c-0.01,0-0.02,0-0.03,0l-2.05,0.11c-0.77,1.02-1.55,1.8-2.36,2.34c-0.26,0.17-0.47,0.26-0.64,0.26c-0.16,0-0.27-0.06-0.35-0.18
			c-0.06-0.08-0.08-0.17-0.08-0.27c0-0.13,0.05-0.26,0.16-0.39c0.04-0.04,0.15-0.15,0.34-0.33c0.64-0.58,1.22-1.29,1.74-2.13
			c0.14-0.23,0.26-0.45,0.37-0.66c0.16-0.31,0.39-0.47,0.7-0.47c0.22,0,0.41,0.08,0.55,0.23
			C105.2,146.29,105.26,146.4,105.29,146.52z"/>
		<path d="M115.8,150.05c-0.94,0.64-1.88,1.17-2.8,1.57c-0.32,0.14-0.55,0.21-0.69,0.21c-0.16,0-0.29-0.06-0.38-0.18
			c-0.08-0.1-0.12-0.21-0.12-0.33c0-0.17,0.08-0.32,0.23-0.43c0.05-0.04,0.26-0.15,0.61-0.34c1.06-0.57,2.08-1.26,3.07-2.08
			c0.91-0.76,1.62-1.51,2.13-2.25c0.16-0.24,0.37-0.37,0.61-0.37c0.14,0,0.27,0.04,0.41,0.13c0.24,0.15,0.36,0.35,0.36,0.6
			c0,0.17-0.1,0.38-0.29,0.63c-0.53,0.67-1.21,1.35-2.04,2.03c0.2,0.12,0.3,0.3,0.3,0.54v4.65c0,0.23-0.07,0.4-0.22,0.52
			c-0.13,0.1-0.29,0.16-0.49,0.16c-0.32,0-0.53-0.12-0.64-0.37c-0.04-0.09-0.06-0.19-0.06-0.31V150.05z"/>
		<path d="M124.44,146.82c0.15,0,0.41,0.07,0.78,0.2c0.69,0.24,1.26,0.53,1.71,0.86c0.24,0.17,0.35,0.39,0.35,0.65
			c0,0.14-0.05,0.29-0.14,0.43c-0.14,0.21-0.33,0.32-0.56,0.32c-0.2,0-0.43-0.09-0.67-0.28c-0.62-0.49-1.18-0.88-1.68-1.16
			c-0.25-0.14-0.38-0.31-0.38-0.51C123.84,146.99,124.04,146.82,124.44,146.82z M131.56,148.59c0.12,0,0.25,0.04,0.36,0.13
			c0.15,0.11,0.23,0.26,0.23,0.45c0,0.15-0.06,0.32-0.18,0.5c-0.85,1.27-1.97,2.37-3.36,3.3c-1.16,0.77-2.35,1.32-3.59,1.66
			c-0.13,0.03-0.24,0.05-0.34,0.05c-0.31,0-0.54-0.14-0.67-0.43c-0.06-0.13-0.09-0.25-0.09-0.37c0-0.27,0.13-0.47,0.4-0.6
			c0.06-0.03,0.3-0.1,0.74-0.23c1.59-0.47,3.07-1.3,4.43-2.51c0.52-0.47,1.02-1,1.48-1.59C131.15,148.7,131.35,148.59,131.56,148.59
			z"/>
	</g>
</g>
<g id="ガイド" display="none">
</g>
</svg>
