<?xml version="1.0" encoding="utf-8"?>
<!-- Generator: Adobe Illustrator 25.4.1, SVG Export Plug-In . SVG Version: 6.00 Build 0)  -->
<svg version="1.1" xmlns="http://www.w3.org/2000/svg" xmlns:xlink="http://www.w3.org/1999/xlink" x="0px" y="0px"
	 viewBox="0 0 164.41 252.28" enable-background="new 0 0 164.41 252.28" xml:space="preserve">
<g id="地">
	<rect fill="#DCDDDD" width="164.41" height="252.28"/>
</g>
<g id="枠">
</g>
<g id="国旗">
	<g>
		<g>
			<rect x="25.51" y="60" fill="#FFFFFF" width="113.39" height="75.59"/>
			<rect x="25.51" y="114.97" fill="#C8152A" width="113.39" height="6.87"/>
			<rect x="25.51" y="101.23" fill="#C8152A" width="113.39" height="6.87"/>
			<rect x="25.51" y="128.72" fill="#C8152A" width="113.39" height="6.87"/>
			<rect x="25.51" y="73.74" fill="#C8152A" width="113.39" height="6.87"/>
			<rect x="25.51" y="60" fill="#C8152A" width="113.39" height="6.87"/>
			<rect x="25.51" y="87.49" fill="#C8152A" width="113.39" height="6.87"/>
			<rect x="25.51" y="60" fill="#004876" width="34.36" height="34.36"/>
			<polygon fill="#FFFFFF" points="42.69,68.93 44.63,74.89 50.9,74.89 45.83,78.58 47.76,84.54 42.69,80.85 37.62,84.54 
				39.56,78.58 34.48,74.89 40.75,74.89 			"/>
		</g>
	</g>
</g>
<g id="国名">
	<g>
		<path d="M63.82,146.75v3.86c0,0.2-0.06,0.35-0.19,0.46c-0.13,0.11-0.3,0.17-0.53,0.17c-0.31,0-0.52-0.11-0.63-0.32
			c-0.05-0.09-0.07-0.2-0.07-0.32v-3.86c0-0.26,0.1-0.44,0.31-0.55c0.12-0.06,0.25-0.09,0.39-0.09c0.24,0,0.43,0.07,0.56,0.21
			C63.77,146.43,63.82,146.57,63.82,146.75z M67.8,146.25v3.41c0,1.12-0.13,2.07-0.4,2.85c-0.35,1.01-1,1.85-1.95,2.54
			c-0.18,0.13-0.36,0.19-0.53,0.19c-0.16,0-0.27-0.05-0.35-0.14c-0.08-0.1-0.12-0.2-0.12-0.32c0-0.16,0.08-0.33,0.25-0.5
			c0.44-0.45,0.74-0.82,0.91-1.08c0.37-0.59,0.6-1.29,0.7-2.12c0.05-0.4,0.08-0.87,0.08-1.39v-3.42c0-0.38,0.23-0.58,0.7-0.58
			C67.57,145.68,67.8,145.87,67.8,146.25z"/>
		<path d="M75.13,147.77c0.23,0,0.48,0.09,0.76,0.27c0.12,0.08,0.34,0.24,0.64,0.48c2.18,1.78,3.68,2.98,4.51,3.6
			c0.25,0.18,0.37,0.41,0.37,0.67c0,0.22-0.08,0.41-0.24,0.57c-0.15,0.15-0.32,0.22-0.52,0.22c-0.19,0-0.37-0.07-0.54-0.2
			c-0.4-0.32-1.67-1.44-3.8-3.35c-0.49-0.44-0.76-0.67-0.8-0.7c-0.13-0.1-0.25-0.15-0.35-0.15c-0.12,0-0.28,0.12-0.5,0.38
			c-0.71,0.81-1.32,1.46-1.84,1.97c-0.18,0.17-0.37,0.26-0.57,0.26c-0.18,0-0.34-0.07-0.48-0.2c-0.17-0.16-0.26-0.34-0.26-0.52
			c0-0.16,0.06-0.31,0.19-0.43c0.02-0.02,0.09-0.09,0.23-0.19c0.48-0.4,1.16-1.05,2.04-1.98c0.23-0.23,0.4-0.39,0.51-0.47
			C74.7,147.84,74.92,147.77,75.13,147.77z M78.23,147.03c0.21,0,0.54,0.21,1,0.62c0.39,0.35,0.58,0.63,0.58,0.83
			c0,0.14-0.06,0.27-0.19,0.37c-0.1,0.08-0.21,0.12-0.34,0.12c-0.17,0-0.31-0.1-0.43-0.29c-0.21-0.34-0.47-0.68-0.79-1.01
			c-0.1-0.11-0.15-0.22-0.15-0.33C77.91,147.14,78.02,147.03,78.23,147.03z M79.54,146.23c0.22,0,0.54,0.18,0.96,0.53
			c0.39,0.32,0.58,0.6,0.58,0.83c0,0.16-0.06,0.28-0.18,0.38c-0.09,0.07-0.19,0.1-0.3,0.1c-0.16,0-0.3-0.09-0.42-0.28
			c-0.2-0.3-0.46-0.61-0.79-0.92c-0.12-0.11-0.18-0.22-0.18-0.33c0-0.07,0.03-0.14,0.09-0.21
			C79.36,146.26,79.44,146.23,79.54,146.23z"/>
		<path d="M86.5,146.75v3.86c0,0.2-0.06,0.35-0.19,0.46c-0.13,0.11-0.3,0.17-0.53,0.17c-0.31,0-0.52-0.11-0.63-0.32
			c-0.05-0.09-0.07-0.2-0.07-0.32v-3.86c0-0.26,0.1-0.44,0.31-0.55c0.12-0.06,0.25-0.09,0.39-0.09c0.24,0,0.43,0.07,0.56,0.21
			C86.45,146.43,86.5,146.57,86.5,146.75z M90.48,146.25v3.41c0,1.12-0.13,2.07-0.4,2.85c-0.35,1.01-1,1.85-1.95,2.54
			c-0.18,0.13-0.36,0.19-0.53,0.19c-0.16,0-0.27-0.05-0.35-0.14c-0.08-0.1-0.12-0.2-0.12-0.32c0-0.16,0.08-0.33,0.25-0.5
			c0.44-0.45,0.74-0.82,0.91-1.08c0.37-0.59,0.6-1.29,0.7-2.12c0.05-0.4,0.08-0.87,0.08-1.39v-3.42c0-0.38,0.23-0.58,0.7-0.58
			C90.24,145.68,90.48,145.87,90.48,146.25z"/>
		<path d="M102.67,146.52c0.24,0,0.46,0.06,0.66,0.18c0.27,0.17,0.4,0.41,0.4,0.72c0,0.2-0.08,0.44-0.25,0.74
			c-0.47,0.82-1.06,1.53-1.76,2.15c-0.39,0.34-0.7,0.51-0.91,0.51c-0.15,0-0.28-0.07-0.38-0.2c-0.07-0.1-0.11-0.19-0.11-0.28
			c0-0.15,0.09-0.31,0.28-0.49c0.56-0.54,0.99-1.08,1.28-1.63c0.08-0.15,0.12-0.25,0.12-0.3c0-0.06-0.05-0.09-0.15-0.09
			c-0.09,0-0.21,0-0.35,0.02c-0.08,0.01-0.33,0.02-0.75,0.05c-0.31,0.02-1.66,0.13-4.02,0.33c-0.8,0.07-1.23,0.1-1.29,0.1
			c-0.47,0-0.7-0.22-0.7-0.65c0-0.37,0.19-0.59,0.56-0.66c0.04-0.01,1.36-0.1,3.94-0.28C101.47,146.6,102.62,146.52,102.67,146.52z
			 M99.1,148.82c0.19,0,0.36,0.06,0.51,0.18c0.09,0.07,0.15,0.15,0.18,0.24c0.04,0.11,0.05,0.3,0.05,0.57
			c0,0.99-0.07,1.76-0.22,2.33c-0.32,1.22-1.05,2.18-2.18,2.86c-0.18,0.11-0.34,0.16-0.48,0.16c-0.17,0-0.29-0.06-0.38-0.17
			c-0.08-0.1-0.12-0.21-0.12-0.33c0-0.14,0.05-0.27,0.16-0.4c0.04-0.06,0.16-0.17,0.36-0.33c0.7-0.57,1.13-1.33,1.31-2.31
			c0.08-0.48,0.13-1.09,0.13-1.82l-0.01-0.3c0-0.28,0.1-0.47,0.31-0.59C98.84,148.85,98.97,148.82,99.1,148.82z"/>
	</g>
</g>
<g id="ガイド" display="none">
</g>
</svg>
