<?xml version="1.0" encoding="utf-8"?>
<!-- Generator: Adobe Illustrator 25.4.1, SVG Export Plug-In . SVG Version: 6.00 Build 0)  -->
<svg version="1.1" xmlns="http://www.w3.org/2000/svg" xmlns:xlink="http://www.w3.org/1999/xlink" x="0px" y="0px"
	 viewBox="0 0 164.41 252.28" enable-background="new 0 0 164.41 252.28" xml:space="preserve">
<g id="地">
	<rect fill="#DCDDDD" width="164.41" height="252.28"/>
</g>
<g id="枠">
</g>
<g id="国旗">
	<g>
		<g>
			<rect x="25.51" y="60" fill="#044F7F" width="113.39" height="75.59"/>
			<polygon fill="#FFFFFF" points="138.9,60 125.02,60 91.09,82.62 91.09,60 73.32,60 73.32,82.03 40.27,60 25.51,60 25.51,69.87 
				54.08,88.91 25.51,88.91 25.51,106.68 55,106.68 25.51,126.34 25.51,135.59 41.16,135.59 73.32,114.15 73.32,135.59 
				91.09,135.59 91.09,113.59 124.1,135.59 138.9,135.59 138.9,125.75 110.29,106.68 138.9,106.68 138.9,88.91 111.18,88.91 
				138.9,70.43 			"/>
			<polygon fill="#C8152A" points="138.9,92.78 87.22,92.78 87.22,60 77.18,60 77.18,92.78 25.51,92.78 25.51,102.82 77.18,102.82 
				77.18,135.59 87.22,135.59 87.22,102.82 138.9,102.82 			"/>
			<polygon fill="#C8152A" points="25.51,60 25.51,66.18 59.43,88.79 68.7,88.79 			"/>
			<polygon fill="#C8152A" points="138.9,129.41 104.98,106.8 95.71,106.8 138.9,135.59 			"/>
			<polygon fill="#C8152A" points="91.09,88.79 91.09,85.7 129.63,60 138.9,60 95.71,88.79 			"/>
			<polygon fill="#C8152A" points="68.7,106.8 25.51,135.59 34.78,135.59 73.32,109.9 73.32,106.8 			"/>
		</g>
	</g>
</g>
<g id="国名">
	<g>
		<path d="M64.78,150.05c-0.94,0.64-1.88,1.17-2.8,1.57c-0.32,0.14-0.55,0.21-0.69,0.21c-0.16,0-0.29-0.06-0.38-0.18
			c-0.08-0.1-0.12-0.21-0.12-0.33c0-0.17,0.08-0.32,0.23-0.43c0.06-0.04,0.26-0.15,0.61-0.34c1.06-0.57,2.08-1.26,3.07-2.08
			c0.91-0.76,1.62-1.51,2.13-2.25c0.16-0.24,0.37-0.37,0.61-0.37c0.14,0,0.27,0.04,0.41,0.13c0.24,0.15,0.36,0.35,0.36,0.6
			c0,0.17-0.1,0.38-0.29,0.63c-0.53,0.67-1.21,1.35-2.04,2.03c0.2,0.12,0.3,0.3,0.3,0.54v4.65c0,0.23-0.07,0.4-0.22,0.52
			c-0.13,0.1-0.29,0.16-0.49,0.16c-0.32,0-0.53-0.12-0.64-0.37c-0.04-0.09-0.06-0.19-0.06-0.31V150.05z"/>
		<path d="M75.17,147.89l-0.28-1.38c-0.01-0.08-0.02-0.16-0.02-0.23c0-0.26,0.1-0.44,0.3-0.55c0.12-0.07,0.25-0.1,0.41-0.1
			c0.38,0,0.61,0.2,0.69,0.59l0.28,1.39c0.91-0.19,1.55-0.33,1.92-0.42c0.1-0.03,0.18-0.04,0.27-0.04c0.27,0,0.46,0.11,0.58,0.33
			c0.06,0.11,0.08,0.22,0.08,0.34c0,0.32-0.19,0.53-0.56,0.62c-0.27,0.07-0.88,0.2-1.84,0.39l-0.19,0.04l0.32,1.57
			c0.47-0.1,1.45-0.3,2.93-0.61c0.11-0.02,0.19-0.03,0.26-0.03c0.28,0,0.47,0.12,0.58,0.35c0.04,0.1,0.07,0.21,0.07,0.33
			c0,0.28-0.14,0.47-0.42,0.58c-0.06,0.02-0.19,0.05-0.38,0.09c-0.52,0.1-1.36,0.28-2.52,0.53l-0.26,0.06l0.55,2.77
			c0.01,0.07,0.02,0.14,0.02,0.22c0,0.28-0.11,0.47-0.32,0.58c-0.12,0.06-0.26,0.09-0.42,0.09c-0.37,0-0.6-0.21-0.68-0.63
			l-0.54-2.75l-0.23,0.05l-1.89,0.4c-0.8,0.17-1.23,0.25-1.31,0.25c-0.27,0-0.46-0.12-0.56-0.36c-0.04-0.1-0.07-0.22-0.07-0.35
			c0-0.28,0.15-0.48,0.45-0.58c0.04-0.01,0.69-0.15,1.95-0.42l1.13-0.24l0.25-0.06l-0.3-1.58l-0.17,0.03
			c-1.34,0.25-2.09,0.37-2.25,0.37c-0.41,0-0.62-0.23-0.62-0.68c0-0.37,0.25-0.58,0.74-0.65C73.72,148.15,74.4,148.03,75.17,147.89z
			 M79.56,146.05c0.21,0,0.54,0.21,1,0.62c0.39,0.35,0.58,0.63,0.58,0.83c0,0.14-0.06,0.27-0.19,0.37c-0.1,0.08-0.21,0.12-0.34,0.12
			c-0.17,0-0.31-0.1-0.43-0.29c-0.21-0.35-0.48-0.69-0.79-1.01c-0.1-0.11-0.15-0.22-0.15-0.33
			C79.24,146.15,79.34,146.05,79.56,146.05z M80.54,145.15c0.22,0,0.54,0.18,0.95,0.53c0.39,0.33,0.58,0.6,0.58,0.83
			c0,0.16-0.06,0.29-0.18,0.38c-0.09,0.07-0.19,0.1-0.3,0.1c-0.15,0-0.3-0.09-0.42-0.28c-0.2-0.31-0.46-0.62-0.79-0.92
			c-0.12-0.11-0.18-0.23-0.18-0.33c0-0.07,0.03-0.14,0.09-0.21S80.44,145.15,80.54,145.15z"/>
		<path d="M86.5,146.75v3.86c0,0.2-0.06,0.35-0.19,0.46c-0.13,0.11-0.3,0.17-0.53,0.17c-0.31,0-0.52-0.11-0.63-0.32
			c-0.05-0.09-0.07-0.2-0.07-0.32v-3.86c0-0.26,0.1-0.44,0.31-0.55c0.12-0.06,0.25-0.09,0.39-0.09c0.24,0,0.43,0.07,0.56,0.21
			C86.45,146.43,86.5,146.57,86.5,146.75z M90.48,146.25v3.41c0,1.12-0.13,2.07-0.4,2.85c-0.35,1.01-1,1.85-1.95,2.54
			c-0.18,0.13-0.36,0.19-0.53,0.19c-0.16,0-0.27-0.05-0.35-0.14c-0.08-0.1-0.12-0.2-0.12-0.32c0-0.16,0.08-0.33,0.25-0.5
			c0.44-0.45,0.74-0.82,0.91-1.08c0.37-0.59,0.6-1.29,0.7-2.12c0.05-0.4,0.08-0.87,0.08-1.39v-3.42c0-0.38,0.23-0.58,0.7-0.58
			C90.24,145.68,90.48,145.87,90.48,146.25z"/>
		<path d="M99.37,151.75c-1.04,1.06-2.12,1.91-3.23,2.56c-0.46,0.27-0.78,0.4-0.94,0.4c-0.2,0-0.35-0.09-0.45-0.27
			c-0.06-0.1-0.09-0.19-0.09-0.27c0-0.16,0.08-0.31,0.23-0.44c0.04-0.03,0.17-0.12,0.39-0.27c0.89-0.57,1.83-1.33,2.8-2.28
			c0.98-0.97,1.7-1.92,2.16-2.86c0.08-0.16,0.12-0.27,0.12-0.32c0-0.07-0.04-0.1-0.11-0.1c-0.05,0-0.13,0.01-0.25,0.03
			c-0.22,0.03-1.08,0.1-2.58,0.22c-0.26,0.02-0.48,0.04-0.67,0.05c-0.07,0.01-0.13,0.01-0.17,0.01c-0.3,0-0.5-0.11-0.61-0.33
			c-0.05-0.1-0.07-0.21-0.07-0.33c0-0.31,0.15-0.51,0.44-0.6c0.09-0.03,0.28-0.05,0.59-0.07c1.04-0.04,2.36-0.15,3.96-0.33
			c0.07-0.01,0.13-0.01,0.18-0.01c0.32,0,0.58,0.09,0.77,0.28c0.18,0.17,0.27,0.38,0.27,0.64c0,0.2-0.1,0.49-0.29,0.9
			c-0.38,0.79-0.94,1.64-1.68,2.55c1.22,0.76,2.17,1.47,2.85,2.14c0.31,0.3,0.46,0.58,0.46,0.83c0,0.19-0.07,0.36-0.22,0.51
			c-0.15,0.16-0.32,0.23-0.52,0.23c-0.2,0-0.37-0.07-0.52-0.22c-0.02-0.02-0.08-0.09-0.19-0.21
			C101.23,153.39,100.35,152.57,99.37,151.75z"/>
	</g>
</g>
<g id="ガイド" display="none">
</g>
</svg>
