<?xml version="1.0" encoding="utf-8"?>
<!-- Generator: Adobe Illustrator 25.4.1, SVG Export Plug-In . SVG Version: 6.00 Build 0)  -->
<svg version="1.1" xmlns="http://www.w3.org/2000/svg" xmlns:xlink="http://www.w3.org/1999/xlink" x="0px" y="0px"
	 viewBox="0 0 164.41 252.28" enable-background="new 0 0 164.41 252.28" xml:space="preserve">
<g id="地">
	<rect fill="#DCDDDD" width="164.41" height="252.28"/>
</g>
<g id="枠">
</g>
<g id="国旗">
	<g>
		<g>
			<rect x="25.51" y="60" fill="#06489D" width="113.39" height="75.59"/>
			<polygon fill="#F1CD27" points="134.16,80.56 127.26,78.62 127.26,78.62 127.26,78.62 127.26,78.62 134.16,76.68 126.99,76.59 
				126.99,76.59 133.16,72.93 126.21,74.7 131.22,69.57 124.97,73.08 128.47,66.82 123.34,71.83 123.34,71.83 123.34,71.83 
				123.34,71.83 125.11,64.88 121.45,71.05 121.36,63.88 119.42,70.77 117.49,63.88 117.39,71.05 117.39,71.05 117.39,71.05 
				117.39,71.05 113.74,64.88 115.5,71.83 115.5,71.83 115.5,71.83 115.5,71.83 110.37,66.82 113.88,73.07 113.88,73.07 
				113.88,73.08 113.88,73.07 107.63,69.56 112.63,74.7 112.63,74.7 112.63,74.7 112.63,74.7 105.68,72.93 111.85,76.59 
				111.85,76.59 111.85,76.59 111.85,76.59 104.68,76.68 111.58,78.62 111.58,78.62 111.58,78.62 111.58,78.62 104.67,80.56 
				111.85,80.65 111.85,80.65 105.68,84.31 112.63,82.54 112.63,82.54 107.62,87.67 113.87,84.16 113.87,84.16 110.36,90.42 
				115.5,85.41 115.5,85.41 113.73,92.36 117.39,86.2 117.39,86.2 117.48,93.37 119.42,86.46 119.42,86.46 121.36,93.37 
				121.45,86.2 121.45,86.2 125.11,92.36 123.34,85.41 123.34,85.41 128.47,90.42 124.96,84.17 124.96,84.17 131.22,87.68 
				126.21,82.54 126.21,82.54 133.16,84.32 126.99,80.65 126.99,80.65 			"/>
			<rect x="25.51" y="116.69" fill="#198A3B" width="113.39" height="18.9"/>
			<rect x="25.51" y="97.8" fill="#ECD72A" width="113.39" height="18.9"/>
			<path fill="#1993B8" d="M125.21,78.62c0,3.2-2.59,5.79-5.79,5.79c-3.2,0-5.79-2.59-5.79-5.79c0-3.2,2.59-5.79,5.79-5.79
				C122.62,72.83,125.21,75.42,125.21,78.62z"/>
			<circle fill="#F1CD27" cx="119.42" cy="78.62" r="5.31"/>
		</g>
	</g>
</g>
<g id="国名">
	<g>
		<path d="M63,147.24c0.47,0,0.7,0.27,0.7,0.8c0,1.92-0.36,3.46-1.07,4.63c-0.3,0.5-0.67,0.91-1.09,1.24
			c-0.15,0.12-0.31,0.18-0.49,0.18c-0.12,0-0.22-0.04-0.32-0.12c-0.11-0.1-0.16-0.21-0.16-0.35c0-0.16,0.07-0.32,0.22-0.49
			c0.6-0.69,1.01-1.51,1.22-2.46c0.17-0.74,0.26-1.64,0.26-2.7c0-0.22,0.05-0.38,0.15-0.49C62.57,147.32,62.76,147.24,63,147.24z
			 M66.18,146.83v5.65c0,0.14,0.03,0.22,0.1,0.22c0.14,0,0.49-0.2,1.07-0.6c0.82-0.56,1.5-1.13,2.03-1.72
			c0.18-0.21,0.36-0.31,0.52-0.31c0.13,0,0.26,0.05,0.39,0.16c0.12,0.1,0.19,0.24,0.19,0.42c0,0.15-0.06,0.31-0.18,0.48
			c-0.43,0.59-1.08,1.23-1.94,1.92c-0.68,0.54-1.33,0.95-1.94,1.26c-0.23,0.11-0.44,0.17-0.62,0.17c-0.2,0-0.39-0.07-0.59-0.21
			c-0.28-0.2-0.42-0.5-0.42-0.92v-6.51c0-0.24,0.1-0.42,0.32-0.54c0.11-0.06,0.23-0.09,0.37-0.09c0.2,0,0.37,0.06,0.51,0.17
			C66.11,146.49,66.18,146.64,66.18,146.83z"/>
		<path d="M73.88,148.2l0.19,2.03c0,0.04,0.01,0.08,0.01,0.11c0,0.47-0.24,0.7-0.73,0.7c-0.4,0-0.62-0.21-0.66-0.63l-0.26-2.88
			c0-0.04-0.01-0.08-0.01-0.12c0-0.46,0.23-0.69,0.69-0.69c0.25,0,0.44,0.08,0.56,0.25l0.4-0.03c3.19-0.19,4.94-0.29,5.25-0.29
			c0.37,0,0.65,0.1,0.84,0.29c0.19,0.19,0.29,0.45,0.29,0.76c0,0.31-0.09,0.8-0.27,1.5c-0.31,1.18-0.75,2.18-1.32,3.01
			c-0.69,1-1.55,1.8-2.6,2.4c-0.16,0.09-0.3,0.14-0.42,0.14c-0.16,0-0.29-0.06-0.39-0.19c-0.08-0.1-0.12-0.2-0.12-0.3
			c0-0.14,0.05-0.26,0.17-0.38c0.03-0.03,0.13-0.11,0.29-0.23c0.7-0.53,1.32-1.21,1.87-2.05c0.46-0.71,0.81-1.56,1.06-2.53
			c0.11-0.45,0.17-0.76,0.17-0.95c0-0.08-0.03-0.13-0.08-0.16c-0.03-0.01-0.11-0.02-0.22-0.02c-0.48,0-1.92,0.08-4.33,0.25
			L73.88,148.2z"/>
		<path d="M84.75,146.82c0.15,0,0.41,0.07,0.78,0.2c0.69,0.24,1.26,0.53,1.71,0.86c0.24,0.17,0.35,0.39,0.35,0.65
			c0,0.14-0.05,0.29-0.14,0.43c-0.14,0.21-0.33,0.32-0.56,0.32c-0.2,0-0.43-0.09-0.67-0.28c-0.62-0.49-1.18-0.88-1.68-1.16
			c-0.25-0.14-0.38-0.31-0.38-0.51C84.16,146.99,84.36,146.82,84.75,146.82z M91.87,148.59c0.13,0,0.25,0.04,0.36,0.13
			c0.15,0.11,0.23,0.26,0.23,0.45c0,0.15-0.06,0.32-0.18,0.5c-0.85,1.27-1.97,2.37-3.36,3.3c-1.16,0.77-2.35,1.32-3.59,1.66
			c-0.13,0.03-0.24,0.05-0.34,0.05c-0.31,0-0.54-0.14-0.67-0.43c-0.06-0.13-0.09-0.25-0.09-0.37c0-0.27,0.13-0.47,0.4-0.6
			c0.05-0.03,0.3-0.1,0.74-0.23c1.59-0.47,3.06-1.3,4.43-2.51c0.52-0.47,1.02-1,1.48-1.59C91.47,148.7,91.66,148.59,91.87,148.59z"
			/>
		<path d="M99.11,146.7l2.1-0.08c0.05,0,0.08,0,0.09,0c0.68,0,1.02,0.29,1.02,0.88c0,0.18-0.04,0.42-0.13,0.74
			c-0.72,2.52-2.21,4.55-4.48,6.07c-0.89,0.59-1.49,0.89-1.82,0.89c-0.17,0-0.3-0.08-0.4-0.23c-0.07-0.1-0.1-0.2-0.1-0.29
			c0-0.13,0.06-0.26,0.18-0.38c0.05-0.04,0.19-0.14,0.42-0.28c1.04-0.64,1.97-1.41,2.8-2.32c-0.48-0.51-0.96-0.94-1.42-1.31
			c-0.2-0.15-0.3-0.31-0.3-0.47c0-0.09,0.03-0.18,0.09-0.27c0.1-0.14,0.24-0.21,0.41-0.21c0.14,0,0.31,0.05,0.51,0.14
			c0.6,0.28,1.13,0.6,1.58,0.98c0.48-0.76,0.83-1.5,1.04-2.23c0.05-0.17,0.07-0.27,0.07-0.32c0-0.09-0.07-0.13-0.21-0.12l-2.05,0.1
			c-0.76,1.02-1.55,1.8-2.36,2.35c-0.26,0.17-0.47,0.26-0.64,0.26c-0.16,0-0.27-0.06-0.35-0.18c-0.06-0.08-0.08-0.17-0.08-0.27
			c0-0.13,0.05-0.26,0.16-0.39c0.04-0.04,0.15-0.15,0.34-0.33c0.64-0.58,1.22-1.29,1.74-2.13c0.14-0.23,0.26-0.45,0.37-0.66
			c0.16-0.31,0.39-0.47,0.7-0.47c0.22,0,0.41,0.08,0.55,0.23C99.02,146.46,99.08,146.57,99.11,146.7z M102.28,145.74
			c0.21,0,0.54,0.21,1,0.62c0.39,0.35,0.58,0.63,0.58,0.84c0,0.14-0.06,0.27-0.19,0.37c-0.1,0.08-0.21,0.12-0.34,0.12
			c-0.17,0-0.31-0.1-0.43-0.29c-0.22-0.36-0.48-0.7-0.79-1.01c-0.1-0.11-0.15-0.22-0.15-0.33
			C101.96,145.84,102.07,145.74,102.28,145.74z M103.27,144.85c0.22,0,0.53,0.17,0.95,0.53c0.39,0.33,0.58,0.6,0.58,0.83
			c0,0.16-0.06,0.28-0.18,0.38c-0.09,0.07-0.19,0.1-0.3,0.1c-0.16,0-0.3-0.09-0.42-0.28c-0.2-0.31-0.46-0.62-0.79-0.92
			c-0.12-0.11-0.18-0.23-0.18-0.33c0-0.07,0.03-0.14,0.09-0.21S103.16,144.85,103.27,144.85z"/>
	</g>
</g>
<g id="ガイド" display="none">
</g>
</svg>
