<?xml version="1.0" encoding="utf-8"?>
<!-- Generator: Adobe Illustrator 25.4.1, SVG Export Plug-In . SVG Version: 6.00 Build 0)  -->
<svg version="1.1" xmlns="http://www.w3.org/2000/svg" xmlns:xlink="http://www.w3.org/1999/xlink" x="0px" y="0px"
	 viewBox="0 0 164.41 252.28" enable-background="new 0 0 164.41 252.28" xml:space="preserve">
<g id="地">
	<rect fill="#DCDDDD" width="164.41" height="252.28"/>
</g>
<g id="枠">
</g>
<g id="国旗">
	<g>
		<g>
			<rect x="25.51" y="60" fill="#FFFFFF" width="113.39" height="75.59"/>
			<polygon fill="#147F49" points="138.9,135.59 138.9,82.64 59.46,135.59 			"/>
			<polygon fill="#035786" points="25.51,135.59 59.46,135.59 138.9,82.64 138.9,60 			"/>
			<path fill="#824938" d="M61.1,80.41c-1.43-2.02-4.03-3.18-6.26-3.83l2.81-5.21c0.33,0.11,0.69,0.18,1.06,0.18
				c1.83,0,3.31-1.48,3.31-3.31c0-1.83-1.48-3.31-3.31-3.31c-1.83,0-3.31,1.48-3.31,3.31c0,1.19,0.63,2.22,1.56,2.81l-2.87,5.33
				c-1.74-0.44-3.12-0.57-3.31-0.57c-0.46,0-0.8-0.88-0.8-1.08s0.77,0.03,0.77-4.08s-1.8-8.92-2.04-8.92s-2.04,4.82-2.04,8.92
				c0,4.1,0.77,3.88,0.77,4.08s-0.34,1.08-0.8,1.08c-0.19,0-1.58,0.13-3.31,0.57l-3.17-5.87c1.18-0.68,3.67-0.32,3.67-0.32
				l-7.9-5.88l1.61,9.71c0,0,0.82-2.38,1.97-3.12l3.06,5.68c-2.23,0.65-4.82,1.81-6.26,3.83c-2.77,3.91-3.84,9.07-3.84,11.34
				s1.83,1.7,2.52-0.38c0.69-2.08,2.77-7.18,5.23-7.18c2.46,0,3.46,1.89,3.46,3.09s-4.35,7.24-5.35,11.02
				c-1.01,3.78,0.63,2.39,1.32,2.08c0.25-0.11,0.99-0.52,2.01-0.99l-5.92,10.98l0.67,0.36L42.8,98.9c1.6-0.65,3.59-1.27,5.53-1.35
				v14.13h0.76V97.56c1.94,0.07,3.94,0.7,5.53,1.35l6.38,11.83l0.67-0.36l-5.92-10.98c1.03,0.47,1.76,0.88,2.02,0.99
				c0.69,0.32,2.33,1.7,1.32-2.08c-1.01-3.78-5.35-9.83-5.35-11.02s1.01-3.09,3.46-3.09s4.54,5.1,5.23,7.18
				c0.69,2.08,2.52,2.65,2.52,0.38S63.87,84.32,61.1,80.41z"/>
		</g>
	</g>
</g>
<g id="国名">
	<g>
		<path d="M69.47,146.9v5.65c0,0.16,0.04,0.24,0.11,0.24c0.13,0,0.48-0.16,1.05-0.46c1.28-0.71,2.36-1.53,3.24-2.47
			c0.16-0.17,0.33-0.25,0.52-0.25c0.13,0,0.24,0.04,0.34,0.13c0.13,0.11,0.2,0.25,0.2,0.43c0,0.15-0.06,0.31-0.19,0.48
			c-0.69,0.93-1.64,1.8-2.86,2.6c-0.79,0.52-1.55,0.91-2.29,1.17c-0.19,0.07-0.36,0.1-0.51,0.1c-0.31,0-0.58-0.14-0.82-0.43
			c-0.15-0.18-0.22-0.43-0.22-0.73v-6.45c0-0.24,0.1-0.42,0.31-0.54c0.12-0.07,0.25-0.1,0.4-0.1c0.22,0,0.4,0.06,0.54,0.19
			C69.41,146.57,69.47,146.72,69.47,146.9z"/>
		<path d="M78.89,146.92c0.28,0,0.67,0.24,1.16,0.73c0.69,0.69,1.04,1.23,1.04,1.62c0,0.27-0.12,0.47-0.36,0.63
			c-0.17,0.11-0.34,0.16-0.52,0.16c-0.21,0-0.38-0.09-0.51-0.27c-0.03-0.04-0.08-0.13-0.14-0.27c-0.26-0.59-0.61-1.16-1.06-1.73
			c-0.1-0.13-0.15-0.25-0.15-0.38c0-0.14,0.05-0.26,0.16-0.35C78.63,146.97,78.75,146.92,78.89,146.92z M85.4,146.49
			c0.12,0,0.23,0.02,0.34,0.06c0.3,0.12,0.45,0.35,0.45,0.69c0,0.16-0.04,0.43-0.13,0.82c-0.57,2.46-1.84,4.42-3.82,5.88
			c-0.45,0.33-0.91,0.61-1.37,0.84c-0.2,0.1-0.37,0.14-0.51,0.14c-0.18,0-0.31-0.07-0.41-0.21c-0.08-0.11-0.12-0.22-0.12-0.33
			c0-0.16,0.06-0.3,0.19-0.42c0.04-0.04,0.26-0.2,0.66-0.46c0.53-0.35,1.07-0.83,1.62-1.43c1.3-1.41,2.09-3.04,2.38-4.89
			C84.75,146.73,84.99,146.49,85.4,146.49z"/>
		<path d="M93.38,150.28v4.34c0,0.21-0.07,0.37-0.2,0.48c-0.13,0.11-0.29,0.16-0.5,0.16c-0.47,0-0.71-0.21-0.71-0.64v-8.28
			c0-0.42,0.24-0.63,0.71-0.63c0.31,0,0.52,0.11,0.63,0.32c0.05,0.09,0.07,0.2,0.07,0.32v2.72c1.32,0.34,2.34,0.76,3.07,1.24
			c0.32,0.21,0.48,0.46,0.48,0.76c0,0.2-0.07,0.36-0.2,0.5c-0.14,0.15-0.31,0.23-0.52,0.23c-0.18,0-0.4-0.09-0.66-0.27
			C94.94,151.1,94.22,150.69,93.38,150.28z"/>
	</g>
</g>
<g id="ガイド" display="none">
</g>
</svg>
