<?xml version="1.0" encoding="utf-8"?>
<!-- Generator: Adobe Illustrator 25.4.1, SVG Export Plug-In . SVG Version: 6.00 Build 0)  -->
<svg version="1.1" xmlns="http://www.w3.org/2000/svg" xmlns:xlink="http://www.w3.org/1999/xlink" x="0px" y="0px"
	 viewBox="0 0 164.41 252.28" enable-background="new 0 0 164.41 252.28" xml:space="preserve">
<g id="地">
	<rect fill="#DCDDDD" width="164.41" height="252.28"/>
</g>
<g id="枠">
</g>
<g id="国旗">
	<g>
		<g>
			<rect x="25.51" y="59.91" fill="#FFFFFF" width="113.39" height="75.59"/>
			<rect x="25.51" y="59.91" fill="#C01734" width="113.39" height="18.33"/>
			<rect x="25.51" y="117.17" fill="#C01734" width="113.39" height="18.33"/>
			<polygon fill="#8E3222" points="79.41,95.25 79.23,96.71 79.64,96.93 79.8,95.26 			"/>
			<path fill="#8E3222" d="M81.53,81.53c0,0-0.29,21.11-2.22,22.49c0,0-0.96-0.38-0.67-2.93c0.28-2.45-0.96,0.08-0.96,0.08
				s0.46,3.06,0.21,3.06c-0.25,0-2.3-2.05-2.18-4.06c0.13-2.01-0.88,0.75-0.88,0.75s0.8,2.43,1.51,2.89
				c0.71,0.46-1.47,0.46-2.55-1.51c-1.09-1.97-0.84,1.59-0.84,1.59s1.26,0.96,1.88,1.05c0.63,0.08,3.18,1.63,3.14,3.69
				c-0.04,2.05-1.42,2.64-1.84,3.22c-0.42,0.59-1.21,1.72-1.21,1.93c0,0.21,0.54-0.21,1.21-0.13c0.67,0.08,1.76,1.3,3.02,1.21
				c1.26-0.08,1.26-1.21,2.01-1.13c0.75,0.08,2.01,1.17,2.72,1.17c0.71,0,0.71-0.59,1.17-0.38c0.46,0.21,0.71,0.08,1.21-0.29
				c0.5-0.38,1.09-1.13,1.93-0.84c0.84,0.29,1.97,1.13,2.72,1.21c0.75,0.08,1.38-0.04,1.3-0.21c-0.08-0.17-1.01-1.76-1.63-1.84
				c-0.63-0.08-2.09-2.05-2.51-2.14c-0.42-0.08-1.26-0.25-1.26-2.18c0-1.93,1.59-4.4,2.35-4.86c0.75-0.46,2.81-1.59,3.14-1.76
				c0.34-0.17-0.67-0.42-1.17-0.34c-0.5,0.08-2.22,1.21-2.26,0.8c-0.04-0.42-0.17-1.67-0.38-1.51c-0.21,0.17-0.21,0.17-0.21,0.17
				s-0.54,2.26-0.84,2.35c-0.29,0.08-0.42-1.42-0.17-2.18c0.25-0.75-0.38-1.34-0.54-0.8c-0.17,0.54-0.29,2.26-0.63,2.68
				c-0.33,0.42-0.84,1.38-1.38,1.05c-0.54-0.33,0.38-9.67-0.92-12.81c0,0-0.46-8.75-0.17-9.76L81.53,81.53z"/>
			<path fill="#8E3222" d="M87.47,99.04c0,0,0.8-10.93,0.17-12.65l0.5,0.04c0,0,0.54,5.23-0.38,12.81L87.47,99.04z"/>
			<path fill="#8E3222" d="M85.8,93.42c0,0,1.09-7.2,0.54-10.34l0.5-0.04c0,0,0.42,4.4-0.59,10.43L85.8,93.42z"/>
			<path fill="#8E3222" d="M89.48,86.18c0,0,0,0.09-0.01,0.25c-0.02,0.81-0.06,3.34,0.22,3.73c0.33,0.46,0.67-0.38,0.67-0.38
				s-0.59,1.05-0.5-3.06L89.48,86.18z"/>
			<path fill="#8E3222" d="M91.54,86.98c0,0-0.17,3.06-1.26,3.69l0.92-0.67c0,0,0.92-1.42,0.75-3.14L91.54,86.98z"/>
			<path fill="#8E3222" d="M90.28,95.02l0.54-0.21c0,0-0.8-2.01-0.63-3.69C90.36,89.45,89.53,93.68,90.28,95.02z"/>
			<path fill="#8E3222" d="M95.35,92.04c0,0,0.38,6.66-0.88,8.92l0.38,0.13c0,0,1.13,0.54,1.17-9.3L95.35,92.04z"/>
			<path fill="#8E3222" d="M93.92,96.65c0,0,0,2.81-0.42,3.39l-1.05-0.54c0,0,0.38-1.97,0.34-2.76
				C92.75,95.94,93.92,96.65,93.92,96.65z"/>
			<path fill="#8E3222" d="M91.87,96.57c0,0,0.04,1.8-0.08,2.39c-0.13,0.59-0.8,0.67-0.8,0.67s0.59-1.84,0.46-2.97
				C91.33,95.52,91.87,96.57,91.87,96.57z"/>
			<path fill="#8E3222" d="M90.03,96.23c0,0-0.08,3.02-0.33,3.81l-0.63-0.17c0,0,0.17-2.72,0.17-3.89S90.03,96.23,90.03,96.23z"/>
			<path fill="#8E3222" d="M85.3,82.87c0,0,0,2.3-0.42,2.76c-0.42,0.46-0.71-0.17-0.71-0.17s1.34-2.14,0.29-3.43
				C83.41,80.74,85.3,82.87,85.3,82.87z"/>
			<polygon fill="#8E3222" points="80.98,82.54 80.82,85.8 80.52,85.8 80.65,82.41 			"/>
			<path fill="#8E3222" d="M79.98,86.43l-0.33,3.77h-0.29l0.25-3.43l-0.71,0.38c0,0-0.84,2.85-1.42,3.18
				c-0.59,0.33-0.25-0.21-0.25-0.21s1.34-2.51,1.42-3.1c0.08-0.59-1.88-0.04-1.88-0.04s0.08,2.81-0.13,3.48
				c-0.21,0.67-0.42-0.13-0.42-0.13s0.21-2.18,0.21-2.85c0-0.67-1.09,0.29-1.09,0.29s-0.29,2.51-0.5,2.93
				c-0.21,0.42-0.67-0.13-0.67-0.13s0.96-1.42,0.96-2.81c0-1.38,0.92-1.68,0.92-1.68l2.26-0.42L79.98,86.43z"/>
			<polygon fill="#8E3222" points="76.75,94.64 76.96,94.14 76.92,97.95 76.42,97.74 76.46,95.23 			"/>
			<polygon fill="#8E3222" points="74.16,94.89 73.82,97.4 73.11,97.53 73.36,95.23 			"/>
			<path fill="#1F8748" d="M74.66,102.64c-0.25,0-1.8,2.05-2.22,2.22s-2.89-0.17-3.14,0c-0.25,0.17-1.76,0.42-1.76,0.42
				s1.63-1.34,2.26-1.8c0,0-1.3-0.46-1.93-0.46c-0.63,0-2.18,0.42-2.35,0.42c-0.17,0-1.55-0.38-1.8-0.21
				c-0.25,0.17-2.01,0.88-2.81,0.88c0,0,2.6-1.38,2.85-2.01c0,0-1.3,0.21-1.59,0.21c0,0,2.89-1.09,3.1-1.51l-0.8-0.04
				c0,0,2.26-1.05,2.64-1.42c0.38-0.38,2.89-1.93,3.22-2.01c0.34-0.08,1.47,0.21,1.84,0.21c0.38,0,0.59-0.54,0.92-0.59
				c0.34-0.04,6.37-1.09,8.54-0.75c2.18,0.33,3.39,1.05,4.4,1.13c1.01,0.08,2.47,1.72,2.89,1.72c0.42,0,2.68-1.05,3.56-0.88
				c0.88,0.17,1.3,0.67,1.55,0.67c0.25,0,0.25-0.67,0.59-0.5c0.33,0.17,1.72,0.75,2.35,0.75c-0.29-0.38-1.01-1.13-1.72-1.13
				c-0.71,0-0.92-0.42-1.76-0.42c-0.84,0-2.51-0.13-2.85-0.29c-0.33-0.17-0.75,0.04-1.42-0.29c-0.67-0.33-1.42-0.38-1.76-0.75
				c-0.33-0.38-1.09-1.3-1.8-1.38c-0.71-0.08-1.51,0.38-2.26,0.42c-0.75,0.04-2.43,0.17-2.81,0.04c0,0,1.09-1.55,1.8-1.72
				c0.71-0.17,2.01-0.34,2.35-0.59c0.34-0.25,2.43-0.5,3.56-0.42c1.13,0.08,2.85,0.5,3.81,0.34c-1.09-0.29-2.09-0.54-2.72-0.88
				c-0.63-0.33-1.8-0.67-2.26-0.67c-0.46,0-0.8,0.21-1.09,0.21c-0.29,0-0.59-0.25-0.8-0.21c-0.21,0.04-0.54,1.01-1.76,1.09
				c-1.21,0.08-1.84,0.46-2.09,0.46c-0.25,0-0.67,0.08-1.01,0.17c-0.34,0.08-1.09,1.59-1.76,1.63c0,0,0.8,0.43,1.82,0.63
				c0,0-1.95,0.17-2.62,0.17c-0.67,0-2.18,0.38-2.64,0.25c-0.46-0.13-0.75-0.17-0.92-0.13c-0.17,0.04-0.38,0.21-0.67,0.25
				c-0.29,0.04-1.05,0.21-1.3,0.29c-0.25,0.08-0.96,0.63-1.76,0.59c-0.8-0.04-1.59,0.21-2.01,0.42c0,0,0.63-0.8,0.71-1.21
				c0,0-1.42,0.33-1.93,0.21c0,0,2.72-1.05,2.85-1.55c0.13-0.5,1.3-0.63,1.63-0.8c0.33-0.17,3.73-0.8,5.15-0.71
				c1.42,0.08,2.01-0.38,2.3-0.67c0,0-1.34-0.21-2.35-0.25c-1.01-0.04-1.76,0.25-2.76,0.25c-1.01,0-2.22,0.54-2.68,0.54
				s-2.72-0.04-3.06-0.04c0,0,1.97-1.68,2.22-2.09c0.25-0.42,2.89-0.84,3.85-1.09c0.96-0.25,4.48-0.29,4.82-0.5
				c0.34-0.21,3.35-0.21,3.94-0.38c0.59-0.17,2.3,0.38,3.48,0.38c1.17,0,2.81-0.33,3.69,0c0.88,0.33,4.36,1.21,5.23,1.42
				c0.88,0.21,0.21,1.13,0.71,1.3c0.5,0.17,1.13,0.75,1.8,0.75c0,0-2.39,0.38-3.1,0.25c0,0-0.13,0.75,0.8,0.92
				c0.92,0.17,2.35,1.55,2.81,1.63c0.46,0.08-0.46,0.67-0.92,0.59c-0.46-0.08-0.46,0.92,0.8,1.21c1.26,0.29,1.97,1.8,2.39,1.93
				c0,0-1.88,0.17-2.6-0.13c0,0,0.29,1.34,1.09,1.38c0.8,0.04,1.47,0.71,2.05,0.84c0,0-0.59,0-1.05-0.25c0,0,0.25,0.54,1.17,0.96
				c0.92,0.42,1.17,1.17,1.47,1.3c0,0-0.71,0.17-1.09-0.04c0,0,0.46,0.67,0.88,0.63c0,0-0.8,0.63-1.55,0.63
				c-0.75,0-1.84-0.84-2.47-1.13c-0.63-0.29-1.88-0.08-2.14-0.13c-0.25-0.04-2.18-0.25-3.02-0.67c0,0,0.67,1.01,1.3,1.21
				c0.63,0.21,2.39,1.05,3.31,1.01c0,0-3.14,0.5-3.73,0.25c-0.59-0.25-1.05-0.5-1.59-0.5c-0.54,0-0.54,0-0.54,0
				s-1.01-0.84-1.63-0.88c-0.63-0.04-1.26-0.25-1.72-0.67c-0.46-0.42-1.01-1.01-1.47-1.01s-1.21,0.08-2.05-0.04
				c-0.84-0.13-1.01,0.54-1.26,0.42c-0.25-0.13-1.13-0.59-1.59-0.54c-0.46,0.04-1.05,0.42-1.97,0.38c-0.92-0.04-1.13-0.42-1.51-0.25
				c-0.38,0.17-0.5,0.8-1.05,0.71c-0.54-0.08-0.75-0.38-0.96-0.38c-0.21,0-0.63,0.54-1.09,0.21C75.67,102.22,75,102.64,74.66,102.64
				z"/>
			<path fill="#1F8748" d="M95.47,87.52c0.39,0.1-2.64,0.33-3.35,0.33c-0.4,0-1.72-0.11-2.85-0.08c-0.9,0.02-1.65,0.21-1.93,0.08
				c-0.63-0.29-0.63-0.29-0.63-0.29s-0.08-0.13-0.5-0.13c-0.42,0-1.01,0.29-1.84,0.29c-0.84,0-1.42,0.46-2.34,0.38
				c-0.92-0.08-1.3-0.8-1.76-0.67c-0.46,0.13-1.63,0.38-2.18,0.38s-1.63,0.75-2.3,0.67c-0.67-0.08-1.17-0.33-1.68-0.21
				c-0.5,0.13-0.88,0.25-1.21,0.25c-0.33,0-0.84-0.29-1.21-0.21c-0.38,0.08-1.26,0.08-1.59,0.08c0,0,1.09-0.67,2.09-1.51
				c1.01-0.84,1.68-0.25,2.51-0.8c0.84-0.54,2.55-0.92,2.81-1.42c0.25-0.5-0.67-0.63-1.17-0.63c-0.5,0-1.59,0.21-2.3,0.21
				c0,0,0.67-0.54,1.17-1.01c0.5-0.46,1.09-0.38,1.55-0.88c0.46-0.5,2.18-0.38,2.47-0.75c0,0-1.47-0.08-1.84-0.33
				c0,0,0.8-0.5,1.05-1.09c0.25-0.59,1.42,0.04,2.18-0.75c0.75-0.8,1.84-0.88,2.09-1.13c0.59,0.08,1.84,1.38,3.1,1.42
				c1.26,0.04,1.42,0.71,2.05,0.92c0,0-1.05,1.17-1.63,1.3c0,0,1.38,0.21,1.72,0c0.33-0.21,1.09,0.38,1.26,0.59s1.05,0.88,1.38,0.88
				c0,0-0.67,0.46-1.13,0.46c0,0,0.13,0.59,0.8,0.92c0.67,0.34,1.67,1.13,2.47,1.17C93.51,86.01,94.8,87.35,95.47,87.52z"/>
			<path fill="#FFFFFF" d="M72.15,102.65c-0.34-0.03-1.02,0.64-0.83,0.64C71.51,103.29,72.53,102.69,72.15,102.65z"/>
			<path fill="#FFFFFF" d="M70.12,98.8c0.41-0.05,1.47,0.08,1.73,0.15c0.26,0.08,0.08,0.53-0.49,0.53
				C70.79,99.48,69.78,98.84,70.12,98.8z"/>
			<path fill="#FFFFFF" d="M75.62,98.24c-0.33-0.06-0.98-0.19-1.28-0.23c-0.3-0.04-0.83-0.41-0.64-0.41c0.19,0,0.87,0.19,1.24,0.3
				C75.32,98.01,75.84,98.28,75.62,98.24z"/>
			<path fill="#FFFFFF" d="M79.05,97.86c-0.52-0.09-0.87-0.38-1.13-0.45c-0.26-0.08,0.19-0.23,0.45-0.11
				C78.63,97.41,79.27,97.9,79.05,97.86z"/>
			<path fill="#FFFFFF" d="M82.4,90.29c-0.24,0-2.41,0.41-2.71,0.41c-0.3,0-0.15,0.6,0.15,0.6c0.13,0,0.78,0.07,1.21-0.04
				c0.55-0.14,0.91-0.46,1.05-0.57C82.36,90.52,82.7,90.29,82.4,90.29z"/>
			<path fill="#FFFFFF" d="M91.06,94.36c-0.24,0.19-1.73,0.34-2.22,0c-0.49-0.34-1.21-0.57-1.62-0.57c-0.41,0-1.02-0.41-0.49-0.45
				c0.53-0.04,2.9-0.26,3.35,0.11C90.54,93.83,91.25,94.21,91.06,94.36z"/>
			<path fill="#FFFFFF" d="M94.3,95.41c-0.68,0.1-1.13-0.53-1.47-0.83c-0.34-0.3-0.08-0.75,0.38-0.41
				C93.66,94.51,94.57,95.38,94.3,95.41z"/>
			<path fill="#FFFFFF" d="M83.79,85.62c-0.42,0-1.32,0.3-1.77,0.3c-0.45,0-0.6,0.64-0.04,0.64c0.57,0,1.13-0.34,1.58-0.34
				C84.02,86.22,84.21,85.62,83.79,85.62z"/>
		</g>
	</g>
</g>
<g id="国名">
	<g>
		<path d="M63.8,146.9v5.65c0,0.16,0.04,0.24,0.11,0.24c0.13,0,0.48-0.16,1.05-0.46c1.28-0.71,2.36-1.53,3.24-2.47
			c0.16-0.17,0.33-0.25,0.52-0.25c0.13,0,0.24,0.04,0.34,0.13c0.13,0.11,0.2,0.25,0.2,0.43c0,0.15-0.06,0.31-0.19,0.48
			c-0.69,0.93-1.64,1.8-2.86,2.6c-0.79,0.52-1.55,0.91-2.29,1.17c-0.19,0.07-0.36,0.1-0.51,0.1c-0.31,0-0.58-0.14-0.82-0.43
			c-0.15-0.18-0.22-0.43-0.22-0.73v-6.45c0-0.24,0.1-0.42,0.31-0.54c0.12-0.07,0.25-0.1,0.4-0.1c0.22,0,0.4,0.06,0.54,0.19
			C63.74,146.57,63.8,146.72,63.8,146.9z"/>
		<path d="M74.6,148.33c0.11,0,0.22,0.02,0.32,0.07c0.29,0.13,0.44,0.35,0.44,0.65c0,0.27-0.17,0.73-0.51,1.37
			c-0.46,0.88-1.03,1.65-1.72,2.32c-0.5,0.49-0.87,0.74-1.12,0.74c-0.14,0-0.27-0.06-0.38-0.19c-0.09-0.1-0.14-0.21-0.14-0.34
			c0-0.15,0.08-0.32,0.23-0.49c0.9-0.99,1.62-2.18,2.14-3.59C73.99,148.51,74.24,148.33,74.6,148.33z M78.19,148.1
			c0.18,0,0.39,0.12,0.63,0.35c0.58,0.56,1.14,1.25,1.68,2.07c0.61,0.91,0.91,1.54,0.91,1.9c0,0.27-0.12,0.48-0.35,0.63
			c-0.15,0.09-0.29,0.14-0.43,0.14c-0.29,0-0.51-0.13-0.65-0.38c-0.02-0.03-0.07-0.13-0.16-0.32c-0.65-1.38-1.34-2.54-2.06-3.46
			c-0.1-0.12-0.15-0.26-0.15-0.42c0-0.15,0.06-0.27,0.17-0.37C77.91,148.15,78.04,148.1,78.19,148.1z M79.36,146.57
			c0.21,0,0.54,0.21,0.99,0.62c0.39,0.35,0.58,0.63,0.58,0.83c0,0.14-0.06,0.27-0.19,0.37c-0.1,0.08-0.21,0.12-0.33,0.12
			c-0.17,0-0.31-0.1-0.43-0.29c-0.21-0.34-0.47-0.68-0.79-1.01c-0.1-0.11-0.16-0.22-0.16-0.33
			C79.04,146.67,79.15,146.57,79.36,146.57z M80.34,145.68c0.22,0,0.54,0.18,0.96,0.53c0.39,0.32,0.58,0.6,0.58,0.83
			c0,0.16-0.06,0.28-0.18,0.38c-0.09,0.07-0.19,0.1-0.3,0.1c-0.16,0-0.3-0.09-0.42-0.28c-0.2-0.3-0.46-0.61-0.79-0.92
			c-0.12-0.11-0.18-0.22-0.18-0.33c0-0.07,0.03-0.14,0.09-0.21C80.16,145.71,80.24,145.68,80.34,145.68z"/>
		<path d="M89.73,146.13c0.2,0,0.38,0.06,0.54,0.17c0.18,0.13,0.27,0.31,0.27,0.55c0,0.12-0.05,0.37-0.16,0.75
			c-0.56,2.03-1.52,3.72-2.89,5.05c-0.78,0.76-1.58,1.34-2.43,1.74c-0.18,0.08-0.34,0.13-0.48,0.13c-0.15,0-0.28-0.06-0.38-0.18
			c-0.1-0.12-0.14-0.24-0.14-0.37c0-0.16,0.07-0.29,0.21-0.4c0.04-0.03,0.24-0.17,0.6-0.42c0.67-0.45,1.34-1.09,2-1.9
			c1.09-1.34,1.82-2.84,2.19-4.5C89.16,146.34,89.38,146.13,89.73,146.13z"/>
		<path d="M96.09,146.82c0.15,0,0.41,0.07,0.78,0.2c0.69,0.24,1.26,0.53,1.71,0.86c0.24,0.17,0.35,0.39,0.35,0.65
			c0,0.14-0.05,0.29-0.14,0.43c-0.14,0.21-0.33,0.32-0.56,0.32c-0.2,0-0.43-0.09-0.67-0.28c-0.62-0.49-1.18-0.88-1.68-1.16
			c-0.25-0.14-0.38-0.31-0.38-0.51C95.5,146.99,95.69,146.82,96.09,146.82z M103.21,148.59c0.13,0,0.25,0.04,0.36,0.13
			c0.15,0.11,0.23,0.26,0.23,0.45c0,0.15-0.06,0.32-0.18,0.5c-0.85,1.27-1.97,2.37-3.36,3.3c-1.16,0.77-2.35,1.32-3.59,1.66
			c-0.13,0.03-0.24,0.05-0.34,0.05c-0.31,0-0.54-0.14-0.67-0.43c-0.06-0.13-0.09-0.25-0.09-0.37c0-0.27,0.13-0.47,0.4-0.6
			c0.06-0.03,0.3-0.1,0.74-0.23c1.59-0.47,3.06-1.3,4.43-2.51c0.52-0.47,1.02-1,1.48-1.59C102.8,148.7,103,148.59,103.21,148.59z"/>
	</g>
</g>
<g id="ガイド" display="none">
</g>
</svg>
