<?xml version="1.0" encoding="utf-8"?>
<!-- Generator: Adobe Illustrator 25.4.1, SVG Export Plug-In . SVG Version: 6.00 Build 0)  -->
<svg version="1.1" xmlns="http://www.w3.org/2000/svg" xmlns:xlink="http://www.w3.org/1999/xlink" x="0px" y="0px"
	 viewBox="0 0 164.41 252.28" enable-background="new 0 0 164.41 252.28" xml:space="preserve">
<g id="地">
	<rect fill="#DCDDDD" width="164.41" height="252.28"/>
</g>
<g id="枠">
</g>
<g id="国旗">
	<g>
		<g>
			<rect x="25.51" y="59.91" fill="#FFFFFF" width="113.39" height="75.59"/>
			<rect x="25.51" y="110.3" fill="#D0102A" width="113.39" height="25.2"/>
			<rect x="25.51" y="85.11" fill="#054A85" width="113.39" height="25.2"/>
		</g>
	</g>
</g>
<g id="国名">
	<g>
		<path d="M67.98,147.57l0.38-0.03c3.25-0.24,5-0.37,5.24-0.37c0.33,0,0.61,0.11,0.83,0.33c0.21,0.2,0.31,0.46,0.31,0.78
			c0,0.21-0.21,1.41-0.62,3.59l-0.06,0.28c0.25,0.1,0.38,0.33,0.38,0.67c0,0.33-0.17,0.53-0.5,0.6c-0.06,0.01-0.22,0.02-0.48,0.02
			c-1.92,0-3.48,0.05-4.67,0.16c-0.1,0.31-0.35,0.47-0.74,0.47c-0.28,0-0.48-0.14-0.58-0.43c-0.02-0.07-0.05-0.26-0.08-0.58
			c-0.07-0.67-0.26-2.02-0.55-4.07c-0.08-0.58-0.13-0.9-0.13-0.96c0-0.3,0.13-0.5,0.39-0.61c0.12-0.05,0.25-0.08,0.39-0.08
			C67.68,147.33,67.85,147.41,67.98,147.57z M72.75,152.12c0.18-1.05,0.34-2.14,0.5-3.27c0.01-0.07,0.02-0.12,0.02-0.16
			c0-0.13-0.07-0.19-0.22-0.19c-0.23,0-1.43,0.09-3.6,0.26c-0.41,0.03-0.81,0.07-1.22,0.09c0.15,1.33,0.29,2.48,0.43,3.47l0.36-0.02
			C70.62,152.22,71.86,152.15,72.75,152.12z"/>
		<path d="M78.36,148.77c0.23,0,0.56,0.08,1.01,0.24c0.52,0.19,0.95,0.41,1.3,0.66c0.24,0.18,0.36,0.39,0.36,0.65
			c0,0.16-0.06,0.31-0.17,0.45c-0.14,0.19-0.33,0.29-0.56,0.29c-0.17,0-0.35-0.08-0.56-0.25c-0.42-0.34-0.95-0.7-1.61-1.07
			c-0.22-0.13-0.33-0.28-0.33-0.48c0-0.09,0.02-0.17,0.07-0.26C77.96,148.85,78.13,148.77,78.36,148.77z M86.23,148.4
			c0.11,0,0.21,0.03,0.32,0.09c0.18,0.11,0.28,0.27,0.28,0.48c0,0.21-0.17,0.6-0.52,1.18c-0.57,0.96-1.35,1.83-2.34,2.63
			c-1.18,0.95-2.48,1.67-3.92,2.16c-0.16,0.06-0.3,0.08-0.41,0.08c-0.29,0-0.51-0.13-0.64-0.4c-0.07-0.13-0.1-0.26-0.1-0.38
			c0-0.28,0.13-0.48,0.38-0.62c0.04-0.02,0.28-0.11,0.72-0.26c1.2-0.42,2.31-1.04,3.35-1.87c1-0.79,1.77-1.68,2.31-2.67
			C85.81,148.54,86,148.4,86.23,148.4z M79.7,146.26c0.34,0,0.9,0.24,1.68,0.72c0.24,0.14,0.41,0.26,0.52,0.35
			c0.21,0.17,0.32,0.38,0.32,0.61c0,0.16-0.06,0.3-0.17,0.44c-0.17,0.2-0.36,0.3-0.58,0.3c-0.19,0-0.38-0.1-0.58-0.3
			c-0.32-0.34-0.81-0.73-1.44-1.2c-0.2-0.14-0.29-0.3-0.29-0.46c0-0.09,0.03-0.18,0.08-0.26C79.33,146.33,79.49,146.26,79.7,146.26z
			"/>
		<path d="M97,146.52c0.24,0,0.46,0.06,0.66,0.18c0.27,0.17,0.4,0.41,0.4,0.72c0,0.2-0.08,0.44-0.25,0.74
			c-0.47,0.82-1.06,1.53-1.76,2.15c-0.4,0.34-0.7,0.51-0.91,0.51c-0.15,0-0.28-0.07-0.38-0.2c-0.07-0.1-0.11-0.19-0.11-0.28
			c0-0.15,0.09-0.31,0.28-0.49c0.56-0.54,0.99-1.08,1.28-1.63c0.08-0.15,0.12-0.25,0.12-0.3c0-0.06-0.05-0.09-0.15-0.09
			c-0.09,0-0.21,0-0.35,0.02c-0.08,0.01-0.33,0.02-0.75,0.05c-0.31,0.02-1.66,0.13-4.02,0.33c-0.8,0.07-1.23,0.1-1.29,0.1
			c-0.47,0-0.7-0.22-0.7-0.65c0-0.37,0.19-0.59,0.56-0.66c0.04-0.01,1.36-0.1,3.94-0.28C95.8,146.6,96.95,146.52,97,146.52z
			 M93.43,148.82c0.19,0,0.36,0.06,0.51,0.18c0.09,0.07,0.15,0.15,0.18,0.24c0.04,0.11,0.06,0.3,0.06,0.57
			c0,0.99-0.07,1.76-0.22,2.33c-0.32,1.22-1.05,2.18-2.18,2.86c-0.18,0.11-0.34,0.16-0.48,0.16c-0.17,0-0.29-0.06-0.38-0.17
			c-0.08-0.1-0.12-0.21-0.12-0.33c0-0.14,0.05-0.27,0.16-0.4c0.04-0.06,0.16-0.17,0.36-0.33c0.7-0.57,1.13-1.33,1.31-2.31
			c0.08-0.48,0.13-1.09,0.13-1.82l-0.01-0.3c0-0.28,0.1-0.47,0.31-0.59C93.18,148.85,93.3,148.82,93.43,148.82z"/>
	</g>
</g>
<g id="ガイド" display="none">
</g>
</svg>
