<?xml version="1.0" encoding="utf-8"?>
<!-- Generator: Adobe Illustrator 25.4.1, SVG Export Plug-In . SVG Version: 6.00 Build 0)  -->
<svg version="1.1" xmlns="http://www.w3.org/2000/svg" xmlns:xlink="http://www.w3.org/1999/xlink" x="0px" y="0px"
	 viewBox="0 0 164.41 252.28" enable-background="new 0 0 164.41 252.28" xml:space="preserve">
<g id="地">
	<rect fill="#DCDDDD" width="164.41" height="252.28"/>
</g>
<g id="枠">
</g>
<g id="国旗">
	<g>
		<g>
			<rect x="25.51" y="60" fill="#E7211A" width="113.39" height="75.59"/>
			<path fill="#F9F7C1" d="M87.17,76.59c1.1,0,1.51,0.49,1.51,0.49c0-0.93-2.41-3.16-5.41-3.16c-3,0-8.28,1.45-8.28,10.38
				c0,7.52,4.53,11.47,5.96,12.53c-0.52-0.84-1.6-2.91-1.61-5.51c0-2.12,0.7-4.03,1.23-5.18l-0.93,0.34l0.78-1.16l-0.87-1.1
				l1.35,0.38l0.78-1.16l0.05,1.4l1.35,0.38l-1.31,0.48l0.05,1.4l-0.79-1.01c-0.52,1.08-1.3,3.06-1.3,5.23
				c0,1.62,0.45,3.05,0.9,4.07c0.23,0.53,0.47,0.94,0.64,1.22c-0.1-0.55-0.24-1.46-0.24-2.36c0-1.42,1.05-3,3.02-3.7
				c2.22-0.79,3.58-3.35,3.58-5.99c0-2.64-2.07-3.95-2.19-5.61C85.34,77.65,86.08,76.59,87.17,76.59z"/>
			<path fill="#F9F7C1" d="M103.91,96.01c0.34,1.04,0,1.59,0,1.59c0.89-0.29,2.26-3.27,1.34-6.12c-0.92-2.85-3.93-7.43-12.42-4.69
				c-7.16,2.31-9.52,7.84-10.09,9.52c0.64-0.75,2.28-2.42,4.75-3.22c2.01-0.65,4.05-0.57,5.31-0.42l-0.61-0.78l1.35,0.38l0.78-1.16
				l0.05,1.4l1.35,0.38l-1.31,0.48l0.05,1.4l-0.86-1.1l-1.31,0.48l0.72-1.06c-1.19-0.16-3.31-0.3-5.38,0.37
				c-1.54,0.5-2.76,1.36-3.59,2.11c-0.43,0.39-0.75,0.73-0.97,0.98c0.49-0.27,1.32-0.68,2.17-0.96c1.35-0.44,3.18,0.08,4.45,1.74
				c1.43,1.88,4.29,2.37,6.8,1.56c2.51-0.81,3.12-3.19,4.66-3.81C102.34,94.58,103.57,94.96,103.91,96.01z"/>
			<path fill="#F9F7C1" d="M90.58,117.9c-0.89,0.64-1.51,0.49-1.51,0.49c0.55,0.76,3.81,1.15,6.24-0.61
				c2.43-1.75,5.87-6.02,0.64-13.26c-4.4-6.1-10.39-6.65-12.16-6.67c0.91,0.38,3,1.42,4.52,3.53c1.24,1.72,1.79,3.68,2.04,4.92
				l0.55-0.82l0.05,1.4l1.35,0.39l-1.32,0.48l0.05,1.4l-0.86-1.1l-1.32,0.48l0.78-1.16l-0.86-1.1l1.23,0.35
				c-0.21-1.18-0.74-3.24-2.01-5c-0.95-1.32-2.15-2.21-3.11-2.77c-0.5-0.29-0.93-0.49-1.23-0.62c0.4,0.39,1.05,1.04,1.58,1.77
				c0.83,1.15,0.91,3.05-0.29,4.77c-1.34,1.94-0.94,4.81,0.61,6.95c1.55,2.14,3.99,1.99,5.06,3.27
				C91.45,115.97,91.47,117.26,90.58,117.9z"/>
			<path fill="#F9F7C1" d="M65.65,111.94c-0.88-0.65-0.93-1.29-0.93-1.29c-0.55,0.75,0.08,3.97,2.49,5.75
				c2.42,1.77,7.53,3.73,12.81-3.46c4.45-6.06,3.14-11.93,2.61-13.62c-0.08,0.98-0.43,3.3-1.96,5.39c-1.25,1.7-2.95,2.84-4.06,3.45
				l0.95,0.27l-1.32,0.48l0.05,1.4l-0.86-1.1l-1.32,0.48l0.78-1.16l-0.86-1.1l1.35,0.39l0.78-1.16l0.04,1.28
				c1.06-0.56,2.86-1.7,4.14-3.45c0.96-1.31,1.44-2.72,1.68-3.81c0.12-0.57,0.18-1.04,0.21-1.36c-0.24,0.5-0.67,1.32-1.2,2.05
				c-0.84,1.14-2.62,1.8-4.62,1.19c-2.26-0.68-4.87,0.58-6.43,2.71c-1.56,2.13-0.66,4.41-1.55,5.82
				C67.76,112.18,66.53,112.59,65.65,111.94z"/>
			<path fill="#F9F7C1" d="M63.65,86.39c0.35-1.04,0.94-1.28,0.94-1.28c-0.89-0.29-3.76,1.3-4.7,4.14
				c-0.95,2.85-1.23,8.32,7.24,11.13c7.14,2.37,12.31-0.68,13.77-1.7c-0.96,0.23-3.27,0.6-5.73-0.21c-2.01-0.67-3.61-1.94-4.53-2.8
				l0.03,0.99l-0.86-1.11l-1.32,0.48l0.79-1.16l-0.86-1.11l1.34,0.39L70.54,93l0.04,1.4l1.35,0.39l-1.21,0.44
				c0.86,0.83,2.49,2.2,4.55,2.88c1.54,0.51,3.03,0.53,4.14,0.43c0.58-0.06,1.04-0.15,1.36-0.22c-0.55-0.08-1.46-0.23-2.32-0.52
				c-1.35-0.45-2.52-1.94-2.56-4.03c-0.04-2.36-2.05-4.45-4.56-5.28c-2.51-0.83-4.4,0.73-6.01,0.31
				C64.07,88.47,63.31,87.43,63.65,86.39z"/>
		</g>
	</g>
</g>
<g id="国名">
	<g>
		<path d="M77.94,148.73c0.95,0.64,2.07,1.21,3.35,1.72c0.32,0.12,0.48,0.25,0.48,0.37c0,0.09-0.09,0.17-0.26,0.22
			c-0.56,0.18-0.97,0.27-1.22,0.27c-0.14,0-0.27-0.04-0.39-0.1c-1.07-0.63-2-1.33-2.77-2.08v1.55c0,0.13-0.04,0.25-0.13,0.34
			c-0.12,0.13-0.29,0.2-0.51,0.2c-0.28,0-0.48-0.1-0.59-0.29c-0.04-0.07-0.06-0.16-0.06-0.25v-1.16c-0.54,0.52-1.29,1.04-2.25,1.55
			c-0.81,0.43-1.32,0.64-1.53,0.64c-0.18,0-0.32-0.08-0.4-0.23c-0.03-0.06-0.05-0.13-0.05-0.19c0-0.12,0.06-0.24,0.18-0.34
			c0.05-0.04,0.19-0.12,0.43-0.23c0.72-0.35,1.49-0.87,2.29-1.54c0.09-0.08,0.18-0.16,0.27-0.24l-2.34,0.15c-0.01,0-0.03,0-0.05,0
			c-0.21,0-0.36-0.08-0.45-0.25c-0.05-0.1-0.08-0.2-0.08-0.32c0-0.34,0.17-0.51,0.5-0.54l3.48-0.22V147
			c-1.09,0.16-1.85,0.23-2.3,0.23c-0.34,0-0.52-0.14-0.52-0.41c0-0.21,0.09-0.35,0.27-0.43c0.07-0.03,0.25-0.06,0.56-0.1
			c1.38-0.17,2.9-0.49,4.56-0.96c0.09-0.03,0.18-0.04,0.27-0.04c0.3,0,0.51,0.11,0.63,0.32c0.05,0.08,0.07,0.18,0.07,0.3
			c0,0.29-0.16,0.47-0.47,0.55c-0.4,0.1-0.99,0.21-1.79,0.34v0.86l3.39-0.21c0.14-0.01,0.27,0.03,0.39,0.11
			c0.13,0.09,0.19,0.23,0.19,0.43c0,0.36-0.17,0.55-0.5,0.58L77.94,148.73z M78.27,155.21l-3.34,0.14
			c-0.07,0.25-0.29,0.38-0.66,0.38c-0.43,0-0.65-0.17-0.67-0.52l-0.17-3.38l-0.01-0.04c-0.01-0.17,0.05-0.3,0.18-0.4
			c0.12-0.1,0.3-0.14,0.53-0.14c0.27,0,0.46,0.07,0.58,0.21l4.01-0.28c0.04,0,0.08-0.01,0.12-0.01c0.4,0,0.67,0.13,0.8,0.4
			c0.08,0.16,0.12,0.33,0.1,0.51l-0.01,0.06l-0.1,3.07c-0.03,0.35-0.26,0.52-0.69,0.52C78.51,155.73,78.28,155.56,78.27,155.21z
			 M78.35,152.73l0.02-0.35c-0.01-0.16-0.09-0.24-0.25-0.23l-3.27,0.21l0.02,0.59L78.35,152.73z M78.3,154.24l0.02-0.62l-3.43,0.21
			l0.02,0.6L78.3,154.24z"/>
		<path d="M83.08,148.39c0.18,0,0.47,0.1,0.87,0.3c0.22,0.11,0.41,0.22,0.58,0.34c0.21,0.16,0.32,0.35,0.32,0.57
			c0,0.15-0.05,0.29-0.15,0.43c-0.13,0.17-0.3,0.25-0.53,0.25c-0.2,0-0.39-0.1-0.57-0.29c-0.13-0.14-0.32-0.33-0.56-0.55
			c-0.06-0.05-0.12-0.11-0.2-0.19c-0.14-0.13-0.21-0.27-0.21-0.41c0-0.09,0.03-0.18,0.1-0.28C82.8,148.45,82.92,148.39,83.08,148.39
			z M84.61,151.22c0.12,0,0.23,0.03,0.33,0.09c0.16,0.09,0.24,0.25,0.24,0.47c0,0.1-0.03,0.26-0.09,0.48
			c-0.28,1.01-0.6,1.84-0.98,2.5c-0.15,0.26-0.36,0.39-0.61,0.39c-0.16,0-0.31-0.05-0.45-0.15c-0.18-0.12-0.27-0.29-0.27-0.51
			c0-0.14,0.07-0.33,0.2-0.57c0.37-0.67,0.73-1.41,1.08-2.25C84.19,151.37,84.37,151.22,84.61,151.22z M83.49,145.9
			c0.21,0,0.53,0.12,0.96,0.36c0.24,0.13,0.41,0.23,0.5,0.3c0.19,0.13,0.29,0.31,0.29,0.54c0,0.17-0.06,0.32-0.18,0.46
			c-0.14,0.16-0.31,0.24-0.52,0.24c-0.18,0-0.37-0.09-0.54-0.27c-0.11-0.11-0.27-0.26-0.48-0.45c-0.21-0.19-0.33-0.31-0.37-0.35
			c-0.1-0.11-0.15-0.23-0.15-0.36c0-0.1,0.03-0.19,0.09-0.28C83.19,145.96,83.32,145.9,83.49,145.9z M88.23,153.31v0.79
			c0,0.14,0.04,0.22,0.13,0.25c0.08,0.03,0.35,0.05,0.79,0.05c0.83,0,1.38-0.04,1.67-0.11c0.16-0.04,0.25-0.13,0.28-0.28
			c0.02-0.1,0.05-0.33,0.07-0.69c0.01-0.23,0.14-0.35,0.37-0.35c0.23,0,0.38,0.14,0.46,0.42c0.14,0.47,0.2,0.85,0.2,1.17
			c0,0.42-0.23,0.69-0.68,0.81c-0.38,0.1-1.12,0.15-2.2,0.15c-0.77,0-1.27-0.02-1.52-0.06c-0.36-0.06-0.6-0.2-0.7-0.43
			c-0.07-0.14-0.1-0.33-0.1-0.58v-1.2c-0.1-0.1-0.15-0.22-0.15-0.38c0-0.31,0.16-0.47,0.49-0.49l2.21-0.12l0.08-0.48
			c0.01-0.03,0.01-0.06,0.01-0.08c0.01-0.1-0.05-0.15-0.16-0.14l-0.04,0.01l-1.71,0.11c-0.23,0.01-0.38-0.06-0.47-0.23
			c-0.39,0.53-0.81,0.96-1.26,1.29c-0.19,0.14-0.34,0.21-0.47,0.21c-0.13,0-0.23-0.05-0.32-0.16c-0.07-0.07-0.1-0.16-0.1-0.26
			c0-0.16,0.11-0.35,0.33-0.58c0.55-0.56,1.04-1.21,1.47-1.95l-1.15,0.08c-0.17,0.01-0.3-0.03-0.4-0.13
			c-0.11-0.11-0.16-0.26-0.16-0.45c0-0.34,0.16-0.52,0.48-0.54l1.48-0.09l-0.08-0.95l-0.85,0.06c-0.04,0-0.06,0.01-0.07,0.01
			c-0.22,0-0.37-0.11-0.45-0.32c-0.03-0.08-0.04-0.16-0.04-0.25c0-0.31,0.16-0.48,0.48-0.5l0.84-0.07l-0.08-0.96
			c0-0.02-0.01-0.04-0.01-0.06c0-0.31,0.22-0.46,0.65-0.46c0.39,0,0.6,0.17,0.62,0.52l0.06,0.87l1.3-0.1l0.04-0.97
			c0.01-0.35,0.23-0.53,0.65-0.53c0.44,0,0.66,0.16,0.66,0.47c0,0,0,0.02-0.01,0.06l-0.07,0.87l0.79-0.06
			c0.37-0.03,0.56,0.16,0.56,0.56c0,0.33-0.15,0.5-0.45,0.53l-0.99,0.07l-0.07,0.97l1.73-0.11l0.04,0c0.35,0,0.52,0.17,0.52,0.51
			c0,0.38-0.16,0.58-0.48,0.6l-1.78,0.12c0.71,0.83,1.51,1.53,2.39,2.1c0.18,0.11,0.27,0.23,0.27,0.33c0,0.09-0.06,0.17-0.19,0.23
			c-0.35,0.17-0.67,0.25-0.96,0.25c-0.17,0-0.32-0.05-0.45-0.16c-0.23-0.18-0.53-0.49-0.9-0.94l-0.13,0.78
			c0.07,0.1,0.11,0.21,0.11,0.35c0,0.3-0.16,0.46-0.49,0.48L88.23,153.31z M89.67,149.84l-1.44,0.09c-0.15,0.28-0.29,0.54-0.43,0.76
			l2.21-0.17l0.06-0.01C89.91,150.25,89.77,150.03,89.67,149.84z M89.48,147.76l-1.18,0.08l0.06,0.96l1.09-0.07L89.48,147.76z"/>
	</g>
</g>
<g id="ガイド" display="none">
</g>
</svg>
