<?xml version="1.0" encoding="utf-8"?>
<!-- Generator: Adobe Illustrator 25.4.1, SVG Export Plug-In . SVG Version: 6.00 Build 0)  -->
<svg version="1.1" xmlns="http://www.w3.org/2000/svg" xmlns:xlink="http://www.w3.org/1999/xlink" x="0px" y="0px"
	 viewBox="0 0 164.41 252.28" enable-background="new 0 0 164.41 252.28" xml:space="preserve">
<g id="地">
	<rect fill="#DCDDDD" width="164.41" height="252.28"/>
</g>
<g id="枠">
</g>
<g id="国旗">
	<g>
		<g>
			<rect x="25.51" y="60" fill="#FFFFFF" width="113.39" height="75.59"/>
			<path fill="#00477E" d="M91.26,91.68c-7.09,0-9.05,6.11-9.05,6.11s-1.96,6.11-9.05,6.11c-5.64,0-10.51-3.89-9.81-13.61
				c-0.92,2.32-1.44,4.85-1.44,7.5c0,11.21,9.09,20.3,20.3,20.3c8.56,0,15.88-5.3,18.86-12.8C101.77,95.57,96.89,91.68,91.26,91.68z
				"/>
			<path fill="#C8152A" d="M82.2,77.5c-8.56,0-15.88,5.3-18.86,12.8c-0.7,9.72,4.17,13.61,9.81,13.61c7.09,0,9.05-6.11,9.05-6.11
				s1.96-6.11,9.05-6.11c5.64,0,10.51,3.89,9.81,13.61c0.92-2.32,1.44-4.85,1.44-7.5C102.5,86.58,93.42,77.5,82.2,77.5z"/>
			
				<rect x="46.97" y="79.93" transform="matrix(0.5618 -0.8273 0.8273 0.5618 -42.6806 82.1588)" fill="#040000" width="18.48" height="2.88"/>
			
				<rect x="43.17" y="77.09" transform="matrix(0.5618 -0.8273 0.8273 0.5618 -41.9991 77.7679)" fill="#040000" width="18.48" height="2.88"/>
			
				<rect x="39.36" y="74.25" transform="matrix(0.5618 -0.8273 0.8273 0.5618 -41.3176 73.3767)" fill="#040000" width="18.48" height="2.88"/>
			
				<rect x="109.91" y="68.75" transform="matrix(0.8297 -0.5582 0.5582 0.8297 -24.5727 75.436)" fill="#040000" width="2.88" height="18.48"/>
			
				<rect x="54.77" y="104.17" transform="matrix(0.8273 -0.5618 0.5618 0.8273 -54.0023 51.1616)" fill="#040000" width="2.88" height="18.48"/>
			
				<rect x="47.16" y="109.85" transform="matrix(0.8273 -0.5618 0.5618 0.8273 -58.506 47.8688)" fill="#040000" width="2.88" height="18.48"/>
			<polygon fill="#040000" points="103.33,71.99 100.94,73.6 105.59,80.51 107.97,78.88 			"/>
			<polygon fill="#040000" points="111.26,88.93 113.65,87.32 109.27,80.82 106.89,82.44 			"/>
			<polygon fill="#040000" points="111.43,67.05 109.04,68.66 113.42,75.16 115.8,73.54 			"/>
			<polygon fill="#040000" points="119.36,83.99 121.75,82.38 117.1,75.47 114.72,77.1 			"/>
			<polygon fill="#040000" points="48.41,107.8 46.02,109.41 50.57,116.11 52.93,114.46 			"/>
			<polygon fill="#040000" points="51.88,118.04 56.4,124.7 58.79,123.09 54.24,116.39 			"/>
			<polygon fill="#040000" points="113.65,107.45 111.26,105.84 106.92,112.29 109.29,113.93 			"/>
			<polygon fill="#040000" points="100.94,121.18 103.33,122.79 107.98,115.87 105.62,114.22 			"/>
			<polygon fill="#040000" points="117.7,109.92 115.31,108.32 110.81,115 113.18,116.64 			"/>
			<polygon fill="#040000" points="104.99,123.65 107.38,125.26 111.88,118.58 109.51,116.93 			"/>
			<polygon fill="#040000" points="121.75,112.4 119.36,110.79 114.71,117.7 117.07,119.35 			"/>
			<polygon fill="#040000" points="109.04,126.12 111.43,127.73 115.77,121.28 113.4,119.64 			"/>
		</g>
	</g>
</g>
<g id="国名">
	<g>
		<path d="M65.28,150.67c-0.49,1.48-1.32,2.7-2.48,3.64c-0.46,0.38-0.94,0.68-1.43,0.9c-0.17,0.08-0.32,0.12-0.45,0.12
			c-0.16,0-0.28-0.06-0.37-0.19c-0.08-0.11-0.12-0.22-0.12-0.33c0-0.14,0.06-0.26,0.18-0.37c0.04-0.03,0.16-0.12,0.38-0.26
			c0.62-0.39,1.21-0.94,1.77-1.66c0.44-0.56,0.77-1.11,0.99-1.65c0.13-0.3,0.25-0.68,0.36-1.12l-2.98,0.22c-0.01,0-0.03,0-0.04,0
			c-0.15,0-0.27-0.05-0.37-0.14c-0.12-0.12-0.18-0.29-0.18-0.5c0-0.42,0.18-0.64,0.55-0.67l3.22-0.23c0.03-0.44,0.05-0.88,0.05-1.31
			v-0.91c0-0.23,0.1-0.4,0.29-0.52c0.13-0.07,0.27-0.11,0.43-0.11c0.2,0,0.36,0.05,0.5,0.16c0.16,0.12,0.23,0.27,0.23,0.47v0.89
			c0,0.43-0.02,0.84-0.06,1.22l3.5-0.25l0.04,0c0.13-0.01,0.24,0.03,0.35,0.12c0.15,0.12,0.22,0.31,0.22,0.55
			c0,0.4-0.18,0.61-0.54,0.63l-3.38,0.25c0.4,0.81,0.96,1.64,1.66,2.5c0.92,1.11,1.76,1.88,2.54,2.32c0.25,0.14,0.38,0.28,0.38,0.42
			c0,0.11-0.08,0.19-0.25,0.23c-0.58,0.15-1.03,0.22-1.36,0.22c-0.27,0-0.49-0.08-0.65-0.24c-0.58-0.56-1.2-1.36-1.87-2.39
			C65.94,152.01,65.57,151.33,65.28,150.67z"/>
		<path d="M74.29,151.86v0.63l1.11-0.11c0.03,0,0.05-0.01,0.07-0.01c0.35,0,0.53,0.19,0.53,0.58c0,0.35-0.15,0.54-0.46,0.57
			l-1.25,0.12v1.42c0,0.13-0.04,0.23-0.12,0.32c-0.12,0.13-0.28,0.2-0.49,0.2c-0.25,0-0.43-0.09-0.55-0.28
			c-0.04-0.07-0.06-0.15-0.06-0.24v-1.29l-1.26,0.12c-0.03,0-0.05,0.01-0.07,0.01c-0.13,0-0.25-0.04-0.34-0.12
			c-0.13-0.11-0.19-0.27-0.19-0.48c0-0.35,0.15-0.54,0.46-0.57l1.4-0.13v-0.65l-0.36,0.03c-0.11,0.14-0.27,0.22-0.48,0.22
			c-0.2,0-0.34-0.08-0.43-0.25c-0.04-0.07-0.07-0.16-0.08-0.25l-0.16-2.86l-0.01-0.05c-0.01-0.22,0.07-0.38,0.25-0.49
			c0.09-0.05,0.2-0.08,0.32-0.08c0.17,0,0.31,0.06,0.42,0.17l0.53-0.06v-0.61l-0.89,0.09c-0.01,0-0.04,0-0.07,0
			c-0.23,0-0.38-0.09-0.47-0.27c-0.04-0.1-0.07-0.2-0.07-0.32c0-0.31,0.15-0.47,0.44-0.5l1.05-0.12v-0.75
			c0-0.18,0.08-0.32,0.25-0.42c0.11-0.06,0.23-0.09,0.36-0.09c0.17,0,0.31,0.05,0.43,0.14c0.12,0.09,0.18,0.22,0.18,0.37v0.61
			l0.76-0.08c0.02,0,0.04-0.01,0.06-0.01c0.23,0,0.39,0.1,0.48,0.3c0.03,0.08,0.04,0.16,0.04,0.25c0,0.33-0.15,0.51-0.46,0.54
			l-0.88,0.09v0.6l0.5-0.06c0.09-0.01,0.16-0.02,0.22-0.02c0.47,0,0.71,0.27,0.71,0.8c0,0.06,0,0.11-0.01,0.17l-0.17,2.4
			c-0.02,0.35-0.2,0.52-0.55,0.52c-0.18,0-0.32-0.06-0.42-0.18L74.29,151.86z M74.57,149.58l0.01-0.29
			c-0.01-0.15-0.07-0.22-0.19-0.21l-1.69,0.18l0.02,0.49L74.57,149.58z M74.53,150.42l-1.77,0.15l0.02,0.5l1.72-0.14L74.53,150.42z
			 M80.6,147.53l0.72-0.05c0.01,0,0.03,0,0.06,0c0.31,0,0.47,0.15,0.47,0.45c0,0.31-0.15,0.48-0.45,0.5l-5.17,0.39
			c-0.01,0-0.03,0-0.06,0c-0.31,0-0.47-0.16-0.47-0.48c0-0.28,0.15-0.44,0.44-0.46l1.06-0.08l0.14-0.55l-0.54,0.05
			c-0.03,0-0.05,0.01-0.06,0.01c-0.28,0-0.43-0.15-0.43-0.45c0-0.31,0.14-0.47,0.42-0.5l0.85-0.07l0.14-0.56
			c0.08-0.33,0.27-0.49,0.56-0.49c0.45,0,0.68,0.17,0.68,0.51c0,0.08-0.01,0.17-0.04,0.26l-0.04,0.17l1-0.09
			c0.06,0,0.1-0.01,0.14-0.01c0.46,0,0.7,0.22,0.7,0.65c0,0.08-0.01,0.16-0.02,0.25L80.6,147.53z M80.84,150.31
			c0.13,0.07,0.19,0.17,0.19,0.32c0,0.23-0.14,0.35-0.42,0.37l-0.89,0.05v0.51l1.05-0.07c0.01,0,0.03,0,0.04,0
			c0.31,0,0.46,0.15,0.46,0.45c0,0.3-0.15,0.46-0.45,0.48l-1.1,0.07v0.62l1.57-0.08l0.06,0c0.31,0,0.46,0.15,0.46,0.45
			c0,0.33-0.15,0.51-0.46,0.53l-1.62,0.08v1.14c0,0.13-0.04,0.24-0.12,0.33c-0.12,0.14-0.28,0.21-0.5,0.21
			c-0.26,0-0.44-0.09-0.54-0.28c-0.04-0.07-0.06-0.15-0.06-0.25v-1.08l-2.28,0.12c-0.01,0-0.02,0-0.03,0
			c-0.14,0-0.25-0.04-0.33-0.12c-0.09-0.09-0.14-0.2-0.14-0.35c0-0.32,0.15-0.48,0.46-0.5l0.52-0.03l0.04-0.62l-0.07,0.01
			c-0.32,0.02-0.49-0.14-0.49-0.49c0-0.27,0.14-0.41,0.42-0.43l1.89-0.11v-0.51l-0.86,0.05c-0.11,0.14-0.29,0.21-0.56,0.21
			c-0.32,0-0.5-0.16-0.53-0.48l-0.15-1.35c0-0.04-0.01-0.06-0.01-0.08c0-0.19,0.09-0.33,0.26-0.42c0.1-0.05,0.21-0.07,0.34-0.07
			c0.21,0,0.36,0.05,0.47,0.16l2.74-0.23c0.01,0,0.04,0,0.1,0c0.47,0,0.7,0.2,0.7,0.6c0,0.08-0.02,0.18-0.04,0.29L80.84,150.31z
			 M79.72,150.32l0.06-0.33c0-0.01,0.01-0.04,0.01-0.07c0-0.11-0.07-0.16-0.22-0.15l-1.9,0.14l0.04,0.51L79.72,150.32z
			 M78.51,152.55l-0.66,0.04l-0.06,0.61l0.73-0.04V152.55z M79.44,147.62l0.05-0.35c0-0.01,0-0.03,0-0.07
			c0-0.09-0.05-0.14-0.16-0.14c-0.01,0-0.02,0-0.03,0l-0.69,0.07l-0.16,0.56L79.44,147.62z"/>
		<path d="M88.96,150.25l2.82-0.23l0.06-0.01c0.17-0.01,0.3,0.05,0.4,0.18c0.08,0.11,0.13,0.25,0.13,0.44c0,0.36-0.17,0.56-0.5,0.59
			l-2.47,0.21c0.41,0.83,0.96,1.53,1.64,2.1c0.26,0.22,0.43,0.33,0.53,0.33c0.07,0,0.13-0.09,0.17-0.26
			c0.04-0.17,0.09-0.47,0.15-0.89c0.04-0.32,0.19-0.48,0.44-0.48c0.25,0,0.41,0.14,0.46,0.42c0.03,0.17,0.04,0.41,0.04,0.74
			c0,0.94-0.03,1.49-0.09,1.67c-0.11,0.3-0.32,0.45-0.64,0.45c-0.58,0-1.28-0.38-2.11-1.15c-0.83-0.77-1.48-1.7-1.94-2.81
			l-2.68,0.23v2.04c0.44-0.15,1.14-0.41,2.1-0.79c0.15-0.06,0.28-0.09,0.38-0.09c0.14,0,0.25,0.05,0.34,0.16
			c0.08,0.1,0.13,0.22,0.13,0.35c0,0.18-0.09,0.34-0.28,0.47c-0.56,0.38-1.39,0.81-2.5,1.28c-0.4,0.17-0.66,0.25-0.78,0.25
			c-0.15,0-0.33-0.09-0.54-0.26c-0.12-0.1-0.2-0.22-0.23-0.35c-0.01-0.07-0.02-0.19-0.02-0.37v-7.12c-0.17-0.11-0.26-0.29-0.26-0.54
			c0-0.35,0.17-0.54,0.5-0.56l6.17-0.45c0.06,0,0.12-0.01,0.18-0.01c0.66,0,0.99,0.26,0.99,0.79c0,0.12-0.02,0.25-0.05,0.39
			l-0.23,0.99c0.18,0.1,0.27,0.27,0.27,0.51c0,0.33-0.15,0.51-0.46,0.54l-2.34,0.18C88.79,149.55,88.87,149.9,88.96,150.25z
			 M85.37,148.36l4.6-0.37l0.11-0.79c0-0.03,0.01-0.05,0.01-0.07c0-0.11-0.07-0.17-0.21-0.16l-4.5,0.37V148.36z M87.65,150.35
			c-0.1-0.38-0.17-0.73-0.22-1.06l-2.06,0.16v1.08L87.65,150.35z"/>
		<path d="M102.37,154.8l-6.33,0.27c-0.08,0.3-0.3,0.45-0.67,0.45c-0.3,0-0.5-0.1-0.61-0.31c-0.04-0.08-0.07-0.17-0.07-0.27v-8.58
			c0-0.21,0.09-0.36,0.27-0.46c0.13-0.07,0.27-0.11,0.42-0.11c0.29,0,0.49,0.11,0.61,0.32l6.54-0.47c0.02,0,0.06,0,0.13,0
			c0.72,0,1.07,0.38,1.07,1.15v8.18c0,0.16-0.06,0.29-0.17,0.39c-0.13,0.13-0.3,0.19-0.52,0.19c-0.31,0-0.51-0.11-0.62-0.33
			c-0.04-0.07-0.06-0.16-0.06-0.25V154.8z M102.37,153.61v-6.57c0-0.18-0.09-0.26-0.27-0.25h-0.02l-6.04,0.45v6.63L102.37,153.61z
			 M99.72,148.82v0.8l1.25-0.09c0.04,0,0.07-0.01,0.08-0.01c0.32,0,0.48,0.19,0.48,0.56c0,0.33-0.15,0.5-0.44,0.53l-0.3,0.03
			c0.18,0.06,0.34,0.16,0.49,0.3c0.13,0.13,0.2,0.27,0.2,0.43c0,0.15-0.08,0.28-0.23,0.38l0.16-0.01c0.01,0,0.03,0,0.05,0
			c0.35,0,0.53,0.2,0.53,0.61c0,0.36-0.16,0.55-0.48,0.57l-4.46,0.26l-0.05,0c-0.18,0.01-0.33-0.06-0.43-0.22
			c-0.07-0.11-0.1-0.24-0.1-0.39c0-0.37,0.16-0.56,0.47-0.58l1.54-0.09v-1.1l-1.1,0.09c-0.02,0-0.03,0-0.04,0
			c-0.32,0-0.48-0.17-0.48-0.52c0-0.36,0.15-0.55,0.44-0.57l1.18-0.09v-0.8l-1.27,0.1c-0.02,0-0.05,0-0.08,0
			c-0.32,0-0.48-0.2-0.48-0.6c0-0.35,0.15-0.53,0.46-0.55l3.99-0.31c0.02,0,0.04,0,0.06,0c0.32,0,0.49,0.2,0.49,0.61
			c0,0.34-0.15,0.53-0.46,0.55L99.72,148.82z M100.25,150.67l-0.53,0.04v1.12l0.93-0.06c-0.04-0.04-0.08-0.09-0.11-0.16
			c-0.08-0.2-0.19-0.38-0.33-0.55c-0.05-0.06-0.07-0.12-0.07-0.18C100.14,150.81,100.18,150.73,100.25,150.67z"/>
	</g>
</g>
<g id="ガイド" display="none">
</g>
</svg>
