<?xml version="1.0" encoding="utf-8"?>
<!-- Generator: Adobe Illustrator 25.4.1, SVG Export Plug-In . SVG Version: 6.00 Build 0)  -->
<svg version="1.1" xmlns="http://www.w3.org/2000/svg" xmlns:xlink="http://www.w3.org/1999/xlink" x="0px" y="0px"
	 viewBox="0 0 164.41 252.28" enable-background="new 0 0 164.41 252.28" xml:space="preserve">
<g id="地">
	<rect fill="#DCDDDD" width="164.41" height="252.28"/>
</g>
<g id="枠">
</g>
<g id="国旗">
	<g>
		<g>
			<rect x="25.51" y="59.94" fill="#FFFFFF" width="113.39" height="75.59"/>
			<rect x="25.51" y="116.63" fill="#F5CF21" width="113.39" height="18.9"/>
			<rect x="25.51" y="59.94" fill="#004876" width="113.39" height="18.9"/>
			<rect x="25.51" y="97.74" fill="#147F49" width="113.39" height="18.9"/>
			<rect x="72.76" y="59.94" fill="#C8152A" width="18.9" height="75.59"/>
			<polygon fill="#F5CF21" points="49.32,60.93 51.45,67.47 58.32,67.47 52.76,71.51 54.89,78.06 49.32,74.01 43.76,78.06 
				45.88,71.51 40.32,67.47 47.2,67.47 			"/>
		</g>
	</g>
</g>
<g id="国名">
	<g>
		<path d="M53.11,152.1l-1.82,0.11c-0.1,0.27-0.33,0.41-0.7,0.41c-0.42,0-0.65-0.19-0.7-0.58l-0.45-3.66
			c-0.01-0.04-0.01-0.08-0.01-0.1c0-0.24,0.1-0.41,0.32-0.51c0.12-0.06,0.25-0.09,0.39-0.09h0.05c0.33,0,0.54,0.11,0.65,0.33
			l2.26-0.18v-1.83c0-0.22,0.1-0.39,0.3-0.49c0.13-0.07,0.26-0.1,0.42-0.1c0.24,0,0.43,0.07,0.56,0.22c0.09,0.1,0.14,0.22,0.14,0.37
			v1.72l2.47-0.2c0.06,0,0.14,0,0.24,0c0.68,0,1.02,0.29,1.02,0.87c0,0.15-0.02,0.32-0.06,0.5l-0.42,1.82
			c0.18,0.12,0.27,0.3,0.27,0.54c0,0.38-0.18,0.58-0.54,0.6l-2.98,0.18v3.05c0,0.16-0.05,0.29-0.16,0.39
			c-0.14,0.13-0.32,0.2-0.55,0.2c-0.31,0-0.52-0.11-0.64-0.32c-0.04-0.08-0.07-0.17-0.07-0.27V152.1z M53.11,150.89v-1.85l-2.1,0.16
			l0.2,1.8L53.11,150.89z M54.53,150.81l1.87-0.11l0.27-1.65c0-0.02,0.01-0.05,0.01-0.08c0-0.14-0.07-0.2-0.22-0.19l-0.04,0
			l-1.87,0.14V150.81z"/>
		<path d="M65.29,152.02c-0.31,0.76-0.78,1.43-1.42,1.99c-0.72,0.63-1.53,1.12-2.43,1.45c-0.14,0.05-0.26,0.08-0.36,0.08
			c-0.17,0-0.3-0.07-0.39-0.22c-0.05-0.09-0.08-0.18-0.08-0.27c0-0.14,0.06-0.26,0.19-0.36c0.04-0.03,0.18-0.11,0.42-0.23
			c0.69-0.34,1.31-0.8,1.86-1.38c0.46-0.49,0.79-0.99,0.97-1.5l-3.23,0.18l-0.05,0.01c-0.1,0-0.19-0.03-0.28-0.1
			c-0.14-0.11-0.22-0.27-0.22-0.49c0-0.23,0.08-0.4,0.23-0.51c0.08-0.06,0.17-0.09,0.27-0.09l1.04-0.05l-0.28-2.56
			c0-0.02-0.01-0.04-0.01-0.07c0-0.24,0.13-0.4,0.4-0.49c0.08-0.03,0.18-0.04,0.28-0.04c0.25,0,0.44,0.08,0.56,0.24l1.71-0.13v-1.54
			c0-0.13,0.04-0.25,0.11-0.34c0.13-0.15,0.32-0.22,0.59-0.22c0.25,0,0.44,0.07,0.56,0.21c0.08,0.09,0.12,0.21,0.12,0.35v1.43
			l1.95-0.15c0.05,0,0.1-0.01,0.14-0.01c0.61,0,0.91,0.28,0.91,0.84c0,0.07-0.01,0.15-0.02,0.24l-0.26,1.87l1.05-0.06
			c0.02,0,0.03,0,0.04,0c0.08,0,0.16,0.02,0.23,0.06c0.19,0.1,0.29,0.27,0.29,0.51c0,0.24-0.09,0.42-0.26,0.53
			c-0.07,0.05-0.15,0.07-0.24,0.08l-3.6,0.21c0.52,0.68,1.08,1.25,1.67,1.74c0.71,0.58,1.37,1.02,1.98,1.31
			c0.31,0.15,0.47,0.28,0.47,0.4c0,0.1-0.11,0.19-0.34,0.27c-0.61,0.19-1.05,0.28-1.31,0.28c-0.21,0-0.42-0.09-0.64-0.27
			c-0.44-0.35-0.96-0.9-1.54-1.64C65.93,153.03,65.57,152.51,65.29,152.02z M64.36,150.4c0.08-0.48,0.12-1.04,0.12-1.68v-0.07
			l-1.53,0.11l0.15,1.72L64.36,150.4z M65.73,150.32l1.53-0.09l0.14-1.52c0-0.01,0-0.04,0-0.07c0-0.13-0.07-0.2-0.21-0.2
			c-0.04,0-0.06,0-0.08,0l-1.27,0.09v0.18C65.86,149.22,65.82,149.76,65.73,150.32z"/>
		<path d="M79.99,146.52c0.24,0,0.46,0.06,0.66,0.18c0.27,0.17,0.4,0.41,0.4,0.72c0,0.2-0.08,0.44-0.25,0.74
			c-0.47,0.82-1.06,1.53-1.76,2.15c-0.39,0.34-0.7,0.51-0.91,0.51c-0.15,0-0.28-0.07-0.38-0.2c-0.07-0.1-0.11-0.19-0.11-0.28
			c0-0.15,0.09-0.31,0.28-0.49c0.56-0.54,0.99-1.08,1.28-1.63c0.08-0.15,0.12-0.25,0.12-0.3c0-0.06-0.05-0.09-0.15-0.09
			c-0.09,0-0.21,0-0.35,0.02c-0.08,0.01-0.33,0.02-0.75,0.05c-0.31,0.02-1.66,0.13-4.02,0.33c-0.8,0.07-1.23,0.1-1.29,0.1
			c-0.47,0-0.7-0.22-0.7-0.65c0-0.37,0.19-0.59,0.56-0.66c0.04-0.01,1.36-0.1,3.94-0.28C78.79,146.6,79.94,146.52,79.99,146.52z
			 M76.42,148.82c0.19,0,0.36,0.06,0.51,0.18c0.09,0.07,0.15,0.15,0.18,0.24c0.04,0.11,0.05,0.3,0.05,0.57
			c0,0.99-0.07,1.76-0.22,2.33c-0.32,1.22-1.05,2.18-2.18,2.86c-0.18,0.11-0.34,0.16-0.48,0.16c-0.17,0-0.29-0.06-0.38-0.17
			c-0.08-0.1-0.12-0.21-0.12-0.33c0-0.14,0.05-0.27,0.16-0.4c0.04-0.06,0.16-0.17,0.36-0.33c0.7-0.57,1.13-1.33,1.31-2.31
			c0.08-0.48,0.13-1.09,0.13-1.82l-0.01-0.3c0-0.28,0.1-0.47,0.31-0.59C76.17,148.85,76.29,148.82,76.42,148.82z"/>
		<path d="M90.53,146.76c0.35,0,0.64,0.11,0.86,0.33c0.19,0.19,0.29,0.44,0.29,0.74c0,0.21-0.06,0.54-0.17,0.99
			c-0.11,0.45-0.23,0.85-0.37,1.2c-0.7,1.79-1.85,3.18-3.46,4.16c-0.64,0.39-1.1,0.59-1.38,0.59c-0.18,0-0.32-0.07-0.41-0.22
			c-0.07-0.11-0.1-0.21-0.1-0.32c0-0.2,0.13-0.38,0.38-0.52c1.08-0.62,1.96-1.43,2.65-2.42c0.61-0.87,1.03-1.82,1.26-2.85
			c0.02-0.08,0.03-0.14,0.03-0.19c0-0.09-0.05-0.13-0.16-0.13c-0.08,0-0.18,0.01-0.3,0.02c-0.21,0.02-1.16,0.08-2.86,0.2
			c-0.63,0.04-1.32,0.1-2.06,0.16c-0.07,0.01-0.13,0.01-0.16,0.01c-0.46,0-0.69-0.24-0.69-0.71c0-0.36,0.17-0.57,0.51-0.64
			c0.16-0.03,1.81-0.14,4.96-0.33c0.31-0.02,0.56-0.04,0.73-0.05C90.32,146.77,90.46,146.76,90.53,146.76z"/>
		<path d="M97.84,146.75v3.86c0,0.2-0.06,0.35-0.19,0.46c-0.13,0.11-0.3,0.17-0.53,0.17c-0.31,0-0.52-0.11-0.63-0.32
			c-0.05-0.09-0.07-0.2-0.07-0.32v-3.86c0-0.26,0.1-0.44,0.31-0.55c0.12-0.06,0.25-0.09,0.39-0.09c0.24,0,0.43,0.07,0.56,0.21
			C97.79,146.43,97.84,146.57,97.84,146.75z M101.82,146.25v3.41c0,1.12-0.13,2.07-0.4,2.85c-0.35,1.01-1,1.85-1.95,2.54
			c-0.18,0.13-0.36,0.19-0.53,0.19c-0.16,0-0.27-0.05-0.35-0.14c-0.08-0.1-0.12-0.2-0.12-0.32c0-0.16,0.08-0.33,0.25-0.5
			c0.44-0.45,0.74-0.82,0.91-1.08c0.37-0.59,0.6-1.29,0.7-2.12c0.05-0.4,0.08-0.87,0.08-1.39v-3.42c0-0.38,0.23-0.58,0.7-0.58
			C101.58,145.68,101.82,145.87,101.82,146.25z"/>
		<path d="M109.55,148.14c0.15-0.65,0.26-1.23,0.33-1.75c0.06-0.45,0.29-0.67,0.71-0.67c0.49,0,0.73,0.22,0.73,0.65
			c0,0.29-0.09,0.84-0.27,1.64c0.53-0.04,1.11-0.1,1.77-0.17c0.09-0.01,0.17-0.01,0.23-0.01c0.3,0,0.56,0.08,0.77,0.23
			c0.27,0.2,0.41,0.49,0.41,0.86c0,0.13-0.05,0.52-0.14,1.16c-0.28,1.85-0.65,3.24-1.11,4.16c-0.29,0.57-0.67,0.86-1.15,0.86
			c-0.25,0-0.52-0.1-0.8-0.29c-0.83-0.58-1.25-1.02-1.25-1.3c0-0.09,0.03-0.17,0.08-0.26c0.06-0.1,0.15-0.14,0.28-0.14
			c0.13,0,0.28,0.05,0.46,0.14c0.48,0.25,0.78,0.37,0.9,0.37c0.11,0,0.2-0.08,0.29-0.23c0.26-0.49,0.5-1.25,0.72-2.28
			c0.18-0.82,0.27-1.4,0.27-1.72c0-0.16-0.07-0.24-0.21-0.24c-0.24,0-0.87,0.05-1.89,0.15c-0.71,2.13-1.82,3.79-3.33,4.97
			c-0.33,0.26-0.58,0.39-0.75,0.39c-0.14,0-0.25-0.05-0.35-0.15c-0.12-0.13-0.18-0.25-0.18-0.38c0-0.14,0.06-0.27,0.19-0.41
			c0.03-0.03,0.15-0.15,0.38-0.35c0.92-0.84,1.67-1.91,2.25-3.2c0.09-0.21,0.19-0.47,0.3-0.77c-1.17,0.13-1.85,0.19-2.05,0.19
			c-0.45,0-0.68-0.22-0.68-0.67c0-0.41,0.28-0.62,0.85-0.64C107.82,148.26,108.56,148.21,109.55,148.14z"/>
	</g>
</g>
<g id="ガイド" display="none">
</g>
</svg>
