<?xml version="1.0" encoding="utf-8"?>
<!-- Generator: Adobe Illustrator 25.4.1, SVG Export Plug-In . SVG Version: 6.00 Build 0)  -->
<svg version="1.1" xmlns="http://www.w3.org/2000/svg" xmlns:xlink="http://www.w3.org/1999/xlink" x="0px" y="0px"
	 viewBox="0 0 164.41 252.28" enable-background="new 0 0 164.41 252.28" xml:space="preserve">
<g id="地">
	<rect fill="#DCDDDD" width="164.41" height="252.28"/>
</g>
<g id="枠">
</g>
<g id="国旗">
	<g>
		<g>
			<rect x="25.51" y="59.94" fill="#E71F38" width="113.39" height="75.59"/>
			<polygon fill="#F5CF21" points="42.85,67.92 45.49,76.06 54.06,76.06 47.13,81.1 49.78,89.24 42.85,84.21 35.92,89.24 
				38.57,81.1 31.64,76.06 40.2,76.06 			"/>
			<polygon fill="#F5CF21" points="60.94,63.73 61.1,66.47 63.75,67.16 61.2,68.16 61.36,70.9 59.62,68.78 57.07,69.78 58.55,67.47 
				56.81,65.35 59.46,66.04 			"/>
			<polygon fill="#F5CF21" points="70.27,71.97 69.16,74.48 71.21,76.31 68.48,76.03 67.37,78.54 66.79,75.86 64.07,75.58 
				66.44,74.2 65.86,71.52 67.9,73.35 			"/>
			<polygon fill="#F5CF21" points="67.67,81.23 68.52,83.84 71.26,83.84 69.04,85.45 69.88,88.06 67.67,86.45 65.45,88.06 
				66.3,85.45 64.08,83.84 66.82,83.84 			"/>
			<polygon fill="#F5CF21" points="61.61,89.47 61.27,92.19 63.75,93.36 61.05,93.88 60.7,96.6 59.39,94.19 56.69,94.7 58.57,92.71 
				57.25,90.3 59.73,91.47 			"/>
		</g>
	</g>
</g>
<g id="国名">
	<g>
		<path d="M47.44,152.1l-1.82,0.11c-0.1,0.27-0.33,0.41-0.7,0.41c-0.42,0-0.65-0.19-0.7-0.58l-0.45-3.66
			c-0.01-0.04-0.01-0.08-0.01-0.1c0-0.24,0.11-0.41,0.32-0.51c0.12-0.06,0.25-0.09,0.39-0.09h0.05c0.33,0,0.54,0.11,0.65,0.33
			l2.26-0.18v-1.83c0-0.22,0.1-0.39,0.3-0.49c0.13-0.07,0.26-0.1,0.42-0.1c0.24,0,0.43,0.07,0.56,0.22c0.09,0.1,0.14,0.22,0.14,0.37
			v1.72l2.47-0.2c0.06,0,0.14,0,0.24,0c0.68,0,1.02,0.29,1.02,0.87c0,0.15-0.02,0.32-0.06,0.5l-0.42,1.82
			c0.18,0.12,0.27,0.3,0.27,0.54c0,0.38-0.18,0.58-0.54,0.6l-2.98,0.18v3.05c0,0.16-0.05,0.29-0.16,0.39
			c-0.14,0.13-0.32,0.2-0.55,0.2c-0.31,0-0.52-0.11-0.64-0.32c-0.04-0.08-0.07-0.17-0.07-0.27V152.1z M47.44,150.89v-1.85l-2.1,0.16
			l0.21,1.8L47.44,150.89z M48.86,150.81l1.87-0.11l0.27-1.65c0-0.02,0.01-0.05,0.01-0.08c0-0.14-0.07-0.2-0.22-0.19l-0.04,0
			l-1.87,0.14V150.81z"/>
		<path d="M61.62,147.18l-0.05,0.24c-0.06,0.27-0.22,0.44-0.48,0.49l2-0.12h0.04c0.18-0.01,0.32,0.07,0.41,0.25
			c0.04,0.08,0.06,0.18,0.06,0.29c0,0.28-0.15,0.44-0.46,0.45l-0.54,0.03l-0.04,0.56l1.59-0.09c0.13-0.01,0.24,0.03,0.35,0.1
			c0.11,0.09,0.17,0.23,0.17,0.43c0,0.34-0.16,0.52-0.47,0.53l-1.74,0.09l-0.05,0.59l0.84-0.03c0.09,0,0.18,0.01,0.26,0.05
			c0.17,0.08,0.25,0.23,0.25,0.45c0,0.33-0.16,0.5-0.46,0.52l-3.08,0.12v0.57l3.6-0.13c0,0,0.01,0,0.02,0c0,0,0.02,0,0.06,0
			c0.31,0.01,0.47,0.19,0.47,0.52c0,0.36-0.16,0.55-0.49,0.56l-3.66,0.12v1.39c0,0.13-0.04,0.24-0.12,0.34
			c-0.13,0.16-0.32,0.24-0.56,0.24c-0.29,0-0.5-0.1-0.61-0.31c-0.04-0.08-0.07-0.17-0.07-0.27v-1.35l-3.48,0.12l-0.03,0.01
			c-0.16,0.01-0.29-0.04-0.39-0.18c-0.07-0.1-0.11-0.23-0.11-0.38c0-0.33,0.16-0.49,0.49-0.5l3.53-0.13v-0.56l-2.96,0.12h-0.03
			c-0.1,0-0.2-0.02-0.28-0.08c-0.12-0.08-0.19-0.21-0.19-0.38c0-0.35,0.15-0.53,0.45-0.54l0.79-0.03l-0.06-0.56l-1.76,0.08
			c-0.07,0-0.15-0.01-0.22-0.03c-0.2-0.07-0.29-0.21-0.29-0.44c0-0.35,0.16-0.53,0.48-0.55l1.69-0.09l-0.06-0.54l-0.49,0.02l-0.06,0
			c-0.18,0.01-0.32-0.07-0.39-0.24c-0.04-0.08-0.05-0.16-0.05-0.25c0-0.22,0.1-0.36,0.29-0.44c0.06-0.02,0.11-0.04,0.17-0.04
			l2.01-0.11c-0.34-0.01-0.53-0.18-0.59-0.5l-0.03-0.16l-1.75,0.1l-0.04,0.01c-0.15,0.01-0.28-0.05-0.39-0.17
			c-0.08-0.09-0.12-0.21-0.12-0.34c0-0.19,0.07-0.34,0.2-0.44c0.08-0.06,0.16-0.09,0.26-0.09l1.66-0.1l-0.07-0.39
			C57,145.96,57,145.92,57,145.89c0-0.24,0.12-0.41,0.37-0.51c0.11-0.04,0.22-0.07,0.34-0.07c0.15,0,0.28,0.03,0.39,0.1
			c0.16,0.1,0.25,0.26,0.28,0.46l0.04,0.44l2.05-0.12l0.04-0.46c0.04-0.36,0.27-0.54,0.7-0.54c0.22,0,0.4,0.07,0.54,0.2
			c0.1,0.1,0.15,0.23,0.15,0.37c0,0.04,0,0.08-0.02,0.13l-0.04,0.21l1.57-0.09c0.1-0.01,0.2,0.01,0.29,0.06
			c0.18,0.08,0.27,0.24,0.27,0.45c0,0.2-0.07,0.35-0.22,0.46c-0.07,0.05-0.15,0.08-0.24,0.08L61.62,147.18z M58.88,149.01
			l-1.22,0.06l0.04,0.58l1.18-0.07V149.01z M58.88,150.59l-1.11,0.05l0.04,0.58l1.07-0.04V150.59z M60.36,147.25l-1.85,0.11
			l0.02,0.12c0,0.01,0,0.03,0,0.05c0,0.31-0.17,0.5-0.52,0.55l2.89-0.16c-0.37-0.03-0.55-0.21-0.55-0.54c0-0.02,0-0.04,0-0.07
			L60.36,147.25z M61.33,148.88l-1.15,0.06v0.58l1.12-0.06L61.33,148.88z M61.24,150.48l-1.07,0.05v0.59l1.04-0.04L61.24,150.48z"/>
		<path d="M71.26,149.45l0.1,0.17c0.69,1.08,1.59,2.11,2.71,3.08c0.57,0.5,1.13,0.92,1.68,1.25c0.37,0.23,0.55,0.42,0.55,0.58
			c0,0.12-0.12,0.21-0.35,0.27c-0.55,0.15-0.99,0.22-1.31,0.22c-0.24,0-0.44-0.08-0.61-0.24c-0.28-0.26-0.6-0.6-0.98-1.04
			c-0.8-0.93-1.56-1.97-2.29-3.13c-0.9,1.82-2.17,3.25-3.79,4.29c-0.2,0.13-0.38,0.2-0.54,0.2c-0.17,0-0.32-0.08-0.44-0.23
			c-0.08-0.1-0.12-0.21-0.12-0.33c0-0.19,0.11-0.37,0.33-0.54c2.35-1.78,3.75-4.26,4.21-7.45c0.08-0.53,0.33-0.8,0.76-0.8
			c0.52,0,0.79,0.25,0.79,0.75c0,0.17-0.05,0.5-0.15,0.97C71.66,148.17,71.48,148.83,71.26,149.45z"/>
		<path d="M83.29,150.25l2.82-0.23l0.06-0.01c0.17-0.01,0.3,0.05,0.4,0.18c0.08,0.11,0.13,0.25,0.13,0.44c0,0.36-0.17,0.56-0.5,0.59
			l-2.47,0.21c0.41,0.83,0.96,1.53,1.64,2.1c0.26,0.22,0.43,0.33,0.53,0.33c0.07,0,0.13-0.09,0.17-0.26
			c0.04-0.17,0.09-0.47,0.15-0.89c0.04-0.32,0.19-0.48,0.44-0.48c0.25,0,0.41,0.14,0.46,0.42c0.03,0.17,0.04,0.41,0.04,0.74
			c0,0.94-0.03,1.49-0.09,1.67c-0.11,0.3-0.32,0.45-0.64,0.45c-0.58,0-1.28-0.38-2.11-1.15c-0.83-0.77-1.48-1.7-1.94-2.81
			l-2.68,0.23v2.04c0.44-0.15,1.14-0.41,2.1-0.79c0.15-0.06,0.28-0.09,0.38-0.09c0.14,0,0.25,0.05,0.34,0.16
			c0.09,0.1,0.13,0.22,0.13,0.35c0,0.18-0.09,0.34-0.28,0.47c-0.56,0.38-1.39,0.81-2.5,1.28c-0.4,0.17-0.66,0.25-0.78,0.25
			c-0.15,0-0.33-0.09-0.54-0.26c-0.12-0.1-0.2-0.22-0.23-0.35c-0.01-0.07-0.02-0.19-0.02-0.37v-7.12c-0.17-0.11-0.26-0.29-0.26-0.54
			c0-0.35,0.17-0.54,0.5-0.56l6.17-0.45c0.05,0,0.12-0.01,0.18-0.01c0.66,0,0.99,0.26,0.99,0.79c0,0.12-0.02,0.25-0.05,0.39
			l-0.23,0.99c0.18,0.1,0.27,0.27,0.27,0.51c0,0.33-0.15,0.51-0.46,0.54l-2.34,0.18C83.12,149.55,83.2,149.9,83.29,150.25z
			 M79.7,148.36l4.59-0.37l0.11-0.79c0-0.03,0.01-0.05,0.01-0.07c0-0.11-0.07-0.17-0.21-0.16l-4.5,0.37V148.36z M81.98,150.35
			c-0.1-0.38-0.17-0.73-0.22-1.06l-2.06,0.16v1.08L81.98,150.35z"/>
		<path d="M95.9,148.84l-0.11,1.86l2.17-0.12c0.02,0,0.03,0,0.04,0c0.12,0,0.23,0.03,0.32,0.1c0.17,0.11,0.25,0.29,0.25,0.53
			c0,0.29-0.1,0.49-0.29,0.59c-0.07,0.04-0.15,0.06-0.24,0.07l-8.84,0.44c-0.03,0-0.05,0-0.06,0c-0.11,0-0.22-0.03-0.31-0.09
			c-0.17-0.11-0.25-0.29-0.25-0.53c0-0.41,0.17-0.62,0.5-0.64l2.05-0.1l-0.11-1.77l-1.13,0.08c-0.03,0-0.04,0-0.05,0
			c-0.12,0-0.22-0.03-0.32-0.09c-0.17-0.11-0.25-0.29-0.25-0.53c0-0.4,0.17-0.61,0.5-0.64l1.17-0.08l-0.08-1.41l-0.01-0.05
			c-0.02-0.25,0.09-0.44,0.33-0.56c0.12-0.06,0.26-0.09,0.43-0.09c0.47,0,0.72,0.2,0.74,0.6l0.05,1.4l2.09-0.14l0.06-1.57
			c0.02-0.4,0.27-0.6,0.75-0.6c0.2,0,0.37,0.05,0.51,0.14c0.17,0.12,0.26,0.29,0.26,0.52c0,0.01,0,0.03,0,0.04l-0.08,1.36l0.99-0.07
			c0,0,0.01,0,0.03,0c0.14,0,0.27,0.04,0.37,0.13c0.14,0.12,0.21,0.29,0.21,0.52c0,0.39-0.17,0.6-0.51,0.63L95.9,148.84z
			 M91.89,152.47c0.18,0,0.35,0.06,0.5,0.19c0.16,0.13,0.24,0.31,0.24,0.53c0,0.2-0.08,0.38-0.24,0.56c-0.25,0.29-0.6,0.6-1.05,0.93
			c-0.8,0.6-1.37,0.9-1.72,0.9c-0.16,0-0.29-0.06-0.38-0.18c-0.08-0.1-0.12-0.21-0.12-0.33c0-0.19,0.16-0.41,0.49-0.65
			c0.6-0.46,1.14-0.99,1.61-1.58C91.43,152.6,91.65,152.47,91.89,152.47z M94.44,148.94l-1.99,0.13l0.07,1.8l1.84-0.1L94.44,148.94z
			 M94.88,152.48c0.28,0,0.83,0.29,1.64,0.88c0.37,0.27,0.69,0.52,0.96,0.77c0.2,0.18,0.29,0.39,0.29,0.61
			c0,0.2-0.08,0.38-0.24,0.53c-0.17,0.15-0.36,0.23-0.58,0.23c-0.17,0-0.32-0.05-0.45-0.16c-0.05-0.04-0.13-0.13-0.24-0.26
			c-0.48-0.58-1.02-1.12-1.63-1.61c-0.19-0.15-0.28-0.31-0.28-0.48c0-0.13,0.05-0.24,0.14-0.34
			C94.58,152.53,94.71,152.48,94.88,152.48z"/>
		<path d="M101.8,151.57c-0.4,0.62-0.82,1.16-1.26,1.61c-0.2,0.21-0.38,0.31-0.53,0.31c-0.1,0-0.2-0.04-0.29-0.13
			c-0.1-0.08-0.15-0.19-0.15-0.32c0-0.14,0.1-0.33,0.29-0.57c0.69-0.88,1.25-1.75,1.68-2.61l-1.29,0.14c-0.03,0-0.06,0.01-0.08,0.01
			c-0.16,0-0.29-0.06-0.38-0.18c-0.09-0.12-0.14-0.27-0.14-0.45c0-0.35,0.16-0.54,0.48-0.57l1.68-0.18v-1.18
			c-0.75,0.16-1.18,0.23-1.29,0.23c-0.32,0-0.48-0.16-0.48-0.48c0-0.2,0.09-0.34,0.27-0.43c0.06-0.03,0.18-0.07,0.37-0.12
			c0.84-0.22,1.66-0.51,2.46-0.86c0.29-0.12,0.49-0.19,0.62-0.19c0.24,0,0.42,0.1,0.54,0.31c0.06,0.1,0.09,0.21,0.09,0.32
			c0,0.26-0.14,0.45-0.43,0.57c-0.22,0.1-0.49,0.2-0.83,0.3v1.38l1.04-0.12c0.03,0,0.05-0.01,0.06-0.01c0.24-0.01,0.41,0.1,0.5,0.34
			c0.03,0.07,0.04,0.16,0.04,0.24c0,0.36-0.16,0.56-0.48,0.6l-1.17,0.13v0.54c0.65,0.34,1.13,0.63,1.45,0.87
			c0.22,0.17,0.33,0.36,0.33,0.58c0,0.13-0.04,0.24-0.12,0.35c-0.11,0.16-0.27,0.23-0.47,0.23c-0.15,0-0.31-0.09-0.48-0.26
			c-0.14-0.15-0.35-0.36-0.64-0.62l-0.07-0.07v3.68c0,0.14-0.04,0.25-0.13,0.35c-0.12,0.14-0.3,0.21-0.53,0.21
			c-0.27,0-0.46-0.09-0.58-0.28c-0.05-0.08-0.08-0.17-0.08-0.28V151.57z M109.45,152.27c0.21,0.11,0.32,0.31,0.32,0.6
			c0,0.39-0.18,0.59-0.53,0.62l-2.71,0.18c0,0.16-0.05,0.28-0.14,0.38c-0.12,0.13-0.29,0.19-0.5,0.19c-0.42,0-0.64-0.19-0.66-0.58
			l-0.28-5.05c-0.01-0.21,0.07-0.38,0.23-0.49c0.12-0.08,0.26-0.13,0.44-0.13c0.26,0,0.45,0.09,0.58,0.27l2.34-0.27
			c0.11-0.01,0.2-0.02,0.27-0.02c0.66,0,0.99,0.33,0.99,0.98c0,0.07-0.01,0.14-0.02,0.23L109.45,152.27z M108.21,152.29l0.21-2.7
			c0-0.02,0-0.04,0-0.07c0-0.17-0.08-0.25-0.25-0.25c-0.01,0-0.04,0-0.07,0.01l-1.75,0.18l0.13,2.95L108.21,152.29z"/>
		<path d="M119.38,154.8l-6.33,0.27c-0.08,0.3-0.3,0.45-0.67,0.45c-0.3,0-0.5-0.1-0.61-0.31c-0.04-0.08-0.07-0.17-0.07-0.27v-8.58
			c0-0.21,0.09-0.36,0.27-0.46c0.12-0.07,0.27-0.11,0.42-0.11c0.29,0,0.49,0.11,0.61,0.32l6.54-0.47c0.02,0,0.06,0,0.13,0
			c0.72,0,1.07,0.38,1.07,1.15v8.18c0,0.16-0.06,0.29-0.17,0.39c-0.13,0.13-0.3,0.19-0.52,0.19c-0.31,0-0.51-0.11-0.62-0.33
			c-0.04-0.07-0.05-0.16-0.05-0.25V154.8z M119.38,153.61v-6.57c0-0.18-0.09-0.26-0.27-0.25h-0.02l-6.04,0.45v6.63L119.38,153.61z
			 M116.73,148.82v0.8l1.25-0.09c0.04,0,0.07-0.01,0.08-0.01c0.32,0,0.48,0.19,0.48,0.56c0,0.33-0.15,0.5-0.44,0.53l-0.3,0.03
			c0.18,0.06,0.34,0.16,0.49,0.3c0.13,0.13,0.2,0.27,0.2,0.43c0,0.15-0.08,0.28-0.23,0.38l0.16-0.01c0.01,0,0.03,0,0.05,0
			c0.35,0,0.53,0.2,0.53,0.61c0,0.36-0.16,0.55-0.48,0.57l-4.46,0.26l-0.05,0c-0.18,0.01-0.33-0.06-0.43-0.22
			c-0.07-0.11-0.1-0.24-0.1-0.39c0-0.37,0.16-0.56,0.47-0.58l1.54-0.09v-1.1l-1.1,0.09c-0.02,0-0.03,0-0.04,0
			c-0.32,0-0.48-0.17-0.48-0.52c0-0.36,0.15-0.55,0.44-0.57l1.18-0.09v-0.8l-1.27,0.1c-0.02,0-0.05,0-0.08,0
			c-0.32,0-0.48-0.2-0.48-0.6c0-0.35,0.16-0.53,0.47-0.55l3.99-0.31c0.02,0,0.04,0,0.06,0c0.32,0,0.49,0.2,0.49,0.61
			c0,0.34-0.15,0.53-0.46,0.55L116.73,148.82z M117.26,150.67l-0.53,0.04v1.12l0.93-0.06c-0.04-0.04-0.08-0.09-0.11-0.16
			c-0.08-0.2-0.19-0.38-0.33-0.55c-0.05-0.06-0.07-0.12-0.07-0.18C117.15,150.81,117.19,150.73,117.26,150.67z"/>
	</g>
</g>
<g id="ガイド" display="none">
</g>
</svg>
