<?xml version="1.0" encoding="utf-8"?>
<!-- Generator: Adobe Illustrator 25.4.1, SVG Export Plug-In . SVG Version: 6.00 Build 0)  -->
<svg version="1.1" xmlns="http://www.w3.org/2000/svg" xmlns:xlink="http://www.w3.org/1999/xlink" x="0px" y="0px"
	 viewBox="0 0 164.41 252.28" enable-background="new 0 0 164.41 252.28" xml:space="preserve">
<g id="地">
	<rect fill="#DCDDDD" width="164.41" height="252.28"/>
</g>
<g id="枠">
</g>
<g id="国旗">
	<g>
		<g>
			<rect x="25.51" y="60" fill="#0F669C" width="113.39" height="75.59"/>
			<rect x="25.51" y="72.37" fill="#FFFFFF" width="113.39" height="50.86"/>
			<rect x="25.51" y="76.04" fill="#C01734" width="113.39" height="43.52"/>
			<path fill="#FFFFFF" d="M70.93,97.8c0,9.73-7.89,17.63-17.63,17.63c-9.73,0-17.63-7.89-17.63-17.63
				c0-9.73,7.89-17.63,17.63-17.63C63.04,80.17,70.93,88.06,70.93,97.8z"/>
			<polygon fill="#C01734" points="53.31,83.5 56.52,93.38 66.9,93.38 58.5,99.48 61.71,109.36 53.31,103.26 44.91,109.36 
				48.12,99.48 39.72,93.38 50.1,93.38 			"/>
		</g>
	</g>
</g>
<g id="国名">
	<g>
		<path d="M23.8,151.92v0.69l1.42-0.11c0.02,0,0.03,0,0.04,0c0.2,0,0.34,0.07,0.45,0.2c0.07,0.1,0.11,0.23,0.11,0.39
			c0,0.37-0.15,0.56-0.45,0.59l-1.57,0.12v1.28c0,0.14-0.05,0.25-0.14,0.34c-0.12,0.12-0.28,0.18-0.5,0.18
			c-0.27,0-0.45-0.09-0.56-0.27c-0.04-0.07-0.07-0.16-0.07-0.25v-1.19l-1.69,0.13c-0.01,0-0.02,0-0.04,0
			c-0.11,0-0.21-0.03-0.29-0.08c-0.18-0.11-0.27-0.28-0.27-0.52c0-0.37,0.16-0.56,0.48-0.58l1.82-0.14v-0.69l-0.46,0.03
			c-0.12,0.16-0.29,0.24-0.51,0.24c-0.35,0-0.54-0.17-0.57-0.5l-0.23-2.9c0-0.03,0-0.04,0-0.06c0-0.19,0.08-0.34,0.23-0.44
			c0.11-0.08,0.24-0.12,0.39-0.12c0.18,0,0.32,0.05,0.43,0.15l0.72-0.07v-0.63l-1.17,0.12c-0.01,0-0.04,0-0.07,0
			c-0.14,0-0.27-0.04-0.37-0.13c-0.12-0.1-0.18-0.24-0.18-0.42c0-0.35,0.16-0.54,0.48-0.58l1.31-0.13v-0.69
			c0-0.18,0.08-0.32,0.25-0.42c0.12-0.07,0.25-0.1,0.39-0.1c0.18,0,0.33,0.05,0.45,0.16c0.12,0.09,0.18,0.21,0.18,0.37v0.56
			l1.02-0.1c0.01,0,0.04,0,0.07,0c0.14,0,0.26,0.04,0.36,0.13c0.11,0.1,0.17,0.24,0.17,0.42c0,0.35-0.16,0.54-0.49,0.57l-1.13,0.12
			v0.62l0.71-0.07c0.07-0.01,0.14-0.01,0.21-0.01c0.55,0,0.83,0.27,0.83,0.8c0,0.03,0,0.08-0.01,0.15l-0.21,2.46
			c-0.03,0.39-0.24,0.58-0.62,0.58c-0.23,0-0.4-0.08-0.5-0.23L23.8,151.92z M24.24,149.61l0.02-0.29c0-0.01,0-0.03,0-0.04
			c0-0.12-0.06-0.18-0.19-0.17l-2.04,0.18l0.04,0.51L24.24,149.61z M24.19,150.45l-2.08,0.17l0.04,0.54l2.02-0.17L24.19,150.45z
			 M27.32,152.02c-0.16,1.15-0.49,2.13-0.98,2.94c-0.11,0.18-0.19,0.29-0.24,0.34c-0.12,0.13-0.25,0.19-0.39,0.19
			c-0.1,0-0.19-0.03-0.29-0.09c-0.14-0.09-0.21-0.22-0.21-0.39c0-0.12,0.06-0.3,0.19-0.54c0.36-0.69,0.59-1.61,0.7-2.74
			c0.06-0.72,0.09-1.8,0.09-3.24c0-0.22-0.01-0.48-0.02-0.77c-0.02-0.54-0.03-0.85-0.03-0.93c0-0.28,0.06-0.47,0.18-0.57
			c0.13-0.1,0.29-0.15,0.47-0.15c0.21,0,0.38,0.07,0.51,0.2l1.69-0.24c0.1-0.01,0.2-0.02,0.29-0.02c0.58,0,0.88,0.35,0.88,1.04v7.57
			c0,0.65-0.28,0.98-0.83,0.98c-0.36,0-0.89-0.17-1.57-0.5c-0.31-0.15-0.46-0.32-0.46-0.53c0-0.27,0.15-0.4,0.44-0.4
			c0.07,0,0.16,0.01,0.26,0.04c0.27,0.07,0.47,0.1,0.59,0.1c0.2,0,0.3-0.12,0.3-0.35v-2.08L27.32,152.02z M27.47,149.64
			c0,0.41-0.02,0.83-0.04,1.26l1.45-0.13v-1.29L27.47,149.64z M27.46,148.56l1.41-0.16v-0.85c0-0.18-0.08-0.28-0.23-0.28
			c-0.02,0-0.05,0-0.08,0.01l-1.13,0.16l0.01,0.36l0.01,0.16l0.01,0.35V148.56z"/>
		<path d="M35.36,152.13l-2.21,0.21c-0.08,0.2-0.24,0.3-0.49,0.3c-0.19,0-0.33-0.06-0.43-0.19c-0.05-0.07-0.08-0.16-0.08-0.26
			l-0.15-3.54c-0.04,0.01-0.08,0.02-0.11,0.02c-0.08,0-0.16-0.03-0.23-0.09c-0.1-0.08-0.15-0.19-0.15-0.3c0-0.12,0.08-0.3,0.25-0.51
			c0.48-0.63,0.85-1.26,1.12-1.89c0.12-0.28,0.31-0.42,0.56-0.42c0.11,0,0.21,0.03,0.3,0.08c0.16,0.1,0.25,0.24,0.27,0.43l0.99-0.14
			c0.08-0.01,0.16-0.02,0.23-0.02c0.44,0,0.65,0.17,0.65,0.51c0,0.34-0.33,0.91-0.98,1.72l0.53-0.06c0.07-0.01,0.14-0.01,0.21-0.01
			c0.54,0,0.81,0.3,0.78,0.89l-0.12,3.04c-0.02,0.31-0.19,0.46-0.5,0.46C35.59,152.35,35.45,152.28,35.36,152.13z M32.47,152.85
			c0.27,0,0.41,0.17,0.41,0.5c0,0.34-0.06,0.76-0.18,1.27c-0.06,0.25-0.12,0.44-0.17,0.55c-0.1,0.21-0.25,0.32-0.46,0.32
			c-0.11,0-0.21-0.03-0.3-0.08c-0.17-0.1-0.25-0.24-0.25-0.42c0-0.09,0.03-0.21,0.1-0.37c0.17-0.39,0.31-0.85,0.42-1.37
			C32.09,152.99,32.23,152.85,32.47,152.85z M32.87,148.27l0.89-0.11c0.24-0.29,0.46-0.64,0.67-1.04c0.05-0.08,0.07-0.15,0.07-0.21
			c0-0.05-0.04-0.08-0.11-0.08c-0.03,0-0.06,0-0.09,0.01l-0.73,0.13c-0.28,0.42-0.6,0.81-0.95,1.18
			C32.72,148.18,32.81,148.22,32.87,148.27z M33.76,149.04l-0.71,0.08l0.03,0.7l0.68-0.07V149.04z M33.76,150.57l-0.65,0.06
			l0.03,0.83l0.62-0.06V150.57z M33.56,152.84c0.2,0,0.33,0.11,0.39,0.34c0.04,0.15,0.11,0.5,0.19,1.04
			c0.05,0.34,0.08,0.56,0.08,0.67c0,0.12-0.03,0.22-0.09,0.31c-0.09,0.13-0.23,0.2-0.42,0.2c-0.3,0-0.45-0.2-0.45-0.6
			c0-0.31-0.02-0.79-0.07-1.45c0-0.05-0.01-0.08-0.01-0.11C33.19,152.97,33.31,152.84,33.56,152.84z M34.65,152.69
			c0.13,0,0.23,0.08,0.32,0.23c0.12,0.22,0.25,0.59,0.4,1.11c0.1,0.34,0.15,0.55,0.15,0.62c0,0.18-0.07,0.3-0.22,0.38
			c-0.08,0.04-0.17,0.07-0.27,0.07c-0.25,0-0.41-0.18-0.46-0.55c-0.03-0.18-0.09-0.52-0.2-1c-0.06-0.27-0.09-0.43-0.09-0.49
			C34.28,152.81,34.4,152.69,34.65,152.69z M34.64,148.94v0.73l0.73-0.08l0.02-0.42c0-0.02,0-0.03,0-0.04
			c0-0.16-0.08-0.24-0.24-0.24c-0.02,0-0.04,0-0.05,0L34.64,148.94z M35.34,150.42l-0.7,0.07v0.82l0.67-0.06L35.34,150.42z
			 M35.7,152.53c0.12,0,0.22,0.06,0.31,0.18c0.17,0.23,0.36,0.59,0.58,1.09c0.1,0.23,0.15,0.39,0.15,0.48c0,0.16-0.07,0.29-0.2,0.37
			c-0.09,0.05-0.18,0.07-0.27,0.07c-0.2,0-0.35-0.15-0.44-0.45c-0.13-0.42-0.27-0.82-0.43-1.18c-0.04-0.08-0.06-0.16-0.06-0.23
			c0-0.1,0.03-0.18,0.1-0.24C35.52,152.56,35.61,152.53,35.7,152.53z M39.91,148.6v0.83l1.1-0.08c0.12-0.01,0.22,0.01,0.32,0.07
			c0.16,0.1,0.24,0.26,0.24,0.48c0,0.34-0.15,0.53-0.45,0.55l-1.21,0.09v0.88l1.71-0.12c0.01,0,0.03,0,0.04,0
			c0.16,0,0.29,0.05,0.39,0.16c0.1,0.11,0.14,0.25,0.14,0.42c0,0.39-0.16,0.59-0.46,0.61l-1.83,0.13v2.57
			c0,0.13-0.04,0.24-0.12,0.33c-0.13,0.15-0.31,0.22-0.54,0.22c-0.28,0-0.48-0.1-0.59-0.29c-0.04-0.07-0.07-0.16-0.07-0.26v-2.49
			l-1.54,0.11c-0.01,0-0.03,0-0.04,0c-0.16,0-0.28-0.05-0.38-0.16c-0.1-0.11-0.14-0.25-0.14-0.42c0-0.38,0.15-0.58,0.46-0.6
			l1.65-0.12v-0.87l-1.11,0.09c0,0-0.02,0-0.05,0c-0.14,0-0.26-0.04-0.35-0.12c-0.11-0.1-0.17-0.23-0.17-0.41
			c0-0.35,0.15-0.54,0.45-0.57l1.22-0.09v-0.82l-1.32,0.11c0,0-0.03,0-0.07,0c-0.14,0-0.25-0.05-0.34-0.14
			c-0.1-0.1-0.15-0.24-0.15-0.42c0-0.35,0.14-0.54,0.43-0.57l0.91-0.08c-0.19-0.06-0.34-0.22-0.45-0.48
			c-0.13-0.32-0.28-0.6-0.44-0.85c-0.07-0.11-0.11-0.21-0.11-0.3c0-0.14,0.05-0.25,0.16-0.33c0.09-0.06,0.2-0.09,0.32-0.09
			c0.21,0,0.46,0.18,0.75,0.54c0.35,0.42,0.52,0.73,0.52,0.95c0,0.26-0.13,0.44-0.38,0.54l0.97-0.09c0.27-0.59,0.47-1.14,0.62-1.63
			c0.1-0.34,0.3-0.51,0.61-0.51c0.11,0,0.21,0.02,0.32,0.07c0.24,0.11,0.37,0.29,0.37,0.53c0,0.2-0.24,0.68-0.71,1.44l0.67-0.06
			c0.02,0,0.04,0,0.07,0c0.15,0,0.27,0.05,0.37,0.14c0.11,0.11,0.16,0.26,0.16,0.44c0,0.34-0.15,0.52-0.46,0.55L39.91,148.6z"/>
		<path d="M49.28,150.25l2.82-0.23l0.06-0.01c0.17-0.01,0.3,0.05,0.4,0.18c0.08,0.11,0.13,0.25,0.13,0.44c0,0.36-0.17,0.56-0.5,0.59
			l-2.47,0.21c0.41,0.83,0.96,1.53,1.64,2.1c0.26,0.22,0.43,0.33,0.53,0.33c0.07,0,0.13-0.09,0.17-0.26
			c0.04-0.17,0.09-0.47,0.15-0.89c0.04-0.32,0.19-0.48,0.44-0.48c0.25,0,0.41,0.14,0.46,0.42c0.03,0.17,0.04,0.41,0.04,0.74
			c0,0.94-0.03,1.49-0.09,1.67c-0.11,0.3-0.32,0.45-0.64,0.45c-0.58,0-1.28-0.38-2.11-1.15c-0.83-0.77-1.48-1.7-1.94-2.81
			l-2.68,0.23v2.04c0.44-0.15,1.14-0.41,2.1-0.79c0.15-0.06,0.28-0.09,0.38-0.09c0.14,0,0.25,0.05,0.34,0.16
			c0.09,0.1,0.13,0.22,0.13,0.35c0,0.18-0.09,0.34-0.28,0.47c-0.56,0.38-1.39,0.81-2.5,1.28c-0.4,0.17-0.66,0.25-0.78,0.25
			c-0.15,0-0.33-0.09-0.54-0.26c-0.12-0.1-0.2-0.22-0.23-0.35c-0.01-0.07-0.02-0.19-0.02-0.37v-7.12c-0.17-0.11-0.26-0.29-0.26-0.54
			c0-0.35,0.17-0.54,0.5-0.56l6.17-0.45c0.05,0,0.12-0.01,0.18-0.01c0.66,0,0.99,0.26,0.99,0.79c0,0.12-0.02,0.25-0.05,0.39
			l-0.23,0.99c0.18,0.1,0.27,0.27,0.27,0.51c0,0.33-0.15,0.51-0.46,0.54l-2.34,0.18C49.11,149.55,49.18,149.9,49.28,150.25z
			 M45.68,148.36l4.59-0.37l0.11-0.79c0-0.03,0.01-0.05,0.01-0.07c0-0.11-0.07-0.17-0.21-0.16l-4.5,0.37V148.36z M47.96,150.35
			c-0.1-0.38-0.17-0.73-0.22-1.06l-2.06,0.16v1.08L47.96,150.35z"/>
		<path d="M60.15,149.01v1.56l2.24-0.14l0.04,0c0.15-0.01,0.28,0.03,0.39,0.12c0.13,0.11,0.2,0.27,0.2,0.48
			c0,0.4-0.18,0.61-0.53,0.63l-2.35,0.14v1.88l3.77-0.17l0.04-0.01c0.16-0.01,0.3,0.05,0.4,0.19c0.09,0.11,0.14,0.27,0.14,0.47
			c0,0.42-0.18,0.64-0.54,0.66l-8.83,0.38H55.1c-0.16,0-0.29-0.05-0.39-0.16c-0.11-0.12-0.16-0.28-0.16-0.48
			c0-0.41,0.18-0.63,0.54-0.65l3.63-0.17v-1.86l-2.35,0.14l-0.05,0.01c-0.14,0.01-0.27-0.04-0.38-0.14
			c-0.12-0.11-0.18-0.26-0.18-0.46c0-0.39,0.17-0.59,0.53-0.62l2.44-0.15v-1.56l-2.79,0.18c-0.01,0-0.03,0-0.04,0
			c-0.17,0-0.31-0.06-0.41-0.17c-0.09-0.1-0.13-0.24-0.13-0.41c0-0.39,0.17-0.6,0.51-0.62l7.11-0.5c0.02,0,0.03,0,0.04,0
			c0.19-0.01,0.34,0.06,0.46,0.22c0.08,0.11,0.12,0.25,0.12,0.43c0,0.38-0.17,0.58-0.5,0.6L60.15,149.01z M57.88,145.38
			c0.31,0,0.86,0.18,1.64,0.53c0.24,0.11,0.43,0.21,0.56,0.29c0.21,0.14,0.31,0.32,0.31,0.56c0,0.16-0.05,0.31-0.16,0.46
			c-0.14,0.2-0.34,0.29-0.6,0.29c-0.19,0-0.38-0.09-0.6-0.27c-0.24-0.2-0.69-0.51-1.33-0.93c-0.21-0.14-0.32-0.3-0.32-0.49
			c0-0.1,0.03-0.2,0.1-0.28C57.57,145.44,57.7,145.38,57.88,145.38z"/>
		<path d="M71.49,149.01v1.56l2.24-0.14l0.04,0c0.15-0.01,0.28,0.03,0.39,0.12c0.13,0.11,0.2,0.27,0.2,0.48
			c0,0.4-0.18,0.61-0.53,0.63l-2.35,0.14v1.88l3.76-0.17l0.04-0.01c0.16-0.01,0.3,0.05,0.4,0.19c0.09,0.11,0.14,0.27,0.14,0.47
			c0,0.42-0.18,0.64-0.54,0.66l-8.83,0.38h-0.03c-0.16,0-0.29-0.05-0.39-0.16c-0.11-0.12-0.16-0.28-0.16-0.48
			c0-0.41,0.18-0.63,0.54-0.65l3.63-0.17v-1.86l-2.35,0.14l-0.05,0.01c-0.14,0.01-0.27-0.04-0.38-0.14
			c-0.12-0.11-0.18-0.26-0.18-0.46c0-0.39,0.18-0.59,0.53-0.62l2.44-0.15v-1.56l-2.79,0.18c-0.02,0-0.03,0-0.04,0
			c-0.17,0-0.31-0.06-0.41-0.17c-0.09-0.1-0.13-0.24-0.13-0.41c0-0.39,0.17-0.6,0.51-0.62l7.11-0.5c0.02,0,0.03,0,0.04,0
			c0.19-0.01,0.34,0.06,0.45,0.22c0.08,0.11,0.12,0.25,0.12,0.43c0,0.38-0.17,0.58-0.5,0.6L71.49,149.01z M69.22,145.38
			c0.31,0,0.86,0.18,1.64,0.53c0.24,0.11,0.43,0.21,0.56,0.29c0.21,0.14,0.31,0.32,0.31,0.56c0,0.16-0.05,0.31-0.16,0.46
			c-0.14,0.2-0.34,0.29-0.6,0.29c-0.18,0-0.38-0.09-0.6-0.27c-0.24-0.2-0.69-0.51-1.33-0.93c-0.21-0.14-0.32-0.3-0.32-0.49
			c0-0.1,0.03-0.2,0.1-0.28C68.91,145.44,69.04,145.38,69.22,145.38z"/>
		<path d="M84.63,152.85c0.18-0.16,0.34-0.32,0.49-0.46c0.17-0.18,0.35-0.27,0.53-0.27c0.13,0,0.24,0.04,0.34,0.12
			c0.13,0.1,0.19,0.23,0.19,0.39c0,0.14-0.06,0.28-0.18,0.41c-0.18,0.2-0.42,0.42-0.72,0.66c0.37,0.41,0.64,0.61,0.81,0.61
			c0.14,0,0.23-0.26,0.29-0.77c0.03-0.26,0.16-0.39,0.39-0.39c0.19,0,0.31,0.09,0.36,0.28c0.04,0.13,0.05,0.4,0.05,0.84
			c0,0.51-0.04,0.86-0.11,1.04c-0.11,0.27-0.3,0.4-0.59,0.4c-0.26,0-0.57-0.1-0.94-0.29c-0.38-0.21-0.79-0.55-1.22-1.02
			c-0.59,0.37-1.13,0.65-1.64,0.84c-0.19,0.07-0.34,0.11-0.45,0.11c-0.13,0-0.24-0.05-0.31-0.14c-0.06-0.08-0.09-0.17-0.09-0.25
			c0-0.14,0.07-0.26,0.22-0.37c0.04-0.03,0.17-0.1,0.38-0.2c0.39-0.19,0.82-0.45,1.29-0.78c-0.25-0.35-0.48-0.82-0.71-1.4
			l-1.98,0.16v0.39c0.03,0,0.28-0.05,0.76-0.13c0.24-0.04,0.39-0.06,0.44-0.06c0.24,0,0.36,0.13,0.36,0.4c0,0.18-0.1,0.3-0.3,0.37
			c-0.1,0.03-0.51,0.13-1.26,0.3v1.1c0,0.31-0.05,0.53-0.14,0.68c-0.11,0.18-0.3,0.27-0.58,0.27c-0.36,0-0.81-0.11-1.36-0.34
			c-0.32-0.14-0.48-0.29-0.48-0.47c0-0.24,0.12-0.35,0.35-0.35c0.05,0,0.12,0.01,0.21,0.03c0.15,0.03,0.3,0.05,0.46,0.05
			c0.17,0,0.26-0.09,0.26-0.26v-0.44c-0.97,0.17-1.57,0.26-1.82,0.26c-0.33,0-0.49-0.16-0.49-0.49c0-0.23,0.1-0.38,0.3-0.46
			c0.06-0.02,0.21-0.04,0.46-0.06c0.56-0.05,1.07-0.12,1.55-0.19v-0.48l-1.76,0.14c-0.01,0-0.02,0-0.05,0
			c-0.3,0-0.45-0.15-0.45-0.45c0-0.31,0.15-0.48,0.44-0.5l1.82-0.14v-0.34c-0.49,0.06-0.88,0.09-1.16,0.09
			c-0.29,0-0.44-0.13-0.44-0.39c0-0.14,0.07-0.23,0.22-0.29c0.06-0.02,0.18-0.04,0.37-0.06c0.92-0.08,1.79-0.25,2.61-0.48
			c0.1-0.03,0.19-0.04,0.27-0.04c0.18,0,0.3,0.07,0.38,0.22c0.04,0.07,0.06,0.14,0.06,0.22c0,0.19-0.11,0.32-0.33,0.39
			c-0.08,0.03-0.31,0.07-0.69,0.14v0.43l1.68-0.13c-0.11-0.46-0.17-0.76-0.17-0.91c0-0.34,0.21-0.51,0.61-0.51
			c0.22,0,0.38,0.08,0.49,0.25c0.05,0.07,0.09,0.22,0.13,0.44c0.03,0.13,0.08,0.34,0.17,0.64l2.47-0.19
			c0.11-0.01,0.2,0.01,0.28,0.05c0.15,0.08,0.23,0.21,0.23,0.4c0,0.29-0.15,0.46-0.44,0.48l-2.21,0.18
			c0.01,0.04,0.04,0.08,0.06,0.14C84.4,152.44,84.51,152.64,84.63,152.85z M82.77,147.29v0.39l2.57-0.18c0.01,0,0.02,0,0.04,0
			c0.16,0,0.28,0.07,0.34,0.22c0.02,0.06,0.03,0.12,0.03,0.18c0,0.26-0.12,0.4-0.36,0.42l-2.63,0.19v0.44l3.56-0.23
			c0.02,0,0.04,0,0.04,0c0.28,0,0.42,0.15,0.42,0.44c0,0.29-0.13,0.44-0.4,0.46l-8.37,0.52l-0.05,0.01c-0.11,0.01-0.2-0.03-0.28-0.1
			c-0.08-0.08-0.12-0.19-0.12-0.33c0-0.28,0.13-0.43,0.39-0.44l3.47-0.23v-0.43l-2.56,0.18c-0.02,0-0.04,0-0.04,0
			c-0.11,0-0.2-0.04-0.27-0.12c-0.07-0.07-0.11-0.17-0.11-0.28c0-0.26,0.13-0.4,0.38-0.42l2.61-0.18v-0.4l-2.85,0.2
			c-0.02,0-0.04,0-0.06,0c-0.14,0-0.24-0.05-0.31-0.15c-0.05-0.07-0.08-0.16-0.08-0.27c0-0.28,0.14-0.44,0.41-0.45l1.6-0.12
			c-0.07-0.13-0.18-0.32-0.35-0.56c-0.09-0.14-0.14-0.25-0.14-0.34c0-0.14,0.06-0.25,0.18-0.33c0.08-0.06,0.17-0.09,0.28-0.09
			c0.13,0,0.29,0.07,0.5,0.21c0.52,0.35,0.79,0.66,0.79,0.93c0,0.03,0,0.06-0.01,0.1l1.38-0.1c0.2-0.34,0.36-0.65,0.49-0.93
			c0.1-0.22,0.28-0.33,0.54-0.33c0.14,0,0.27,0.03,0.39,0.09c0.23,0.1,0.34,0.25,0.34,0.45c0,0.14-0.13,0.35-0.4,0.63l1.5-0.11
			l0.04-0.01c0.15-0.01,0.27,0.05,0.35,0.18c0.04,0.07,0.06,0.15,0.06,0.24c0,0.3-0.13,0.46-0.4,0.48L82.77,147.29z M84.83,149.81
			c0.34,0,0.68,0.08,1.03,0.25c0.23,0.11,0.34,0.27,0.34,0.46c0,0.09-0.03,0.18-0.09,0.27c-0.1,0.14-0.23,0.21-0.39,0.21
			c-0.1,0-0.2-0.04-0.32-0.11c-0.05-0.03-0.28-0.17-0.69-0.42c-0.18-0.11-0.27-0.23-0.27-0.36
			C84.44,149.91,84.57,149.81,84.83,149.81z"/>
		<path d="M93.94,149.45l0.11,0.17c0.69,1.08,1.59,2.11,2.71,3.08c0.57,0.5,1.13,0.92,1.68,1.25c0.37,0.23,0.55,0.42,0.55,0.58
			c0,0.12-0.12,0.21-0.35,0.27c-0.55,0.15-0.99,0.22-1.31,0.22c-0.24,0-0.45-0.08-0.62-0.24c-0.28-0.26-0.6-0.6-0.98-1.04
			c-0.8-0.93-1.56-1.97-2.29-3.13c-0.9,1.82-2.17,3.25-3.79,4.29c-0.2,0.13-0.38,0.2-0.54,0.2c-0.17,0-0.31-0.08-0.44-0.23
			c-0.08-0.1-0.12-0.21-0.12-0.33c0-0.19,0.11-0.37,0.33-0.54c2.35-1.78,3.75-4.26,4.21-7.45c0.08-0.53,0.33-0.8,0.76-0.8
			c0.52,0,0.79,0.25,0.79,0.75c0,0.17-0.05,0.5-0.15,0.97C94.34,148.17,94.16,148.83,93.94,149.45z"/>
		<path d="M105.97,150.25l2.82-0.23l0.06-0.01c0.17-0.01,0.3,0.05,0.4,0.18c0.08,0.11,0.13,0.25,0.13,0.44
			c0,0.36-0.17,0.56-0.5,0.59l-2.47,0.21c0.41,0.83,0.96,1.53,1.64,2.1c0.26,0.22,0.43,0.33,0.53,0.33c0.07,0,0.13-0.09,0.17-0.26
			c0.04-0.17,0.09-0.47,0.15-0.89c0.04-0.32,0.19-0.48,0.44-0.48c0.26,0,0.41,0.14,0.46,0.42c0.03,0.17,0.04,0.41,0.04,0.74
			c0,0.94-0.03,1.49-0.09,1.67c-0.11,0.3-0.32,0.45-0.64,0.45c-0.58,0-1.28-0.38-2.11-1.15c-0.83-0.77-1.48-1.7-1.94-2.81
			l-2.68,0.23v2.04c0.44-0.15,1.14-0.41,2.1-0.79c0.16-0.06,0.28-0.09,0.38-0.09c0.14,0,0.25,0.05,0.34,0.16
			c0.08,0.1,0.13,0.22,0.13,0.35c0,0.18-0.09,0.34-0.28,0.47c-0.56,0.38-1.39,0.81-2.5,1.28c-0.4,0.17-0.66,0.25-0.78,0.25
			c-0.15,0-0.33-0.09-0.54-0.26c-0.12-0.1-0.2-0.22-0.23-0.35c-0.02-0.07-0.02-0.19-0.02-0.37v-7.12c-0.17-0.11-0.26-0.29-0.26-0.54
			c0-0.35,0.17-0.54,0.5-0.56l6.17-0.45c0.05,0,0.12-0.01,0.18-0.01c0.66,0,0.99,0.26,0.99,0.79c0,0.12-0.02,0.25-0.05,0.39
			l-0.23,0.99c0.18,0.1,0.27,0.27,0.27,0.51c0,0.33-0.15,0.51-0.46,0.54l-2.34,0.18C105.8,149.55,105.87,149.9,105.97,150.25z
			 M102.37,148.36l4.59-0.37l0.11-0.79c0-0.03,0-0.05,0-0.07c0-0.11-0.07-0.17-0.21-0.16l-4.5,0.37V148.36z M104.65,150.35
			c-0.1-0.38-0.17-0.73-0.22-1.06l-2.06,0.16v1.08L104.65,150.35z"/>
		<path d="M118.57,148.84l-0.11,1.86l2.17-0.12c0.02,0,0.03,0,0.04,0c0.12,0,0.23,0.03,0.32,0.1c0.17,0.11,0.25,0.29,0.25,0.53
			c0,0.29-0.1,0.49-0.29,0.59c-0.07,0.04-0.15,0.06-0.24,0.07l-8.84,0.44c-0.03,0-0.05,0-0.05,0c-0.12,0-0.22-0.03-0.31-0.09
			c-0.17-0.11-0.25-0.29-0.25-0.53c0-0.41,0.17-0.62,0.5-0.64l2.05-0.1l-0.11-1.77l-1.13,0.08c-0.03,0-0.04,0-0.05,0
			c-0.12,0-0.22-0.03-0.32-0.09c-0.17-0.11-0.25-0.29-0.25-0.53c0-0.4,0.17-0.61,0.5-0.64l1.17-0.08l-0.08-1.41l-0.01-0.05
			c-0.02-0.25,0.09-0.44,0.33-0.56c0.12-0.06,0.26-0.09,0.43-0.09c0.47,0,0.72,0.2,0.74,0.6l0.06,1.4l2.09-0.14l0.06-1.57
			c0.02-0.4,0.27-0.6,0.75-0.6c0.2,0,0.37,0.05,0.51,0.14c0.17,0.12,0.25,0.29,0.25,0.52c0,0.01,0,0.03,0,0.04l-0.08,1.36l0.99-0.07
			c0,0,0.01,0,0.03,0c0.14,0,0.27,0.04,0.37,0.13c0.14,0.12,0.21,0.29,0.21,0.52c0,0.39-0.17,0.6-0.51,0.63L118.57,148.84z
			 M114.57,152.47c0.18,0,0.35,0.06,0.5,0.19c0.16,0.13,0.24,0.31,0.24,0.53c0,0.2-0.08,0.38-0.24,0.56
			c-0.25,0.29-0.6,0.6-1.05,0.93c-0.8,0.6-1.37,0.9-1.72,0.9c-0.16,0-0.29-0.06-0.38-0.18c-0.08-0.1-0.12-0.21-0.12-0.33
			c0-0.19,0.16-0.41,0.49-0.65c0.6-0.46,1.14-0.99,1.61-1.58C114.11,152.6,114.33,152.47,114.57,152.47z M117.12,148.94l-1.99,0.13
			l0.07,1.8l1.84-0.1L117.12,148.94z M117.55,152.48c0.28,0,0.82,0.29,1.64,0.88c0.37,0.27,0.69,0.52,0.96,0.77
			c0.2,0.18,0.29,0.39,0.29,0.61c0,0.2-0.08,0.38-0.24,0.53c-0.17,0.15-0.36,0.23-0.58,0.23c-0.17,0-0.33-0.05-0.45-0.16
			c-0.05-0.04-0.13-0.13-0.24-0.26c-0.48-0.58-1.02-1.12-1.63-1.61c-0.18-0.15-0.28-0.31-0.28-0.48c0-0.13,0.05-0.24,0.14-0.34
			C117.26,152.53,117.39,152.48,117.55,152.48z"/>
		<path d="M124.47,151.57c-0.4,0.62-0.82,1.16-1.26,1.61c-0.2,0.21-0.38,0.31-0.53,0.31c-0.1,0-0.2-0.04-0.29-0.13
			c-0.1-0.08-0.15-0.19-0.15-0.32c0-0.14,0.1-0.33,0.29-0.57c0.69-0.88,1.25-1.75,1.68-2.61l-1.3,0.14c-0.03,0-0.06,0.01-0.08,0.01
			c-0.16,0-0.29-0.06-0.38-0.18c-0.09-0.12-0.14-0.27-0.14-0.45c0-0.35,0.16-0.54,0.48-0.57l1.68-0.18v-1.18
			c-0.75,0.16-1.19,0.23-1.3,0.23c-0.32,0-0.48-0.16-0.48-0.48c0-0.2,0.09-0.34,0.27-0.43c0.05-0.03,0.18-0.07,0.37-0.12
			c0.84-0.22,1.66-0.51,2.46-0.86c0.29-0.12,0.49-0.19,0.62-0.19c0.24,0,0.42,0.1,0.54,0.31c0.06,0.1,0.09,0.21,0.09,0.32
			c0,0.26-0.14,0.45-0.43,0.57c-0.22,0.1-0.49,0.2-0.83,0.3v1.38l1.04-0.12c0.03,0,0.05-0.01,0.06-0.01c0.24-0.01,0.41,0.1,0.5,0.34
			c0.03,0.07,0.04,0.16,0.04,0.24c0,0.36-0.16,0.56-0.48,0.6l-1.17,0.13v0.54c0.65,0.34,1.13,0.63,1.45,0.87
			c0.22,0.17,0.33,0.36,0.33,0.58c0,0.13-0.04,0.24-0.12,0.35c-0.11,0.16-0.27,0.23-0.46,0.23c-0.16,0-0.31-0.09-0.48-0.26
			c-0.14-0.15-0.35-0.36-0.64-0.62l-0.07-0.07v3.68c0,0.14-0.04,0.25-0.13,0.35c-0.13,0.14-0.3,0.21-0.53,0.21
			c-0.27,0-0.46-0.09-0.58-0.28c-0.05-0.08-0.08-0.17-0.08-0.28V151.57z M132.13,152.27c0.21,0.11,0.32,0.31,0.32,0.6
			c0,0.39-0.18,0.59-0.53,0.62l-2.71,0.18c0,0.16-0.05,0.28-0.14,0.38c-0.12,0.13-0.28,0.19-0.5,0.19c-0.42,0-0.64-0.19-0.66-0.58
			l-0.28-5.05c-0.01-0.21,0.07-0.38,0.23-0.49c0.12-0.08,0.26-0.13,0.44-0.13c0.26,0,0.45,0.09,0.58,0.27l2.34-0.27
			c0.11-0.01,0.2-0.02,0.27-0.02c0.66,0,0.99,0.33,0.99,0.98c0,0.07-0.01,0.14-0.02,0.23L132.13,152.27z M130.89,152.29l0.21-2.7
			c0-0.02,0-0.04,0-0.07c0-0.17-0.08-0.25-0.25-0.25c-0.01,0-0.04,0-0.07,0.01l-1.75,0.18l0.13,2.95L130.89,152.29z"/>
		<path d="M142.06,154.8l-6.33,0.27c-0.08,0.3-0.3,0.45-0.67,0.45c-0.3,0-0.5-0.1-0.61-0.31c-0.04-0.08-0.07-0.17-0.07-0.27v-8.58
			c0-0.21,0.09-0.36,0.27-0.46c0.12-0.07,0.27-0.11,0.42-0.11c0.29,0,0.49,0.11,0.61,0.32l6.54-0.47c0.02,0,0.06,0,0.13,0
			c0.72,0,1.07,0.38,1.07,1.15v8.18c0,0.16-0.06,0.29-0.17,0.39c-0.13,0.13-0.3,0.19-0.52,0.19c-0.31,0-0.51-0.11-0.62-0.33
			c-0.04-0.07-0.05-0.16-0.05-0.25V154.8z M142.06,153.61v-6.57c0-0.18-0.09-0.26-0.27-0.25h-0.02l-6.04,0.45v6.63L142.06,153.61z
			 M139.41,148.82v0.8l1.25-0.09c0.04,0,0.07-0.01,0.08-0.01c0.32,0,0.48,0.19,0.48,0.56c0,0.33-0.15,0.5-0.44,0.53l-0.3,0.03
			c0.18,0.06,0.34,0.16,0.49,0.3c0.13,0.13,0.2,0.27,0.2,0.43c0,0.15-0.08,0.28-0.23,0.38l0.16-0.01c0.01,0,0.03,0,0.05,0
			c0.35,0,0.53,0.2,0.53,0.61c0,0.36-0.16,0.55-0.48,0.57l-4.46,0.26l-0.05,0c-0.18,0.01-0.33-0.06-0.43-0.22
			c-0.07-0.11-0.1-0.24-0.1-0.39c0-0.37,0.16-0.56,0.47-0.58l1.54-0.09v-1.1l-1.1,0.09c-0.02,0-0.03,0-0.04,0
			c-0.32,0-0.48-0.17-0.48-0.52c0-0.36,0.15-0.55,0.44-0.57l1.18-0.09v-0.8l-1.27,0.1c-0.02,0-0.05,0-0.08,0
			c-0.32,0-0.48-0.2-0.48-0.6c0-0.35,0.16-0.53,0.47-0.55l3.99-0.31c0.02,0,0.04,0,0.06,0c0.32,0,0.49,0.2,0.49,0.61
			c0,0.34-0.15,0.53-0.46,0.55L139.41,148.82z M139.93,150.67l-0.53,0.04v1.12l0.93-0.06c-0.04-0.04-0.08-0.09-0.11-0.16
			c-0.08-0.2-0.19-0.38-0.33-0.55c-0.05-0.06-0.07-0.12-0.07-0.18C139.83,150.81,139.86,150.73,139.93,150.67z"/>
	</g>
</g>
<g id="ガイド" display="none">
</g>
</svg>
