<?xml version="1.0" encoding="utf-8"?>
<!-- Generator: Adobe Illustrator 25.4.1, SVG Export Plug-In . SVG Version: 6.00 Build 0)  -->
<svg version="1.1" xmlns="http://www.w3.org/2000/svg" xmlns:xlink="http://www.w3.org/1999/xlink" x="0px" y="0px"
	 viewBox="0 0 164.41 252.28" enable-background="new 0 0 164.41 252.28" xml:space="preserve">
<g id="地">
	<rect fill="#DCDDDD" width="164.41" height="252.28"/>
</g>
<g id="枠">
</g>
<g id="国旗">
	<g>
		<g>
			<rect x="25.53" y="59.68" fill="#CF2A22" width="113.37" height="75.58"/>
			<polygon fill="#F5C131" points="25.54,59.68 82.21,97.5 25.51,135.27 			"/>
			<polygon fill="#040000" points="25.54,59.68 63.93,97.5 25.51,135.27 			"/>
			<polygon fill="#FFFFFF" points="35.78,87.93 41.39,93.18 48.12,89.48 44.85,96.43 50.46,101.69 42.83,100.73 39.57,107.68 
				38.12,100.14 30.5,99.18 37.23,95.47 			"/>
		</g>
	</g>
</g>
<g id="国名">
	<g>
		<path d="M53.07,152.95c-0.97,0.85-1.97,1.52-3.01,1.99c-0.41,0.18-0.69,0.28-0.85,0.28c-0.17,0-0.29-0.06-0.37-0.19
			c-0.06-0.09-0.08-0.18-0.08-0.27c0-0.15,0.07-0.28,0.22-0.39c0.04-0.03,0.19-0.11,0.44-0.24c0.92-0.47,1.9-1.17,2.93-2.11
			l-0.92,0.05c-0.12,0.2-0.33,0.3-0.61,0.3c-0.36,0-0.56-0.17-0.6-0.51l-0.38-2.93c0-0.03-0.01-0.07-0.01-0.11
			c0-0.24,0.1-0.42,0.31-0.51c0.11-0.05,0.24-0.08,0.38-0.08c0.19,0,0.35,0.06,0.47,0.17l2.08-0.15v-0.62l-2.71,0.18
			c-0.02,0-0.04,0-0.04,0c-0.21,0-0.37-0.09-0.47-0.28c-0.05-0.1-0.08-0.21-0.08-0.33c0-0.22,0.08-0.38,0.24-0.49
			c0.08-0.05,0.17-0.08,0.27-0.08l2.79-0.18v-0.57c0-0.19,0.06-0.34,0.19-0.44c0.13-0.1,0.3-0.16,0.51-0.16
			c0.32,0,0.53,0.11,0.64,0.34c0.04,0.07,0.06,0.16,0.06,0.25v0.48l2.58-0.16c0.15-0.01,0.27,0.02,0.37,0.09
			c0.16,0.12,0.23,0.28,0.23,0.5c0,0.36-0.17,0.55-0.51,0.57l-2.67,0.17v0.61l2.23-0.17c0.06,0,0.12-0.01,0.19-0.01
			c0.63,0,0.95,0.29,0.95,0.86c0,0.12-0.01,0.23-0.03,0.34l-0.38,2.48c-0.05,0.32-0.26,0.49-0.62,0.49c-0.32,0-0.52-0.12-0.6-0.36
			l-1.26,0.07c1.26,1.01,2.54,1.77,3.87,2.27c0.29,0.11,0.44,0.24,0.44,0.37c0,0.1-0.11,0.2-0.32,0.28
			c-0.48,0.18-0.85,0.28-1.11,0.28c-0.23,0-0.55-0.14-0.97-0.42c-0.85-0.57-1.65-1.25-2.4-2.07v2.57c0,0.14-0.05,0.26-0.14,0.37
			c-0.14,0.14-0.32,0.22-0.55,0.22c-0.29,0-0.5-0.1-0.62-0.3c-0.05-0.08-0.08-0.18-0.08-0.28V152.95z M53.09,149.7v-0.57l-1.88,0.13
			l0.06,0.55L53.09,149.7z M53.09,150.5l-1.72,0.11l0.07,0.58l1.66-0.09V150.5z M54.43,149.61l1.98-0.12l0.04-0.34
			c0.01-0.05,0.01-0.08,0.01-0.09c0-0.1-0.06-0.14-0.17-0.14c-0.03,0-0.05,0-0.05,0l-1.8,0.13V149.61z M54.43,150.42v0.61l1.81-0.1
			l0.07-0.63L54.43,150.42z"/>
		<path d="M64.74,150.47c-1.07,0.06-2.23,0.14-3.47,0.24c-0.1,0.01-0.16,0.01-0.19,0.01c-0.27,0-0.46-0.11-0.56-0.32
			c-0.05-0.1-0.08-0.22-0.08-0.36c0-0.37,0.2-0.57,0.59-0.61c0.5-0.06,2.85-0.2,7.04-0.42c0.78-0.04,1.18-0.06,1.21-0.06
			c0.21,0,0.38,0.06,0.5,0.19c0.11,0.12,0.17,0.27,0.17,0.46c0,0.33-0.13,0.54-0.38,0.63c-0.08,0.03-0.24,0.04-0.47,0.05
			c-0.51,0.01-1.37,0.05-2.59,0.1l-0.27,0c-0.06,1.75-0.59,3.08-1.59,3.99c-0.58,0.53-1.03,0.79-1.36,0.79
			c-0.16,0-0.29-0.06-0.39-0.19c-0.09-0.12-0.13-0.24-0.13-0.35c0-0.14,0.06-0.27,0.17-0.38c0.04-0.04,0.15-0.13,0.35-0.28
			c0.61-0.46,1.03-1.11,1.26-1.95C64.64,151.59,64.71,151.08,64.74,150.47z M67.19,146.13c0.2,0,0.36,0.06,0.48,0.18
			c0.12,0.11,0.18,0.26,0.18,0.44c0,0.36-0.17,0.58-0.5,0.66c-0.19,0.05-0.69,0.11-1.5,0.17c-1.09,0.09-2.02,0.14-2.77,0.14
			c-0.54,0-0.81-0.22-0.81-0.66c0-0.29,0.13-0.49,0.4-0.58c0.09-0.03,0.29-0.05,0.6-0.05c1,0,2.08-0.07,3.24-0.21
			c0.11-0.01,0.25-0.03,0.4-0.05C67.04,146.14,67.13,146.13,67.19,146.13z"/>
		<path d="M76.1,151.2c-0.77,0.51-1.54,0.91-2.28,1.2c-0.15,0.06-0.27,0.09-0.37,0.09c-0.17,0-0.3-0.08-0.37-0.23
			c-0.04-0.08-0.06-0.16-0.06-0.23c0-0.16,0.07-0.3,0.21-0.4c0.03-0.02,0.18-0.1,0.46-0.25c0.72-0.38,1.45-0.88,2.19-1.51
			c0.72-0.61,1.3-1.23,1.75-1.88c0.16-0.21,0.34-0.32,0.57-0.32c0.15,0,0.29,0.05,0.4,0.15c0.17,0.14,0.26,0.31,0.26,0.49
			c0,0.14-0.07,0.31-0.22,0.51c-0.41,0.56-0.91,1.09-1.5,1.59c0.12,0.1,0.18,0.23,0.18,0.39v3.73c0,0.17-0.05,0.3-0.16,0.4
			c-0.11,0.11-0.26,0.16-0.46,0.16c-0.27,0-0.46-0.1-0.55-0.3c-0.04-0.08-0.06-0.17-0.06-0.27V151.2z"/>
		<path d="M86.73,148.02l-0.12,0.01c-0.89,0.05-1.38,0.07-1.49,0.07c-0.46,0-0.68-0.22-0.68-0.67c0-0.28,0.14-0.47,0.41-0.56
			c0.08-0.03,0.26-0.05,0.54-0.05c0.67-0.02,1.62-0.1,2.85-0.24c0.49-0.06,0.87-0.11,1.13-0.15c0.11-0.02,0.19-0.03,0.26-0.03
			c0.4,0,0.6,0.21,0.6,0.64c0,0.34-0.18,0.56-0.55,0.64c-0.44,0.1-1.15,0.19-2.15,0.27c0.17,0.07,0.29,0.17,0.35,0.3
			c0.04,0.07,0.05,0.24,0.05,0.5c0,0.19,0,0.48,0.01,0.87c2.34-0.17,3.66-0.25,3.97-0.25c0.24,0,0.42,0.09,0.54,0.27
			c0.08,0.11,0.12,0.24,0.12,0.4c0,0.33-0.15,0.54-0.44,0.62c-0.06,0.01-0.21,0.03-0.44,0.03c-0.81,0.02-2.06,0.09-3.75,0.22
			c0.01,0.49,0.01,0.99,0.01,1.49c0,0.24,0.03,0.4,0.07,0.5c0.08,0.17,0.29,0.26,0.64,0.26c0.73,0,1.4-0.05,2.01-0.14
			c0.08-0.01,0.15-0.02,0.19-0.02c0.27,0,0.47,0.12,0.59,0.37c0.05,0.11,0.08,0.23,0.08,0.37c0,0.3-0.14,0.5-0.41,0.61
			c-0.23,0.1-1.06,0.14-2.47,0.14c-1.06,0-1.72-0.32-1.98-0.95c-0.08-0.21-0.13-0.45-0.13-0.72c0-0.05,0-0.45-0.01-1.2
			c0-0.12,0-0.33,0-0.6l-0.2,0.02c-1.4,0.12-2.22,0.19-2.46,0.22c-0.07,0.01-0.12,0.01-0.15,0.01c-0.42,0-0.63-0.23-0.63-0.68
			c0-0.35,0.17-0.56,0.5-0.63c0.04-0.01,0.74-0.07,2.1-0.17l0.63-0.04l0.22-0.02v-0.1l-0.02-0.97c0-0.28,0.05-0.48,0.14-0.58
			C86.67,148.07,86.69,148.05,86.73,148.02z"/>
		<path d="M102.64,149.33c0.23,0,0.42,0.07,0.55,0.22c0.11,0.12,0.17,0.28,0.17,0.48c0,0.37-0.18,0.59-0.53,0.66
			c-0.09,0.02-1.34,0.08-3.74,0.19c-1.1,0.05-2.27,0.11-3.5,0.17c-0.04,0-0.09,0-0.13,0c-0.21,0-0.38-0.06-0.52-0.18
			c-0.14-0.13-0.22-0.3-0.22-0.51c0-0.3,0.13-0.51,0.4-0.63c0.11-0.04,0.37-0.07,0.79-0.09c0.37-0.01,1.29-0.05,2.77-0.13
			c0.63-0.03,1.5-0.07,2.59-0.12c0.37-0.01,0.66-0.03,0.87-0.04C102.43,149.33,102.59,149.33,102.64,149.33z"/>
		<path d="M108.35,147.24c0.47,0,0.7,0.27,0.7,0.8c0,1.92-0.36,3.46-1.07,4.63c-0.3,0.5-0.66,0.91-1.08,1.24
			c-0.15,0.12-0.31,0.18-0.49,0.18c-0.12,0-0.22-0.04-0.32-0.12c-0.11-0.1-0.16-0.21-0.16-0.35c0-0.16,0.07-0.32,0.22-0.49
			c0.6-0.69,1.01-1.51,1.22-2.46c0.17-0.74,0.26-1.64,0.26-2.7c0-0.22,0.05-0.38,0.15-0.49
			C107.92,147.32,108.11,147.24,108.35,147.24z M111.54,146.83v5.65c0,0.14,0.03,0.22,0.1,0.22c0.14,0,0.49-0.2,1.07-0.6
			c0.82-0.56,1.49-1.13,2.03-1.72c0.18-0.21,0.36-0.31,0.52-0.31c0.13,0,0.26,0.05,0.39,0.16c0.13,0.1,0.19,0.24,0.19,0.42
			c0,0.15-0.06,0.31-0.18,0.48c-0.43,0.59-1.08,1.23-1.94,1.92c-0.68,0.54-1.33,0.95-1.94,1.26c-0.23,0.11-0.44,0.17-0.61,0.17
			c-0.2,0-0.39-0.07-0.59-0.21c-0.28-0.2-0.42-0.5-0.42-0.92v-6.51c0-0.24,0.11-0.42,0.31-0.54c0.11-0.06,0.23-0.09,0.37-0.09
			c0.2,0,0.37,0.06,0.51,0.17C111.47,146.49,111.54,146.64,111.54,146.83z"/>
	</g>
</g>
<g id="ガイド" display="none">
</g>
</svg>
