<?xml version="1.0" encoding="utf-8"?>
<!-- Generator: Adobe Illustrator 25.4.1, SVG Export Plug-In . SVG Version: 6.00 Build 0)  -->
<svg version="1.1" xmlns="http://www.w3.org/2000/svg" xmlns:xlink="http://www.w3.org/1999/xlink" x="0px" y="0px"
	 viewBox="0 0 164.41 252.28" enable-background="new 0 0 164.41 252.28" xml:space="preserve">
<g id="地">
	<rect fill="#DCDDDD" width="164.41" height="252.28"/>
</g>
<g id="枠">
</g>
<g id="国旗">
	<g>
		<g>
			<rect x="25.51" y="59.94" fill="#147F49" width="113.37" height="75.59"/>
			<polygon fill="#C8152A" points="138.89,85.13 138.89,59.94 46.82,59.94 84.3,85.13 			"/>
			<polygon fill="#FFFFFF" points="84.3,85.13 46.82,59.94 38.81,59.94 84.3,90.52 138.89,90.52 138.89,85.13 			"/>
			<polygon fill="#004876" points="138.89,110.37 138.87,135.56 46.81,135.49 84.31,110.33 			"/>
			<polygon fill="#FFFFFF" points="84.31,110.33 46.81,135.49 38.8,135.49 84.31,104.94 138.9,104.98 138.89,110.37 			"/>
			<polygon fill="#F5CF21" points="25.51,69.09 68.41,97.73 25.51,126.37 			"/>
			<polyline fill="#040000" points="25.51,120.84 25.51,74.62 60.13,97.73 			"/>
		</g>
	</g>
</g>
<g id="国名">
	<g>
		<path d="M60.11,152.01v0.59l1.45-0.09c0.03,0,0.04,0,0.04,0c0.31,0,0.46,0.16,0.46,0.47c0,0.32-0.15,0.49-0.46,0.51l-1.49,0.07
			v1.16c0,0.35-0.21,0.52-0.63,0.52c-0.43,0-0.65-0.17-0.65-0.52v-1.1l-1.3,0.06c-0.12,0.01-0.22-0.01-0.29-0.06
			c-0.13-0.08-0.2-0.21-0.2-0.39c0-0.3,0.15-0.46,0.45-0.48l1.34-0.08v-0.58l-1.19,0.08c-0.32,0.02-0.48-0.12-0.48-0.43
			c0-0.28,0.14-0.44,0.43-0.46l0.38-0.03c-0.01-0.02-0.04-0.06-0.06-0.12c-0.1-0.18-0.23-0.4-0.39-0.64
			c-0.06-0.09-0.09-0.18-0.09-0.27c0-0.09,0.04-0.17,0.12-0.24l-1.08,0.07l0.24,4.87c0.01,0.14-0.03,0.26-0.1,0.36
			c-0.12,0.17-0.31,0.25-0.59,0.25c-0.42,0-0.64-0.19-0.67-0.58l-0.28-5.5c0-0.04-0.01-0.07-0.01-0.09c0-0.23,0.1-0.4,0.3-0.5
			c0.11-0.06,0.24-0.09,0.38-0.09c0.25,0,0.44,0.07,0.56,0.22l2.36-0.18v-1.01L56.15,148L56.1,148c-0.18,0.01-0.32-0.06-0.43-0.22
			c-0.07-0.11-0.1-0.24-0.1-0.4c0-0.37,0.16-0.56,0.49-0.59l2.63-0.19v-0.87c0-0.36,0.24-0.54,0.71-0.54c0.46,0,0.7,0.18,0.7,0.54
			v0.76l2.66-0.2c0.02,0,0.04,0,0.06,0c0.35,0.01,0.52,0.24,0.52,0.66c0,0.37-0.17,0.56-0.5,0.58l-2.75,0.19v1.01l2.8-0.21
			c0.03,0,0.07,0,0.14,0c0.34,0,0.59,0.09,0.75,0.27c0.1,0.11,0.17,0.25,0.21,0.42c0.03,0.12,0.04,0.37,0.04,0.74
			c0,1.39-0.07,2.82-0.19,4.3c-0.04,0.44-0.12,0.75-0.25,0.94c-0.17,0.23-0.43,0.35-0.78,0.35c-0.29,0-0.7-0.1-1.25-0.3
			c-0.15-0.06-0.27-0.11-0.35-0.15c-0.19-0.1-0.28-0.23-0.28-0.42c0-0.26,0.12-0.39,0.36-0.39c0.04,0,0.09,0.01,0.16,0.02
			c0.2,0.04,0.41,0.06,0.64,0.06c0.19,0,0.31-0.05,0.35-0.14c0.03-0.06,0.05-0.2,0.07-0.43c0.11-1.49,0.16-2.74,0.16-3.75
			c0-0.16-0.02-0.27-0.07-0.32c-0.03-0.04-0.09-0.06-0.17-0.06c0,0-0.02,0-0.04,0l-1.36,0.09c0.27,0.1,0.4,0.26,0.4,0.47
			c0,0.18-0.19,0.45-0.56,0.8l0.55-0.04c0.32-0.02,0.48,0.12,0.48,0.44c0,0.3-0.15,0.46-0.44,0.48L60.11,152.01z M60.42,149.81
			l-2.32,0.16c0.31,0.13,0.56,0.31,0.74,0.55c0.1,0.13,0.15,0.25,0.15,0.35c0,0.11-0.05,0.23-0.14,0.33l0.91-0.07
			c0.17-0.3,0.33-0.65,0.46-1.04C60.25,149.97,60.32,149.88,60.42,149.81z"/>
		<path d="M74.32,146.52c0.24,0,0.46,0.06,0.66,0.18c0.27,0.17,0.4,0.41,0.4,0.72c0,0.2-0.08,0.44-0.25,0.74
			c-0.47,0.82-1.06,1.53-1.76,2.15c-0.4,0.34-0.7,0.51-0.91,0.51c-0.15,0-0.28-0.07-0.38-0.2c-0.07-0.1-0.11-0.19-0.11-0.28
			c0-0.15,0.09-0.31,0.28-0.49c0.56-0.54,0.99-1.08,1.28-1.63c0.08-0.15,0.12-0.25,0.12-0.3c0-0.06-0.05-0.09-0.15-0.09
			c-0.09,0-0.21,0-0.36,0.02c-0.08,0.01-0.33,0.02-0.75,0.05c-0.31,0.02-1.66,0.13-4.03,0.33c-0.8,0.07-1.23,0.1-1.29,0.1
			c-0.47,0-0.7-0.22-0.7-0.65c0-0.37,0.19-0.59,0.57-0.66c0.04-0.01,1.36-0.1,3.94-0.28C73.12,146.6,74.27,146.52,74.32,146.52z
			 M70.76,148.82c0.19,0,0.36,0.06,0.51,0.18c0.09,0.07,0.15,0.15,0.18,0.24c0.04,0.11,0.05,0.3,0.05,0.57
			c0,0.99-0.07,1.76-0.22,2.33c-0.32,1.22-1.05,2.18-2.18,2.86c-0.18,0.11-0.34,0.16-0.48,0.16c-0.17,0-0.29-0.06-0.38-0.17
			c-0.08-0.1-0.12-0.21-0.12-0.33c0-0.14,0.05-0.27,0.16-0.4c0.04-0.06,0.16-0.17,0.36-0.33c0.7-0.57,1.13-1.33,1.31-2.31
			c0.08-0.48,0.13-1.09,0.13-1.82l-0.01-0.3c0-0.28,0.1-0.47,0.31-0.59C70.5,148.85,70.62,148.82,70.76,148.82z"/>
		<path d="M84.86,146.76c0.36,0,0.64,0.11,0.86,0.33c0.19,0.19,0.29,0.44,0.29,0.74c0,0.21-0.05,0.54-0.17,0.99s-0.23,0.85-0.37,1.2
			c-0.7,1.79-1.85,3.18-3.46,4.16c-0.64,0.39-1.1,0.59-1.38,0.59c-0.18,0-0.32-0.07-0.41-0.22c-0.07-0.11-0.1-0.21-0.1-0.32
			c0-0.2,0.13-0.38,0.38-0.52c1.08-0.62,1.97-1.43,2.65-2.42c0.61-0.87,1.03-1.82,1.26-2.85c0.02-0.08,0.03-0.14,0.03-0.19
			c0-0.09-0.05-0.13-0.16-0.13c-0.08,0-0.18,0.01-0.3,0.02c-0.21,0.02-1.16,0.08-2.86,0.2c-0.63,0.04-1.32,0.1-2.07,0.16
			c-0.07,0.01-0.13,0.01-0.16,0.01c-0.46,0-0.69-0.24-0.69-0.71c0-0.36,0.17-0.57,0.51-0.64c0.16-0.03,1.81-0.14,4.96-0.33
			c0.31-0.02,0.56-0.04,0.73-0.05C84.65,146.77,84.79,146.76,84.86,146.76z"/>
		<path d="M92.17,146.75v3.86c0,0.2-0.06,0.35-0.19,0.46c-0.13,0.11-0.3,0.17-0.53,0.17c-0.31,0-0.52-0.11-0.63-0.32
			c-0.05-0.09-0.07-0.2-0.07-0.32v-3.86c0-0.26,0.1-0.44,0.31-0.55c0.12-0.06,0.25-0.09,0.39-0.09c0.24,0,0.43,0.07,0.56,0.21
			C92.12,146.43,92.17,146.57,92.17,146.75z M96.15,146.25v3.41c0,1.12-0.13,2.07-0.4,2.85c-0.35,1.01-1,1.85-1.95,2.54
			c-0.18,0.13-0.36,0.19-0.53,0.19c-0.15,0-0.27-0.05-0.35-0.14c-0.08-0.1-0.12-0.2-0.12-0.32c0-0.16,0.08-0.33,0.25-0.5
			c0.44-0.45,0.74-0.82,0.91-1.08c0.37-0.59,0.6-1.29,0.7-2.12c0.05-0.4,0.08-0.87,0.08-1.39v-3.42c0-0.38,0.23-0.58,0.7-0.58
			C95.91,145.68,96.15,145.87,96.15,146.25z"/>
		<path d="M103.88,148.14c0.15-0.65,0.26-1.23,0.33-1.75c0.06-0.45,0.29-0.67,0.71-0.67c0.49,0,0.73,0.22,0.73,0.65
			c0,0.29-0.09,0.84-0.27,1.64c0.52-0.04,1.11-0.1,1.77-0.17c0.09-0.01,0.17-0.01,0.23-0.01c0.3,0,0.56,0.08,0.77,0.23
			c0.27,0.2,0.41,0.49,0.41,0.86c0,0.13-0.05,0.52-0.14,1.16c-0.28,1.85-0.65,3.24-1.11,4.16c-0.29,0.57-0.67,0.86-1.15,0.86
			c-0.26,0-0.52-0.1-0.8-0.29c-0.83-0.58-1.25-1.02-1.25-1.3c0-0.09,0.03-0.17,0.08-0.26c0.06-0.1,0.16-0.14,0.28-0.14
			c0.12,0,0.28,0.05,0.46,0.14c0.48,0.25,0.78,0.37,0.9,0.37c0.11,0,0.2-0.08,0.29-0.23c0.26-0.49,0.5-1.25,0.73-2.28
			c0.18-0.82,0.27-1.4,0.27-1.72c0-0.16-0.07-0.24-0.21-0.24c-0.24,0-0.87,0.05-1.89,0.15c-0.71,2.13-1.82,3.79-3.33,4.97
			c-0.33,0.26-0.58,0.39-0.75,0.39c-0.14,0-0.26-0.05-0.36-0.15c-0.12-0.13-0.18-0.25-0.18-0.38c0-0.14,0.06-0.27,0.19-0.41
			c0.03-0.03,0.15-0.15,0.38-0.35c0.92-0.84,1.67-1.91,2.25-3.2c0.09-0.21,0.19-0.47,0.3-0.77c-1.17,0.13-1.85,0.19-2.05,0.19
			c-0.46,0-0.68-0.22-0.68-0.67c0-0.41,0.28-0.62,0.85-0.64C102.15,148.26,102.89,148.21,103.88,148.14z"/>
	</g>
</g>
<g id="ガイド" display="none">
</g>
</svg>
