<?xml version="1.0" encoding="utf-8"?>
<!-- Generator: Adobe Illustrator 25.4.1, SVG Export Plug-In . SVG Version: 6.00 Build 0)  -->
<svg version="1.1" xmlns="http://www.w3.org/2000/svg" xmlns:xlink="http://www.w3.org/1999/xlink" x="0px" y="0px"
	 viewBox="0 0 164.41 252.28" enable-background="new 0 0 164.41 252.28" xml:space="preserve">
<g id="地">
	<rect fill="#DCDDDD" width="164.41" height="252.28"/>
</g>
<g id="枠">
</g>
<g id="国旗">
	<g>
		<rect x="25.42" y="60.19" fill="#FFFFFF" width="113.39" height="75.59"/>
		<rect x="25.42" y="110.58" fill="#97B623" width="113.39" height="25.2"/>
		<rect x="25.42" y="60.19" fill="#28AAD7" width="113.39" height="25.2"/>
		<rect x="25.42" y="108.51" fill="#C8152A" width="113.39" height="2.07"/>
		<rect x="25.42" y="85.39" fill="#C8152A" width="113.39" height="2.08"/>
		<path fill="#FFFFFF" d="M36.86,72.86c0-4.69,3.8-8.5,8.5-8.5c1.21,0,2.36,0.26,3.41,0.71c-1.73-1.41-3.94-2.26-6.34-2.26
			c-5.55,0-10.04,4.5-10.04,10.04c0,5.55,4.5,10.04,10.04,10.04c2.41,0,4.61-0.85,6.34-2.26c-1.04,0.46-2.19,0.71-3.41,0.71
			C40.66,81.35,36.86,77.55,36.86,72.86z"/>
		<polygon fill="#FFFFFF" points="66.98,64.22 67.38,65.46 68.68,65.46 67.63,66.23 68.03,67.46 66.98,66.7 65.92,67.46 
			66.33,66.23 65.27,65.46 66.57,65.46 		"/>
		<polygon fill="#FFFFFF" points="73.38,64.22 73.78,65.46 75.08,65.46 74.03,66.23 74.43,67.46 73.38,66.7 72.32,67.46 
			72.73,66.23 71.67,65.46 72.97,65.46 		"/>
		<polygon fill="#FFFFFF" points="79.77,64.22 80.18,65.46 81.48,65.46 80.43,66.23 80.83,67.46 79.77,66.7 78.72,67.46 
			79.12,66.23 78.07,65.46 79.37,65.46 		"/>
		<polygon fill="#FFFFFF" points="66.98,71.35 67.38,72.59 68.68,72.59 67.63,73.35 68.03,74.59 66.98,73.82 65.92,74.59 
			66.33,73.35 65.27,72.59 66.57,72.59 		"/>
		<polygon fill="#FFFFFF" points="73.38,71.35 73.78,72.59 75.08,72.59 74.03,73.35 74.43,74.59 73.38,73.82 72.32,74.59 
			72.73,73.35 71.67,72.59 72.97,72.59 		"/>
		<polygon fill="#FFFFFF" points="60.58,71.35 60.98,72.59 62.28,72.59 61.23,73.35 61.63,74.59 60.58,73.82 59.52,74.59 
			59.93,73.35 58.87,72.59 60.18,72.59 		"/>
		<polygon fill="#FFFFFF" points="79.77,71.35 80.18,72.59 81.48,72.59 80.43,73.35 80.83,74.59 79.77,73.82 78.72,74.59 
			79.12,73.35 78.07,72.59 79.37,72.59 		"/>
		<polygon fill="#FFFFFF" points="66.98,78.48 67.38,79.71 68.68,79.71 67.63,80.48 68.03,81.71 66.98,80.95 65.92,81.71 
			66.33,80.48 65.27,79.71 66.57,79.71 		"/>
		<polygon fill="#FFFFFF" points="73.38,78.48 73.78,79.71 75.08,79.71 74.03,80.48 74.43,81.71 73.38,80.95 72.32,81.71 
			72.73,80.48 71.67,79.71 72.97,79.71 		"/>
		<polygon fill="#FFFFFF" points="79.77,78.48 80.18,79.71 81.48,79.71 80.43,80.48 80.83,81.71 79.77,80.95 78.72,81.71 
			79.12,80.48 78.07,79.71 79.37,79.71 		"/>
		<polygon fill="#FFFFFF" points="54.18,78.48 54.58,79.71 55.88,79.71 54.83,80.48 55.23,81.71 54.18,80.95 53.13,81.71 
			53.53,80.48 52.48,79.71 53.78,79.71 		"/>
		<polygon fill="#FFFFFF" points="60.58,78.48 60.98,79.71 62.28,79.71 61.23,80.48 61.63,81.71 60.58,80.95 59.52,81.71 
			59.93,80.48 58.87,79.71 60.18,79.71 		"/>
	</g>
</g>
<g id="国名">
	<g>
		<path d="M47.4,147.67v-1.46c0-0.2,0.06-0.37,0.18-0.49c0.13-0.13,0.3-0.19,0.52-0.19c0.29,0,0.49,0.11,0.61,0.33
			c0.06,0.1,0.08,0.22,0.08,0.35v1.38l0.18-0.01c1.3-0.08,2.03-0.13,2.18-0.14c0.08-0.01,0.14-0.01,0.19-0.01
			c0.32,0,0.58,0.11,0.76,0.32c0.18,0.21,0.27,0.49,0.27,0.84c0,0.29-0.06,0.69-0.18,1.21c-0.28,1.23-0.78,2.28-1.5,3.15
			c-0.56,0.68-1.24,1.26-2.04,1.76c-0.54,0.34-0.93,0.51-1.16,0.51c-0.2,0-0.34-0.07-0.43-0.19c-0.07-0.1-0.11-0.21-0.11-0.33
			c0-0.17,0.07-0.31,0.21-0.43c0.04-0.03,0.15-0.1,0.34-0.22c0.79-0.48,1.49-1.1,2.1-1.87c0.41-0.52,0.73-1.12,0.95-1.81
			c0.19-0.58,0.28-1.06,0.28-1.46c0-0.13-0.07-0.2-0.2-0.2c-0.08,0-0.19,0-0.32,0.02c-0.79,0.08-2.4,0.18-4.81,0.3l0.17,1.74
			c0,0.04,0.01,0.07,0.01,0.09c0.01,0.3-0.13,0.5-0.44,0.6c-0.1,0.03-0.2,0.05-0.3,0.05c-0.23,0-0.4-0.08-0.53-0.25
			c-0.06-0.09-0.1-0.19-0.11-0.3l-0.27-2.69c-0.01-0.06-0.01-0.1-0.01-0.13c0-0.44,0.24-0.65,0.73-0.65c0.28,0,0.47,0.1,0.58,0.3
			l0.12-0.01l0.57-0.03C46.75,147.71,47.21,147.68,47.4,147.67z"/>
		<path d="M59.57,151.81c-1.04,1.06-2.12,1.91-3.23,2.56c-0.46,0.27-0.78,0.4-0.94,0.4c-0.2,0-0.35-0.09-0.45-0.27
			c-0.06-0.1-0.09-0.19-0.09-0.27c0-0.16,0.08-0.31,0.23-0.44c0.04-0.03,0.17-0.12,0.39-0.27c0.89-0.57,1.83-1.33,2.8-2.28
			c0.98-0.96,1.7-1.91,2.16-2.85c0.08-0.16,0.12-0.27,0.12-0.32c0-0.07-0.04-0.1-0.11-0.1c-0.05,0-0.13,0.01-0.25,0.03
			c-0.07,0.01-0.52,0.05-1.35,0.12c-1.1,0.08-1.73,0.13-1.9,0.14c-0.07,0.01-0.13,0.01-0.17,0.01c-0.3,0-0.5-0.11-0.61-0.33
			c-0.05-0.1-0.07-0.21-0.07-0.33c0-0.3,0.15-0.5,0.44-0.6c0.09-0.03,0.28-0.05,0.59-0.07c1.04-0.04,2.36-0.15,3.96-0.33
			c0.07-0.01,0.13-0.01,0.18-0.01c0.32,0,0.58,0.09,0.77,0.28c0.18,0.17,0.27,0.38,0.27,0.64c0,0.2-0.1,0.5-0.29,0.9
			c-0.38,0.8-0.94,1.65-1.68,2.55c1.22,0.76,2.17,1.47,2.85,2.14c0.31,0.3,0.46,0.58,0.46,0.82c0,0.19-0.07,0.36-0.22,0.51
			c-0.15,0.16-0.32,0.23-0.52,0.23c-0.2,0-0.37-0.07-0.52-0.22c-0.01-0.02-0.08-0.09-0.19-0.21
			C61.43,153.45,60.56,152.63,59.57,151.81z M62.53,145.76c0.21,0,0.54,0.21,1,0.62c0.39,0.35,0.58,0.63,0.58,0.83
			c0,0.15-0.06,0.27-0.19,0.38c-0.1,0.08-0.21,0.12-0.34,0.12c-0.17,0-0.3-0.07-0.39-0.22c-0.25-0.41-0.53-0.77-0.83-1.08
			c-0.1-0.11-0.15-0.22-0.15-0.33C62.21,145.87,62.32,145.76,62.53,145.76z M63.52,144.87c0.22,0,0.54,0.18,0.96,0.53
			c0.39,0.33,0.58,0.6,0.58,0.83c0,0.16-0.06,0.28-0.18,0.38c-0.09,0.07-0.19,0.1-0.3,0.1c-0.16,0-0.3-0.09-0.42-0.28
			c-0.2-0.3-0.47-0.61-0.79-0.92c-0.12-0.11-0.18-0.23-0.18-0.33c0-0.07,0.03-0.14,0.09-0.2C63.33,144.9,63.42,144.87,63.52,144.87z
			"/>
		<path d="M69.46,147.77c0.23,0,0.48,0.09,0.76,0.27c0.13,0.08,0.34,0.24,0.64,0.48c2.18,1.78,3.68,2.98,4.51,3.6
			c0.25,0.18,0.37,0.41,0.37,0.67c0,0.22-0.08,0.41-0.24,0.57c-0.15,0.15-0.32,0.22-0.52,0.22c-0.19,0-0.37-0.07-0.54-0.2
			c-0.4-0.32-1.67-1.44-3.8-3.35c-0.49-0.44-0.76-0.67-0.8-0.7c-0.13-0.1-0.25-0.15-0.35-0.15c-0.11,0-0.28,0.12-0.5,0.38
			c-0.71,0.81-1.32,1.46-1.84,1.97c-0.18,0.17-0.37,0.26-0.56,0.26c-0.18,0-0.34-0.07-0.48-0.2c-0.17-0.16-0.26-0.34-0.26-0.52
			c0-0.16,0.06-0.31,0.19-0.43c0.02-0.02,0.09-0.09,0.23-0.19c0.48-0.4,1.16-1.05,2.04-1.98c0.23-0.23,0.4-0.39,0.51-0.47
			C69.03,147.84,69.25,147.77,69.46,147.77z M72.56,147.03c0.21,0,0.54,0.21,1,0.62c0.39,0.35,0.58,0.63,0.58,0.83
			c0,0.14-0.06,0.27-0.19,0.37c-0.1,0.08-0.21,0.12-0.34,0.12c-0.17,0-0.31-0.1-0.43-0.29c-0.21-0.34-0.47-0.68-0.79-1.01
			c-0.1-0.11-0.15-0.22-0.15-0.33C72.24,147.14,72.35,147.03,72.56,147.03z M73.87,146.23c0.22,0,0.54,0.18,0.96,0.53
			c0.39,0.32,0.58,0.6,0.58,0.83c0,0.16-0.06,0.28-0.18,0.38c-0.09,0.07-0.19,0.1-0.3,0.1c-0.16,0-0.3-0.09-0.42-0.28
			c-0.2-0.3-0.46-0.61-0.79-0.92c-0.12-0.11-0.18-0.22-0.18-0.33c0-0.07,0.03-0.14,0.09-0.21
			C73.69,146.26,73.77,146.23,73.87,146.23z"/>
		<path d="M80.95,147.89l-0.28-1.38c-0.01-0.08-0.02-0.16-0.02-0.23c0-0.26,0.1-0.44,0.3-0.55c0.12-0.07,0.25-0.1,0.41-0.1
			c0.38,0,0.61,0.2,0.69,0.59l0.28,1.39c0.91-0.19,1.55-0.33,1.92-0.42c0.1-0.03,0.18-0.04,0.27-0.04c0.27,0,0.46,0.11,0.58,0.33
			c0.06,0.11,0.08,0.22,0.08,0.34c0,0.32-0.19,0.53-0.56,0.62c-0.27,0.07-0.88,0.2-1.84,0.39l-0.19,0.04l0.32,1.57
			c0.47-0.1,1.45-0.3,2.93-0.61c0.11-0.02,0.19-0.03,0.26-0.03c0.28,0,0.47,0.12,0.58,0.35c0.04,0.1,0.07,0.21,0.07,0.33
			c0,0.28-0.14,0.47-0.42,0.58c-0.06,0.02-0.19,0.05-0.38,0.09c-0.52,0.1-1.36,0.28-2.52,0.53l-0.26,0.06l0.55,2.77
			c0.01,0.07,0.02,0.14,0.02,0.22c0,0.28-0.11,0.47-0.32,0.58c-0.12,0.06-0.26,0.09-0.42,0.09c-0.37,0-0.6-0.21-0.68-0.63
			l-0.54-2.75l-0.23,0.05l-1.89,0.4c-0.8,0.17-1.23,0.25-1.31,0.25c-0.27,0-0.46-0.12-0.56-0.36c-0.04-0.1-0.07-0.22-0.07-0.35
			c0-0.28,0.15-0.48,0.45-0.58c0.04-0.01,0.69-0.15,1.95-0.42l1.14-0.24l0.25-0.06l-0.3-1.58l-0.17,0.03
			c-1.34,0.25-2.09,0.37-2.25,0.37c-0.41,0-0.62-0.23-0.62-0.68c0-0.37,0.25-0.58,0.74-0.65C79.5,148.15,80.18,148.03,80.95,147.89z
			"/>
		<path d="M93.7,151.75c-1.04,1.06-2.12,1.91-3.23,2.56c-0.46,0.27-0.78,0.4-0.94,0.4c-0.2,0-0.35-0.09-0.45-0.27
			c-0.06-0.1-0.09-0.19-0.09-0.27c0-0.16,0.08-0.31,0.23-0.44c0.04-0.03,0.17-0.12,0.39-0.27c0.89-0.57,1.83-1.33,2.8-2.28
			c0.98-0.97,1.7-1.92,2.16-2.86c0.08-0.16,0.12-0.27,0.12-0.32c0-0.07-0.04-0.1-0.11-0.1c-0.05,0-0.13,0.01-0.25,0.03
			c-0.22,0.03-1.08,0.1-2.58,0.22c-0.26,0.02-0.48,0.04-0.67,0.05c-0.07,0.01-0.13,0.01-0.17,0.01c-0.3,0-0.5-0.11-0.61-0.33
			c-0.05-0.1-0.07-0.21-0.07-0.33c0-0.31,0.15-0.51,0.44-0.6c0.09-0.03,0.28-0.05,0.59-0.07c1.04-0.04,2.36-0.15,3.96-0.33
			c0.07-0.01,0.13-0.01,0.18-0.01c0.32,0,0.58,0.09,0.77,0.28c0.18,0.17,0.27,0.38,0.27,0.64c0,0.2-0.1,0.49-0.29,0.9
			c-0.38,0.79-0.94,1.64-1.68,2.55c1.22,0.76,2.17,1.47,2.85,2.14c0.31,0.3,0.46,0.58,0.46,0.83c0,0.19-0.07,0.36-0.22,0.51
			c-0.15,0.16-0.32,0.23-0.52,0.23c-0.2,0-0.37-0.07-0.52-0.22c-0.02-0.02-0.08-0.09-0.19-0.21
			C95.56,153.39,94.68,152.57,93.7,151.75z"/>
		<path d="M105.29,146.52l2.1-0.08l0.09-0.01c0.68,0,1.02,0.29,1.02,0.88c0,0.18-0.04,0.42-0.13,0.74
			c-0.73,2.58-2.23,4.62-4.48,6.13c-0.89,0.59-1.49,0.89-1.82,0.89c-0.17,0-0.3-0.07-0.4-0.22c-0.07-0.1-0.1-0.2-0.1-0.29
			c0-0.15,0.07-0.28,0.21-0.4c0.05-0.04,0.18-0.13,0.4-0.26c1.09-0.67,2.03-1.45,2.83-2.34c-0.53-0.55-1.01-0.99-1.45-1.34
			c-0.2-0.16-0.3-0.32-0.3-0.47c0-0.1,0.03-0.19,0.09-0.27c0.1-0.14,0.24-0.21,0.41-0.21c0.14,0,0.31,0.05,0.51,0.14
			c0.59,0.26,1.12,0.59,1.59,0.98c0.46-0.75,0.79-1.47,1-2.18c0.06-0.2,0.09-0.33,0.09-0.38c0-0.08-0.06-0.12-0.18-0.12
			c-0.01,0-0.02,0-0.03,0l-2.05,0.11c-0.77,1.02-1.55,1.8-2.36,2.34c-0.26,0.17-0.47,0.26-0.64,0.26c-0.15,0-0.27-0.06-0.35-0.18
			c-0.06-0.08-0.08-0.17-0.08-0.27c0-0.13,0.05-0.26,0.16-0.39c0.04-0.04,0.15-0.15,0.34-0.33c0.64-0.58,1.22-1.29,1.74-2.13
			c0.14-0.23,0.26-0.45,0.37-0.66c0.16-0.31,0.39-0.47,0.7-0.47c0.22,0,0.41,0.08,0.55,0.23
			C105.2,146.29,105.26,146.4,105.29,146.52z"/>
		<path d="M113.1,146.82c0.15,0,0.41,0.07,0.78,0.2c0.69,0.24,1.26,0.53,1.71,0.86c0.24,0.17,0.35,0.39,0.35,0.65
			c0,0.14-0.05,0.29-0.14,0.43c-0.14,0.21-0.33,0.32-0.56,0.32c-0.2,0-0.43-0.09-0.67-0.28c-0.62-0.49-1.18-0.88-1.68-1.16
			c-0.25-0.14-0.38-0.31-0.38-0.51C112.5,146.99,112.7,146.82,113.1,146.82z M120.22,148.59c0.12,0,0.25,0.04,0.36,0.13
			c0.15,0.11,0.23,0.26,0.23,0.45c0,0.15-0.06,0.32-0.18,0.5c-0.85,1.27-1.97,2.37-3.36,3.3c-1.16,0.77-2.35,1.32-3.59,1.66
			c-0.13,0.03-0.24,0.05-0.34,0.05c-0.31,0-0.54-0.14-0.67-0.43c-0.06-0.13-0.09-0.25-0.09-0.37c0-0.27,0.13-0.47,0.4-0.6
			c0.06-0.03,0.3-0.1,0.74-0.23c1.59-0.47,3.07-1.3,4.43-2.51c0.52-0.47,1.02-1,1.48-1.59C119.81,148.7,120.01,148.59,120.22,148.59
			z"/>
	</g>
</g>
<g id="ガイド" display="none">
</g>
</svg>
