<?xml version="1.0" encoding="utf-8"?>
<!-- Generator: Adobe Illustrator 25.4.1, SVG Export Plug-In . SVG Version: 6.00 Build 0)  -->
<svg version="1.1" xmlns="http://www.w3.org/2000/svg" xmlns:xlink="http://www.w3.org/1999/xlink" x="0px" y="0px"
	 viewBox="0 0 164.41 252.28" enable-background="new 0 0 164.41 252.28" xml:space="preserve">
<g id="地">
	<rect fill="#DCDDDD" width="164.41" height="252.28"/>
</g>
<g id="枠">
</g>
<g id="国旗">
	<g>
		<g>
			<rect x="25.51" y="60" fill="#FFFFFF" width="113.39" height="75.59"/>
			<rect x="100.67" y="60" fill="#C8152A" width="38.23" height="75.59"/>
			<rect x="25.51" y="60" fill="#147F49" width="38.23" height="75.59"/>
		</g>
	</g>
</g>
<g id="国名">
	<g>
		<path d="M64.78,150.05c-0.94,0.64-1.88,1.17-2.8,1.57c-0.32,0.14-0.55,0.21-0.69,0.21c-0.16,0-0.29-0.06-0.38-0.18
			c-0.08-0.1-0.12-0.21-0.12-0.33c0-0.17,0.08-0.32,0.23-0.43c0.06-0.04,0.26-0.15,0.61-0.34c1.06-0.57,2.08-1.26,3.07-2.08
			c0.91-0.76,1.62-1.51,2.13-2.25c0.16-0.24,0.37-0.37,0.61-0.37c0.14,0,0.27,0.04,0.41,0.13c0.24,0.15,0.36,0.35,0.36,0.6
			c0,0.17-0.1,0.38-0.29,0.63c-0.53,0.67-1.21,1.35-2.04,2.03c0.2,0.12,0.3,0.3,0.3,0.54v4.65c0,0.23-0.07,0.4-0.22,0.52
			c-0.13,0.1-0.29,0.16-0.49,0.16c-0.32,0-0.53-0.12-0.64-0.37c-0.04-0.09-0.06-0.19-0.06-0.31V150.05z"/>
		<path d="M76.94,146.52l2.1-0.08l0.09-0.01c0.68,0,1.02,0.29,1.02,0.88c0,0.18-0.04,0.42-0.13,0.74c-0.73,2.58-2.23,4.62-4.48,6.13
			c-0.89,0.59-1.49,0.89-1.82,0.89c-0.17,0-0.3-0.07-0.4-0.22c-0.07-0.1-0.1-0.2-0.1-0.29c0-0.15,0.07-0.28,0.21-0.4
			c0.05-0.04,0.18-0.13,0.4-0.26c1.09-0.67,2.03-1.45,2.83-2.34c-0.53-0.55-1.01-0.99-1.45-1.34c-0.2-0.16-0.3-0.32-0.3-0.47
			c0-0.1,0.03-0.19,0.09-0.27c0.1-0.14,0.24-0.21,0.41-0.21c0.14,0,0.31,0.05,0.51,0.14c0.59,0.26,1.12,0.59,1.59,0.98
			c0.46-0.75,0.79-1.47,1-2.18c0.06-0.2,0.09-0.33,0.09-0.38c0-0.08-0.06-0.12-0.18-0.12c-0.01,0-0.02,0-0.03,0l-2.05,0.11
			c-0.77,1.02-1.55,1.8-2.36,2.34c-0.26,0.17-0.47,0.26-0.64,0.26c-0.15,0-0.27-0.06-0.35-0.18c-0.06-0.08-0.08-0.17-0.08-0.27
			c0-0.13,0.05-0.26,0.16-0.39c0.04-0.04,0.15-0.15,0.34-0.33c0.64-0.58,1.22-1.29,1.74-2.13c0.14-0.23,0.26-0.45,0.37-0.66
			c0.16-0.31,0.39-0.47,0.7-0.47c0.22,0,0.41,0.08,0.55,0.23C76.85,146.29,76.91,146.4,76.94,146.52z"/>
		<path d="M86.5,146.75v3.86c0,0.2-0.06,0.35-0.19,0.46c-0.13,0.11-0.3,0.17-0.53,0.17c-0.31,0-0.52-0.11-0.63-0.32
			c-0.05-0.09-0.07-0.2-0.07-0.32v-3.86c0-0.26,0.1-0.44,0.31-0.55c0.12-0.06,0.25-0.09,0.39-0.09c0.24,0,0.43,0.07,0.56,0.21
			C86.45,146.43,86.5,146.57,86.5,146.75z M90.48,146.25v3.41c0,1.12-0.13,2.07-0.4,2.85c-0.35,1.01-1,1.85-1.95,2.54
			c-0.18,0.13-0.36,0.19-0.53,0.19c-0.16,0-0.27-0.05-0.35-0.14c-0.08-0.1-0.12-0.2-0.12-0.32c0-0.16,0.08-0.33,0.25-0.5
			c0.44-0.45,0.74-0.82,0.91-1.08c0.37-0.59,0.6-1.29,0.7-2.12c0.05-0.4,0.08-0.87,0.08-1.39v-3.42c0-0.38,0.23-0.58,0.7-0.58
			C90.24,145.68,90.48,145.87,90.48,146.25z"/>
		<path d="M102.67,146.52c0.24,0,0.46,0.06,0.66,0.18c0.27,0.17,0.4,0.41,0.4,0.72c0,0.2-0.08,0.44-0.25,0.74
			c-0.47,0.82-1.06,1.53-1.76,2.15c-0.4,0.34-0.7,0.51-0.91,0.51c-0.15,0-0.28-0.07-0.38-0.2c-0.07-0.1-0.11-0.19-0.11-0.28
			c0-0.15,0.09-0.31,0.28-0.49c0.56-0.54,0.99-1.08,1.28-1.63c0.08-0.15,0.12-0.25,0.12-0.3c0-0.06-0.05-0.09-0.15-0.09
			c-0.09,0-0.21,0-0.35,0.02c-0.08,0.01-0.33,0.02-0.75,0.05c-0.31,0.02-1.66,0.13-4.02,0.33c-0.8,0.07-1.23,0.1-1.29,0.1
			c-0.47,0-0.7-0.22-0.7-0.65c0-0.37,0.19-0.59,0.56-0.66c0.04-0.01,1.36-0.1,3.94-0.28C101.47,146.6,102.62,146.52,102.67,146.52z
			 M99.1,148.82c0.19,0,0.36,0.06,0.51,0.18c0.09,0.07,0.15,0.15,0.18,0.24c0.04,0.11,0.06,0.3,0.06,0.57
			c0,0.99-0.07,1.76-0.22,2.33c-0.32,1.22-1.05,2.18-2.18,2.86c-0.18,0.11-0.34,0.16-0.48,0.16c-0.17,0-0.29-0.06-0.38-0.17
			c-0.08-0.1-0.12-0.21-0.12-0.33c0-0.14,0.05-0.27,0.16-0.4c0.04-0.06,0.16-0.17,0.36-0.33c0.7-0.57,1.13-1.33,1.31-2.31
			c0.08-0.48,0.13-1.09,0.13-1.82l-0.01-0.3c0-0.28,0.1-0.47,0.31-0.59C98.84,148.85,98.97,148.82,99.1,148.82z"/>
	</g>
</g>
<g id="ガイド" display="none">
</g>
</svg>
