<?xml version="1.0" encoding="utf-8"?>
<!-- Generator: Adobe Illustrator 25.4.1, SVG Export Plug-In . SVG Version: 6.00 Build 0)  -->
<svg version="1.1" xmlns="http://www.w3.org/2000/svg" xmlns:xlink="http://www.w3.org/1999/xlink" x="0px" y="0px"
	 viewBox="0 0 164.41 252.28" enable-background="new 0 0 164.41 252.28" xml:space="preserve">
<g id="地">
	<rect fill="#DCDDDD" width="164.41" height="252.28"/>
</g>
<g id="枠">
</g>
<g id="国旗">
	<g>
		<g>
			<rect x="25.42" y="60" fill="#FFFFFF" width="113.39" height="75.59"/>
			<polygon fill="#298041" points="25.42,60 25.42,86.19 25.91,86.19 25.91,84.97 31.69,84.97 31.69,86.19 32.18,86.19 32.18,84.97 
				37.97,84.97 37.97,86.19 38.45,86.19 38.45,84.97 44.24,84.97 44.24,86.19 44.72,86.19 44.72,84.97 50.51,84.97 50.51,86.19 
				51,86.19 51,84.97 56.78,84.97 56.78,86.19 57.27,86.19 57.27,84.97 63.05,84.97 63.05,86.19 63.54,86.19 63.54,84.97 
				69.33,84.97 69.33,86.19 69.81,86.19 69.81,84.97 75.6,84.97 75.6,86.19 76.09,86.19 76.09,84.97 81.87,84.97 81.87,86.19 
				82.36,86.19 82.36,84.97 88.14,84.97 88.14,86.19 88.63,86.19 88.63,84.97 94.42,84.97 94.42,86.19 94.9,86.19 94.9,84.97 
				100.69,84.97 100.69,86.19 101.17,86.19 101.17,84.97 106.96,84.97 106.96,86.19 107.45,86.19 107.45,84.97 113.23,84.97 
				113.23,86.19 113.72,86.19 113.72,84.97 119.5,84.97 119.5,86.19 119.99,86.19 119.99,84.97 125.78,84.97 125.78,86.19 
				126.26,86.19 126.26,84.97 132.05,84.97 132.05,86.19 132.53,86.19 132.53,84.97 138.32,84.97 138.32,86.19 138.81,86.19 
				138.81,60 			"/>
			<g>
				<rect x="25.66" y="80.65" fill="#FFFFFF" width="7.39" height="0.67"/>
				<polygon fill="#FFFFFF" points="36.44,80.65 36.44,83.4 35.81,83.4 35.81,80.65 35.14,80.65 35.14,83.4 34.51,83.4 34.51,80.65 
					33.84,80.65 33.84,82.04 31.6,82.04 31.6,84.07 33.24,84.07 33.24,83.4 32.27,83.4 32.27,82.71 33.84,82.71 33.84,84.07 
					37.11,84.07 37.11,80.65 				"/>
				<rect x="26.93" y="83.3" fill="#FFFFFF" width="0.67" height="0.76"/>
				<polygon fill="#FFFFFF" points="29.39,82.04 29.39,82.71 30.29,82.71 30.29,83.4 28.86,83.4 28.86,82.04 25.66,82.04 
					25.66,84.07 26.33,84.07 26.33,82.71 28.19,82.71 28.19,84.07 30.96,84.07 30.96,82.04 				"/>
			</g>
			<g>
				<rect x="38.34" y="80.65" fill="#FFFFFF" width="7.39" height="0.67"/>
				<polygon fill="#FFFFFF" points="49.12,80.65 49.12,83.4 48.49,83.4 48.49,80.65 47.82,80.65 47.82,83.4 47.2,83.4 47.2,80.65 
					46.53,80.65 46.53,82.04 44.29,82.04 44.29,84.07 45.92,84.07 45.92,83.4 44.96,83.4 44.96,82.71 46.53,82.71 46.53,84.07 
					49.79,84.07 49.79,80.65 				"/>
				<rect x="39.61" y="83.3" fill="#FFFFFF" width="0.67" height="0.76"/>
				<polygon fill="#FFFFFF" points="42.07,82.04 42.07,82.71 42.97,82.71 42.97,83.4 41.55,83.4 41.55,82.04 38.34,82.04 
					38.34,84.07 39.01,84.07 39.01,82.71 40.88,82.71 40.88,84.07 43.64,84.07 43.64,82.04 				"/>
			</g>
			<g>
				<rect x="51.02" y="80.65" fill="#FFFFFF" width="7.39" height="0.67"/>
				<polygon fill="#FFFFFF" points="61.8,80.65 61.8,83.4 61.18,83.4 61.18,80.65 60.51,80.65 60.51,83.4 59.88,83.4 59.88,80.65 
					59.21,80.65 59.21,82.04 56.97,82.04 56.97,84.07 58.6,84.07 58.6,83.4 57.64,83.4 57.64,82.71 59.21,82.71 59.21,84.07 
					62.47,84.07 62.47,80.65 				"/>
				<rect x="52.29" y="83.3" fill="#FFFFFF" width="0.67" height="0.76"/>
				<polygon fill="#FFFFFF" points="54.75,82.04 54.75,82.71 55.65,82.71 55.65,83.4 54.23,83.4 54.23,82.04 51.02,82.04 
					51.02,84.07 51.69,84.07 51.69,82.71 53.56,82.71 53.56,84.07 56.32,84.07 56.32,82.04 				"/>
			</g>
			<g>
				<rect x="63.71" y="80.65" fill="#FFFFFF" width="7.39" height="0.67"/>
				<polygon fill="#FFFFFF" points="74.49,80.65 74.49,83.4 73.86,83.4 73.86,80.65 73.19,80.65 73.19,83.4 72.56,83.4 72.56,80.65 
					71.89,80.65 71.89,82.04 69.65,82.04 69.65,84.07 71.28,84.07 71.28,83.4 70.32,83.4 70.32,82.71 71.89,82.71 71.89,84.07 
					75.16,84.07 75.16,80.65 				"/>
				<rect x="64.97" y="83.3" fill="#FFFFFF" width="0.67" height="0.76"/>
				<polygon fill="#FFFFFF" points="67.43,82.04 67.43,82.71 68.33,82.71 68.33,83.4 66.91,83.4 66.91,82.04 63.71,82.04 
					63.71,84.07 64.38,84.07 64.38,82.71 66.24,82.71 66.24,84.07 69,84.07 69,82.04 				"/>
			</g>
			<g>
				<rect x="76.39" y="80.65" fill="#FFFFFF" width="7.39" height="0.67"/>
				<polygon fill="#FFFFFF" points="87.17,80.65 87.17,83.4 86.54,83.4 86.54,80.65 85.87,80.65 85.87,83.4 85.24,83.4 85.24,80.65 
					84.57,80.65 84.57,82.04 82.33,82.04 82.33,84.07 83.97,84.07 83.97,83.4 83,83.4 83,82.71 84.57,82.71 84.57,84.07 
					87.84,84.07 87.84,80.65 				"/>
				<rect x="77.66" y="83.3" fill="#FFFFFF" width="0.67" height="0.76"/>
				<polygon fill="#FFFFFF" points="80.12,82.04 80.12,82.71 81.02,82.71 81.02,83.4 79.59,83.4 79.59,82.04 76.39,82.04 
					76.39,84.07 77.06,84.07 77.06,82.71 78.92,82.71 78.92,84.07 81.69,84.07 81.69,82.04 				"/>
			</g>
			<g>
				<rect x="89.07" y="80.65" fill="#FFFFFF" width="7.39" height="0.67"/>
				<polygon fill="#FFFFFF" points="99.85,80.65 99.85,83.4 99.22,83.4 99.22,80.65 98.55,80.65 98.55,83.4 97.93,83.4 97.93,80.65 
					97.26,80.65 97.26,82.04 95.02,82.04 95.02,84.07 96.65,84.07 96.65,83.4 95.69,83.4 95.69,82.71 97.26,82.71 97.26,84.07 
					100.52,84.07 100.52,80.65 				"/>
				<rect x="90.34" y="83.3" fill="#FFFFFF" width="0.67" height="0.76"/>
				<polygon fill="#FFFFFF" points="92.8,82.04 92.8,82.71 93.7,82.71 93.7,83.4 92.27,83.4 92.27,82.04 89.07,82.04 89.07,84.07 
					89.74,84.07 89.74,82.71 91.61,82.71 91.61,84.07 94.37,84.07 94.37,82.04 				"/>
			</g>
			<g>
				<rect x="101.75" y="80.65" fill="#FFFFFF" width="7.39" height="0.67"/>
				<polygon fill="#FFFFFF" points="112.53,80.65 112.53,83.4 111.91,83.4 111.91,80.65 111.24,80.65 111.24,83.4 110.61,83.4 
					110.61,80.65 109.94,80.65 109.94,82.04 107.7,82.04 107.7,84.07 109.33,84.07 109.33,83.4 108.37,83.4 108.37,82.71 
					109.94,82.71 109.94,84.07 113.2,84.07 113.2,80.65 				"/>
				<rect x="103.02" y="83.3" fill="#FFFFFF" width="0.67" height="0.76"/>
				<polygon fill="#FFFFFF" points="105.48,82.04 105.48,82.71 106.38,82.71 106.38,83.4 104.96,83.4 104.96,82.04 101.75,82.04 
					101.75,84.07 102.42,84.07 102.42,82.71 104.29,82.71 104.29,84.07 107.05,84.07 107.05,82.04 				"/>
			</g>
			<g>
				<rect x="114.44" y="80.65" fill="#FFFFFF" width="7.39" height="0.67"/>
				<polygon fill="#FFFFFF" points="125.22,80.65 125.22,83.4 124.59,83.4 124.59,80.65 123.92,80.65 123.92,83.4 123.29,83.4 
					123.29,80.65 122.62,80.65 122.62,82.04 120.38,82.04 120.38,84.07 122.01,84.07 122.01,83.4 121.05,83.4 121.05,82.71 
					122.62,82.71 122.62,84.07 125.89,84.07 125.89,80.65 				"/>
				<rect x="115.7" y="83.3" fill="#FFFFFF" width="0.67" height="0.76"/>
				<polygon fill="#FFFFFF" points="118.16,82.04 118.16,82.71 119.06,82.71 119.06,83.4 117.64,83.4 117.64,82.04 114.44,82.04 
					114.44,84.07 115.11,84.07 115.11,82.71 116.97,82.71 116.97,84.07 119.73,84.07 119.73,82.04 				"/>
			</g>
			<g>
				<rect x="127.12" y="80.65" fill="#FFFFFF" width="7.39" height="0.67"/>
				<polygon fill="#FFFFFF" points="137.9,80.65 137.9,83.4 137.27,83.4 137.27,80.65 136.6,80.65 136.6,83.4 135.97,83.4 
					135.97,80.65 135.3,80.65 135.3,82.04 133.06,82.04 133.06,84.07 134.7,84.07 134.7,83.4 133.73,83.4 133.73,82.71 135.3,82.71 
					135.3,84.07 138.57,84.07 138.57,80.65 				"/>
				<rect x="128.39" y="83.3" fill="#FFFFFF" width="0.67" height="0.76"/>
				<polygon fill="#FFFFFF" points="130.85,82.04 130.85,82.71 131.75,82.71 131.75,83.4 130.32,83.4 130.32,82.04 127.12,82.04 
					127.12,84.07 127.79,84.07 127.79,82.71 129.65,82.71 129.65,84.07 132.42,84.07 132.42,82.04 				"/>
			</g>
			<polygon fill="#C91623" points="138.81,135.59 138.81,109.4 138.32,109.4 138.32,110.62 132.54,110.62 132.54,109.4 
				132.05,109.4 132.05,110.62 126.26,110.62 126.26,109.4 125.78,109.4 125.78,110.62 119.99,110.62 119.99,109.4 119.5,109.4 
				119.5,110.62 113.72,110.62 113.72,109.4 113.23,109.4 113.23,110.62 107.45,110.62 107.45,109.4 106.96,109.4 106.96,110.62 
				101.17,110.62 101.17,109.4 100.69,109.4 100.69,110.62 94.9,110.62 94.9,109.4 94.42,109.4 94.42,110.62 88.63,110.62 
				88.63,109.4 88.14,109.4 88.14,110.62 82.36,110.62 82.36,109.4 81.87,109.4 81.87,110.62 76.09,110.62 76.09,109.4 75.6,109.4 
				75.6,110.62 69.81,110.62 69.81,109.4 69.33,109.4 69.33,110.62 63.54,110.62 63.54,109.4 63.05,109.4 63.05,110.62 
				57.27,110.62 57.27,109.4 56.78,109.4 56.78,110.62 51,110.62 51,109.4 50.51,109.4 50.51,110.62 44.72,110.62 44.72,109.4 
				44.24,109.4 44.24,110.62 38.45,110.62 38.45,109.4 37.97,109.4 37.97,110.62 32.18,110.62 32.18,109.4 31.69,109.4 
				31.69,110.62 25.91,110.62 25.91,109.4 25.42,109.4 25.42,135.59 			"/>
			<g>
				<rect x="25.66" y="111.29" fill="#FFFFFF" width="7.39" height="0.67"/>
				<polygon fill="#FFFFFF" points="36.44,111.29 36.44,114.03 35.81,114.03 35.81,111.29 35.14,111.29 35.14,114.03 34.51,114.03 
					34.51,111.29 33.84,111.29 33.84,112.67 31.6,112.67 31.6,114.7 33.24,114.7 33.24,114.03 32.27,114.03 32.27,113.34 
					33.84,113.34 33.84,114.7 37.11,114.7 37.11,111.29 				"/>
				<rect x="26.93" y="113.94" fill="#FFFFFF" width="0.67" height="0.76"/>
				<polygon fill="#FFFFFF" points="29.39,112.67 29.39,113.34 30.29,113.34 30.29,114.03 28.86,114.03 28.86,112.67 25.66,112.67 
					25.66,114.7 26.33,114.7 26.33,113.34 28.19,113.34 28.19,114.7 30.96,114.7 30.96,112.67 				"/>
			</g>
			<g>
				<rect x="38.34" y="111.29" fill="#FFFFFF" width="7.39" height="0.67"/>
				<polygon fill="#FFFFFF" points="49.12,111.29 49.12,114.03 48.49,114.03 48.49,111.29 47.82,111.29 47.82,114.03 47.2,114.03 
					47.2,111.29 46.53,111.29 46.53,112.67 44.29,112.67 44.29,114.7 45.92,114.7 45.92,114.03 44.96,114.03 44.96,113.34 
					46.53,113.34 46.53,114.7 49.79,114.7 49.79,111.29 				"/>
				<rect x="39.61" y="113.94" fill="#FFFFFF" width="0.67" height="0.76"/>
				<polygon fill="#FFFFFF" points="42.07,112.67 42.07,113.34 42.97,113.34 42.97,114.03 41.55,114.03 41.55,112.67 38.34,112.67 
					38.34,114.7 39.01,114.7 39.01,113.34 40.88,113.34 40.88,114.7 43.64,114.7 43.64,112.67 				"/>
			</g>
			<g>
				<rect x="51.02" y="111.29" fill="#FFFFFF" width="7.39" height="0.67"/>
				<polygon fill="#FFFFFF" points="61.8,111.29 61.8,114.03 61.18,114.03 61.18,111.29 60.51,111.29 60.51,114.03 59.88,114.03 
					59.88,111.29 59.21,111.29 59.21,112.67 56.97,112.67 56.97,114.7 58.6,114.7 58.6,114.03 57.64,114.03 57.64,113.34 
					59.21,113.34 59.21,114.7 62.47,114.7 62.47,111.29 				"/>
				<rect x="52.29" y="113.94" fill="#FFFFFF" width="0.67" height="0.76"/>
				<polygon fill="#FFFFFF" points="54.75,112.67 54.75,113.34 55.65,113.34 55.65,114.03 54.23,114.03 54.23,112.67 51.02,112.67 
					51.02,114.7 51.69,114.7 51.69,113.34 53.56,113.34 53.56,114.7 56.32,114.7 56.32,112.67 				"/>
			</g>
			<g>
				<rect x="63.71" y="111.29" fill="#FFFFFF" width="7.39" height="0.67"/>
				<polygon fill="#FFFFFF" points="74.49,111.29 74.49,114.03 73.86,114.03 73.86,111.29 73.19,111.29 73.19,114.03 72.56,114.03 
					72.56,111.29 71.89,111.29 71.89,112.67 69.65,112.67 69.65,114.7 71.28,114.7 71.28,114.03 70.32,114.03 70.32,113.34 
					71.89,113.34 71.89,114.7 75.16,114.7 75.16,111.29 				"/>
				<rect x="64.97" y="113.94" fill="#FFFFFF" width="0.67" height="0.76"/>
				<polygon fill="#FFFFFF" points="67.43,112.67 67.43,113.34 68.33,113.34 68.33,114.03 66.91,114.03 66.91,112.67 63.71,112.67 
					63.71,114.7 64.38,114.7 64.38,113.34 66.24,113.34 66.24,114.7 69,114.7 69,112.67 				"/>
			</g>
			<g>
				<rect x="76.39" y="111.29" fill="#FFFFFF" width="7.39" height="0.67"/>
				<polygon fill="#FFFFFF" points="87.17,111.29 87.17,114.03 86.54,114.03 86.54,111.29 85.87,111.29 85.87,114.03 85.24,114.03 
					85.24,111.29 84.57,111.29 84.57,112.67 82.33,112.67 82.33,114.7 83.97,114.7 83.97,114.03 83,114.03 83,113.34 84.57,113.34 
					84.57,114.7 87.84,114.7 87.84,111.29 				"/>
				<rect x="77.66" y="113.94" fill="#FFFFFF" width="0.67" height="0.76"/>
				<polygon fill="#FFFFFF" points="80.12,112.67 80.12,113.34 81.02,113.34 81.02,114.03 79.59,114.03 79.59,112.67 76.39,112.67 
					76.39,114.7 77.06,114.7 77.06,113.34 78.92,113.34 78.92,114.7 81.69,114.7 81.69,112.67 				"/>
			</g>
			<g>
				<rect x="89.07" y="111.29" fill="#FFFFFF" width="7.39" height="0.67"/>
				<polygon fill="#FFFFFF" points="99.85,111.29 99.85,114.03 99.22,114.03 99.22,111.29 98.55,111.29 98.55,114.03 97.93,114.03 
					97.93,111.29 97.26,111.29 97.26,112.67 95.02,112.67 95.02,114.7 96.65,114.7 96.65,114.03 95.69,114.03 95.69,113.34 
					97.26,113.34 97.26,114.7 100.52,114.7 100.52,111.29 				"/>
				<rect x="90.34" y="113.94" fill="#FFFFFF" width="0.67" height="0.76"/>
				<polygon fill="#FFFFFF" points="92.8,112.67 92.8,113.34 93.7,113.34 93.7,114.03 92.27,114.03 92.27,112.67 89.07,112.67 
					89.07,114.7 89.74,114.7 89.74,113.34 91.61,113.34 91.61,114.7 94.37,114.7 94.37,112.67 				"/>
			</g>
			<g>
				<rect x="101.75" y="111.29" fill="#FFFFFF" width="7.39" height="0.67"/>
				<polygon fill="#FFFFFF" points="112.53,111.29 112.53,114.03 111.91,114.03 111.91,111.29 111.24,111.29 111.24,114.03 
					110.61,114.03 110.61,111.29 109.94,111.29 109.94,112.67 107.7,112.67 107.7,114.7 109.33,114.7 109.33,114.03 108.37,114.03 
					108.37,113.34 109.94,113.34 109.94,114.7 113.2,114.7 113.2,111.29 				"/>
				<rect x="103.02" y="113.94" fill="#FFFFFF" width="0.67" height="0.76"/>
				<polygon fill="#FFFFFF" points="105.48,112.67 105.48,113.34 106.38,113.34 106.38,114.03 104.96,114.03 104.96,112.67 
					101.75,112.67 101.75,114.7 102.42,114.7 102.42,113.34 104.29,113.34 104.29,114.7 107.05,114.7 107.05,112.67 				"/>
			</g>
			<g>
				<rect x="114.44" y="111.29" fill="#FFFFFF" width="7.39" height="0.67"/>
				<polygon fill="#FFFFFF" points="125.22,111.29 125.22,114.03 124.59,114.03 124.59,111.29 123.92,111.29 123.92,114.03 
					123.29,114.03 123.29,111.29 122.62,111.29 122.62,112.67 120.38,112.67 120.38,114.7 122.01,114.7 122.01,114.03 
					121.05,114.03 121.05,113.34 122.62,113.34 122.62,114.7 125.89,114.7 125.89,111.29 				"/>
				<rect x="115.7" y="113.94" fill="#FFFFFF" width="0.67" height="0.76"/>
				<polygon fill="#FFFFFF" points="118.16,112.67 118.16,113.34 119.06,113.34 119.06,114.03 117.64,114.03 117.64,112.67 
					114.44,112.67 114.44,114.7 115.11,114.7 115.11,113.34 116.97,113.34 116.97,114.7 119.73,114.7 119.73,112.67 				"/>
			</g>
			<g>
				<rect x="127.12" y="111.29" fill="#FFFFFF" width="7.39" height="0.67"/>
				<polygon fill="#FFFFFF" points="137.9,111.29 137.9,114.03 137.27,114.03 137.27,111.29 136.6,111.29 136.6,114.03 
					135.97,114.03 135.97,111.29 135.3,111.29 135.3,112.67 133.06,112.67 133.06,114.7 134.7,114.7 134.7,114.03 133.73,114.03 
					133.73,113.34 135.3,113.34 135.3,114.7 138.57,114.7 138.57,111.29 				"/>
				<rect x="128.39" y="113.94" fill="#FFFFFF" width="0.67" height="0.76"/>
				<polygon fill="#FFFFFF" points="130.85,112.67 130.85,113.34 131.75,113.34 131.75,114.03 130.32,114.03 130.32,112.67 
					127.12,112.67 127.12,114.7 127.79,114.7 127.79,113.34 129.65,113.34 129.65,114.7 132.42,114.7 132.42,112.67 				"/>
			</g>
			<path fill="#C9161D" d="M85.85,91.11c0,0,4.56,2.12,4.56,6.87c0,4.75-3.47,5.73-3.47,5.73s2.2-2.15,2.2-5.73
				C89.16,94.41,85.85,91.11,85.85,91.11z"/>
			<path fill="#C9161D" d="M81.55,89.89c0,0-0.21,0.62-1.14,0.62c-0.93,0-1.11-1.25-1.11-1.25s0.45,0.69,1.11,0.69
				c0.66,0,1.14-0.76,1.14-0.76s0.48,0.76,1.14,0.76c0.66,0,1.11-0.69,1.11-0.69s-0.17,1.25-1.11,1.25
				C81.76,90.52,81.55,89.89,81.55,89.89z"/>
			<path fill="#C9161D" d="M81.55,106.4l-0.45-0.45l-0.03-0.88c-0.34,0.2-1.17,0.51-3.16,0.63c0,0,1.77-0.19,2.45-0.84
				c-0.97-0.54-4.36-2.72-4.36-6.94c0-3.82,2.61-6.81,2.61-6.81s-1.75,2.39-1.75,6.77c0,2.73,1.9,4.66,3.14,5.73
				c0.37,0.31,0.74,0.3,1.02,0.2l-0.44-12.49l0.97-0.62l0.97,0.62l-0.44,12.49c0.28,0.1,0.65,0.12,1.02-0.2
				c1.24-1.06,3.14-3,3.14-5.73c0-4.37-1.75-6.77-1.75-6.77s2.61,2.99,2.61,6.81c0,4.22-3.38,6.4-4.36,6.94
				c0.68,0.65,2.45,0.84,2.45,0.84c-1.99-0.13-2.82-0.43-3.16-0.63L82,105.95L81.55,106.4z"/>
			<path fill="#C9161D" d="M77.24,91.11c0,0-4.56,2.12-4.56,6.87c0,4.75,3.47,5.73,3.47,5.73s-2.2-2.15-2.2-5.73
				C73.94,94.41,77.24,91.11,77.24,91.11z"/>
		</g>
	</g>
</g>
<g id="国名">
	<g>
		<path d="M70.45,150.05c-0.94,0.64-1.88,1.17-2.8,1.57c-0.32,0.14-0.55,0.21-0.69,0.21c-0.16,0-0.29-0.06-0.38-0.18
			c-0.08-0.1-0.12-0.21-0.12-0.33c0-0.17,0.08-0.32,0.23-0.43c0.06-0.04,0.26-0.15,0.62-0.34c1.06-0.57,2.08-1.26,3.07-2.08
			c0.91-0.76,1.62-1.51,2.13-2.25c0.16-0.24,0.37-0.37,0.61-0.37c0.14,0,0.27,0.04,0.41,0.13c0.24,0.15,0.36,0.35,0.36,0.6
			c0,0.17-0.1,0.38-0.29,0.63c-0.53,0.67-1.21,1.35-2.04,2.03c0.2,0.12,0.3,0.3,0.3,0.54v4.65c0,0.23-0.07,0.4-0.22,0.52
			c-0.12,0.1-0.29,0.16-0.49,0.16c-0.32,0-0.53-0.12-0.64-0.37c-0.04-0.09-0.06-0.19-0.06-0.31V150.05z"/>
		<path d="M85.04,148.71c0.42,0,0.72,0.15,0.91,0.44c0.1,0.17,0.16,0.37,0.16,0.6c0,0.33-0.11,0.76-0.34,1.29
			c-0.5,1.17-1.32,2.17-2.47,3.02c-0.61,0.45-1.25,0.79-1.92,1.04c-0.17,0.06-0.31,0.09-0.43,0.09c-0.16,0-0.29-0.07-0.38-0.2
			c-0.07-0.11-0.11-0.22-0.11-0.34c0-0.17,0.08-0.31,0.23-0.42c0.03-0.02,0.2-0.11,0.49-0.26c0.73-0.38,1.42-0.91,2.07-1.6
			c0.54-0.58,0.94-1.17,1.2-1.77c0.09-0.2,0.13-0.34,0.13-0.43c0-0.09-0.07-0.13-0.2-0.13c-0.06,0-0.72,0.04-1.99,0.12l-2.37,0.17
			c-0.9,0.07-1.37,0.1-1.4,0.1c-0.23,0-0.4-0.08-0.52-0.25c-0.07-0.11-0.11-0.24-0.11-0.39c0-0.39,0.19-0.62,0.57-0.67
			c0.24-0.03,2.02-0.15,5.36-0.34c0.27-0.01,0.47-0.03,0.61-0.04C84.81,148.72,84.98,148.71,85.04,148.71z M84.16,146.17
			c0.19,0,0.34,0.08,0.45,0.23c0.08,0.12,0.13,0.26,0.13,0.42c0,0.37-0.17,0.59-0.53,0.64c-0.28,0.04-0.69,0.08-1.22,0.13
			c-0.14,0.01-0.75,0.05-1.81,0.11c-0.65,0.04-1.08,0.05-1.31,0.05c-0.46,0-0.7-0.22-0.7-0.65c0-0.33,0.14-0.53,0.41-0.61
			c0.07-0.02,0.23-0.03,0.48-0.03c1.02-0.01,2.21-0.09,3.58-0.23c0.05-0.01,0.17-0.02,0.35-0.04
			C84.07,146.17,84.12,146.17,84.16,146.17z"/>
		<path d="M90.42,146.82c0.15,0,0.41,0.07,0.78,0.2c0.69,0.24,1.26,0.53,1.71,0.86c0.24,0.17,0.35,0.39,0.35,0.65
			c0,0.14-0.05,0.29-0.14,0.43c-0.14,0.21-0.33,0.32-0.56,0.32c-0.2,0-0.43-0.09-0.67-0.28c-0.62-0.49-1.18-0.88-1.68-1.16
			c-0.25-0.14-0.38-0.31-0.38-0.51C89.83,146.99,90.03,146.82,90.42,146.82z M97.54,148.59c0.13,0,0.25,0.04,0.36,0.13
			c0.15,0.11,0.23,0.26,0.23,0.45c0,0.15-0.06,0.32-0.18,0.5c-0.85,1.27-1.97,2.37-3.36,3.3c-1.16,0.77-2.35,1.32-3.59,1.66
			c-0.13,0.03-0.24,0.05-0.34,0.05c-0.31,0-0.54-0.14-0.67-0.43c-0.06-0.13-0.09-0.25-0.09-0.37c0-0.27,0.13-0.47,0.4-0.6
			c0.05-0.03,0.3-0.1,0.74-0.23c1.59-0.47,3.06-1.3,4.43-2.51c0.52-0.47,1.02-1,1.48-1.59C97.14,148.7,97.33,148.59,97.54,148.59z"
			/>
	</g>
</g>
<g id="ガイド" display="none">
</g>
</svg>
