<?xml version="1.0" encoding="utf-8"?>
<!-- Generator: Adobe Illustrator 25.4.1, SVG Export Plug-In . SVG Version: 6.00 Build 0)  -->
<svg version="1.1" xmlns="http://www.w3.org/2000/svg" xmlns:xlink="http://www.w3.org/1999/xlink" x="0px" y="0px"
	 viewBox="0 0 164.41 252.28" enable-background="new 0 0 164.41 252.28" xml:space="preserve">
<g id="地">
	<rect fill="#DCDDDD" width="164.41" height="252.28"/>
</g>
<g id="枠">
</g>
<g id="国旗">
	<g>
		<g>
			<rect x="25.51" y="59.82" fill="#FFFFFF" width="113.39" height="75.59"/>
			<circle fill="#1075AA" cx="82.2" cy="97.61" r="9.53"/>
			<rect x="25.51" y="59.82" fill="#F5A118" width="113.39" height="25.1"/>
			<rect x="25.51" y="110.31" fill="#147F49" width="113.39" height="25.1"/>
			<polygon fill="#FFFFFF" points="81.28,106.03 82,106.59 81.84,100.5 80.48,106.44 			"/>
			<polygon fill="#FFFFFF" points="83.41,106 84.24,106.35 82.57,100.5 82.73,106.6 			"/>
			<polygon fill="#FFFFFF" points="85.46,105.43 86.36,105.57 83.28,100.32 84.95,106.18 			"/>
			<polygon fill="#FFFFFF" points="87.31,104.37 88.21,104.28 83.92,99.96 87,105.23 			"/>
			<polygon fill="#FFFFFF" points="88.83,102.89 89.68,102.58 84.45,99.46 88.75,103.79 			"/>
			<polygon fill="#FFFFFF" points="89.93,101.07 90.68,100.56 84.84,98.85 90.08,101.97 			"/>
			<polygon fill="#FFFFFF" points="90.55,99.04 91.15,98.35 85.06,98.15 90.91,99.87 			"/>
			<polygon fill="#FFFFFF" points="90.64,96.91 91.05,96.1 85.1,97.42 91.2,97.63 			"/>
			<polygon fill="#FFFFFF" points="90.2,94.83 90.39,93.94 84.96,96.71 90.92,95.38 			"/>
			<polygon fill="#FFFFFF" points="89.26,92.93 89.22,92.02 84.65,96.05 90.09,93.28 			"/>
			<polygon fill="#FFFFFF" points="87.86,91.32 87.61,90.45 84.18,95.49 88.76,91.45 			"/>
			<polygon fill="#FFFFFF" points="86.12,90.11 85.65,89.33 83.59,95.06 87.02,90.01 			"/>
			<polygon fill="#FFFFFF" points="84.12,89.37 83.48,88.73 82.91,94.8 84.97,89.05 			"/>
			<polygon fill="#FFFFFF" points="82.01,89.15 81.22,88.69 82.19,94.71 82.75,88.63 			"/>
			<polygon fill="#FFFFFF" points="79.9,89.47 79.03,89.22 81.46,94.8 80.5,88.78 			"/>
			<polygon fill="#FFFFFF" points="77.95,90.3 77.04,90.28 80.79,95.08 78.35,89.49 			"/>
			<polygon fill="#FFFFFF" points="76.26,91.59 75.37,91.79 80.2,95.51 76.45,90.7 			"/>
			<polygon fill="#FFFFFF" points="74.94,93.26 74.14,93.68 79.74,96.08 74.91,92.35 			"/>
			<polygon fill="#FFFFFF" points="74.09,95.21 73.41,95.81 79.43,96.74 73.83,94.34 			"/>
			<polygon fill="#FFFFFF" points="73.74,97.31 73.24,98.06 79.3,97.46 73.27,96.53 			"/>
			<polygon fill="#FFFFFF" points="73.93,99.42 73.64,100.28 79.36,98.19 73.29,98.79 			"/>
			<polygon fill="#FFFFFF" points="74.65,101.43 74.57,102.33 79.59,98.88 73.86,100.98 			"/>
			<polygon fill="#FFFFFF" points="75.83,103.19 75.99,104.09 79.99,99.49 74.96,102.95 			"/>
			<polygon fill="#FFFFFF" points="77.42,104.6 77.8,105.43 80.52,99.98 76.52,104.59 			"/>
			<polygon fill="#FFFFFF" points="79.32,105.57 79.88,106.28 81.17,100.33 78.43,105.78 			"/>
			<path fill="none" stroke="#FFFFFF" stroke-width="2.0458" d="M84.09,97.61c0,1.04-0.84,1.88-1.88,1.88
				c-1.04,0-1.88-0.84-1.88-1.88s0.84-1.88,1.88-1.88C83.25,95.73,84.09,96.57,84.09,97.61z"/>
		</g>
	</g>
</g>
<g id="国名">
	<g>
		<path d="M70.44,150.05c-0.94,0.64-1.88,1.17-2.8,1.57c-0.32,0.14-0.55,0.21-0.69,0.21c-0.16,0-0.29-0.06-0.38-0.18
			c-0.08-0.1-0.12-0.21-0.12-0.33c0-0.17,0.08-0.32,0.23-0.43c0.06-0.04,0.26-0.15,0.62-0.34c1.06-0.57,2.08-1.26,3.07-2.08
			c0.91-0.76,1.62-1.51,2.13-2.25c0.16-0.24,0.37-0.37,0.61-0.37c0.14,0,0.27,0.04,0.41,0.13c0.24,0.15,0.36,0.35,0.36,0.6
			c0,0.17-0.1,0.38-0.29,0.63c-0.53,0.67-1.21,1.35-2.04,2.03c0.2,0.12,0.3,0.3,0.3,0.54v4.65c0,0.23-0.07,0.4-0.22,0.52
			c-0.12,0.1-0.29,0.16-0.49,0.16c-0.32,0-0.53-0.12-0.64-0.37c-0.04-0.09-0.06-0.19-0.06-0.31V150.05z"/>
		<path d="M79.08,146.82c0.15,0,0.41,0.07,0.78,0.2c0.69,0.24,1.26,0.53,1.71,0.86c0.24,0.17,0.35,0.39,0.35,0.65
			c0,0.14-0.05,0.29-0.14,0.43c-0.14,0.21-0.33,0.32-0.56,0.32c-0.2,0-0.43-0.09-0.67-0.28c-0.62-0.49-1.18-0.88-1.68-1.16
			c-0.25-0.14-0.38-0.31-0.38-0.51C78.49,146.99,78.69,146.82,79.08,146.82z M86.2,148.59c0.12,0,0.25,0.04,0.36,0.13
			c0.15,0.11,0.23,0.26,0.23,0.45c0,0.15-0.06,0.32-0.18,0.5c-0.85,1.27-1.97,2.37-3.36,3.3c-1.16,0.77-2.35,1.32-3.59,1.66
			c-0.13,0.03-0.24,0.05-0.34,0.05c-0.31,0-0.54-0.14-0.67-0.43c-0.06-0.13-0.09-0.25-0.09-0.37c0-0.27,0.13-0.47,0.4-0.6
			c0.06-0.03,0.3-0.1,0.74-0.23c1.59-0.47,3.07-1.3,4.43-2.51c0.52-0.47,1.02-1,1.48-1.59C85.8,148.7,85.99,148.59,86.2,148.59z"/>
		<path d="M93.27,150.28v4.34c0,0.21-0.07,0.37-0.2,0.48c-0.12,0.11-0.29,0.16-0.5,0.16c-0.47,0-0.71-0.21-0.71-0.64v-8.28
			c0-0.42,0.24-0.63,0.71-0.63c0.31,0,0.51,0.11,0.63,0.32c0.05,0.09,0.07,0.2,0.07,0.32v2.72c1.32,0.34,2.34,0.76,3.07,1.24
			c0.32,0.21,0.48,0.46,0.48,0.76c0,0.2-0.07,0.36-0.2,0.5c-0.14,0.15-0.31,0.23-0.52,0.23c-0.18,0-0.4-0.09-0.66-0.27
			C94.83,151.1,94.11,150.69,93.27,150.28z M95.68,146.86c0.21,0,0.54,0.21,1,0.62c0.39,0.35,0.58,0.63,0.58,0.83
			c0,0.15-0.06,0.27-0.19,0.37c-0.1,0.08-0.22,0.12-0.34,0.12c-0.17,0-0.31-0.1-0.43-0.29c-0.21-0.35-0.48-0.69-0.79-1.01
			c-0.1-0.11-0.15-0.22-0.15-0.33C95.36,146.97,95.47,146.86,95.68,146.86z M96.83,145.99c0.22,0,0.54,0.18,0.96,0.53
			c0.39,0.32,0.58,0.6,0.58,0.83c0,0.16-0.06,0.28-0.18,0.38c-0.09,0.07-0.19,0.1-0.3,0.1c-0.16,0-0.3-0.09-0.42-0.28
			c-0.2-0.31-0.47-0.61-0.79-0.92c-0.12-0.11-0.18-0.22-0.18-0.33c0-0.07,0.03-0.14,0.09-0.2
			C96.65,146.02,96.73,145.99,96.83,145.99z"/>
	</g>
</g>
<g id="ガイド" display="none">
</g>
</svg>
