<?xml version="1.0" encoding="utf-8"?>
<!-- Generator: Adobe Illustrator 25.4.1, SVG Export Plug-In . SVG Version: 6.00 Build 0)  -->
<svg version="1.1" xmlns="http://www.w3.org/2000/svg" xmlns:xlink="http://www.w3.org/1999/xlink" x="0px" y="0px"
	 viewBox="0 0 164.41 252.28" enable-background="new 0 0 164.41 252.28" xml:space="preserve">
<g id="地">
	<rect fill="#DCDDDD" width="164.41" height="252.28"/>
</g>
<g id="枠">
</g>
<g id="国旗">
	<g>
		<g>
			<rect x="25.51" y="60" fill="#C8152A" width="113.39" height="75.59"/>
			<polygon fill="#81A72A" points="138.9,97.8 25.51,60 138.9,60 			"/>
			<polygon fill="#1EAAD7" points="138.9,97.8 25.51,135.59 138.9,135.59 			"/>
			<path fill="#F5B018" d="M75.53,97.17c0,0-1.45,0.06-2.71,1.45c-0.51,0.56-0.91,1.12-1.2,1.59c0.06-0.36,0.11-0.73,0.13-1.11
				c0.02-0.34,0.03-0.66,0.03-0.99c0-1.39-0.19-2.66-0.51-3.81c0.43-0.1,1.4-0.41,2.3-1.41c1.2-1.32,0.57-4.03,0.57-4.03
				s-1.89,1.64-2.27,2.58c-0.27,0.66-0.56,1.83-0.72,2.46c-0.69-2.27-1.86-4.07-3.03-5.43c0.31-0.1,1.14-0.52,1.14-2.05
				c0-1.89-1.89-3.53-1.89-3.53s-0.76,1.32-0.63,2.58c0.08,0.85,0.63,1.93,0.97,2.54c-1.16-1.25-2.25-2.05-2.81-2.43
				c-0.3-0.38-0.77-0.81-1.48-1.07c-1.51-0.57-4.03-0.32-4.03-0.32s1.39,1.57,2.27,2.14c0.72,0.47,2.76,0.21,3.47,0.1
				c0.06,0.04,0.12,0.09,0.18,0.14c0.51,0.39,1.14,0.93,1.8,1.63c-0.22-0.08-0.48-0.16-0.79-0.23c-1.7-0.38-4.35,0.06-4.35,0.06
				s2.9,1.83,3.97,1.83c0.75,0,1.59-0.43,2.03-0.69c0.95,1.16,1.87,2.63,2.48,4.41c-0.27-0.32-0.63-0.72-1.11-1.2
				c-1.2-1.2-3.15-1.51-3.15-1.51s0.76,2.33,2.08,3.21c0.94,0.63,1.95,0.49,2.45,0.36c0.3,1.11,0.49,2.34,0.49,3.67
				c0,0.31-0.01,0.63-0.03,0.95c-0.04,0.62-0.13,1.21-0.25,1.77c-0.05-0.66-0.16-1.67-0.48-2.41c-0.5-1.2-2.2-2.52-2.2-2.52
				s-0.38,2.33,0.13,3.65c0.41,1.08,1.88,1.7,2.4,1.89c-0.59,2.06-1.74,3.76-3.16,5.12c0.19-0.65,0.91-1.48,1.4-2.73
				c0.57-1.45-0.82-3.21-0.82-3.21s-1.45,2.08-1.57,3.65c-0.1,1.24,0.55,2.13,0.82,2.45c-1.26,1.16-2.7,2.06-4.14,2.71
				c0.23-0.4,0.48-0.87,0.95-1.31c1.07-1.01,0.88-2.83,0.88-2.83s-2.46,0.88-3.09,2.46c-0.4,1-0.29,1.8-0.16,2.25
				c-1.35,0.46-2.64,0.68-3.68,0.68c-0.04,0-0.09,0-0.13,0c-0.02-0.02-0.04-0.05-0.06-0.08c-0.25-0.34-0.77-1.19-0.77-2.4
				c0-0.11,0-0.21,0.01-0.32c0.05-0.7,0.5-1.48,1.03-2.29c0.07,0,0.15,0,0.25,0c0.46-0.01,1.21-0.03,1.86-0.25
				c2.15,0.9,3.47-1.15,3.47-1.15c-0.57-0.36-2.23-0.11-2.23-0.11c0.29-0.68-0.04-1.76-0.04-1.76c-1.5,0.51-1.72,2.08-1.75,2.57
				c-0.41,0.08-0.85,0.12-1.18,0.12c0.62-0.93,1.24-1.88,1.25-2.9c0-0.06,0-0.11-0.01-0.17c-0.04-0.52-0.23-0.96-0.49-1.37
				c0.12-0.1,0.3-0.25,0.53-0.42c0.22-0.15,0.48-0.32,0.78-0.46c1.57,2.49,3.71,2.2,3.71,2.2c0.22-1.36-1.26-2.84-1.26-2.84
				c0.65,0.07,2.62-0.79,2.62-0.79c-2.81-1.88-4.38-0.15-4.95,0.75c-0.81,0.33-1.44,0.82-1.77,1.1c-0.2-0.26-0.42-0.5-0.63-0.72
				c-0.66-0.7-1.22-1.32-1.2-1.89c0-0.02,0-0.03,0-0.04c0.03-0.6,0.21-0.88,0.39-1.05c0.33,0.96,1.95,2.32,1.95,2.32
				s0.36-1.4-0.14-2.51c0.43,0.47,2.66,0.32,2.66,0.32s-0.5-1.79-2.15-1.87c-1.07-0.05-1.74,0.55-2.09,0.98
				c-0.13,0.03-0.29,0.1-0.45,0.22c-0.13,0.09-0.26,0.22-0.38,0.39c-0.6-0.67-2.47-2.76-2.68-3.27c0,0-0.54,0.86-0.18,1.97
				c-0.86-0.5-1.65-1.15-1.65-1.15s-0.22,2.23,1.58,2.66c1.25,0.3,2.27,0.18,2.78,0.08c-0.1,0.24-0.17,0.52-0.19,0.87
				c0,0.02,0,0.05,0,0.07c0.01,0.37,0.13,0.7,0.31,1.01c-0.28-0.02-0.62-0.04-0.98-0.04c-0.15,0-0.31,0.01-0.46,0.02
				c-0.65-0.29-2.24-0.69-4.2,0.97c0,0,1.29,0.93,2.94,0.25c0,0-1.01,1.9-0.93,2.44c0,0,2.48-0.11,2.51-3.11c0.04,0,0.09,0,0.13,0
				c0.6,0,1.2,0.06,1.43,0.09c0.19,0.22,0.39,0.43,0.59,0.65c0.65,0.69,1.25,1.4,1.31,2.21c0,0.04,0,0.09,0,0.13
				c0.01,0.61-0.34,1.3-0.79,2.03c-0.32-0.31-0.94-0.73-1.89-0.74c-0.08,0-0.16,0-0.24,0.01c-0.67-0.25-2.02-0.41-3.81,1.1
				c0,0,0.75,0.65,2.76,0.14c0,0-0.39,0.72-0.29,1.29c0,0,1.99-0.88,1.89-1.95c0.42,0.06,0.74,0.22,0.96,0.38
				c0.13,0.09,0.22,0.18,0.29,0.25c-0.04,0.06-0.08,0.13-0.13,0.19c-0.64,0.97-1.34,1.95-1.43,3.02c-0.01,0.12-0.01,0.25-0.01,0.36
				c0,1.11,0.38,1.94,0.68,2.44c-0.86-0.09-1.83-0.3-2.84-0.64c0.13-0.45,0.24-1.24-0.16-2.25c-0.63-1.57-3.09-2.46-3.09-2.46
				s-0.19,1.83,0.88,2.83c0.47,0.44,0.72,0.91,0.95,1.31c-1.44-0.65-2.89-1.55-4.14-2.71c0.28-0.32,0.92-1.21,0.82-2.45
				c-0.13-1.57-1.57-3.65-1.57-3.65s-1.39,1.76-0.82,3.21c0.49,1.26,1.22,2.08,1.4,2.73c-1.42-1.36-2.57-3.06-3.16-5.12
				c0.52-0.19,1.99-0.81,2.4-1.89c0.5-1.32,0.13-3.65,0.13-3.65s-1.7,1.32-2.2,2.52c-0.31,0.74-0.43,1.75-0.48,2.41
				c-0.13-0.57-0.22-1.16-0.25-1.78c-0.02-0.32-0.03-0.64-0.03-0.95c0-1.33,0.18-2.56,0.49-3.67c0.5,0.13,1.5,0.27,2.45-0.36
				c1.32-0.88,2.08-3.21,2.08-3.21s-1.95,0.31-3.15,1.51c-0.48,0.48-0.84,0.88-1.11,1.19c0.62-1.78,1.53-3.24,2.48-4.41
				c0.44,0.26,1.28,0.69,2.03,0.69c1.07,0,3.97-1.83,3.97-1.83s-2.65-0.44-4.35-0.06c-0.31,0.07-0.57,0.15-0.79,0.23
				c0.66-0.69,1.3-1.24,1.81-1.63c0.06-0.05,0.12-0.09,0.18-0.14c0.71,0.11,2.74,0.36,3.47-0.1c0.88-0.57,2.27-2.14,2.27-2.14
				s-2.52-0.25-4.03,0.32c-0.7,0.26-1.17,0.69-1.48,1.07c-0.56,0.37-1.66,1.18-2.81,2.43c0.34-0.61,0.89-1.69,0.97-2.54
				c0.13-1.26-0.63-2.58-0.63-2.58s-1.89,1.64-1.89,3.53c0,1.53,0.83,1.95,1.14,2.05c-1.17,1.36-2.34,3.16-3.03,5.43
				c-0.15-0.63-0.45-1.79-0.71-2.46c-0.38-0.94-2.27-2.58-2.27-2.58s-0.63,2.71,0.57,4.03c0.9,1,1.87,1.31,2.3,1.41
				c-0.32,1.16-0.51,2.43-0.51,3.81c0,0.32,0.01,0.65,0.03,0.99c0.03,0.38,0.07,0.75,0.13,1.11c-0.29-0.47-0.69-1.03-1.2-1.59
				c-1.26-1.39-2.71-1.45-2.71-1.45s-0.69,2.08,1.64,3.78c1.47,1.07,2.24,0.97,2.6,0.74c0.45,1.51,1.17,2.83,2.08,3.97
				c-0.4-0.19-0.89-0.33-1.47-0.37c-2.02-0.13-3.15,0.32-3.15,0.32s2.2,2.14,3.91,2.14c1.15,0,1.75-0.4,2.02-0.66
				c1.37,1.29,2.97,2.27,4.56,2.96c-0.47-0.01-1-0.03-1.41-0.03c-0.94,0-3.15,1.26-3.15,1.26s2.46,1.32,4.03,0.69
				c1.04-0.42,1.42-1.1,1.56-1.52c0.73,0.26,1.44,0.45,2.12,0.59c-0.26,0.27-0.43,0.61-0.54,0.92c-0.21,0.57-0.15,1.11-0.15,1.12
				l0.38,0.05c0,0,0.12-0.48,0.3-0.97c0.18-0.5,0.49-0.93,0.87-0.98c0.4,0.05,0.78,0.08,1.13,0.08c0.49,0,1.03-0.05,1.6-0.14
				c0.02,0.01,0.05,0.02,0.08,0.04c0.27,0.15,0.82,0.52,0.83,1.53c0,0.24,0,0.51-0.09,0.84l0.42,0.1c0,0,0.23-0.64,0.23-0.93
				c0-0.86-0.35-1.4-0.69-1.72c0.56-0.13,1.14-0.3,1.73-0.51c0.14,0.42,0.52,1.11,1.56,1.52c1.57,0.63,4.03-0.69,4.03-0.69
				s-2.2-1.26-3.15-1.26c-0.41,0-0.94,0.01-1.41,0.03c1.58-0.68,3.18-1.67,4.56-2.96c0.27,0.26,0.87,0.66,2.02,0.66
				c1.7,0,3.91-2.14,3.91-2.14s-1.13-0.44-3.15-0.32c-0.58,0.04-1.06,0.18-1.47,0.37c0.91-1.14,1.63-2.46,2.08-3.97
				c0.37,0.22,1.13,0.33,2.6-0.74C76.22,99.24,75.53,97.17,75.53,97.17z"/>
		</g>
	</g>
</g>
<g id="国名">
	<g>
		<path d="M58.74,148.87c-1.09,0.09-1.75,0.14-2,0.14c-0.21,0-0.38-0.06-0.5-0.19c-0.11-0.11-0.16-0.26-0.16-0.44
			c0-0.3,0.12-0.5,0.35-0.6c0.1-0.05,0.33-0.08,0.68-0.09c1.44-0.07,2.99-0.21,4.65-0.42c0.06-0.01,0.12-0.01,0.16-0.01
			c0.3,0,0.5,0.12,0.61,0.35c0.04,0.09,0.06,0.19,0.06,0.31c0,0.37-0.19,0.58-0.56,0.65c-0.32,0.06-0.96,0.13-1.89,0.21v3.22
			l0.27-0.01c2.14-0.12,3.29-0.18,3.43-0.18c0.2,0,0.35,0.05,0.47,0.14c0.15,0.12,0.23,0.3,0.23,0.54c0,0.32-0.14,0.53-0.41,0.62
			c-0.1,0.03-0.38,0.05-0.85,0.08c-2.77,0.12-5.38,0.28-7.83,0.47c-0.07,0-0.12,0-0.15,0c-0.21,0-0.39-0.06-0.52-0.18
			c-0.12-0.12-0.18-0.28-0.18-0.49c0-0.33,0.16-0.55,0.47-0.64c0.07-0.02,0.22-0.04,0.44-0.05c0.16-0.01,0.41-0.02,0.76-0.05
			c0.56-0.04,1.3-0.09,2.2-0.15l0.27-0.02V148.87z"/>
		<path d="M69.49,146.75v3.86c0,0.2-0.06,0.35-0.19,0.46c-0.13,0.11-0.3,0.17-0.53,0.17c-0.31,0-0.52-0.11-0.63-0.32
			c-0.05-0.09-0.07-0.2-0.07-0.32v-3.86c0-0.26,0.1-0.44,0.31-0.55c0.12-0.06,0.25-0.09,0.39-0.09c0.24,0,0.43,0.07,0.56,0.21
			C69.44,146.43,69.49,146.57,69.49,146.75z M73.47,146.25v3.41c0,1.12-0.13,2.07-0.4,2.85c-0.35,1.01-1,1.85-1.95,2.54
			c-0.18,0.13-0.36,0.19-0.53,0.19c-0.16,0-0.27-0.05-0.35-0.14c-0.08-0.1-0.12-0.2-0.12-0.32c0-0.16,0.08-0.33,0.25-0.5
			c0.44-0.45,0.74-0.82,0.91-1.08c0.37-0.59,0.6-1.29,0.7-2.12c0.05-0.4,0.08-0.87,0.08-1.39v-3.42c0-0.38,0.23-0.58,0.7-0.58
			C73.23,145.68,73.47,145.87,73.47,146.25z"/>
		<path d="M82.04,150.28v4.34c0,0.21-0.07,0.37-0.2,0.48c-0.13,0.11-0.29,0.16-0.5,0.16c-0.47,0-0.71-0.21-0.71-0.64v-8.28
			c0-0.42,0.24-0.63,0.71-0.63c0.31,0,0.52,0.11,0.63,0.32c0.05,0.09,0.07,0.2,0.07,0.32v2.72c1.32,0.34,2.34,0.76,3.07,1.24
			c0.32,0.21,0.48,0.46,0.48,0.76c0,0.2-0.07,0.36-0.2,0.5c-0.14,0.15-0.31,0.23-0.52,0.23c-0.18,0-0.4-0.09-0.66-0.27
			C83.6,151.1,82.88,150.69,82.04,150.28z"/>
		<path d="M92.17,146.75v3.86c0,0.2-0.06,0.35-0.19,0.46c-0.13,0.11-0.3,0.17-0.53,0.17c-0.31,0-0.52-0.11-0.63-0.32
			c-0.05-0.09-0.07-0.2-0.07-0.32v-3.86c0-0.26,0.1-0.44,0.31-0.55c0.12-0.06,0.25-0.09,0.39-0.09c0.24,0,0.43,0.07,0.56,0.21
			C92.12,146.43,92.17,146.57,92.17,146.75z M96.15,146.25v3.41c0,1.12-0.13,2.07-0.4,2.85c-0.35,1.01-1,1.85-1.95,2.54
			c-0.18,0.13-0.36,0.19-0.53,0.19c-0.16,0-0.27-0.05-0.35-0.14c-0.08-0.1-0.12-0.2-0.12-0.32c0-0.16,0.08-0.33,0.25-0.5
			c0.44-0.45,0.74-0.82,0.91-1.08c0.37-0.59,0.6-1.29,0.7-2.12c0.05-0.4,0.08-0.87,0.08-1.39v-3.42c0-0.38,0.23-0.58,0.7-0.58
			C95.91,145.68,96.15,145.87,96.15,146.25z"/>
		<path d="M108.34,146.52c0.24,0,0.46,0.06,0.66,0.18c0.27,0.17,0.4,0.41,0.4,0.72c0,0.2-0.08,0.44-0.25,0.74
			c-0.47,0.82-1.06,1.53-1.76,2.15c-0.39,0.34-0.7,0.51-0.91,0.51c-0.15,0-0.28-0.07-0.38-0.2c-0.07-0.1-0.11-0.19-0.11-0.28
			c0-0.15,0.09-0.31,0.28-0.49c0.56-0.54,0.99-1.08,1.28-1.63c0.08-0.15,0.12-0.25,0.12-0.3c0-0.06-0.05-0.09-0.15-0.09
			c-0.09,0-0.21,0-0.35,0.02c-0.08,0.01-0.33,0.02-0.75,0.05c-0.31,0.02-1.66,0.13-4.02,0.33c-0.8,0.07-1.23,0.1-1.29,0.1
			c-0.47,0-0.7-0.22-0.7-0.65c0-0.37,0.19-0.59,0.56-0.66c0.04-0.01,1.36-0.1,3.94-0.28C107.14,146.6,108.29,146.52,108.34,146.52z
			 M104.77,148.82c0.19,0,0.36,0.06,0.51,0.18c0.09,0.07,0.15,0.15,0.18,0.24c0.04,0.11,0.06,0.3,0.06,0.57
			c0,0.99-0.07,1.76-0.22,2.33c-0.32,1.22-1.05,2.18-2.18,2.86c-0.18,0.11-0.34,0.16-0.48,0.16c-0.17,0-0.29-0.06-0.38-0.17
			c-0.08-0.1-0.12-0.21-0.12-0.33c0-0.14,0.05-0.27,0.16-0.4c0.04-0.06,0.16-0.17,0.36-0.33c0.7-0.57,1.13-1.33,1.31-2.31
			c0.08-0.48,0.13-1.09,0.13-1.82l-0.01-0.3c0-0.28,0.1-0.47,0.31-0.59C104.51,148.85,104.64,148.82,104.77,148.82z"/>
	</g>
</g>
<g id="ガイド" display="none">
</g>
</svg>
