<?xml version="1.0" encoding="utf-8"?>
<!-- Generator: Adobe Illustrator 25.4.1, SVG Export Plug-In . SVG Version: 6.00 Build 0)  -->
<svg version="1.1" xmlns="http://www.w3.org/2000/svg" xmlns:xlink="http://www.w3.org/1999/xlink" x="0px" y="0px"
	 viewBox="0 0 164.41 252.28" enable-background="new 0 0 164.41 252.28" xml:space="preserve">
<g id="地">
	<rect fill="#DCDDDD" width="164.41" height="252.28"/>
</g>
<g id="枠">
</g>
<g id="国旗">
	<g>
		<g>
			<rect x="25.41" y="60" fill="#044F7F" width="113.39" height="75.59"/>
			<polygon fill="#FFFFFF" points="82.1,60 75.16,60 58.2,71.31 58.2,60 49.31,60 49.31,71.02 32.79,60 25.41,60 25.41,64.93 
				39.69,74.45 25.41,74.45 25.41,83.34 40.15,83.34 25.41,93.17 25.41,97.8 33.23,97.8 49.31,87.07 49.31,97.8 58.2,97.8 
				58.2,86.79 74.7,97.8 82.1,97.8 82.1,92.88 67.8,83.34 82.1,83.34 82.1,74.45 68.24,74.45 82.1,65.21 			"/>
			<polygon fill="#FFFFFF" points="53.74,107.51 55.09,112.89 60.15,110.6 56.79,115.01 61.73,117.53 56.18,117.66 57.29,123.1 
				53.74,118.84 50.18,123.1 51.29,117.66 45.74,117.53 50.68,115.01 47.32,110.6 52.38,112.89 			"/>
			<polygon fill="#FFFFFF" points="97.21,88.01 97.9,90.76 100.49,89.59 98.77,91.85 101.3,93.14 98.46,93.21 99.03,95.99 
				97.21,93.81 95.38,95.99 95.95,93.21 93.11,93.14 95.64,91.85 93.92,89.59 96.51,90.76 			"/>
			<polygon fill="#FFFFFF" points="109.51,117.25 110.21,120.01 112.8,118.83 111.08,121.1 113.61,122.39 110.77,122.45 
				111.34,125.24 109.51,123.06 107.69,125.24 108.26,122.45 105.41,122.39 107.95,121.1 106.23,118.83 108.82,120.01 			"/>
			<polygon fill="#FFFFFF" points="110.89,66.78 111.58,69.54 114.17,68.37 112.45,70.63 114.98,71.92 112.14,71.99 112.71,74.77 
				110.89,72.59 109.06,74.77 109.63,71.99 106.79,71.92 109.32,70.63 107.6,68.37 110.19,69.54 			"/>
			<polygon fill="#FFFFFF" points="123.97,81.28 124.66,84.04 127.25,82.87 125.53,85.13 128.06,86.42 125.22,86.49 125.79,89.27 
				123.97,87.09 122.14,89.27 122.71,86.49 119.87,86.42 122.4,85.13 120.68,82.87 123.27,84.04 			"/>
			<polygon fill="#FFFFFF" points="117.73,100.65 118.24,102.23 119.9,102.23 118.56,103.21 119.07,104.79 117.73,103.81 
				116.38,104.79 116.9,103.21 115.55,102.23 117.22,102.23 			"/>
			<polygon fill="#C8152A" points="82.1,76.39 56.27,76.39 56.27,60 51.25,60 51.25,76.39 25.41,76.39 25.41,81.41 51.25,81.41 
				51.25,97.8 56.27,97.8 56.27,81.41 82.1,81.41 			"/>
			<polygon fill="#C8152A" points="25.41,60 25.41,63.09 42.37,74.4 47,74.4 			"/>
			<polygon fill="#C8152A" points="82.1,94.71 65.14,83.4 60.51,83.4 82.1,97.8 			"/>
			<polygon fill="#C8152A" points="58.2,74.4 58.2,72.85 77.47,60 82.1,60 60.51,74.4 			"/>
			<polygon fill="#C8152A" points="47,83.4 25.41,97.8 30.04,97.8 49.31,84.95 49.31,83.4 			"/>
		</g>
	</g>
</g>
<g id="国名">
	<g>
		<path d="M48.58,148.02l-0.01-0.12c-0.02-0.76-0.03-1.22-0.04-1.39c0-0.06-0.01-0.1-0.01-0.13c0-0.44,0.22-0.66,0.67-0.66
			c0.49,0,0.73,0.24,0.73,0.71v1.49c0.25-0.02,0.74-0.06,1.46-0.12c0.27-0.02,0.44-0.03,0.52-0.03c0.44,0,0.65,0.23,0.65,0.7
			c0,0.4-0.27,0.61-0.8,0.64c-0.26,0.01-0.65,0.03-1.18,0.07c-0.22,0.01-0.43,0.03-0.64,0.04c0.01,1.35,0.02,2.18,0.02,2.49
			c0.02,1.08,0.03,1.85,0.03,2.32c0,0.3-0.07,0.56-0.2,0.76c-0.17,0.25-0.4,0.38-0.69,0.38c-0.14,0-0.31-0.05-0.51-0.15
			c-1-0.5-1.53-0.76-1.59-0.8c-0.21-0.12-0.31-0.27-0.31-0.46c0-0.07,0.02-0.14,0.05-0.2c0.08-0.16,0.21-0.23,0.4-0.23
			c0.12,0,0.51,0.1,1.16,0.29c0.08,0.03,0.15,0.04,0.19,0.04c0.08,0,0.12-0.07,0.12-0.21v-3.04c-1.14,1.24-2.4,2.26-3.78,3.06
			c-0.29,0.17-0.51,0.25-0.65,0.25c-0.15,0-0.27-0.07-0.36-0.21c-0.07-0.11-0.11-0.21-0.11-0.31c0-0.15,0.07-0.28,0.2-0.39
			c0.04-0.04,0.19-0.14,0.43-0.3c0.9-0.59,1.78-1.35,2.65-2.28c0.25-0.27,0.51-0.56,0.75-0.88l-0.22,0.02l-1.84,0.13
			c-0.72,0.05-1.11,0.08-1.15,0.08c-0.44,0-0.66-0.21-0.66-0.64c0-0.35,0.16-0.57,0.48-0.65c0.07-0.02,0.23-0.03,0.48-0.04
			C45.93,148.2,47.18,148.12,48.58,148.02z"/>
		<path d="M62.96,149.33c0.23,0,0.42,0.07,0.55,0.22c0.11,0.12,0.17,0.28,0.17,0.48c0,0.37-0.18,0.59-0.53,0.66
			c-0.09,0.02-1.34,0.08-3.74,0.19c-1.1,0.05-2.27,0.11-3.5,0.17c-0.04,0-0.09,0-0.13,0c-0.21,0-0.38-0.06-0.52-0.18
			c-0.14-0.13-0.22-0.3-0.22-0.51c0-0.3,0.13-0.51,0.4-0.63c0.11-0.04,0.37-0.07,0.79-0.09c0.37-0.01,1.29-0.05,2.77-0.13
			c0.63-0.03,1.5-0.07,2.59-0.12c0.37-0.01,0.66-0.03,0.87-0.04C62.75,149.33,62.91,149.33,62.96,149.33z"/>
		<path d="M71.03,151.75c-1.04,1.06-2.12,1.91-3.23,2.56c-0.46,0.27-0.78,0.4-0.94,0.4c-0.2,0-0.35-0.09-0.45-0.27
			c-0.06-0.1-0.09-0.19-0.09-0.27c0-0.16,0.08-0.31,0.23-0.44c0.04-0.03,0.17-0.12,0.39-0.27c0.89-0.57,1.83-1.33,2.8-2.28
			c0.98-0.97,1.7-1.92,2.16-2.86c0.08-0.16,0.12-0.27,0.12-0.32c0-0.07-0.04-0.1-0.11-0.1c-0.05,0-0.13,0.01-0.25,0.03
			c-0.22,0.03-1.08,0.1-2.58,0.22c-0.26,0.02-0.48,0.04-0.67,0.05c-0.07,0.01-0.13,0.01-0.17,0.01c-0.3,0-0.5-0.11-0.61-0.33
			c-0.05-0.1-0.07-0.21-0.07-0.33c0-0.31,0.15-0.51,0.44-0.6c0.09-0.03,0.28-0.05,0.59-0.07c1.04-0.04,2.36-0.15,3.96-0.33
			c0.07-0.01,0.13-0.01,0.18-0.01c0.32,0,0.58,0.09,0.77,0.28c0.18,0.17,0.27,0.38,0.27,0.64c0,0.2-0.1,0.49-0.29,0.9
			c-0.38,0.79-0.94,1.64-1.68,2.55c1.22,0.76,2.17,1.47,2.85,2.14c0.31,0.3,0.46,0.58,0.46,0.83c0,0.19-0.07,0.36-0.22,0.51
			c-0.15,0.16-0.32,0.23-0.52,0.23c-0.2,0-0.37-0.07-0.52-0.22c-0.02-0.02-0.08-0.09-0.19-0.21
			C72.88,153.39,72.01,152.57,71.03,151.75z"/>
		<path d="M82.04,150.28v4.34c0,0.21-0.07,0.37-0.2,0.48c-0.13,0.11-0.29,0.16-0.5,0.16c-0.47,0-0.71-0.21-0.71-0.64v-8.28
			c0-0.42,0.24-0.63,0.71-0.63c0.31,0,0.52,0.11,0.63,0.32c0.05,0.09,0.07,0.2,0.07,0.32v2.72c1.32,0.34,2.34,0.76,3.07,1.24
			c0.32,0.21,0.48,0.46,0.48,0.76c0,0.2-0.07,0.36-0.2,0.5c-0.14,0.15-0.31,0.23-0.52,0.23c-0.18,0-0.4-0.09-0.66-0.27
			C83.6,151.1,82.88,150.69,82.04,150.28z"/>
		<path d="M96.38,148.71c0.42,0,0.72,0.15,0.91,0.44c0.1,0.17,0.15,0.37,0.15,0.6c0,0.33-0.11,0.76-0.34,1.29
			c-0.49,1.17-1.32,2.17-2.47,3.02c-0.61,0.45-1.25,0.79-1.92,1.04c-0.17,0.06-0.31,0.09-0.43,0.09c-0.16,0-0.29-0.07-0.38-0.2
			c-0.07-0.11-0.11-0.22-0.11-0.34c0-0.17,0.08-0.31,0.23-0.42c0.03-0.02,0.2-0.11,0.49-0.26c0.73-0.38,1.42-0.91,2.06-1.6
			c0.54-0.58,0.94-1.17,1.2-1.77c0.09-0.2,0.13-0.34,0.13-0.43c0-0.09-0.07-0.13-0.2-0.13c-0.06,0-0.72,0.04-1.99,0.12l-2.37,0.17
			c-0.9,0.07-1.37,0.1-1.4,0.1c-0.23,0-0.4-0.08-0.52-0.25c-0.07-0.11-0.11-0.24-0.11-0.39c0-0.39,0.19-0.62,0.56-0.67
			c0.24-0.03,2.02-0.15,5.36-0.34c0.27-0.01,0.47-0.03,0.61-0.04C96.15,148.72,96.32,148.71,96.38,148.71z M95.5,146.17
			c0.19,0,0.34,0.08,0.45,0.23c0.08,0.12,0.13,0.26,0.13,0.42c0,0.37-0.18,0.59-0.53,0.64c-0.28,0.04-0.69,0.08-1.22,0.13
			c-0.14,0.01-0.75,0.05-1.81,0.11c-0.65,0.04-1.08,0.05-1.31,0.05c-0.46,0-0.7-0.22-0.7-0.65c0-0.33,0.14-0.53,0.41-0.61
			c0.07-0.02,0.23-0.03,0.48-0.03c1.02-0.01,2.21-0.09,3.58-0.23c0.05-0.01,0.17-0.02,0.35-0.04
			C95.41,146.17,95.46,146.17,95.5,146.17z"/>
		<path d="M103.51,146.75v3.86c0,0.2-0.06,0.35-0.19,0.46c-0.13,0.11-0.3,0.17-0.53,0.17c-0.31,0-0.52-0.11-0.63-0.32
			c-0.05-0.09-0.07-0.2-0.07-0.32v-3.86c0-0.26,0.1-0.44,0.31-0.55c0.12-0.06,0.25-0.09,0.39-0.09c0.24,0,0.43,0.07,0.56,0.21
			C103.45,146.43,103.51,146.57,103.51,146.75z M107.49,146.25v3.41c0,1.12-0.13,2.07-0.4,2.85c-0.35,1.01-1,1.85-1.95,2.54
			c-0.18,0.13-0.36,0.19-0.53,0.19c-0.16,0-0.27-0.05-0.35-0.14c-0.08-0.1-0.12-0.2-0.12-0.32c0-0.16,0.08-0.33,0.25-0.5
			c0.44-0.45,0.74-0.82,0.91-1.08c0.37-0.59,0.6-1.29,0.7-2.12c0.05-0.4,0.08-0.87,0.08-1.39v-3.42c0-0.38,0.23-0.58,0.7-0.58
			C107.25,145.68,107.49,145.87,107.49,146.25z"/>
		<path d="M119.67,146.52c0.24,0,0.46,0.06,0.66,0.18c0.27,0.17,0.4,0.41,0.4,0.72c0,0.2-0.08,0.44-0.25,0.74
			c-0.47,0.82-1.06,1.53-1.76,2.15c-0.4,0.34-0.7,0.51-0.91,0.51c-0.15,0-0.28-0.07-0.38-0.2c-0.07-0.1-0.11-0.19-0.11-0.28
			c0-0.15,0.09-0.31,0.28-0.49c0.56-0.54,0.99-1.08,1.28-1.63c0.08-0.15,0.12-0.25,0.12-0.3c0-0.06-0.05-0.09-0.15-0.09
			c-0.09,0-0.21,0-0.35,0.02c-0.08,0.01-0.33,0.02-0.75,0.05c-0.31,0.02-1.66,0.13-4.02,0.33c-0.8,0.07-1.23,0.1-1.29,0.1
			c-0.47,0-0.7-0.22-0.7-0.65c0-0.37,0.19-0.59,0.56-0.66c0.04-0.01,1.36-0.1,3.94-0.28C118.48,146.6,119.63,146.52,119.67,146.52z
			 M116.11,148.82c0.19,0,0.36,0.06,0.51,0.18c0.09,0.07,0.15,0.15,0.18,0.24c0.04,0.11,0.06,0.3,0.06,0.57
			c0,0.99-0.07,1.76-0.22,2.33c-0.32,1.22-1.05,2.18-2.18,2.86c-0.18,0.11-0.34,0.16-0.48,0.16c-0.17,0-0.29-0.06-0.38-0.17
			c-0.08-0.1-0.12-0.21-0.12-0.33c0-0.14,0.05-0.27,0.15-0.4c0.04-0.06,0.17-0.17,0.36-0.33c0.7-0.57,1.13-1.33,1.31-2.31
			c0.08-0.48,0.13-1.09,0.13-1.82l0-0.3c0-0.28,0.1-0.47,0.31-0.59C115.85,148.85,115.98,148.82,116.11,148.82z"/>
	</g>
</g>
<g id="ガイド" display="none">
</g>
</svg>
