<?xml version="1.0" encoding="utf-8"?>
<!-- Generator: Adobe Illustrator 25.4.1, SVG Export Plug-In . SVG Version: 6.00 Build 0)  -->
<svg version="1.1" xmlns="http://www.w3.org/2000/svg" xmlns:xlink="http://www.w3.org/1999/xlink" x="0px" y="0px"
	 viewBox="0 0 164.41 252.28" enable-background="new 0 0 164.41 252.28" xml:space="preserve">
<g id="地">
	<rect fill="#DCDDDD" width="164.41" height="252.28"/>
</g>
<g id="枠">
</g>
<g id="国旗">
	<g>
		<g>
			<rect x="25.51" y="60" fill="#FFFFFF" width="113.39" height="75.59"/>
			<rect x="25.51" y="60" fill="#C91623" width="113.39" height="25.49"/>
			<rect x="25.51" y="110.1" fill="#1075AA" width="113.39" height="25.49"/>
		</g>
	</g>
</g>
<g id="国名">
	<g>
		<path d="M65.58,148.02l-0.01-0.12c-0.02-0.76-0.03-1.22-0.04-1.39c0-0.06-0.01-0.1-0.01-0.13c0-0.44,0.22-0.66,0.67-0.66
			c0.49,0,0.73,0.24,0.73,0.71v1.49c0.25-0.02,0.74-0.06,1.46-0.12c0.27-0.02,0.44-0.03,0.52-0.03c0.44,0,0.65,0.23,0.65,0.7
			c0,0.4-0.27,0.61-0.8,0.64c-0.26,0.01-0.65,0.03-1.18,0.07c-0.22,0.01-0.43,0.03-0.64,0.04c0.01,1.35,0.02,2.18,0.02,2.49
			c0.02,1.08,0.03,1.85,0.03,2.32c0,0.3-0.07,0.56-0.2,0.76c-0.17,0.25-0.4,0.38-0.69,0.38c-0.14,0-0.31-0.05-0.51-0.15
			c-1-0.5-1.53-0.76-1.59-0.8c-0.21-0.12-0.31-0.27-0.31-0.46c0-0.07,0.02-0.14,0.05-0.2c0.08-0.16,0.21-0.23,0.4-0.23
			c0.12,0,0.51,0.1,1.16,0.29c0.08,0.03,0.15,0.04,0.19,0.04c0.08,0,0.12-0.07,0.12-0.21v-3.04c-1.14,1.24-2.4,2.26-3.78,3.06
			c-0.29,0.17-0.51,0.25-0.65,0.25c-0.15,0-0.27-0.07-0.36-0.21c-0.07-0.11-0.11-0.21-0.11-0.31c0-0.15,0.07-0.28,0.2-0.39
			c0.04-0.04,0.19-0.14,0.43-0.3c0.9-0.59,1.78-1.35,2.65-2.28c0.25-0.27,0.51-0.56,0.75-0.88l-0.22,0.02l-1.84,0.13
			c-0.72,0.05-1.11,0.08-1.15,0.08c-0.44,0-0.66-0.21-0.66-0.64c0-0.35,0.16-0.57,0.48-0.65c0.07-0.02,0.23-0.03,0.48-0.04
			C62.94,148.2,64.18,148.12,65.58,148.02z"/>
		<path d="M79.37,148.71c0.42,0,0.72,0.15,0.91,0.44c0.1,0.17,0.15,0.37,0.15,0.6c0,0.33-0.11,0.76-0.34,1.29
			c-0.49,1.17-1.32,2.17-2.47,3.02c-0.61,0.45-1.25,0.79-1.92,1.04c-0.17,0.06-0.31,0.09-0.43,0.09c-0.16,0-0.29-0.07-0.38-0.2
			c-0.07-0.11-0.11-0.22-0.11-0.34c0-0.17,0.08-0.31,0.23-0.42c0.03-0.02,0.2-0.11,0.49-0.26c0.73-0.38,1.42-0.91,2.06-1.6
			c0.54-0.58,0.94-1.17,1.2-1.77c0.09-0.2,0.13-0.34,0.13-0.43c0-0.09-0.07-0.13-0.2-0.13c-0.06,0-0.72,0.04-1.99,0.12l-2.37,0.17
			c-0.9,0.07-1.37,0.1-1.4,0.1c-0.23,0-0.4-0.08-0.52-0.25c-0.07-0.11-0.11-0.24-0.11-0.39c0-0.39,0.19-0.62,0.56-0.67
			c0.24-0.03,2.02-0.15,5.36-0.34c0.27-0.01,0.47-0.03,0.61-0.04C79.14,148.72,79.31,148.71,79.37,148.71z M78.49,146.17
			c0.19,0,0.34,0.08,0.45,0.23c0.08,0.12,0.13,0.26,0.13,0.42c0,0.37-0.18,0.59-0.53,0.64c-0.28,0.04-0.69,0.08-1.22,0.13
			c-0.14,0.01-0.75,0.05-1.81,0.11c-0.65,0.04-1.08,0.05-1.31,0.05c-0.46,0-0.7-0.22-0.7-0.65c0-0.33,0.14-0.53,0.41-0.61
			c0.07-0.02,0.23-0.03,0.48-0.03c1.02-0.01,2.21-0.09,3.58-0.23c0.05-0.01,0.17-0.02,0.35-0.04
			C78.4,146.17,78.45,146.17,78.49,146.17z"/>
		<path d="M84.75,146.82c0.15,0,0.41,0.07,0.78,0.2c0.69,0.24,1.26,0.53,1.71,0.86c0.24,0.17,0.35,0.39,0.35,0.65
			c0,0.14-0.05,0.29-0.14,0.43c-0.14,0.21-0.33,0.32-0.56,0.32c-0.2,0-0.43-0.09-0.67-0.28c-0.62-0.49-1.18-0.88-1.68-1.16
			c-0.25-0.14-0.38-0.31-0.38-0.51C84.16,146.99,84.36,146.82,84.75,146.82z M91.87,148.59c0.13,0,0.25,0.04,0.36,0.13
			c0.15,0.11,0.23,0.26,0.23,0.45c0,0.15-0.06,0.32-0.18,0.5c-0.85,1.27-1.97,2.37-3.36,3.3c-1.16,0.77-2.35,1.32-3.59,1.66
			c-0.13,0.03-0.24,0.05-0.34,0.05c-0.31,0-0.54-0.14-0.67-0.43c-0.06-0.13-0.09-0.25-0.09-0.37c0-0.27,0.13-0.47,0.4-0.6
			c0.06-0.03,0.3-0.1,0.74-0.23c1.59-0.47,3.06-1.3,4.43-2.51c0.52-0.47,1.02-1,1.48-1.59C91.47,148.7,91.66,148.59,91.87,148.59z"
			/>
		<path d="M99.11,146.7l2.1-0.08c0.05,0,0.08,0,0.09,0c0.68,0,1.02,0.29,1.02,0.88c0,0.18-0.04,0.42-0.13,0.74
			c-0.72,2.52-2.21,4.55-4.48,6.07c-0.89,0.59-1.49,0.89-1.82,0.89c-0.17,0-0.3-0.08-0.4-0.23c-0.07-0.1-0.1-0.2-0.1-0.29
			c0-0.13,0.06-0.26,0.18-0.38c0.05-0.04,0.19-0.14,0.42-0.28c1.04-0.64,1.97-1.41,2.8-2.32c-0.48-0.51-0.96-0.94-1.42-1.31
			c-0.2-0.15-0.3-0.31-0.3-0.47c0-0.09,0.03-0.18,0.09-0.27c0.1-0.14,0.24-0.21,0.41-0.21c0.14,0,0.31,0.05,0.51,0.14
			c0.6,0.28,1.13,0.6,1.58,0.98c0.48-0.76,0.83-1.5,1.04-2.23c0.05-0.17,0.07-0.27,0.07-0.32c0-0.09-0.07-0.13-0.21-0.12l-2.05,0.1
			c-0.76,1.02-1.55,1.8-2.36,2.35c-0.26,0.17-0.47,0.26-0.64,0.26c-0.15,0-0.27-0.06-0.35-0.18c-0.06-0.08-0.08-0.17-0.08-0.27
			c0-0.13,0.05-0.26,0.16-0.39c0.04-0.04,0.15-0.15,0.34-0.33c0.64-0.58,1.22-1.29,1.74-2.13c0.14-0.23,0.26-0.45,0.37-0.66
			c0.16-0.31,0.39-0.47,0.7-0.47c0.22,0,0.41,0.08,0.55,0.23C99.02,146.46,99.08,146.57,99.11,146.7z M102.28,145.74
			c0.21,0,0.54,0.21,1,0.62c0.39,0.35,0.58,0.63,0.58,0.84c0,0.14-0.06,0.27-0.19,0.37c-0.1,0.08-0.21,0.12-0.34,0.12
			c-0.17,0-0.31-0.1-0.43-0.29c-0.22-0.36-0.48-0.7-0.79-1.01c-0.1-0.11-0.15-0.22-0.15-0.33
			C101.96,145.84,102.06,145.74,102.28,145.74z M103.26,144.85c0.22,0,0.53,0.17,0.95,0.53c0.39,0.33,0.58,0.6,0.58,0.83
			c0,0.16-0.06,0.28-0.18,0.38c-0.09,0.07-0.19,0.1-0.3,0.1c-0.16,0-0.3-0.09-0.42-0.28c-0.2-0.31-0.46-0.62-0.79-0.92
			c-0.12-0.11-0.18-0.23-0.18-0.33c0-0.07,0.03-0.14,0.09-0.21C103.08,144.88,103.16,144.85,103.26,144.85z"/>
	</g>
</g>
<g id="ガイド" display="none">
</g>
</svg>
