<?xml version="1.0" encoding="utf-8"?>
<!-- Generator: Adobe Illustrator 25.4.1, SVG Export Plug-In . SVG Version: 6.00 Build 0)  -->
<svg version="1.1" xmlns="http://www.w3.org/2000/svg" xmlns:xlink="http://www.w3.org/1999/xlink" x="0px" y="0px"
	 viewBox="0 0 164.41 252.28" enable-background="new 0 0 164.41 252.28" xml:space="preserve">
<g id="地">
	<rect fill="#DCDDDD" width="164.41" height="252.28"/>
</g>
<g id="枠">
</g>
<g id="国旗">
	<g>
		<g>
			<rect x="25.51" y="60.03" fill="#FFFFFF" width="113.39" height="75.59"/>
			<rect x="25.51" y="103.87" fill="#C91623" width="113.39" height="6.43"/>
			<rect x="25.51" y="116.34" fill="#004876" width="113.39" height="19.28"/>
			<rect x="25.51" y="60.03" fill="#004876" width="113.39" height="37.8"/>
			<polygon fill="#F5A819" points="60.52,85.83 61.3,88.22 63.81,88.22 61.78,89.7 62.55,92.09 60.52,90.61 58.49,92.09 59.26,89.7 
				57.23,88.22 59.74,88.22 			"/>
			<polygon fill="#F5A819" points="60.52,122.15 61.3,124.54 63.81,124.54 61.78,126.02 62.55,128.41 60.52,126.93 58.49,128.41 
				59.26,126.02 57.23,124.54 59.74,124.54 			"/>
			<polygon fill="#F5A819" points="72.33,89.5 73.11,91.89 75.62,91.89 73.59,93.37 74.37,95.76 72.33,94.28 70.3,95.76 
				71.07,93.37 69.04,91.89 71.55,91.89 			"/>
			<polygon fill="#F5A819" points="72.33,117.14 73.11,119.53 75.62,119.53 73.59,121.01 74.37,123.4 72.33,121.92 70.3,123.4 
				71.07,121.01 69.04,119.53 71.55,119.53 			"/>
			<polygon fill="#F5A819" points="77.46,97.97 78.23,100.36 80.75,100.36 78.71,101.84 79.49,104.23 77.46,102.75 75.42,104.23 
				76.2,101.84 74.17,100.36 76.68,100.36 			"/>
			<polygon fill="#F5A819" points="77.46,110.56 78.23,112.95 80.75,112.95 78.71,114.43 79.49,116.82 77.46,115.34 75.42,116.82 
				76.2,114.43 74.17,112.95 76.68,112.95 			"/>
			<polygon fill="#F5A819" points="48.71,89.5 47.93,91.89 45.42,91.89 47.45,93.37 46.67,95.76 48.71,94.28 50.74,95.76 
				49.96,93.37 52,91.89 49.48,91.89 			"/>
			<polygon fill="#F5A819" points="48.71,117.14 47.93,119.53 45.42,119.53 47.45,121.01 46.67,123.4 48.71,121.92 50.74,123.4 
				49.96,121.01 52,119.53 49.48,119.53 			"/>
			<polygon fill="#F5A819" points="43.58,97.97 42.8,100.36 40.29,100.36 42.32,101.84 41.55,104.23 43.58,102.75 45.61,104.23 
				44.84,101.84 46.87,100.36 44.36,100.36 			"/>
			<polygon fill="#F5A819" points="43.58,110.56 42.8,112.95 40.29,112.95 42.32,114.43 41.55,116.82 43.58,115.34 45.61,116.82 
				44.84,114.43 46.87,112.95 44.36,112.95 			"/>
		</g>
	</g>
</g>
<g id="国名">
	<g>
		<path d="M52.86,148.14c0.15-0.65,0.26-1.23,0.33-1.75c0.06-0.45,0.29-0.67,0.71-0.67c0.49,0,0.73,0.22,0.73,0.65
			c0,0.29-0.09,0.84-0.27,1.64c0.52-0.04,1.11-0.1,1.77-0.17c0.09-0.01,0.17-0.01,0.23-0.01c0.3,0,0.56,0.08,0.77,0.23
			c0.27,0.2,0.41,0.49,0.41,0.86c0,0.13-0.05,0.52-0.14,1.16c-0.28,1.85-0.65,3.24-1.11,4.16c-0.29,0.57-0.67,0.86-1.15,0.86
			c-0.25,0-0.52-0.1-0.8-0.29c-0.83-0.58-1.25-1.02-1.25-1.3c0-0.09,0.03-0.17,0.08-0.26c0.06-0.1,0.16-0.14,0.28-0.14
			c0.12,0,0.28,0.05,0.46,0.14c0.48,0.25,0.78,0.37,0.9,0.37c0.11,0,0.2-0.08,0.29-0.23c0.26-0.49,0.5-1.25,0.73-2.28
			c0.18-0.82,0.27-1.4,0.27-1.72c0-0.16-0.07-0.24-0.21-0.24c-0.24,0-0.87,0.05-1.89,0.15c-0.71,2.13-1.82,3.79-3.33,4.97
			c-0.33,0.26-0.58,0.39-0.75,0.39c-0.14,0-0.25-0.05-0.35-0.15c-0.12-0.13-0.18-0.25-0.18-0.38c0-0.14,0.06-0.27,0.19-0.41
			c0.03-0.03,0.15-0.15,0.38-0.35c0.92-0.84,1.67-1.91,2.25-3.2c0.09-0.21,0.19-0.47,0.3-0.77c-1.17,0.13-1.85,0.19-2.05,0.19
			c-0.45,0-0.68-0.22-0.68-0.67c0-0.41,0.28-0.62,0.85-0.64C51.12,148.26,51.87,148.21,52.86,148.14z"/>
		<path d="M68.63,149.33c0.23,0,0.42,0.07,0.55,0.22c0.11,0.12,0.17,0.28,0.17,0.48c0,0.37-0.18,0.59-0.53,0.66
			c-0.09,0.02-1.34,0.08-3.74,0.19c-1.1,0.05-2.27,0.11-3.5,0.17c-0.04,0-0.09,0-0.13,0c-0.21,0-0.38-0.06-0.52-0.18
			c-0.14-0.13-0.22-0.3-0.22-0.51c0-0.3,0.13-0.51,0.4-0.63c0.11-0.04,0.37-0.07,0.79-0.09c0.37-0.01,1.29-0.05,2.77-0.13
			c0.63-0.03,1.5-0.07,2.59-0.12c0.37-0.01,0.66-0.03,0.87-0.04C68.42,149.33,68.58,149.33,68.63,149.33z"/>
		<path d="M73.61,150.43c0.11,0,0.21,0.03,0.3,0.08c0.2,0.11,0.29,0.29,0.29,0.53c0,0.21-0.08,0.52-0.25,0.95
			c-0.25,0.66-0.54,1.17-0.86,1.52c-0.18,0.21-0.39,0.31-0.61,0.31c-0.16,0-0.3-0.05-0.44-0.15c-0.19-0.14-0.28-0.32-0.28-0.54
			c0-0.18,0.1-0.39,0.3-0.63c0.39-0.46,0.73-1.01,1.01-1.64C73.19,150.58,73.37,150.43,73.61,150.43z M75.82,148.07v-1.77
			c0-0.19,0.06-0.34,0.17-0.45c0.13-0.13,0.3-0.19,0.52-0.19c0.29,0,0.5,0.11,0.62,0.33c0.05,0.09,0.08,0.2,0.08,0.32v1.68
			l0.21-0.02l0.69-0.05l1.24-0.1c0.38-0.03,0.6-0.05,0.65-0.05c0.18,0,0.33,0.06,0.44,0.19c0.11,0.12,0.17,0.28,0.17,0.48
			c0,0.4-0.18,0.62-0.55,0.65c-0.25,0.03-1.2,0.09-2.85,0.2c0.01,1.9,0.03,3.04,0.03,3.42c0.01,0.6,0.02,1.01,0.02,1.24
			c0,0.37-0.07,0.66-0.22,0.87c-0.19,0.29-0.44,0.43-0.74,0.43c-0.15,0-0.31-0.05-0.48-0.15c-0.5-0.28-0.95-0.56-1.37-0.84
			c-0.2-0.13-0.3-0.28-0.3-0.45c0-0.08,0.02-0.16,0.07-0.24c0.08-0.15,0.21-0.23,0.4-0.23c0.08,0,0.19,0.02,0.3,0.07
			c0.46,0.18,0.73,0.27,0.81,0.27c0.1,0,0.15-0.14,0.15-0.41c0-0.01,0-0.08,0-0.2c-0.01-0.18-0.01-0.79-0.02-1.81
			c0-0.23-0.01-0.85-0.02-1.88l-0.22,0.02l-1.29,0.09c-0.94,0.06-1.42,0.09-1.44,0.09c-0.2,0-0.35-0.06-0.46-0.18
			c-0.11-0.11-0.16-0.27-0.16-0.46c0-0.32,0.12-0.54,0.37-0.63c0.08-0.03,0.23-0.05,0.44-0.06c0.37-0.01,1.21-0.07,2.52-0.15
			L75.82,148.07z M78.9,150.2c0.34,0,0.87,0.47,1.58,1.42c0.4,0.53,0.59,0.93,0.59,1.2c0,0.24-0.11,0.44-0.32,0.59
			c-0.16,0.12-0.33,0.17-0.49,0.17c-0.28,0-0.5-0.19-0.66-0.56c-0.29-0.68-0.64-1.31-1.05-1.91c-0.11-0.16-0.17-0.31-0.17-0.43
			c0-0.11,0.04-0.21,0.13-0.3C78.62,150.26,78.75,150.2,78.9,150.2z M79.39,145.5c0.21,0,0.54,0.21,1,0.62
			c0.39,0.35,0.58,0.63,0.58,0.84c0,0.14-0.06,0.27-0.19,0.37c-0.1,0.08-0.21,0.12-0.33,0.12c-0.17,0-0.31-0.1-0.43-0.29
			c-0.22-0.37-0.49-0.7-0.79-1.01c-0.1-0.11-0.16-0.22-0.16-0.33C79.08,145.61,79.18,145.5,79.39,145.5z M80.6,144.84
			c0.22,0,0.54,0.18,0.96,0.53c0.39,0.33,0.58,0.6,0.58,0.83c0,0.16-0.06,0.28-0.18,0.38c-0.09,0.07-0.19,0.1-0.3,0.1
			c-0.16,0-0.3-0.09-0.42-0.28c-0.2-0.3-0.47-0.61-0.79-0.92c-0.12-0.12-0.18-0.23-0.18-0.33c0-0.07,0.03-0.14,0.09-0.2
			C80.42,144.87,80.5,144.84,80.6,144.84z"/>
		<path d="M86.47,147.77c0.23,0,0.48,0.09,0.76,0.27c0.12,0.08,0.34,0.24,0.64,0.48c2.18,1.78,3.68,2.98,4.51,3.6
			c0.25,0.18,0.37,0.41,0.37,0.67c0,0.22-0.08,0.41-0.24,0.57c-0.15,0.15-0.32,0.22-0.52,0.22c-0.19,0-0.37-0.07-0.54-0.2
			c-0.4-0.32-1.67-1.44-3.8-3.35c-0.49-0.44-0.76-0.67-0.8-0.7c-0.13-0.1-0.25-0.15-0.35-0.15c-0.12,0-0.28,0.12-0.5,0.38
			c-0.71,0.81-1.32,1.46-1.84,1.97c-0.18,0.17-0.37,0.26-0.57,0.26c-0.18,0-0.34-0.07-0.48-0.2c-0.17-0.16-0.26-0.34-0.26-0.52
			c0-0.16,0.06-0.31,0.19-0.43c0.02-0.02,0.09-0.09,0.23-0.19c0.48-0.4,1.16-1.05,2.04-1.98c0.23-0.23,0.4-0.39,0.51-0.47
			C86.04,147.84,86.25,147.77,86.47,147.77z M89.57,147.03c0.21,0,0.54,0.21,1,0.62c0.39,0.35,0.58,0.63,0.58,0.83
			c0,0.14-0.06,0.27-0.19,0.37c-0.1,0.08-0.21,0.12-0.34,0.12c-0.17,0-0.31-0.1-0.43-0.29c-0.21-0.34-0.47-0.68-0.79-1.01
			c-0.1-0.11-0.15-0.22-0.15-0.33C89.25,147.14,89.35,147.03,89.57,147.03z M90.88,146.23c0.22,0,0.54,0.18,0.96,0.53
			c0.39,0.32,0.58,0.6,0.58,0.83c0,0.16-0.06,0.28-0.18,0.38c-0.09,0.07-0.19,0.1-0.3,0.1c-0.16,0-0.3-0.09-0.42-0.28
			c-0.2-0.3-0.46-0.61-0.79-0.92c-0.12-0.11-0.18-0.22-0.18-0.33c0-0.07,0.03-0.14,0.09-0.21C90.7,146.26,90.78,146.23,90.88,146.23
			z"/>
		<path d="M97.01,147.24c0.47,0,0.7,0.27,0.7,0.8c0,1.92-0.36,3.46-1.07,4.63c-0.3,0.5-0.67,0.91-1.09,1.24
			c-0.15,0.12-0.31,0.18-0.49,0.18c-0.12,0-0.22-0.04-0.32-0.12c-0.11-0.1-0.16-0.21-0.16-0.35c0-0.16,0.07-0.32,0.22-0.49
			c0.6-0.69,1.01-1.51,1.22-2.46c0.17-0.74,0.26-1.64,0.26-2.7c0-0.22,0.05-0.38,0.15-0.49C96.58,147.32,96.77,147.24,97.01,147.24z
			 M100.2,146.83v5.65c0,0.14,0.03,0.22,0.1,0.22c0.14,0,0.49-0.2,1.07-0.6c0.82-0.56,1.5-1.13,2.03-1.72
			c0.18-0.21,0.36-0.31,0.52-0.31c0.13,0,0.26,0.05,0.39,0.16c0.12,0.1,0.19,0.24,0.19,0.42c0,0.15-0.06,0.31-0.18,0.48
			c-0.43,0.59-1.08,1.23-1.94,1.92c-0.68,0.54-1.33,0.95-1.94,1.26c-0.23,0.11-0.44,0.17-0.62,0.17c-0.2,0-0.39-0.07-0.59-0.21
			c-0.28-0.2-0.42-0.5-0.42-0.92v-6.51c0-0.24,0.1-0.42,0.32-0.54c0.11-0.06,0.23-0.09,0.37-0.09c0.2,0,0.37,0.06,0.51,0.17
			C100.13,146.49,100.2,146.64,100.2,146.83z"/>
		<path d="M109.92,150.47c-1.07,0.06-2.23,0.14-3.47,0.24c-0.1,0.01-0.16,0.01-0.19,0.01c-0.27,0-0.46-0.11-0.57-0.32
			c-0.05-0.1-0.08-0.22-0.08-0.36c0-0.37,0.2-0.57,0.59-0.61c0.51-0.06,2.85-0.2,7.04-0.42c0.78-0.04,1.18-0.06,1.21-0.06
			c0.21,0,0.38,0.06,0.5,0.19c0.11,0.12,0.17,0.27,0.17,0.46c0,0.33-0.13,0.54-0.38,0.63c-0.08,0.03-0.24,0.04-0.47,0.05
			c-0.51,0.01-1.37,0.05-2.58,0.1l-0.27,0c-0.06,1.75-0.59,3.08-1.59,3.99c-0.58,0.53-1.03,0.79-1.36,0.79
			c-0.16,0-0.29-0.06-0.39-0.19c-0.09-0.12-0.13-0.24-0.13-0.35c0-0.14,0.06-0.27,0.17-0.38c0.04-0.04,0.15-0.13,0.35-0.28
			c0.61-0.46,1.03-1.11,1.26-1.95C109.82,151.59,109.9,151.08,109.92,150.47z M112.31,146.15c0.17,0,0.31,0.05,0.43,0.14
			c0.14,0.12,0.22,0.29,0.22,0.5c0,0.37-0.19,0.58-0.55,0.65c-0.21,0.03-0.63,0.08-1.26,0.13c-1.16,0.1-2.11,0.14-2.86,0.14
			c-0.55,0-0.82-0.22-0.82-0.67c0-0.26,0.11-0.44,0.32-0.54c0.11-0.06,0.36-0.08,0.74-0.08c0.91,0,1.82-0.04,2.75-0.14
			c0.2-0.02,0.46-0.05,0.77-0.1C112.16,146.16,112.25,146.15,112.31,146.15z M113.57,145.72c0.21,0,0.54,0.21,1,0.62
			c0.39,0.35,0.58,0.63,0.58,0.84c0,0.14-0.06,0.27-0.19,0.37c-0.1,0.08-0.21,0.12-0.34,0.12c-0.17,0-0.3-0.07-0.39-0.22
			c-0.24-0.4-0.52-0.75-0.83-1.08c-0.1-0.11-0.15-0.22-0.15-0.33C113.25,145.82,113.35,145.72,113.57,145.72z M114.61,144.89
			c0.22,0,0.54,0.18,0.96,0.53c0.39,0.33,0.58,0.6,0.58,0.83c0,0.16-0.06,0.28-0.18,0.38c-0.09,0.07-0.19,0.1-0.3,0.1
			c-0.16,0-0.3-0.09-0.42-0.28c-0.2-0.3-0.46-0.61-0.79-0.92c-0.12-0.11-0.18-0.23-0.18-0.34c0-0.07,0.03-0.14,0.09-0.2
			C114.42,144.92,114.5,144.89,114.61,144.89z"/>
	</g>
</g>
<g id="ガイド" display="none">
</g>
</svg>
