<?xml version="1.0" encoding="utf-8"?>
<!-- Generator: Adobe Illustrator 25.4.1, SVG Export Plug-In . SVG Version: 6.00 Build 0)  -->
<svg version="1.1" xmlns="http://www.w3.org/2000/svg" xmlns:xlink="http://www.w3.org/1999/xlink" x="0px" y="0px"
	 viewBox="0 0 164.41 252.28" enable-background="new 0 0 164.41 252.28" xml:space="preserve">
<g id="地">
	<rect fill="#DCDDDD" width="164.41" height="252.28"/>
</g>
<g id="枠">
</g>
<g id="国旗">
	<g>
		<g>
			<rect x="25.62" y="60.03" fill="#337EC2" width="113.39" height="75.59"/>
			<path fill="#EBDB2E" d="M96.29,90.22c0,4.98-4.03,9.01-9.01,9.01c-4.98,0-9.01-4.03-9.01-9.01c0-4.98,4.03-9.01,9.01-9.01
				C92.26,81.21,96.29,85.24,96.29,90.22z"/>
			<path fill="#EBDB2E" d="M87.24,79.76c-1.8,0-1.14-1.8-0.63-2.52c0.35-0.49,0.63-1.4,0.63-1.4s0.28,0.9,0.63,1.4
				C88.39,77.96,89.05,79.76,87.24,79.76z"/>
			<path fill="#EBDB2E" d="M89.36,79.97c-1.77-0.37-0.76-1.99-0.11-2.6c0.44-0.41,0.9-1.24,0.9-1.24s0.09,0.94,0.34,1.5
				C90.85,78.44,91.13,80.33,89.36,79.97z"/>
			<path fill="#EBDB2E" d="M91.3,80.56c-1.66-0.7-0.36-2.1,0.4-2.57c0.51-0.32,1.12-1.04,1.12-1.04s-0.09,0.94,0.04,1.53
				C93.05,79.35,92.96,81.26,91.3,80.56z"/>
			<path fill="#EBDB2E" d="M93.13,81.54c-1.49-1.01,0.06-2.13,0.89-2.44c0.57-0.21,1.31-0.8,1.31-0.8s-0.27,0.91-0.26,1.51
				C95.08,80.7,94.62,82.56,93.13,81.54z"/>
			<path fill="#EBDB2E" d="M94.61,82.75c-1.28-1.27,0.45-2.08,1.32-2.24c0.59-0.11,1.43-0.55,1.43-0.55s-0.43,0.84-0.53,1.44
				C96.68,82.28,95.89,84.02,94.61,82.75z"/>
			<path fill="#EBDB2E" d="M95.91,84.31c-1.01-1.49,0.84-1.96,1.73-1.94c0.6,0.01,1.51-0.26,1.51-0.26s-0.59,0.74-0.8,1.31
				C98.04,84.25,96.93,85.8,95.91,84.31z"/>
			<path fill="#EBDB2E" d="M96.89,86.09c-0.71-1.66,1.2-1.76,2.07-1.57c0.59,0.13,1.53,0.04,1.53,0.04s-0.72,0.61-1.04,1.13
				C98.99,86.44,97.6,87.75,96.89,86.09z"/>
			<path fill="#EBDB2E" d="M97.53,88.13c-0.35-1.77,1.54-1.47,2.35-1.11c0.55,0.24,1.49,0.34,1.49,0.34s-0.83,0.46-1.25,0.89
				C99.51,88.9,97.88,89.9,97.53,88.13z"/>
			<path fill="#EBDB2E" d="M97.74,90.26c0.02-1.8,1.8-1.13,2.53-0.61c0.49,0.35,1.39,0.64,1.39,0.64s-0.9,0.28-1.4,0.62
				C99.53,91.42,97.73,92.07,97.74,90.26z"/>
			<path fill="#EBDB2E" d="M97.53,92.3c0.37-1.77,1.99-0.76,2.6-0.11c0.41,0.44,1.24,0.9,1.24,0.9s-0.94,0.09-1.5,0.34
				C99.06,93.78,97.16,94.07,97.53,92.3z"/>
			<path fill="#EBDB2E" d="M96.91,94.29c0.71-1.66,2.1-0.35,2.57,0.41c0.32,0.51,1.04,1.13,1.04,1.13s-0.94-0.09-1.53,0.03
				C98.11,96.05,96.2,95.95,96.91,94.29z"/>
			<path fill="#EBDB2E" d="M95.99,96c1-1.5,2.13,0.05,2.45,0.88c0.22,0.56,0.81,1.3,0.81,1.3s-0.91-0.27-1.51-0.25
				C96.85,97.95,94.99,97.5,95.99,96z"/>
			<path fill="#EBDB2E" d="M94.63,97.66c1.29-1.26,2.07,0.48,2.22,1.36c0.1,0.6,0.53,1.44,0.53,1.44s-0.83-0.45-1.43-0.56
				C95.06,99.75,93.34,98.93,94.63,97.66z"/>
			<path fill="#EBDB2E" d="M92.99,98.98c1.52-0.98,1.94,0.89,1.9,1.78c-0.02,0.6,0.23,1.52,0.23,1.52s-0.73-0.6-1.29-0.83
				C93,101.11,91.47,99.96,92.99,98.98z"/>
			<path fill="#EBDB2E" d="M91.34,99.86c1.67-0.69,1.75,1.22,1.55,2.08c-0.13,0.59-0.05,1.53-0.05,1.53s-0.61-0.72-1.12-1.05
				C90.98,101.95,89.68,100.55,91.34,99.86z"/>
			<path fill="#EBDB2E" d="M89.31,100.48c1.77-0.34,1.47,1.55,1.1,2.36c-0.25,0.55-0.35,1.49-0.35,1.49s-0.45-0.83-0.88-1.25
				C88.53,102.46,87.54,100.82,89.31,100.48z"/>
			<path fill="#EBDB2E" d="M87.32,100.68c1.8,0,1.14,1.8,0.63,2.52c-0.35,0.49-0.63,1.4-0.63,1.4s-0.28-0.9-0.63-1.4
				C86.18,102.47,85.52,100.68,87.32,100.68z"/>
			<path fill="#EBDB2E" d="M85.2,100.47c1.77,0.37,0.76,1.99,0.11,2.6c-0.44,0.41-0.9,1.24-0.9,1.24s-0.09-0.94-0.34-1.5
				C83.72,101.99,83.43,100.1,85.2,100.47z"/>
			<path fill="#EBDB2E" d="M83.26,99.87c1.66,0.7,0.36,2.1-0.4,2.57c-0.51,0.32-1.12,1.04-1.12,1.04s0.09-0.94-0.04-1.53
				C81.51,101.08,81.6,99.17,83.26,99.87z"/>
			<path fill="#EBDB2E" d="M81.44,98.89c1.49,1.01-0.06,2.13-0.89,2.44c-0.57,0.21-1.31,0.8-1.31,0.8s0.27-0.91,0.26-1.51
				C79.48,99.73,79.94,97.88,81.44,98.89z"/>
			<path fill="#EBDB2E" d="M79.95,97.68c1.28,1.27-0.45,2.08-1.32,2.24c-0.59,0.11-1.43,0.55-1.43,0.55s0.43-0.84,0.53-1.44
				C77.88,98.15,78.67,96.41,79.95,97.68z"/>
			<path fill="#EBDB2E" d="M78.65,96.13c1.01,1.49-0.84,1.96-1.73,1.94c-0.6-0.01-1.51,0.26-1.51,0.26s0.59-0.74,0.8-1.31
				C76.52,96.19,77.64,94.63,78.65,96.13z"/>
			<path fill="#EBDB2E" d="M77.73,94.48c0.73,1.65-1.18,1.77-2.05,1.6c-0.59-0.12-1.53-0.01-1.53-0.01s0.71-0.62,1.02-1.14
				C75.62,94.16,77,92.83,77.73,94.48z"/>
			<path fill="#EBDB2E" d="M77.06,92.43c0.38,1.77-1.52,1.49-2.34,1.14c-0.56-0.24-1.5-0.33-1.5-0.33s0.82-0.47,1.23-0.91
				C75.07,91.69,76.68,90.67,77.06,92.43z"/>
			<path fill="#EBDB2E" d="M76.82,90.3c0.01,1.8-1.79,1.15-2.52,0.64c-0.5-0.35-1.4-0.63-1.4-0.63s0.9-0.29,1.39-0.64
				C75.02,89.16,76.82,88.49,76.82,90.3z"/>
			<path fill="#EBDB2E" d="M77.01,88.22c-0.35,1.77-1.98,0.77-2.6,0.13c-0.42-0.44-1.25-0.89-1.25-0.89s0.94-0.1,1.49-0.35
				C75.48,86.75,77.36,86.45,77.01,88.22z"/>
			<path fill="#EBDB2E" d="M77.62,86.22c-0.7,1.67-2.1,0.36-2.57-0.39C74.72,85.32,74,84.71,74,84.71s0.94,0.09,1.53-0.04
				C76.4,84.47,78.31,84.56,77.62,86.22z"/>
			<path fill="#EBDB2E" d="M78.57,84.43c-1,1.5-2.13-0.05-2.45-0.88c-0.22-0.56-0.81-1.3-0.81-1.3s0.91,0.27,1.51,0.25
				C77.71,82.48,79.57,82.93,78.57,84.43z"/>
			<path fill="#EBDB2E" d="M79.94,82.77c-1.29,1.26-2.07-0.48-2.22-1.36c-0.1-0.6-0.53-1.44-0.53-1.44s0.83,0.45,1.43,0.56
				C79.5,80.69,81.23,81.51,79.94,82.77z"/>
			<path fill="#EBDB2E" d="M81.58,81.45c-1.52,0.98-1.94-0.89-1.9-1.78c0.02-0.6-0.23-1.52-0.23-1.52s0.73,0.6,1.29,0.83
				C81.57,79.32,83.09,80.47,81.58,81.45z"/>
			<path fill="#EBDB2E" d="M83.22,80.58c-1.67,0.69-1.75-1.22-1.55-2.08c0.13-0.59,0.05-1.53,0.05-1.53s0.61,0.72,1.12,1.05
				C83.58,78.48,84.88,79.88,83.22,80.58z"/>
			<path fill="#EBDB2E" d="M85.25,79.96c-1.77,0.34-1.47-1.54-1.1-2.36c0.25-0.55,0.35-1.49,0.35-1.49s0.45,0.83,0.88,1.25
				C86.03,77.98,87.02,79.61,85.25,79.96z"/>
			<path fill="#EBDB2E" d="M85.95,110.02c-0.32-0.17-1.54,0.14-2.06,0.43c-0.52,0.29-1.07,0.86-0.84,0.93
				c0.23,0.07,0.66,0.05,0.93-0.2c0.27-0.25,1.27-0.7,1.5-0.79C85.7,110.29,86.25,110.17,85.95,110.02z"/>
			<path fill="#EBDB2E" d="M85.68,111.51c0.03-0.29-0.39-0.36-0.75-0.36s-0.93,0.36-0.88,0.52c0.05,0.16,0.7,0.18,0.95,0.16
				C85.25,111.81,85.66,111.72,85.68,111.51z"/>
			<path fill="#EBDB2E" d="M89.1,112.24c-0.35-0.23-1.32-0.5-1.52-0.66c-0.2-0.16-1.54,0.25-2,0.34c-0.45,0.09-1.63,0.29-2.22,0.09
				c-0.59-0.2-1.29-0.2-1.29,0.14c0,0.34-0.14,0.95,0.05,0.91c0.18-0.05,0.91-0.23,1.13-0.2c0.23,0.02,0.5,0.36,0.91,0.36
				s0.7-0.34,0.88-0.34c0.18,0,1.18-0.02,1.41-0.2c0.23-0.18,0.66-0.23,0.93-0.2c0.27,0.02,0.91,0.41,1.2,0.41
				S89.44,112.47,89.1,112.24z"/>
			<path fill="#EBDB2E" d="M92.8,111.97c0,0-0.45-0.61-1.16-0.2c-0.7,0.41-2.11,1.41-2.45,1.45c-0.34,0.05-1.59-0.29-2.09-0.32
				c-0.5-0.02-1.95,1.27-2.25,1.45c-0.3,0.18-0.27,0.75,0.34,0.75c0.61,0,0.98-0.39,1.18-0.5c0.2-0.11,0.16,0.52,0.73,0.5
				c0.57-0.02,0.7-0.7,0.93-0.7c0.23,0,0.3,0.68,0.68,0.68s0.43-0.64,0.66-0.64c0.23,0,0.2,0.43,0.66,0.43
				c0.45,0,0.61-0.36,0.93-0.39c0.32-0.02,0.34,0.45,0.79,0.45c0.45,0,0.5-0.64,0.82-0.64c0.32,0,0.45,0.39,0.82,0.39
				c0.36,0,0.66-0.54,0.89-0.59c0.23-0.05,0.27-0.36,0.45-0.34c0.18,0.02,0.16,0.23,0.32,0.25c0.16,0.02,0.41-0.59,0.7-0.68
				c0.29-0.09,0.41,0.23,0.61,0.18c0.2-0.05,1.13-0.32,1.13-0.52s0-0.57-0.05-0.73c-0.05-0.16,0.18-0.02,0.5-0.02
				c0.32,0,1.38-0.14,1.66-0.36c0.27-0.23,0.23-0.36,0.32-0.45s0.2-0.23-0.09-0.23c-0.3,0-1.84,0.29-2.68,0.09
				c-0.84-0.2-2.61-0.73-2.9-0.77c-0.29-0.05-1.07,0.54-1.25,0.79C92.83,111.56,92.8,111.97,92.8,111.97z"/>
			<path fill="#EBDB2E" d="M86.82,109.65c0.32-0.14,1.66-1.16,2.46-1.27c0.81-0.11,2.17,0.18,3.11-0.23
				c0.93-0.4,2.05-1.89,2.77-2.19c0.72-0.31,2.3-0.47,2.96-1.03c0.66-0.56,2.03-2.63,2.58-3.66c0.55-1.03,1.5-1.68,2.17-1.68
				s0.66,0.61,0.4,0.85c-0.26,0.24-0.16,0.68,0.35,0.68c0.52,0,0.79,0.21,0.13,0.63c-0.66,0.42-0.68,0.79-0.32,0.84
				c0.35,0.05,0.34,0.34,0.05,0.5c-0.29,0.16-0.77,0.56-0.85,0.81c-0.08,0.24-0.03,0.55-0.37,0.66c-0.34,0.11-0.82,0.23-0.85,0.74
				c-0.03,0.52-0.23,0.53-0.55,0.55c-0.32,0.02-0.45,0.26-0.45,0.55c0,0.29-0.11,0.5-0.34,0.39c-0.23-0.11-0.37-0.05-0.39,0.24
				c-0.02,0.29-0.23,0.72-0.72,0.92c-0.5,0.19-0.53,0.43-0.77,0.47c-0.24,0.03-0.8,0.29-0.98,0.32c-0.18,0.03-0.21,0.31,0.13,0.39
				c0.34,0.08,0.53,0.11,0.69,0c0.16-0.11,0.05-0.29,0.31-0.31c0.26-0.02,0.68,0.26,0.89,0.18c0.21-0.08-0.08-0.4,0.16-0.43
				c0.24-0.03,0.4,0.15,0.66,0.1c0.26-0.05,0.02-0.27,0.23-0.32c0.21-0.05,0.53,0.19,0.64,0.1c0.11-0.1-0.16-0.53,0.03-0.53
				c0.19,0,0.66,0.32,1.01,0.32c0.35,0,0.81-0.21,0.53-0.52c-0.27-0.31-0.5-0.44-0.68-0.6c-0.18-0.16,0.02-0.26,0.21-0.26
				c0.19,0,1.48-0.18,1.69-0.45c0.21-0.27,0.05-0.45-0.06-0.58c-0.11-0.13,0.11-0.29,0.31-0.32c0.19-0.03,0.37-0.21,0.19-0.42
				c-0.18-0.21-0.23-0.35-0.08-0.47c0.14-0.11,0.97-0.71,1.06-0.82c0.1-0.11,0-0.39-0.24-0.29c-0.24,0.1-0.82,0.32-0.95,0.32
				c-0.13,0-0.08-0.19,0.11-0.32c0.19-0.13,1.32-1,1.79-1.5c0.47-0.5,1.39-1.37,1.05-1.64c-0.34-0.27-1.42,1.08-1.61,0.85
				c-0.19-0.23,1.08-0.95,1.71-2.03c0.63-1.08,0.95-1.93,0.92-2.14c-0.03-0.21-0.42-0.08-0.68,0.29c-0.26,0.37-1.56,2.01-2,2.29
				c-0.43,0.27-0.52,0.1-0.26-0.35c0.26-0.45,1.21-2.11,1.9-3.58c0.69-1.47,1.1-2.92,1.1-3.17c0-0.26-0.27-0.47-0.6,0.14
				c-0.32,0.61-0.89,1.92-1.37,2.8c-0.48,0.89-1,1.5-1.13,1.64c-0.13,0.14-0.21,0-0.13-0.45c0.08-0.45,1.69-4.35,1.69-5.62
				c0-1.27-0.69-1.68-0.72-0.81c-0.03,0.87-0.55,2.5-0.81,3.27c-0.26,0.77-0.79,2.26-0.77,1.13c0.02-1.13,0.19-2.64-0.15-2.58
				c-0.34,0.06-0.5,0.35-0.61,1.37c-0.11,1.01-1.31,5.01-2.63,6.69c-1.32,1.68-4.56,5.41-7.84,6.48c-3.29,1.06-4.49,0.84-5.4,1.82
				C86.61,109.37,86.51,109.78,86.82,109.65z"/>
			<path fill="#EBDB2E" d="M86.01,108.95c-0.47-0.12-1.26-0.69-1.56-0.87c-0.31-0.18-1.93,0.29-3,0.05
				c-1.06-0.24-1.97-2.01-2.75-2.43c-0.79-0.42-2.11-0.47-2.82-1.1c-0.71-0.63-2.01-2.29-2.45-3.12c-0.43-0.84-1.61-2.17-1.79-2.27
				c-0.18-0.1-0.85,0.37-0.64,0.71c0.21,0.34,0.81,0.77,0.64,1.1c-0.16,0.32-0.9,0.18-0.9,0.35c0,0.18,1.5,1.43,1.35,1.64
				c-0.14,0.21-0.19,0.79,0.13,0.79c0.32,0,0.72-0.08,0.87,0.21c0.15,0.29,0.23,0.6,0.42,0.74c0.19,0.15,0.42,0.35,0.31,0.47
				c-0.11,0.11-0.42,0.18-0.21,0.47c0.21,0.29,0.5,0.34,0.68,0.32c0.18-0.02,0.52,0.26,0.37,0.43c-0.14,0.18-0.31,0.58,0,0.58
				c0.31,0,0.58-0.26,0.69-0.18c0.11,0.08,0.5,0.31,0.29,0.6c-0.21,0.29-0.16,0.42,0.16,0.42c0.32,0,1.01,0.58,1.3,0.72
				c0.29,0.15,1.68,0.58,2.11,0.61c0.43,0.03,0.98,0.16,1.14,0.19c0.16,0.03,0.27,0.4,0,0.4c-0.27,0-1.01-0.11-1.47,0.02
				c-0.45,0.13-0.89,0.24-1.22,0.06c-0.34-0.18-0.68-0.43-0.92-0.5c-0.24-0.06-0.55,0.19-0.87-0.05c-0.32-0.24-0.74-0.5-0.89-0.5
				s-0.6-0.52-0.97-0.58c-0.37-0.06-1.22,0.02-1.24-0.43c-0.02-0.45,0.52-0.29,0.74-0.29c0.23,0,0.21-0.43-0.26-0.45
				c-0.47-0.02-0.77,0.18-0.97,0.13c-0.19-0.05-0.64-0.4-0.68-0.58c-0.03-0.18,0.52,0.05,0.47-0.27c-0.05-0.32-0.56-0.27-0.53-0.63
				s0.45-0.24,0.31-0.42c-0.14-0.18-0.77,0.06-1.26-0.23c-0.48-0.29-0.77-0.66-0.6-0.71c0.18-0.05,0.92,0.08,0.9-0.27
				c-0.02-0.35-1.13-0.52-1.47-0.95c-0.34-0.43-1.21-1.32-0.98-1.58c0.23-0.26,1.26,0.53,1.34,0.37c0.08-0.16-0.27-0.45-0.56-0.66
				c-0.29-0.21-1.95-1.4-2.48-2.13c-0.53-0.72-1.43-2.21-0.93-2.42c0.5-0.21,1.92,1.74,2.21,2.06c0.29,0.32,1.76,1.66,1.87,1.5
				c0.11-0.16-1.27-1.5-2.03-2.82c-0.76-1.32-1.48-3.82-1.06-3.95c0.42-0.13,0.87,1.43,1.53,2.46c0.66,1.03,1.34,1.79,1.51,1.64
				c0.18-0.14-1.19-2.05-1.5-3.29c-0.31-1.24-0.39-2.96,0.11-2.98c0.5-0.02,0.55,2.26,0.98,3.13c0.43,0.87,0.76,1.66,1.06,1.51
				c0.31-0.14,0.15-1.68,0.15-1.97c0-0.29,0.29-0.58,0.47-0.1c0.18,0.48,0.19,1.93,0.9,3.22c0.71,1.29,1.95,3.61,2.88,4.54
				c0.93,0.93,2.61,3.06,6.83,4.61c4.22,1.55,5.03,1.45,5.22,1.63C87.15,108.12,86.69,109.13,86.01,108.95z"/>
			<path fill="#EBDB2E" d="M40.6,74c0.15-0.3,0.24-0.6,0.24-0.97c0-1.08-0.54-1.67-1.39-1.8c0.69-0.13,1.39-0.65,1.39-1.7
				c0-0.37-0.09-0.66-0.24-0.97c-0.15-0.3-0.34-0.58-0.4-1.23c-0.05-0.65,0.35-1.83,0.48-2.32c0.13-0.49-0.79,0.84-0.91,0.95
				c-0.11,0.11-0.43-0.05-0.46,0.17c-0.03,0.22,0.42,0.63,0.42,0.99c0,0.36-0.14,0.67-0.57,0.67c-0.43,0-0.97,0.62-0.91,1.25
				c0.06,0.55,0.32,0.85,1,0.85c0.53,0,0.33-0.66-0.01-0.58c-0.41,0.1-0.51-0.18-0.51-0.47c0-0.29,0.23-0.56,0.72-0.56
				c0.49,0,0.89,0.55,0.89,1.23c0,0.68-0.39,1.21-1.23,1.23c-0.84,0.02-1.75-0.49-1.75-1.43c0-0.99,0.58-2.01,0.93-2.85
				c0.39-0.92-0.05-1.71-0.54-1.76c-0.5-0.05-0.7,0.11-0.87,0.25c-0.18-0.14-0.38-0.29-0.87-0.25c-0.5,0.05-0.93,0.83-0.54,1.76
				c0.35,0.84,0.93,1.85,0.93,2.85c0,0.94-0.91,1.45-1.75,1.43c-0.84-0.02-1.23-0.55-1.23-1.23c0-0.68,0.4-1.23,0.89-1.23
				c0.49,0,0.72,0.27,0.72,0.56c0,0.29-0.1,0.57-0.51,0.47c-0.34-0.08-0.55,0.58-0.01,0.58c0.68,0,0.94-0.3,1-0.85
				c0.07-0.63-0.47-1.25-0.91-1.25c-0.43,0-0.57-0.3-0.57-0.67c0-0.36,0.46-0.77,0.42-0.99c-0.03-0.22-0.35-0.06-0.46-0.17
				c-0.11-0.11-1.03-1.44-0.91-0.95c0.13,0.49,0.53,1.67,0.48,2.32c-0.05,0.65-0.25,0.93-0.4,1.23c-0.15,0.3-0.24,0.6-0.24,0.97
				c0,1.05,0.7,1.57,1.39,1.7c-0.85,0.12-1.39,0.71-1.39,1.8c0,0.37,0.09,0.66,0.24,0.97c0.15,0.3,0.34,0.58,0.4,1.23
				c0.05,0.65-0.35,1.83-0.48,2.32c-0.13,0.49,0.79-0.84,0.91-0.95c0.11-0.11,0.43,0.05,0.46-0.17c0.03-0.22-0.42-0.63-0.42-0.99
				c0-0.36,0.14-0.67,0.57-0.67c0.43,0,0.97-0.62,0.91-1.25c-0.06-0.55-0.32-0.85-1-0.85c-0.53,0-0.33,0.66,0.01,0.58
				c0.41-0.1,0.51,0.18,0.51,0.47c0,0.29-0.23,0.56-0.72,0.56c-0.49,0-0.89-0.55-0.89-1.23c0-0.68,0.39-1.21,1.23-1.23
				c0.84-0.02,1.48,0.49,1.48,1.43c0,0.99-1.67,4.1-2.71,7.2c-1.04,3.11,1.22,3.99,1.22,3.99s-2.26,0.88-1.22,3.99
				s2.71,6.21,2.71,7.2c0,0.94-0.64,1.45-1.48,1.43c-0.84-0.02-1.23-0.55-1.23-1.23c0-0.68,0.4-1.23,0.89-1.23
				c0.49,0,0.72,0.27,0.72,0.56c0,0.29-0.1,0.57-0.51,0.47c-0.34-0.08-0.55,0.58-0.01,0.58c0.68,0,0.94-0.3,1-0.85
				c0.07-0.63-0.47-1.25-0.91-1.25c-0.43,0-0.57-0.3-0.57-0.67c0-0.36,0.46-0.77,0.42-0.99c-0.03-0.22-0.35-0.06-0.46-0.17
				c-0.11-0.11-1.03-1.44-0.91-0.95c0.13,0.49,0.53,1.67,0.48,2.32c-0.05,0.65-0.25,0.93-0.4,1.23c-0.15,0.3-0.24,0.6-0.24,0.97
				c0,1.09,0.55,1.68,1.4,1.8c-0.86,0.12-1.4,0.71-1.4,1.8c0,0.37,0.09,0.66,0.24,0.97c0.15,0.3,0.34,0.58,0.4,1.23
				c0.05,0.65-0.35,1.83-0.48,2.32c-0.13,0.49,0.79-0.84,0.91-0.95c0.11-0.11,0.43,0.05,0.46-0.17c0.03-0.22-0.42-0.63-0.42-0.99
				c0-0.36,0.14-0.67,0.57-0.67c0.43,0,0.97-0.62,0.91-1.25c-0.06-0.55-0.32-0.85-1-0.85c-0.53,0-0.33,0.66,0.01,0.58
				c0.41-0.1,0.51,0.18,0.51,0.47c0,0.29-0.23,0.56-0.72,0.56c-0.49,0-0.89-0.55-0.89-1.23c0-0.68,0.39-1.21,1.23-1.23
				c0.84-0.02,1.48,0.49,1.48,1.43c0,0.99-1.67,4.1-2.71,7.2c-1.04,3.11,1.22,3.99,1.22,3.99s-2.26,0.88-1.22,3.99
				c1.04,3.11,2.71,6.21,2.71,7.2c0,0.94-0.64,1.45-1.48,1.43c-0.84-0.02-1.23-0.55-1.23-1.23c0-0.68,0.4-1.23,0.89-1.23
				c0.49,0,0.72,0.27,0.72,0.56c0,0.29-0.1,0.57-0.51,0.47c-0.34-0.08-0.55,0.58-0.01,0.58c0.68,0,0.94-0.3,1-0.85
				c0.07-0.63-0.47-1.25-0.91-1.25c-0.43,0-0.57-0.3-0.57-0.67c0-0.36,0.46-0.77,0.42-0.99c-0.03-0.22-0.35-0.06-0.46-0.17
				c-0.11-0.11-1.03-1.44-0.91-0.95c0.13,0.49,0.53,1.66,0.48,2.32c-0.05,0.65-0.25,0.93-0.4,1.23c-0.15,0.3-0.24,0.6-0.24,0.97
				c0,1.08,0.54,1.67,1.39,1.8c-0.69,0.13-1.39,0.65-1.39,1.7c0,0.37,0.09,0.66,0.24,0.97c0.15,0.3,0.34,0.58,0.4,1.23
				c0.05,0.65-0.35,1.83-0.48,2.32c-0.13,0.49,0.79-0.84,0.91-0.95c0.11-0.11,0.43,0.05,0.46-0.17c0.03-0.22-0.42-0.63-0.42-0.99
				c0-0.36,0.14-0.67,0.57-0.67c0.43,0,0.97-0.62,0.91-1.25c-0.06-0.55-0.32-0.85-1-0.85c-0.53,0-0.33,0.66,0.01,0.58
				c0.41-0.1,0.51,0.18,0.51,0.47c0,0.29-0.23,0.56-0.72,0.56c-0.49,0-0.89-0.55-0.89-1.23c0-0.68,0.39-1.21,1.23-1.23
				c0.84-0.02,1.75,0.49,1.75,1.43c0,0.99-0.58,2.01-0.93,2.85c-0.39,0.92,0.05,1.71,0.54,1.76c0.5,0.05,0.7-0.11,0.87-0.25
				c0.18,0.14,0.38,0.29,0.87,0.25c0.5-0.05,0.93-0.83,0.54-1.76c-0.35-0.84-0.93-1.85-0.93-2.85c0-0.94,0.91-1.45,1.75-1.43
				c0.84,0.02,1.23,0.55,1.23,1.23c0,0.68-0.4,1.23-0.89,1.23c-0.49,0-0.72-0.27-0.72-0.56c0-0.29,0.1-0.57,0.51-0.47
				c0.34,0.08,0.55-0.58,0.01-0.58c-0.68,0-0.94,0.3-1,0.85c-0.07,0.63,0.47,1.25,0.91,1.25c0.43,0,0.57,0.3,0.57,0.67
				c0,0.36-0.46,0.77-0.42,0.99c0.03,0.22,0.35,0.06,0.46,0.17c0.11,0.11,1.03,1.44,0.91,0.95c-0.13-0.49-0.53-1.66-0.48-2.32
				c0.05-0.65,0.25-0.93,0.4-1.23c0.15-0.3,0.24-0.6,0.24-0.97c0-1.05-0.7-1.57-1.39-1.7c0.85-0.12,1.39-0.71,1.39-1.8
				c0-0.37-0.09-0.66-0.24-0.97c-0.15-0.3-0.34-0.58-0.4-1.23c-0.05-0.65,0.35-1.83,0.48-2.32c0.13-0.49-0.79,0.84-0.91,0.95
				c-0.11,0.11-0.43-0.05-0.46,0.17c-0.03,0.22,0.42,0.63,0.42,0.99c0,0.36-0.14,0.67-0.57,0.67c-0.43,0-0.97,0.62-0.91,1.25
				c0.06,0.55,0.32,0.85,1,0.85c0.53,0,0.33-0.66-0.01-0.58c-0.41,0.1-0.51-0.18-0.51-0.47c0-0.29,0.23-0.56,0.72-0.56
				c0.49,0,0.89,0.55,0.89,1.23c0,0.68-0.39,1.21-1.23,1.23c-0.84,0.02-1.48-0.49-1.48-1.43c0-0.99,1.67-4.1,2.71-7.2
				c1.04-3.11-1.22-3.99-1.22-3.99s2.26-0.88,1.22-3.99c-1.04-3.11-2.71-6.21-2.71-7.2c0-0.94,0.64-1.45,1.48-1.43
				c0.84,0.02,1.23,0.55,1.23,1.23c0,0.68-0.4,1.23-0.89,1.23c-0.49,0-0.72-0.27-0.72-0.56c0-0.29,0.1-0.57,0.51-0.47
				c0.34,0.08,0.55-0.58,0.01-0.58c-0.68,0-0.94,0.3-1,0.85c-0.07,0.63,0.47,1.25,0.91,1.25c0.43,0,0.57,0.3,0.57,0.67
				c0,0.36-0.46,0.77-0.42,0.99c0.03,0.22,0.35,0.06,0.46,0.17c0.11,0.11,1.03,1.44,0.91,0.95c-0.13-0.49-0.53-1.67-0.48-2.32
				c0.05-0.65,0.25-0.93,0.4-1.23c0.15-0.3,0.24-0.6,0.24-0.97c0-1.09-0.55-1.68-1.4-1.8c0.86-0.12,1.4-0.71,1.4-1.8
				c0-0.37-0.09-0.66-0.24-0.97c-0.15-0.3-0.34-0.58-0.4-1.23c-0.05-0.65,0.35-1.83,0.48-2.32c0.13-0.49-0.79,0.84-0.91,0.95
				c-0.11,0.11-0.43-0.05-0.46,0.17c-0.03,0.22,0.42,0.63,0.42,0.99c0,0.36-0.14,0.67-0.57,0.67c-0.43,0-0.97,0.62-0.91,1.25
				c0.06,0.55,0.32,0.85,1,0.85c0.53,0,0.33-0.66-0.01-0.58c-0.41,0.1-0.51-0.18-0.51-0.47c0-0.29,0.23-0.56,0.72-0.56
				c0.49,0,0.89,0.55,0.89,1.23c0,0.68-0.39,1.21-1.23,1.23c-0.84,0.02-1.48-0.49-1.48-1.43c0-0.99,1.67-4.1,2.71-7.2
				c1.04-3.11-1.22-3.99-1.22-3.99s2.26-0.88,1.22-3.99c-1.04-3.11-2.71-6.21-2.71-7.2c0-0.94,0.64-1.45,1.48-1.43
				c0.84,0.02,1.23,0.55,1.23,1.23c0,0.68-0.4,1.23-0.89,1.23c-0.49,0-0.72-0.27-0.72-0.56c0-0.29,0.1-0.57,0.51-0.47
				c0.34,0.08,0.55-0.58,0.01-0.58c-0.68,0-0.94,0.3-1,0.85c-0.07,0.63,0.47,1.25,0.91,1.25c0.43,0,0.57,0.3,0.57,0.67
				c0,0.36-0.46,0.77-0.42,0.99c0.03,0.22,0.35,0.06,0.46,0.17c0.11,0.11,1.03,1.44,0.91,0.95c-0.13-0.49-0.53-1.66-0.48-2.32
				C40.25,74.58,40.45,74.3,40.6,74z M35.97,66.6c-0.12-0.33-0.15-0.51-0.13-0.77c0.01-0.26,0.22-0.46,0.4-0.51
				c0.18-0.05,0.39-0.01,0.64,0.24c0.25-0.25,0.46-0.29,0.64-0.24c0.18,0.05,0.39,0.25,0.4,0.51c0.01,0.26-0.01,0.44-0.13,0.77
				c-0.12,0.33-0.42,0.97-0.63,1.41c-0.12,0.25-0.22,0.41-0.28,0.61c-0.06-0.2-0.16-0.36-0.28-0.61
				C36.38,67.57,36.09,66.93,35.97,66.6z M37.78,128.61c0.12,0.33,0.14,0.51,0.13,0.77c-0.01,0.26-0.22,0.46-0.4,0.51
				c-0.18,0.05-0.39,0.01-0.64-0.24c-0.25,0.25-0.46,0.29-0.64,0.24c-0.18-0.05-0.39-0.25-0.4-0.51c-0.01-0.26,0.01-0.44,0.13-0.77
				c0.12-0.33,0.42-0.97,0.63-1.41c0.12-0.25,0.22-0.41,0.28-0.61c0.06,0.2,0.16,0.36,0.28,0.61
				C37.36,127.64,37.66,128.28,37.78,128.61z M38.8,123.97c-0.7,0.14-1.66,0.7-1.93,1.57c-0.26-0.87-1.23-1.43-1.93-1.57
				c0.91-0.12,1.65-0.77,1.93-1.67C37.15,123.2,37.89,123.85,38.8,123.97z M39.58,113.95c-0.48,1.76-2.71,7.18-2.71,7.18
				s-2.23-5.42-2.71-7.18c-0.48-1.76,0.84-2.44,1.2-2.44s1.08,0.56,1.08,1.02c0,0.47-0.35,0.69-0.69,0.69
				c-0.34,0-0.54-0.13-0.54-0.31c0-0.28-0.17-0.18-0.31,0.11c-0.14,0.29-0.11,0.56,0.03,0.75c0.14,0.2,0.29,0.2,0.29-0.04
				c0-0.21,0.08-0.26,0.23-0.12c0.14,0.14,0.87,0.08,0.99-0.2c0,0,0,2.06,0,2.44c0,0.38-0.36,0.5-0.68,0.37c0,0-0.04,0.41,0.37,0.41
				c0.26,0,0.49-0.15,0.49-0.15s0,1.67,0,1.92c0,0.25,0.25,0.5,0.25,0.5s0.25-0.25,0.25-0.5c0-0.25,0-1.92,0-1.92
				s0.24,0.15,0.49,0.15c0.4,0,0.37-0.41,0.37-0.41c-0.33,0.13-0.68,0.01-0.68-0.37c0-0.38,0-2.44,0-2.44
				c0.13,0.29,0.85,0.35,0.99,0.2c0.14-0.14,0.23-0.09,0.23,0.12c0,0.24,0.15,0.24,0.29,0.04c0.14-0.2,0.17-0.47,0.03-0.75
				c-0.14-0.29-0.31-0.39-0.31-0.11c0,0.18-0.2,0.31-0.54,0.31c-0.34,0-0.69-0.23-0.69-0.69c0-0.47,0.72-1.02,1.08-1.02
				S40.07,112.19,39.58,113.95z M35.64,110.79c0.74,0,1.23-1.49,1.23-1.49s0.49,1.49,1.23,1.49c-0.7,0-1.23,1.32-1.23,1.32
				S36.34,110.79,35.64,110.79z M39.58,107.63c0.48,1.76-0.84,2.44-1.2,2.44s-1.08-0.56-1.08-1.02c0-0.47,0.35-0.69,0.69-0.69
				c0.34,0,0.54,0.13,0.54,0.31c0,0.28,0.17,0.18,0.31-0.11c0.14-0.29,0.11-0.56-0.03-0.75c-0.14-0.2-0.29-0.2-0.29,0.04
				c0,0.21-0.08,0.26-0.23,0.12c-0.14-0.14-0.87-0.08-0.99,0.2c0,0,0-2.06,0-2.44c0-0.38,0.36-0.5,0.68-0.37
				c0,0,0.04-0.41-0.37-0.41c-0.26,0-0.49,0.15-0.49,0.15s0-1.67,0-1.92c0-0.25-0.25-0.5-0.25-0.5s-0.25,0.25-0.25,0.5
				c0,0.25,0,1.92,0,1.92s-0.24-0.15-0.49-0.15c-0.4,0-0.37,0.41-0.37,0.41c0.33-0.13,0.68-0.01,0.68,0.37c0,0.38,0,2.44,0,2.44
				c-0.13-0.29-0.85-0.35-0.99-0.2c-0.14,0.14-0.23,0.09-0.23-0.12c0-0.24-0.15-0.24-0.29-0.04c-0.14,0.2-0.17,0.47-0.03,0.75
				c0.14,0.29,0.31,0.39,0.31,0.11c0-0.18,0.2-0.31,0.54-0.31c0.34,0,0.69,0.23,0.69,0.69c0,0.47-0.72,1.02-1.08,1.02
				s-1.69-0.68-1.2-2.44c0.48-1.76,2.71-7.18,2.71-7.18S39.1,105.87,39.58,107.63z M38.81,97.6c-0.91,0.12-1.66,0.76-1.94,1.67
				c-0.28-0.91-1.03-1.55-1.94-1.67c0.91-0.12,1.66-0.76,1.94-1.67C37.15,96.84,37.9,97.49,38.81,97.6z M39.58,87.58
				c-0.48,1.76-2.71,7.18-2.71,7.18s-2.23-5.42-2.71-7.18c-0.48-1.76,0.84-2.44,1.2-2.44s1.08,0.56,1.08,1.02
				c0,0.47-0.35,0.69-0.69,0.69c-0.34,0-0.54-0.13-0.54-0.31c0-0.28-0.17-0.18-0.31,0.11c-0.14,0.29-0.11,0.56,0.03,0.76
				c0.14,0.2,0.29,0.2,0.29-0.04c0-0.21,0.08-0.26,0.23-0.12c0.14,0.14,0.87,0.08,0.99-0.2c0,0,0,2.06,0,2.44
				c0,0.38-0.36,0.5-0.68,0.37c0,0-0.04,0.41,0.37,0.41c0.26,0,0.49-0.15,0.49-0.15s0,1.67,0,1.92c0,0.25,0.25,0.5,0.25,0.5
				s0.25-0.25,0.25-0.5c0-0.25,0-1.92,0-1.92s0.24,0.15,0.49,0.15c0.4,0,0.37-0.41,0.37-0.41c-0.33,0.13-0.68,0.01-0.68-0.37
				c0-0.38,0-2.44,0-2.44c0.13,0.29,0.85,0.35,0.99,0.2c0.14-0.14,0.23-0.09,0.23,0.12c0,0.24,0.15,0.24,0.29,0.04
				c0.14-0.2,0.17-0.47,0.03-0.76c-0.14-0.29-0.31-0.39-0.31-0.11c0,0.18-0.2,0.31-0.54,0.31c-0.34,0-0.69-0.22-0.69-0.69
				c0-0.47,0.72-1.02,1.08-1.02S40.07,85.82,39.58,87.58z M35.64,84.42c0.74,0,1.23-1.49,1.23-1.49s0.49,1.49,1.23,1.49
				c-0.7,0-1.23,1.32-1.23,1.32S36.34,84.42,35.64,84.42z M39.58,81.26c0.48,1.76-0.84,2.44-1.2,2.44s-1.08-0.56-1.08-1.02
				c0-0.47,0.35-0.69,0.69-0.69c0.34,0,0.54,0.13,0.54,0.31c0,0.28,0.17,0.18,0.31-0.11c0.14-0.29,0.11-0.56-0.03-0.76
				c-0.14-0.2-0.29-0.2-0.29,0.04c0,0.21-0.08,0.26-0.23,0.12c-0.14-0.14-0.87-0.08-0.99,0.2c0,0,0-2.06,0-2.44
				c0-0.38,0.36-0.5,0.68-0.37c0,0,0.04-0.41-0.37-0.41c-0.26,0-0.49,0.15-0.49,0.15s0-1.67,0-1.92c0-0.25-0.25-0.5-0.25-0.5
				s-0.25,0.25-0.25,0.5c0,0.25,0,1.92,0,1.92s-0.24-0.15-0.49-0.15c-0.4,0-0.37,0.41-0.37,0.41c0.33-0.13,0.68-0.01,0.68,0.37
				c0,0.38,0,2.44,0,2.44c-0.13-0.29-0.85-0.35-0.99-0.2c-0.14,0.14-0.23,0.09-0.23-0.12c0-0.24-0.15-0.24-0.29-0.04
				c-0.14,0.2-0.17,0.47-0.03,0.76c0.14,0.29,0.31,0.39,0.31,0.11c0-0.18,0.2-0.31,0.54-0.31c0.34,0,0.69,0.22,0.69,0.69
				c0,0.47-0.72,1.02-1.08,1.02s-1.69-0.68-1.2-2.44c0.48-1.76,2.71-7.18,2.71-7.18S39.1,79.5,39.58,81.26z M36.87,72.91
				c-0.28-0.9-1.02-1.55-1.93-1.67c0.7-0.14,1.66-0.71,1.93-1.57c0.26,0.87,1.23,1.43,1.93,1.57C37.89,71.36,37.15,72,36.87,72.91z"
				/>
		</g>
	</g>
</g>
<g id="国名">
	<g>
		<path d="M52.86,148.14c0.15-0.65,0.26-1.23,0.33-1.75c0.05-0.45,0.29-0.67,0.71-0.67c0.49,0,0.73,0.22,0.73,0.65
			c0,0.29-0.09,0.84-0.27,1.64c0.52-0.04,1.11-0.1,1.77-0.17c0.09-0.01,0.17-0.01,0.23-0.01c0.3,0,0.56,0.08,0.77,0.23
			c0.27,0.2,0.41,0.49,0.41,0.86c0,0.13-0.05,0.52-0.14,1.16c-0.28,1.85-0.65,3.24-1.11,4.16c-0.29,0.57-0.67,0.86-1.15,0.86
			c-0.25,0-0.52-0.1-0.8-0.29c-0.83-0.58-1.25-1.02-1.25-1.3c0-0.09,0.03-0.17,0.08-0.26c0.06-0.1,0.16-0.14,0.28-0.14
			c0.13,0,0.28,0.05,0.47,0.14c0.48,0.25,0.78,0.37,0.9,0.37c0.11,0,0.2-0.08,0.29-0.23c0.26-0.49,0.5-1.25,0.73-2.28
			c0.18-0.82,0.27-1.4,0.27-1.72c0-0.16-0.07-0.24-0.21-0.24c-0.24,0-0.87,0.05-1.89,0.15c-0.71,2.13-1.82,3.79-3.33,4.97
			c-0.33,0.26-0.58,0.39-0.75,0.39c-0.14,0-0.25-0.05-0.35-0.15c-0.12-0.13-0.18-0.25-0.18-0.38c0-0.14,0.06-0.27,0.19-0.41
			c0.03-0.03,0.16-0.15,0.38-0.35c0.92-0.84,1.67-1.91,2.25-3.2c0.09-0.21,0.19-0.47,0.3-0.77c-1.17,0.13-1.85,0.19-2.05,0.19
			c-0.45,0-0.68-0.22-0.68-0.67c0-0.41,0.28-0.62,0.85-0.64C51.12,148.26,51.87,148.21,52.86,148.14z"/>
		<path d="M66.34,148.43v-1.89c0-0.19,0.06-0.34,0.17-0.45c0.13-0.13,0.31-0.19,0.53-0.19c0.31,0,0.52,0.11,0.64,0.33
			c0.05,0.09,0.07,0.2,0.07,0.32v1.78c0.6-0.04,1.11-0.08,1.55-0.12c0.06-0.01,0.11-0.01,0.16-0.01c0.43,0,0.64,0.21,0.64,0.63
			c0,0.33-0.11,0.54-0.34,0.62c-0.07,0.03-0.21,0.05-0.4,0.06l-1.13,0.08l-0.35,0.03l-0.13,0c-0.07,1.3-0.25,2.35-0.57,3.13
			c-0.39,0.97-1.06,1.78-2,2.43c-0.19,0.13-0.37,0.19-0.53,0.19c-0.16,0-0.29-0.06-0.38-0.18c-0.08-0.11-0.13-0.22-0.13-0.34
			c0-0.12,0.04-0.23,0.12-0.33c0.04-0.05,0.17-0.17,0.39-0.35c0.73-0.6,1.22-1.47,1.47-2.62c0.1-0.48,0.17-1.08,0.21-1.8l-0.21,0.01
			c-0.72,0.05-1.39,0.11-2.01,0.15l-0.17,0.01v1.74c0,0.14-0.03,0.26-0.1,0.36c-0.12,0.19-0.32,0.28-0.59,0.28
			c-0.3,0-0.5-0.11-0.61-0.33c-0.05-0.09-0.07-0.19-0.07-0.32v-1.63l-0.12,0.01c-0.82,0.05-1.32,0.09-1.5,0.1
			c-0.1,0.01-0.18,0.01-0.22,0.01c-0.44,0-0.65-0.22-0.65-0.67c0-0.28,0.1-0.47,0.3-0.58c0.09-0.05,0.23-0.08,0.4-0.09
			c0.05,0,0.34-0.02,0.85-0.04l0.77-0.04l0.18-0.01V147c0-0.16,0.04-0.29,0.12-0.39c0.12-0.16,0.31-0.24,0.57-0.24
			c0.3,0,0.51,0.11,0.62,0.33c0.05,0.09,0.07,0.19,0.07,0.31v1.61C64.86,148.55,65.66,148.49,66.34,148.43z M68.26,145.76
			c0.21,0,0.54,0.21,1,0.62c0.39,0.35,0.58,0.63,0.58,0.83c0,0.15-0.06,0.27-0.19,0.38c-0.1,0.08-0.21,0.12-0.34,0.12
			c-0.17,0-0.31-0.1-0.43-0.29c-0.22-0.36-0.48-0.7-0.79-1.01c-0.1-0.11-0.16-0.22-0.16-0.33
			C67.94,145.87,68.05,145.76,68.26,145.76z M69.24,144.87c0.22,0,0.54,0.18,0.96,0.53c0.39,0.33,0.58,0.6,0.58,0.83
			c0,0.16-0.06,0.28-0.18,0.38c-0.09,0.07-0.19,0.1-0.3,0.1c-0.16,0-0.3-0.09-0.42-0.28c-0.2-0.3-0.47-0.61-0.79-0.92
			c-0.12-0.11-0.18-0.23-0.18-0.33c0-0.07,0.03-0.14,0.09-0.2C69.06,144.9,69.14,144.87,69.24,144.87z"/>
		<path d="M79.19,146.76c0.35,0,0.64,0.11,0.86,0.33c0.19,0.19,0.29,0.44,0.29,0.74c0,0.21-0.05,0.54-0.17,0.99
			c-0.11,0.45-0.23,0.85-0.37,1.2c-0.7,1.79-1.85,3.18-3.46,4.16c-0.64,0.39-1.1,0.59-1.38,0.59c-0.18,0-0.32-0.07-0.41-0.22
			c-0.07-0.11-0.1-0.21-0.1-0.32c0-0.2,0.13-0.38,0.38-0.52c1.08-0.62,1.97-1.43,2.65-2.42c0.61-0.87,1.03-1.82,1.26-2.85
			c0.02-0.08,0.03-0.14,0.03-0.19c0-0.09-0.05-0.13-0.16-0.13c-0.08,0-0.18,0.01-0.3,0.02c-0.21,0.02-1.16,0.08-2.86,0.2
			c-0.63,0.04-1.32,0.1-2.07,0.16c-0.07,0.01-0.13,0.01-0.16,0.01c-0.46,0-0.69-0.24-0.69-0.71c0-0.36,0.17-0.57,0.51-0.64
			c0.16-0.03,1.81-0.14,4.96-0.33c0.31-0.02,0.56-0.04,0.73-0.05C78.98,146.77,79.13,146.76,79.19,146.76z"/>
		<path d="M88.03,151.75c-1.04,1.06-2.12,1.91-3.23,2.56c-0.46,0.27-0.78,0.4-0.94,0.4c-0.2,0-0.35-0.09-0.45-0.27
			c-0.06-0.1-0.09-0.19-0.09-0.27c0-0.16,0.08-0.31,0.23-0.44c0.04-0.03,0.17-0.12,0.39-0.27c0.89-0.57,1.83-1.33,2.8-2.28
			c0.98-0.97,1.7-1.92,2.17-2.86c0.08-0.16,0.12-0.27,0.12-0.32c0-0.07-0.04-0.1-0.11-0.1c-0.05,0-0.13,0.01-0.25,0.03
			c-0.22,0.03-1.08,0.1-2.58,0.22c-0.26,0.02-0.48,0.04-0.67,0.05c-0.07,0.01-0.13,0.01-0.17,0.01c-0.3,0-0.5-0.11-0.62-0.33
			c-0.05-0.1-0.07-0.21-0.07-0.33c0-0.31,0.15-0.51,0.44-0.6c0.09-0.03,0.28-0.05,0.59-0.07c1.04-0.04,2.36-0.15,3.96-0.33
			c0.07-0.01,0.13-0.01,0.18-0.01c0.32,0,0.58,0.09,0.77,0.28c0.18,0.17,0.27,0.38,0.27,0.64c0,0.2-0.1,0.49-0.29,0.9
			c-0.38,0.79-0.94,1.64-1.68,2.55c1.22,0.76,2.17,1.47,2.85,2.14c0.31,0.3,0.46,0.58,0.46,0.83c0,0.19-0.07,0.36-0.22,0.51
			c-0.15,0.16-0.32,0.23-0.52,0.23c-0.2,0-0.37-0.07-0.52-0.22c-0.02-0.02-0.08-0.09-0.19-0.21
			C89.89,153.39,89.02,152.57,88.03,151.75z"/>
		<path d="M99.62,146.52l2.1-0.08l0.09-0.01c0.68,0,1.02,0.29,1.02,0.88c0,0.18-0.04,0.42-0.13,0.74c-0.73,2.58-2.23,4.62-4.48,6.13
			c-0.89,0.59-1.49,0.89-1.82,0.89c-0.17,0-0.3-0.07-0.4-0.22c-0.07-0.1-0.1-0.2-0.1-0.29c0-0.15,0.07-0.28,0.21-0.4
			c0.05-0.04,0.18-0.13,0.4-0.26c1.08-0.67,2.03-1.45,2.83-2.34c-0.53-0.55-1.01-0.99-1.45-1.34c-0.2-0.16-0.3-0.32-0.3-0.47
			c0-0.1,0.03-0.19,0.09-0.27c0.1-0.14,0.24-0.21,0.41-0.21c0.14,0,0.31,0.05,0.51,0.14c0.59,0.26,1.12,0.59,1.59,0.98
			c0.46-0.75,0.79-1.47,1-2.18c0.06-0.2,0.09-0.33,0.09-0.38c0-0.08-0.06-0.12-0.18-0.12c-0.01,0-0.02,0-0.03,0l-2.05,0.11
			c-0.77,1.02-1.55,1.8-2.36,2.34c-0.26,0.17-0.47,0.26-0.64,0.26c-0.15,0-0.27-0.06-0.35-0.18c-0.06-0.08-0.08-0.17-0.08-0.27
			c0-0.13,0.05-0.26,0.16-0.39c0.04-0.04,0.15-0.15,0.34-0.33c0.64-0.58,1.22-1.29,1.74-2.13c0.14-0.23,0.26-0.45,0.37-0.66
			c0.16-0.31,0.39-0.47,0.7-0.47c0.22,0,0.41,0.08,0.55,0.23C99.53,146.29,99.59,146.4,99.62,146.52z"/>
		<path d="M107.43,146.82c0.15,0,0.41,0.07,0.78,0.2c0.69,0.24,1.26,0.53,1.71,0.86c0.24,0.17,0.36,0.39,0.36,0.65
			c0,0.14-0.05,0.29-0.14,0.43c-0.14,0.21-0.33,0.32-0.56,0.32c-0.2,0-0.43-0.09-0.67-0.28c-0.62-0.49-1.18-0.88-1.68-1.16
			c-0.25-0.14-0.38-0.31-0.38-0.51C106.84,146.99,107.03,146.82,107.43,146.82z M114.55,148.59c0.12,0,0.25,0.04,0.36,0.13
			c0.15,0.11,0.23,0.26,0.23,0.45c0,0.15-0.06,0.32-0.18,0.5c-0.85,1.27-1.97,2.37-3.36,3.3c-1.16,0.77-2.35,1.32-3.59,1.66
			c-0.13,0.03-0.24,0.05-0.34,0.05c-0.31,0-0.54-0.14-0.67-0.43c-0.06-0.13-0.09-0.25-0.09-0.37c0-0.27,0.13-0.47,0.4-0.6
			c0.06-0.03,0.3-0.1,0.74-0.23c1.59-0.47,3.07-1.3,4.44-2.51c0.52-0.47,1.02-1,1.48-1.59C114.14,148.7,114.34,148.59,114.55,148.59
			z"/>
	</g>
</g>
<g id="ガイド" display="none">
</g>
</svg>
