<?xml version="1.0" encoding="utf-8"?>
<!-- Generator: Adobe Illustrator 25.4.1, SVG Export Plug-In . SVG Version: 6.00 Build 0)  -->
<svg version="1.1" xmlns="http://www.w3.org/2000/svg" xmlns:xlink="http://www.w3.org/1999/xlink" x="0px" y="0px"
	 viewBox="0 0 164.41 252.28" enable-background="new 0 0 164.41 252.28" xml:space="preserve">
<g id="地">
	<rect fill="#DCDDDD" width="164.41" height="252.28"/>
</g>
<g id="枠">
</g>
<g id="国旗">
	<g>
		<g>
			<rect x="25.51" y="60.03" fill="#FFFFFF" width="113.39" height="75.59"/>
			<polygon fill="#611021" points="138.9,60.03 45.96,60.03 55.44,64.22 45.96,68.43 55.44,72.62 45.96,76.81 55.44,81.02 
				45.96,85.23 55.44,89.42 45.96,93.62 55.44,97.82 45.96,102.02 55.44,106.22 45.96,110.43 55.44,114.62 45.96,118.82 
				55.44,123.02 45.96,127.22 55.33,131.42 45.96,135.62 138.9,135.62 			"/>
		</g>
	</g>
</g>
<g id="国名">
	<g>
		<path d="M64.2,148.14c0.15-0.65,0.26-1.23,0.33-1.75c0.06-0.45,0.29-0.67,0.71-0.67c0.49,0,0.73,0.22,0.73,0.65
			c0,0.29-0.09,0.84-0.27,1.64c0.52-0.04,1.11-0.1,1.77-0.17c0.09-0.01,0.17-0.01,0.23-0.01c0.3,0,0.56,0.08,0.77,0.23
			c0.27,0.2,0.41,0.49,0.41,0.86c0,0.13-0.05,0.52-0.14,1.16c-0.28,1.85-0.65,3.24-1.11,4.16c-0.29,0.57-0.67,0.86-1.15,0.86
			c-0.25,0-0.52-0.1-0.8-0.29c-0.83-0.58-1.25-1.02-1.25-1.3c0-0.09,0.03-0.17,0.08-0.26c0.06-0.1,0.16-0.14,0.28-0.14
			c0.12,0,0.28,0.05,0.46,0.14c0.48,0.25,0.78,0.37,0.9,0.37c0.11,0,0.2-0.08,0.29-0.23c0.26-0.49,0.5-1.25,0.73-2.28
			c0.18-0.82,0.27-1.4,0.27-1.72c0-0.16-0.07-0.24-0.21-0.24c-0.24,0-0.87,0.05-1.89,0.15c-0.71,2.13-1.82,3.79-3.33,4.97
			c-0.33,0.26-0.58,0.39-0.75,0.39c-0.14,0-0.25-0.05-0.35-0.15c-0.12-0.13-0.18-0.25-0.18-0.38c0-0.14,0.06-0.27,0.19-0.41
			c0.03-0.03,0.15-0.15,0.38-0.35c0.92-0.84,1.67-1.91,2.25-3.2c0.09-0.21,0.19-0.47,0.3-0.77c-1.17,0.13-1.85,0.19-2.05,0.19
			c-0.45,0-0.68-0.22-0.68-0.67c0-0.41,0.28-0.62,0.85-0.64C62.46,148.26,63.21,148.21,64.2,148.14z"/>
		<path d="M76.94,146.52l2.1-0.08l0.09-0.01c0.68,0,1.02,0.29,1.02,0.88c0,0.18-0.04,0.42-0.13,0.74c-0.73,2.58-2.23,4.62-4.48,6.13
			c-0.89,0.59-1.49,0.89-1.82,0.89c-0.17,0-0.3-0.07-0.4-0.22c-0.07-0.1-0.1-0.2-0.1-0.29c0-0.15,0.07-0.28,0.21-0.4
			c0.05-0.04,0.18-0.13,0.4-0.26c1.08-0.67,2.03-1.45,2.83-2.34c-0.53-0.55-1.01-0.99-1.45-1.34c-0.2-0.16-0.3-0.32-0.3-0.47
			c0-0.1,0.03-0.19,0.09-0.27c0.1-0.14,0.24-0.21,0.41-0.21c0.14,0,0.31,0.05,0.51,0.14c0.59,0.26,1.12,0.59,1.59,0.98
			c0.46-0.75,0.79-1.47,1-2.18c0.06-0.2,0.09-0.33,0.09-0.38c0-0.08-0.06-0.12-0.18-0.12c-0.01,0-0.02,0-0.03,0l-2.05,0.11
			c-0.77,1.02-1.55,1.8-2.36,2.34c-0.26,0.17-0.47,0.26-0.64,0.26c-0.15,0-0.27-0.06-0.35-0.18c-0.06-0.08-0.08-0.17-0.08-0.27
			c0-0.13,0.05-0.26,0.16-0.39c0.04-0.04,0.15-0.15,0.34-0.33c0.64-0.58,1.22-1.29,1.74-2.13c0.14-0.23,0.26-0.45,0.37-0.66
			c0.16-0.31,0.39-0.47,0.7-0.47c0.22,0,0.41,0.08,0.55,0.23C76.85,146.29,76.91,146.4,76.94,146.52z"/>
		<path d="M91.31,149.33c0.23,0,0.42,0.07,0.55,0.22c0.11,0.12,0.17,0.28,0.17,0.48c0,0.37-0.17,0.59-0.53,0.66
			c-0.09,0.02-1.34,0.08-3.74,0.19c-1.1,0.05-2.27,0.11-3.5,0.17c-0.04,0-0.09,0-0.13,0c-0.21,0-0.38-0.06-0.52-0.18
			c-0.14-0.13-0.22-0.3-0.22-0.51c0-0.3,0.13-0.51,0.4-0.63c0.11-0.04,0.37-0.07,0.79-0.09c0.37-0.01,1.29-0.05,2.77-0.13
			c0.63-0.03,1.5-0.07,2.59-0.12c0.37-0.01,0.66-0.03,0.88-0.04C91.09,149.33,91.25,149.33,91.31,149.33z"/>
		<path d="M97.01,147.24c0.47,0,0.7,0.27,0.7,0.8c0,1.92-0.36,3.46-1.07,4.63c-0.3,0.5-0.66,0.91-1.08,1.24
			c-0.15,0.12-0.31,0.18-0.49,0.18c-0.12,0-0.22-0.04-0.32-0.12c-0.11-0.1-0.16-0.21-0.16-0.35c0-0.16,0.07-0.32,0.22-0.49
			c0.6-0.69,1-1.51,1.22-2.46c0.17-0.74,0.26-1.64,0.26-2.7c0-0.22,0.05-0.38,0.15-0.49C96.58,147.32,96.77,147.24,97.01,147.24z
			 M100.2,146.83v5.65c0,0.14,0.03,0.22,0.1,0.22c0.14,0,0.49-0.2,1.07-0.6c0.82-0.56,1.5-1.13,2.03-1.72
			c0.18-0.21,0.36-0.31,0.52-0.31c0.13,0,0.26,0.05,0.39,0.16c0.13,0.1,0.19,0.24,0.19,0.42c0,0.15-0.06,0.31-0.18,0.48
			c-0.43,0.59-1.08,1.23-1.94,1.92c-0.68,0.54-1.33,0.95-1.94,1.26c-0.23,0.11-0.44,0.17-0.61,0.17c-0.2,0-0.39-0.07-0.59-0.21
			c-0.28-0.2-0.42-0.5-0.42-0.92v-6.51c0-0.24,0.11-0.42,0.32-0.54c0.11-0.06,0.23-0.09,0.37-0.09c0.2,0,0.37,0.06,0.51,0.17
			C100.13,146.49,100.2,146.64,100.2,146.83z"/>
	</g>
</g>
<g id="ガイド" display="none">
</g>
</svg>
