<?xml version="1.0" encoding="utf-8"?>
<!-- Generator: Adobe Illustrator 25.4.1, SVG Export Plug-In . SVG Version: 6.00 Build 0)  -->
<svg version="1.1" xmlns="http://www.w3.org/2000/svg" xmlns:xlink="http://www.w3.org/1999/xlink" x="0px" y="0px"
	 viewBox="0 0 164.41 252.28" enable-background="new 0 0 164.41 252.28" xml:space="preserve">
<g id="地">
	<rect fill="#DCDDDD" width="164.41" height="252.28"/>
</g>
<g id="枠">
</g>
<g id="国旗">
	<g>
		<g>
			<rect x="25.89" y="60.21" fill="#F5D021" width="113.33" height="75.55"/>
			<rect x="25.95" y="60.21" fill="#108148" width="113.33" height="25.18"/>
			<rect x="25.89" y="60.21" fill="#108148" width="113.33" height="25.18"/>
			<rect x="25.89" y="110.58" fill="#C81528" width="113.33" height="25.18"/>
			
				<ellipse transform="matrix(0.156 -0.9878 0.9878 0.156 -27.1068 164.2487)" fill="#0F80AF" cx="82.56" cy="97.99" rx="25.69" ry="25.69"/>
			<polygon fill="#F5D021" points="84.41,92.35 80.74,92.35 79.95,94.77 94.38,94.77 89.14,98.58 87.95,94.93 85.25,94.93 
				89.66,108.5 93.2,111.07 89.91,100.96 101.77,92.35 87.12,92.35 83.93,82.54 82.58,86.7 			"/>
			<polygon fill="#F5D021" points="76.03,98.6 78.06,100.08 83.85,82.28 82.59,78.41 78.06,92.35 63.41,92.35 66.75,94.77 
				77.27,94.77 			"/>
			<polygon fill="#F5D021" points="84.46,104.92 87.59,102.65 86.82,100.26 82.44,103.45 70.71,94.93 66.96,94.93 75.26,100.96 
				70.73,114.9 74.03,112.5 77.3,102.44 80.56,104.81 75.5,108.49 74.24,112.35 82.59,106.28 94.44,114.9 93.28,111.33 			"/>
			<polygon fill="#F5D021" points="83.13,118.94 82.59,118.94 82.05,118.94 81.86,108.58 83.32,108.58 			"/>
			<polygon fill="#F5D021" points="102.37,104.84 102.18,105.34 101.99,105.85 92.23,102.38 92.75,101.01 			"/>
			<polygon fill="#F5D021" points="94.51,80.76 94.94,81.08 95.38,81.4 89.4,89.86 88.22,89 			"/>
			<polygon fill="#F5D021" points="62.8,104.84 62.99,105.34 63.18,105.85 72.94,102.38 72.43,101.01 			"/>
			<polygon fill="#F5D021" points="70.67,80.76 70.23,81.08 69.79,81.4 75.77,89.86 76.95,89 			"/>
		</g>
	</g>
</g>
<g id="国名">
	<g>
		<path d="M58.74,148.87c-1.09,0.09-1.75,0.14-2,0.14c-0.21,0-0.38-0.06-0.5-0.19c-0.11-0.11-0.16-0.26-0.16-0.44
			c0-0.3,0.12-0.5,0.35-0.6c0.1-0.05,0.33-0.08,0.68-0.09c1.44-0.07,2.99-0.21,4.65-0.42c0.06-0.01,0.12-0.01,0.16-0.01
			c0.3,0,0.5,0.12,0.61,0.35c0.04,0.09,0.06,0.19,0.06,0.31c0,0.37-0.19,0.58-0.56,0.65c-0.32,0.06-0.96,0.13-1.89,0.21v3.22
			l0.27-0.01c2.14-0.12,3.29-0.18,3.43-0.18c0.2,0,0.35,0.05,0.47,0.14c0.15,0.12,0.23,0.3,0.23,0.54c0,0.32-0.14,0.53-0.41,0.62
			c-0.1,0.03-0.38,0.05-0.85,0.08c-2.77,0.12-5.38,0.28-7.83,0.47c-0.07,0-0.12,0-0.15,0c-0.21,0-0.39-0.06-0.52-0.18
			c-0.12-0.12-0.18-0.28-0.18-0.49c0-0.33,0.16-0.55,0.47-0.64c0.07-0.02,0.22-0.04,0.44-0.05c0.16-0.01,0.41-0.02,0.76-0.05
			c0.56-0.04,1.3-0.09,2.2-0.15l0.27-0.02V148.87z"/>
		<path d="M70.27,149.51v-1.35c0-0.09,0.01-0.18,0.04-0.25c-1.17,0.34-1.9,0.5-2.19,0.5c-0.33,0-0.5-0.17-0.5-0.5
			c0-0.17,0.07-0.3,0.2-0.39c0.05-0.03,0.22-0.09,0.51-0.17c0.97-0.27,1.95-0.66,2.92-1.17c0.27-0.14,0.49-0.27,0.68-0.4
			c0.17-0.11,0.33-0.16,0.49-0.16c0.23,0,0.42,0.1,0.57,0.29c0.1,0.13,0.14,0.27,0.14,0.44c0,0.24-0.13,0.44-0.39,0.59
			c-0.36,0.21-0.85,0.43-1.46,0.65c0.24,0.12,0.37,0.31,0.37,0.56v1.26l0.23-0.02l1.4-0.09c1.02-0.06,1.54-0.09,1.57-0.09
			c0.43,0,0.64,0.21,0.64,0.63c0,0.28-0.08,0.47-0.24,0.56c-0.11,0.06-0.32,0.1-0.65,0.12c-0.84,0.04-1.82,0.09-2.96,0.17
			c-0.07,0.97-0.24,1.76-0.53,2.37c-0.37,0.79-0.94,1.44-1.71,1.96c-0.2,0.13-0.38,0.2-0.54,0.2c-0.18,0-0.32-0.08-0.43-0.24
			c-0.07-0.1-0.1-0.2-0.1-0.29c0-0.16,0.11-0.34,0.33-0.53c0.65-0.56,1.09-1.21,1.32-1.93c0.13-0.39,0.2-0.88,0.24-1.45
			c-1.33,0.11-2.4,0.2-3.19,0.28c-0.08,0.01-0.15,0.01-0.19,0.01c-0.19,0-0.34-0.05-0.47-0.14c-0.16-0.12-0.24-0.3-0.24-0.54
			c0-0.31,0.15-0.5,0.45-0.58c0.06-0.01,0.19-0.03,0.39-0.04C68.68,149.63,69.77,149.55,70.27,149.51z"/>
		<path d="M82.59,148.02l-0.01-0.12c-0.02-0.76-0.03-1.22-0.04-1.39c0-0.06-0.01-0.1-0.01-0.13c0-0.44,0.22-0.66,0.67-0.66
			c0.49,0,0.73,0.24,0.73,0.71v1.49c0.25-0.02,0.74-0.06,1.46-0.12c0.27-0.02,0.44-0.03,0.52-0.03c0.44,0,0.65,0.23,0.65,0.7
			c0,0.4-0.27,0.61-0.8,0.64c-0.26,0.01-0.65,0.03-1.18,0.07c-0.22,0.01-0.43,0.03-0.64,0.04c0.01,1.35,0.02,2.18,0.02,2.49
			c0.02,1.08,0.03,1.85,0.03,2.32c0,0.3-0.07,0.56-0.2,0.76c-0.17,0.25-0.4,0.38-0.69,0.38c-0.14,0-0.31-0.05-0.51-0.15
			c-1-0.5-1.53-0.76-1.59-0.8c-0.21-0.12-0.31-0.27-0.31-0.46c0-0.07,0.02-0.14,0.05-0.2c0.08-0.16,0.21-0.23,0.4-0.23
			c0.12,0,0.51,0.1,1.16,0.29c0.08,0.03,0.15,0.04,0.19,0.04c0.08,0,0.12-0.07,0.12-0.21v-3.04c-1.14,1.24-2.4,2.26-3.78,3.06
			c-0.29,0.17-0.51,0.25-0.65,0.25c-0.15,0-0.27-0.07-0.36-0.21c-0.07-0.11-0.11-0.21-0.11-0.31c0-0.15,0.07-0.28,0.2-0.39
			c0.04-0.04,0.19-0.14,0.43-0.3c0.9-0.59,1.78-1.35,2.65-2.28c0.25-0.27,0.51-0.56,0.75-0.88l-0.22,0.02l-1.84,0.13
			c-0.72,0.05-1.11,0.08-1.15,0.08c-0.44,0-0.66-0.21-0.66-0.64c0-0.35,0.16-0.57,0.48-0.65c0.07-0.02,0.23-0.03,0.48-0.04
			C79.94,148.2,81.19,148.12,82.59,148.02z"/>
		<path d="M91.5,150.13v2.09c0,0.4,0.15,0.64,0.45,0.72c0.29,0.08,0.79,0.12,1.5,0.12c0.97,0,1.95-0.07,2.95-0.19
			c0.07-0.01,0.12-0.01,0.16-0.01c0.23,0,0.41,0.1,0.53,0.29c0.09,0.14,0.13,0.31,0.13,0.49c0,0.35-0.21,0.56-0.63,0.63
			c-0.53,0.08-1.61,0.12-3.23,0.12c-0.84,0-1.43-0.03-1.77-0.1c-0.61-0.12-1.03-0.39-1.26-0.79c-0.16-0.27-0.24-0.63-0.24-1.07
			v-5.82c0-0.4,0.23-0.6,0.7-0.6s0.7,0.2,0.7,0.6v2.28c1.74-0.27,3.12-0.51,4.15-0.73c0.13-0.03,0.24-0.04,0.33-0.04
			c0.3,0,0.51,0.12,0.62,0.35c0.05,0.11,0.08,0.24,0.08,0.37c0,0.35-0.2,0.57-0.6,0.64c-0.54,0.11-1.95,0.31-4.24,0.62L91.5,150.13z
			 M97.49,145.32c0.21,0,0.41,0.05,0.61,0.16c0.21,0.11,0.37,0.27,0.49,0.48c0.11,0.2,0.17,0.41,0.17,0.62
			c0,0.33-0.11,0.61-0.34,0.86c-0.25,0.28-0.56,0.42-0.94,0.42c-0.17,0-0.34-0.03-0.5-0.1c-0.21-0.1-0.39-0.24-0.52-0.43
			c-0.16-0.22-0.24-0.47-0.24-0.74c0-0.45,0.19-0.81,0.58-1.06C97,145.39,97.24,145.32,97.49,145.32z M97.48,145.99
			c-0.11,0-0.21,0.03-0.32,0.09c-0.19,0.12-0.28,0.29-0.28,0.51c0,0.15,0.05,0.28,0.15,0.39c0.12,0.14,0.27,0.2,0.45,0.2
			c0.1,0,0.19-0.02,0.27-0.07c0.22-0.11,0.33-0.29,0.33-0.53c0-0.19-0.07-0.34-0.22-0.46C97.76,146.04,97.63,145.99,97.48,145.99z"
			/>
		<path d="M108.34,146.52c0.24,0,0.46,0.06,0.66,0.18c0.27,0.17,0.4,0.41,0.4,0.72c0,0.2-0.08,0.44-0.25,0.74
			c-0.47,0.82-1.06,1.53-1.76,2.15c-0.39,0.34-0.7,0.51-0.91,0.51c-0.15,0-0.28-0.07-0.38-0.2c-0.07-0.1-0.11-0.19-0.11-0.28
			c0-0.15,0.09-0.31,0.28-0.49c0.56-0.54,0.99-1.08,1.28-1.63c0.08-0.15,0.12-0.25,0.12-0.3c0-0.06-0.05-0.09-0.15-0.09
			c-0.09,0-0.21,0-0.35,0.02c-0.08,0.01-0.33,0.02-0.75,0.05c-0.31,0.02-1.66,0.13-4.02,0.33c-0.8,0.07-1.23,0.1-1.29,0.1
			c-0.47,0-0.7-0.22-0.7-0.65c0-0.37,0.19-0.59,0.56-0.66c0.04-0.01,1.36-0.1,3.94-0.28C107.14,146.6,108.29,146.52,108.34,146.52z
			 M104.77,148.82c0.19,0,0.36,0.06,0.51,0.18c0.09,0.07,0.15,0.15,0.18,0.24c0.04,0.11,0.06,0.3,0.06,0.57
			c0,0.99-0.07,1.76-0.22,2.33c-0.32,1.22-1.05,2.18-2.18,2.86c-0.18,0.11-0.34,0.16-0.48,0.16c-0.17,0-0.29-0.06-0.38-0.17
			c-0.08-0.1-0.12-0.21-0.12-0.33c0-0.14,0.05-0.27,0.16-0.4c0.04-0.06,0.16-0.17,0.36-0.33c0.7-0.57,1.13-1.33,1.31-2.31
			c0.08-0.48,0.13-1.09,0.13-1.82l-0.01-0.3c0-0.28,0.1-0.47,0.31-0.59C104.51,148.85,104.64,148.82,104.77,148.82z"/>
	</g>
</g>
<g id="ガイド" display="none">
</g>
</svg>
