<?xml version="1.0" encoding="utf-8"?>
<!-- Generator: Adobe Illustrator 25.4.1, SVG Export Plug-In . SVG Version: 6.00 Build 0)  -->
<svg version="1.1" xmlns="http://www.w3.org/2000/svg" xmlns:xlink="http://www.w3.org/1999/xlink" x="0px" y="0px"
	 viewBox="0 0 164.41 252.28" enable-background="new 0 0 164.41 252.28" xml:space="preserve">
<g id="地">
	<rect fill="#DCDDDD" width="164.41" height="252.28"/>
</g>
<g id="枠">
</g>
<g id="国旗">
	<g>
		<g>
			<rect x="25.51" y="60.03" fill="#FFFFFF" width="113.39" height="75.59"/>
			<rect x="110.14" y="60.03" fill="#C91623" width="28.76" height="75.59"/>
			<rect x="25.51" y="60.03" fill="#C91623" width="28.76" height="75.59"/>
			<path fill="#C91623" d="M81.06,126.62c0,0,0.29-11.37,0.29-11.83c0-0.46-0.46-1.29-2.5-1.29c-2.04,0-14.49,1.71-14.49,1.71
				s3.46-4.75,3.5-5.62c0.04-0.87-9.87-11.16-9.87-11.16s3.42-1.58,3.54-2.04c0.12-0.46-2.46-9.25-2.46-9.25s6.08,1.29,6.75,1.29
				c0.67,0,1.86-3.47,1.86-3.47s4.25,5.17,5.46,6.48c1.14,1.23,1.4,0.16,1.28-0.54c-0.13-0.7-2.71-12.8-2.71-12.8
				s2.2,1.47,3.58,2.46c1.37,0.99,1.85,0.64,2.4-0.16c0.54-0.8,4.53-9.88,4.53-9.88s3.99,9.08,4.53,9.88
				c0.54,0.8,1.02,1.15,2.4,0.16c1.37-0.99,3.58-2.46,3.58-2.46s-2.59,12.1-2.71,12.8c-0.13,0.7,0.14,1.77,1.28,0.54
				c1.21-1.31,5.46-6.48,5.46-6.48s1.19,3.47,1.86,3.47s6.75-1.29,6.75-1.29s-2.58,8.79-2.46,9.25s3.54,2.04,3.54,2.04
				s-9.91,10.29-9.87,11.16c0.04,0.87,3.5,5.62,3.5,5.62s-12.45-1.71-14.49-1.71c-2.04,0-2.5,0.83-2.5,1.29
				c0,0.46,0.29,11.83,0.29,11.83H81.06z"/>
		</g>
	</g>
</g>
<g id="国名">
	<g>
		<path d="M69.87,148.14c0.15-0.65,0.26-1.23,0.33-1.75c0.05-0.45,0.29-0.67,0.71-0.67c0.49,0,0.73,0.22,0.73,0.65
			c0,0.29-0.09,0.84-0.27,1.64c0.52-0.04,1.11-0.1,1.77-0.17c0.09-0.01,0.17-0.01,0.23-0.01c0.3,0,0.56,0.08,0.77,0.23
			c0.27,0.2,0.41,0.49,0.41,0.86c0,0.13-0.05,0.52-0.14,1.16c-0.28,1.85-0.65,3.24-1.11,4.16c-0.29,0.57-0.67,0.86-1.15,0.86
			c-0.25,0-0.52-0.1-0.8-0.29c-0.83-0.58-1.25-1.02-1.25-1.3c0-0.09,0.03-0.17,0.08-0.26c0.06-0.1,0.16-0.14,0.28-0.14
			c0.13,0,0.28,0.05,0.47,0.14c0.48,0.25,0.78,0.37,0.9,0.37c0.11,0,0.2-0.08,0.29-0.23c0.26-0.49,0.5-1.25,0.73-2.28
			c0.18-0.82,0.27-1.4,0.27-1.72c0-0.16-0.07-0.24-0.21-0.24c-0.24,0-0.87,0.05-1.89,0.15c-0.71,2.13-1.82,3.79-3.33,4.97
			c-0.33,0.26-0.58,0.39-0.75,0.39c-0.14,0-0.25-0.05-0.35-0.15c-0.12-0.13-0.18-0.25-0.18-0.38c0-0.14,0.06-0.27,0.19-0.41
			c0.03-0.03,0.16-0.15,0.38-0.35c0.92-0.84,1.67-1.91,2.25-3.2c0.09-0.21,0.19-0.47,0.3-0.77c-1.17,0.13-1.85,0.19-2.05,0.19
			c-0.45,0-0.68-0.22-0.68-0.67c0-0.41,0.28-0.62,0.85-0.64C68.13,148.26,68.88,148.21,69.87,148.14z"/>
		<path d="M81.6,148.62v-2.13c0-0.2,0.07-0.36,0.21-0.48c0.13-0.11,0.3-0.17,0.51-0.17c0.28,0,0.49,0.1,0.63,0.31
			c0.06,0.1,0.09,0.21,0.09,0.34v2.04l0.23-0.02c1.41-0.1,2.32-0.17,2.75-0.21c0.06,0,0.1-0.01,0.13-0.01c0.2,0,0.36,0.06,0.49,0.18
			c0.12,0.12,0.19,0.27,0.19,0.46c0,0.28-0.09,0.48-0.27,0.59c-0.11,0.07-0.32,0.11-0.62,0.12c-0.96,0.04-1.92,0.1-2.9,0.17v0.16
			c0,1.91-0.53,3.34-1.58,4.27c-0.5,0.44-0.89,0.67-1.17,0.67c-0.17,0-0.31-0.07-0.42-0.21c-0.07-0.09-0.11-0.19-0.11-0.3
			c0-0.17,0.09-0.34,0.28-0.51c0.72-0.65,1.18-1.41,1.39-2.26c0.11-0.47,0.17-1,0.17-1.57v-0.13c-1.23,0.09-2.26,0.18-3.08,0.25
			c-0.08,0.01-0.14,0.01-0.18,0.01c-0.22,0-0.39-0.06-0.52-0.19c-0.11-0.11-0.17-0.27-0.17-0.46c0-0.35,0.16-0.57,0.48-0.66
			c0.07-0.02,0.84-0.08,2.31-0.19l0.89-0.07L81.6,148.62z"/>
		<path d="M93.44,146.7l2.1-0.08c0.05,0,0.08,0,0.09,0c0.68,0,1.02,0.29,1.02,0.88c0,0.18-0.04,0.42-0.13,0.74
			c-0.72,2.52-2.21,4.55-4.48,6.07c-0.89,0.59-1.49,0.89-1.82,0.89c-0.17,0-0.3-0.08-0.4-0.23c-0.07-0.1-0.1-0.2-0.1-0.29
			c0-0.13,0.06-0.26,0.18-0.38c0.05-0.04,0.19-0.14,0.42-0.28c1.04-0.64,1.97-1.41,2.8-2.32c-0.48-0.51-0.96-0.94-1.42-1.31
			c-0.2-0.15-0.3-0.31-0.3-0.47c0-0.09,0.03-0.18,0.09-0.27c0.1-0.14,0.24-0.21,0.41-0.21c0.14,0,0.31,0.05,0.51,0.14
			c0.6,0.28,1.13,0.6,1.58,0.98c0.48-0.76,0.83-1.5,1.04-2.23c0.05-0.17,0.07-0.27,0.07-0.32c0-0.09-0.07-0.13-0.21-0.12l-2.05,0.1
			c-0.76,1.02-1.55,1.8-2.36,2.35c-0.26,0.17-0.47,0.26-0.64,0.26c-0.16,0-0.27-0.06-0.35-0.18c-0.06-0.08-0.08-0.17-0.08-0.27
			c0-0.13,0.05-0.26,0.16-0.39c0.04-0.04,0.15-0.15,0.34-0.33c0.64-0.58,1.22-1.29,1.74-2.13c0.14-0.23,0.26-0.45,0.37-0.66
			c0.16-0.31,0.39-0.47,0.7-0.47c0.22,0,0.41,0.08,0.55,0.23C93.35,146.46,93.41,146.57,93.44,146.7z M96.61,145.74
			c0.21,0,0.54,0.21,1,0.62c0.39,0.35,0.58,0.63,0.58,0.84c0,0.14-0.06,0.27-0.19,0.37c-0.1,0.08-0.21,0.12-0.34,0.12
			c-0.17,0-0.31-0.1-0.43-0.29c-0.22-0.36-0.48-0.7-0.79-1.01c-0.1-0.11-0.15-0.22-0.15-0.33C96.29,145.84,96.4,145.74,96.61,145.74
			z M97.6,144.85c0.22,0,0.53,0.17,0.95,0.53c0.39,0.33,0.58,0.6,0.58,0.83c0,0.16-0.06,0.28-0.18,0.38c-0.09,0.07-0.19,0.1-0.3,0.1
			c-0.16,0-0.3-0.09-0.42-0.28c-0.2-0.31-0.46-0.62-0.79-0.92c-0.12-0.11-0.18-0.23-0.18-0.33c0-0.07,0.03-0.14,0.09-0.21
			S97.49,144.85,97.6,144.85z"/>
	</g>
</g>
<g id="ガイド" display="none">
</g>
</svg>
