<?xml version="1.0" encoding="utf-8"?>
<!-- Generator: Adobe Illustrator 25.4.1, SVG Export Plug-In . SVG Version: 6.00 Build 0)  -->
<svg version="1.1" xmlns="http://www.w3.org/2000/svg" xmlns:xlink="http://www.w3.org/1999/xlink" x="0px" y="0px"
	 viewBox="0 0 164.41 252.28" enable-background="new 0 0 164.41 252.28" xml:space="preserve">
<g id="地">
	<rect fill="#DCDDDD" width="164.41" height="252.28"/>
</g>
<g id="枠">
</g>
<g id="国旗">
	<g>
		<g>
			<rect x="25.51" y="60" fill="#F5CF21" width="113.39" height="75.59"/>
			<rect x="25.51" y="110.39" fill="#004876" width="113.39" height="25.2"/>
			<rect x="25.51" y="60" fill="#147F49" width="113.39" height="25.2"/>
		</g>
	</g>
</g>
<g id="国名">
	<g>
		<path d="M69.75,148.14c0.15-0.65,0.26-1.23,0.33-1.75c0.06-0.45,0.29-0.67,0.71-0.67c0.49,0,0.73,0.22,0.73,0.65
			c0,0.29-0.09,0.84-0.27,1.64c0.52-0.04,1.11-0.1,1.77-0.17c0.09-0.01,0.17-0.01,0.23-0.01c0.3,0,0.56,0.08,0.77,0.23
			c0.27,0.2,0.41,0.49,0.41,0.86c0,0.13-0.05,0.52-0.14,1.16c-0.28,1.85-0.65,3.24-1.11,4.16c-0.29,0.57-0.67,0.86-1.15,0.86
			c-0.25,0-0.52-0.1-0.8-0.29c-0.83-0.58-1.25-1.02-1.25-1.3c0-0.09,0.03-0.17,0.08-0.26c0.06-0.1,0.16-0.14,0.28-0.14
			c0.13,0,0.28,0.05,0.47,0.14c0.48,0.25,0.78,0.37,0.9,0.37c0.11,0,0.2-0.08,0.29-0.23c0.26-0.49,0.5-1.25,0.73-2.28
			c0.18-0.82,0.27-1.4,0.27-1.72c0-0.16-0.07-0.24-0.21-0.24c-0.24,0-0.87,0.05-1.89,0.15c-0.71,2.13-1.82,3.79-3.33,4.97
			c-0.33,0.26-0.58,0.39-0.75,0.39c-0.14,0-0.25-0.05-0.35-0.15c-0.12-0.13-0.18-0.25-0.18-0.38c0-0.14,0.06-0.27,0.19-0.41
			c0.03-0.03,0.15-0.15,0.38-0.35c0.92-0.84,1.67-1.91,2.25-3.2c0.09-0.21,0.19-0.47,0.3-0.77c-1.17,0.13-1.85,0.19-2.05,0.19
			c-0.45,0-0.68-0.22-0.68-0.67c0-0.41,0.28-0.62,0.85-0.64C68.01,148.26,68.76,148.21,69.75,148.14z M73.88,146.05
			c0.21,0,0.54,0.21,1,0.62c0.39,0.35,0.58,0.63,0.58,0.83c0,0.14-0.06,0.27-0.19,0.37c-0.1,0.08-0.21,0.12-0.34,0.12
			c-0.17,0-0.31-0.1-0.43-0.29c-0.21-0.35-0.48-0.69-0.79-1.01c-0.1-0.11-0.15-0.22-0.15-0.33
			C73.56,146.15,73.67,146.05,73.88,146.05z M74.87,145.15c0.22,0,0.54,0.18,0.96,0.53c0.39,0.33,0.58,0.6,0.58,0.83
			c0,0.16-0.06,0.29-0.18,0.38c-0.09,0.07-0.19,0.1-0.3,0.1c-0.16,0-0.3-0.09-0.42-0.28c-0.2-0.31-0.47-0.62-0.79-0.92
			c-0.12-0.11-0.18-0.23-0.18-0.33c0-0.07,0.03-0.14,0.09-0.21C74.68,145.18,74.77,145.15,74.87,145.15z"/>
		<path d="M79.28,150.43c0.11,0,0.21,0.03,0.3,0.08c0.2,0.11,0.29,0.29,0.29,0.53c0,0.21-0.08,0.52-0.25,0.95
			c-0.25,0.66-0.54,1.17-0.86,1.52c-0.18,0.21-0.39,0.31-0.61,0.31c-0.16,0-0.3-0.05-0.44-0.15c-0.19-0.14-0.28-0.32-0.28-0.54
			c0-0.18,0.1-0.39,0.3-0.63c0.4-0.46,0.73-1.01,1.01-1.64C78.86,150.58,79.04,150.43,79.28,150.43z M81.49,148.07v-1.77
			c0-0.19,0.06-0.34,0.17-0.45c0.13-0.13,0.3-0.19,0.52-0.19c0.29,0,0.5,0.11,0.61,0.33c0.05,0.09,0.08,0.2,0.08,0.32v1.68
			l0.21-0.02l0.69-0.05l1.24-0.1c0.38-0.03,0.6-0.05,0.65-0.05c0.18,0,0.32,0.06,0.44,0.19c0.11,0.12,0.17,0.28,0.17,0.48
			c0,0.4-0.18,0.62-0.55,0.65c-0.25,0.03-1.2,0.09-2.85,0.2c0.01,1.9,0.03,3.04,0.03,3.42c0.01,0.6,0.02,1.01,0.02,1.24
			c0,0.37-0.07,0.66-0.22,0.87c-0.19,0.29-0.44,0.43-0.74,0.43c-0.15,0-0.31-0.05-0.48-0.15c-0.49-0.28-0.95-0.56-1.37-0.84
			c-0.2-0.13-0.3-0.28-0.3-0.45c0-0.08,0.02-0.16,0.07-0.24c0.08-0.15,0.21-0.23,0.4-0.23c0.08,0,0.19,0.02,0.3,0.07
			c0.46,0.18,0.73,0.27,0.81,0.27c0.1,0,0.15-0.14,0.15-0.41c0-0.01,0-0.08-0.01-0.2c-0.01-0.18-0.01-0.79-0.02-1.81
			c0-0.23-0.01-0.85-0.02-1.88l-0.22,0.02L80,149.48c-0.94,0.06-1.42,0.09-1.44,0.09c-0.2,0-0.35-0.06-0.47-0.18
			c-0.11-0.11-0.16-0.27-0.16-0.46c0-0.32,0.12-0.54,0.37-0.63c0.08-0.03,0.23-0.05,0.44-0.06c0.37-0.01,1.21-0.07,2.52-0.15
			L81.49,148.07z M84.57,150.2c0.34,0,0.87,0.47,1.58,1.42c0.4,0.53,0.59,0.93,0.59,1.2c0,0.24-0.11,0.44-0.32,0.59
			c-0.16,0.12-0.33,0.17-0.49,0.17c-0.28,0-0.5-0.19-0.66-0.56c-0.28-0.68-0.64-1.31-1.05-1.91c-0.11-0.16-0.17-0.31-0.17-0.43
			c0-0.11,0.04-0.21,0.13-0.3C84.29,150.26,84.42,150.2,84.57,150.2z M85.06,145.5c0.21,0,0.54,0.21,1,0.62
			c0.39,0.35,0.58,0.63,0.58,0.84c0,0.14-0.06,0.27-0.19,0.37c-0.1,0.08-0.21,0.12-0.33,0.12c-0.17,0-0.31-0.1-0.43-0.29
			c-0.23-0.37-0.49-0.7-0.79-1.01c-0.1-0.11-0.16-0.22-0.16-0.33C84.75,145.61,84.85,145.5,85.06,145.5z M86.27,144.84
			c0.22,0,0.54,0.18,0.96,0.53c0.39,0.33,0.58,0.6,0.58,0.83c0,0.16-0.06,0.28-0.18,0.38c-0.09,0.07-0.19,0.1-0.3,0.1
			c-0.16,0-0.3-0.09-0.42-0.28c-0.2-0.3-0.47-0.61-0.79-0.92c-0.12-0.12-0.18-0.23-0.18-0.33c0-0.07,0.03-0.14,0.09-0.2
			C86.09,144.87,86.17,144.84,86.27,144.84z"/>
		<path d="M90.42,146.82c0.15,0,0.41,0.07,0.78,0.2c0.69,0.24,1.26,0.53,1.71,0.86c0.24,0.17,0.35,0.39,0.35,0.65
			c0,0.14-0.05,0.29-0.14,0.43c-0.14,0.21-0.33,0.32-0.56,0.32c-0.2,0-0.43-0.09-0.67-0.28c-0.62-0.49-1.18-0.88-1.68-1.16
			c-0.25-0.14-0.38-0.31-0.38-0.51C89.83,146.99,90.03,146.82,90.42,146.82z M97.54,148.59c0.13,0,0.25,0.04,0.36,0.13
			c0.15,0.11,0.23,0.26,0.23,0.45c0,0.15-0.06,0.32-0.18,0.5c-0.85,1.27-1.97,2.37-3.36,3.3c-1.16,0.77-2.35,1.32-3.59,1.66
			c-0.13,0.03-0.24,0.05-0.34,0.05c-0.31,0-0.54-0.14-0.67-0.43c-0.06-0.13-0.09-0.25-0.09-0.37c0-0.27,0.13-0.47,0.4-0.6
			c0.06-0.03,0.3-0.1,0.74-0.23c1.59-0.47,3.06-1.3,4.43-2.51c0.52-0.47,1.02-1,1.48-1.59C97.14,148.7,97.33,148.59,97.54,148.59z"
			/>
	</g>
</g>
<g id="ガイド" display="none">
</g>
</svg>
