<?xml version="1.0" encoding="utf-8"?>
<!-- Generator: Adobe Illustrator 25.4.1, SVG Export Plug-In . SVG Version: 6.00 Build 0)  -->
<svg version="1.1" xmlns="http://www.w3.org/2000/svg" xmlns:xlink="http://www.w3.org/1999/xlink" x="0px" y="0px"
	 viewBox="0 0 164.41 252.28" enable-background="new 0 0 164.41 252.28" xml:space="preserve">
<g id="地">
	<rect fill="#DCDDDD" width="164.41" height="252.28"/>
</g>
<g id="枠">
</g>
<g id="国旗">
	<g>
		<g>
			<rect x="25.51" y="60.02" fill="#C8152A" width="113.39" height="75.59"/>
			<rect x="25.51" y="60.02" fill="#118749" width="37.8" height="75.59"/>
			<rect x="101.1" y="60.02" fill="#F5CF21" width="37.8" height="75.59"/>
			<polygon fill="#F5CF21" points="82.2,89.98 83.96,95.4 89.66,95.4 85.05,98.74 86.81,104.16 82.2,100.81 77.6,104.16 
				79.36,98.74 74.75,95.4 80.44,95.4 			"/>
		</g>
	</g>
</g>
<g id="国名">
	<g>
		<path d="M58.53,148.14c0.15-0.65,0.26-1.23,0.33-1.75c0.06-0.45,0.29-0.67,0.71-0.67c0.49,0,0.73,0.22,0.73,0.65
			c0,0.29-0.09,0.84-0.27,1.64c0.52-0.04,1.11-0.1,1.77-0.17c0.09-0.01,0.17-0.01,0.23-0.01c0.3,0,0.56,0.08,0.77,0.23
			c0.27,0.2,0.41,0.49,0.41,0.86c0,0.13-0.05,0.52-0.14,1.16c-0.28,1.85-0.65,3.24-1.11,4.16c-0.29,0.57-0.67,0.86-1.15,0.86
			c-0.25,0-0.52-0.1-0.8-0.29c-0.83-0.58-1.25-1.02-1.25-1.3c0-0.09,0.03-0.17,0.08-0.26c0.06-0.1,0.16-0.14,0.28-0.14
			c0.13,0,0.28,0.05,0.47,0.14c0.48,0.25,0.78,0.37,0.9,0.37c0.11,0,0.2-0.08,0.29-0.23c0.26-0.49,0.5-1.25,0.73-2.28
			c0.18-0.82,0.27-1.4,0.27-1.72c0-0.16-0.07-0.24-0.21-0.24c-0.24,0-0.87,0.05-1.89,0.15c-0.71,2.13-1.82,3.79-3.33,4.97
			c-0.33,0.26-0.58,0.39-0.75,0.39c-0.14,0-0.25-0.05-0.35-0.15c-0.12-0.13-0.18-0.25-0.18-0.38c0-0.14,0.06-0.27,0.19-0.41
			c0.03-0.03,0.15-0.15,0.38-0.35c0.92-0.84,1.67-1.91,2.25-3.2c0.09-0.21,0.19-0.47,0.3-0.77c-1.17,0.13-1.85,0.19-2.05,0.19
			c-0.45,0-0.68-0.22-0.68-0.67c0-0.41,0.28-0.62,0.85-0.64C56.79,148.26,57.54,148.21,58.53,148.14z"/>
		<path d="M70.89,149.45c0.48-0.84,0.92-1.8,1.3-2.87c0.14-0.41,0.38-0.62,0.71-0.62c0.13,0,0.25,0.02,0.36,0.07
			c0.29,0.12,0.43,0.33,0.43,0.63c0,0.12-0.04,0.3-0.13,0.53c-0.4,1.03-0.89,2.04-1.48,3.03c0.47,0.34,0.87,0.66,1.19,0.97
			c0.2,0.19,0.3,0.41,0.3,0.65c0,0.24-0.09,0.43-0.28,0.58c-0.13,0.1-0.27,0.16-0.44,0.16c-0.21,0-0.42-0.11-0.63-0.32
			c-0.29-0.3-0.61-0.59-0.96-0.88c-0.98,1.23-2.07,2.2-3.26,2.9c-0.46,0.27-0.8,0.41-1,0.41c-0.17,0-0.31-0.07-0.41-0.21
			c-0.08-0.11-0.12-0.21-0.12-0.32c0-0.16,0.07-0.3,0.22-0.44c0.04-0.03,0.17-0.12,0.4-0.27c1.09-0.72,2.12-1.7,3.08-2.95
			c-0.5-0.37-0.97-0.69-1.41-0.94c-0.24-0.14-0.37-0.31-0.37-0.5c0-0.08,0.02-0.16,0.06-0.23c0.1-0.19,0.26-0.29,0.49-0.29
			C69.24,148.54,69.89,148.84,70.89,149.45z"/>
		<path d="M80.01,147.24c0.47,0,0.7,0.27,0.7,0.8c0,1.92-0.36,3.46-1.07,4.63c-0.3,0.5-0.66,0.91-1.09,1.24
			c-0.15,0.12-0.31,0.18-0.49,0.18c-0.12,0-0.22-0.04-0.32-0.12c-0.11-0.1-0.16-0.21-0.16-0.35c0-0.16,0.07-0.32,0.22-0.49
			c0.6-0.69,1.01-1.51,1.22-2.46c0.17-0.74,0.26-1.64,0.26-2.7c0-0.22,0.05-0.38,0.15-0.49C79.58,147.32,79.77,147.24,80.01,147.24z
			 M83.19,146.83v5.65c0,0.14,0.03,0.22,0.1,0.22c0.14,0,0.49-0.2,1.07-0.6c0.82-0.56,1.5-1.13,2.03-1.72
			c0.18-0.21,0.36-0.31,0.52-0.31c0.13,0,0.26,0.05,0.39,0.16c0.13,0.1,0.19,0.24,0.19,0.42c0,0.15-0.06,0.31-0.18,0.48
			c-0.43,0.59-1.08,1.23-1.94,1.92c-0.68,0.54-1.33,0.95-1.94,1.26c-0.23,0.11-0.44,0.17-0.61,0.17c-0.2,0-0.39-0.07-0.59-0.21
			c-0.28-0.2-0.42-0.5-0.42-0.92v-6.51c0-0.24,0.1-0.42,0.32-0.54c0.11-0.06,0.23-0.09,0.37-0.09c0.2,0,0.37,0.06,0.51,0.17
			C83.12,146.49,83.19,146.64,83.19,146.83z"/>
		<path d="M96.98,149.33c0.23,0,0.42,0.07,0.55,0.22c0.11,0.12,0.17,0.28,0.17,0.48c0,0.37-0.18,0.59-0.53,0.66
			c-0.09,0.02-1.34,0.08-3.74,0.19c-1.1,0.05-2.27,0.11-3.5,0.17c-0.04,0-0.09,0-0.13,0c-0.21,0-0.38-0.06-0.52-0.18
			c-0.14-0.13-0.22-0.3-0.22-0.51c0-0.3,0.13-0.51,0.4-0.63c0.11-0.04,0.37-0.07,0.79-0.09c0.37-0.01,1.29-0.05,2.77-0.13
			c0.63-0.03,1.5-0.07,2.59-0.12c0.37-0.01,0.66-0.03,0.87-0.04C96.76,149.33,96.92,149.33,96.98,149.33z"/>
		<path d="M101.76,146.82c0.15,0,0.41,0.07,0.78,0.2c0.69,0.24,1.26,0.53,1.71,0.86c0.24,0.17,0.35,0.39,0.35,0.65
			c0,0.14-0.05,0.29-0.14,0.43c-0.14,0.21-0.33,0.32-0.56,0.32c-0.2,0-0.43-0.09-0.67-0.28c-0.62-0.49-1.18-0.88-1.68-1.16
			c-0.25-0.14-0.38-0.31-0.38-0.51C101.17,146.99,101.36,146.82,101.76,146.82z M108.88,148.59c0.12,0,0.25,0.04,0.36,0.13
			c0.15,0.11,0.23,0.26,0.23,0.45c0,0.15-0.06,0.32-0.18,0.5c-0.85,1.27-1.97,2.37-3.36,3.3c-1.16,0.77-2.35,1.32-3.59,1.66
			c-0.13,0.03-0.24,0.05-0.34,0.05c-0.31,0-0.54-0.14-0.67-0.43c-0.06-0.13-0.09-0.25-0.09-0.37c0-0.27,0.13-0.47,0.4-0.6
			c0.06-0.03,0.3-0.1,0.74-0.23c1.59-0.47,3.06-1.3,4.43-2.51c0.52-0.47,1.02-1,1.48-1.59C108.47,148.7,108.67,148.59,108.88,148.59
			z"/>
	</g>
</g>
<g id="ガイド" display="none">
</g>
</svg>
