<?xml version="1.0" encoding="utf-8"?>
<!-- Generator: Adobe Illustrator 25.4.1, SVG Export Plug-In . SVG Version: 6.00 Build 0)  -->
<svg version="1.1" xmlns="http://www.w3.org/2000/svg" xmlns:xlink="http://www.w3.org/1999/xlink" x="0px" y="0px"
	 viewBox="0 0 164.41 252.28" enable-background="new 0 0 164.41 252.28" xml:space="preserve">
<g id="地">
	<rect fill="#DCDDDD" width="164.41" height="252.28"/>
</g>
<g id="枠">
</g>
<g id="国旗">
	<g>
		<g>
			<rect x="25.51" y="60.22" fill="#174C9F" width="113.39" height="75.59"/>
			<rect x="25.51" y="79.13" fill="#CA151E" width="113.39" height="37.76"/>
			<path fill="#FFFFFF" d="M55.14,115.23v-2.47h1.76v-2.53h1.57v-1.85h1.34v-1.14h1.12v-1.03h0.24l1.16-1.5h0.11v-4.38l-0.68-0.92
				v-3.85l1.66,1.34v1.29l0.36,0.42h0.17v-5.65l0.92,1.39h0.4C65.28,94.15,65.29,94,65.29,94s0.11,0.06,0.25,0.17l0,0
				c-0.19-0.32-0.63-1.04-0.59-1.74c0.15,0.05,0.31,0.19,0.45,0.32c0,0-0.42-0.87-0.27-1.36c0.1,0.02,0.25,0.12,0.39,0.23v0
				c0,0-0.27-0.62-0.19-1.29c0.12,0.04,0.3,0.17,0.46,0.32c0,0-0.08-0.32,0.06-0.57c0.03,0.01,0.08,0.03,0.12,0.05l0-0.43h0.24
				v-0.39h0.19v-0.32h0.1v-0.39h0.06c0,0,0.08-0.48,0.17-0.57c0.09-0.09,0.14-0.27,0.14-0.45c0-0.18,0.06-0.23,0.13-0.23
				c0.07,0,0.12,0.05,0.12,0.23c0,0.18,0.05,0.36,0.14,0.45c0.09,0.09,0.17,0.57,0.17,0.57h0.06v0.39h0.1v0.32h0.19v0.39H68l0,0.43
				c0.04-0.02,0.08-0.04,0.12-0.05c0.14,0.25,0.06,0.57,0.06,0.57c0.16-0.14,0.34-0.27,0.46-0.31c0.07,0.67-0.19,1.29-0.19,1.29
				c0.14-0.1,0.29-0.2,0.39-0.22c0.14,0.48-0.27,1.36-0.27,1.36c0.13-0.13,0.3-0.27,0.45-0.32c0.04,0.69-0.41,1.42-0.59,1.74h0
				c0.14-0.1,0.25-0.17,0.25-0.17s0,0.15-0.01,0.35h0.4L70,92.96v4.12l1.14,0c0-0.1,0-0.19,0-0.23c0-0.16,0.21-0.16,0.48-0.16
				c0.27,0,0.44,0.06,0.44,0.16c0,0.02,0,0.1,0,0.23h4.27v-2.55c0-0.34,0.05-0.38,0.08-0.35c0.03,0.03,0.5,0.4,0.5,0.4
				c0-0.2,0.07-0.24,0.13-0.18c0.06,0.06,0.59,0.53,0.59,0.63c0,0.1,0,0.37,0,0.69s0.29,0.66,0.48,0.66c0.05,0,0.53,0,1.24,0V94.9
				c0,0-1.5-1.51-1.17-2.66c0.45,0.72,0.9,1.14,0.9,1.14h0.56v-0.67c0,0-1.44-1.55-1.02-2.45c0.19,0.5,0.77,1.01,0.77,1.01h0.58
				c0,0,0-0.58,0-0.58s-1.1-1.06-0.92-2.17c0.24,0.62,0.78,0.88,0.78,0.88h0.31v-0.71c0,0-0.98-1.35-0.78-1.95
				c0.14,0.34,0.58,0.8,0.58,0.8h0.22c0,0,0-0.5,0-0.5c-0.73-0.78-0.58-1.56-0.58-1.56s0.28,0.63,0.61,0.79h0.24v-0.6
				c-0.81-0.81-0.64-1.47-0.64-1.47s0.31,0.58,0.52,0.66c0.03,0,0.26-0.01,0.47-0.01c0-0.33,0.11-0.45,0.21-0.45
				c0.01,0,0.04,0,0.1,0c0-0.14,0.04-0.55,0.11-0.55c0.01,0,0.02,0,0.05,0c0,0,0-0.52,0.07-0.52c0.01,0,0.04,0,0.09,0
				c0,0,0-0.52,0.07-0.52c0.01,0,0.07,0,0.15,0c0-0.31,0.1-0.63,0.33-0.77c0.01-0.58,0.16-0.65,0.28-0.65
				c0.12,0,0.27,0.07,0.28,0.65c0.23,0.14,0.33,0.46,0.33,0.77c0.08,0,0.13,0,0.15,0c0.07,0,0.07,0.52,0.07,0.52
				c0.05,0,0.08,0,0.09,0c0.07,0,0.07,0.52,0.07,0.52c0.02,0,0.04,0,0.05,0c0.07,0,0.11,0.4,0.11,0.55c0.05,0,0.09,0,0.1,0
				c0.1,0,0.21,0.12,0.21,0.45c0.21,0,0.44,0.01,0.47,0.01c0.2-0.08,0.52-0.66,0.52-0.66s0.16,0.66-0.64,1.47v0.6h0.24
				c0.33-0.17,0.61-0.79,0.61-0.79s0.15,0.78-0.58,1.56l0,0.5h0.22c0,0,0.44-0.47,0.58-0.8c0.2,0.6-0.78,1.95-0.78,1.95v0.71h0.31
				c0,0,0.54-0.27,0.78-0.88c0.18,1.11-0.92,2.17-0.92,2.17l0,0.58h0.58c0,0,0.57-0.51,0.77-1.01c0.42,0.89-1.02,2.45-1.02,2.45
				v0.67h0.56c0,0,0.45-0.42,0.9-1.14c0.33,1.15-1.17,2.66-1.17,2.66v1.47c0.71,0,1.19,0,1.24,0c0.19,0,0.48-0.34,0.48-0.66
				s0-0.59,0-0.69c0-0.1,0.53-0.57,0.59-0.63c0.06-0.06,0.13-0.02,0.13,0.18c0,0,0.47-0.37,0.5-0.4c0.03-0.03,0.08,0.01,0.08,0.35
				v2.55h4.27c0-0.12,0-0.21,0-0.23c0-0.1,0.16-0.16,0.44-0.16c0.27,0,0.48,0,0.48,0.16c0,0.04,0,0.12,0,0.23l1.14,0v-4.12
				l0.92,1.39h0.4C95.73,94.15,95.73,94,95.73,94s0.11,0.06,0.25,0.17h0c-0.19-0.32-0.63-1.04-0.59-1.74
				c0.15,0.05,0.31,0.19,0.45,0.32c0,0-0.42-0.87-0.27-1.36c0.1,0.02,0.25,0.12,0.39,0.22c0,0-0.26-0.62-0.19-1.29
				c0.12,0.04,0.3,0.17,0.46,0.31c0,0-0.08-0.32,0.06-0.57c0.03,0.01,0.08,0.03,0.12,0.05l0-0.43h0.24v-0.39h0.19v-0.32h0.1v-0.39
				h0.06c0,0,0.08-0.48,0.17-0.57c0.09-0.09,0.15-0.27,0.15-0.45c0-0.18,0.06-0.23,0.12-0.23c0.07,0,0.12,0.05,0.12,0.23
				c0,0.18,0.05,0.36,0.15,0.45c0.09,0.09,0.17,0.57,0.17,0.57h0.06v0.39h0.1v0.32h0.19v0.39h0.24l0,0.43
				c0.04-0.02,0.08-0.04,0.12-0.05c0.14,0.25,0.06,0.57,0.06,0.57c0.16-0.14,0.34-0.28,0.46-0.32c0.07,0.67-0.19,1.29-0.19,1.29v0
				c0.14-0.11,0.29-0.2,0.39-0.23c0.15,0.48-0.27,1.36-0.27,1.36c0.13-0.13,0.3-0.27,0.45-0.32c0.04,0.69-0.41,1.42-0.59,1.74l0,0
				c0.14-0.1,0.25-0.17,0.25-0.17s0,0.15-0.01,0.35h0.4l0.92-1.39v5.65h0.17l0.36-0.42V96.9l1.66-1.34v3.85l-0.68,0.92v4.38h0.11
				l1.16,1.5h0.24v1.03h1.12v1.14h1.34v1.85h1.57v2.53h1.76v2.47H55.14z"/>
			<path fill="#040000" d="M107.56,112.71v-2.53h-1.58v-1.85h-1.34v-1.13h-1.12l0-1.03h-0.27l-1.16-1.5h-0.09v-4.32l0.68-0.92v-3.97
				l-1.76,1.42v1.29l-0.34,0.39h-0.1l0-5.76l-1,1.51h-0.33c0-0.09,0-0.17,0-0.22c0-0.05,0-0.09,0-0.09l0-0.08l-0.07,0.04
				c0,0-0.03,0.02-0.08,0.05c0.2-0.35,0.49-0.92,0.5-1.49c0-0.03,0-0.06,0-0.09l0-0.06l-0.06,0.02c-0.1,0.03-0.21,0.1-0.3,0.19
				c0.09-0.23,0.22-0.61,0.22-0.94c0-0.09-0.01-0.17-0.03-0.25l-0.01-0.04l-0.04,0.01c-0.08,0.02-0.18,0.08-0.28,0.14
				c0.06-0.19,0.16-0.53,0.16-0.92c0-0.08,0-0.16-0.01-0.24l-0.01-0.06l-0.06,0.02c-0.11,0.04-0.25,0.13-0.39,0.25
				c0-0.03,0-0.07,0-0.1c0-0.11-0.02-0.25-0.09-0.38l-0.02-0.03l-0.04,0.01c-0.02,0.01-0.04,0.01-0.06,0.02l0-0.36v-0.05h-0.24
				l0-0.35v-0.05h-0.18l0-0.27v-0.05h-0.1l0-0.35v-0.05h-0.06c-0.02-0.11-0.08-0.45-0.18-0.56c-0.08-0.08-0.13-0.25-0.13-0.42
				c0-0.18-0.07-0.27-0.17-0.27c-0.1,0-0.17,0.09-0.17,0.27c0,0.17-0.05,0.34-0.13,0.42c-0.1,0.11-0.16,0.44-0.18,0.56h-0.06v0.4
				h-0.1v0.32H96.6v0.39h-0.24v0.41c-0.02-0.01-0.04-0.02-0.06-0.02l-0.04-0.01l-0.02,0.03c-0.07,0.13-0.09,0.26-0.09,0.38
				c0,0.04,0,0.07,0,0.1c-0.14-0.11-0.28-0.21-0.39-0.24l-0.06-0.02l-0.01,0.06c-0.01,0.08-0.01,0.16-0.01,0.24
				c0,0.39,0.09,0.73,0.16,0.92c-0.1-0.07-0.2-0.12-0.28-0.14l-0.04-0.01l-0.01,0.04c-0.02,0.08-0.03,0.16-0.03,0.25
				c0,0.33,0.13,0.71,0.22,0.94c-0.1-0.08-0.2-0.15-0.3-0.19l-0.06-0.02l0,0.06c0,0.03,0,0.06,0,0.09c0,0.57,0.29,1.14,0.5,1.49
				c-0.05-0.03-0.08-0.05-0.08-0.05l-0.07-0.04l0,0.08c0,0,0,0.03,0,0.09c0,0.05,0,0.13,0,0.22h-0.33l-1-1.5v4.23h-1.04
				c0-0.08,0-0.14,0-0.18c-0.02-0.23-0.27-0.21-0.53-0.21c-0.28,0-0.47,0.05-0.48,0.21c0,0.02,0,0.08,0,0.18h-4.17v-2.5
				c-0.01-0.28-0.01-0.37-0.12-0.41c-0.02,0-0.04,0.01-0.05,0.02c-0.02,0.02-0.29,0.23-0.42,0.34c-0.01-0.09-0.04-0.15-0.12-0.16
				c-0.04,0-0.06,0.02-0.08,0.04c-0.06,0.07-0.58,0.5-0.6,0.66c0,0.1,0,0.37,0,0.69c0,0.29-0.29,0.61-0.43,0.61
				c-0.05,0-0.51,0-1.19,0v-1.41c0.14-0.14,1.21-1.28,1.22-2.33c0-0.12-0.01-0.24-0.05-0.36l-0.03-0.11l-0.06,0.09
				c-0.4,0.64-0.8,1.04-0.88,1.11h-0.49l0-0.6c0.12-0.14,1.09-1.22,1.1-2.09c0-0.14-0.02-0.27-0.08-0.39l-0.05-0.1l-0.04,0.1
				c-0.17,0.44-0.66,0.9-0.74,0.98H84.5v-0.51c0.12-0.12,0.94-0.97,0.94-1.94c0-0.08-0.01-0.17-0.02-0.25l-0.03-0.18l-0.07,0.17
				c-0.23,0.6-0.76,0.85-0.76,0.86l-0.24,0l0-0.65c0.09-0.12,0.8-1.14,0.81-1.78c0-0.07-0.01-0.14-0.03-0.2l-0.04-0.12l-0.05,0.12
				c-0.12,0.29-0.48,0.69-0.56,0.77h-0.15v-0.43c0.51-0.56,0.59-1.12,0.59-1.4c0-0.12-0.01-0.18-0.01-0.19l-0.03-0.15l-0.06,0.14
				c0,0-0.29,0.62-0.59,0.77l-0.16,0l0-0.53c0.57-0.58,0.66-1.09,0.66-1.34c0-0.1-0.01-0.16-0.01-0.16l-0.03-0.12L84.6,84.2
				c0,0-0.32,0.58-0.49,0.64c-0.02,0-0.17,0-0.4,0c-0.01-0.3-0.12-0.45-0.26-0.46c-0.01,0-0.03,0-0.05,0c0-0.08-0.01-0.19-0.03-0.29
				c-0.03-0.12-0.02-0.23-0.13-0.26c0-0.05,0-0.13-0.01-0.22c-0.03-0.13,0.01-0.26-0.11-0.3c-0.01,0-0.02,0-0.04,0
				c0-0.05,0-0.13-0.01-0.21c-0.03-0.13,0.01-0.26-0.11-0.3c-0.01,0-0.05,0-0.1,0c-0.01-0.29-0.11-0.59-0.32-0.74
				c-0.01-0.56-0.18-0.68-0.33-0.68c-0.15,0-0.32,0.12-0.33,0.7c-0.2,0.16-0.31,0.44-0.32,0.72c-0.05,0-0.09,0-0.1,0
				c-0.12,0.05-0.09,0.17-0.11,0.3c-0.01,0.08-0.01,0.16-0.01,0.21c-0.02,0-0.04,0-0.04,0c-0.12,0.05-0.09,0.17-0.11,0.3
				c-0.01,0.09-0.01,0.17-0.01,0.22c-0.11,0.03-0.1,0.14-0.13,0.26c-0.02,0.1-0.02,0.21-0.03,0.29c-0.02,0-0.04,0-0.05,0
				c-0.14,0-0.25,0.15-0.26,0.46c-0.23,0-0.39,0-0.42,0c-0.15-0.05-0.47-0.64-0.47-0.64l-0.06-0.11l-0.03,0.12
				c0,0-0.02,0.06-0.02,0.16c0,0.25,0.09,0.76,0.66,1.34v0.53h-0.19c-0.28-0.14-0.57-0.77-0.57-0.77l-0.06-0.14l-0.03,0.15
				c0,0-0.01,0.07-0.01,0.19c0,0.28,0.08,0.84,0.59,1.4v0.43h-0.15c-0.08-0.08-0.44-0.48-0.56-0.77l-0.05-0.12l-0.04,0.12
				c-0.02,0.06-0.03,0.13-0.03,0.2c0,0.64,0.72,1.65,0.81,1.78v0.65h-0.27c0.01,0-0.51-0.26-0.73-0.85l-0.06-0.16l-0.03,0.17
				c-0.01,0.08-0.02,0.17-0.02,0.25c0,0.97,0.82,1.82,0.94,1.94v0.51h-0.51c-0.09-0.08-0.57-0.54-0.74-0.98l-0.04-0.1l-0.05,0.1
				c-0.06,0.12-0.08,0.25-0.08,0.39c0.01,0.87,0.98,1.96,1.1,2.1v0.6h-0.49c-0.08-0.07-0.48-0.47-0.88-1.11l-0.06-0.09l-0.03,0.1
				c-0.03,0.12-0.05,0.24-0.05,0.36c0,1.05,1.08,2.19,1.22,2.33v1.41c-0.68,0-1.15,0-1.19,0c-0.15,0-0.43-0.32-0.44-0.61
				c0-0.32,0-0.59,0-0.69c-0.02-0.17-0.54-0.59-0.6-0.66c-0.02-0.02-0.05-0.04-0.08-0.04c-0.08,0.01-0.11,0.07-0.12,0.16
				c-0.13-0.1-0.41-0.32-0.42-0.34c-0.01-0.01-0.03-0.02-0.05-0.02c-0.11,0.03-0.1,0.12-0.11,0.41v2.5H72.1c0-0.09,0-0.16,0-0.18
				c-0.02-0.16-0.21-0.2-0.48-0.21c-0.26,0-0.51-0.02-0.53,0.21c0,0.03,0,0.1,0,0.18h-1.04V92.8l-1,1.51l-0.33,0
				c0-0.09,0-0.17,0.01-0.22c0-0.05,0-0.08,0-0.09l0-0.08l-0.07,0.04c0,0-0.03,0.02-0.08,0.05c0.2-0.35,0.49-0.92,0.5-1.49
				c0-0.03,0-0.06,0-0.09l0-0.06L69,92.39c-0.1,0.03-0.21,0.11-0.3,0.19c0.09-0.23,0.22-0.61,0.22-0.94c0-0.09-0.01-0.17-0.03-0.25
				l-0.01-0.04l-0.04,0.01c-0.08,0.02-0.18,0.08-0.28,0.14c0.06-0.19,0.16-0.53,0.16-0.92c0-0.08,0-0.16-0.01-0.24l-0.01-0.06
				l-0.06,0.02c-0.11,0.04-0.25,0.13-0.39,0.24c0-0.03,0.01-0.06,0.01-0.1c0-0.11-0.02-0.25-0.09-0.38l-0.02-0.03l-0.04,0.01
				c-0.02,0.01-0.04,0.01-0.06,0.02v-0.36v-0.05h-0.24v-0.35v-0.05h-0.19v-0.27v-0.05h-0.1v-0.35v-0.05h-0.06
				c-0.02-0.11-0.08-0.45-0.18-0.56c-0.08-0.08-0.13-0.25-0.13-0.42c0-0.18-0.07-0.27-0.17-0.27c-0.1,0-0.17,0.09-0.17,0.27
				c0,0.17-0.05,0.34-0.13,0.42c-0.1,0.11-0.15,0.44-0.17,0.56h-0.06v0.4h-0.1v0.32h-0.19v0.39h-0.24v0.41
				c-0.02-0.01-0.04-0.02-0.06-0.02l-0.04-0.01l-0.02,0.03c-0.07,0.13-0.09,0.26-0.09,0.38c0,0.04,0,0.07,0.01,0.1
				c-0.14-0.11-0.28-0.21-0.39-0.25l-0.06-0.02l-0.01,0.06c-0.01,0.08-0.01,0.16-0.01,0.24c0,0.39,0.09,0.73,0.16,0.92
				c-0.1-0.07-0.2-0.12-0.28-0.14l-0.04-0.01l-0.01,0.04c-0.02,0.08-0.03,0.16-0.03,0.25c0,0.33,0.13,0.71,0.22,0.94
				c-0.1-0.08-0.2-0.15-0.3-0.19l-0.06-0.02l0,0.06c0,0.03,0,0.06,0,0.09c0,0.57,0.29,1.14,0.5,1.49c-0.05-0.03-0.08-0.05-0.08-0.05
				l-0.07-0.04l0,0.08c0,0,0,0.03,0,0.09c0,0.05,0,0.13,0,0.22h-0.33l-1-1.51v5.76h-0.1l-0.34-0.39v-1.29l-1.76-1.41v3.97l0.68,0.92
				v4.32h-0.09l-1.16,1.5h-0.27v1.03h-1.12v1.13h-1.34v1.85h-1.57v2.53h-1.76v2.57h54.23v-2.57H107.56z M107.46,112.71h-8.63v-2.43
				h8.63V112.71z M65.67,106.27h0.45v8.92h-0.45V106.27z M63.3,99.63l-0.97-0.97h1.44l1.27,1.47l0,4.54h-0.48v-3.18h-0.76v3.18H63.3
				L63.3,99.63z M65.08,98.01c0.13,0.02,0.48,0.11,0.7,0.55h-0.61C65.12,98.31,65.09,98.1,65.08,98.01z M65.61,96.76
				c-0.38-0.47-0.45-0.97-0.45-1.27c0-0.1,0.01-0.17,0.01-0.22c0.14,0.08,0.52,0.29,0.68,0.56l0.05,0.09l0.03-0.1
				c0.18-0.5,0.89-1.21,1.05-1.37c0.16,0.16,0.86,0.87,1.05,1.37l0.03,0.1l0.05-0.09c0.16-0.27,0.53-0.49,0.68-0.56
				c0.01,0.05,0.01,0.12,0.01,0.22c0,0.3-0.07,0.81-0.45,1.27c-0.06,0.03-0.33,0.16-0.54,0.43c-0.2-0.55-0.8-0.97-0.81-0.98
				l-0.03-0.02l-0.03,0.02c0,0-0.61,0.43-0.81,0.98C65.94,96.91,65.66,96.78,65.61,96.76z M65.62,96.87c0.11,0.06,0.34,0.2,0.5,0.45
				l0.06,0.09l0.03-0.11c0.12-0.48,0.65-0.9,0.77-1c0.13,0.1,0.65,0.52,0.77,1l0.03,0.11l0.06-0.1c0.16-0.25,0.39-0.39,0.5-0.45
				c0,0.02,0,0.03,0,0.05c0,0.25-0.05,0.82-0.43,1.24c-0.42-0.69-0.9-1.12-0.9-1.13l-0.03-0.03l-0.03,0.03c0,0-0.48,0.44-0.9,1.13
				c-0.38-0.42-0.43-0.99-0.43-1.24C65.62,96.91,65.62,96.89,65.62,96.87z M66.98,97.14c0.14,0.13,0.66,0.66,1.04,1.42h-2.08
				C66.32,97.8,66.85,97.27,66.98,97.14z M68.79,98.56h-0.61c0.22-0.45,0.57-0.53,0.7-0.55C68.87,98.11,68.85,98.31,68.79,98.56z
				 M65.83,98.66l0.03,0.07l0.03-0.07h2.18l0.03,0.07l0.03-0.07h0.63c-0.08,0.31-0.22,0.65-0.45,0.93h-2.66
				c-0.23-0.28-0.36-0.63-0.45-0.93H65.83z M80.02,101.59h0.56v3.08h-0.56L80.02,101.59z M80.28,97.83l-0.06-0.03l-0.01,0.06
				c0,0-0.02,0.11-0.02,0.28c0,0.11,0.01,0.25,0.03,0.41c-1.18,0-2.12,0-2.31,0c-0.27,0-0.51-0.17-0.69-0.36
				c-0.18-0.19-0.29-0.42-0.28-0.49c0-0.05,0-0.26,0-0.54h3.74v0.9C80.48,97.92,80.28,97.84,80.28,97.83z M80.14,92.79
				c0-0.08,0-0.14,0.01-0.18c0.13,0.04,0.5,0.18,0.79,0.61l0.04,0.06l0.04-0.06c0.35-0.55,1.03-1.27,1.19-1.44
				c0.16,0.17,0.84,0.89,1.19,1.44l0.04,0.06l0.04-0.06c0.29-0.43,0.66-0.57,0.79-0.61c0,0.04,0.01,0.1,0.01,0.18
				c0,0.32-0.07,0.94-0.54,1.6h-1.24c-0.15-0.16-0.26-0.25-0.26-0.25l-0.03-0.03l-0.03,0.03c0,0-0.1,0.09-0.26,0.25h-1.24
				C80.21,93.73,80.14,93.11,80.14,92.79z M80.38,88.88C80.38,88.88,80.38,88.88,80.38,88.88c0.15,0.03,0.55,0.16,0.73,0.44
				l0.05,0.08l0.03-0.09c0.21-0.55,0.86-1.12,1.01-1.24c0.15,0.12,0.8,0.69,1.01,1.24l0.03,0.09l0.05-0.08
				c0.18-0.28,0.59-0.41,0.73-0.45c0,0,0,0,0,0.01c0,0.25-0.05,1.1-0.65,1.44l-0.38-0.01c-0.37-0.47-0.76-0.75-0.76-0.75l-0.03-0.02
				l-0.03,0.02c0,0-0.4,0.28-0.76,0.75h-0.41C80.43,89.98,80.38,89.13,80.38,88.88z M81.79,84.97l0.06,0.06l0.02-0.08
				c0.09-0.38,0.28-0.52,0.34-0.56c0.06,0.04,0.25,0.19,0.34,0.56l0.02,0.08l0.06-0.06c0.13-0.13,0.32-0.15,0.42-0.15
				c0.01,0,0.02,0,0.03,0c-0.01,0.09-0.04,0.28-0.12,0.48c-0.1,0.04-0.18,0.1-0.28,0.19c-0.1-0.3-0.43-0.57-0.43-0.57l-0.03-0.03
				l-0.03,0.03c0,0-0.34,0.27-0.44,0.57c-0.1-0.1-0.19-0.16-0.28-0.19c-0.08-0.2-0.11-0.39-0.12-0.48c0.01,0,0.02,0,0.03,0
				C81.47,84.81,81.66,84.83,81.79,84.97z M81.73,85.61l0.07,0.07l0.01-0.1c0.03-0.22,0.3-0.49,0.39-0.57
				c0.09,0.08,0.36,0.35,0.39,0.57l0.01,0.1l0.07-0.07c0.12-0.12,0.2-0.2,0.29-0.23c0,0.31-0.06,0.65-0.25,0.78
				c-0.2-0.38-0.49-0.5-0.5-0.5l-0.02-0.01l-0.02,0.01c-0.01,0-0.29,0.12-0.5,0.5c-0.19-0.13-0.25-0.48-0.25-0.78
				C81.53,85.42,81.61,85.49,81.73,85.61z M81.59,86.5l0.06,0.06l0.02-0.08c0.15-0.51,0.46-0.68,0.54-0.72
				c0.08,0.04,0.39,0.22,0.54,0.72l0.02,0.08l0.06-0.06c0.12-0.12,0.38-0.22,0.5-0.27c-0.03,0.2-0.13,0.73-0.45,1.03
				c-0.25-0.4-0.64-0.73-0.64-0.74L82.2,86.5l-0.03,0.03c0,0-0.38,0.32-0.63,0.71c-0.31-0.3-0.42-0.81-0.46-1.01
				C81.21,86.27,81.47,86.38,81.59,86.5z M81.53,86.34h0.08c-0.01,0.02-0.01,0.03-0.02,0.04C81.58,86.36,81.55,86.35,81.53,86.34z
				 M82.79,86.33h0.08c-0.02,0.01-0.04,0.03-0.06,0.04C82.81,86.36,82.8,86.35,82.79,86.33z M82.21,86.63
				c0.13,0.11,0.59,0.55,0.73,0.97l0.04,0.1l0.05-0.09c0.13-0.23,0.38-0.37,0.5-0.42c0.01,0.05,0.01,0.13,0.01,0.22
				c0,0.3-0.07,0.75-0.4,0.96h-0.47c-0.23-0.24-0.42-0.39-0.43-0.39l-0.03-0.02l-0.03,0.02c0,0-0.2,0.16-0.43,0.39h-0.47
				c-0.34-0.21-0.41-0.66-0.4-0.96c0-0.1,0.01-0.17,0.01-0.22c0.11,0.05,0.37,0.19,0.5,0.42l0.05,0.09l0.04-0.1
				C81.62,87.18,82.08,86.74,82.21,86.63z M82.21,89.67c0.14,0.11,0.8,0.62,1.12,1.39l0.03,0.07l0.05-0.05
				c0.34-0.34,0.59-0.48,0.7-0.53c0.01,0.06,0.01,0.16,0.01,0.28c0,0.39-0.07,1.01-0.45,1.31h-1c-0.23-0.26-0.42-0.45-0.42-0.45
				l-0.04-0.04l-0.03,0.04c0,0-0.18,0.19-0.42,0.45h-1c-0.38-0.3-0.46-0.92-0.45-1.31c0-0.12,0.01-0.22,0.01-0.28
				c0.11,0.05,0.36,0.19,0.7,0.53l0.05,0.05l0.03-0.07C81.41,90.28,82.06,89.77,82.21,89.67z M82.74,92.23h0.16v0.19
				C82.85,92.35,82.79,92.29,82.74,92.23z M81.67,92.23c-0.05,0.06-0.11,0.12-0.16,0.19v-0.19H81.67z M83.4,95.63
				c-0.26-0.49-0.57-0.88-0.81-1.14h1.12v0.87C83.62,95.43,83.51,95.52,83.4,95.63z M80.7,94.49h1.12
				c-0.24,0.26-0.56,0.65-0.81,1.14c-0.12-0.11-0.22-0.2-0.31-0.28V94.49z M80.99,95.74l0.05,0.05l0.03-0.06
				c0.4-0.81,1-1.36,1.14-1.49c0.14,0.13,0.73,0.68,1.14,1.49l0.03,0.06l0.05-0.05c0.31-0.31,0.53-0.47,0.67-0.55
				c0.08-0.04,0.13-0.06,0.16-0.07c0.02,0.06,0.05,0.2,0.05,0.38c0,0.36-0.11,0.9-0.65,1.44h-2.9c-0.53-0.54-0.65-1.08-0.65-1.44
				c0-0.19,0.03-0.32,0.05-0.39C80.25,95.15,80.51,95.26,80.99,95.74z M87.46,97.71c0,0.07-0.1,0.3-0.28,0.49
				c-0.18,0.19-0.42,0.36-0.69,0.36c-0.19,0-1.12,0-2.31,0c0.02-0.16,0.03-0.3,0.03-0.41c0-0.17-0.02-0.28-0.02-0.28l-0.01-0.06
				l-0.06,0.03c0,0-0.2,0.09-0.4,0.24v-0.9h3.73C87.46,97.46,87.46,97.67,87.46,97.71z M82.13,97.05c-0.14,0.17-0.71,0.84-1.11,1.36
				c-0.06-0.1-0.15-0.19-0.24-0.26v-1.1H82.13z M83.38,98.41c-0.4-0.52-0.96-1.19-1.1-1.36h1.35v1.1
				C83.53,98.22,83.45,98.31,83.38,98.41z M80.3,97.95c0.15,0.08,0.54,0.3,0.68,0.57l0.03,0.07l0.05-0.06
				c0.4-0.52,0.99-1.23,1.14-1.41c0.15,0.18,0.75,0.89,1.14,1.41l0.05,0.06l0.04-0.07c0.13-0.27,0.53-0.49,0.68-0.56
				c0,0.05,0.01,0.11,0.01,0.2c0,0.34-0.07,0.95-0.51,1.46H80.8c-0.43-0.52-0.51-1.12-0.51-1.46C80.29,98.06,80.3,98,80.3,97.95z
				 M83.74,99.71v6.46h-0.56l0-5.97h-1.95v5.97h-0.56v-6.46H83.74z M92.31,98.56h-4.17v-0.84h4.17
				C92.31,98.07,92.31,98.41,92.31,98.56z M95.53,98.01c0.13,0.02,0.48,0.11,0.7,0.55h-0.61C95.56,98.31,95.54,98.1,95.53,98.01z
				 M96.05,96.76c-0.38-0.47-0.45-0.97-0.45-1.27c0-0.1,0.01-0.17,0.01-0.22c0.14,0.07,0.52,0.29,0.68,0.56l0.05,0.09l0.04-0.1
				c0.18-0.5,0.89-1.21,1.05-1.37c0.16,0.16,0.86,0.87,1.05,1.37l0.03,0.09l0.05-0.09c0.16-0.27,0.53-0.49,0.68-0.56
				c0.01,0.05,0.01,0.12,0.01,0.22c0,0.3-0.07,0.8-0.45,1.27c-0.06,0.02-0.33,0.15-0.54,0.43c-0.2-0.55-0.8-0.97-0.81-0.98
				l-0.03-0.02l-0.03,0.02c0,0-0.61,0.43-0.81,0.98C96.38,96.91,96.11,96.78,96.05,96.76z M96.07,96.87c0.11,0.06,0.34,0.2,0.5,0.45
				l0.06,0.1l0.03-0.11c0.12-0.48,0.65-0.9,0.77-1c0.13,0.1,0.65,0.52,0.77,1l0.03,0.11l0.06-0.09c0.16-0.25,0.39-0.39,0.5-0.45
				c0,0.02,0,0.03,0,0.05c0,0.25-0.05,0.82-0.43,1.24c-0.42-0.69-0.9-1.12-0.9-1.13l-0.03-0.03l-0.03,0.03c0,0-0.48,0.44-0.9,1.13
				c-0.38-0.42-0.43-0.99-0.43-1.24C96.07,96.91,96.07,96.89,96.07,96.87z M97.43,97.14c0.14,0.13,0.66,0.66,1.04,1.42h-2.08
				C96.77,97.8,97.29,97.27,97.43,97.14z M99.23,98.56h-0.61c0.22-0.45,0.57-0.53,0.7-0.55C99.32,98.1,99.29,98.31,99.23,98.56z
				 M96.28,98.66l0.03,0.07l0.03-0.07h2.18l0.03,0.07l0.03-0.07h0.63c-0.08,0.31-0.22,0.65-0.45,0.93H96.1
				c-0.23-0.28-0.36-0.63-0.45-0.93H96.28z M101.11,104.67h-0.51v-3.18h-0.76v3.18h-0.48v-4.54l1.27-1.47h1.44l-0.97,0.97V104.67z
				 M98.19,114.24h-1.7v-0.96h1.7V114.24z M98.19,113.17h-1.7v-1.02h1.7V113.17z M98.19,112.06h-1.7v-0.93h1.7V112.06z
				 M98.19,111.03h-1.7v-0.6h1.7V111.03z M98.19,110.33h-1.7v-0.84h1.7V110.33z M98.19,109.4h-1.7v-0.74h1.7V109.4z M98.19,108.56
				h-1.7v-0.65h1.7V108.56z M98.19,107.81h-1.7v-1.02h1.7V107.81z M98.19,106.69h-1.7v-0.42h1.7V106.69z M96.49,106.17v-5.83h1.7
				v5.83H96.49z M96.39,100.24v5.93h-0.56v-6.48h2.9v6.48h-0.45v-5.93H96.39z M95.74,112.72H83.83v-2.43h11.91V112.72z
				 M95.74,110.19H83.83v-1.75h11.91V110.19z M95.74,108.34H83.83v-1.04h11.91V108.34z M95.74,107.2H83.83v-0.94h11.91V107.2z
				 M86.94,104.76l1.08,1.41h-1.74l-1.09-1.41H86.94z M87.01,100.13l0.31-0.31h6v0.8h-6.31V100.13z M94.56,104.67h-0.56v-3.08h0.56
				V104.67z M95.11,104.76l-1.08,1.41H92.3l1.08-1.41H95.11z M88.15,106.17l-1.09-1.41h6.21l-1.09,1.41H88.15z M88.25,104.67h-0.56
				v-3.08h0.56V104.67z M89.68,104.67h-0.56v-3.08h0.56V104.67z M91.11,104.67h-0.56v-3.08h0.56V104.67z M92.54,104.67h-0.56v-3.08
				h0.56V104.67z M87.01,100.72h6.31v3.95h-0.68l0-3.18h-0.76v3.18h-0.67l0-3.18h-0.76v3.18h-0.67v-3.18h-0.76v3.18h-0.67v-3.18
				h-0.76v3.18h-0.58L87.01,100.72z M94.15,106.17l1.08-1.41h0.51v1.41H94.15z M98.83,104.76h0.45l1.09,1.41h-1.54V104.76z
				 M100.49,106.17l-1.09-1.41h1.74l1.09,1.41H100.49z M100.5,104.67h-0.56v-3.08h0.56V104.67z M99.26,100.09v4.58h-0.43v-5.01
				c0.25-0.3,0.39-0.68,0.48-1h1.09v0.13L99.26,100.09z M95.97,99.59h-0.23v5.07h-0.48v-4.58l-0.79-0.91v-0.52h1.09
				C95.63,98.96,95.76,99.3,95.97,99.59z M94.36,99.06l-0.35-0.41h0.35V99.06z M95.16,100.12l0,4.54h-0.5l0-3.18H93.9v3.18h-0.48
				l0-5.04l-0.97-0.97h1.44L95.16,100.12z M93.32,99.67v0.05h-5.9l0.39-0.39h5.17L93.32,99.67z M86.91,100.09v4.58H85.8l0-3.18
				h-0.66v-2.16h2.52L86.91,100.09z M85.14,101.59h0.56v3.08h-0.56V101.59z M85.07,104.76l1.08,1.41h-1.19l-1.09-1.41H85.07z
				 M83.83,104.67v-3.08h0.56l0,3.08H83.83z M83.83,104.86l1.01,1.31h-1.01V104.86z M83.09,114.24h-1.76v-1h1.76V114.24z
				 M81.32,107.9h1.76v0.75h-1.76V107.9z M83.09,107.8h-1.76v-0.99h1.76V107.8z M83.09,112.06h-1.76v-0.95h1.76V112.06z
				 M83.09,113.15h-1.76v-1h1.76V113.15z M83.09,111.01h-1.76v-0.57h1.76V111.01z M83.09,110.34h-1.76v-0.92h1.76V110.34z
				 M83.09,109.32h-1.76v-0.57h1.76V109.32z M83.09,106.71h-1.76v-0.45h1.76V106.71z M81.32,106.17v-5.88h1.76v5.88H81.32z
				 M80.57,108.34H68.67v-1.04h11.91V108.34z M68.67,110.28h11.91v2.43H68.67V110.28z M80.57,110.19H68.67v-1.75h11.91V110.19z
				 M80.57,107.2H68.67v-0.94h11.91V107.2z M68.67,104.76h0.51l1.08,1.41h-1.59V104.76z M69.85,101.59h0.56v3.08h-0.56L69.85,101.59
				z M71.02,104.76l1.09,1.41h-1.72l-1.08-1.41H71.02z M77.4,100.13v0.49h-6.31v-0.8h6L77.4,100.13z M79.21,104.76l-1.08,1.41h-1.74
				l1.08-1.41H79.21z M72.23,106.17l-1.09-1.41h6.2l-1.08,1.41H72.23z M71.87,101.59h0.56v3.08h-0.56L71.87,101.59z M73.86,104.67
				H73.3v-3.08h0.56V104.67z M74.73,104.67v-3.08h0.56l0,3.08H74.73z M76.72,104.67h-0.56v-3.08h0.56V104.67z M71.09,100.72h6.31
				v3.95h-0.58v-3.18h-0.76v3.18h-0.67v-3.18h-0.76v3.18h-0.67v-3.18H73.2v3.18h-0.67v-3.18h-0.76v3.18h-0.68V100.72z M79.56,106.17
				l1.01-1.31v1.31H79.56z M80.52,104.76l-1.09,1.41h-1.19l1.08-1.41H80.52z M78.71,104.67v-3.08h0.56l0,3.08H78.71z M78.61,101.49
				v3.18H77.5v-4.58l-0.76-0.76h2.52l0,2.16H78.61z M76.6,99.33l0.39,0.39h-5.9v-0.05l0.33-0.33H76.6z M71,99.63v5.04h-0.48v-3.18
				h-0.76v3.18h-0.51v-4.54l1.27-1.47h1.44L71,99.63z M70.04,99.06v-0.41h0.35L70.04,99.06z M69.95,99.18l-0.79,0.91v4.58h-0.49
				v-5.07h-0.23c0.22-0.29,0.35-0.64,0.43-0.93h1.09V99.18z M65.58,99.66v5.01h-0.43v-4.58l-1.13-1.3v-0.13h1.09
				C65.18,98.98,65.33,99.35,65.58,99.66z M64.47,104.67h-0.56v-3.08h0.56V104.67z M65,104.76l-1.09,1.41h-1.74l1.09-1.41L65,104.76
				z M65.12,104.76h0.45v1.41h-1.54L65.12,104.76z M65.67,99.69h2.9l0,6.48h-0.56v-5.93h-1.9v5.93h-0.45V99.69z M66.22,109.5h1.7
				v0.84h-1.7V109.5z M67.92,111.03h-1.7v-0.6h1.7V111.03z M66.22,111.13h1.7v0.93h-1.7V111.13z M67.92,109.4h-1.7v-0.74h1.7V109.4z
				 M66.22,113.27h1.7v0.97h-1.7V113.27z M67.92,113.17h-1.7v-1.02h1.7V113.17z M67.92,108.56h-1.7v-0.65h1.7V108.56z M67.92,107.81
				h-1.7v-1.02h1.7V107.81z M67.92,106.69h-1.7v-0.42h1.7V106.69z M66.22,106.17v-5.83h1.7v5.83H66.22z M66.22,114.33h1.7v0.85h-1.7
				V114.33z M68.02,106.27h0.56l0,8.92h-0.56V106.27z M68.67,112.81h11.91v2.37H68.67V112.81z M80.67,106.27h0.56v8.92h-0.56V106.27
				z M81.32,114.34h1.76v0.84h-1.76V114.34z M83.18,106.27h0.56v8.92h-0.56L83.18,106.27z M83.83,112.81h11.91v2.37H83.83V112.81z
				 M95.84,106.27h0.56v8.92h-0.56V106.27z M96.49,114.33h1.7v0.85h-1.7V114.33z M98.29,106.27h0.45v8.92h-0.45V106.27z
				 M105.88,110.19h-7.05v-1.75l7.05,0V110.19z M104.55,108.34h-5.71v-1.04l5.71,0V108.34z M103.42,107.2h-4.59v-0.94h4.59
				L103.42,107.2z M103.13,106.17h-0.77l-1.09-1.41h0.77L103.13,106.17z M101.91,100.32v4.35h-0.71v-5l1.01-1.01v0h0.38v0.74
				L101.91,100.32z M102.59,98.56h-0.38c0-0.34,0-1.62,0-1.71c-0.02-0.16-0.21-0.2-0.48-0.21c-0.15,0-0.29,0-0.39,0.03l1.25-1.01
				V98.56z M101.02,96.93l0.19-0.15c-0.01,0.02-0.02,0.05-0.02,0.08c0,0.15,0,0.89,0,1.01l-0.17,0.19V96.93z M101.29,97.9v-0.02
				c0,0,0-0.87,0-1.03c0-0.05,0.02-0.07,0.1-0.09c0.08-0.02,0.2-0.02,0.33-0.02c0.13,0,0.24,0.02,0.3,0.04
				c0.07,0.03,0.08,0.05,0.08,0.07c0,0.08,0,1.37,0,1.71h-1.39L101.29,97.9z M100.51,98.66l-0.01,0.02v-0.02H100.51z M99.16,94.4
				h0.36h0.03l0.85-1.28l0,5.44h-1.06c0.08-0.34,0.09-0.6,0.09-0.6l0-0.05h-0.05c-0.01,0-0.54,0-0.83,0.59
				c-0.04-0.09-0.09-0.17-0.14-0.24c0.42-0.45,0.47-1.06,0.48-1.33c0-0.06,0-0.1,0-0.11c0.39-0.49,0.47-1.01,0.47-1.33
				c0-0.18-0.02-0.3-0.02-0.3l-0.01-0.06l-0.05,0.03c0,0-0.11,0.05-0.24,0.13C99.11,95,99.15,94.66,99.16,94.4z M99.42,92.52
				c0,0.64-0.4,1.31-0.58,1.61c-0.15,0.1-0.32,0.25-0.43,0.4c-0.02-0.05-0.06-0.11-0.09-0.16c0.46-0.36,0.51-1.04,0.51-1.3
				c0-0.02,0-0.03,0-0.04c0.05-0.06,0.35-0.41,0.6-0.53C99.42,92.51,99.42,92.52,99.42,92.52z M96.6,94.29
				c-0.41-0.32-0.47-0.97-0.47-1.22c0-0.02,0-0.03,0-0.04c0.12,0.03,0.38,0.12,0.44,0.27l0.05,0.11l0.04-0.12
				c0.08-0.26,0.63-0.78,0.76-0.91c0.14,0.13,0.68,0.64,0.76,0.91l0.04,0.12l0.05-0.11c0.06-0.15,0.33-0.23,0.44-0.26
				c0,0.01,0,0.03,0,0.04c0,0.25-0.05,0.9-0.47,1.22c-0.29-0.43-0.79-0.92-0.8-0.92l-0.03-0.03l-0.03,0.03
				C97.39,93.38,96.89,93.86,96.6,94.29z M96.71,90.31c0-0.04,0-0.08,0-0.1c0.08,0.03,0.21,0.09,0.22,0.17l0.04,0.14l0.05-0.14
				c0.03-0.09,0.3-0.4,0.39-0.51c0.1,0.11,0.36,0.42,0.39,0.51l0.05,0.14l0.04-0.14c0.02-0.08,0.15-0.14,0.22-0.17
				c0,0.03,0,0.06,0,0.1c0,0.15-0.02,0.39-0.1,0.6c-0.06,0.03-0.12,0.07-0.16,0.12c-0.12-0.26-0.41-0.52-0.41-0.53l-0.03-0.03
				L97.4,90.5c0,0-0.3,0.27-0.41,0.53c-0.05-0.05-0.11-0.09-0.16-0.12C96.73,90.7,96.71,90.47,96.71,90.31z M96.95,91.15l0.06,0.1
				l0.03-0.11c0.05-0.19,0.3-0.45,0.39-0.53c0.09,0.09,0.33,0.34,0.38,0.53l0.03,0.11l0.06-0.1c0.04-0.07,0.19-0.16,0.28-0.21
				c0,0.03,0,0.08,0,0.13c0,0.23-0.03,0.6-0.17,0.78c-0.19-0.27-0.56-0.61-0.56-0.62l-0.03-0.03l-0.03,0.03c0,0-0.37,0.34-0.56,0.62
				c-0.14-0.19-0.17-0.55-0.17-0.78c0-0.05,0-0.1,0-0.14C96.76,90.99,96.92,91.08,96.95,91.15z M96.81,92.16l0.02-0.08
				c0.04-0.18,0.47-0.61,0.59-0.73c0.12,0.12,0.55,0.55,0.59,0.73l0.02,0.08l0.06-0.06c0.1-0.11,0.28-0.19,0.38-0.24
				c0,0.2-0.05,0.79-0.43,1.02c-0.25-0.3-0.58-0.6-0.59-0.6l-0.03-0.03l-0.03,0.03c0,0-0.34,0.3-0.59,0.6
				c-0.38-0.23-0.43-0.81-0.44-1.02c0.1,0.04,0.27,0.13,0.38,0.24L96.81,92.16z M99.27,91.63c0,0.45-0.27,1.04-0.29,1.09
				c-0.07,0.07-0.14,0.14-0.18,0.19l-0.04,0.01c0,0-0.35,0.06-0.51,0.25c-0.03-0.07-0.09-0.14-0.14-0.22c0.38-0.24,0.45-0.74,0.47-1
				c0.06-0.06,0.46-0.42,0.68-0.5C99.26,91.51,99.27,91.57,99.27,91.63z M99.06,90.57c0,0.53-0.18,0.97-0.2,1.02
				c-0.11,0.09-0.21,0.17-0.28,0.23c0-0.02,0-0.04,0-0.04l0-0.07l-0.06,0.02c0,0-0.25,0.09-0.42,0.24c0-0.01-0.01-0.02-0.02-0.03
				c0.19-0.22,0.21-0.62,0.22-0.87c0-0.02,0-0.03,0-0.04c0.06-0.07,0.51-0.51,0.77-0.64C99.05,90.46,99.06,90.51,99.06,90.57z
				 M98.6,90.43c0,0.1-0.01,0.17-0.02,0.2c-0.12,0.11-0.23,0.21-0.3,0.28c0-0.02,0-0.04,0-0.04l-0.01-0.07l-0.06,0.03
				c0,0-0.02,0.01-0.05,0.02c0.06-0.2,0.07-0.4,0.07-0.53c0-0.01,0-0.01,0-0.02c0.05-0.03,0.2-0.12,0.31-0.16
				C98.59,90.23,98.6,90.33,98.6,90.43z M98.4,90.09c-0.06,0.03-0.12,0.06-0.17,0.09c0-0.03,0-0.04,0-0.04l-0.01-0.06l-0.05,0.01
				c0,0-0.2,0.04-0.3,0.17c-0.12-0.19-0.4-0.5-0.41-0.51l-0.02-0.02h0.96V90.09z M97.19,88.04c0.11-0.11,0.16-0.3,0.16-0.48
				c0.01-0.17,0.04-0.17,0.08-0.18c0.04,0,0.07,0.01,0.08,0.18c0,0.19,0.05,0.38,0.16,0.48c0.05,0.05,0.12,0.36,0.14,0.49h-0.76
				C97.07,88.4,97.14,88.08,97.19,88.04z M96.98,88.62h0.89v0.3h-0.89V88.62z M96.88,89.02h1.09l0,0.23h-1.09V89.02z M96.7,89.34
				h1.46l0,0.3H96.7V89.34z M96.46,89.73h0.96l-0.02,0.02c0,0-0.29,0.32-0.41,0.51c-0.1-0.13-0.3-0.16-0.3-0.17l-0.05-0.01
				l-0.01,0.05c0,0,0,0.02,0,0.04c-0.04-0.03-0.1-0.06-0.17-0.09V89.73z M96.26,90.43c0-0.09,0.01-0.2,0.06-0.29
				c0.11,0.04,0.26,0.13,0.31,0.16c0,0.01,0,0.01,0,0.02c0,0.14,0.02,0.34,0.07,0.53c-0.03-0.01-0.05-0.02-0.05-0.02l-0.06-0.03
				l-0.01,0.07c0,0,0,0.02,0,0.04c-0.07-0.07-0.18-0.17-0.3-0.28C96.27,90.6,96.26,90.52,96.26,90.43z M95.8,90.57
				c0-0.06,0-0.11,0.01-0.17c0.25,0.12,0.69,0.57,0.76,0.64c0,0.01,0,0.03,0,0.04c0,0.25,0.03,0.65,0.22,0.87
				c-0.01,0.01-0.01,0.02-0.02,0.03c-0.17-0.14-0.42-0.23-0.42-0.24l-0.06-0.02l-0.01,0.06c0,0,0,0.02,0,0.04
				c-0.07-0.06-0.17-0.15-0.28-0.23C95.97,91.53,95.8,91.09,95.8,90.57z M95.59,91.63c0-0.06,0.01-0.12,0.02-0.18
				c0.21,0.08,0.61,0.44,0.68,0.5c0.01,0.26,0.09,0.76,0.47,1c-0.06,0.07-0.11,0.15-0.14,0.22c-0.17-0.19-0.51-0.25-0.51-0.25
				l-0.04-0.01c-0.04-0.05-0.1-0.12-0.18-0.19C95.86,92.68,95.59,92.08,95.59,91.63z M95.44,92.52c0-0.01,0-0.01,0-0.02
				c0.24,0.12,0.55,0.47,0.6,0.53c0,0.01,0,0.02,0,0.04c0,0.26,0.04,0.94,0.51,1.3c-0.03,0.06-0.07,0.11-0.09,0.16
				c-0.11-0.15-0.29-0.3-0.43-0.4C95.84,93.83,95.44,93.16,95.44,92.52z M96.42,94.66l0.05,0.1l0.03-0.11
				c0.11-0.36,0.76-1.02,0.92-1.18c0.16,0.15,0.81,0.82,0.92,1.18l0.03,0.1l0.06-0.1c0.13-0.24,0.49-0.48,0.64-0.57
				c0,0.23-0.02,0.88-0.2,1.29c-0.12,0.09-0.25,0.2-0.35,0.33c-0.27-0.6-1.07-1.36-1.07-1.36l-0.03-0.03l-0.03,0.03
				c0,0-0.8,0.76-1.07,1.36c-0.1-0.13-0.23-0.24-0.35-0.33c-0.18-0.4-0.2-1.06-0.2-1.29C95.93,94.18,96.29,94.43,96.42,94.66z
				 M95.31,94.4h0.38c0.01,0.26,0.05,0.6,0.15,0.88c-0.13-0.08-0.24-0.13-0.24-0.13l-0.06-0.02l-0.01,0.06c0,0-0.02,0.12-0.02,0.3
				c0,0.32,0.07,0.84,0.47,1.33c0,0.02,0,0.05,0,0.12c0,0.27,0.05,0.88,0.48,1.33c-0.05,0.08-0.09,0.16-0.14,0.25
				c-0.29-0.59-0.83-0.59-0.83-0.59h-0.05l0,0.05c0,0,0.01,0.26,0.09,0.6h-1.06v-5.44L95.31,94.4z M94.36,97.13v1.43h-0.44
				l-0.6-0.69c0-0.09,0-0.46,0-0.74H94.36z M92.49,96.78c0.07-0.02,0.17-0.04,0.3-0.04c0.14,0,0.26,0,0.33,0.02
				c0.08,0.02,0.1,0.04,0.1,0.09c0,0.16,0,1.03,0,1.03v0.02l0.57,0.66h-1.39c0-0.33,0-1.62,0-1.71
				C92.4,96.84,92.42,96.81,92.49,96.78z M92.31,97.13c0,0.14,0,0.31,0,0.5h-4.17v-0.5H92.31z M88.14,99v-0.34h4.17v0l0.57,0.57
				H87.9L88.14,99z M88.02,94.24c0.01,0.04,0.03,0.13,0.03,0.29v4.43l-0.28,0.28h-2.72v5.43h-0.56l0-3.18h-0.66v-1.87h-0.1
				c0.25-0.32,0.37-0.66,0.43-0.96c1.19,0,2.13,0,2.32,0c0.61-0.01,1.06-0.71,1.07-0.94c0-0.19,0-2.81,0-3.11
				C87.63,94.54,87.92,94.32,88.02,94.24z M86.84,95.71c0-0.32,0-0.59,0-0.69c-0.02-0.04,0.51-0.54,0.57-0.59
				c0.01-0.01,0.01-0.01,0.02-0.01c0,0,0,0,0.01,0.02c0.01,0.02,0.02,0.07,0.02,0.14c0,0.14,0,1.62,0,2.5h-3.73v-0.06
				c0.2-0.2,0.34-0.4,0.44-0.6c1.18,0,2.08,0,2.15,0C86.55,96.41,86.83,96.06,86.84,95.71z M85.36,93.42l0.01-0.01
				c0,0,0.42-0.38,0.85-1.05c0.01,0.07,0.02,0.15,0.02,0.22c0,1.05-1.21,2.28-1.2,2.28l-0.01,0.01v1.45c-0.25,0-0.52,0-0.81,0
				c0.14-0.31,0.19-0.6,0.19-0.82c0-0.28-0.06-0.45-0.06-0.46l-0.01-0.04l-0.04,0c-0.01,0-0.17,0.02-0.48,0.26v-0.82
				c0.26-0.37,0.4-0.72,0.48-1.03H85.36z M85.05,91.32l0.01-0.01c0,0,0.5-0.44,0.73-0.92c0.02,0.08,0.03,0.16,0.03,0.24
				c0,0.86-1.09,2.04-1.09,2.04l-0.01,0.01v0.64h-0.43c0.05-0.22,0.06-0.4,0.06-0.54c0-0.15-0.02-0.24-0.02-0.25l-0.01-0.05
				l-0.05,0.01c-0.01,0-0.48,0.09-0.86,0.61c-0.12-0.19-0.28-0.39-0.44-0.58v-0.3h0.69l0.01-0.01c0.28-0.22,0.41-0.57,0.47-0.9
				H85.05z M84.6,89.45c0.02-0.01,0.48-0.23,0.75-0.75c0,0.02,0,0.04,0,0.06c0,0.99-0.93,1.89-0.93,1.89l-0.01,0.01v0.55h-0.22
				c0.02-0.14,0.03-0.28,0.03-0.39c0-0.21-0.02-0.36-0.02-0.36l-0.01-0.06l-0.06,0.02c-0.01,0-0.3,0.1-0.74,0.53
				c-0.09-0.2-0.2-0.38-0.32-0.54h0.34c0.4-0.22,0.58-0.62,0.66-0.96H84.6z M84.51,87.6l0.01-0.01c0,0,0.34-0.36,0.52-0.68
				c0,0.01,0,0.02,0,0.03c0,0.62-0.8,1.73-0.8,1.73l-0.01,0.01v0.68l-0.16,0c0.04-0.2,0.05-0.38,0.05-0.47c0-0.04,0-0.07,0-0.07
				l0-0.06l-0.05,0.01c0,0-0.52,0.1-0.8,0.43c-0.12-0.27-0.32-0.53-0.52-0.74h0.39h0.01l0.01-0.01c0.32-0.2,0.42-0.56,0.45-0.86
				H84.51z M84.23,86.34c0.26-0.13,0.47-0.46,0.57-0.66c0,0.27-0.07,0.81-0.58,1.35l-0.01,0.01v0.47h-0.59c0-0.03,0-0.07,0-0.1
				c0-0.18-0.02-0.3-0.02-0.3l-0.01-0.06l-0.05,0.02c0,0-0.35,0.12-0.55,0.41c-0.02-0.04-0.04-0.08-0.07-0.12
				c0.32-0.29,0.44-0.76,0.48-1.01H84.23z M84.13,84.93c0.18-0.07,0.37-0.37,0.48-0.55c0,0.23-0.08,0.71-0.64,1.28l-0.01,0.01v0.57
				l-0.53,0c0.01-0.04,0.01-0.08,0.01-0.08l0.01-0.07l-0.07,0.02c0,0-0.16,0.05-0.32,0.13h-0.28c0.26-0.19,0.29-0.61,0.29-0.93
				v-0.05c0.04-0.13,0.07-0.24,0.09-0.33C83.68,84.93,84.07,84.93,84.13,84.93z M83.61,84.84c-0.13,0-0.28,0-0.44,0
				c0-0.04,0.01-0.06,0.01-0.07l0-0.04l-0.04-0.01c0,0-0.04,0-0.09,0c-0.1,0-0.27,0.02-0.41,0.12c-0.01,0-0.01,0-0.02,0
				c-0.05-0.16-0.11-0.27-0.18-0.36c0.51,0,0.97,0,1.01,0C83.5,84.48,83.6,84.55,83.61,84.84z M82.21,81.47
				c0.08,0,0.2,0.03,0.23,0.53c-0.07-0.03-0.14-0.05-0.23-0.05c-0.08,0-0.16,0.02-0.23,0.06C82,81.5,82.12,81.47,82.21,81.47z
				 M82.2,82.05c0.38,0,0.54,0.36,0.56,0.75c-0.29,0-0.82,0-1.11,0C81.67,82.41,81.88,82.05,82.2,82.05z M81.43,83.11
				c0-0.06,0.01-0.13,0.02-0.17c0-0.02,0.01-0.03,0.01-0.04c0.17,0,1.31,0,1.47,0c0.03,0.06,0.04,0.32,0.04,0.42
				c-0.34,0-1.22,0-1.56,0C81.43,83.26,81.43,83.19,81.43,83.11z M81.29,83.45c0-0.02,0.01-0.03,0.01-0.04c0.18,0,1.62,0,1.8,0
				c0.03,0.06,0.04,0.32,0.04,0.42c-0.35,0-1.54,0-1.88,0c0-0.05,0-0.13,0.01-0.21C81.28,83.56,81.28,83.5,81.29,83.45z
				 M81.13,84.11c0.01-0.06,0.02-0.11,0.03-0.15c0-0.01,0.01-0.03,0.01-0.03c0.17,0,1.88,0,2.05,0c0.04,0.05,0.07,0.31,0.07,0.45
				c-0.2,0-0.56,0-0.95,0c-0.07-0.07-0.12-0.1-0.13-0.1l-0.02-0.01l-0.02,0.01c0,0-0.06,0.03-0.13,0.1c-0.39,0-0.75,0-0.95,0
				C81.11,84.31,81.12,84.2,81.13,84.11z M80.96,84.48c0.04,0,0.5,0,1.01,0c-0.06,0.08-0.13,0.2-0.18,0.36c-0.01,0-0.01,0-0.02,0
				c-0.15-0.1-0.32-0.12-0.42-0.12c-0.05,0-0.09,0-0.09,0l-0.04,0.01l0,0.04c0,0,0,0.03,0.01,0.07c-0.16,0-0.31,0-0.44,0
				C80.81,84.55,80.91,84.48,80.96,84.48z M80.45,85.66c-0.56-0.56-0.64-1.04-0.64-1.27c0.1,0.18,0.3,0.48,0.46,0.55
				c0.07,0,0.47,0,0.99,0c0.02,0.09,0.04,0.21,0.09,0.33v0.05c0,0.32,0.03,0.74,0.29,0.93h-0.28c-0.16-0.08-0.32-0.13-0.32-0.13
				l-0.07-0.02l0.01,0.07c0,0,0.01,0.03,0.01,0.08h-0.53v-0.57L80.45,85.66z M80.18,87.02c-0.51-0.54-0.58-1.08-0.58-1.35
				c0.11,0.2,0.31,0.53,0.55,0.66l0.85,0.01c0.05,0.25,0.18,0.7,0.49,0.99c-0.03,0.05-0.06,0.1-0.08,0.15
				c-0.21-0.28-0.55-0.4-0.55-0.41l-0.05-0.02L80.8,87.1c0,0-0.02,0.13-0.02,0.3c0,0.03,0,0.06,0,0.1h-0.59v-0.45v-0.02L80.18,87.02
				z M80.16,88.66c0,0-0.8-1.11-0.8-1.73c0-0.01,0-0.02,0-0.03c0.18,0.33,0.52,0.68,0.52,0.68l0.01,0.01h0.89
				c0.03,0.3,0.13,0.66,0.45,0.86l0.01,0.01h0.41c-0.2,0.21-0.4,0.47-0.52,0.74c-0.28-0.34-0.8-0.43-0.8-0.43l-0.05-0.01l0,0.05
				c0,0,0,0.03,0,0.07c0,0.09,0.01,0.27,0.04,0.47h-0.16v-0.68L80.16,88.66z M79.99,90.65c0,0-0.93-0.9-0.93-1.89
				c0-0.02,0-0.04,0-0.06c0.27,0.52,0.72,0.74,0.73,0.74l0.56,0c0.08,0.34,0.25,0.73,0.64,0.95l0.36,0
				c-0.12,0.16-0.23,0.34-0.32,0.55c-0.44-0.42-0.74-0.52-0.74-0.53l-0.05-0.02l-0.01,0.06c0,0-0.02,0.15-0.02,0.36
				c0,0.12,0.01,0.25,0.03,0.39H80v-0.55L79.99,90.65z M79.66,92.67c0,0-1.09-1.18-1.09-2.04c0-0.08,0.01-0.17,0.03-0.24
				c0.23,0.48,0.73,0.91,0.73,0.92l0.01,0.01h0.88c0.05,0.33,0.18,0.68,0.47,0.9l0.01,0.01h0.69v0.3c-0.16,0.19-0.31,0.39-0.44,0.58
				c-0.38-0.51-0.85-0.61-0.86-0.61l-0.05-0.01l-0.01,0.05c0,0-0.02,0.09-0.02,0.25c0,0.14,0.01,0.32,0.06,0.54h-0.43v-0.64
				L79.66,92.67z M79.37,94.86c0,0-1.21-1.23-1.2-2.28c0-0.08,0.01-0.15,0.02-0.22c0.43,0.66,0.84,1.05,0.85,1.05l0.01,0.01h1.08
				c0.08,0.3,0.22,0.66,0.48,1.03v0.82c-0.31-0.24-0.47-0.26-0.48-0.26l-0.04,0l-0.01,0.03c0,0-0.06,0.18-0.06,0.46
				c0,0.22,0.04,0.51,0.19,0.82c-0.29,0-0.57,0-0.81,0v-1.45L79.37,94.86z M76.97,94.44c0.01-0.02,0.01-0.02,0.01-0.02
				c0,0,0,0,0.02,0.01c0.06,0.05,0.59,0.56,0.57,0.59c0,0.1,0,0.37,0,0.69c0.01,0.35,0.29,0.7,0.53,0.71c0.06,0,0.96,0,2.15,0
				c0.1,0.19,0.24,0.4,0.44,0.6v0.06h-3.74c0-0.88,0-2.35,0-2.5C76.95,94.51,76.96,94.46,76.97,94.44z M76.37,94.53
				c0-0.14,0.01-0.23,0.02-0.27c0-0.01,0-0.01,0.01-0.02c0.09,0.08,0.39,0.31,0.46,0.36c0,0.3,0,2.92,0,3.11
				c0.01,0.23,0.45,0.93,1.07,0.94c0.19,0,1.13,0,2.32,0c0.06,0.3,0.19,0.64,0.43,0.96h-0.1v1.87h-0.66v3.18h-0.56v-5.43h-2.72
				l-0.28-0.28V94.53z M76.51,99.24h-4.98l0.57-0.57v0h4.17V99L76.51,99.24z M72.1,97.72h4.17v0.84H72.1
				C72.1,98.41,72.1,98.07,72.1,97.72z M76.27,97.13v0.5H72.1c0-0.18,0-0.36,0-0.5H76.27z M71.18,97.9v-0.02c0,0,0-0.87,0-1.03
				c0-0.05,0.02-0.07,0.1-0.09c0.08-0.02,0.2-0.02,0.33-0.02c0.13,0,0.24,0.02,0.3,0.04c0.07,0.03,0.09,0.05,0.08,0.07
				c0,0.08,0,1.37,0,1.71h-1.39L71.18,97.9z M71.08,97.13c0,0.28,0,0.65,0,0.74l-0.6,0.69h-0.44v-1.43H71.08z M68.72,94.4h0.36h0.03
				l0.85-1.28v5.44h-1.06c0.08-0.34,0.09-0.6,0.09-0.6l0-0.05h-0.05c-0.01,0-0.54,0-0.83,0.59c-0.04-0.08-0.09-0.16-0.13-0.24
				c0.42-0.45,0.47-1.06,0.48-1.33c0-0.06,0-0.09,0-0.11c0.39-0.49,0.46-1.01,0.46-1.33c0-0.18-0.02-0.3-0.02-0.3l-0.01-0.06
				l-0.06,0.03c0,0-0.1,0.05-0.24,0.13C68.66,95,68.7,94.66,68.72,94.4z M68.97,92.52c0,0.64-0.4,1.31-0.58,1.61
				c-0.15,0.1-0.32,0.25-0.43,0.4c-0.02-0.05-0.06-0.11-0.09-0.16c0.46-0.36,0.51-1.04,0.51-1.3c0-0.02,0-0.03,0-0.04
				c0.05-0.06,0.35-0.41,0.6-0.53C68.97,92.51,68.97,92.52,68.97,92.52z M66.15,94.29c-0.41-0.32-0.47-0.97-0.47-1.22
				c0-0.02,0-0.03,0-0.04c0.12,0.03,0.38,0.12,0.44,0.27l0.05,0.11l0.04-0.12c0.08-0.26,0.63-0.78,0.76-0.91
				c0.14,0.13,0.68,0.64,0.76,0.91l0.04,0.12l0.05-0.11c0.06-0.15,0.33-0.23,0.44-0.26c0,0.01,0,0.03,0,0.04
				c0,0.25-0.05,0.9-0.47,1.22c-0.29-0.43-0.8-0.92-0.8-0.92l-0.03-0.03l-0.03,0.03C66.95,93.38,66.44,93.86,66.15,94.29z
				 M66.27,90.31c0-0.04,0-0.08,0-0.1c0.08,0.03,0.21,0.09,0.22,0.17l0.04,0.14l0.05-0.14c0.03-0.09,0.3-0.4,0.39-0.51
				c0.1,0.11,0.36,0.42,0.39,0.51l0.05,0.14l0.04-0.14c0.02-0.08,0.15-0.14,0.22-0.17c0,0.03,0,0.06,0,0.1c0,0.15-0.02,0.39-0.1,0.6
				c-0.06,0.03-0.12,0.07-0.16,0.12c-0.12-0.26-0.41-0.52-0.41-0.53l-0.03-0.03l-0.03,0.03c0,0-0.3,0.27-0.41,0.53
				c-0.05-0.05-0.11-0.09-0.16-0.12C66.29,90.7,66.27,90.47,66.27,90.31z M66.51,91.15l0.06,0.1l0.03-0.11
				c0.05-0.19,0.3-0.45,0.39-0.53c0.09,0.09,0.33,0.34,0.38,0.53l0.03,0.11l0.06-0.1c0.04-0.07,0.19-0.16,0.28-0.21
				c0,0.03,0,0.08,0,0.13c0,0.23-0.03,0.6-0.17,0.78c-0.19-0.28-0.56-0.61-0.56-0.62l-0.03-0.03l-0.03,0.03c0,0-0.37,0.34-0.56,0.62
				c-0.14-0.19-0.17-0.55-0.17-0.78c0-0.05,0-0.1,0-0.13C66.31,90.99,66.47,91.08,66.51,91.15z M66.37,92.16l0.02-0.08
				c0.04-0.18,0.47-0.61,0.59-0.73c0.12,0.12,0.55,0.55,0.59,0.73l0.02,0.08l0.06-0.06c0.1-0.11,0.28-0.19,0.38-0.24
				c0,0.2-0.05,0.79-0.43,1.02c-0.25-0.3-0.58-0.6-0.59-0.6l-0.03-0.03l-0.03,0.03c0,0-0.34,0.3-0.59,0.6
				c-0.38-0.23-0.43-0.81-0.43-1.02c0.09,0.04,0.27,0.13,0.38,0.24L66.37,92.16z M68.82,91.63c0,0.45-0.27,1.04-0.29,1.09
				c-0.07,0.07-0.14,0.14-0.18,0.19l-0.04,0.01c0,0-0.35,0.06-0.51,0.25c-0.03-0.07-0.09-0.14-0.14-0.22c0.38-0.24,0.45-0.74,0.47-1
				c0.07-0.06,0.46-0.42,0.68-0.5C68.81,91.51,68.82,91.57,68.82,91.63z M68.61,90.57c0,0.53-0.18,0.97-0.2,1.02
				c-0.11,0.08-0.21,0.17-0.28,0.23c0-0.02,0-0.04,0-0.04l0-0.07l-0.06,0.02c0,0-0.25,0.09-0.42,0.24c0-0.01-0.01-0.02-0.02-0.03
				c0.19-0.22,0.21-0.62,0.22-0.87c0-0.02,0-0.03,0-0.05c0.07-0.07,0.51-0.51,0.76-0.63C68.61,90.46,68.61,90.51,68.61,90.57z
				 M68.15,90.43c0,0.09-0.01,0.17-0.02,0.2c-0.12,0.11-0.23,0.21-0.3,0.28c0-0.02,0-0.04,0-0.04l-0.01-0.07l-0.06,0.03
				c0,0-0.02,0.01-0.05,0.02c0.06-0.2,0.07-0.4,0.07-0.53c0-0.01,0-0.01,0-0.02c0.05-0.03,0.2-0.12,0.31-0.16
				C68.14,90.23,68.15,90.33,68.15,90.43z M67.95,90.09c-0.06,0.03-0.12,0.06-0.17,0.09c0-0.03,0-0.04,0-0.04l-0.01-0.05l-0.05,0.01
				c0,0-0.2,0.04-0.3,0.17c-0.12-0.19-0.4-0.5-0.41-0.51l-0.02-0.02h0.96V90.09z M66.75,88.04c0.11-0.11,0.16-0.3,0.16-0.48
				c0.01-0.17,0.04-0.17,0.08-0.18c0.04,0,0.07,0,0.08,0.18c0,0.19,0.05,0.38,0.16,0.48c0.05,0.05,0.12,0.36,0.14,0.49H66.6
				C66.62,88.4,66.69,88.08,66.75,88.04z M66.53,88.62h0.89v0.3h-0.89V88.62z M66.44,89.02h1.09v0.23h-1.09V89.02z M66.25,89.34
				l1.46,0v0.3h-1.46V89.34z M66.01,89.73h0.96l-0.02,0.02c0,0-0.29,0.32-0.41,0.51c-0.1-0.13-0.3-0.16-0.3-0.17l-0.05-0.01
				l-0.01,0.05c0,0,0,0.02,0,0.04c-0.04-0.03-0.1-0.06-0.17-0.09V89.73z M65.81,90.43c0-0.09,0.01-0.2,0.06-0.29
				c0.11,0.04,0.26,0.13,0.31,0.16c0,0.01,0,0.01,0,0.02c0,0.14,0.02,0.34,0.07,0.53c-0.03-0.01-0.05-0.02-0.05-0.02l-0.06-0.03
				l-0.01,0.07c0,0,0,0.02,0,0.04c-0.07-0.07-0.18-0.17-0.3-0.28C65.82,90.59,65.81,90.52,65.81,90.43z M65.35,90.57
				c0-0.06,0-0.11,0.01-0.17c0.25,0.12,0.7,0.57,0.76,0.64c0,0.01,0,0.03,0,0.04c0,0.25,0.03,0.65,0.22,0.87
				c-0.01,0.01-0.01,0.02-0.02,0.03c-0.17-0.14-0.42-0.24-0.42-0.24l-0.06-0.02l0,0.06c0,0,0,0.02,0,0.04
				c-0.07-0.06-0.17-0.15-0.28-0.23C65.53,91.53,65.35,91.09,65.35,90.57z M65.14,91.63c0-0.06,0.01-0.12,0.02-0.18
				c0.21,0.08,0.61,0.44,0.68,0.5c0.01,0.26,0.09,0.76,0.47,1c-0.06,0.07-0.11,0.15-0.14,0.22c-0.17-0.2-0.51-0.25-0.51-0.25
				l-0.04-0.01c-0.04-0.05-0.1-0.12-0.18-0.19C65.42,92.68,65.14,92.08,65.14,91.63z M64.99,92.52c0-0.01,0-0.01,0-0.02
				c0.24,0.12,0.55,0.47,0.6,0.53c0,0.01,0,0.02,0,0.04c0,0.26,0.04,0.94,0.51,1.3c-0.03,0.06-0.07,0.11-0.09,0.16
				c-0.11-0.15-0.29-0.29-0.43-0.4C65.39,93.83,64.99,93.16,64.99,92.52z M65.98,94.66l0.05,0.1l0.03-0.11
				c0.11-0.36,0.76-1.02,0.92-1.18c0.16,0.15,0.81,0.82,0.92,1.18l0.03,0.11l0.05-0.1c0.13-0.23,0.49-0.48,0.64-0.57
				c0,0.23-0.02,0.88-0.2,1.29c-0.12,0.09-0.25,0.2-0.35,0.33c-0.27-0.6-1.07-1.36-1.07-1.36l-0.03-0.03l-0.03,0.03
				c0,0-0.8,0.76-1.07,1.36c-0.1-0.13-0.23-0.24-0.35-0.33c-0.18-0.4-0.2-1.06-0.2-1.29C65.49,94.18,65.84,94.43,65.98,94.66z
				 M64.01,93.12l0.85,1.28h0.38c0.01,0.26,0.05,0.6,0.15,0.88c-0.13-0.08-0.24-0.13-0.24-0.13l-0.06-0.03l-0.01,0.06
				c0,0-0.02,0.12-0.02,0.3c0,0.32,0.07,0.84,0.47,1.33c0,0.02,0,0.05,0,0.11c0,0.27,0.05,0.88,0.48,1.33
				c-0.05,0.08-0.09,0.16-0.14,0.24c-0.29-0.59-0.83-0.59-0.83-0.59h-0.05l0,0.05c0,0,0.01,0.26,0.09,0.6h-1.06V93.12z M63.92,98.66
				v0.02l-0.01-0.02H63.92z M62.3,98.56c0-0.33,0-1.62,0-1.71c0-0.02,0.02-0.05,0.08-0.07c0.07-0.02,0.17-0.04,0.3-0.04
				c0.14,0,0.26,0,0.33,0.02c0.08,0.02,0.1,0.04,0.1,0.09c0,0.16,0,1.03,0,1.03v0.02l0.57,0.66H62.3z M63.38,98.06l-0.17-0.19
				c0-0.13,0-0.87,0-1.01c0-0.03-0.01-0.06-0.02-0.08l0.19,0.16V98.06z M63.08,96.68c-0.1-0.04-0.24-0.03-0.39-0.03
				c-0.28,0-0.47,0.05-0.48,0.21c0,0.08,0,1.37,0,1.71h-0.38v-2.9L63.08,96.68z M61.82,99.4v-0.74h0.38v0l1.01,1.01v5H62.5v-4.35
				L61.82,99.4z M62.36,104.76l0.77,0l-1.09,1.41h-0.77L62.36,104.76z M60.98,106.27h4.59v0.94h-4.59V106.27z M59.86,107.3h5.72
				v1.04l-5.72,0V107.3z M58.52,108.44h7.05v1.75h-7.05V108.44z M56.95,110.28h8.63v2.43h-8.63V110.28z M55.18,112.81h10.39v2.37
				H55.18V112.81z M109.22,115.18H98.83v-2.37l10.39,0V115.18z"/>
		</g>
	</g>
</g>
<g id="国名">
	<g>
		<path d="M58.53,148.14c0.15-0.65,0.26-1.23,0.33-1.75c0.06-0.45,0.29-0.67,0.71-0.67c0.49,0,0.73,0.22,0.73,0.65
			c0,0.29-0.09,0.84-0.27,1.64c0.52-0.04,1.11-0.1,1.77-0.17c0.09-0.01,0.17-0.01,0.23-0.01c0.3,0,0.56,0.08,0.77,0.23
			c0.27,0.2,0.41,0.49,0.41,0.86c0,0.13-0.05,0.52-0.14,1.16c-0.28,1.85-0.65,3.24-1.11,4.16c-0.29,0.57-0.67,0.86-1.15,0.86
			c-0.25,0-0.52-0.1-0.8-0.29c-0.83-0.58-1.25-1.02-1.25-1.3c0-0.09,0.03-0.17,0.08-0.26c0.06-0.1,0.16-0.14,0.28-0.14
			c0.13,0,0.28,0.05,0.47,0.14c0.48,0.25,0.78,0.37,0.9,0.37c0.11,0,0.2-0.08,0.29-0.23c0.26-0.49,0.5-1.25,0.73-2.28
			c0.18-0.82,0.27-1.4,0.27-1.72c0-0.16-0.07-0.24-0.21-0.24c-0.24,0-0.87,0.05-1.89,0.15c-0.71,2.13-1.82,3.79-3.33,4.97
			c-0.33,0.26-0.58,0.39-0.75,0.39c-0.14,0-0.25-0.05-0.35-0.15c-0.12-0.13-0.18-0.25-0.18-0.38c0-0.14,0.06-0.27,0.19-0.41
			c0.03-0.03,0.15-0.15,0.38-0.35c0.92-0.84,1.67-1.91,2.25-3.2c0.09-0.21,0.19-0.47,0.3-0.77c-1.17,0.13-1.85,0.19-2.05,0.19
			c-0.45,0-0.68-0.22-0.68-0.67c0-0.41,0.28-0.62,0.85-0.64C56.79,148.26,57.54,148.21,58.53,148.14z"/>
		<path d="M67.74,146.82c0.15,0,0.41,0.07,0.78,0.2c0.69,0.24,1.26,0.53,1.71,0.86c0.24,0.17,0.35,0.39,0.35,0.65
			c0,0.14-0.05,0.29-0.14,0.43c-0.14,0.21-0.33,0.32-0.56,0.32c-0.2,0-0.43-0.09-0.67-0.28c-0.62-0.49-1.18-0.88-1.68-1.16
			c-0.25-0.14-0.38-0.31-0.38-0.51C67.15,146.99,67.35,146.82,67.74,146.82z M74.86,148.59c0.13,0,0.25,0.04,0.36,0.13
			c0.15,0.11,0.23,0.26,0.23,0.45c0,0.15-0.06,0.32-0.18,0.5c-0.85,1.27-1.97,2.37-3.36,3.3c-1.16,0.77-2.35,1.32-3.59,1.66
			c-0.13,0.03-0.24,0.05-0.34,0.05c-0.31,0-0.54-0.14-0.67-0.43c-0.06-0.13-0.09-0.25-0.09-0.37c0-0.27,0.13-0.47,0.4-0.6
			c0.06-0.03,0.3-0.1,0.74-0.23c1.59-0.47,3.06-1.3,4.43-2.51c0.52-0.47,1.02-1,1.48-1.59C74.46,148.7,74.65,148.59,74.86,148.59z"
			/>
		<path d="M79.28,150.43c0.11,0,0.21,0.03,0.3,0.08c0.2,0.11,0.29,0.29,0.29,0.53c0,0.21-0.08,0.52-0.25,0.95
			c-0.25,0.66-0.54,1.17-0.86,1.52c-0.18,0.21-0.39,0.31-0.61,0.31c-0.16,0-0.3-0.05-0.44-0.15c-0.19-0.14-0.28-0.32-0.28-0.54
			c0-0.18,0.1-0.39,0.3-0.63c0.4-0.46,0.73-1.01,1.01-1.64C78.86,150.58,79.04,150.43,79.28,150.43z M81.49,148.07v-1.77
			c0-0.19,0.06-0.34,0.17-0.45c0.13-0.13,0.3-0.19,0.52-0.19c0.29,0,0.5,0.11,0.61,0.33c0.05,0.09,0.08,0.2,0.08,0.32v1.68
			l0.21-0.02l0.69-0.05l1.24-0.1c0.38-0.03,0.6-0.05,0.65-0.05c0.18,0,0.32,0.06,0.44,0.19c0.11,0.12,0.17,0.28,0.17,0.48
			c0,0.4-0.18,0.62-0.55,0.65c-0.25,0.03-1.2,0.09-2.85,0.2c0.01,1.9,0.03,3.04,0.03,3.42c0.01,0.6,0.02,1.01,0.02,1.24
			c0,0.37-0.07,0.66-0.22,0.87c-0.19,0.29-0.44,0.43-0.74,0.43c-0.15,0-0.31-0.05-0.48-0.15c-0.49-0.28-0.95-0.56-1.37-0.84
			c-0.2-0.13-0.3-0.28-0.3-0.45c0-0.08,0.02-0.16,0.07-0.24c0.08-0.15,0.21-0.23,0.4-0.23c0.08,0,0.19,0.02,0.3,0.07
			c0.46,0.18,0.73,0.27,0.81,0.27c0.1,0,0.15-0.14,0.15-0.41c0-0.01,0-0.08-0.01-0.2c-0.01-0.18-0.01-0.79-0.02-1.81
			c0-0.23-0.01-0.85-0.02-1.88l-0.22,0.02l-1.29,0.09c-0.94,0.06-1.42,0.09-1.44,0.09c-0.2,0-0.35-0.06-0.47-0.18
			c-0.11-0.11-0.16-0.27-0.16-0.46c0-0.32,0.12-0.54,0.37-0.63c0.08-0.03,0.23-0.05,0.44-0.06c0.37-0.01,1.21-0.07,2.52-0.15
			L81.49,148.07z M84.57,150.2c0.34,0,0.87,0.47,1.58,1.42c0.4,0.53,0.59,0.93,0.59,1.2c0,0.24-0.11,0.44-0.32,0.59
			c-0.16,0.12-0.33,0.17-0.49,0.17c-0.28,0-0.5-0.19-0.66-0.56c-0.28-0.68-0.64-1.31-1.05-1.91c-0.11-0.16-0.17-0.31-0.17-0.43
			c0-0.11,0.04-0.21,0.13-0.3C84.29,150.26,84.42,150.2,84.57,150.2z M85.06,145.5c0.21,0,0.54,0.21,1,0.62
			c0.39,0.35,0.58,0.63,0.58,0.84c0,0.14-0.06,0.27-0.19,0.37c-0.1,0.08-0.21,0.12-0.33,0.12c-0.17,0-0.31-0.1-0.43-0.29
			c-0.23-0.37-0.49-0.7-0.79-1.01c-0.1-0.11-0.16-0.22-0.16-0.33C84.74,145.61,84.85,145.5,85.06,145.5z M86.27,144.84
			c0.22,0,0.54,0.18,0.96,0.53c0.39,0.33,0.58,0.6,0.58,0.83c0,0.16-0.06,0.28-0.18,0.38c-0.09,0.07-0.19,0.1-0.3,0.1
			c-0.16,0-0.3-0.09-0.42-0.28c-0.2-0.3-0.47-0.61-0.79-0.92c-0.12-0.12-0.18-0.23-0.18-0.33c0-0.07,0.03-0.14,0.09-0.2
			C86.09,144.87,86.17,144.84,86.27,144.84z"/>
		<path d="M89.59,148.77c0.23,0,0.56,0.08,1.01,0.24c0.52,0.19,0.95,0.41,1.3,0.66c0.24,0.18,0.36,0.39,0.36,0.65
			c0,0.16-0.06,0.31-0.17,0.45c-0.14,0.19-0.33,0.29-0.56,0.29c-0.17,0-0.35-0.08-0.56-0.25c-0.42-0.34-0.95-0.7-1.61-1.07
			c-0.22-0.13-0.33-0.28-0.33-0.48c0-0.09,0.02-0.17,0.07-0.26C89.19,148.85,89.35,148.77,89.59,148.77z M97.46,148.4
			c0.11,0,0.21,0.03,0.32,0.09c0.18,0.11,0.28,0.27,0.28,0.48c0,0.21-0.17,0.6-0.52,1.18c-0.57,0.96-1.35,1.83-2.34,2.63
			c-1.18,0.95-2.48,1.67-3.92,2.16c-0.16,0.06-0.3,0.08-0.41,0.08c-0.29,0-0.51-0.13-0.64-0.4c-0.07-0.13-0.1-0.26-0.1-0.38
			c0-0.28,0.13-0.48,0.38-0.62c0.04-0.02,0.28-0.11,0.72-0.26c1.2-0.42,2.31-1.04,3.35-1.87c1-0.79,1.77-1.68,2.31-2.67
			C97.04,148.54,97.23,148.4,97.46,148.4z M90.93,146.26c0.34,0,0.9,0.24,1.68,0.72c0.24,0.14,0.41,0.26,0.52,0.35
			c0.21,0.17,0.32,0.38,0.32,0.61c0,0.16-0.06,0.3-0.17,0.44c-0.17,0.2-0.36,0.3-0.58,0.3c-0.19,0-0.38-0.1-0.58-0.3
			c-0.33-0.34-0.81-0.73-1.45-1.2c-0.2-0.14-0.29-0.3-0.29-0.46c0-0.09,0.03-0.18,0.08-0.26C90.56,146.33,90.71,146.26,90.93,146.26
			z M96.07,145.94c0.21,0,0.54,0.21,0.99,0.62c0.39,0.35,0.58,0.63,0.58,0.84c0,0.14-0.06,0.27-0.19,0.37
			c-0.1,0.08-0.21,0.12-0.34,0.12c-0.17,0-0.31-0.1-0.43-0.29c-0.21-0.35-0.48-0.69-0.79-1.01c-0.1-0.11-0.16-0.22-0.16-0.33
			C95.75,146.05,95.85,145.94,96.07,145.94z M97.22,145.11c0.22,0,0.54,0.18,0.96,0.53c0.39,0.32,0.58,0.6,0.58,0.82
			c0,0.17-0.06,0.29-0.18,0.38c-0.09,0.07-0.19,0.1-0.3,0.1c-0.16,0-0.3-0.09-0.42-0.28c-0.2-0.3-0.47-0.61-0.79-0.92
			c-0.12-0.11-0.18-0.22-0.18-0.33c0-0.07,0.03-0.14,0.09-0.21C97.03,145.14,97.12,145.11,97.22,145.11z"/>
		<path d="M108.34,146.52c0.24,0,0.46,0.06,0.66,0.18c0.27,0.17,0.4,0.41,0.4,0.72c0,0.2-0.08,0.44-0.25,0.74
			c-0.47,0.82-1.06,1.53-1.76,2.15c-0.39,0.34-0.7,0.51-0.91,0.51c-0.15,0-0.28-0.07-0.38-0.2c-0.07-0.1-0.11-0.19-0.11-0.28
			c0-0.15,0.09-0.31,0.28-0.49c0.56-0.54,0.99-1.08,1.28-1.63c0.08-0.15,0.12-0.25,0.12-0.3c0-0.06-0.05-0.09-0.15-0.09
			c-0.09,0-0.21,0-0.35,0.02c-0.08,0.01-0.33,0.02-0.75,0.05c-0.31,0.02-1.66,0.13-4.02,0.33c-0.8,0.07-1.23,0.1-1.29,0.1
			c-0.47,0-0.7-0.22-0.7-0.65c0-0.37,0.19-0.59,0.56-0.66c0.04-0.01,1.36-0.1,3.94-0.28C107.14,146.6,108.29,146.52,108.34,146.52z
			 M104.77,148.82c0.19,0,0.36,0.06,0.51,0.18c0.09,0.07,0.15,0.15,0.18,0.24c0.04,0.11,0.06,0.3,0.06,0.57
			c0,0.99-0.07,1.76-0.22,2.33c-0.32,1.22-1.05,2.18-2.18,2.86c-0.18,0.11-0.34,0.16-0.48,0.16c-0.17,0-0.29-0.06-0.38-0.17
			c-0.08-0.1-0.12-0.21-0.12-0.33c0-0.14,0.05-0.27,0.16-0.4c0.04-0.06,0.16-0.17,0.36-0.33c0.7-0.57,1.13-1.33,1.31-2.31
			c0.08-0.48,0.13-1.09,0.13-1.82l-0.01-0.3c0-0.28,0.1-0.47,0.31-0.59C104.51,148.85,104.64,148.82,104.77,148.82z"/>
	</g>
</g>
<g id="ガイド" display="none">
</g>
</svg>
