<?xml version="1.0" encoding="utf-8"?>
<!-- Generator: Adobe Illustrator 25.4.1, SVG Export Plug-In . SVG Version: 6.00 Build 0)  -->
<svg version="1.1" xmlns="http://www.w3.org/2000/svg" xmlns:xlink="http://www.w3.org/1999/xlink" x="0px" y="0px"
	 viewBox="0 0 164.41 252.28" enable-background="new 0 0 164.41 252.28" xml:space="preserve">
<g id="地">
	<rect fill="#DCDDDD" width="164.41" height="252.28"/>
</g>
<g id="枠">
</g>
<g id="国旗">
	<g>
		<g>
			<rect x="25.51" y="60" fill="#F5CF21" width="113.39" height="75.59"/>
			<rect x="25.51" y="60" fill="#C8152A" width="37.8" height="75.59"/>
			<rect x="101.1" y="60" fill="#118749" width="37.8" height="75.59"/>
		</g>
	</g>
</g>
<g id="国名">
	<g>
		<path d="M69.5,147.89l-0.28-1.38c-0.01-0.08-0.02-0.16-0.02-0.23c0-0.26,0.1-0.44,0.3-0.55c0.12-0.07,0.25-0.1,0.41-0.1
			c0.38,0,0.61,0.2,0.69,0.59l0.28,1.39c0.91-0.19,1.55-0.33,1.92-0.42c0.1-0.03,0.18-0.04,0.27-0.04c0.27,0,0.46,0.11,0.58,0.33
			c0.06,0.11,0.08,0.22,0.08,0.34c0,0.32-0.19,0.53-0.56,0.62c-0.27,0.07-0.88,0.2-1.84,0.39l-0.19,0.04l0.32,1.57
			c0.47-0.1,1.45-0.3,2.93-0.61c0.11-0.02,0.19-0.03,0.26-0.03c0.28,0,0.47,0.12,0.58,0.35c0.04,0.1,0.07,0.21,0.07,0.33
			c0,0.28-0.14,0.47-0.42,0.58c-0.06,0.02-0.19,0.05-0.38,0.09c-0.52,0.1-1.36,0.28-2.52,0.53l-0.26,0.06l0.55,2.77
			c0.01,0.07,0.02,0.14,0.02,0.22c0,0.28-0.11,0.47-0.32,0.58c-0.12,0.06-0.26,0.09-0.42,0.09c-0.37,0-0.6-0.21-0.68-0.63
			l-0.54-2.75l-0.23,0.05l-1.89,0.4c-0.8,0.17-1.23,0.25-1.31,0.25c-0.27,0-0.46-0.12-0.56-0.36c-0.04-0.1-0.07-0.22-0.07-0.35
			c0-0.28,0.15-0.48,0.45-0.58c0.04-0.01,0.69-0.15,1.95-0.42l1.13-0.24l0.25-0.06l-0.3-1.58l-0.17,0.03
			c-1.34,0.25-2.09,0.37-2.25,0.37c-0.41,0-0.62-0.23-0.62-0.68c0-0.37,0.25-0.58,0.74-0.65C68.05,148.15,68.73,148.03,69.5,147.89z
			 M73.89,146.05c0.21,0,0.54,0.21,1,0.62c0.39,0.35,0.58,0.63,0.58,0.83c0,0.14-0.06,0.27-0.19,0.37c-0.1,0.08-0.21,0.12-0.34,0.12
			c-0.17,0-0.31-0.1-0.43-0.29c-0.21-0.35-0.48-0.69-0.79-1.01c-0.1-0.11-0.15-0.22-0.15-0.33
			C73.57,146.15,73.67,146.05,73.89,146.05z M74.87,145.15c0.22,0,0.54,0.18,0.95,0.53c0.39,0.33,0.58,0.6,0.58,0.83
			c0,0.16-0.06,0.29-0.18,0.38c-0.09,0.07-0.19,0.1-0.3,0.1c-0.15,0-0.3-0.09-0.42-0.28c-0.2-0.31-0.46-0.62-0.79-0.92
			c-0.12-0.11-0.18-0.23-0.18-0.33c0-0.07,0.03-0.14,0.09-0.21S74.77,145.15,74.87,145.15z"/>
		<path d="M86.27,151.45c0.21,0,0.38,0.05,0.5,0.14c0.17,0.13,0.25,0.31,0.25,0.54c0,0.31-0.13,0.52-0.38,0.63
			c-0.08,0.03-0.33,0.06-0.75,0.08c-2.44,0.12-5.03,0.3-7.77,0.54c-0.08,0.01-0.15,0.01-0.19,0.01c-0.44,0-0.65-0.23-0.65-0.7
			c0-0.33,0.16-0.54,0.47-0.64c0.07-0.02,0.33-0.04,0.79-0.08C83.2,151.62,85.78,151.45,86.27,151.45z M83.97,147.44
			c0.18,0,0.34,0.06,0.47,0.18c0.13,0.12,0.2,0.29,0.2,0.5c0,0.39-0.24,0.62-0.71,0.69c-0.56,0.08-1.31,0.17-2.23,0.24
			c-0.86,0.07-1.42,0.11-1.69,0.11c-0.23,0-0.4-0.07-0.53-0.2c-0.11-0.12-0.16-0.27-0.16-0.46c0-0.31,0.12-0.52,0.36-0.62
			c0.08-0.04,0.27-0.06,0.57-0.07c1.14-0.03,2.26-0.14,3.35-0.33C83.79,147.46,83.91,147.44,83.97,147.44z"/>
		<path d="M97,146.52c0.24,0,0.46,0.06,0.66,0.18c0.27,0.17,0.4,0.41,0.4,0.72c0,0.2-0.08,0.44-0.25,0.74
			c-0.47,0.82-1.06,1.53-1.76,2.15c-0.4,0.34-0.7,0.51-0.91,0.51c-0.15,0-0.28-0.07-0.38-0.2c-0.07-0.1-0.11-0.19-0.11-0.28
			c0-0.15,0.09-0.31,0.28-0.49c0.56-0.54,0.99-1.08,1.28-1.63c0.08-0.15,0.12-0.25,0.12-0.3c0-0.06-0.05-0.09-0.15-0.09
			c-0.09,0-0.21,0-0.35,0.02c-0.08,0.01-0.33,0.02-0.75,0.05c-0.31,0.02-1.66,0.13-4.02,0.33c-0.8,0.07-1.23,0.1-1.29,0.1
			c-0.47,0-0.7-0.22-0.7-0.65c0-0.37,0.19-0.59,0.56-0.66c0.04-0.01,1.36-0.1,3.94-0.28C95.8,146.6,96.95,146.52,97,146.52z
			 M93.43,148.82c0.19,0,0.36,0.06,0.51,0.18c0.09,0.07,0.15,0.15,0.18,0.24c0.04,0.11,0.06,0.3,0.06,0.57
			c0,0.99-0.07,1.76-0.22,2.33c-0.32,1.22-1.05,2.18-2.18,2.86c-0.18,0.11-0.34,0.16-0.48,0.16c-0.17,0-0.29-0.06-0.38-0.17
			c-0.08-0.1-0.12-0.21-0.12-0.33c0-0.14,0.05-0.27,0.16-0.4c0.04-0.06,0.16-0.17,0.36-0.33c0.7-0.57,1.13-1.33,1.31-2.31
			c0.08-0.48,0.13-1.09,0.13-1.82l-0.01-0.3c0-0.28,0.1-0.47,0.31-0.59C93.18,148.85,93.3,148.82,93.43,148.82z"/>
	</g>
</g>
<g id="ガイド" display="none">
</g>
</svg>
