<?xml version="1.0" encoding="utf-8"?>
<!-- Generator: Adobe Illustrator 25.4.1, SVG Export Plug-In . SVG Version: 6.00 Build 0)  -->
<svg version="1.1" xmlns="http://www.w3.org/2000/svg" xmlns:xlink="http://www.w3.org/1999/xlink" x="0px" y="0px"
	 viewBox="0 0 164.41 252.28" enable-background="new 0 0 164.41 252.28" xml:space="preserve">
<g id="地">
	<rect fill="#DCDDDD" width="164.41" height="252.28"/>
</g>
<g id="枠">
</g>
<g id="国旗">
	<g>
		<g>
			<rect x="25.51" y="60" fill="#FFFFFF" width="113.39" height="75.59"/>
			<rect x="25.51" y="60" fill="#C8152A" width="37.8" height="75.59"/>
			<rect x="63.31" y="97.8" fill="#147F49" width="75.59" height="37.8"/>
			<rect x="63.31" y="60" fill="#F5CF21" width="75.59" height="37.8"/>
			<polygon fill="#040000" points="44.7,86.92 47.38,95.19 56.08,95.19 49.04,100.3 51.73,108.57 44.7,103.45 37.66,108.57 
				40.35,100.3 33.31,95.19 42.01,95.19 			"/>
		</g>
	</g>
</g>
<g id="国名">
	<g>
		<path d="M52.49,147.89l-0.28-1.38c-0.01-0.08-0.02-0.16-0.02-0.23c0-0.26,0.1-0.44,0.3-0.55c0.12-0.07,0.25-0.1,0.41-0.1
			c0.38,0,0.61,0.2,0.69,0.59l0.28,1.39c0.91-0.19,1.55-0.33,1.92-0.42c0.1-0.03,0.18-0.04,0.27-0.04c0.27,0,0.46,0.11,0.58,0.33
			c0.05,0.11,0.08,0.22,0.08,0.34c0,0.32-0.19,0.53-0.56,0.62c-0.27,0.07-0.88,0.2-1.84,0.39l-0.19,0.04l0.32,1.57
			c0.47-0.1,1.45-0.3,2.93-0.61c0.11-0.02,0.19-0.03,0.26-0.03c0.28,0,0.47,0.12,0.58,0.35c0.04,0.1,0.07,0.21,0.07,0.33
			c0,0.28-0.14,0.47-0.42,0.58c-0.06,0.02-0.19,0.05-0.38,0.09c-0.52,0.1-1.36,0.28-2.52,0.53l-0.26,0.06l0.55,2.77
			c0.01,0.07,0.02,0.14,0.02,0.22c0,0.28-0.11,0.47-0.32,0.58c-0.12,0.06-0.26,0.09-0.42,0.09c-0.37,0-0.6-0.21-0.68-0.63
			l-0.54-2.75l-0.23,0.05l-1.89,0.4c-0.8,0.17-1.23,0.25-1.31,0.25c-0.27,0-0.46-0.12-0.56-0.36c-0.04-0.1-0.07-0.22-0.07-0.35
			c0-0.28,0.15-0.48,0.45-0.58c0.04-0.01,0.69-0.15,1.95-0.42l1.13-0.24l0.25-0.06l-0.3-1.58l-0.17,0.03
			c-1.34,0.25-2.08,0.37-2.25,0.37c-0.41,0-0.62-0.23-0.62-0.68c0-0.37,0.25-0.58,0.74-0.65C51.05,148.15,51.72,148.03,52.49,147.89
			z M56.88,146.05c0.21,0,0.54,0.21,1,0.62c0.39,0.35,0.58,0.63,0.58,0.83c0,0.14-0.06,0.27-0.19,0.37
			c-0.1,0.08-0.21,0.12-0.34,0.12c-0.17,0-0.31-0.1-0.43-0.29c-0.21-0.35-0.48-0.69-0.79-1.01c-0.1-0.11-0.15-0.22-0.15-0.33
			C56.56,146.15,56.67,146.05,56.88,146.05z M57.87,145.15c0.22,0,0.54,0.18,0.95,0.53c0.39,0.33,0.58,0.6,0.58,0.83
			c0,0.16-0.06,0.29-0.18,0.38c-0.09,0.07-0.19,0.1-0.3,0.1c-0.16,0-0.3-0.09-0.42-0.28c-0.2-0.31-0.46-0.62-0.79-0.92
			c-0.12-0.11-0.18-0.23-0.18-0.33c0-0.07,0.03-0.14,0.09-0.21C57.68,145.18,57.76,145.15,57.87,145.15z"/>
		<path d="M69.26,151.45c0.21,0,0.38,0.05,0.5,0.14c0.17,0.13,0.25,0.31,0.25,0.54c0,0.31-0.13,0.52-0.38,0.63
			c-0.08,0.03-0.33,0.06-0.75,0.08c-2.44,0.12-5.03,0.3-7.77,0.54c-0.08,0.01-0.15,0.01-0.19,0.01c-0.44,0-0.65-0.23-0.65-0.7
			c0-0.33,0.16-0.54,0.47-0.64c0.07-0.02,0.33-0.04,0.79-0.08C66.2,151.62,68.77,151.45,69.26,151.45z M66.96,147.44
			c0.18,0,0.34,0.06,0.47,0.18c0.13,0.12,0.2,0.29,0.2,0.5c0,0.39-0.24,0.62-0.71,0.69c-0.56,0.08-1.31,0.17-2.23,0.24
			c-0.86,0.07-1.42,0.11-1.69,0.11c-0.23,0-0.4-0.07-0.53-0.2c-0.11-0.12-0.16-0.27-0.16-0.46c0-0.31,0.12-0.52,0.36-0.62
			c0.08-0.04,0.28-0.06,0.57-0.07c1.14-0.03,2.26-0.14,3.35-0.33C66.79,147.46,66.91,147.44,66.96,147.44z"/>
		<path d="M79.99,146.52c0.24,0,0.46,0.06,0.66,0.18c0.27,0.17,0.4,0.41,0.4,0.72c0,0.2-0.08,0.44-0.25,0.74
			c-0.47,0.82-1.06,1.53-1.76,2.15c-0.4,0.34-0.7,0.51-0.91,0.51c-0.15,0-0.28-0.07-0.38-0.2c-0.07-0.1-0.11-0.19-0.11-0.28
			c0-0.15,0.09-0.31,0.28-0.49c0.56-0.54,0.99-1.08,1.28-1.63c0.08-0.15,0.12-0.25,0.12-0.3c0-0.06-0.05-0.09-0.15-0.09
			c-0.09,0-0.21,0-0.35,0.02c-0.08,0.01-0.33,0.02-0.75,0.05c-0.31,0.02-1.66,0.13-4.03,0.33c-0.8,0.07-1.23,0.1-1.29,0.1
			c-0.47,0-0.7-0.22-0.7-0.65c0-0.37,0.19-0.59,0.57-0.66c0.04-0.01,1.36-0.1,3.94-0.28C78.79,146.6,79.94,146.52,79.99,146.52z
			 M76.42,148.82c0.19,0,0.36,0.06,0.51,0.18c0.09,0.07,0.15,0.15,0.18,0.24c0.04,0.11,0.06,0.3,0.06,0.57
			c0,0.99-0.07,1.76-0.22,2.33c-0.32,1.22-1.05,2.18-2.18,2.86c-0.18,0.11-0.34,0.16-0.48,0.16c-0.17,0-0.29-0.06-0.38-0.17
			c-0.08-0.1-0.12-0.21-0.12-0.33c0-0.14,0.05-0.27,0.16-0.4c0.04-0.06,0.16-0.17,0.36-0.33c0.7-0.57,1.13-1.33,1.31-2.31
			c0.08-0.48,0.13-1.09,0.13-1.82l-0.01-0.3c0-0.28,0.1-0.47,0.31-0.59C76.17,148.85,76.29,148.82,76.42,148.82z"/>
		<path d="M85.83,150.13v2.09c0,0.4,0.15,0.64,0.45,0.72c0.29,0.08,0.79,0.12,1.5,0.12c0.97,0,1.95-0.07,2.95-0.19
			c0.07-0.01,0.12-0.01,0.16-0.01c0.23,0,0.41,0.1,0.53,0.29c0.09,0.14,0.13,0.31,0.13,0.49c0,0.35-0.21,0.56-0.63,0.63
			c-0.53,0.08-1.61,0.12-3.23,0.12c-0.84,0-1.43-0.03-1.77-0.1c-0.61-0.12-1.03-0.39-1.26-0.79c-0.16-0.27-0.24-0.63-0.24-1.07
			v-5.82c0-0.4,0.23-0.6,0.7-0.6s0.7,0.2,0.7,0.6v2.28c1.74-0.27,3.12-0.51,4.15-0.73c0.13-0.03,0.24-0.04,0.33-0.04
			c0.3,0,0.51,0.12,0.62,0.35c0.05,0.11,0.08,0.24,0.08,0.37c0,0.35-0.2,0.57-0.6,0.64c-0.54,0.11-1.95,0.31-4.24,0.62L85.83,150.13
			z M90.66,146.2c0.21,0,0.54,0.21,1,0.62c0.39,0.35,0.58,0.63,0.58,0.83c0,0.15-0.06,0.28-0.19,0.38c-0.1,0.08-0.22,0.12-0.34,0.12
			c-0.17,0-0.31-0.1-0.43-0.29c-0.22-0.36-0.48-0.7-0.79-1.01c-0.1-0.11-0.16-0.22-0.16-0.33C90.34,146.31,90.45,146.2,90.66,146.2z
			 M91.65,145.31c0.22,0,0.54,0.17,0.96,0.53c0.39,0.33,0.58,0.6,0.58,0.83c0,0.16-0.06,0.29-0.18,0.38c-0.09,0.07-0.19,0.1-0.3,0.1
			c-0.16,0-0.3-0.09-0.42-0.28c-0.21-0.31-0.48-0.62-0.79-0.92c-0.12-0.11-0.18-0.22-0.18-0.33c0-0.07,0.03-0.14,0.09-0.21
			C91.46,145.34,91.55,145.31,91.65,145.31z"/>
		<path d="M100.47,148.32v-1.89c0-0.19,0.06-0.34,0.17-0.45c0.13-0.13,0.31-0.19,0.53-0.19c0.31,0,0.52,0.11,0.64,0.33
			c0.05,0.09,0.07,0.19,0.07,0.32v1.78c0.63-0.04,1.15-0.08,1.55-0.12c0.06-0.01,0.11-0.01,0.16-0.01c0.43,0,0.64,0.21,0.64,0.62
			c0,0.33-0.11,0.53-0.34,0.62c-0.07,0.03-0.21,0.05-0.4,0.07l-1.13,0.08l-0.35,0.02l-0.13,0.01c-0.07,1.3-0.25,2.34-0.56,3.12
			c-0.39,0.97-1.06,1.78-2,2.42c-0.19,0.13-0.37,0.19-0.53,0.19c-0.16,0-0.29-0.06-0.38-0.18c-0.08-0.11-0.13-0.22-0.13-0.33
			c0-0.13,0.04-0.24,0.12-0.34c0.04-0.05,0.17-0.17,0.39-0.35c0.73-0.6,1.22-1.48,1.47-2.62c0.1-0.48,0.17-1.08,0.21-1.8l-0.21,0.02
			c-0.72,0.05-1.39,0.1-2.01,0.15l-0.17,0.02v1.73c0,0.14-0.03,0.26-0.1,0.37c-0.12,0.19-0.32,0.28-0.59,0.28
			c-0.3,0-0.5-0.11-0.61-0.33c-0.05-0.09-0.07-0.2-0.07-0.32v-1.63l-0.12,0.01c-0.79,0.05-1.29,0.09-1.5,0.11
			c-0.1,0.01-0.17,0.01-0.22,0.01c-0.44,0-0.65-0.22-0.65-0.67c0-0.28,0.1-0.47,0.3-0.58c0.09-0.05,0.22-0.08,0.4-0.08
			c0.05,0,0.34-0.02,0.85-0.05l0.77-0.04l0.18-0.01v-1.7c0-0.16,0.04-0.29,0.12-0.39c0.12-0.16,0.31-0.24,0.56-0.24
			c0.3,0,0.51,0.11,0.62,0.32c0.05,0.09,0.07,0.2,0.07,0.32v1.61C98.98,148.43,99.78,148.37,100.47,148.32z"/>
		<path d="M109.76,147.67v-1.46c0-0.2,0.06-0.37,0.18-0.49c0.13-0.13,0.3-0.19,0.51-0.19c0.29,0,0.49,0.11,0.62,0.33
			c0.05,0.1,0.08,0.22,0.08,0.35v1.38l0.18-0.01c1.3-0.08,2.03-0.13,2.18-0.14c0.08-0.01,0.14-0.01,0.19-0.01
			c0.33,0,0.58,0.11,0.77,0.32c0.18,0.21,0.27,0.49,0.27,0.84c0,0.29-0.06,0.69-0.18,1.21c-0.29,1.23-0.79,2.28-1.5,3.15
			c-0.56,0.68-1.24,1.26-2.04,1.76c-0.54,0.34-0.93,0.51-1.16,0.51c-0.2,0-0.34-0.07-0.43-0.19c-0.07-0.1-0.11-0.21-0.11-0.33
			c0-0.17,0.07-0.31,0.21-0.43c0.04-0.03,0.15-0.1,0.34-0.22c0.79-0.48,1.49-1.1,2.1-1.87c0.41-0.52,0.73-1.12,0.95-1.81
			c0.19-0.58,0.28-1.06,0.28-1.46c0-0.13-0.07-0.2-0.2-0.2c-0.08,0-0.19,0-0.32,0.02c-0.79,0.08-2.4,0.18-4.81,0.3l0.17,1.74
			c0,0.04,0.01,0.07,0.01,0.09c0.02,0.3-0.13,0.5-0.44,0.6c-0.1,0.03-0.2,0.05-0.3,0.05c-0.23,0-0.4-0.08-0.53-0.25
			c-0.06-0.09-0.1-0.19-0.11-0.3l-0.27-2.69c-0.01-0.06-0.01-0.1-0.01-0.13c0-0.44,0.24-0.65,0.73-0.65c0.28,0,0.47,0.1,0.58,0.3
			l0.12-0.01l0.57-0.03C109.12,147.71,109.57,147.68,109.76,147.67z"/>
	</g>
</g>
<g id="ガイド" display="none">
</g>
</svg>
