<?xml version="1.0" encoding="utf-8"?>
<!-- Generator: Adobe Illustrator 25.4.1, SVG Export Plug-In . SVG Version: 6.00 Build 0)  -->
<svg version="1.1" xmlns="http://www.w3.org/2000/svg" xmlns:xlink="http://www.w3.org/1999/xlink" x="0px" y="0px"
	 viewBox="0 0 164.41 252.28" enable-background="new 0 0 164.41 252.28" xml:space="preserve">
<g id="地">
	<rect fill="#DCDDDD" width="164.41" height="252.28"/>
</g>
<g id="枠">
</g>
<g id="国旗">
	<g>
		<g>
			<rect x="25.51" y="60" fill="#FFFFFF" width="113.39" height="75.59"/>
			<path fill="#F5A118" d="M112.59,72.23c0,0-4.26,3.91-5.35,5.14c-1.1,1.22-2.82,4.11-5.15,5.09c-2,0.84-4.06,1.42-4.96,1.64
				c-0.9,0.23-0.97,1.68,0.26,3.19c1.22,1.51,1.71,2.26,1.74,2.87c0.03,0.61,2.42,3.87,2.03,4.03c-0.39,0.16-3.93,0.48-4.64,0.29
				c-0.71-0.19-2.9-1.64-3.83-1.77c-0.93-0.13-2.9-0.16-3.13,1.64c-0.23,1.8-0.52,4.93-2.77,6.89c-2.26,1.97-5.41,3.51-9.6,3.54
				c-4.19,0.03-5.96,0.06-6.19,0.06c-0.23,0,0,1.97,0.06,2.13c0.06,0.16,0.26,0.58-0.23,0.52c-0.48-0.06-2.32-0.1-2.61-0.1
				c-0.29,0-0.84-2.38-2-2.87c-1.16-0.48-3.83-0.55-4.77-1c-0.93-0.45-3.7-2.13-5.32-5.32c-1.61-3.19-3.25-10.63-3.51-14.14
				c0,0,2.74,3.45,3.96,3.93c1.22,0.48,2.58,0.35,2.84,0c0.26-0.35,1.71-2.93,2.71-2.96c1-0.03,4.35,1.84,4.96,2.22
				c0.61,0.39,2.48-0.06,2.48-0.93c0-0.87-0.23-6.09-0.23-6.25c0-0.16,0.19-0.35,0.87,0.48c0.68,0.84,2.74,3.25,5.19,3.51
				c2.45,0.26,6.86,0.03,7.57-0.29c0.71-0.32,4.48-2.67,5.7-3.29c1.22-0.61,6.06-0.74,7.38-1.13
				C97.38,78.98,110.6,73.04,112.59,72.23z"/>
			<path fill="#247741" d="M84.51,117.1c0,0-0.45-3.15,1.3-3.85C85.81,113.25,86.56,116.85,84.51,117.1z"/>
			<path fill="#247741" d="M87.39,116.02c0,0-0.45-3.15,1.3-3.85C88.69,112.17,89.44,115.77,87.39,116.02z"/>
			<path fill="#247741" d="M89.74,114.9c0,0-0.45-3.15,1.3-3.85C91.04,111.05,91.79,114.65,89.74,114.9z"/>
			<path fill="#247741" d="M92.04,113.85c0,0-0.45-3.15,1.3-3.85C93.34,110,94.09,113.6,92.04,113.85z"/>
			<path fill="#247741" d="M84.86,117.5c0,0,0.77,1.82,3.73,1.82C88.59,119.32,87.16,117.02,84.86,117.5z"/>
			<path fill="#247741" d="M87.81,116.41c0,0,0.77,1.82,3.72,1.82C91.53,118.23,90.11,115.94,87.81,116.41z"/>
			<path fill="#247741" d="M90.21,115.17c0,0,0.46,1.64,3.73,1.48C93.94,116.64,92.28,114.64,90.21,115.17z"/>
			<path fill="#247741" d="M92.61,114.32c0,0,1.35-1.22,3.63,0.2C96.24,114.52,94.08,115.68,92.61,114.32z"/>
			<path fill="#247741" d="M94.39,112.22c0,0,0.18-2.65,2.58-3.38C96.96,108.84,96.56,111.92,94.39,112.22z"/>
			<path fill="#247741" d="M79.79,119.38c-0.78,0.02-4.02,2.29-4.02,2.29l-0.23-0.13c0.87-0.95,3.53-2.38,3.53-2.38l-1.78-0.95
				c-1.4,2.13-3.43,1.93-3.43,1.93c0.22-1.57,3.07-2.26,3.07-2.26c-1.12-1.28-0.54-3.79-0.54-3.79c2.1,1.55,0.95,3.74,0.95,3.74
				l2.44,1.16l2.44-1.16c0,0-1.15-2.19,0.95-3.74c0,0,0.58,2.51-0.54,3.79c0,0,2.84,0.69,3.07,2.26c0,0-2.03,0.2-3.43-1.93
				l-1.77,0.95c0,0,2.65,1.43,3.53,2.38l-0.22,0.13C83.81,121.67,80.57,119.4,79.79,119.38z"/>
			<path fill="#247741" d="M75.08,117.1c0,0,0.45-3.15-1.3-3.85C73.78,113.25,73.03,116.85,75.08,117.1z"/>
			<path fill="#247741" d="M72.2,116.02c0,0,0.45-3.15-1.3-3.85C70.9,112.17,70.15,115.77,72.2,116.02z"/>
			<path fill="#247741" d="M69.85,114.9c0,0,0.45-3.15-1.3-3.85C68.55,111.05,67.8,114.65,69.85,114.9z"/>
			<path fill="#247741" d="M67.55,113.85c0,0,0.45-3.15-1.3-3.85C66.25,110,65.5,113.6,67.55,113.85z"/>
			<path fill="#247741" d="M74.73,117.5c0,0-0.77,1.82-3.72,1.82C71,119.32,72.42,117.02,74.73,117.5z"/>
			<path fill="#247741" d="M71.78,116.41c0,0-0.77,1.82-3.72,1.82C68.06,118.23,69.48,115.94,71.78,116.41z"/>
			<path fill="#247741" d="M69.38,115.17c0,0-0.46,1.64-3.73,1.48C65.65,116.64,67.31,114.64,69.38,115.17z"/>
			<path fill="#247741" d="M66.98,114.32c0,0-1.35-1.22-3.63,0.2C63.35,114.52,65.51,115.68,66.98,114.32z"/>
			<path fill="#247741" d="M65.2,112.22c0,0-0.18-2.65-2.58-3.38C62.63,108.84,63.03,111.92,65.2,112.22z"/>
		</g>
	</g>
</g>
<g id="国名">
	<g>
		<path d="M63.94,147.89l-0.28-1.38c-0.01-0.08-0.02-0.16-0.02-0.23c0-0.26,0.1-0.44,0.3-0.55c0.12-0.07,0.25-0.1,0.41-0.1
			c0.38,0,0.61,0.2,0.69,0.59l0.28,1.39c0.91-0.19,1.55-0.33,1.92-0.42c0.1-0.03,0.18-0.04,0.27-0.04c0.27,0,0.46,0.11,0.58,0.33
			c0.05,0.11,0.08,0.22,0.08,0.34c0,0.32-0.19,0.53-0.56,0.62c-0.27,0.07-0.88,0.2-1.84,0.39l-0.19,0.04l0.32,1.57
			c0.47-0.1,1.45-0.3,2.93-0.61c0.11-0.02,0.19-0.03,0.26-0.03c0.28,0,0.47,0.12,0.58,0.35c0.04,0.1,0.07,0.21,0.07,0.33
			c0,0.28-0.14,0.47-0.42,0.58c-0.06,0.02-0.19,0.05-0.38,0.09c-0.52,0.1-1.36,0.28-2.52,0.53l-0.26,0.06l0.55,2.77
			c0.01,0.07,0.02,0.14,0.02,0.22c0,0.28-0.11,0.47-0.32,0.58c-0.12,0.06-0.26,0.09-0.42,0.09c-0.37,0-0.6-0.21-0.68-0.63
			l-0.54-2.75l-0.23,0.05l-1.89,0.4c-0.8,0.17-1.23,0.25-1.31,0.25c-0.27,0-0.46-0.12-0.56-0.36c-0.04-0.1-0.07-0.22-0.07-0.35
			c0-0.28,0.15-0.48,0.45-0.58c0.04-0.01,0.69-0.15,1.95-0.42l1.13-0.24l0.25-0.06l-0.3-1.58l-0.17,0.03
			c-1.34,0.25-2.08,0.37-2.25,0.37c-0.41,0-0.62-0.23-0.62-0.68c0-0.37,0.25-0.58,0.74-0.65C62.49,148.15,63.17,148.03,63.94,147.89
			z"/>
		<path d="M78.74,146.99c0.35,0,0.64,0.11,0.86,0.33c0.19,0.19,0.29,0.44,0.29,0.74c0,0.21-0.06,0.54-0.17,0.99s-0.23,0.85-0.37,1.2
			c-0.7,1.79-1.85,3.18-3.46,4.16c-0.64,0.39-1.1,0.59-1.38,0.59c-0.18,0-0.32-0.07-0.41-0.22c-0.07-0.11-0.1-0.21-0.1-0.32
			c0-0.2,0.13-0.38,0.38-0.52c1.08-0.62,1.96-1.43,2.65-2.42c0.61-0.87,1.03-1.82,1.26-2.85c0.02-0.08,0.03-0.14,0.03-0.19
			c0-0.09-0.05-0.13-0.15-0.13c-0.08,0-0.18,0.01-0.3,0.02c-0.21,0.02-1.16,0.08-2.86,0.2c-0.63,0.04-1.32,0.1-2.06,0.16
			c-0.07,0.01-0.13,0.01-0.16,0.01c-0.46,0-0.69-0.24-0.69-0.71c0-0.36,0.17-0.57,0.51-0.64c0.16-0.03,1.81-0.14,4.96-0.33
			c0.31-0.02,0.56-0.04,0.73-0.05C78.52,147,78.67,146.99,78.74,146.99z M80.87,144.88c0.21,0,0.41,0.05,0.61,0.16
			c0.21,0.11,0.37,0.28,0.49,0.48c0.11,0.2,0.17,0.41,0.17,0.63c0,0.33-0.11,0.61-0.34,0.86c-0.25,0.28-0.56,0.42-0.94,0.42
			c-0.17,0-0.34-0.04-0.5-0.11c-0.21-0.1-0.39-0.24-0.52-0.43c-0.16-0.23-0.24-0.47-0.24-0.74c0-0.45,0.19-0.81,0.58-1.06
			C80.38,144.95,80.61,144.88,80.87,144.88z M80.86,145.55c-0.11,0-0.21,0.03-0.32,0.09c-0.19,0.12-0.28,0.29-0.28,0.51
			c0,0.15,0.05,0.28,0.15,0.39c0.12,0.14,0.27,0.21,0.45,0.21c0.1,0,0.19-0.02,0.27-0.07c0.22-0.11,0.33-0.29,0.33-0.53
			c0-0.19-0.07-0.34-0.22-0.47C81.14,145.6,81.01,145.55,80.86,145.55z"/>
		<path d="M84.98,147.57l0.38-0.03c3.25-0.24,5-0.37,5.24-0.37c0.33,0,0.61,0.11,0.83,0.33c0.21,0.2,0.31,0.46,0.31,0.78
			c0,0.21-0.21,1.41-0.62,3.59l-0.05,0.28c0.25,0.1,0.38,0.33,0.38,0.67c0,0.33-0.17,0.53-0.5,0.6c-0.06,0.01-0.22,0.02-0.48,0.02
			c-1.92,0-3.48,0.05-4.67,0.16c-0.1,0.31-0.34,0.47-0.74,0.47c-0.28,0-0.48-0.14-0.58-0.43c-0.02-0.07-0.05-0.26-0.08-0.58
			c-0.07-0.67-0.26-2.02-0.55-4.07c-0.08-0.58-0.13-0.9-0.13-0.96c0-0.3,0.13-0.5,0.39-0.61c0.12-0.05,0.25-0.08,0.39-0.08
			C84.69,147.33,84.85,147.41,84.98,147.57z M89.76,152.12c0.18-1.05,0.34-2.14,0.5-3.27c0.01-0.07,0.02-0.12,0.02-0.16
			c0-0.13-0.07-0.19-0.22-0.19c-0.23,0-1.43,0.09-3.6,0.26c-0.41,0.03-0.81,0.07-1.22,0.09c0.15,1.33,0.29,2.48,0.43,3.47l0.36-0.02
			C87.62,152.22,88.87,152.15,89.76,152.12z"/>
		<path d="M99.37,151.75c-1.04,1.06-2.12,1.91-3.23,2.56c-0.46,0.27-0.78,0.4-0.94,0.4c-0.2,0-0.35-0.09-0.45-0.27
			c-0.06-0.1-0.09-0.19-0.09-0.27c0-0.16,0.08-0.31,0.23-0.44c0.04-0.03,0.17-0.12,0.39-0.27c0.89-0.57,1.83-1.33,2.8-2.28
			c0.98-0.97,1.7-1.92,2.17-2.86c0.08-0.16,0.12-0.27,0.12-0.32c0-0.07-0.04-0.1-0.11-0.1c-0.05,0-0.13,0.01-0.25,0.03
			c-0.22,0.03-1.08,0.1-2.58,0.22c-0.26,0.02-0.48,0.04-0.67,0.05c-0.07,0.01-0.13,0.01-0.17,0.01c-0.3,0-0.5-0.11-0.62-0.33
			c-0.05-0.1-0.07-0.21-0.07-0.33c0-0.31,0.15-0.51,0.44-0.6c0.09-0.03,0.28-0.05,0.59-0.07c1.04-0.04,2.36-0.15,3.96-0.33
			c0.07-0.01,0.13-0.01,0.18-0.01c0.32,0,0.58,0.09,0.77,0.28c0.18,0.17,0.27,0.38,0.27,0.64c0,0.2-0.1,0.49-0.29,0.9
			c-0.38,0.79-0.94,1.64-1.68,2.55c1.22,0.76,2.17,1.47,2.85,2.14c0.31,0.3,0.46,0.58,0.46,0.83c0,0.19-0.07,0.36-0.22,0.51
			c-0.15,0.16-0.32,0.23-0.52,0.23c-0.2,0-0.37-0.07-0.52-0.22c-0.02-0.02-0.08-0.09-0.19-0.21
			C101.23,153.39,100.35,152.57,99.37,151.75z"/>
	</g>
</g>
<g id="ガイド" display="none">
</g>
</svg>
