<?xml version="1.0" encoding="utf-8"?>
<!-- Generator: Adobe Illustrator 25.4.1, SVG Export Plug-In . SVG Version: 6.00 Build 0)  -->
<svg version="1.1" xmlns="http://www.w3.org/2000/svg" xmlns:xlink="http://www.w3.org/1999/xlink" x="0px" y="0px"
	 viewBox="0 0 164.41 252.28" enable-background="new 0 0 164.41 252.28" xml:space="preserve">
<g id="地">
	<rect fill="#DCDDDD" width="164.41" height="252.28"/>
</g>
<g id="枠">
</g>
<g id="国旗">
	<g>
		<g>
			<rect x="25.51" y="60" fill="#FFFFFF" width="113.39" height="75.59"/>
			<rect x="25.51" y="120.66" fill="#1054A5" width="113.39" height="14.93"/>
			<rect x="25.51" y="60" fill="#1054A5" width="113.39" height="15.17"/>
			<rect x="25.51" y="90.33" fill="#1054A5" width="113.39" height="15.16"/>
			<polygon fill="#C8152A" points="85.69,97.8 25.51,60 25.51,135.59 			"/>
			<polygon fill="#FFFFFF" points="47.47,86.22 50.07,94.22 58.48,94.22 51.67,99.16 54.27,107.16 47.47,102.21 40.67,107.16 
				43.27,99.16 36.47,94.22 44.87,94.22 			"/>
		</g>
	</g>
</g>
<g id="国名">
	<g>
		<path d="M63.94,147.89l-0.28-1.38c-0.01-0.08-0.02-0.16-0.02-0.23c0-0.26,0.1-0.44,0.3-0.55c0.12-0.07,0.25-0.1,0.41-0.1
			c0.38,0,0.61,0.2,0.69,0.59l0.28,1.39c0.91-0.19,1.55-0.33,1.92-0.42c0.1-0.03,0.18-0.04,0.27-0.04c0.27,0,0.46,0.11,0.58,0.33
			c0.05,0.11,0.08,0.22,0.08,0.34c0,0.32-0.19,0.53-0.56,0.62c-0.27,0.07-0.88,0.2-1.84,0.39l-0.19,0.04l0.32,1.57
			c0.47-0.1,1.45-0.3,2.93-0.61c0.11-0.02,0.19-0.03,0.26-0.03c0.28,0,0.47,0.12,0.58,0.35c0.04,0.1,0.07,0.21,0.07,0.33
			c0,0.28-0.14,0.47-0.42,0.58c-0.06,0.02-0.19,0.05-0.38,0.09c-0.52,0.1-1.36,0.28-2.52,0.53l-0.26,0.06l0.55,2.77
			c0.01,0.07,0.02,0.14,0.02,0.22c0,0.28-0.11,0.47-0.32,0.58c-0.12,0.06-0.26,0.09-0.42,0.09c-0.37,0-0.6-0.21-0.68-0.63
			l-0.54-2.75l-0.23,0.05l-1.89,0.4c-0.8,0.17-1.23,0.25-1.31,0.25c-0.27,0-0.46-0.12-0.56-0.36c-0.04-0.1-0.07-0.22-0.07-0.35
			c0-0.28,0.15-0.48,0.45-0.58c0.04-0.01,0.69-0.15,1.95-0.42l1.13-0.24l0.25-0.06l-0.3-1.58l-0.17,0.03
			c-1.34,0.25-2.08,0.37-2.25,0.37c-0.41,0-0.62-0.23-0.62-0.68c0-0.37,0.25-0.58,0.74-0.65C62.49,148.15,63.17,148.03,63.94,147.89
			z"/>
		<path d="M76.88,152.74c0.21-1.23,0.31-1.97,0.31-2.21c0-0.11-0.05-0.16-0.14-0.16c-0.04,0-0.1,0-0.18,0.01
			c-0.25,0.03-0.69,0.06-1.32,0.11c-0.38,0.03-0.67,0.05-0.88,0.08c-0.06,0.01-0.11,0.01-0.15,0.01c-0.19,0-0.34-0.07-0.45-0.22
			c-0.07-0.1-0.11-0.23-0.11-0.38c0-0.29,0.13-0.48,0.39-0.56c0.06-0.02,0.19-0.03,0.39-0.04l1.28-0.1c0.96-0.07,1.47-0.1,1.54-0.1
			c0.38,0,0.66,0.15,0.82,0.44c0.07,0.14,0.11,0.29,0.11,0.46c0,0.07-0.01,0.17-0.03,0.32c-0.02,0.13-0.05,0.34-0.09,0.63
			c-0.07,0.47-0.14,0.95-0.21,1.44l-0.03,0.21l0.12-0.01c0.86-0.05,1.34-0.08,1.44-0.09c0.04,0,0.07-0.01,0.08-0.01
			c0.13,0,0.25,0.04,0.34,0.12c0.14,0.11,0.21,0.27,0.21,0.48c0,0.32-0.14,0.51-0.42,0.57c-0.04,0.01-1.3,0.09-3.77,0.24
			c-2.03,0.12-3.07,0.18-3.1,0.18c-0.23,0-0.39-0.09-0.49-0.28c-0.04-0.09-0.07-0.19-0.07-0.31c0-0.21,0.07-0.37,0.22-0.48
			c0.11-0.08,0.31-0.13,0.6-0.13c0.06,0,1.15-0.07,3.28-0.19L76.88,152.74z"/>
		<path d="M91.31,149.33c0.23,0,0.42,0.07,0.55,0.22c0.11,0.12,0.17,0.28,0.17,0.48c0,0.37-0.18,0.59-0.53,0.66
			c-0.09,0.02-1.34,0.08-3.74,0.19c-1.1,0.05-2.27,0.11-3.5,0.17c-0.04,0-0.09,0-0.13,0c-0.21,0-0.38-0.06-0.52-0.18
			c-0.14-0.13-0.22-0.3-0.22-0.51c0-0.3,0.13-0.51,0.4-0.63c0.11-0.04,0.37-0.07,0.79-0.09c0.37-0.01,1.29-0.05,2.77-0.13
			c0.63-0.03,1.5-0.07,2.59-0.12c0.37-0.01,0.66-0.03,0.87-0.04C91.09,149.33,91.25,149.33,91.31,149.33z"/>
		<path d="M97.27,148.33c0.11,0,0.22,0.02,0.32,0.07c0.29,0.13,0.44,0.35,0.44,0.65c0,0.27-0.17,0.73-0.51,1.37
			c-0.46,0.88-1.03,1.65-1.72,2.32c-0.5,0.49-0.87,0.74-1.12,0.74c-0.14,0-0.27-0.06-0.38-0.19c-0.09-0.1-0.14-0.21-0.14-0.34
			c0-0.15,0.08-0.32,0.23-0.49c0.9-0.99,1.62-2.18,2.14-3.59C96.67,148.51,96.92,148.33,97.27,148.33z M100.87,148.1
			c0.18,0,0.39,0.12,0.63,0.35c0.58,0.56,1.14,1.25,1.68,2.07c0.61,0.91,0.91,1.54,0.91,1.9c0,0.27-0.12,0.48-0.35,0.63
			c-0.15,0.09-0.29,0.14-0.43,0.14c-0.29,0-0.51-0.13-0.65-0.38c-0.01-0.03-0.07-0.13-0.16-0.32c-0.65-1.38-1.34-2.54-2.06-3.46
			c-0.1-0.12-0.15-0.26-0.15-0.42c0-0.15,0.06-0.27,0.17-0.37C100.59,148.15,100.72,148.1,100.87,148.1z M102.04,146.57
			c0.21,0,0.54,0.21,0.99,0.62c0.39,0.35,0.58,0.63,0.58,0.83c0,0.14-0.06,0.27-0.19,0.37c-0.1,0.08-0.21,0.12-0.33,0.12
			c-0.17,0-0.31-0.1-0.43-0.29c-0.21-0.34-0.47-0.68-0.79-1.01c-0.1-0.11-0.16-0.22-0.16-0.33
			C101.72,146.67,101.83,146.57,102.04,146.57z M103.02,145.68c0.22,0,0.54,0.18,0.96,0.53c0.39,0.32,0.58,0.6,0.58,0.83
			c0,0.16-0.06,0.28-0.18,0.38c-0.09,0.07-0.19,0.1-0.3,0.1c-0.16,0-0.3-0.09-0.42-0.28c-0.2-0.3-0.46-0.61-0.79-0.92
			c-0.12-0.11-0.18-0.22-0.18-0.33c0-0.07,0.03-0.14,0.09-0.21C102.84,145.71,102.92,145.68,103.02,145.68z"/>
	</g>
</g>
<g id="ガイド" display="none">
</g>
</svg>
