<?xml version="1.0" encoding="utf-8"?>
<!-- Generator: Adobe Illustrator 25.4.1, SVG Export Plug-In . SVG Version: 6.00 Build 0)  -->
<svg version="1.1" xmlns="http://www.w3.org/2000/svg" xmlns:xlink="http://www.w3.org/1999/xlink" x="0px" y="0px"
	 viewBox="0 0 164.41 252.28" enable-background="new 0 0 164.41 252.28" xml:space="preserve">
<g id="地">
	<rect fill="#DCDDDD" width="164.41" height="252.28"/>
</g>
<g id="枠">
</g>
<g id="国旗">
	<g>
		<g>
			<rect x="25.51" y="60.33" fill="#FFFFFF" width="113.39" height="75.59"/>
			<rect x="25.51" y="127.64" fill="#106E9D" width="113.39" height="8.28"/>
			<rect x="25.51" y="110.79" fill="#106E9D" width="113.39" height="8.42"/>
			<polygon fill="#106E9D" points="138.9,60.33 50.74,60.33 50.74,77.1 67.55,77.1 67.55,68.68 138.9,68.68 			"/>
			<polygon fill="#106E9D" points="67.55,93.95 67.55,85.52 50.74,85.52 50.74,102.37 138.9,102.37 138.9,93.95 			"/>
			<rect x="25.51" y="60.33" fill="#106E9D" width="16.81" height="16.77"/>
			<rect x="25.51" y="85.52" fill="#106E9D" width="16.81" height="16.85"/>
			<rect x="67.55" y="77.1" fill="#106E9D" width="71.35" height="8.42"/>
		</g>
	</g>
</g>
<g id="国名">
	<g>
		<path d="M63.83,147.89l-0.28-1.38c-0.01-0.08-0.02-0.16-0.02-0.23c0-0.26,0.1-0.44,0.3-0.55c0.12-0.07,0.25-0.1,0.41-0.1
			c0.38,0,0.61,0.2,0.69,0.59l0.28,1.39c0.91-0.19,1.55-0.33,1.92-0.42c0.1-0.03,0.18-0.04,0.27-0.04c0.27,0,0.46,0.11,0.58,0.33
			c0.06,0.11,0.08,0.22,0.08,0.34c0,0.32-0.19,0.53-0.56,0.62c-0.27,0.07-0.88,0.2-1.84,0.39l-0.19,0.04l0.32,1.57
			c0.47-0.1,1.45-0.3,2.93-0.61c0.11-0.02,0.19-0.03,0.26-0.03c0.28,0,0.47,0.12,0.58,0.35c0.04,0.1,0.07,0.21,0.07,0.33
			c0,0.28-0.14,0.47-0.42,0.58c-0.06,0.02-0.19,0.05-0.38,0.09c-0.52,0.1-1.36,0.28-2.52,0.53l-0.26,0.06l0.55,2.77
			c0.01,0.07,0.02,0.14,0.02,0.22c0,0.28-0.11,0.47-0.32,0.58c-0.12,0.06-0.26,0.09-0.42,0.09c-0.37,0-0.6-0.21-0.68-0.63
			l-0.54-2.75l-0.23,0.05l-1.89,0.4c-0.8,0.17-1.23,0.25-1.31,0.25c-0.27,0-0.46-0.12-0.56-0.36c-0.04-0.1-0.07-0.22-0.07-0.35
			c0-0.28,0.15-0.48,0.45-0.58c0.04-0.01,0.69-0.15,1.95-0.42l1.13-0.24l0.25-0.06l-0.3-1.58l-0.17,0.03
			c-1.34,0.25-2.09,0.37-2.25,0.37c-0.41,0-0.62-0.23-0.62-0.68c0-0.37,0.25-0.58,0.74-0.65C62.38,148.15,63.06,148.03,63.83,147.89
			z M68.22,146.05c0.21,0,0.54,0.21,1,0.62c0.39,0.35,0.58,0.63,0.58,0.83c0,0.14-0.06,0.27-0.19,0.37
			c-0.1,0.08-0.21,0.12-0.34,0.12c-0.17,0-0.31-0.1-0.43-0.29c-0.21-0.35-0.48-0.69-0.79-1.01c-0.1-0.11-0.16-0.22-0.16-0.33
			C67.9,146.15,68.01,146.05,68.22,146.05z M69.2,145.15c0.22,0,0.54,0.18,0.95,0.53c0.39,0.33,0.58,0.6,0.58,0.83
			c0,0.16-0.06,0.29-0.18,0.38c-0.09,0.07-0.19,0.1-0.3,0.1c-0.15,0-0.29-0.09-0.42-0.28c-0.2-0.31-0.46-0.62-0.79-0.92
			c-0.12-0.11-0.18-0.23-0.18-0.33c0-0.07,0.03-0.14,0.09-0.21C69.02,145.18,69.1,145.15,69.2,145.15z"/>
		<path d="M75.16,146.75v3.86c0,0.2-0.06,0.35-0.19,0.46c-0.13,0.11-0.3,0.17-0.53,0.17c-0.31,0-0.52-0.11-0.63-0.32
			c-0.05-0.09-0.07-0.2-0.07-0.32v-3.86c0-0.26,0.1-0.44,0.31-0.55c0.12-0.06,0.25-0.09,0.39-0.09c0.24,0,0.43,0.07,0.56,0.21
			C75.11,146.43,75.16,146.57,75.16,146.75z M79.14,146.25v3.41c0,1.12-0.13,2.07-0.4,2.85c-0.35,1.01-1,1.85-1.95,2.54
			c-0.18,0.13-0.36,0.19-0.53,0.19c-0.16,0-0.27-0.05-0.35-0.14c-0.08-0.1-0.12-0.2-0.12-0.32c0-0.16,0.08-0.33,0.25-0.5
			c0.44-0.45,0.74-0.82,0.91-1.08c0.37-0.59,0.6-1.29,0.7-2.12c0.05-0.4,0.08-0.87,0.08-1.39v-3.42c0-0.38,0.23-0.58,0.7-0.58
			C78.9,145.68,79.14,145.87,79.14,146.25z"/>
		<path d="M84.03,148.77c0.23,0,0.56,0.08,1.01,0.24c0.52,0.19,0.95,0.41,1.3,0.66c0.24,0.18,0.36,0.39,0.36,0.65
			c0,0.16-0.06,0.31-0.17,0.45c-0.14,0.19-0.33,0.29-0.56,0.29c-0.17,0-0.35-0.08-0.56-0.25c-0.42-0.34-0.95-0.7-1.61-1.07
			c-0.22-0.13-0.33-0.28-0.33-0.48c0-0.09,0.02-0.17,0.07-0.26C83.63,148.85,83.79,148.77,84.03,148.77z M91.9,148.4
			c0.11,0,0.21,0.03,0.32,0.09c0.18,0.11,0.28,0.27,0.28,0.48c0,0.21-0.17,0.6-0.52,1.18c-0.57,0.96-1.35,1.83-2.34,2.63
			c-1.18,0.95-2.48,1.67-3.92,2.16c-0.16,0.06-0.3,0.08-0.41,0.08c-0.29,0-0.51-0.13-0.64-0.4c-0.07-0.13-0.1-0.26-0.1-0.38
			c0-0.28,0.13-0.48,0.38-0.62c0.04-0.02,0.28-0.11,0.72-0.26c1.2-0.42,2.31-1.04,3.35-1.87c1-0.79,1.77-1.68,2.31-2.67
			C91.48,148.54,91.67,148.4,91.9,148.4z M85.37,146.26c0.34,0,0.9,0.24,1.68,0.72c0.24,0.14,0.41,0.26,0.52,0.35
			c0.21,0.17,0.32,0.38,0.32,0.61c0,0.16-0.06,0.3-0.17,0.44c-0.17,0.2-0.36,0.3-0.58,0.3c-0.19,0-0.38-0.1-0.58-0.3
			c-0.33-0.34-0.81-0.73-1.45-1.2c-0.2-0.14-0.29-0.3-0.29-0.46c0-0.09,0.03-0.18,0.08-0.26C85,146.33,85.16,146.26,85.37,146.26z"
			/>
		<path d="M97.71,149.9l-0.02-0.09l-0.14-0.6c-0.13-0.51-0.19-0.79-0.19-0.86c0-0.2,0.08-0.34,0.24-0.44
			c0.12-0.07,0.26-0.11,0.41-0.11c0.31,0,0.51,0.18,0.59,0.54c0.01,0.07,0.04,0.19,0.08,0.34c0.07,0.25,0.14,0.53,0.21,0.84
			l0.03,0.11l0.21-0.04c1.35-0.32,2.2-0.52,2.55-0.61c0.12-0.03,0.22-0.04,0.31-0.04c0.2,0,0.38,0.05,0.52,0.16
			c0.2,0.15,0.29,0.35,0.29,0.61c0,0.42-0.3,1.02-0.91,1.8c-0.44,0.56-0.78,0.85-1.03,0.85c-0.12,0-0.22-0.04-0.3-0.13
			c-0.09-0.1-0.13-0.2-0.13-0.3c0-0.11,0.06-0.24,0.19-0.4c0.28-0.35,0.5-0.71,0.65-1.07c0.03-0.07,0.05-0.12,0.05-0.15
			c0-0.04-0.02-0.06-0.07-0.06c-0.06,0-0.69,0.15-1.88,0.44l-0.19,0.04l0.07,0.27c0.51,2.06,0.79,3.18,0.84,3.37
			c0.03,0.1,0.04,0.19,0.04,0.26c0,0.25-0.11,0.42-0.33,0.53c-0.1,0.05-0.21,0.07-0.34,0.07c-0.25,0-0.43-0.13-0.53-0.38
			c-0.01-0.03-0.2-0.78-0.55-2.24l-0.32-1.28l-0.07-0.3c-0.18,0.04-0.41,0.1-0.67,0.17c-0.75,0.19-1.18,0.29-1.29,0.29
			c-0.17,0-0.3-0.05-0.39-0.15c-0.1-0.11-0.15-0.26-0.15-0.44c0-0.31,0.2-0.51,0.61-0.6C96.57,150.17,97.11,150.05,97.71,149.9z"/>
	</g>
</g>
<g id="ガイド" display="none">
</g>
</svg>
