<?xml version="1.0" encoding="utf-8"?>
<!-- Generator: Adobe Illustrator 25.4.1, SVG Export Plug-In . SVG Version: 6.00 Build 0)  -->
<svg version="1.1" xmlns="http://www.w3.org/2000/svg" xmlns:xlink="http://www.w3.org/1999/xlink" x="0px" y="0px"
	 viewBox="0 0 164.41 252.28" enable-background="new 0 0 164.41 252.28" xml:space="preserve">
<g id="地">
	<rect fill="#DCDDDD" width="164.41" height="252.28"/>
</g>
<g id="枠">
</g>
<g id="国旗">
	<g>
		<g>
			<rect x="25.62" y="60.01" fill="#E7211A" width="113.39" height="75.59"/>
			<path fill="#F5C01C" d="M99,100.57c-0.8-0.13-1.15-0.51-1.93-1.13c-0.79-0.62-1.69-0.61-1.69-0.61l0,0v0h0
				c0,0,0.49-0.44,1.3-0.44c0.81,0,1.15,0.65,2.38,0.65c1.24,0,1.75-1.33,1.75-1.33s-0.78,0.21-1.59,0.21
				c-0.81,0-1.21-0.32-2.09-0.81c-0.88-0.49-1.76-0.34-1.76-0.34l0,0v0l0,0c0,0,0.42-0.51,1.22-0.64c0.8-0.13,1.23,0.46,2.45,0.27
				c1.22-0.19,1.52-1.59,1.52-1.59s-0.74,0.33-1.53,0.46c-0.8,0.13-1.25-0.13-2.19-0.47c-0.94-0.34-1.79-0.06-1.79-0.06v0
				c0,0,0.33-0.57,1.1-0.82c0.77-0.25,1.29,0.26,2.47-0.12c1.18-0.38,1.25-1.81,1.25-1.81s-0.68,0.44-1.44,0.69
				c-0.77,0.25-1.25,0.07-2.23-0.12c-0.98-0.19-1.78,0.22-1.78,0.22l0,0c0,0,0.24-0.61,0.96-0.98c0.72-0.37,1.32,0.06,2.42-0.5
				c1.1-0.56,0.95-1.98,0.95-1.98s-0.6,0.54-1.32,0.91c-0.72,0.37-1.22,0.26-2.23,0.23c-1-0.04-1.72,0.5-1.72,0.5v0v0
				c0-0.01,0.14-0.64,0.8-1.12c0.66-0.48,1.31-0.15,2.31-0.88c1-0.73,0.63-2.11,0.63-2.11s-0.51,0.63-1.16,1.1
				c-0.65,0.47-1.17,0.45-2.16,0.57c-1,0.12-1.62,0.76-1.62,0.76s0.04-0.66,0.61-1.23c0.57-0.57,1.27-0.35,2.14-1.23
				c0.87-0.87,0.3-2.18,0.3-2.18s-0.4,0.7-0.97,1.27c-0.57,0.57-1.08,0.63-2.05,0.9c-0.96,0.27-1.48,1.01-1.48,1.01v0v0
				c0,0-0.07-0.66,0.41-1.31c0.48-0.66,1.2-0.55,1.92-1.55c0.73-1-0.05-2.2-0.05-2.2s-0.29,0.75-0.76,1.41
				c-0.47,0.65-0.97,0.79-1.88,1.21c-0.91,0.42-1.31,1.23-1.31,1.23c0,0-0.17-0.64,0.2-1.36c0.37-0.72,1.1-0.73,1.66-1.83
				c0.56-1.1-0.39-2.16-0.39-2.16s-0.17,0.79-0.53,1.51c-0.37,0.72-0.84,0.93-1.67,1.49c-0.83,0.56-1.1,1.41-1.1,1.42l0,0
				c0,0-0.26-0.6-0.01-1.37c0.25-0.77,0.97-0.89,1.35-2.07c0.38-1.18-0.73-2.08-0.73-2.08s-0.04,0.81-0.29,1.57
				c-0.25,0.77-0.68,1.05-1.41,1.73c-0.73,0.68-0.86,1.57-0.86,1.57h0c0,0-0.35-0.56-0.23-1.36c0.13-0.8,0.82-1.03,1.01-2.25
				c0.19-1.22-1.04-1.94-1.04-1.94s0.09,0.8-0.04,1.6c-0.13,0.8-0.51,1.15-1.13,1.93c-0.62,0.79-0.61,1.69-0.61,1.69
				s-0.44-0.49-0.44-1.3c0-0.81,0.65-1.15,0.65-2.38c0-1.24-1.33-1.75-1.33-1.75s0.21,0.78,0.21,1.59s-0.32,1.21-0.81,2.09
				c-0.48,0.86-0.34,1.72-0.34,1.75c-0.04-0.03-0.51-0.44-0.63-1.21c-0.13-0.8,0.46-1.23,0.27-2.45c-0.19-1.22-1.59-1.52-1.59-1.52
				s0.33,0.74,0.45,1.54c0.13,0.8-0.13,1.25-0.47,2.19c-0.34,0.94-0.06,1.79-0.06,1.79l0,0l0,0l0,0c0,0-0.57-0.33-0.82-1.1
				c-0.25-0.77,0.26-1.29-0.12-2.47c-0.38-1.18-1.81-1.25-1.81-1.25s0.44,0.68,0.69,1.45c0.25,0.77,0.07,1.25-0.13,2.23
				c-0.19,0.98,0.23,1.78,0.23,1.78l0,0l0,0v0c0,0-0.61-0.24-0.98-0.96c-0.37-0.72,0.06-1.32-0.5-2.42
				c-0.56-1.1-1.98-0.96-1.98-0.96s0.54,0.6,0.91,1.32C75.1,83.4,75,83.9,74.96,84.9c-0.04,1,0.5,1.72,0.5,1.72l0,0l0,0l0,0
				c0,0-0.64-0.14-1.12-0.8c-0.48-0.66-0.15-1.31-0.88-2.31c-0.73-1-2.11-0.63-2.11-0.63s0.63,0.51,1.1,1.16
				c0.47,0.65,0.45,1.17,0.57,2.16c0.12,0.99,0.76,1.62,0.76,1.62h0l0,0v0c0,0-0.66-0.04-1.23-0.61c-0.57-0.57-0.35-1.27-1.23-2.14
				c-0.87-0.88-2.18-0.3-2.18-0.3s0.7,0.4,1.27,0.97c0.57,0.57,0.63,1.08,0.9,2.05c0.27,0.96,1.01,1.48,1.01,1.48h0l0,0l0,0
				c0,0-0.66,0.07-1.31-0.41c-0.66-0.48-0.55-1.2-1.55-1.92c-1-0.73-2.2,0.05-2.2,0.05s0.75,0.29,1.41,0.76
				c0.65,0.47,0.79,0.97,1.21,1.88c0.42,0.91,1.23,1.31,1.23,1.31l0,0l0,0l0,0c0,0-0.64,0.17-1.36-0.2
				c-0.72-0.37-0.73-1.1-1.83-1.66c-1.1-0.56-2.16,0.39-2.16,0.39s0.79,0.17,1.51,0.53c0.72,0.37,0.93,0.84,1.49,1.67
				c0.56,0.83,1.42,1.1,1.42,1.1l0,0l0,0l0,0c0,0-0.6,0.27-1.38,0.01c-0.77-0.25-0.89-0.97-2.06-1.35
				c-1.18-0.38-2.08,0.72-2.08,0.72s0.81,0.04,1.57,0.29c0.77,0.25,1.05,0.68,1.73,1.42c0.68,0.73,1.57,0.86,1.57,0.86l0,0l0,0l0,0
				c0,0-0.55,0.36-1.36,0.23c-0.8-0.13-1.03-0.82-2.25-1.01C64.73,93.76,64.02,95,64.02,95s0.8-0.08,1.6,0.04
				c0.8,0.13,1.15,0.51,1.93,1.13c0.79,0.62,1.69,0.61,1.69,0.61l0,0l0,0l0,0c0,0-0.49,0.44-1.3,0.44c-0.81,0-1.15-0.65-2.38-0.65
				c-1.24,0-1.75,1.33-1.75,1.33s0.78-0.21,1.59-0.21c0.81,0,1.21,0.32,2.09,0.81c0.88,0.49,1.76,0.34,1.76,0.34l0,0v0h0
				c0,0-0.42,0.51-1.22,0.64c-0.8,0.13-1.23-0.46-2.45-0.27c-1.22,0.19-1.52,1.59-1.52,1.59s0.74-0.33,1.53-0.46
				c0.8-0.13,1.25,0.13,2.19,0.47c0.94,0.34,1.79,0.06,1.79,0.06s-0.33,0.57-1.1,0.82c-0.77,0.25-1.29-0.26-2.47,0.12
				c-1.18,0.38-1.25,1.81-1.25,1.81s0.68-0.44,1.44-0.69c0.77-0.25,1.25-0.07,2.23,0.13c0.98,0.19,1.78-0.23,1.78-0.23
				s-0.24,0.61-0.96,0.98c-0.72,0.37-1.32-0.06-2.42,0.5c-1.1,0.56-0.96,1.98-0.96,1.98s0.6-0.54,1.32-0.91
				c0.72-0.37,1.22-0.26,2.23-0.22c1,0.04,1.72-0.5,1.72-0.5l0,0l0,0h0c0,0-0.14,0.64-0.8,1.12c-0.66,0.48-1.31,0.15-2.31,0.88
				c-1,0.73-0.63,2.11-0.63,2.11s0.51-0.63,1.16-1.1c0.65-0.47,1.17-0.45,2.16-0.57c0.99-0.12,1.62-0.76,1.62-0.76v0l0,0h0
				c0,0-0.04,0.66-0.61,1.23c-0.57,0.57-1.27,0.35-2.14,1.23c-0.88,0.87-0.3,2.18-0.3,2.18s0.4-0.7,0.97-1.27
				c0.57-0.57,1.08-0.63,2.05-0.9c0.96-0.27,1.48-1.01,1.48-1.01v0l0,0l0,0c0,0,0.07,0.66-0.41,1.31c-0.48,0.66-1.2,0.55-1.92,1.55
				c-0.73,1,0.05,2.2,0.05,2.2s0.29-0.75,0.76-1.41c0.47-0.65,0.97-0.79,1.88-1.21c0.91-0.42,1.31-1.23,1.31-1.23h0
				c0,0,0.17,0.64-0.2,1.36c-0.37,0.72-1.1,0.73-1.66,1.83c-0.56,1.1,0.39,2.16,0.39,2.16s0.17-0.79,0.53-1.51
				c0.37-0.72,0.84-0.93,1.67-1.49c0.83-0.56,1.1-1.42,1.1-1.42c0,0,0.26,0.6,0.01,1.38c-0.25,0.77-0.97,0.89-1.35,2.07
				c-0.38,1.18,0.72,2.08,0.72,2.08s0.04-0.81,0.29-1.57c0.25-0.77,0.68-1.05,1.42-1.73c0.73-0.68,0.86-1.57,0.86-1.57
				s0.36,0.55,0.23,1.36c-0.13,0.8-0.82,1.03-1.01,2.25c-0.19,1.22,1.04,1.94,1.04,1.94s-0.08-0.8,0.04-1.6
				c0.13-0.8,0.51-1.15,1.13-1.93c0.62-0.79,0.61-1.69,0.61-1.69l0,0h0l0,0c0,0,0.44,0.49,0.44,1.3c0,0.81-0.65,1.15-0.65,2.38
				c0,1.24,1.33,1.75,1.33,1.75s-0.21-0.78-0.21-1.59c0-0.81,0.32-1.21,0.81-2.09c0.49-0.88,0.34-1.76,0.34-1.76l0,0h0l0,0
				c0,0,0.51,0.42,0.64,1.22c0.13,0.8-0.46,1.23-0.27,2.45c0.19,1.22,1.59,1.52,1.59,1.52s-0.33-0.74-0.46-1.53
				c-0.13-0.8,0.13-1.25,0.47-2.19c0.34-0.94,0.06-1.79,0.06-1.79h0c0,0,0.57,0.33,0.82,1.1c0.25,0.77-0.26,1.29,0.12,2.47
				c0.38,1.18,1.81,1.25,1.81,1.25s-0.44-0.68-0.69-1.44c-0.25-0.77-0.07-1.25,0.13-2.24c0.19-0.98-0.22-1.78-0.22-1.78h0
				c0,0,0.61,0.24,0.98,0.96c0.37,0.72-0.06,1.31,0.5,2.42c0.56,1.1,1.98,0.96,1.98,0.96s-0.54-0.6-0.91-1.32
				c-0.37-0.72-0.26-1.23-0.23-2.23c0.04-1-0.5-1.72-0.5-1.72l0,0c0.01,0,0.65,0.14,1.12,0.8c0.48,0.66,0.15,1.31,0.88,2.31
				c0.73,1,2.11,0.63,2.11,0.63s-0.63-0.51-1.1-1.16c-0.47-0.65-0.45-1.17-0.57-2.16c-0.12-1-0.76-1.62-0.76-1.62h0l0,0l0,0
				c0,0,0.66,0.04,1.23,0.61c0.57,0.57,0.35,1.27,1.23,2.14c0.87,0.87,2.18,0.3,2.18,0.3s-0.7-0.4-1.27-0.97
				c-0.57-0.57-0.63-1.08-0.9-2.05c-0.27-0.96-1.01-1.48-1.01-1.48h0l0,0l0,0c0,0,0.65-0.07,1.31,0.41c0.66,0.48,0.55,1.2,1.55,1.92
				c1,0.73,2.2-0.05,2.2-0.05s-0.75-0.29-1.41-0.76c-0.65-0.47-0.79-0.97-1.21-1.88c-0.42-0.91-1.22-1.3-1.23-1.31l0,0
				c0.01,0,0.64-0.16,1.36,0.2c0.72,0.37,0.73,1.1,1.83,1.66c1.1,0.56,2.16-0.39,2.16-0.39s-0.79-0.17-1.51-0.53
				c-0.72-0.37-0.93-0.84-1.49-1.67c-0.56-0.83-1.41-1.1-1.42-1.1l0,0c0.01,0,0.61-0.26,1.37-0.01c0.77,0.25,0.89,0.97,2.07,1.35
				c1.18,0.38,2.08-0.73,2.08-0.73s-0.81-0.04-1.57-0.29c-0.77-0.25-1.05-0.68-1.73-1.41c-0.68-0.73-1.57-0.86-1.57-0.86v0
				c0,0,0.56-0.36,1.35-0.23c0.8,0.13,1.03,0.82,2.25,1.01c1.22,0.19,1.94-1.04,1.94-1.04S99.8,100.7,99,100.57z M82.31,108.78
				c-6.06,0-10.97-4.91-10.97-10.97c0-6.06,4.91-10.97,10.97-10.97c6.06,0,10.97,4.91,10.97,10.97
				C93.27,103.87,88.36,108.78,82.31,108.78z"/>
			<path fill="#F5C01C" d="M78.99,95.17c-1.5-0.9-3.27-1.57-5.35-1.86c-0.52,1.18-0.81,2.47-0.81,3.84c0,1.64,0.42,3.18,1.15,4.53
				C74.86,100,76.49,97.41,78.99,95.17z"/>
			<path fill="#F5C01C" d="M80.48,96.19c-0.36-0.29-0.74-0.56-1.15-0.81c-2.41,2.13-4.01,4.61-4.92,6.29
				c-0.08,0.14-0.15,0.28-0.21,0.41c0.34,0.56,0.74,1.08,1.18,1.55C76.05,101.98,77.59,98.86,80.48,96.19z"/>
			<path fill="#F5C01C" d="M80.78,96.44c-2.41,2.21-3.87,4.75-4.66,6.47c-0.18,0.39-0.32,0.73-0.43,1.02c0.59,0.58,1.26,1.08,2,1.49
				c0.44-1.47,1.69-4.89,4.37-7.81C81.65,97.21,81.23,96.81,80.78,96.44z"/>
			<path fill="#F5C01C" d="M85.32,94.9c1.53-0.94,3.35-1.65,5.49-1.96c-0.15-0.3-0.32-0.6-0.5-0.88c-2.37,0.3-4.4,1.01-6.12,1.94
				C84.58,94.29,84.96,94.59,85.32,94.9z"/>
			<path fill="#F5C01C" d="M83.79,99.76c-0.44-0.63-0.93-1.26-1.48-1.86c-1.99,2.17-3.17,4.64-3.82,6.33
				c-0.22,0.57-0.37,1.04-0.47,1.39c1.29,0.65,2.74,1.02,4.28,1.02c1.54,0,3-0.37,4.28-1.02c-0.1-0.35-0.25-0.82-0.47-1.39
				C85.66,103.01,84.92,101.39,83.79,99.76z"/>
			<path fill="#F5C01C" d="M83.84,93.75c1.75-0.97,3.81-1.72,6.23-2.05c-0.13-0.18-0.26-0.36-0.41-0.54c-2.69,0.1-5,0.82-6.96,1.86
				C83.09,93.26,83.48,93.5,83.84,93.75z"/>
			<path fill="#F5C01C" d="M89.34,90.79c-1.74-1.92-4.24-3.12-7.03-3.12c-2.79,0-5.3,1.2-7.03,3.12c2.72,0.15,5.06,0.92,7.03,2.01
				C84.29,91.71,86.62,90.94,89.34,90.79z"/>
			<path fill="#F5C01C" d="M81.92,93.03c-1.96-1.05-4.27-1.76-6.96-1.86c-0.14,0.17-0.28,0.35-0.41,0.54
				c2.42,0.33,4.48,1.08,6.23,2.05C81.14,93.5,81.52,93.26,81.92,93.03z"/>
			<path fill="#F5C01C" d="M80.43,94c-1.72-0.93-3.75-1.64-6.12-1.94c-0.18,0.28-0.35,0.58-0.5,0.88c2.14,0.31,3.95,1.02,5.48,1.96
				C79.66,94.59,80.04,94.29,80.43,94z"/>
			<path fill="#F5C01C" d="M80.8,94.21c-0.41,0.29-0.8,0.6-1.17,0.91c0.4,0.26,0.78,0.53,1.13,0.81c0.38-0.34,0.79-0.66,1.21-0.98
				C81.6,94.69,81.21,94.45,80.8,94.21z"/>
			<path fill="#F5C01C" d="M81.07,96.18c0.44,0.37,0.86,0.76,1.24,1.16c0.38-0.4,0.8-0.79,1.24-1.16c-0.39-0.34-0.81-0.67-1.24-0.99
				C81.87,95.51,81.46,95.84,81.07,96.18z"/>
			<path fill="#F5C01C" d="M82.64,94.95c0.43,0.32,0.83,0.64,1.21,0.98c0.36-0.28,0.74-0.55,1.13-0.81
				c-0.37-0.31-0.76-0.62-1.17-0.91C83.4,94.44,83.01,94.69,82.64,94.95z"/>
			<path fill="#F5C01C" d="M85.77,98.5c-0.56-0.7-1.21-1.39-1.94-2.06c-0.45,0.38-0.87,0.77-1.26,1.18
				c2.68,2.92,3.93,6.34,4.37,7.81c0.73-0.41,1.4-0.91,2-1.49c-0.11-0.29-0.26-0.63-0.43-1.02C87.95,101.71,87.07,100.11,85.77,98.5
				z"/>
			<path fill="#F5C01C" d="M90.98,93.31c-2.08,0.29-3.85,0.96-5.35,1.86c2.51,2.24,4.13,4.83,5.02,6.51
				c0.73-1.35,1.15-2.89,1.15-4.53C91.79,95.78,91.5,94.48,90.98,93.31z"/>
			<path fill="#F5C01C" d="M83.47,93.97c-0.37-0.25-0.76-0.49-1.17-0.72c-0.4,0.23-0.79,0.47-1.16,0.72
				c0.4,0.24,0.79,0.48,1.16,0.74C82.68,94.45,83.07,94.2,83.47,93.97z"/>
			<path fill="#F5C01C" d="M87.25,97.37c-0.58-0.68-1.24-1.35-1.97-2c-0.4,0.26-0.78,0.53-1.14,0.81c2.89,2.66,4.43,5.79,5.09,7.44
				c0.44-0.47,0.84-0.99,1.18-1.55c-0.07-0.13-0.14-0.27-0.22-0.41C89.57,100.5,88.6,98.93,87.25,97.37z"/>
		</g>
	</g>
</g>
<g id="国名">
	<g>
		<path d="M63.94,147.89l-0.28-1.38c-0.01-0.08-0.02-0.16-0.02-0.23c0-0.26,0.1-0.44,0.3-0.55c0.12-0.07,0.25-0.1,0.41-0.1
			c0.38,0,0.61,0.2,0.69,0.59l0.28,1.39c0.91-0.19,1.55-0.33,1.92-0.42c0.1-0.03,0.18-0.04,0.27-0.04c0.27,0,0.46,0.11,0.58,0.33
			c0.06,0.11,0.08,0.22,0.08,0.34c0,0.32-0.19,0.53-0.56,0.62c-0.27,0.07-0.88,0.2-1.84,0.39l-0.19,0.04l0.32,1.57
			c0.47-0.1,1.45-0.3,2.93-0.61c0.11-0.02,0.19-0.03,0.26-0.03c0.28,0,0.47,0.12,0.58,0.35c0.04,0.1,0.07,0.21,0.07,0.33
			c0,0.28-0.14,0.47-0.42,0.58c-0.06,0.02-0.19,0.05-0.38,0.09c-0.52,0.1-1.36,0.28-2.52,0.53l-0.26,0.06l0.55,2.77
			c0.01,0.07,0.02,0.14,0.02,0.22c0,0.28-0.11,0.47-0.32,0.58c-0.12,0.06-0.26,0.09-0.42,0.09c-0.37,0-0.6-0.21-0.68-0.63
			l-0.54-2.75l-0.23,0.05l-1.89,0.4c-0.8,0.17-1.23,0.25-1.31,0.25c-0.27,0-0.46-0.12-0.56-0.36c-0.04-0.1-0.07-0.22-0.07-0.35
			c0-0.28,0.15-0.48,0.45-0.58c0.04-0.01,0.69-0.15,1.95-0.42l1.14-0.24l0.25-0.06l-0.3-1.58l-0.17,0.03
			c-1.34,0.25-2.09,0.37-2.25,0.37c-0.41,0-0.62-0.23-0.62-0.68c0-0.37,0.25-0.58,0.74-0.65C62.49,148.15,63.17,148.03,63.94,147.89
			z"/>
		<path d="M74.34,147.24c0.47,0,0.7,0.27,0.7,0.8c0,1.92-0.36,3.46-1.07,4.63c-0.3,0.5-0.66,0.91-1.08,1.24
			c-0.15,0.12-0.31,0.18-0.49,0.18c-0.12,0-0.22-0.04-0.32-0.12c-0.11-0.1-0.16-0.21-0.16-0.35c0-0.16,0.07-0.32,0.22-0.49
			c0.6-0.69,1-1.51,1.22-2.46c0.17-0.74,0.26-1.64,0.26-2.7c0-0.22,0.05-0.38,0.15-0.49C73.91,147.32,74.1,147.24,74.34,147.24z
			 M77.52,146.83v5.65c0,0.14,0.03,0.22,0.1,0.22c0.14,0,0.49-0.2,1.07-0.6c0.82-0.56,1.5-1.13,2.03-1.72
			c0.18-0.21,0.36-0.31,0.52-0.31c0.13,0,0.26,0.05,0.39,0.16c0.13,0.1,0.19,0.24,0.19,0.42c0,0.15-0.06,0.31-0.18,0.48
			c-0.43,0.59-1.08,1.23-1.94,1.92c-0.68,0.54-1.33,0.95-1.94,1.26c-0.23,0.11-0.44,0.17-0.61,0.17c-0.2,0-0.39-0.07-0.59-0.21
			c-0.28-0.2-0.42-0.5-0.42-0.92v-6.51c0-0.24,0.11-0.42,0.32-0.54c0.11-0.06,0.23-0.09,0.37-0.09c0.2,0,0.37,0.06,0.51,0.17
			C77.45,146.49,77.52,146.64,77.52,146.83z"/>
		<path d="M86.51,147.89l-0.28-1.38c-0.01-0.08-0.02-0.16-0.02-0.23c0-0.26,0.1-0.44,0.3-0.55c0.12-0.07,0.25-0.1,0.41-0.1
			c0.38,0,0.61,0.2,0.69,0.59l0.28,1.39c0.91-0.19,1.55-0.33,1.92-0.42c0.1-0.03,0.18-0.04,0.27-0.04c0.27,0,0.46,0.11,0.58,0.33
			c0.05,0.11,0.08,0.22,0.08,0.34c0,0.32-0.19,0.53-0.56,0.62c-0.27,0.07-0.88,0.2-1.84,0.39l-0.19,0.04l0.32,1.57
			c0.47-0.1,1.45-0.3,2.93-0.61c0.11-0.02,0.19-0.03,0.26-0.03c0.28,0,0.47,0.12,0.58,0.35c0.04,0.1,0.07,0.21,0.07,0.33
			c0,0.28-0.14,0.47-0.42,0.58c-0.06,0.02-0.19,0.05-0.38,0.09c-0.52,0.1-1.36,0.28-2.52,0.53l-0.26,0.06l0.55,2.77
			c0.01,0.07,0.02,0.14,0.02,0.22c0,0.28-0.11,0.47-0.32,0.58c-0.12,0.06-0.26,0.09-0.42,0.09c-0.37,0-0.6-0.21-0.68-0.63
			l-0.54-2.75l-0.23,0.05l-1.89,0.4c-0.8,0.17-1.23,0.25-1.31,0.25c-0.27,0-0.46-0.12-0.56-0.36c-0.04-0.1-0.07-0.22-0.07-0.35
			c0-0.28,0.15-0.48,0.45-0.58c0.04-0.01,0.69-0.15,1.95-0.42l1.13-0.24l0.25-0.06l-0.3-1.58l-0.17,0.03
			c-1.34,0.25-2.08,0.37-2.25,0.37c-0.41,0-0.62-0.23-0.62-0.68c0-0.37,0.25-0.58,0.74-0.65C85.06,148.15,85.74,148.03,86.51,147.89
			z M90.9,146.05c0.21,0,0.54,0.21,1,0.62c0.39,0.35,0.58,0.63,0.58,0.83c0,0.14-0.06,0.27-0.19,0.37c-0.1,0.08-0.21,0.12-0.34,0.12
			c-0.17,0-0.31-0.1-0.43-0.29c-0.21-0.35-0.48-0.69-0.79-1.01c-0.1-0.11-0.15-0.22-0.15-0.33
			C90.58,146.15,90.68,146.05,90.9,146.05z M91.88,145.15c0.22,0,0.54,0.18,0.95,0.53c0.39,0.33,0.58,0.6,0.58,0.83
			c0,0.16-0.06,0.29-0.18,0.38c-0.09,0.07-0.19,0.1-0.3,0.1c-0.16,0-0.3-0.09-0.42-0.28c-0.2-0.31-0.46-0.62-0.79-0.92
			c-0.12-0.11-0.18-0.23-0.18-0.33c0-0.07,0.03-0.14,0.09-0.21C91.7,145.18,91.78,145.15,91.88,145.15z"/>
		<path d="M99.37,151.75c-1.04,1.06-2.12,1.91-3.23,2.56c-0.46,0.27-0.78,0.4-0.94,0.4c-0.2,0-0.35-0.09-0.45-0.27
			c-0.06-0.1-0.09-0.19-0.09-0.27c0-0.16,0.08-0.31,0.23-0.44c0.04-0.03,0.17-0.12,0.39-0.27c0.89-0.57,1.83-1.33,2.8-2.28
			c0.98-0.97,1.7-1.92,2.16-2.86c0.08-0.16,0.12-0.27,0.12-0.32c0-0.07-0.04-0.1-0.11-0.1c-0.05,0-0.13,0.01-0.25,0.03
			c-0.22,0.03-1.08,0.1-2.58,0.22c-0.26,0.02-0.48,0.04-0.67,0.05c-0.07,0.01-0.13,0.01-0.17,0.01c-0.3,0-0.5-0.11-0.61-0.33
			c-0.05-0.1-0.07-0.21-0.07-0.33c0-0.31,0.15-0.51,0.44-0.6c0.09-0.03,0.28-0.05,0.59-0.07c1.04-0.04,2.36-0.15,3.96-0.33
			c0.07-0.01,0.13-0.01,0.18-0.01c0.32,0,0.58,0.09,0.78,0.28c0.18,0.17,0.27,0.38,0.27,0.64c0,0.2-0.1,0.49-0.29,0.9
			c-0.38,0.79-0.94,1.64-1.68,2.55c1.22,0.76,2.17,1.47,2.85,2.14c0.31,0.3,0.46,0.58,0.46,0.83c0,0.19-0.07,0.36-0.22,0.51
			c-0.15,0.16-0.32,0.23-0.52,0.23c-0.2,0-0.37-0.07-0.52-0.22c-0.02-0.02-0.08-0.09-0.19-0.21
			C101.23,153.39,100.35,152.57,99.37,151.75z"/>
	</g>
</g>
<g id="ガイド" display="none">
</g>
</svg>
