<?xml version="1.0" encoding="utf-8"?>
<!-- Generator: Adobe Illustrator 25.4.1, SVG Export Plug-In . SVG Version: 6.00 Build 0)  -->
<svg version="1.1" xmlns="http://www.w3.org/2000/svg" xmlns:xlink="http://www.w3.org/1999/xlink" x="0px" y="0px"
	 viewBox="0 0 164.41 252.28" enable-background="new 0 0 164.41 252.28" xml:space="preserve">
<g id="地">
	<rect fill="#DCDDDD" width="164.41" height="252.28"/>
</g>
<g id="枠">
</g>
<g id="国旗">
	<g>
		<g>
			<rect x="25.51" y="60" fill="#FFFFFF" width="113.39" height="75.59"/>
			<rect x="25.51" y="60" fill="#118749" width="113.39" height="25.21"/>
			<rect x="25.51" y="110.39" fill="#C91238" width="113.39" height="25.21"/>
			<polygon fill="#040000" points="25.51,60 53.39,85.21 53.39,110.39 25.51,135.59 			"/>
		</g>
	</g>
</g>
<g id="国名">
	<g>
		<path d="M59.98,146.59l2-0.08c0.73-0.03,1.1,0.27,1.1,0.9c0,0.38-0.15,0.95-0.45,1.71c-0.8,2.04-2.16,3.7-4.08,4.99
			c-0.9,0.61-1.53,0.91-1.87,0.91c-0.18,0-0.32-0.08-0.43-0.23c-0.07-0.1-0.1-0.2-0.1-0.3c0-0.15,0.08-0.29,0.25-0.42
			c0.05-0.04,0.19-0.13,0.44-0.27c0.83-0.48,1.62-1.11,2.39-1.91c0.96-1,1.65-2.11,2.06-3.31c0.13-0.38,0.2-0.62,0.2-0.7
			c0-0.09-0.06-0.13-0.17-0.12h-0.03l-1.9,0.11c-0.69,0.93-1.5,1.72-2.43,2.37c-0.2,0.14-0.38,0.21-0.54,0.21
			c-0.14,0-0.25-0.05-0.34-0.16c-0.08-0.1-0.12-0.2-0.12-0.31c0-0.15,0.06-0.29,0.18-0.42c0.04-0.04,0.15-0.14,0.32-0.29
			c0.55-0.48,1.08-1.13,1.59-1.93c0.19-0.3,0.35-0.58,0.47-0.84c0.15-0.31,0.38-0.47,0.69-0.47c0.13,0,0.24,0.02,0.35,0.07
			C59.8,146.21,59.93,146.37,59.98,146.59z"/>
		<path d="M70.07,147.67v-1.46c0-0.2,0.06-0.37,0.18-0.49c0.13-0.13,0.3-0.19,0.52-0.19c0.29,0,0.49,0.11,0.61,0.33
			c0.06,0.1,0.08,0.22,0.08,0.35v1.38l0.18-0.01c1.3-0.08,2.03-0.13,2.18-0.14c0.08-0.01,0.14-0.01,0.19-0.01
			c0.32,0,0.58,0.11,0.76,0.32c0.18,0.21,0.27,0.49,0.27,0.84c0,0.29-0.06,0.69-0.18,1.21c-0.28,1.23-0.78,2.28-1.5,3.15
			c-0.56,0.68-1.24,1.26-2.04,1.76c-0.54,0.34-0.93,0.51-1.16,0.51c-0.2,0-0.34-0.07-0.43-0.19c-0.07-0.1-0.11-0.21-0.11-0.33
			c0-0.17,0.07-0.31,0.21-0.43c0.04-0.03,0.15-0.1,0.34-0.22c0.79-0.48,1.49-1.1,2.1-1.87c0.41-0.52,0.73-1.12,0.95-1.81
			c0.19-0.58,0.28-1.06,0.28-1.46c0-0.13-0.07-0.2-0.2-0.2c-0.08,0-0.19,0-0.32,0.02c-0.79,0.08-2.4,0.18-4.81,0.3l0.17,1.74
			c0,0.04,0.01,0.07,0.01,0.09c0.01,0.3-0.13,0.5-0.44,0.6c-0.1,0.03-0.2,0.05-0.3,0.05c-0.23,0-0.4-0.08-0.53-0.25
			c-0.06-0.09-0.1-0.19-0.11-0.3l-0.27-2.69c-0.01-0.06-0.01-0.1-0.01-0.13c0-0.44,0.24-0.65,0.73-0.65c0.28,0,0.47,0.1,0.58,0.3
			l0.12-0.01l0.57-0.03C69.43,147.71,69.89,147.68,70.07,147.67z"/>
		<path d="M81.35,150.22l-0.1,0c-0.78,0.05-1.24,0.07-1.36,0.07c-0.41,0-0.62-0.2-0.62-0.6c0-0.27,0.14-0.45,0.42-0.52
			c0.06-0.01,0.21-0.03,0.46-0.04c1.55-0.09,2.78-0.2,3.68-0.34c0.06-0.01,0.1-0.01,0.14-0.01c0.29,0,0.47,0.13,0.55,0.39
			c0.02,0.06,0.03,0.13,0.03,0.21c0,0.34-0.18,0.53-0.53,0.58c-0.34,0.04-0.8,0.1-1.4,0.15v2.38l0.21-0.01l1.45-0.08
			c0.78-0.04,1.18-0.07,1.2-0.07c0.18,0,0.32,0.05,0.43,0.16c0.11,0.11,0.17,0.25,0.17,0.44c0,0.28-0.11,0.46-0.33,0.55
			c-0.07,0.03-0.29,0.05-0.66,0.06c-0.77,0.03-2.49,0.13-5.15,0.32c-0.79,0.06-1.2,0.08-1.23,0.08c-0.25,0-0.43-0.1-0.54-0.3
			c-0.05-0.09-0.07-0.2-0.07-0.32c0-0.27,0.13-0.45,0.4-0.54c0.07-0.02,0.75-0.08,2.03-0.17l0.62-0.04l0.22-0.01V150.22z"/>
		<path d="M96.98,149.33c0.23,0,0.42,0.07,0.55,0.22c0.11,0.12,0.17,0.28,0.17,0.48c0,0.37-0.18,0.59-0.53,0.66
			c-0.09,0.02-1.34,0.08-3.74,0.19c-1.1,0.05-2.27,0.11-3.5,0.17c-0.04,0-0.09,0-0.13,0c-0.21,0-0.38-0.06-0.52-0.18
			c-0.14-0.13-0.22-0.3-0.22-0.51c0-0.3,0.13-0.51,0.4-0.63c0.11-0.04,0.37-0.07,0.79-0.09c0.37-0.01,1.29-0.05,2.77-0.13
			c0.63-0.03,1.5-0.07,2.59-0.12c0.37-0.01,0.66-0.03,0.87-0.04C96.76,149.33,96.92,149.33,96.98,149.33z"/>
		<path d="M104.72,150.28v4.34c0,0.21-0.07,0.37-0.2,0.48c-0.13,0.11-0.29,0.16-0.5,0.16c-0.47,0-0.71-0.21-0.71-0.64v-8.28
			c0-0.42,0.24-0.63,0.71-0.63c0.31,0,0.52,0.11,0.63,0.32c0.05,0.09,0.07,0.2,0.07,0.32v2.72c1.32,0.34,2.34,0.76,3.07,1.24
			c0.32,0.21,0.48,0.46,0.48,0.76c0,0.2-0.07,0.36-0.2,0.5c-0.14,0.15-0.31,0.23-0.52,0.23c-0.18,0-0.4-0.09-0.66-0.27
			C106.28,151.1,105.55,150.69,104.72,150.28z"/>
	</g>
</g>
<g id="ガイド" display="none">
</g>
</svg>
