<?xml version="1.0" encoding="utf-8"?>
<!-- Generator: Adobe Illustrator 25.4.1, SVG Export Plug-In . SVG Version: 6.00 Build 0)  -->
<svg version="1.1" xmlns="http://www.w3.org/2000/svg" xmlns:xlink="http://www.w3.org/1999/xlink" x="0px" y="0px"
	 viewBox="0 0 164.41 252.28" enable-background="new 0 0 164.41 252.28" xml:space="preserve">
<g id="地">
	<rect fill="#DCDDDD" width="164.41" height="252.28"/>
</g>
<g id="枠">
</g>
<g id="国旗">
	<g>
		<g>
			<rect x="26.02" y="60" fill="#FFFFFF" width="113.39" height="75.59"/>
			<polygon fill="#D9202E" points="139.4,90.24 90.27,90.24 90.27,60 75.15,60 75.15,90.24 26.02,90.24 26.02,105.35 75.15,105.35 
				75.15,135.59 90.27,135.59 90.27,105.35 139.4,105.35 			"/>
			<path fill="#D9202E" d="M50.62,82.25c-0.57,0-1.45,0.01-2.54,0.16c0.54-2.79,0.63-5.4,0.63-5.4s-2.61,0.09-5.4,0.63
				c0.14-1.09,0.16-1.86,0.16-2.54c0-0.68-0.01-1.45-0.16-2.54c2.79,0.54,5.4,0.63,5.4,0.63s-0.09-2.61-0.63-5.4
				c1.09,0.14,1.99,0.16,2.54,0.16c0.55,0,1.45-0.01,2.54-0.16c-0.54,2.79-0.63,5.4-0.63,5.4s2.61-0.09,5.4-0.63
				c-0.14,1.09-0.16,1.86-0.16,2.54c0,0.68,0.01,1.45,0.16,2.54c-2.79-0.54-5.4-0.63-5.4-0.63s0.09,2.61,0.63,5.4
				C52.07,82.26,51.19,82.25,50.62,82.25z"/>
			<path fill="#D9202E" d="M114.8,82.25c0.57,0,1.45,0.01,2.54,0.16c-0.54-2.79-0.63-5.4-0.63-5.4s2.61,0.09,5.4,0.63
				c-0.14-1.09-0.16-1.86-0.16-2.54c0-0.68,0.01-1.45,0.16-2.54c-2.79,0.54-5.4,0.63-5.4,0.63s0.09-2.61,0.63-5.4
				c-1.09,0.14-1.99,0.16-2.54,0.16c-0.55,0-1.45-0.01-2.54-0.16c0.54,2.79,0.63,5.4,0.63,5.4s-2.61-0.09-5.4-0.63
				c0.14,1.09,0.16,1.86,0.16,2.54c0,0.68-0.01,1.45-0.16,2.54c2.79-0.54,5.4-0.63,5.4-0.63s-0.09,2.61-0.63,5.4
				C113.34,82.26,114.23,82.25,114.8,82.25z"/>
			<path fill="#D9202E" d="M50.62,113.34c-0.57,0-1.45-0.01-2.54-0.16c0.54,2.79,0.63,5.4,0.63,5.4s-2.61-0.09-5.4-0.63
				c0.14,1.09,0.16,1.86,0.16,2.54c0,0.68-0.01,1.45-0.16,2.54c2.79-0.54,5.4-0.63,5.4-0.63s-0.09,2.61-0.63,5.4
				c1.09-0.14,1.99-0.16,2.54-0.16c0.55,0,1.45,0.01,2.54,0.16c-0.54-2.79-0.63-5.4-0.63-5.4s2.61,0.09,5.4,0.63
				c-0.14-1.09-0.16-1.86-0.16-2.54c0-0.68,0.01-1.45,0.16-2.54c-2.79,0.54-5.4,0.63-5.4,0.63s0.09-2.61,0.63-5.4
				C52.07,113.33,51.19,113.34,50.62,113.34z"/>
			<path fill="#D9202E" d="M114.8,113.34c0.57,0,1.45-0.01,2.54-0.16c-0.54,2.79-0.63,5.4-0.63,5.4s2.61-0.09,5.4-0.63
				c-0.14,1.09-0.16,1.86-0.16,2.54c0,0.68,0.01,1.45,0.16,2.54c-2.79-0.54-5.4-0.63-5.4-0.63s0.09,2.61,0.63,5.4
				c-1.09-0.14-1.99-0.16-2.54-0.16c-0.55,0-1.45,0.01-2.54,0.16c0.54-2.79,0.63-5.4,0.63-5.4s-2.61,0.09-5.4,0.63
				c0.14-1.09,0.16-1.86,0.16-2.54c0-0.68-0.01-1.45-0.16-2.54c2.79,0.54,5.4,0.63,5.4,0.63s-0.09-2.61-0.63-5.4
				C113.34,113.33,114.23,113.34,114.8,113.34z"/>
		</g>
	</g>
</g>
<g id="国名">
	<g>
		<path d="M65.25,146.82l1.97-0.08c0.74-0.03,1.11,0.27,1.11,0.89c0,0.37-0.15,0.92-0.44,1.64c-0.77,1.92-2.04,3.52-3.81,4.78
			c-0.55,0.39-1.09,0.71-1.62,0.95c-0.2,0.09-0.37,0.14-0.5,0.14c-0.18,0-0.32-0.08-0.43-0.23c-0.07-0.1-0.1-0.2-0.1-0.3
			c0-0.15,0.08-0.29,0.25-0.42c0.05-0.03,0.19-0.12,0.44-0.27c0.84-0.48,1.65-1.13,2.42-1.94c0.93-0.97,1.6-2.06,2.03-3.28
			c0.11-0.32,0.17-0.51,0.17-0.56c0-0.11-0.06-0.15-0.18-0.14h-0.02l-1.87,0.11c-0.69,0.93-1.5,1.72-2.43,2.37
			c-0.2,0.14-0.38,0.2-0.54,0.2c-0.14,0-0.25-0.05-0.34-0.15c-0.08-0.1-0.12-0.2-0.12-0.31c0-0.15,0.06-0.29,0.18-0.42
			c0.04-0.04,0.15-0.14,0.32-0.3c0.55-0.48,1.08-1.12,1.59-1.92c0.19-0.3,0.35-0.58,0.47-0.84c0.15-0.31,0.38-0.47,0.69-0.47
			c0.13,0,0.24,0.02,0.35,0.07C65.07,146.44,65.2,146.6,65.25,146.82z M68.28,145.73c0.21,0,0.54,0.21,1,0.62
			c0.39,0.35,0.58,0.63,0.58,0.83c0,0.15-0.06,0.27-0.19,0.38c-0.1,0.08-0.21,0.12-0.33,0.12c-0.17,0-0.31-0.1-0.43-0.29
			c-0.23-0.37-0.49-0.7-0.79-1.01c-0.1-0.11-0.15-0.22-0.15-0.33C67.96,145.83,68.07,145.73,68.28,145.73z M69.27,144.84
			c0.22,0,0.54,0.18,0.96,0.53c0.39,0.33,0.58,0.6,0.58,0.83c0,0.16-0.06,0.28-0.18,0.38c-0.09,0.07-0.19,0.1-0.3,0.1
			c-0.16,0-0.3-0.09-0.42-0.28c-0.2-0.3-0.47-0.61-0.79-0.92c-0.12-0.12-0.18-0.23-0.18-0.33c0-0.07,0.03-0.14,0.09-0.2
			C69.08,144.87,69.16,144.84,69.27,144.84z"/>
		<path d="M74.34,147.24c0.47,0,0.7,0.27,0.7,0.8c0,1.92-0.36,3.46-1.07,4.63c-0.3,0.5-0.66,0.91-1.09,1.24
			c-0.15,0.12-0.31,0.18-0.49,0.18c-0.12,0-0.22-0.04-0.32-0.12c-0.11-0.1-0.16-0.21-0.16-0.35c0-0.16,0.07-0.32,0.22-0.49
			c0.6-0.69,1.01-1.51,1.22-2.46c0.17-0.74,0.26-1.64,0.26-2.7c0-0.22,0.05-0.38,0.15-0.49C73.91,147.32,74.1,147.24,74.34,147.24z
			 M77.52,146.83v5.65c0,0.14,0.03,0.22,0.1,0.22c0.14,0,0.49-0.2,1.07-0.6c0.82-0.56,1.5-1.13,2.03-1.72
			c0.18-0.21,0.36-0.31,0.52-0.31c0.13,0,0.26,0.05,0.39,0.16c0.13,0.1,0.19,0.24,0.19,0.42c0,0.15-0.06,0.31-0.18,0.48
			c-0.43,0.59-1.08,1.23-1.94,1.92c-0.68,0.54-1.33,0.95-1.94,1.26c-0.23,0.11-0.44,0.17-0.61,0.17c-0.2,0-0.39-0.07-0.59-0.21
			c-0.28-0.2-0.42-0.5-0.42-0.92v-6.51c0-0.24,0.1-0.42,0.32-0.54c0.11-0.06,0.23-0.09,0.37-0.09c0.2,0,0.37,0.06,0.51,0.17
			C77.45,146.49,77.52,146.64,77.52,146.83z"/>
		<path d="M83.92,148.77c0.23,0,0.56,0.08,1.01,0.24c0.52,0.19,0.95,0.41,1.3,0.66c0.24,0.18,0.36,0.39,0.36,0.65
			c0,0.16-0.06,0.31-0.17,0.45c-0.14,0.19-0.33,0.29-0.56,0.29c-0.17,0-0.35-0.08-0.56-0.25c-0.42-0.34-0.95-0.7-1.61-1.07
			c-0.22-0.13-0.33-0.28-0.33-0.48c0-0.09,0.02-0.17,0.07-0.26C83.52,148.85,83.68,148.77,83.92,148.77z M91.79,148.4
			c0.11,0,0.21,0.03,0.32,0.09c0.18,0.11,0.28,0.27,0.28,0.48c0,0.21-0.17,0.6-0.52,1.18c-0.57,0.96-1.35,1.83-2.34,2.63
			c-1.18,0.95-2.48,1.67-3.92,2.16c-0.16,0.06-0.3,0.08-0.41,0.08c-0.29,0-0.51-0.13-0.64-0.4c-0.07-0.13-0.1-0.26-0.1-0.38
			c0-0.28,0.13-0.48,0.38-0.62c0.04-0.02,0.28-0.11,0.72-0.26c1.2-0.42,2.31-1.04,3.35-1.87c1-0.79,1.77-1.68,2.31-2.67
			C91.37,148.54,91.56,148.4,91.79,148.4z M85.26,146.26c0.34,0,0.9,0.24,1.68,0.72c0.24,0.14,0.41,0.26,0.52,0.35
			c0.21,0.17,0.32,0.38,0.32,0.61c0,0.16-0.06,0.3-0.17,0.44c-0.17,0.2-0.36,0.3-0.58,0.3c-0.19,0-0.38-0.1-0.58-0.3
			c-0.33-0.34-0.81-0.73-1.45-1.2c-0.2-0.14-0.29-0.3-0.29-0.46c0-0.09,0.03-0.18,0.08-0.26C84.89,146.33,85.05,146.26,85.26,146.26
			z M90.4,145.94c0.21,0,0.54,0.21,0.99,0.62c0.39,0.35,0.58,0.63,0.58,0.84c0,0.14-0.06,0.27-0.19,0.37
			c-0.1,0.08-0.21,0.12-0.34,0.12c-0.17,0-0.31-0.1-0.43-0.29c-0.21-0.35-0.48-0.69-0.79-1.01c-0.1-0.11-0.16-0.22-0.16-0.33
			C90.08,146.05,90.18,145.94,90.4,145.94z M91.55,145.11c0.22,0,0.54,0.18,0.96,0.53c0.39,0.32,0.58,0.6,0.58,0.82
			c0,0.17-0.06,0.29-0.18,0.38c-0.09,0.07-0.19,0.1-0.3,0.1c-0.16,0-0.3-0.09-0.42-0.28c-0.2-0.3-0.47-0.61-0.79-0.92
			c-0.12-0.11-0.18-0.22-0.18-0.33c0-0.07,0.03-0.14,0.09-0.21C91.36,145.14,91.45,145.11,91.55,145.11z"/>
		<path d="M102.67,146.52c0.24,0,0.46,0.06,0.66,0.18c0.27,0.17,0.4,0.41,0.4,0.72c0,0.2-0.08,0.44-0.25,0.74
			c-0.47,0.82-1.06,1.53-1.76,2.15c-0.4,0.34-0.7,0.51-0.91,0.51c-0.15,0-0.28-0.07-0.38-0.2c-0.07-0.1-0.11-0.19-0.11-0.28
			c0-0.15,0.09-0.31,0.28-0.49c0.56-0.54,0.99-1.08,1.28-1.63c0.08-0.15,0.12-0.25,0.12-0.3c0-0.06-0.05-0.09-0.15-0.09
			c-0.09,0-0.21,0-0.35,0.02c-0.08,0.01-0.33,0.02-0.75,0.05c-0.31,0.02-1.66,0.13-4.02,0.33c-0.8,0.07-1.23,0.1-1.29,0.1
			c-0.47,0-0.7-0.22-0.7-0.65c0-0.37,0.19-0.59,0.56-0.66c0.04-0.01,1.36-0.1,3.94-0.28C101.47,146.6,102.62,146.52,102.67,146.52z
			 M99.1,148.82c0.19,0,0.36,0.06,0.51,0.18c0.09,0.07,0.15,0.15,0.18,0.24c0.04,0.11,0.06,0.3,0.06,0.57
			c0,0.99-0.07,1.76-0.22,2.33c-0.32,1.22-1.05,2.18-2.18,2.86c-0.18,0.11-0.34,0.16-0.48,0.16c-0.17,0-0.29-0.06-0.38-0.17
			c-0.08-0.1-0.12-0.21-0.12-0.33c0-0.14,0.05-0.27,0.16-0.4c0.04-0.06,0.16-0.17,0.36-0.33c0.7-0.57,1.13-1.33,1.31-2.31
			c0.08-0.48,0.13-1.09,0.13-1.82l-0.01-0.3c0-0.28,0.1-0.47,0.31-0.59C98.84,148.85,98.97,148.82,99.1,148.82z"/>
	</g>
</g>
<g id="ガイド" display="none">
</g>
</svg>
