<?xml version="1.0" encoding="utf-8"?>
<!-- Generator: Adobe Illustrator 25.4.1, SVG Export Plug-In . SVG Version: 6.00 Build 0)  -->
<svg version="1.1" xmlns="http://www.w3.org/2000/svg" xmlns:xlink="http://www.w3.org/1999/xlink" x="0px" y="0px"
	 viewBox="0 0 164.41 252.28" enable-background="new 0 0 164.41 252.28" xml:space="preserve">
<g id="地">
	<rect fill="#DCDDDD" width="164.41" height="252.28"/>
</g>
<g id="枠">
</g>
<g id="国旗">
	<g>
		<g>
			<rect x="25.51" y="60" fill="#C8152A" width="113.39" height="75.59"/>
			<polygon fill="#F5CF21" points="130.67,68.19 33.74,68.19 82.2,97.8 			"/>
			<polygon fill="#147F49" points="33.74,68.19 33.74,127.4 82.2,97.8 			"/>
			<path fill="#040000" d="M39.83,96.32l2.47,1.09c0.71,1.51,0.88,2.76,0.88,2.76s-1.22-0.34-2.61-1.26L39.83,96.32z"/>
			<polygon fill="#F5CF21" points="33.74,127.4 130.67,127.4 82.2,97.8 			"/>
			<polygon fill="#147F49" points="82.2,97.8 130.67,127.4 130.67,68.19 			"/>
			<path fill="#C8152A" d="M88.18,97.8c0,3.3-2.67,5.97-5.97,5.97s-5.97-2.67-5.97-5.97c0-3.3,2.67-5.97,5.97-5.97
				S88.18,94.5,88.18,97.8z"/>
			<polygon fill="#F5CF21" points="82.2,93.86 83.09,96.57 85.94,96.57 83.63,98.25 84.51,100.96 82.2,99.29 79.9,100.96 
				80.78,98.25 78.47,96.57 81.32,96.57 			"/>
			<polygon fill="#F5CF21" points="57.59,61.09 58.31,63.3 60.63,63.3 58.75,64.66 59.47,66.87 57.59,65.51 55.71,66.87 
				56.43,64.66 54.55,63.3 56.88,63.3 			"/>
			<polygon fill="#F5CF21" points="82.2,61.09 82.92,63.3 85.24,63.3 83.37,64.66 84.08,66.87 82.2,65.51 80.33,66.87 81.04,64.66 
				79.17,63.3 81.49,63.3 			"/>
			<polygon fill="#F5CF21" points="106.82,61.09 107.53,63.3 109.86,63.3 107.98,64.66 108.7,66.87 106.82,65.51 104.94,66.87 
				105.66,64.66 103.78,63.3 106.1,63.3 			"/>
			<polygon fill="#F5CF21" points="57.59,128.67 58.31,130.87 60.63,130.87 58.75,132.24 59.47,134.45 57.59,133.08 55.71,134.45 
				56.43,132.24 54.55,130.87 56.88,130.87 			"/>
			<polygon fill="#F5CF21" points="82.2,128.67 82.92,130.87 85.24,130.87 83.37,132.24 84.08,134.45 82.2,133.08 80.33,134.45 
				81.04,132.24 79.17,130.87 81.49,130.87 			"/>
			<polygon fill="#F5CF21" points="106.82,128.67 107.53,130.87 109.86,130.87 107.98,132.24 108.7,134.45 106.82,133.08 
				104.94,134.45 105.66,132.24 103.78,130.87 106.1,130.87 			"/>
			<path fill="#F5CF21" d="M37.28,93.39c0,0,4.97,0.37,6.3,4.57c0,0-1.18-0.7-3.2-0.99c0,2.03,0.53,3.3,0.53,3.3
				C36.95,98.36,37.28,93.39,37.28,93.39z"/>
			<path fill="#D0102A" d="M41.62,97.22c0.37,0.87,0.68,1.95,0.68,1.95s-1.03-0.46-1.83-0.94l-0.35-1.57L41.62,97.22z"/>
		</g>
	</g>
</g>
<g id="国名">
	<g>
		<path d="M65.25,146.82l1.97-0.08c0.74-0.03,1.11,0.27,1.11,0.89c0,0.37-0.15,0.92-0.44,1.64c-0.77,1.92-2.04,3.52-3.81,4.78
			c-0.55,0.39-1.09,0.71-1.62,0.95c-0.2,0.09-0.37,0.14-0.5,0.14c-0.18,0-0.32-0.08-0.43-0.23c-0.07-0.1-0.1-0.2-0.1-0.3
			c0-0.15,0.08-0.29,0.25-0.42c0.05-0.03,0.19-0.12,0.44-0.27c0.84-0.48,1.65-1.13,2.42-1.94c0.93-0.97,1.6-2.06,2.03-3.28
			c0.11-0.32,0.17-0.51,0.17-0.56c0-0.11-0.06-0.15-0.18-0.14h-0.02l-1.87,0.11c-0.69,0.93-1.5,1.72-2.43,2.37
			c-0.2,0.14-0.38,0.2-0.54,0.2c-0.14,0-0.25-0.05-0.34-0.15c-0.08-0.1-0.12-0.2-0.12-0.31c0-0.15,0.06-0.29,0.18-0.42
			c0.04-0.04,0.15-0.14,0.32-0.3c0.55-0.48,1.08-1.12,1.59-1.92c0.19-0.3,0.35-0.58,0.47-0.84c0.15-0.31,0.38-0.47,0.69-0.47
			c0.13,0,0.24,0.02,0.35,0.07C65.07,146.44,65.2,146.6,65.25,146.82z M68.28,145.73c0.21,0,0.54,0.21,1,0.62
			c0.39,0.35,0.58,0.63,0.58,0.83c0,0.15-0.06,0.27-0.19,0.38c-0.1,0.08-0.21,0.12-0.33,0.12c-0.17,0-0.31-0.1-0.43-0.29
			c-0.23-0.37-0.49-0.7-0.79-1.01c-0.1-0.11-0.15-0.22-0.15-0.33C67.96,145.83,68.07,145.73,68.28,145.73z M69.27,144.84
			c0.22,0,0.54,0.18,0.96,0.53c0.39,0.33,0.58,0.6,0.58,0.83c0,0.16-0.06,0.28-0.18,0.38c-0.09,0.07-0.19,0.1-0.3,0.1
			c-0.16,0-0.3-0.09-0.42-0.28c-0.2-0.3-0.47-0.61-0.79-0.92c-0.12-0.12-0.18-0.23-0.18-0.33c0-0.07,0.03-0.14,0.09-0.2
			C69.08,144.87,69.16,144.84,69.27,144.84z"/>
		<path d="M75.14,146.9v5.65c0,0.16,0.04,0.24,0.11,0.24c0.13,0,0.48-0.16,1.05-0.46c1.28-0.71,2.36-1.53,3.24-2.47
			c0.16-0.17,0.33-0.25,0.52-0.25c0.13,0,0.24,0.04,0.34,0.13c0.13,0.11,0.2,0.25,0.2,0.43c0,0.15-0.06,0.31-0.19,0.48
			c-0.69,0.93-1.64,1.8-2.86,2.6c-0.79,0.52-1.55,0.91-2.29,1.17c-0.19,0.07-0.36,0.1-0.51,0.1c-0.31,0-0.58-0.14-0.82-0.43
			c-0.15-0.18-0.22-0.43-0.22-0.73v-6.45c0-0.24,0.1-0.42,0.31-0.54c0.12-0.07,0.25-0.1,0.4-0.1c0.22,0,0.4,0.06,0.54,0.19
			C75.08,146.57,75.14,146.72,75.14,146.9z"/>
		<path d="M87.26,148.62v-2.13c0-0.2,0.07-0.36,0.21-0.48c0.13-0.11,0.3-0.17,0.51-0.17c0.28,0,0.49,0.1,0.63,0.31
			c0.06,0.1,0.09,0.21,0.09,0.34v2.04l0.23-0.02c1.41-0.1,2.32-0.17,2.75-0.21c0.06,0,0.1-0.01,0.13-0.01c0.2,0,0.36,0.06,0.49,0.18
			c0.12,0.12,0.19,0.27,0.19,0.46c0,0.28-0.09,0.48-0.27,0.59c-0.11,0.07-0.32,0.11-0.63,0.12c-0.96,0.04-1.92,0.1-2.9,0.17v0.16
			c0,1.91-0.53,3.34-1.58,4.27c-0.5,0.44-0.89,0.67-1.17,0.67c-0.17,0-0.31-0.07-0.42-0.21c-0.07-0.09-0.1-0.19-0.1-0.3
			c0-0.17,0.09-0.34,0.28-0.51c0.72-0.65,1.18-1.41,1.39-2.26c0.11-0.47,0.17-1,0.17-1.57v-0.13c-1.23,0.09-2.26,0.18-3.08,0.25
			c-0.08,0.01-0.14,0.01-0.18,0.01c-0.22,0-0.39-0.06-0.52-0.19c-0.11-0.11-0.17-0.27-0.17-0.46c0-0.35,0.16-0.57,0.48-0.66
			c0.07-0.02,0.84-0.08,2.31-0.19l0.89-0.07L87.26,148.62z"/>
		<path d="M99.11,146.7l2.1-0.08c0.05,0,0.08,0,0.09,0c0.68,0,1.02,0.29,1.02,0.88c0,0.18-0.04,0.42-0.13,0.74
			c-0.72,2.52-2.21,4.55-4.48,6.07c-0.89,0.59-1.49,0.89-1.82,0.89c-0.17,0-0.3-0.08-0.4-0.23c-0.07-0.1-0.1-0.2-0.1-0.29
			c0-0.13,0.06-0.26,0.18-0.38c0.05-0.04,0.19-0.14,0.42-0.28c1.04-0.64,1.97-1.41,2.8-2.32c-0.48-0.51-0.96-0.94-1.42-1.31
			c-0.2-0.15-0.3-0.31-0.3-0.47c0-0.09,0.03-0.18,0.09-0.27c0.1-0.14,0.24-0.21,0.41-0.21c0.14,0,0.31,0.05,0.51,0.14
			c0.6,0.28,1.13,0.6,1.58,0.98c0.48-0.76,0.83-1.5,1.04-2.23c0.05-0.17,0.07-0.27,0.07-0.32c0-0.09-0.07-0.13-0.21-0.12l-2.05,0.1
			c-0.76,1.02-1.55,1.8-2.36,2.35c-0.26,0.17-0.47,0.26-0.64,0.26c-0.15,0-0.27-0.06-0.35-0.18c-0.06-0.08-0.08-0.17-0.08-0.27
			c0-0.13,0.05-0.26,0.16-0.39c0.04-0.04,0.15-0.15,0.34-0.33c0.64-0.58,1.22-1.29,1.74-2.13c0.14-0.23,0.26-0.45,0.37-0.66
			c0.16-0.31,0.39-0.47,0.7-0.47c0.22,0,0.41,0.08,0.55,0.23C99.02,146.46,99.08,146.57,99.11,146.7z M102.28,145.74
			c0.21,0,0.54,0.21,1,0.62c0.39,0.35,0.58,0.63,0.58,0.84c0,0.14-0.06,0.27-0.19,0.37c-0.1,0.08-0.21,0.12-0.34,0.12
			c-0.17,0-0.31-0.1-0.43-0.29c-0.22-0.36-0.48-0.7-0.79-1.01c-0.1-0.11-0.15-0.22-0.15-0.33
			C101.96,145.84,102.06,145.74,102.28,145.74z M103.26,144.85c0.22,0,0.53,0.17,0.95,0.53c0.39,0.33,0.58,0.6,0.58,0.83
			c0,0.16-0.06,0.28-0.18,0.38c-0.09,0.07-0.19,0.1-0.3,0.1c-0.16,0-0.3-0.09-0.42-0.28c-0.2-0.31-0.46-0.62-0.79-0.92
			c-0.12-0.11-0.18-0.23-0.18-0.33c0-0.07,0.03-0.14,0.09-0.21C103.08,144.88,103.16,144.85,103.26,144.85z"/>
	</g>
</g>
<g id="ガイド" display="none">
</g>
</svg>
