<?xml version="1.0" encoding="utf-8"?>
<!-- Generator: Adobe Illustrator 25.4.1, SVG Export Plug-In . SVG Version: 6.00 Build 0)  -->
<svg version="1.1" xmlns="http://www.w3.org/2000/svg" xmlns:xlink="http://www.w3.org/1999/xlink" x="0px" y="0px"
	 viewBox="0 0 164.41 252.28" enable-background="new 0 0 164.41 252.28" xml:space="preserve">
<g id="地">
	<rect fill="#DCDDDD" width="164.41" height="252.28"/>
</g>
<g id="枠">
</g>
<g id="国旗">
	<g>
		<g>
			<rect x="25.51" y="60" fill="#114D96" width="113.39" height="75.59"/>
			<polygon fill="#EFEA3C" points="82.2,78.06 86.95,92.67 102.31,92.67 89.88,101.69 94.63,116.3 82.2,107.27 69.78,116.3 
				74.53,101.69 62.1,92.67 77.46,92.67 			"/>
			<polygon fill="#EFEA3C" points="39.48,64.28 40.56,67.61 44.06,67.61 41.23,69.66 42.31,72.99 39.48,70.93 36.65,72.99 
				37.73,69.66 34.9,67.61 38.4,67.61 			"/>
			<polygon fill="#EFEA3C" points="39.48,87.71 40.56,91.04 44.06,91.04 41.23,93.1 42.31,96.43 39.48,94.37 36.65,96.43 
				37.73,93.1 34.9,91.04 38.4,91.04 			"/>
			<polygon fill="#EFEA3C" points="39.48,99.43 40.56,102.76 44.06,102.76 41.23,104.82 42.31,108.14 39.48,106.09 36.65,108.14 
				37.73,104.82 34.9,102.76 38.4,102.76 			"/>
			<polygon fill="#EFEA3C" points="39.48,111.15 40.56,114.48 44.06,114.48 41.23,116.53 42.31,119.86 39.48,117.8 36.65,119.86 
				37.73,116.53 34.9,114.48 38.4,114.48 			"/>
			<polygon fill="#EFEA3C" points="39.48,122.87 40.56,126.19 44.06,126.19 41.23,128.25 42.31,131.58 39.48,129.52 36.65,131.58 
				37.73,128.25 34.9,126.19 38.4,126.19 			"/>
			<polygon fill="#EFEA3C" points="39.48,76 40.56,79.32 44.06,79.32 41.23,81.38 42.31,84.71 39.48,82.65 36.65,84.71 37.73,81.38 
				34.9,79.32 38.4,79.32 			"/>
		</g>
	</g>
</g>
<g id="国名">
	<g>
		<path d="M44.22,152.4c0.12-0.82,0.27-2.01,0.44-3.55c0.01-0.08,0.01-0.13,0.01-0.16c0-0.1-0.06-0.15-0.17-0.15
			c-0.05,0-0.17,0.01-0.37,0.03c-0.27,0.03-0.86,0.07-1.76,0.14c-1.02,0.08-1.88,0.16-2.58,0.22c-0.08,0.01-0.14,0.01-0.18,0.01
			c-0.21,0-0.37-0.07-0.49-0.19c-0.1-0.11-0.16-0.25-0.16-0.43c0-0.32,0.12-0.53,0.35-0.64c0.08-0.04,0.29-0.07,0.62-0.09
			c3.06-0.25,4.71-0.39,4.93-0.41c0.07-0.01,0.12-0.01,0.17-0.01c0.47,0,0.8,0.2,0.98,0.6c0.07,0.15,0.1,0.31,0.1,0.48
			c0,0.05-0.01,0.19-0.04,0.42c-0.21,1.72-0.36,2.97-0.47,3.75c0.24,0.1,0.37,0.3,0.37,0.6c0,0.3-0.13,0.49-0.39,0.59
			c-0.1,0.04-0.31,0.06-0.63,0.08c-1.03,0.05-2.79,0.17-5.26,0.35c-0.08,0.01-0.13,0.01-0.17,0.01c-0.43,0-0.64-0.22-0.64-0.67
			c0-0.39,0.2-0.61,0.6-0.66C39.92,152.66,41.5,152.55,44.22,152.4z"/>
		<path d="M50.74,146.82c0.15,0,0.41,0.07,0.78,0.2c0.69,0.24,1.26,0.53,1.71,0.86c0.24,0.17,0.35,0.39,0.35,0.65
			c0,0.14-0.05,0.29-0.14,0.43c-0.14,0.21-0.33,0.32-0.56,0.32c-0.2,0-0.43-0.09-0.67-0.28c-0.62-0.49-1.18-0.88-1.68-1.16
			c-0.25-0.14-0.38-0.31-0.38-0.51C50.14,146.99,50.34,146.82,50.74,146.82z M57.86,148.59c0.12,0,0.25,0.04,0.36,0.13
			c0.15,0.11,0.23,0.26,0.23,0.45c0,0.15-0.06,0.32-0.18,0.5c-0.85,1.27-1.97,2.37-3.36,3.3c-1.16,0.77-2.35,1.32-3.59,1.66
			c-0.13,0.03-0.24,0.05-0.34,0.05c-0.31,0-0.54-0.14-0.67-0.43c-0.06-0.13-0.09-0.25-0.09-0.37c0-0.27,0.13-0.47,0.4-0.6
			c0.06-0.03,0.3-0.1,0.74-0.23c1.59-0.47,3.07-1.3,4.43-2.51c0.52-0.47,1.02-1,1.48-1.59C57.45,148.7,57.64,148.59,57.86,148.59z"
			/>
		<path d="M66.73,152.51c0.12-0.82,0.27-2,0.44-3.55c0.01-0.07,0.01-0.13,0.01-0.16c0-0.1-0.06-0.16-0.17-0.16
			c-0.05,0-0.17,0.01-0.37,0.03c-0.29,0.03-0.87,0.08-1.76,0.15c-0.93,0.07-1.79,0.14-2.59,0.22c-0.08,0.01-0.14,0.01-0.18,0.01
			c-0.21,0-0.37-0.06-0.49-0.19c-0.1-0.11-0.16-0.25-0.16-0.43c0-0.32,0.12-0.53,0.35-0.64c0.08-0.04,0.29-0.07,0.62-0.09
			c3.06-0.25,4.71-0.39,4.93-0.41c0.07-0.01,0.12-0.01,0.17-0.01c0.47,0,0.8,0.2,0.98,0.6c0.07,0.15,0.1,0.31,0.1,0.48
			c0,0.05-0.01,0.19-0.04,0.42c-0.21,1.71-0.36,2.96-0.47,3.75c0.24,0.1,0.37,0.3,0.37,0.6c0,0.29-0.13,0.49-0.39,0.6
			c-0.1,0.03-0.31,0.06-0.63,0.08c-1.03,0.04-2.79,0.16-5.26,0.35c-0.08,0.01-0.13,0.01-0.17,0.01c-0.43,0-0.64-0.22-0.64-0.66
			c0-0.4,0.2-0.62,0.6-0.67C62.43,152.77,64.01,152.67,66.73,152.51z M68.17,145.73c0.21,0,0.54,0.21,1,0.62
			c0.39,0.35,0.58,0.63,0.58,0.83c0,0.15-0.06,0.27-0.19,0.38c-0.1,0.08-0.21,0.12-0.33,0.12c-0.17,0-0.31-0.1-0.43-0.29
			c-0.22-0.37-0.49-0.7-0.79-1.01c-0.1-0.11-0.16-0.22-0.16-0.33C67.85,145.83,67.96,145.73,68.17,145.73z M69.27,144.95
			c0.22,0,0.54,0.18,0.95,0.53c0.39,0.33,0.58,0.6,0.58,0.83c0,0.16-0.06,0.28-0.18,0.38c-0.09,0.07-0.19,0.1-0.3,0.1
			c-0.16,0-0.3-0.09-0.42-0.28c-0.2-0.3-0.46-0.61-0.79-0.92c-0.12-0.11-0.18-0.23-0.18-0.33c0-0.08,0.03-0.15,0.09-0.2
			C69.09,144.98,69.17,144.95,69.27,144.95z"/>
		<path d="M77.62,150.25l2.82-0.23l0.06-0.01c0.17-0.01,0.3,0.05,0.4,0.18c0.08,0.11,0.13,0.25,0.13,0.44c0,0.36-0.17,0.56-0.5,0.59
			l-2.47,0.21c0.41,0.83,0.96,1.53,1.64,2.1c0.26,0.22,0.43,0.33,0.53,0.33c0.07,0,0.13-0.09,0.17-0.26
			c0.04-0.17,0.09-0.47,0.15-0.89c0.04-0.32,0.19-0.48,0.44-0.48c0.25,0,0.41,0.14,0.46,0.42c0.03,0.17,0.04,0.41,0.04,0.74
			c0,0.94-0.03,1.49-0.09,1.67c-0.11,0.3-0.33,0.45-0.64,0.45c-0.58,0-1.28-0.38-2.11-1.15c-0.83-0.77-1.48-1.7-1.94-2.81
			l-2.68,0.23v2.04c0.44-0.15,1.14-0.41,2.1-0.79c0.16-0.06,0.28-0.09,0.38-0.09c0.14,0,0.25,0.05,0.34,0.16
			c0.08,0.1,0.13,0.22,0.13,0.35c0,0.18-0.09,0.34-0.28,0.47c-0.56,0.38-1.39,0.81-2.5,1.28c-0.4,0.17-0.66,0.25-0.78,0.25
			c-0.15,0-0.33-0.09-0.54-0.26c-0.12-0.1-0.2-0.22-0.23-0.35c-0.01-0.07-0.02-0.19-0.02-0.37v-7.12c-0.17-0.11-0.26-0.29-0.26-0.54
			c0-0.35,0.17-0.54,0.5-0.56l6.17-0.45c0.06,0,0.12-0.01,0.18-0.01c0.66,0,0.99,0.26,0.99,0.79c0,0.12-0.02,0.25-0.05,0.39
			l-0.23,0.99c0.18,0.1,0.27,0.27,0.27,0.51c0,0.33-0.15,0.51-0.46,0.54l-2.34,0.18C77.45,149.55,77.53,149.9,77.62,150.25z
			 M74.03,148.36l4.6-0.37l0.11-0.79c0-0.03,0.01-0.05,0.01-0.07c0-0.11-0.07-0.17-0.21-0.16l-4.5,0.37V148.36z M76.31,150.35
			c-0.1-0.38-0.17-0.73-0.22-1.06l-2.06,0.16v1.08L76.31,150.35z"/>
		<path d="M88.5,149.01v1.56l2.24-0.14l0.04,0c0.15-0.01,0.28,0.03,0.39,0.12c0.13,0.11,0.2,0.27,0.2,0.48
			c0,0.4-0.18,0.61-0.53,0.63l-2.35,0.14v1.88l3.76-0.17l0.04-0.01c0.16-0.01,0.3,0.05,0.4,0.19c0.09,0.11,0.14,0.27,0.14,0.47
			c0,0.42-0.18,0.64-0.54,0.66l-8.83,0.38h-0.03c-0.16,0-0.29-0.05-0.39-0.16c-0.11-0.12-0.16-0.28-0.16-0.48
			c0-0.41,0.18-0.63,0.54-0.65l3.63-0.17v-1.86l-2.35,0.14l-0.05,0.01c-0.14,0.01-0.27-0.04-0.38-0.14
			c-0.12-0.11-0.18-0.26-0.18-0.46c0-0.39,0.17-0.59,0.53-0.62l2.44-0.15v-1.56l-2.79,0.18c-0.01,0-0.03,0-0.04,0
			c-0.17,0-0.31-0.06-0.41-0.17c-0.09-0.1-0.13-0.24-0.13-0.41c0-0.39,0.17-0.6,0.51-0.62l7.11-0.5c0.02,0,0.03,0,0.04,0
			c0.19-0.01,0.34,0.06,0.45,0.22c0.08,0.11,0.12,0.25,0.12,0.43c0,0.38-0.17,0.58-0.5,0.6L88.5,149.01z M86.22,145.38
			c0.31,0,0.86,0.18,1.64,0.53c0.24,0.11,0.43,0.21,0.56,0.29c0.21,0.14,0.31,0.32,0.31,0.56c0,0.16-0.05,0.31-0.16,0.46
			c-0.14,0.2-0.34,0.29-0.6,0.29c-0.18,0-0.38-0.09-0.6-0.27c-0.24-0.2-0.69-0.51-1.33-0.93c-0.21-0.14-0.32-0.3-0.32-0.49
			c0-0.1,0.03-0.2,0.1-0.28C85.92,145.44,86.05,145.38,86.22,145.38z"/>
		<path d="M101.56,148.84l-0.11,1.86l2.17-0.12c0.02,0,0.03,0,0.04,0c0.12,0,0.23,0.03,0.32,0.1c0.17,0.11,0.25,0.29,0.25,0.53
			c0,0.29-0.1,0.49-0.29,0.59c-0.07,0.04-0.15,0.06-0.24,0.07l-8.84,0.44c-0.03,0-0.05,0-0.06,0c-0.11,0-0.22-0.03-0.31-0.09
			c-0.17-0.11-0.25-0.29-0.25-0.53c0-0.41,0.17-0.62,0.5-0.64l2.05-0.1l-0.11-1.77l-1.13,0.08c-0.03,0-0.04,0-0.05,0
			c-0.12,0-0.22-0.03-0.32-0.09c-0.17-0.11-0.25-0.29-0.25-0.53c0-0.4,0.17-0.61,0.5-0.64l1.17-0.08l-0.08-1.41l-0.01-0.05
			c-0.02-0.25,0.09-0.44,0.33-0.56c0.12-0.06,0.26-0.09,0.43-0.09c0.47,0,0.72,0.2,0.74,0.6l0.06,1.4l2.09-0.14l0.06-1.57
			c0.02-0.4,0.27-0.6,0.75-0.6c0.2,0,0.37,0.05,0.51,0.14c0.17,0.12,0.25,0.29,0.25,0.52c0,0.01,0,0.03,0,0.04l-0.08,1.36l0.99-0.07
			c0,0,0.01,0,0.03,0c0.14,0,0.27,0.04,0.37,0.13c0.14,0.12,0.21,0.29,0.21,0.52c0,0.39-0.17,0.6-0.51,0.63L101.56,148.84z
			 M97.56,152.47c0.18,0,0.35,0.06,0.5,0.19c0.16,0.13,0.24,0.31,0.24,0.53c0,0.2-0.08,0.38-0.24,0.56c-0.25,0.29-0.6,0.6-1.05,0.93
			c-0.8,0.6-1.37,0.9-1.72,0.9c-0.16,0-0.29-0.06-0.38-0.18c-0.08-0.1-0.12-0.21-0.12-0.33c0-0.19,0.16-0.41,0.49-0.65
			c0.6-0.46,1.14-0.99,1.61-1.58C97.1,152.6,97.32,152.47,97.56,152.47z M100.11,148.94l-1.99,0.13l0.07,1.8l1.84-0.1L100.11,148.94
			z M100.55,152.48c0.28,0,0.83,0.29,1.64,0.88c0.37,0.27,0.69,0.52,0.96,0.77c0.2,0.18,0.29,0.39,0.29,0.61
			c0,0.2-0.08,0.38-0.24,0.53c-0.17,0.15-0.36,0.23-0.58,0.23c-0.17,0-0.32-0.05-0.45-0.16c-0.05-0.04-0.13-0.13-0.24-0.26
			c-0.48-0.58-1.02-1.12-1.63-1.61c-0.18-0.15-0.28-0.31-0.28-0.48c0-0.13,0.05-0.24,0.14-0.34
			C100.25,152.53,100.38,152.48,100.55,152.48z"/>
		<path d="M107.47,151.57c-0.4,0.62-0.82,1.16-1.26,1.61c-0.2,0.21-0.37,0.31-0.53,0.31c-0.1,0-0.2-0.04-0.29-0.13
			c-0.1-0.08-0.15-0.19-0.15-0.32c0-0.14,0.1-0.33,0.29-0.57c0.69-0.88,1.25-1.75,1.68-2.61l-1.3,0.14c-0.03,0-0.06,0.01-0.08,0.01
			c-0.16,0-0.29-0.06-0.38-0.18c-0.09-0.12-0.14-0.27-0.14-0.45c0-0.35,0.16-0.54,0.48-0.57l1.68-0.18v-1.18
			c-0.75,0.16-1.19,0.23-1.3,0.23c-0.32,0-0.48-0.16-0.48-0.48c0-0.2,0.09-0.34,0.27-0.43c0.06-0.03,0.18-0.07,0.37-0.12
			c0.84-0.22,1.66-0.51,2.46-0.86c0.29-0.12,0.49-0.19,0.62-0.19c0.24,0,0.42,0.1,0.54,0.31c0.06,0.1,0.09,0.21,0.09,0.32
			c0,0.26-0.14,0.45-0.43,0.57c-0.22,0.1-0.49,0.2-0.83,0.3v1.38l1.04-0.12c0.03,0,0.05-0.01,0.06-0.01c0.24-0.01,0.41,0.1,0.5,0.34
			c0.03,0.07,0.04,0.16,0.04,0.24c0,0.36-0.16,0.56-0.48,0.6l-1.17,0.13v0.54c0.65,0.34,1.13,0.63,1.45,0.87
			c0.22,0.17,0.33,0.36,0.33,0.58c0,0.13-0.04,0.24-0.12,0.35c-0.11,0.16-0.27,0.23-0.46,0.23c-0.16,0-0.31-0.09-0.48-0.26
			c-0.14-0.15-0.35-0.36-0.64-0.62l-0.07-0.07v3.68c0,0.14-0.04,0.25-0.13,0.35c-0.13,0.14-0.3,0.21-0.53,0.21
			c-0.27,0-0.46-0.09-0.58-0.28c-0.05-0.08-0.08-0.17-0.08-0.28V151.57z M115.12,152.27c0.21,0.11,0.32,0.31,0.32,0.6
			c0,0.39-0.18,0.59-0.53,0.62l-2.71,0.18c0,0.16-0.05,0.28-0.14,0.38c-0.12,0.13-0.28,0.19-0.5,0.19c-0.42,0-0.64-0.19-0.66-0.58
			l-0.28-5.05c-0.01-0.21,0.07-0.38,0.23-0.49c0.12-0.08,0.26-0.13,0.44-0.13c0.26,0,0.45,0.09,0.58,0.27l2.34-0.27
			c0.11-0.01,0.2-0.02,0.27-0.02c0.66,0,0.99,0.33,0.99,0.98c0,0.07-0.01,0.14-0.02,0.23L115.12,152.27z M113.88,152.29l0.21-2.7
			c0-0.02,0-0.04,0-0.07c0-0.17-0.08-0.25-0.25-0.25c-0.01,0-0.04,0-0.07,0.01l-1.75,0.18l0.13,2.95L113.88,152.29z"/>
		<path d="M125.05,154.8l-6.33,0.27c-0.08,0.3-0.3,0.45-0.67,0.45c-0.3,0-0.5-0.1-0.61-0.31c-0.04-0.08-0.07-0.17-0.07-0.27v-8.58
			c0-0.21,0.09-0.36,0.27-0.46c0.12-0.07,0.27-0.11,0.42-0.11c0.29,0,0.49,0.11,0.61,0.32l6.54-0.47c0.02,0,0.06,0,0.13,0
			c0.72,0,1.07,0.38,1.07,1.15v8.18c0,0.16-0.06,0.29-0.17,0.39c-0.13,0.13-0.3,0.19-0.52,0.19c-0.31,0-0.51-0.11-0.62-0.33
			c-0.04-0.07-0.05-0.16-0.05-0.25V154.8z M125.05,153.61v-6.57c0-0.18-0.09-0.26-0.27-0.25h-0.02l-6.04,0.45v6.63L125.05,153.61z
			 M122.4,148.82v0.8l1.25-0.09c0.04,0,0.07-0.01,0.08-0.01c0.32,0,0.48,0.19,0.48,0.56c0,0.33-0.15,0.5-0.44,0.53l-0.3,0.03
			c0.18,0.06,0.34,0.16,0.49,0.3c0.13,0.13,0.2,0.27,0.2,0.43c0,0.15-0.08,0.28-0.23,0.38l0.16-0.01c0.01,0,0.03,0,0.05,0
			c0.35,0,0.53,0.2,0.53,0.61c0,0.36-0.16,0.55-0.48,0.57l-4.46,0.26l-0.05,0c-0.18,0.01-0.33-0.06-0.43-0.22
			c-0.07-0.11-0.1-0.24-0.1-0.39c0-0.37,0.16-0.56,0.47-0.58l1.54-0.09v-1.1l-1.1,0.09c-0.02,0-0.03,0-0.04,0
			c-0.32,0-0.48-0.17-0.48-0.52c0-0.36,0.15-0.55,0.44-0.57l1.18-0.09v-0.8l-1.27,0.1c-0.02,0-0.05,0-0.08,0
			c-0.32,0-0.48-0.2-0.48-0.6c0-0.35,0.16-0.53,0.47-0.55l3.99-0.31c0.02,0,0.04,0,0.06,0c0.32,0,0.49,0.2,0.49,0.61
			c0,0.34-0.15,0.53-0.46,0.55L122.4,148.82z M122.92,150.67l-0.53,0.04v1.12l0.93-0.06c-0.04-0.04-0.08-0.09-0.11-0.16
			c-0.08-0.2-0.19-0.38-0.33-0.55c-0.05-0.06-0.07-0.12-0.07-0.18C122.82,150.81,122.85,150.73,122.92,150.67z"/>
	</g>
</g>
<g id="ガイド" display="none">
</g>
</svg>
