<?xml version="1.0" encoding="utf-8"?>
<!-- Generator: Adobe Illustrator 25.4.1, SVG Export Plug-In . SVG Version: 6.00 Build 0)  -->
<svg version="1.1" xmlns="http://www.w3.org/2000/svg" xmlns:xlink="http://www.w3.org/1999/xlink" x="0px" y="0px"
	 viewBox="0 0 164.41 252.28" enable-background="new 0 0 164.41 252.28" xml:space="preserve">
<g id="地">
	<rect fill="#DCDDDD" width="164.41" height="252.28"/>
</g>
<g id="枠">
</g>
<g id="国旗">
	<g>
		<g>
			<rect x="25.51" y="60" fill="#F5CF21" width="113.39" height="75.59"/>
			<rect x="25.51" y="110.39" fill="#147F49" width="113.39" height="25.2"/>
			<rect x="25.51" y="60" fill="#147F49" width="113.39" height="25.2"/>
			<polygon fill="#C91623" points="63.31,97.8 25.51,135.59 25.51,60 			"/>
			<polygon fill="#040000" points="85.86,90.57 87.69,96.22 93.62,96.22 88.82,99.7 90.66,105.35 85.86,101.86 81.06,105.35 
				82.89,99.7 78.09,96.22 84.02,96.22 			"/>
			<polygon fill="#040000" points="118.08,90.57 119.91,96.22 125.84,96.22 121.04,99.7 122.88,105.35 118.08,101.86 113.28,105.35 
				115.11,99.7 110.31,96.22 116.24,96.22 			"/>
		</g>
	</g>
</g>
<g id="国名">
	<g>
		<path d="M32.44,148.32v-1.89c0-0.19,0.06-0.34,0.17-0.45c0.13-0.13,0.31-0.19,0.53-0.19c0.31,0,0.52,0.11,0.64,0.33
			c0.05,0.09,0.07,0.19,0.07,0.32v1.78c0.63-0.04,1.15-0.08,1.55-0.12c0.06-0.01,0.11-0.01,0.15-0.01c0.43,0,0.64,0.21,0.64,0.62
			c0,0.33-0.12,0.53-0.34,0.62c-0.07,0.03-0.21,0.05-0.4,0.07l-1.13,0.08l-0.35,0.02l-0.13,0.01c-0.07,1.3-0.25,2.34-0.57,3.12
			c-0.39,0.97-1.06,1.78-2,2.42c-0.19,0.13-0.37,0.19-0.53,0.19c-0.16,0-0.29-0.06-0.38-0.18c-0.08-0.11-0.13-0.22-0.13-0.33
			c0-0.13,0.04-0.24,0.12-0.34c0.04-0.05,0.17-0.17,0.39-0.35c0.73-0.6,1.22-1.48,1.47-2.62c0.1-0.48,0.17-1.08,0.21-1.8l-0.21,0.02
			c-0.72,0.05-1.39,0.1-2.01,0.15l-0.17,0.02v1.73c0,0.14-0.03,0.26-0.1,0.37c-0.12,0.19-0.32,0.28-0.59,0.28
			c-0.3,0-0.5-0.11-0.61-0.33c-0.05-0.09-0.07-0.2-0.07-0.32v-1.63l-0.12,0.01c-0.79,0.05-1.29,0.09-1.5,0.11
			c-0.1,0.01-0.17,0.01-0.22,0.01c-0.44,0-0.65-0.22-0.65-0.67c0-0.28,0.1-0.47,0.3-0.58c0.09-0.05,0.22-0.08,0.4-0.08
			c0.05,0,0.34-0.02,0.85-0.05l0.77-0.04l0.18-0.01v-1.7c0-0.16,0.04-0.29,0.12-0.39c0.12-0.16,0.31-0.24,0.56-0.24
			c0.3,0,0.51,0.11,0.62,0.32c0.05,0.09,0.07,0.2,0.07,0.32v1.61C30.95,148.43,31.75,148.37,32.44,148.32z"/>
		<path d="M39.4,146.82c0.15,0,0.41,0.07,0.78,0.2c0.69,0.24,1.26,0.53,1.71,0.86c0.24,0.17,0.35,0.39,0.35,0.65
			c0,0.14-0.05,0.29-0.14,0.43c-0.14,0.21-0.33,0.32-0.56,0.32c-0.2,0-0.43-0.09-0.67-0.28c-0.62-0.49-1.18-0.88-1.68-1.16
			c-0.26-0.14-0.38-0.31-0.38-0.51C38.8,146.99,39,146.82,39.4,146.82z M46.52,148.59c0.12,0,0.25,0.04,0.36,0.13
			c0.15,0.11,0.23,0.26,0.23,0.45c0,0.15-0.06,0.32-0.18,0.5c-0.85,1.27-1.97,2.37-3.36,3.3c-1.16,0.77-2.35,1.32-3.59,1.66
			c-0.13,0.03-0.24,0.05-0.34,0.05c-0.31,0-0.54-0.14-0.67-0.43c-0.06-0.13-0.09-0.25-0.09-0.37c0-0.27,0.13-0.47,0.4-0.6
			c0.05-0.03,0.3-0.1,0.74-0.23c1.59-0.47,3.06-1.3,4.43-2.51c0.52-0.47,1.02-1,1.48-1.59C46.11,148.7,46.31,148.59,46.52,148.59z"
			/>
		<path d="M53.7,150.28v4.34c0,0.21-0.07,0.37-0.2,0.48c-0.12,0.11-0.29,0.16-0.5,0.16c-0.47,0-0.71-0.21-0.71-0.64v-8.28
			c0-0.42,0.24-0.63,0.71-0.63c0.31,0,0.52,0.11,0.62,0.32c0.05,0.09,0.07,0.2,0.07,0.32v2.72c1.32,0.34,2.34,0.76,3.07,1.24
			c0.32,0.21,0.48,0.46,0.48,0.76c0,0.2-0.07,0.36-0.2,0.5c-0.14,0.15-0.31,0.23-0.52,0.23c-0.18,0-0.4-0.09-0.66-0.27
			C55.26,151.1,54.53,150.69,53.7,150.28z"/>
		<path d="M65.22,149.45c0.48-0.84,0.92-1.8,1.3-2.87c0.14-0.41,0.38-0.62,0.71-0.62c0.13,0,0.25,0.02,0.36,0.07
			c0.29,0.12,0.43,0.33,0.43,0.63c0,0.12-0.04,0.3-0.13,0.53c-0.39,1.03-0.89,2.04-1.48,3.03c0.47,0.34,0.87,0.66,1.19,0.97
			c0.2,0.19,0.3,0.41,0.3,0.65c0,0.24-0.09,0.43-0.28,0.58c-0.12,0.1-0.27,0.16-0.44,0.16c-0.21,0-0.42-0.11-0.62-0.32
			c-0.29-0.3-0.61-0.59-0.96-0.88c-0.98,1.23-2.07,2.2-3.26,2.9c-0.46,0.27-0.8,0.41-1,0.41c-0.17,0-0.31-0.07-0.41-0.21
			c-0.08-0.11-0.12-0.21-0.12-0.32c0-0.16,0.07-0.3,0.22-0.44c0.04-0.03,0.17-0.12,0.4-0.27c1.09-0.72,2.12-1.7,3.08-2.95
			c-0.5-0.37-0.97-0.69-1.41-0.94c-0.24-0.14-0.37-0.31-0.37-0.5c0-0.08,0.02-0.16,0.06-0.23c0.1-0.19,0.26-0.29,0.49-0.29
			C63.57,148.54,64.22,148.84,65.22,149.45z"/>
		<path d="M73.14,148.62h6.79c0.13,0,0.23,0.04,0.31,0.11c0.13,0.11,0.19,0.26,0.19,0.45c0,0.23-0.08,0.39-0.24,0.49
			c-0.07,0.05-0.16,0.07-0.25,0.07h-6.79c-0.12,0-0.23-0.04-0.32-0.12c-0.12-0.11-0.17-0.25-0.17-0.44c0-0.22,0.08-0.39,0.24-0.49
			C72.96,148.65,73.04,148.62,73.14,148.62z M73.14,151.19h6.79c0.12,0,0.23,0.04,0.31,0.11c0.13,0.11,0.19,0.26,0.19,0.45
			c0,0.22-0.08,0.39-0.24,0.49c-0.07,0.04-0.16,0.07-0.25,0.07h-6.79c-0.12,0-0.22-0.03-0.3-0.1c-0.12-0.11-0.18-0.26-0.18-0.45
			c0-0.22,0.08-0.38,0.23-0.49C72.95,151.21,73.04,151.19,73.14,151.19z"/>
		<path d="M90.08,146.99c0.36,0,0.64,0.11,0.86,0.33c0.19,0.19,0.29,0.44,0.29,0.74c0,0.21-0.05,0.54-0.17,0.99
			c-0.11,0.45-0.23,0.85-0.37,1.2c-0.7,1.79-1.85,3.18-3.46,4.16c-0.64,0.39-1.1,0.59-1.38,0.59c-0.18,0-0.32-0.07-0.41-0.22
			c-0.07-0.11-0.1-0.21-0.1-0.32c0-0.2,0.13-0.38,0.38-0.52c1.08-0.62,1.97-1.43,2.65-2.42c0.61-0.87,1.03-1.82,1.26-2.85
			c0.02-0.08,0.03-0.14,0.03-0.19c0-0.09-0.05-0.13-0.16-0.13c-0.08,0-0.18,0.01-0.3,0.02c-0.21,0.02-1.16,0.08-2.86,0.2
			c-0.63,0.04-1.32,0.1-2.07,0.16c-0.07,0.01-0.13,0.01-0.16,0.01c-0.46,0-0.69-0.24-0.69-0.71c0-0.36,0.17-0.57,0.51-0.64
			c0.16-0.03,1.81-0.14,4.96-0.33c0.31-0.02,0.56-0.04,0.73-0.05C89.86,147,90.01,146.99,90.08,146.99z M92.21,144.88
			c0.21,0,0.41,0.05,0.61,0.16c0.21,0.11,0.37,0.28,0.49,0.48c0.11,0.2,0.17,0.41,0.17,0.63c0,0.33-0.11,0.61-0.34,0.86
			c-0.25,0.28-0.56,0.42-0.94,0.42c-0.17,0-0.34-0.04-0.5-0.11c-0.21-0.1-0.39-0.24-0.52-0.43c-0.16-0.23-0.24-0.47-0.24-0.74
			c0-0.45,0.19-0.81,0.58-1.06C91.72,144.95,91.95,144.88,92.21,144.88z M92.2,145.55c-0.11,0-0.21,0.03-0.32,0.09
			c-0.19,0.12-0.28,0.29-0.28,0.51c0,0.15,0.05,0.28,0.15,0.39c0.12,0.14,0.27,0.21,0.46,0.21c0.1,0,0.19-0.02,0.27-0.07
			c0.22-0.11,0.33-0.29,0.33-0.53c0-0.19-0.07-0.34-0.22-0.47C92.48,145.6,92.35,145.55,92.2,145.55z"/>
		<path d="M97.84,146.75v3.86c0,0.2-0.06,0.35-0.19,0.46c-0.13,0.11-0.3,0.17-0.53,0.17c-0.31,0-0.52-0.11-0.63-0.32
			c-0.05-0.09-0.07-0.2-0.07-0.32v-3.86c0-0.26,0.1-0.44,0.31-0.55c0.12-0.06,0.25-0.09,0.39-0.09c0.24,0,0.43,0.07,0.56,0.21
			C97.78,146.43,97.84,146.57,97.84,146.75z M101.82,146.25v3.41c0,1.12-0.13,2.07-0.4,2.85c-0.35,1.01-1,1.85-1.95,2.54
			c-0.18,0.13-0.36,0.19-0.53,0.19c-0.16,0-0.27-0.05-0.36-0.14c-0.08-0.1-0.12-0.2-0.12-0.32c0-0.16,0.08-0.33,0.25-0.5
			c0.44-0.45,0.74-0.82,0.91-1.08c0.37-0.59,0.6-1.29,0.7-2.12c0.05-0.4,0.08-0.87,0.08-1.39v-3.42c0-0.38,0.23-0.58,0.7-0.58
			C101.58,145.68,101.82,145.87,101.82,146.25z"/>
		<path d="M107.43,146.82c0.15,0,0.41,0.07,0.78,0.2c0.69,0.24,1.26,0.53,1.71,0.86c0.24,0.17,0.35,0.39,0.35,0.65
			c0,0.14-0.05,0.29-0.14,0.43c-0.14,0.21-0.33,0.32-0.56,0.32c-0.2,0-0.43-0.09-0.67-0.28c-0.62-0.49-1.18-0.88-1.68-1.16
			c-0.25-0.14-0.38-0.31-0.38-0.51C106.83,146.99,107.03,146.82,107.43,146.82z M114.55,148.59c0.12,0,0.25,0.04,0.36,0.13
			c0.15,0.11,0.23,0.26,0.23,0.45c0,0.15-0.06,0.32-0.18,0.5c-0.85,1.27-1.97,2.37-3.36,3.3c-1.16,0.77-2.35,1.32-3.59,1.66
			c-0.13,0.03-0.24,0.05-0.34,0.05c-0.31,0-0.54-0.14-0.67-0.43c-0.06-0.13-0.09-0.25-0.09-0.37c0-0.27,0.13-0.47,0.4-0.6
			c0.06-0.03,0.3-0.1,0.74-0.23c1.59-0.47,3.07-1.3,4.43-2.51c0.52-0.47,1.02-1,1.48-1.59C114.14,148.7,114.34,148.59,114.55,148.59
			z"/>
		<path d="M118.05,148.77c0.23,0,0.56,0.08,1.01,0.24c0.52,0.19,0.95,0.41,1.3,0.66c0.24,0.18,0.36,0.39,0.36,0.65
			c0,0.16-0.05,0.31-0.17,0.45c-0.14,0.19-0.33,0.29-0.56,0.29c-0.17,0-0.35-0.08-0.56-0.25c-0.42-0.34-0.96-0.7-1.61-1.07
			c-0.22-0.13-0.33-0.28-0.33-0.48c0-0.09,0.02-0.17,0.07-0.26C117.65,148.85,117.81,148.77,118.05,148.77z M125.91,148.4
			c0.11,0,0.21,0.03,0.32,0.09c0.18,0.11,0.28,0.27,0.28,0.48c0,0.21-0.17,0.6-0.52,1.18c-0.57,0.96-1.35,1.83-2.34,2.63
			c-1.18,0.95-2.48,1.67-3.92,2.16c-0.16,0.06-0.3,0.08-0.41,0.08c-0.29,0-0.51-0.13-0.64-0.4c-0.07-0.13-0.1-0.26-0.1-0.38
			c0-0.28,0.13-0.48,0.38-0.62c0.04-0.02,0.28-0.11,0.72-0.26c1.2-0.42,2.31-1.04,3.35-1.87c1-0.79,1.77-1.68,2.31-2.67
			C125.49,148.54,125.69,148.4,125.91,148.4z M119.39,146.26c0.34,0,0.89,0.24,1.68,0.72c0.24,0.14,0.41,0.26,0.52,0.35
			c0.21,0.17,0.32,0.38,0.32,0.61c0,0.16-0.05,0.3-0.17,0.44c-0.17,0.2-0.36,0.3-0.58,0.3c-0.19,0-0.38-0.1-0.58-0.3
			c-0.33-0.34-0.81-0.73-1.45-1.2c-0.2-0.14-0.29-0.3-0.29-0.46c0-0.09,0.03-0.18,0.08-0.26
			C119.02,146.33,119.17,146.26,119.39,146.26z"/>
		<path d="M131.83,147.77c0.23,0,0.48,0.09,0.76,0.27c0.13,0.08,0.34,0.24,0.64,0.48c2.18,1.78,3.68,2.98,4.51,3.6
			c0.25,0.18,0.37,0.41,0.37,0.67c0,0.22-0.08,0.41-0.24,0.57c-0.15,0.15-0.33,0.22-0.52,0.22c-0.19,0-0.37-0.07-0.54-0.2
			c-0.4-0.32-1.67-1.44-3.8-3.35c-0.5-0.44-0.76-0.67-0.8-0.7c-0.13-0.1-0.25-0.15-0.35-0.15c-0.11,0-0.28,0.12-0.5,0.38
			c-0.71,0.81-1.32,1.46-1.84,1.97c-0.18,0.17-0.37,0.26-0.56,0.26c-0.18,0-0.34-0.07-0.48-0.2c-0.17-0.16-0.26-0.34-0.26-0.52
			c0-0.16,0.06-0.31,0.19-0.43c0.02-0.02,0.09-0.09,0.23-0.19c0.48-0.4,1.16-1.05,2.04-1.98c0.22-0.23,0.4-0.39,0.51-0.47
			C131.4,147.84,131.61,147.77,131.83,147.77z M136.07,146.26c0.21,0,0.41,0.05,0.6,0.16c0.21,0.12,0.37,0.28,0.49,0.48
			c0.11,0.2,0.17,0.41,0.17,0.62c0,0.33-0.11,0.61-0.34,0.86c-0.25,0.28-0.56,0.42-0.94,0.42c-0.17,0-0.34-0.04-0.5-0.11
			c-0.21-0.1-0.38-0.24-0.52-0.43c-0.16-0.23-0.24-0.47-0.24-0.74c0-0.45,0.19-0.81,0.58-1.06
			C135.58,146.34,135.81,146.26,136.07,146.26z M136.06,146.93c-0.11,0-0.22,0.03-0.32,0.09c-0.19,0.12-0.28,0.29-0.28,0.51
			c0,0.15,0.05,0.28,0.15,0.39c0.12,0.14,0.27,0.21,0.45,0.21c0.1,0,0.19-0.02,0.27-0.07c0.22-0.11,0.33-0.29,0.33-0.53
			c0-0.19-0.07-0.34-0.22-0.46C136.33,146.98,136.21,146.93,136.06,146.93z"/>
	</g>
</g>
<g id="ガイド" display="none">
</g>
</svg>
