<?xml version="1.0" encoding="utf-8"?>
<!-- Generator: Adobe Illustrator 25.4.1, SVG Export Plug-In . SVG Version: 6.00 Build 0)  -->
<svg version="1.1" xmlns="http://www.w3.org/2000/svg" xmlns:xlink="http://www.w3.org/1999/xlink" x="0px" y="0px"
	 viewBox="0 0 164.41 252.28" enable-background="new 0 0 164.41 252.28" xml:space="preserve">
<g id="地">
	<rect fill="#DCDDDD" width="164.41" height="252.28"/>
</g>
<g id="枠">
</g>
<g id="国旗">
	<g>
		<g>
			<rect x="25.51" y="106.36" fill="#D8152B" width="113.39" height="5.81"/>
			<rect x="25.51" y="112.18" fill="#FFFFFF" width="113.39" height="5.81"/>
			<rect x="25.51" y="100.55" fill="#FFFFFF" width="113.39" height="5.82"/>
			<rect x="25.51" y="117.99" fill="#D8152B" width="113.39" height="5.81"/>
			<rect x="25.51" y="129.62" fill="#D8152B" width="113.39" height="5.81"/>
			<rect x="25.51" y="123.81" fill="#FFFFFF" width="113.39" height="5.81"/>
			<rect x="25.51" y="88.92" fill="#FFFFFF" width="113.39" height="5.81"/>
			<rect x="25.51" y="65.66" fill="#FFFFFF" width="113.39" height="5.81"/>
			<rect x="25.51" y="59.85" fill="#D8152B" width="113.39" height="5.81"/>
			<rect x="25.51" y="71.47" fill="#D8152B" width="113.39" height="5.81"/>
			<rect x="25.51" y="77.29" fill="#FFFFFF" width="113.39" height="5.81"/>
			<rect x="25.51" y="94.73" fill="#D8152B" width="113.39" height="5.81"/>
			<rect x="25.51" y="83.1" fill="#D8152B" width="113.39" height="5.81"/>
			<rect x="25.51" y="59.85" fill="#11335F" width="50.79" height="40.7"/>
			<polygon fill="#FFFFFF" points="29.7,69.79 30.23,71.4 31.92,71.4 30.55,72.39 31.07,74 29.7,73.01 28.34,74 28.86,72.39 
				27.49,71.4 29.18,71.4 			"/>
			<polygon fill="#FFFFFF" points="38.24,69.79 38.76,71.4 40.46,71.4 39.09,72.39 39.61,74 38.24,73.01 36.87,74 37.39,72.39 
				36.03,71.4 37.72,71.4 			"/>
			<polygon fill="#FFFFFF" points="46.78,69.79 47.3,71.4 48.99,71.4 47.62,72.39 48.15,74 46.78,73.01 45.41,74 45.93,72.39 
				44.56,71.4 46.25,71.4 			"/>
			<polygon fill="#FFFFFF" points="55.31,69.79 55.84,71.4 57.53,71.4 56.16,72.39 56.68,74 55.31,73.01 53.94,74 54.47,72.39 
				53.1,71.4 54.79,71.4 			"/>
			<polygon fill="#FFFFFF" points="63.85,69.79 64.37,71.4 66.06,71.4 64.69,72.39 65.22,74 63.85,73.01 62.48,74 63,72.39 
				61.63,71.4 63.32,71.4 			"/>
			<polygon fill="#FFFFFF" points="72.38,69.79 72.91,71.4 74.6,71.4 73.23,72.39 73.75,74 72.38,73.01 71.01,74 71.54,72.39 
				70.17,71.4 71.86,71.4 			"/>
			<polygon fill="#FFFFFF" points="72.38,61.54 72.91,63.15 74.6,63.15 73.23,64.14 73.75,65.75 72.38,64.76 71.01,65.75 
				71.54,64.14 70.17,63.15 71.86,63.15 			"/>
			<polygon fill="#FFFFFF" points="29.7,61.54 30.23,63.15 31.92,63.15 30.55,64.14 31.07,65.75 29.7,64.76 28.34,65.75 
				28.86,64.14 27.49,63.15 29.18,63.15 			"/>
			<polygon fill="#FFFFFF" points="38.24,61.54 38.76,63.15 40.46,63.15 39.09,64.14 39.61,65.75 38.24,64.76 36.87,65.75 
				37.39,64.14 36.03,63.15 37.72,63.15 			"/>
			<polygon fill="#FFFFFF" points="46.78,61.54 47.3,63.15 48.99,63.15 47.62,64.14 48.15,65.75 46.78,64.76 45.41,65.75 
				45.93,64.14 44.56,63.15 46.25,63.15 			"/>
			<polygon fill="#FFFFFF" points="55.31,61.54 55.84,63.15 57.53,63.15 56.16,64.14 56.68,65.75 55.31,64.76 53.94,65.75 
				54.47,64.14 53.1,63.15 54.79,63.15 			"/>
			<polygon fill="#FFFFFF" points="63.85,61.54 64.37,63.15 66.06,63.15 64.69,64.14 65.22,65.75 63.85,64.76 62.48,65.75 63,64.14 
				61.63,63.15 63.32,63.15 			"/>
			<polygon fill="#FFFFFF" points="33.97,65.75 34.5,67.36 36.19,67.36 34.82,68.35 35.34,69.96 33.97,68.97 32.6,69.96 
				33.13,68.35 31.76,67.36 33.45,67.36 			"/>
			<polygon fill="#FFFFFF" points="42.51,65.75 43.03,67.36 44.72,67.36 43.35,68.35 43.88,69.96 42.51,68.97 41.14,69.96 
				41.66,68.35 40.29,67.36 41.99,67.36 			"/>
			<polygon fill="#FFFFFF" points="51.04,65.75 51.57,67.36 53.26,67.36 51.89,68.35 52.41,69.96 51.04,68.97 49.68,69.96 
				50.2,68.35 48.83,67.36 50.52,67.36 			"/>
			<polygon fill="#FFFFFF" points="59.58,65.75 60.1,67.36 61.8,67.36 60.43,68.35 60.95,69.96 59.58,68.97 58.21,69.96 
				58.73,68.35 57.36,67.36 59.06,67.36 			"/>
			<polygon fill="#FFFFFF" points="68.12,65.75 68.64,67.36 70.33,67.36 68.96,68.35 69.48,69.96 68.12,68.97 66.75,69.96 
				67.27,68.35 65.9,67.36 67.59,67.36 			"/>
			<polygon fill="#FFFFFF" points="33.97,73.86 34.5,75.47 36.19,75.47 34.82,76.47 35.34,78.07 33.97,77.08 32.6,78.07 
				33.13,76.47 31.76,75.47 33.45,75.47 			"/>
			<polygon fill="#FFFFFF" points="42.51,73.86 43.03,75.47 44.72,75.47 43.35,76.47 43.88,78.07 42.51,77.08 41.14,78.07 
				41.66,76.47 40.29,75.47 41.99,75.47 			"/>
			<polygon fill="#FFFFFF" points="51.04,73.86 51.57,75.47 53.26,75.47 51.89,76.47 52.41,78.07 51.04,77.08 49.68,78.07 
				50.2,76.47 48.83,75.47 50.52,75.47 			"/>
			<polygon fill="#FFFFFF" points="59.58,73.86 60.1,75.47 61.8,75.47 60.43,76.47 60.95,78.07 59.58,77.08 58.21,78.07 
				58.73,76.47 57.36,75.47 59.06,75.47 			"/>
			<polygon fill="#FFFFFF" points="68.12,73.86 68.64,75.47 70.33,75.47 68.96,76.47 69.48,78.07 68.12,77.08 66.75,78.07 
				67.27,76.47 65.9,75.47 67.59,75.47 			"/>
			<polygon fill="#FFFFFF" points="33.97,81.97 34.5,83.58 36.19,83.58 34.82,84.58 35.34,86.19 33.97,85.19 32.6,86.19 
				33.13,84.58 31.76,83.58 33.45,83.58 			"/>
			<polygon fill="#FFFFFF" points="42.51,81.97 43.03,83.58 44.72,83.58 43.35,84.58 43.88,86.19 42.51,85.19 41.14,86.19 
				41.66,84.58 40.29,83.58 41.99,83.58 			"/>
			<polygon fill="#FFFFFF" points="51.04,81.97 51.57,83.58 53.26,83.58 51.89,84.58 52.41,86.19 51.04,85.19 49.68,86.19 
				50.2,84.58 48.83,83.58 50.52,83.58 			"/>
			<polygon fill="#FFFFFF" points="59.58,81.97 60.1,83.58 61.8,83.58 60.43,84.58 60.95,86.19 59.58,85.19 58.21,86.19 
				58.73,84.58 57.36,83.58 59.06,83.58 			"/>
			<polygon fill="#FFFFFF" points="68.12,81.97 68.64,83.58 70.33,83.58 68.96,84.58 69.48,86.19 68.12,85.19 66.75,86.19 
				67.27,84.58 65.9,83.58 67.59,83.58 			"/>
			<polygon fill="#FFFFFF" points="33.97,90.08 34.5,91.69 36.19,91.69 34.82,92.69 35.34,94.3 33.97,93.3 32.6,94.3 33.13,92.69 
				31.76,91.69 33.45,91.69 			"/>
			<polygon fill="#FFFFFF" points="42.51,90.08 43.03,91.69 44.72,91.69 43.35,92.69 43.88,94.3 42.51,93.3 41.14,94.3 41.66,92.69 
				40.29,91.69 41.99,91.69 			"/>
			<polygon fill="#FFFFFF" points="51.04,90.08 51.57,91.69 53.26,91.69 51.89,92.69 52.41,94.3 51.04,93.3 49.68,94.3 50.2,92.69 
				48.83,91.69 50.52,91.69 			"/>
			<polygon fill="#FFFFFF" points="59.58,90.08 60.1,91.69 61.8,91.69 60.43,92.69 60.95,94.3 59.58,93.3 58.21,94.3 58.73,92.69 
				57.36,91.69 59.06,91.69 			"/>
			<polygon fill="#FFFFFF" points="68.12,90.08 68.64,91.69 70.33,91.69 68.96,92.69 69.48,94.3 68.12,93.3 66.75,94.3 67.27,92.69 
				65.9,91.69 67.59,91.69 			"/>
			<polygon fill="#FFFFFF" points="29.7,78.04 30.23,79.65 31.92,79.65 30.55,80.64 31.07,82.25 29.7,81.26 28.34,82.25 
				28.86,80.64 27.49,79.65 29.18,79.65 			"/>
			<polygon fill="#FFFFFF" points="38.24,78.04 38.76,79.65 40.46,79.65 39.09,80.64 39.61,82.25 38.24,81.26 36.87,82.25 
				37.39,80.64 36.03,79.65 37.72,79.65 			"/>
			<polygon fill="#FFFFFF" points="46.78,78.04 47.3,79.65 48.99,79.65 47.62,80.64 48.15,82.25 46.78,81.26 45.41,82.25 
				45.93,80.64 44.56,79.65 46.25,79.65 			"/>
			<polygon fill="#FFFFFF" points="55.31,78.04 55.84,79.65 57.53,79.65 56.16,80.64 56.68,82.25 55.31,81.26 53.94,82.25 
				54.47,80.64 53.1,79.65 54.79,79.65 			"/>
			<polygon fill="#FFFFFF" points="63.85,78.04 64.37,79.65 66.06,79.65 64.69,80.64 65.22,82.25 63.85,81.26 62.48,82.25 63,80.64 
				61.63,79.65 63.32,79.65 			"/>
			<polygon fill="#FFFFFF" points="72.38,78.04 72.91,79.65 74.6,79.65 73.23,80.64 73.75,82.25 72.38,81.26 71.01,82.25 
				71.54,80.64 70.17,79.65 71.86,79.65 			"/>
			<polygon fill="#FFFFFF" points="29.7,86.29 30.23,87.9 31.92,87.9 30.55,88.89 31.07,90.5 29.7,89.51 28.34,90.5 28.86,88.89 
				27.49,87.9 29.18,87.9 			"/>
			<polygon fill="#FFFFFF" points="38.24,86.29 38.76,87.9 40.46,87.9 39.09,88.89 39.61,90.5 38.24,89.51 36.87,90.5 37.39,88.89 
				36.03,87.9 37.72,87.9 			"/>
			<polygon fill="#FFFFFF" points="46.78,86.29 47.3,87.9 48.99,87.9 47.62,88.89 48.15,90.5 46.78,89.51 45.41,90.5 45.93,88.89 
				44.56,87.9 46.25,87.9 			"/>
			<polygon fill="#FFFFFF" points="55.31,86.29 55.84,87.9 57.53,87.9 56.16,88.89 56.68,90.5 55.31,89.51 53.94,90.5 54.47,88.89 
				53.1,87.9 54.79,87.9 			"/>
			<polygon fill="#FFFFFF" points="63.85,86.29 64.37,87.9 66.06,87.9 64.69,88.89 65.22,90.5 63.85,89.51 62.48,90.5 63,88.89 
				61.63,87.9 63.32,87.9 			"/>
			<polygon fill="#FFFFFF" points="72.38,86.29 72.91,87.9 74.6,87.9 73.23,88.89 73.75,90.5 72.38,89.51 71.01,90.5 71.54,88.89 
				70.17,87.9 71.86,87.9 			"/>
			<polygon fill="#FFFFFF" points="29.7,94.54 30.23,96.15 31.92,96.15 30.55,97.15 31.07,98.75 29.7,97.76 28.34,98.75 
				28.86,97.15 27.49,96.15 29.18,96.15 			"/>
			<polygon fill="#FFFFFF" points="38.24,94.54 38.76,96.15 40.46,96.15 39.09,97.15 39.61,98.75 38.24,97.76 36.87,98.75 
				37.39,97.15 36.03,96.15 37.72,96.15 			"/>
			<polygon fill="#FFFFFF" points="46.78,94.54 47.3,96.15 48.99,96.15 47.62,97.15 48.15,98.75 46.78,97.76 45.41,98.75 
				45.93,97.15 44.56,96.15 46.25,96.15 			"/>
			<polygon fill="#FFFFFF" points="55.31,94.54 55.84,96.15 57.53,96.15 56.16,97.15 56.68,98.75 55.31,97.76 53.94,98.75 
				54.47,97.15 53.1,96.15 54.79,96.15 			"/>
			<polygon fill="#FFFFFF" points="63.85,94.54 64.37,96.15 66.06,96.15 64.69,97.15 65.22,98.75 63.85,97.76 62.48,98.75 63,97.15 
				61.63,96.15 63.32,96.15 			"/>
			<polygon fill="#FFFFFF" points="72.38,94.54 72.91,96.15 74.6,96.15 73.23,97.15 73.75,98.75 72.38,97.76 71.01,98.75 
				71.54,97.15 70.17,96.15 71.86,96.15 			"/>
		</g>
	</g>
</g>
<g id="国名">
	<g>
		<path d="M68.65,146.52c0.24,0,0.46,0.06,0.66,0.18c0.27,0.17,0.4,0.41,0.4,0.72c0,0.2-0.08,0.44-0.25,0.74
			c-0.47,0.82-1.06,1.53-1.76,2.15c-0.4,0.34-0.7,0.51-0.91,0.51c-0.15,0-0.28-0.07-0.38-0.2c-0.07-0.1-0.11-0.19-0.11-0.28
			c0-0.15,0.09-0.31,0.28-0.49c0.56-0.54,0.99-1.08,1.28-1.63c0.08-0.15,0.12-0.25,0.12-0.3c0-0.06-0.05-0.09-0.15-0.09
			c-0.09,0-0.21,0-0.35,0.02c-0.08,0.01-0.33,0.02-0.75,0.05c-0.31,0.02-1.66,0.13-4.02,0.33c-0.8,0.07-1.23,0.1-1.29,0.1
			c-0.47,0-0.7-0.22-0.7-0.65c0-0.37,0.19-0.59,0.56-0.66c0.04-0.01,1.36-0.1,3.94-0.28C67.46,146.6,68.6,146.52,68.65,146.52z
			 M65.09,148.82c0.19,0,0.36,0.06,0.51,0.18c0.09,0.07,0.15,0.15,0.18,0.24c0.04,0.11,0.06,0.3,0.06,0.57
			c0,0.99-0.07,1.76-0.22,2.33c-0.32,1.22-1.05,2.18-2.18,2.86c-0.18,0.11-0.34,0.16-0.48,0.16c-0.17,0-0.29-0.06-0.38-0.17
			c-0.08-0.1-0.12-0.21-0.12-0.33c0-0.14,0.05-0.27,0.16-0.4c0.04-0.06,0.16-0.17,0.36-0.33c0.7-0.57,1.13-1.33,1.31-2.31
			c0.08-0.48,0.13-1.09,0.13-1.82l-0.01-0.3c0-0.28,0.1-0.47,0.31-0.59C64.83,148.85,64.95,148.82,65.09,148.82z"/>
		<path d="M76.56,149.45c0.48-0.84,0.92-1.8,1.3-2.87c0.14-0.41,0.38-0.62,0.71-0.62c0.13,0,0.25,0.02,0.36,0.07
			c0.29,0.12,0.43,0.33,0.43,0.63c0,0.12-0.04,0.3-0.13,0.53c-0.4,1.03-0.89,2.04-1.48,3.03c0.47,0.34,0.87,0.66,1.19,0.97
			c0.2,0.19,0.3,0.41,0.3,0.65c0,0.24-0.09,0.43-0.28,0.58c-0.13,0.1-0.27,0.16-0.44,0.16c-0.21,0-0.42-0.11-0.63-0.32
			c-0.29-0.3-0.61-0.59-0.96-0.88c-0.98,1.23-2.07,2.2-3.26,2.9c-0.46,0.27-0.8,0.41-1,0.41c-0.17,0-0.31-0.07-0.41-0.21
			c-0.08-0.11-0.12-0.21-0.12-0.32c0-0.16,0.07-0.3,0.22-0.44c0.04-0.03,0.17-0.12,0.4-0.27c1.09-0.72,2.12-1.7,3.08-2.95
			c-0.5-0.37-0.97-0.69-1.41-0.94c-0.24-0.14-0.37-0.31-0.37-0.5c0-0.08,0.02-0.16,0.06-0.23c0.1-0.19,0.26-0.29,0.49-0.29
			C74.91,148.54,75.56,148.84,76.56,149.45z"/>
		<path d="M86.5,146.75v3.86c0,0.2-0.06,0.35-0.19,0.46c-0.13,0.11-0.3,0.17-0.53,0.17c-0.31,0-0.52-0.11-0.63-0.32
			c-0.05-0.09-0.07-0.2-0.07-0.32v-3.86c0-0.26,0.1-0.44,0.31-0.55c0.12-0.06,0.25-0.09,0.39-0.09c0.24,0,0.43,0.07,0.56,0.21
			C86.45,146.43,86.5,146.57,86.5,146.75z M90.48,146.25v3.41c0,1.12-0.13,2.07-0.4,2.85c-0.35,1.01-1,1.85-1.95,2.54
			c-0.18,0.13-0.36,0.19-0.53,0.19c-0.16,0-0.27-0.05-0.35-0.14c-0.08-0.1-0.12-0.2-0.12-0.32c0-0.16,0.08-0.33,0.25-0.5
			c0.44-0.45,0.74-0.82,0.91-1.08c0.37-0.59,0.6-1.29,0.7-2.12c0.05-0.4,0.08-0.87,0.08-1.39v-3.42c0-0.38,0.23-0.58,0.7-0.58
			C90.24,145.68,90.48,145.87,90.48,146.25z"/>
		<path d="M98.22,148.14c0.15-0.65,0.26-1.23,0.33-1.75c0.06-0.45,0.29-0.67,0.71-0.67c0.49,0,0.73,0.22,0.73,0.65
			c0,0.29-0.09,0.84-0.27,1.64c0.52-0.04,1.11-0.1,1.77-0.17c0.09-0.01,0.17-0.01,0.23-0.01c0.3,0,0.56,0.08,0.77,0.23
			c0.27,0.2,0.41,0.49,0.41,0.86c0,0.13-0.05,0.52-0.14,1.16c-0.28,1.85-0.65,3.24-1.11,4.16c-0.29,0.57-0.67,0.86-1.15,0.86
			c-0.25,0-0.52-0.1-0.8-0.29c-0.83-0.58-1.25-1.02-1.25-1.3c0-0.09,0.03-0.17,0.08-0.26c0.06-0.1,0.16-0.14,0.28-0.14
			c0.13,0,0.28,0.05,0.47,0.14c0.48,0.25,0.78,0.37,0.9,0.37c0.11,0,0.2-0.08,0.29-0.23c0.26-0.49,0.5-1.25,0.73-2.28
			c0.18-0.82,0.27-1.4,0.27-1.72c0-0.16-0.07-0.24-0.21-0.24c-0.24,0-0.87,0.05-1.89,0.15c-0.71,2.13-1.82,3.79-3.33,4.97
			c-0.33,0.26-0.58,0.39-0.75,0.39c-0.14,0-0.25-0.05-0.35-0.15c-0.12-0.13-0.18-0.25-0.18-0.38c0-0.14,0.06-0.27,0.19-0.41
			c0.03-0.03,0.15-0.15,0.38-0.35c0.92-0.84,1.67-1.91,2.25-3.2c0.09-0.21,0.19-0.47,0.3-0.77c-1.17,0.13-1.85,0.19-2.05,0.19
			c-0.45,0-0.68-0.22-0.68-0.67c0-0.41,0.28-0.62,0.85-0.64C96.48,148.26,97.22,148.21,98.22,148.14z"/>
	</g>
</g>
<g id="ガイド" display="none">
</g>
</svg>
