<?xml version="1.0" encoding="utf-8"?>
<!-- Generator: Adobe Illustrator 25.4.1, SVG Export Plug-In . SVG Version: 6.00 Build 0)  -->
<svg version="1.1" xmlns="http://www.w3.org/2000/svg" xmlns:xlink="http://www.w3.org/1999/xlink" x="0px" y="0px"
	 viewBox="0 0 164.41 252.28" enable-background="new 0 0 164.41 252.28" xml:space="preserve">
<g id="地">
	<rect fill="#DCDDDD" width="164.41" height="252.28"/>
</g>
<g id="枠">
</g>
<g id="国旗">
	<g>
		<g>
			<rect x="25.51" y="60.17" fill="#FFFFFF" width="113.39" height="75.59"/>
			<rect x="25.51" y="110.56" fill="#117DB1" width="113.39" height="25.2"/>
			<rect x="25.51" y="60.17" fill="#147F49" width="113.39" height="25.2"/>
		</g>
	</g>
</g>
<g id="国名">
	<g>
		<path d="M50.02,148.77c0.23,0,0.56,0.08,1.01,0.24c0.52,0.19,0.96,0.41,1.3,0.66c0.24,0.18,0.36,0.39,0.36,0.65
			c0,0.16-0.06,0.31-0.17,0.45c-0.14,0.19-0.33,0.29-0.56,0.29c-0.17,0-0.35-0.08-0.57-0.25c-0.42-0.34-0.95-0.7-1.61-1.07
			c-0.22-0.13-0.33-0.28-0.33-0.48c0-0.09,0.02-0.17,0.07-0.26C49.62,148.85,49.78,148.77,50.02,148.77z M57.88,148.4
			c0.11,0,0.21,0.03,0.32,0.09c0.18,0.11,0.28,0.27,0.28,0.48c0,0.21-0.17,0.6-0.52,1.18c-0.57,0.96-1.35,1.83-2.34,2.63
			c-1.18,0.95-2.48,1.67-3.92,2.16c-0.16,0.06-0.3,0.08-0.41,0.08c-0.29,0-0.51-0.13-0.64-0.4c-0.07-0.13-0.1-0.26-0.1-0.38
			c0-0.28,0.13-0.48,0.38-0.62c0.04-0.02,0.28-0.11,0.72-0.26c1.2-0.42,2.31-1.04,3.35-1.87c1-0.79,1.77-1.68,2.31-2.67
			C57.46,148.54,57.65,148.4,57.88,148.4z M51.36,146.26c0.33,0,0.9,0.24,1.68,0.72c0.24,0.14,0.41,0.26,0.52,0.35
			c0.21,0.17,0.32,0.38,0.32,0.61c0,0.16-0.05,0.3-0.17,0.44c-0.17,0.2-0.36,0.3-0.58,0.3c-0.19,0-0.38-0.1-0.58-0.3
			c-0.33-0.34-0.81-0.73-1.45-1.2c-0.2-0.14-0.29-0.3-0.29-0.46c0-0.09,0.03-0.18,0.08-0.26C50.99,146.33,51.14,146.26,51.36,146.26
			z"/>
		<path d="M64.4,148.87c-1.09,0.09-1.75,0.14-2,0.14c-0.21,0-0.38-0.06-0.5-0.19c-0.11-0.11-0.16-0.26-0.16-0.44
			c0-0.3,0.12-0.5,0.35-0.6c0.1-0.05,0.33-0.08,0.68-0.09c1.44-0.07,2.99-0.21,4.65-0.42c0.06-0.01,0.12-0.01,0.16-0.01
			c0.3,0,0.5,0.12,0.61,0.35c0.04,0.09,0.06,0.19,0.06,0.31c0,0.37-0.19,0.58-0.56,0.65c-0.32,0.06-0.96,0.13-1.89,0.21v3.22
			l0.27-0.01c2.14-0.12,3.29-0.18,3.43-0.18c0.2,0,0.35,0.05,0.47,0.14c0.15,0.12,0.23,0.3,0.23,0.54c0,0.32-0.14,0.53-0.41,0.62
			c-0.1,0.03-0.38,0.05-0.85,0.08c-2.77,0.12-5.38,0.28-7.83,0.47c-0.07,0-0.12,0-0.16,0c-0.21,0-0.39-0.06-0.51-0.18
			c-0.12-0.12-0.18-0.28-0.18-0.49c0-0.33,0.16-0.55,0.47-0.64c0.07-0.02,0.22-0.04,0.44-0.05c0.16-0.01,0.41-0.02,0.76-0.05
			c0.56-0.04,1.3-0.09,2.2-0.15l0.27-0.02V148.87z"/>
		<path d="M79.37,148.71c0.42,0,0.72,0.15,0.91,0.44c0.1,0.17,0.16,0.37,0.16,0.6c0,0.33-0.11,0.76-0.34,1.29
			c-0.5,1.17-1.32,2.17-2.47,3.02c-0.61,0.45-1.25,0.79-1.92,1.04c-0.17,0.06-0.31,0.09-0.43,0.09c-0.16,0-0.29-0.07-0.38-0.2
			c-0.07-0.11-0.11-0.22-0.11-0.34c0-0.17,0.08-0.31,0.23-0.42c0.03-0.02,0.2-0.11,0.49-0.26c0.73-0.38,1.42-0.91,2.06-1.6
			c0.54-0.58,0.94-1.17,1.2-1.77c0.09-0.2,0.13-0.34,0.13-0.43c0-0.09-0.07-0.13-0.2-0.13c-0.06,0-0.72,0.04-1.99,0.12l-2.37,0.17
			c-0.9,0.07-1.37,0.1-1.4,0.1c-0.23,0-0.4-0.08-0.52-0.25c-0.07-0.11-0.11-0.24-0.11-0.39c0-0.39,0.19-0.62,0.57-0.67
			c0.24-0.03,2.02-0.15,5.36-0.34c0.27-0.01,0.47-0.03,0.61-0.04C79.14,148.72,79.31,148.71,79.37,148.71z M78.49,146.17
			c0.19,0,0.34,0.08,0.45,0.23c0.09,0.12,0.13,0.26,0.13,0.42c0,0.37-0.17,0.59-0.53,0.64c-0.28,0.04-0.68,0.08-1.22,0.13
			c-0.14,0.01-0.75,0.05-1.81,0.11c-0.65,0.04-1.09,0.05-1.31,0.05c-0.46,0-0.7-0.22-0.7-0.65c0-0.33,0.14-0.53,0.41-0.61
			c0.07-0.02,0.23-0.03,0.48-0.03c1.02-0.01,2.21-0.09,3.58-0.23c0.05-0.01,0.17-0.02,0.35-0.04
			C78.4,146.17,78.45,146.17,78.49,146.17z"/>
		<path d="M86.48,146.9v5.65c0,0.16,0.04,0.24,0.11,0.24c0.13,0,0.48-0.16,1.05-0.46c1.28-0.71,2.36-1.53,3.24-2.47
			c0.16-0.17,0.33-0.25,0.52-0.25c0.13,0,0.24,0.04,0.34,0.13c0.13,0.11,0.2,0.25,0.2,0.43c0,0.15-0.06,0.31-0.19,0.48
			c-0.69,0.93-1.64,1.8-2.86,2.6c-0.79,0.52-1.55,0.91-2.29,1.17c-0.19,0.07-0.36,0.1-0.51,0.1c-0.31,0-0.58-0.14-0.82-0.43
			c-0.15-0.18-0.22-0.43-0.22-0.73v-6.45c0-0.24,0.1-0.42,0.31-0.54c0.12-0.07,0.25-0.1,0.4-0.1c0.22,0,0.4,0.06,0.54,0.19
			C86.42,146.57,86.48,146.72,86.48,146.9z"/>
		<path d="M99.6,148.02l-0.01-0.12c-0.02-0.76-0.03-1.22-0.04-1.39c0-0.06-0.01-0.1-0.01-0.13c0-0.44,0.22-0.66,0.67-0.66
			c0.49,0,0.73,0.24,0.73,0.71v1.49c0.25-0.02,0.74-0.06,1.46-0.12c0.27-0.02,0.44-0.03,0.52-0.03c0.44,0,0.65,0.23,0.65,0.7
			c0,0.4-0.27,0.61-0.8,0.64c-0.26,0.01-0.65,0.03-1.18,0.07c-0.22,0.01-0.43,0.03-0.64,0.04c0.01,1.35,0.02,2.18,0.02,2.49
			c0.02,1.08,0.03,1.85,0.03,2.32c0,0.3-0.07,0.56-0.21,0.76c-0.17,0.25-0.4,0.38-0.69,0.38c-0.14,0-0.31-0.05-0.51-0.15
			c-1-0.5-1.53-0.76-1.59-0.8c-0.21-0.12-0.31-0.27-0.31-0.46c0-0.07,0.02-0.14,0.05-0.2c0.08-0.16,0.21-0.23,0.4-0.23
			c0.12,0,0.51,0.1,1.16,0.29c0.08,0.03,0.15,0.04,0.19,0.04c0.08,0,0.12-0.07,0.12-0.21v-3.04c-1.14,1.24-2.4,2.26-3.78,3.06
			c-0.29,0.17-0.51,0.25-0.65,0.25c-0.15,0-0.27-0.07-0.36-0.21c-0.07-0.11-0.11-0.21-0.11-0.31c0-0.15,0.07-0.28,0.2-0.39
			c0.04-0.04,0.19-0.14,0.43-0.3c0.9-0.59,1.78-1.35,2.65-2.28c0.25-0.27,0.5-0.56,0.75-0.88l-0.21,0.02l-1.84,0.13
			c-0.72,0.05-1.11,0.08-1.15,0.08c-0.44,0-0.66-0.21-0.66-0.64c0-0.35,0.16-0.57,0.48-0.65c0.07-0.02,0.23-0.03,0.48-0.04
			C96.95,148.2,98.2,148.12,99.6,148.02z"/>
		<path d="M109.86,151.82c-0.92,0.58-1.82,1.04-2.72,1.38c-0.35,0.14-0.6,0.21-0.74,0.21c-0.19,0-0.33-0.07-0.41-0.21
			c-0.06-0.1-0.09-0.19-0.09-0.29c0-0.2,0.09-0.35,0.27-0.47c0.06-0.04,0.19-0.1,0.38-0.19c0.92-0.4,1.83-0.91,2.73-1.54
			c0.87-0.61,1.57-1.21,2.11-1.83c0.13-0.15,0.19-0.24,0.19-0.29c0-0.04-0.03-0.06-0.1-0.06c-0.03,0-0.1,0.01-0.21,0.02
			c-0.36,0.05-1.43,0.16-3.22,0.34c-0.07,0.01-0.13,0.01-0.16,0.01c-0.17,0-0.31-0.05-0.43-0.14c-0.14-0.11-0.21-0.28-0.21-0.5
			c0-0.31,0.13-0.51,0.4-0.6c0.07-0.02,0.24-0.04,0.5-0.05c1.22-0.06,2.62-0.18,4.2-0.38c0.08-0.01,0.14-0.01,0.19-0.01
			c0.21,0,0.4,0.06,0.55,0.17c0.22,0.16,0.33,0.36,0.33,0.62c0,0.22-0.1,0.47-0.3,0.75c-0.53,0.73-1.22,1.46-2.07,2.18
			c0.1,0.11,0.15,0.23,0.15,0.36V155c0,0.38-0.22,0.57-0.67,0.57c-0.46,0-0.69-0.19-0.69-0.57V151.82z M109.37,145.25
			c0.35,0,0.82,0.17,1.41,0.5c0.22,0.12,0.39,0.24,0.53,0.35c0.17,0.15,0.26,0.33,0.26,0.53c0,0.17-0.07,0.33-0.22,0.48
			c-0.15,0.16-0.32,0.23-0.52,0.23c-0.19,0-0.38-0.1-0.57-0.3c-0.32-0.34-0.67-0.62-1.06-0.87c-0.22-0.14-0.33-0.3-0.33-0.49
			c0-0.1,0.04-0.19,0.11-0.27C109.1,145.31,109.23,145.25,109.37,145.25z M112.28,150.72c0.17,0,0.42,0.08,0.75,0.23
			c1.31,0.59,1.96,1.13,1.96,1.62c0,0.17-0.07,0.34-0.2,0.5c-0.13,0.16-0.3,0.24-0.51,0.24c-0.19,0-0.4-0.11-0.62-0.32
			c-0.43-0.42-0.97-0.86-1.61-1.31c-0.2-0.15-0.3-0.31-0.3-0.48c0-0.08,0.02-0.17,0.07-0.25
			C111.92,150.8,112.07,150.72,112.28,150.72z"/>
	</g>
</g>
<g id="ガイド" display="none">
</g>
</svg>
