<?xml version="1.0" encoding="utf-8"?>
<!-- Generator: Adobe Illustrator 25.4.1, SVG Export Plug-In . SVG Version: 6.00 Build 0)  -->
<svg version="1.1" xmlns="http://www.w3.org/2000/svg" xmlns:xlink="http://www.w3.org/1999/xlink" x="0px" y="0px"
	 viewBox="0 0 164.41 252.28" enable-background="new 0 0 164.41 252.28" xml:space="preserve">
<g id="地">
	<rect fill="#DCDDDD" width="164.41" height="252.28"/>
</g>
<g id="枠">
</g>
<g id="国旗">
	<g>
		<g>
			<rect x="25.51" y="60" fill="#FFFFFF" width="113.39" height="75.59"/>
			<rect x="25.51" y="60" fill="#C8152A" width="113.39" height="37.8"/>
			<path fill="#FFFFFF" d="M42.44,78.9c0-6.61,4.68-12.12,10.9-13.41c-1.08-0.27-2.22-0.42-3.39-0.42
				c-7.64,0-13.83,6.19-13.83,13.83s6.19,13.83,13.83,13.83c1.17,0,2.31-0.15,3.39-0.42C47.12,91.02,42.44,85.5,42.44,78.9z"/>
			<polygon fill="#FFFFFF" points="56.76,69.98 57.17,71.25 58.51,71.25 57.43,72.04 57.84,73.31 56.76,72.53 55.68,73.31 
				56.09,72.04 55.01,71.25 56.35,71.25 			"/>
			<polygon fill="#FFFFFF" points="49.56,75.22 49.97,76.49 51.31,76.49 50.23,77.27 50.64,78.55 49.56,77.76 48.47,78.55 
				48.89,77.27 47.8,76.49 49.14,76.49 			"/>
			<polygon fill="#FFFFFF" points="52.31,83.68 52.72,84.96 54.06,84.96 52.98,85.74 53.39,87.01 52.31,86.23 51.23,87.01 
				51.64,85.74 50.56,84.96 51.89,84.96 			"/>
			<polygon fill="#FFFFFF" points="61.21,83.68 61.63,84.96 62.96,84.96 61.88,85.74 62.3,87.01 61.21,86.23 60.13,87.01 
				60.54,85.74 59.46,84.96 60.8,84.96 			"/>
			<polygon fill="#FFFFFF" points="63.96,75.22 64.38,76.49 65.72,76.49 64.63,77.27 65.05,78.55 63.96,77.76 62.88,78.55 
				63.3,77.27 62.21,76.49 63.55,76.49 			"/>
		</g>
	</g>
</g>
<g id="国名">
	<g>
		<path d="M50.02,148.77c0.23,0,0.56,0.08,1.01,0.24c0.52,0.19,0.95,0.41,1.3,0.66c0.24,0.18,0.36,0.39,0.36,0.65
			c0,0.16-0.05,0.31-0.17,0.45c-0.14,0.19-0.33,0.29-0.56,0.29c-0.17,0-0.35-0.08-0.57-0.25c-0.42-0.34-0.95-0.7-1.61-1.07
			c-0.22-0.13-0.33-0.28-0.33-0.48c0-0.09,0.02-0.17,0.07-0.26C49.62,148.85,49.78,148.77,50.02,148.77z M57.88,148.4
			c0.11,0,0.21,0.03,0.32,0.09c0.18,0.11,0.28,0.27,0.28,0.48c0,0.21-0.17,0.6-0.52,1.18c-0.57,0.96-1.35,1.83-2.34,2.63
			c-1.18,0.95-2.48,1.67-3.92,2.16c-0.16,0.06-0.3,0.08-0.41,0.08c-0.29,0-0.51-0.13-0.64-0.4c-0.07-0.13-0.1-0.26-0.1-0.38
			c0-0.28,0.13-0.48,0.38-0.62c0.04-0.02,0.28-0.11,0.72-0.26c1.2-0.42,2.31-1.04,3.35-1.87c1-0.79,1.77-1.68,2.31-2.67
			C57.46,148.54,57.65,148.4,57.88,148.4z M51.36,146.26c0.33,0,0.89,0.24,1.68,0.72c0.24,0.14,0.41,0.26,0.52,0.35
			c0.21,0.17,0.32,0.38,0.32,0.61c0,0.16-0.06,0.3-0.17,0.44c-0.17,0.2-0.36,0.3-0.58,0.3c-0.19,0-0.38-0.1-0.58-0.3
			c-0.32-0.34-0.81-0.73-1.44-1.2c-0.2-0.14-0.29-0.3-0.29-0.46c0-0.09,0.03-0.18,0.08-0.26C50.99,146.33,51.14,146.26,51.36,146.26
			z"/>
		<path d="M62.07,146.82c0.15,0,0.41,0.07,0.78,0.2c0.69,0.24,1.26,0.53,1.71,0.86c0.24,0.17,0.35,0.39,0.35,0.65
			c0,0.14-0.05,0.29-0.14,0.43c-0.14,0.21-0.33,0.32-0.56,0.32c-0.2,0-0.43-0.09-0.67-0.28c-0.62-0.49-1.18-0.88-1.68-1.16
			c-0.25-0.14-0.38-0.31-0.38-0.51C61.48,146.99,61.68,146.82,62.07,146.82z M69.19,148.59c0.12,0,0.25,0.04,0.36,0.13
			c0.15,0.11,0.23,0.26,0.23,0.45c0,0.15-0.06,0.32-0.18,0.5c-0.85,1.27-1.97,2.37-3.36,3.3c-1.16,0.77-2.35,1.32-3.59,1.66
			c-0.13,0.03-0.24,0.05-0.34,0.05c-0.31,0-0.54-0.14-0.67-0.43c-0.06-0.13-0.09-0.25-0.09-0.37c0-0.27,0.13-0.47,0.4-0.6
			c0.06-0.03,0.3-0.1,0.74-0.23c1.59-0.47,3.07-1.3,4.43-2.51c0.52-0.47,1.02-1,1.48-1.59C68.79,148.7,68.98,148.59,69.19,148.59z"
			/>
		<path d="M75.42,148.14c0.15-0.65,0.26-1.23,0.33-1.75c0.06-0.45,0.29-0.67,0.71-0.67c0.49,0,0.73,0.22,0.73,0.65
			c0,0.29-0.09,0.84-0.27,1.64c0.52-0.04,1.11-0.1,1.77-0.17c0.09-0.01,0.17-0.01,0.23-0.01c0.3,0,0.56,0.08,0.77,0.23
			c0.27,0.2,0.41,0.49,0.41,0.86c0,0.13-0.05,0.52-0.14,1.16c-0.28,1.85-0.65,3.24-1.11,4.16c-0.29,0.57-0.67,0.86-1.15,0.86
			c-0.25,0-0.52-0.1-0.8-0.29c-0.83-0.58-1.25-1.02-1.25-1.3c0-0.09,0.03-0.17,0.08-0.26c0.06-0.1,0.16-0.14,0.28-0.14
			c0.12,0,0.28,0.05,0.46,0.14c0.48,0.25,0.78,0.37,0.9,0.37c0.11,0,0.2-0.08,0.29-0.23c0.26-0.49,0.5-1.25,0.73-2.28
			c0.18-0.82,0.27-1.4,0.27-1.72c0-0.16-0.07-0.24-0.21-0.24c-0.24,0-0.87,0.05-1.89,0.15c-0.71,2.13-1.82,3.79-3.33,4.97
			c-0.33,0.26-0.58,0.39-0.75,0.39c-0.14,0-0.25-0.05-0.35-0.15c-0.12-0.13-0.18-0.25-0.18-0.38c0-0.14,0.06-0.27,0.19-0.41
			c0.03-0.03,0.15-0.15,0.38-0.35c0.92-0.84,1.67-1.91,2.25-3.2c0.09-0.21,0.19-0.47,0.3-0.77c-1.17,0.13-1.85,0.19-2.05,0.19
			c-0.45,0-0.68-0.22-0.68-0.67c0-0.41,0.28-0.62,0.85-0.64C73.68,148.26,74.43,148.21,75.42,148.14z M79.55,146.05
			c0.21,0,0.54,0.21,1,0.62c0.39,0.35,0.58,0.63,0.58,0.83c0,0.14-0.06,0.27-0.19,0.37c-0.1,0.08-0.21,0.12-0.34,0.12
			c-0.17,0-0.31-0.1-0.43-0.29c-0.21-0.35-0.48-0.69-0.79-1.01c-0.1-0.11-0.16-0.22-0.16-0.33
			C79.23,146.15,79.34,146.05,79.55,146.05z M80.54,145.15c0.22,0,0.54,0.18,0.96,0.53c0.39,0.33,0.58,0.6,0.58,0.83
			c0,0.16-0.06,0.29-0.18,0.38c-0.09,0.07-0.19,0.1-0.3,0.1c-0.16,0-0.3-0.09-0.42-0.28c-0.2-0.31-0.47-0.62-0.79-0.92
			c-0.12-0.11-0.18-0.23-0.18-0.33c0-0.07,0.03-0.14,0.09-0.21C80.35,145.18,80.43,145.15,80.54,145.15z"/>
		<path d="M84.95,150.43c0.11,0,0.21,0.03,0.3,0.08c0.2,0.11,0.29,0.29,0.29,0.53c0,0.21-0.08,0.52-0.25,0.95
			c-0.25,0.66-0.54,1.17-0.86,1.52c-0.18,0.21-0.39,0.31-0.62,0.31c-0.16,0-0.3-0.05-0.44-0.15c-0.19-0.14-0.28-0.32-0.28-0.54
			c0-0.18,0.1-0.39,0.3-0.63c0.4-0.46,0.73-1.01,1.01-1.64C84.53,150.58,84.71,150.43,84.95,150.43z M87.16,148.07v-1.77
			c0-0.19,0.06-0.34,0.17-0.45c0.13-0.13,0.3-0.19,0.52-0.19c0.29,0,0.5,0.11,0.61,0.33c0.05,0.09,0.08,0.2,0.08,0.32v1.68
			l0.21-0.02l0.69-0.05l1.24-0.1c0.38-0.03,0.6-0.05,0.65-0.05c0.18,0,0.32,0.06,0.44,0.19c0.11,0.12,0.17,0.28,0.17,0.48
			c0,0.4-0.18,0.62-0.55,0.65c-0.25,0.03-1.2,0.09-2.85,0.2c0.01,1.9,0.03,3.04,0.03,3.42c0.01,0.6,0.02,1.01,0.02,1.24
			c0,0.37-0.07,0.66-0.22,0.87c-0.19,0.29-0.44,0.43-0.74,0.43c-0.15,0-0.31-0.05-0.48-0.15c-0.49-0.28-0.95-0.56-1.37-0.84
			c-0.2-0.13-0.3-0.28-0.3-0.45c0-0.08,0.02-0.16,0.07-0.24c0.08-0.15,0.21-0.23,0.4-0.23c0.08,0,0.19,0.02,0.3,0.07
			c0.46,0.18,0.73,0.27,0.81,0.27c0.1,0,0.15-0.14,0.15-0.41c0-0.01,0-0.08-0.01-0.2c-0.01-0.18-0.01-0.79-0.02-1.81
			c0-0.23-0.01-0.85-0.02-1.88l-0.22,0.02l-1.29,0.09c-0.94,0.06-1.42,0.09-1.44,0.09c-0.2,0-0.35-0.06-0.47-0.18
			c-0.11-0.11-0.16-0.27-0.16-0.46c0-0.32,0.12-0.54,0.37-0.63c0.08-0.03,0.23-0.05,0.44-0.06c0.37-0.01,1.21-0.07,2.52-0.15
			L87.16,148.07z M90.24,150.2c0.34,0,0.87,0.47,1.58,1.42c0.39,0.53,0.59,0.93,0.59,1.2c0,0.24-0.11,0.44-0.32,0.59
			c-0.16,0.12-0.33,0.17-0.49,0.17c-0.28,0-0.5-0.19-0.66-0.56c-0.28-0.68-0.63-1.31-1.05-1.91c-0.11-0.16-0.17-0.31-0.17-0.43
			c0-0.11,0.04-0.21,0.13-0.3C89.96,150.26,90.09,150.2,90.24,150.2z M91.81,144.85c0.21,0,0.41,0.05,0.61,0.16
			c0.21,0.11,0.37,0.28,0.49,0.48c0.11,0.2,0.17,0.41,0.17,0.63c0,0.33-0.11,0.61-0.34,0.86c-0.25,0.28-0.56,0.42-0.94,0.42
			c-0.17,0-0.34-0.04-0.5-0.11c-0.21-0.1-0.39-0.24-0.52-0.43c-0.16-0.23-0.24-0.47-0.24-0.74c0-0.45,0.19-0.81,0.58-1.06
			C91.32,144.92,91.56,144.85,91.81,144.85z M91.8,145.52c-0.11,0-0.21,0.03-0.32,0.09c-0.19,0.12-0.28,0.29-0.28,0.51
			c0,0.15,0.05,0.28,0.15,0.39c0.12,0.14,0.27,0.21,0.45,0.21c0.1,0,0.19-0.02,0.27-0.07c0.22-0.11,0.33-0.29,0.33-0.53
			c0-0.19-0.07-0.34-0.22-0.47C92.08,145.56,91.95,145.52,91.8,145.52z"/>
		<path d="M102.64,149.33c0.23,0,0.42,0.07,0.55,0.22c0.11,0.12,0.17,0.28,0.17,0.48c0,0.37-0.17,0.59-0.53,0.66
			c-0.09,0.02-1.34,0.08-3.74,0.19c-1.1,0.05-2.27,0.11-3.5,0.17c-0.04,0-0.09,0-0.13,0c-0.21,0-0.38-0.06-0.52-0.18
			c-0.14-0.13-0.22-0.3-0.22-0.51c0-0.3,0.13-0.51,0.4-0.63c0.11-0.04,0.37-0.07,0.79-0.09c0.37-0.01,1.29-0.05,2.77-0.13
			c0.63-0.03,1.5-0.07,2.59-0.12c0.37-0.01,0.66-0.03,0.88-0.04C102.43,149.33,102.59,149.33,102.64,149.33z"/>
		<path d="M108.35,147.24c0.47,0,0.7,0.27,0.7,0.8c0,1.92-0.36,3.46-1.07,4.63c-0.3,0.5-0.66,0.91-1.08,1.24
			c-0.15,0.12-0.31,0.18-0.49,0.18c-0.12,0-0.22-0.04-0.32-0.12c-0.11-0.1-0.16-0.21-0.16-0.35c0-0.16,0.07-0.32,0.22-0.49
			c0.6-0.69,1.01-1.51,1.22-2.46c0.17-0.74,0.26-1.64,0.26-2.7c0-0.22,0.05-0.38,0.15-0.49
			C107.92,147.32,108.11,147.24,108.35,147.24z M111.54,146.83v5.65c0,0.14,0.03,0.22,0.1,0.22c0.14,0,0.49-0.2,1.07-0.6
			c0.82-0.56,1.49-1.13,2.03-1.72c0.18-0.21,0.36-0.31,0.52-0.31c0.13,0,0.26,0.05,0.39,0.16c0.13,0.1,0.19,0.24,0.19,0.42
			c0,0.15-0.06,0.31-0.18,0.48c-0.43,0.59-1.08,1.23-1.94,1.92c-0.68,0.54-1.33,0.95-1.94,1.26c-0.23,0.11-0.44,0.17-0.61,0.17
			c-0.2,0-0.39-0.07-0.59-0.21c-0.28-0.2-0.42-0.5-0.42-0.92v-6.51c0-0.24,0.11-0.42,0.31-0.54c0.11-0.06,0.23-0.09,0.37-0.09
			c0.2,0,0.37,0.06,0.51,0.17C111.47,146.49,111.54,146.64,111.54,146.83z"/>
	</g>
</g>
<g id="ガイド" display="none">
</g>
</svg>
