<?xml version="1.0" encoding="utf-8"?>
<!-- Generator: Adobe Illustrator 25.4.1, SVG Export Plug-In . SVG Version: 6.00 Build 0)  -->
<svg version="1.1" xmlns="http://www.w3.org/2000/svg" xmlns:xlink="http://www.w3.org/1999/xlink" x="0px" y="0px"
	 viewBox="0 0 164.41 252.28" enable-background="new 0 0 164.41 252.28" xml:space="preserve">
<g id="地">
	<rect fill="#DCDDDD" width="164.41" height="252.28"/>
</g>
<g id="枠">
</g>
<g id="国旗">
	<g>
		<g>
			<rect x="25.51" y="60" fill="#095F94" width="113.39" height="75.59"/>
			<polygon fill="#F5CF21" points="77.73,60 63.17,60 63.17,90.51 25.51,90.51 25.51,105.08 63.17,105.08 63.17,135.59 
				77.73,135.59 77.73,105.08 138.9,105.08 138.9,90.51 77.73,90.51 			"/>
		</g>
	</g>
</g>
<g id="国名">
	<g>
		<path d="M54.02,151.75c-1.04,1.06-2.12,1.91-3.23,2.56c-0.46,0.27-0.78,0.4-0.94,0.4c-0.2,0-0.35-0.09-0.45-0.27
			c-0.06-0.1-0.09-0.19-0.09-0.27c0-0.16,0.08-0.31,0.23-0.44c0.04-0.03,0.17-0.12,0.39-0.27c0.89-0.57,1.83-1.33,2.8-2.28
			c0.98-0.97,1.7-1.92,2.17-2.86c0.08-0.16,0.12-0.27,0.12-0.32c0-0.07-0.04-0.1-0.11-0.1c-0.05,0-0.13,0.01-0.25,0.03
			c-0.22,0.03-1.08,0.1-2.58,0.22c-0.26,0.02-0.48,0.04-0.67,0.05c-0.07,0.01-0.13,0.01-0.17,0.01c-0.3,0-0.5-0.11-0.62-0.33
			c-0.05-0.1-0.07-0.21-0.07-0.33c0-0.31,0.15-0.51,0.44-0.6c0.09-0.03,0.28-0.05,0.59-0.07c1.04-0.04,2.36-0.15,3.96-0.33
			c0.07-0.01,0.13-0.01,0.18-0.01c0.32,0,0.58,0.09,0.77,0.28c0.18,0.17,0.27,0.38,0.27,0.64c0,0.2-0.1,0.49-0.29,0.9
			c-0.38,0.79-0.94,1.64-1.68,2.55c1.22,0.76,2.17,1.47,2.85,2.14c0.31,0.3,0.46,0.58,0.46,0.83c0,0.19-0.07,0.36-0.22,0.51
			c-0.15,0.16-0.32,0.23-0.52,0.23c-0.2,0-0.37-0.07-0.52-0.22c-0.02-0.02-0.08-0.09-0.19-0.21C55.87,153.39,55,152.57,54.02,151.75
			z"/>
		<path d="M64.41,147.67v-1.46c0-0.2,0.06-0.37,0.18-0.49c0.13-0.13,0.3-0.19,0.51-0.19c0.29,0,0.49,0.11,0.62,0.33
			c0.05,0.1,0.08,0.22,0.08,0.35v1.38l0.18-0.01c1.3-0.08,2.03-0.13,2.18-0.14c0.08-0.01,0.14-0.01,0.19-0.01
			c0.33,0,0.58,0.11,0.76,0.32c0.18,0.21,0.27,0.49,0.27,0.84c0,0.29-0.06,0.69-0.18,1.21c-0.28,1.23-0.78,2.28-1.5,3.15
			c-0.56,0.68-1.24,1.26-2.04,1.76c-0.54,0.34-0.93,0.51-1.16,0.51c-0.2,0-0.34-0.07-0.43-0.19c-0.07-0.1-0.11-0.21-0.11-0.33
			c0-0.17,0.07-0.31,0.21-0.43c0.04-0.03,0.15-0.1,0.34-0.22c0.79-0.48,1.49-1.1,2.1-1.87c0.41-0.52,0.73-1.12,0.95-1.81
			c0.19-0.58,0.28-1.06,0.28-1.46c0-0.13-0.07-0.2-0.2-0.2c-0.08,0-0.19,0-0.32,0.02c-0.79,0.08-2.4,0.18-4.81,0.3l0.17,1.74
			c0,0.04,0,0.07,0,0.09c0.01,0.3-0.13,0.5-0.44,0.6c-0.1,0.03-0.2,0.05-0.3,0.05c-0.23,0-0.4-0.08-0.53-0.25
			c-0.06-0.09-0.1-0.19-0.11-0.3l-0.27-2.69c-0.01-0.06-0.01-0.1-0.01-0.13c0-0.44,0.24-0.65,0.73-0.65c0.28,0,0.47,0.1,0.58,0.3
			l0.12-0.01l0.57-0.03C63.76,147.71,64.22,147.68,64.41,147.67z"/>
		<path d="M75.68,150.22l-0.1,0c-0.78,0.05-1.24,0.07-1.36,0.07c-0.41,0-0.62-0.2-0.62-0.6c0-0.27,0.14-0.45,0.42-0.52
			c0.06-0.01,0.21-0.03,0.46-0.04c1.55-0.09,2.78-0.2,3.68-0.34c0.06-0.01,0.1-0.01,0.14-0.01c0.29,0,0.47,0.13,0.55,0.39
			c0.02,0.06,0.03,0.13,0.03,0.21c0,0.34-0.18,0.53-0.53,0.58c-0.34,0.04-0.8,0.1-1.4,0.15v2.38l0.21-0.01l1.45-0.08
			c0.78-0.04,1.18-0.07,1.2-0.07c0.18,0,0.32,0.05,0.43,0.16c0.11,0.11,0.17,0.25,0.17,0.44c0,0.28-0.11,0.46-0.33,0.55
			c-0.07,0.03-0.29,0.05-0.66,0.06c-0.77,0.03-2.49,0.13-5.15,0.32c-0.79,0.06-1.2,0.08-1.23,0.08c-0.25,0-0.43-0.1-0.54-0.3
			c-0.05-0.09-0.07-0.2-0.07-0.32c0-0.27,0.13-0.45,0.4-0.54c0.07-0.02,0.75-0.08,2.03-0.17l0.62-0.04l0.22-0.01V150.22z"/>
		<path d="M91.31,149.33c0.23,0,0.42,0.07,0.55,0.22c0.11,0.12,0.17,0.28,0.17,0.48c0,0.37-0.18,0.59-0.53,0.66
			c-0.09,0.02-1.34,0.08-3.74,0.19c-1.1,0.05-2.27,0.11-3.5,0.17c-0.04,0-0.09,0-0.13,0c-0.21,0-0.38-0.06-0.52-0.18
			c-0.14-0.13-0.22-0.3-0.22-0.51c0-0.3,0.13-0.51,0.4-0.63c0.11-0.04,0.37-0.07,0.79-0.09c0.37-0.01,1.29-0.05,2.77-0.13
			c0.63-0.03,1.5-0.07,2.59-0.12c0.37-0.01,0.66-0.03,0.87-0.04C91.09,149.33,91.25,149.33,91.31,149.33z"/>
		<path d="M98.59,150.47c-1.07,0.06-2.23,0.14-3.47,0.24c-0.1,0.01-0.16,0.01-0.19,0.01c-0.27,0-0.46-0.11-0.56-0.32
			c-0.05-0.1-0.08-0.22-0.08-0.36c0-0.37,0.2-0.57,0.59-0.61c0.51-0.06,2.85-0.2,7.04-0.42c0.78-0.04,1.18-0.06,1.21-0.06
			c0.21,0,0.38,0.06,0.5,0.19c0.11,0.12,0.17,0.27,0.17,0.46c0,0.33-0.13,0.54-0.38,0.63c-0.08,0.03-0.24,0.04-0.47,0.05
			c-0.51,0.01-1.37,0.05-2.58,0.1l-0.27,0c-0.06,1.75-0.59,3.08-1.59,3.99c-0.58,0.53-1.03,0.79-1.36,0.79
			c-0.16,0-0.29-0.06-0.39-0.19c-0.09-0.12-0.13-0.24-0.13-0.35c0-0.14,0.06-0.27,0.17-0.38c0.04-0.04,0.15-0.13,0.35-0.28
			c0.61-0.46,1.03-1.11,1.26-1.95C98.49,151.59,98.56,151.08,98.59,150.47z M100.97,146.15c0.17,0,0.31,0.05,0.43,0.14
			c0.14,0.12,0.22,0.29,0.22,0.5c0,0.37-0.18,0.58-0.55,0.65c-0.21,0.03-0.63,0.08-1.26,0.13c-1.16,0.1-2.11,0.14-2.86,0.14
			c-0.55,0-0.83-0.22-0.83-0.67c0-0.26,0.11-0.44,0.32-0.54c0.12-0.06,0.36-0.08,0.74-0.08c0.91,0,1.82-0.04,2.75-0.14
			c0.2-0.02,0.46-0.05,0.76-0.1C100.82,146.16,100.92,146.15,100.97,146.15z M102.23,145.72c0.21,0,0.54,0.21,1,0.62
			c0.39,0.35,0.58,0.63,0.58,0.84c0,0.14-0.06,0.27-0.19,0.37c-0.1,0.08-0.21,0.12-0.34,0.12c-0.17,0-0.3-0.07-0.39-0.22
			c-0.24-0.4-0.52-0.75-0.83-1.08c-0.1-0.11-0.16-0.22-0.16-0.33C101.91,145.82,102.02,145.72,102.23,145.72z M103.27,144.89
			c0.22,0,0.54,0.18,0.96,0.53c0.39,0.33,0.58,0.6,0.58,0.83c0,0.16-0.06,0.28-0.18,0.38c-0.09,0.07-0.19,0.1-0.3,0.1
			c-0.16,0-0.3-0.09-0.42-0.28c-0.2-0.3-0.46-0.61-0.79-0.92c-0.12-0.11-0.18-0.23-0.18-0.34c0-0.07,0.03-0.14,0.09-0.2
			C103.09,144.92,103.17,144.89,103.27,144.89z"/>
		<path d="M107.43,146.82c0.15,0,0.41,0.07,0.78,0.2c0.69,0.24,1.26,0.53,1.71,0.86c0.24,0.17,0.36,0.39,0.36,0.65
			c0,0.14-0.05,0.29-0.14,0.43c-0.14,0.21-0.33,0.32-0.56,0.32c-0.2,0-0.43-0.09-0.67-0.28c-0.62-0.49-1.18-0.88-1.68-1.16
			c-0.25-0.14-0.38-0.31-0.38-0.51C106.84,146.99,107.03,146.82,107.43,146.82z M114.55,148.59c0.12,0,0.25,0.04,0.36,0.13
			c0.15,0.11,0.23,0.26,0.23,0.45c0,0.15-0.06,0.32-0.18,0.5c-0.85,1.27-1.97,2.37-3.36,3.3c-1.16,0.77-2.35,1.32-3.59,1.66
			c-0.13,0.03-0.24,0.05-0.34,0.05c-0.31,0-0.54-0.14-0.67-0.43c-0.06-0.13-0.09-0.25-0.09-0.37c0-0.27,0.13-0.47,0.4-0.6
			c0.06-0.03,0.3-0.1,0.74-0.23c1.59-0.47,3.07-1.3,4.44-2.51c0.52-0.47,1.02-1,1.48-1.59C114.14,148.7,114.34,148.59,114.55,148.59
			z"/>
	</g>
</g>
<g id="ガイド" display="none">
</g>
</svg>
