<?xml version="1.0" encoding="utf-8"?>
<!-- Generator: Adobe Illustrator 25.4.1, SVG Export Plug-In . SVG Version: 6.00 Build 0)  -->
<svg version="1.1" xmlns="http://www.w3.org/2000/svg" xmlns:xlink="http://www.w3.org/1999/xlink" x="0px" y="0px"
	 viewBox="0 0 164.41 252.28" enable-background="new 0 0 164.41 252.28" xml:space="preserve">
<g id="地">
	<rect fill="#DCDDDD" width="164.41" height="252.28"/>
</g>
<g id="枠">
</g>
<g id="国旗">
	<g>
		<g>
			<rect x="25.51" y="60" fill="#FFFFFF" width="113.39" height="75.59"/>
			<rect x="25.51" y="85.25" fill="#C8152A" width="113.39" height="25.09"/>
			<rect x="25.51" y="60" fill="#147F49" width="113.39" height="16.97"/>
			<rect x="25.51" y="118.62" fill="#147F49" width="113.39" height="16.97"/>
			<polygon fill="#F5CF21" points="82.93,87.72 85.3,95.03 92.99,95.03 86.77,99.54 89.15,106.85 82.93,102.33 76.71,106.85 
				79.09,99.54 72.87,95.03 80.56,95.03 			"/>
		</g>
	</g>
</g>
<g id="国名">
	<g>
		<path d="M65.36,151.75c-1.04,1.06-2.12,1.91-3.23,2.56c-0.46,0.27-0.78,0.4-0.94,0.4c-0.2,0-0.35-0.09-0.45-0.27
			c-0.06-0.1-0.09-0.19-0.09-0.27c0-0.16,0.08-0.31,0.23-0.44c0.04-0.03,0.17-0.12,0.39-0.27c0.89-0.57,1.83-1.33,2.8-2.28
			c0.98-0.97,1.7-1.92,2.16-2.86c0.08-0.16,0.12-0.27,0.12-0.32c0-0.07-0.04-0.1-0.11-0.1c-0.05,0-0.13,0.01-0.25,0.03
			c-0.22,0.03-1.08,0.1-2.58,0.22c-0.26,0.02-0.48,0.04-0.67,0.05c-0.07,0.01-0.13,0.01-0.17,0.01c-0.3,0-0.5-0.11-0.61-0.33
			c-0.05-0.1-0.07-0.21-0.07-0.33c0-0.31,0.15-0.51,0.44-0.6c0.09-0.03,0.28-0.05,0.59-0.07c1.04-0.04,2.36-0.15,3.96-0.33
			c0.07-0.01,0.13-0.01,0.18-0.01c0.32,0,0.58,0.09,0.77,0.28c0.18,0.17,0.27,0.38,0.27,0.64c0,0.2-0.1,0.49-0.29,0.9
			c-0.38,0.79-0.94,1.64-1.68,2.55c1.22,0.76,2.17,1.47,2.85,2.14c0.31,0.3,0.46,0.58,0.46,0.83c0,0.19-0.07,0.36-0.22,0.51
			c-0.15,0.16-0.32,0.23-0.52,0.23c-0.2,0-0.37-0.07-0.52-0.22c-0.02-0.02-0.08-0.09-0.19-0.21
			C67.21,153.39,66.34,152.57,65.36,151.75z"/>
		<path d="M75.16,146.75v3.86c0,0.2-0.06,0.35-0.19,0.46c-0.13,0.11-0.3,0.17-0.53,0.17c-0.31,0-0.52-0.11-0.63-0.32
			c-0.05-0.09-0.07-0.2-0.07-0.32v-3.86c0-0.26,0.1-0.44,0.31-0.55c0.12-0.06,0.25-0.09,0.39-0.09c0.24,0,0.43,0.07,0.56,0.21
			C75.11,146.43,75.16,146.57,75.16,146.75z M79.14,146.25v3.41c0,1.12-0.13,2.07-0.4,2.85c-0.35,1.01-1,1.85-1.95,2.54
			c-0.18,0.13-0.36,0.19-0.53,0.19c-0.15,0-0.27-0.05-0.35-0.14c-0.08-0.1-0.12-0.2-0.12-0.32c0-0.16,0.08-0.33,0.25-0.5
			c0.44-0.45,0.74-0.82,0.91-1.08c0.37-0.59,0.6-1.29,0.7-2.12c0.05-0.4,0.08-0.87,0.08-1.39v-3.42c0-0.38,0.23-0.58,0.7-0.58
			C78.9,145.68,79.14,145.87,79.14,146.25z"/>
		<path d="M87.26,148.62v-2.13c0-0.2,0.07-0.36,0.21-0.48c0.13-0.11,0.3-0.17,0.52-0.17c0.28,0,0.49,0.1,0.62,0.31
			c0.06,0.1,0.09,0.21,0.09,0.34v2.04l0.23-0.02c1.41-0.1,2.32-0.17,2.75-0.21c0.06,0,0.1-0.01,0.13-0.01c0.2,0,0.36,0.06,0.49,0.18
			c0.12,0.12,0.19,0.27,0.19,0.46c0,0.28-0.09,0.48-0.27,0.59c-0.11,0.07-0.32,0.11-0.62,0.12c-0.96,0.04-1.92,0.1-2.9,0.17v0.16
			c0,1.91-0.53,3.34-1.58,4.27c-0.5,0.44-0.89,0.67-1.17,0.67c-0.17,0-0.31-0.07-0.42-0.21c-0.07-0.09-0.11-0.19-0.11-0.3
			c0-0.17,0.09-0.34,0.28-0.51c0.72-0.65,1.18-1.41,1.39-2.26c0.11-0.47,0.17-1,0.17-1.57v-0.13c-1.23,0.09-2.26,0.18-3.08,0.25
			c-0.08,0.01-0.14,0.01-0.18,0.01c-0.22,0-0.39-0.06-0.52-0.19c-0.11-0.11-0.17-0.27-0.17-0.46c0-0.35,0.16-0.57,0.48-0.66
			c0.07-0.02,0.84-0.08,2.31-0.19l0.89-0.07L87.26,148.62z"/>
		<path d="M101.76,153.12c-1.44,0.32-3.04,0.64-4.79,0.95c-0.62,0.11-0.98,0.16-1.06,0.16c-0.26,0-0.48-0.07-0.65-0.22
			c-0.2-0.17-0.29-0.39-0.29-0.66c0-0.18,0.05-0.37,0.16-0.55c0.04-0.07,0.14-0.22,0.3-0.47c0.66-0.99,1.37-2.25,2.15-3.78
			c0.32-0.63,0.59-1.19,0.79-1.66c0.14-0.33,0.36-0.49,0.67-0.49c0.15,0,0.3,0.04,0.45,0.13c0.24,0.14,0.36,0.33,0.36,0.58
			c0,0.14-0.04,0.28-0.1,0.42c-0.3,0.62-0.77,1.46-1.4,2.52c-0.55,0.92-1.06,1.73-1.52,2.43c-0.05,0.08-0.08,0.14-0.08,0.18
			c0,0.05,0.04,0.07,0.12,0.07c0.03,0,0.15-0.01,0.35-0.04c1.96-0.28,3.27-0.47,3.93-0.59c-0.35-0.55-0.62-0.96-0.8-1.23
			c-0.11-0.16-0.17-0.31-0.17-0.44c0-0.15,0.06-0.28,0.18-0.39c0.1-0.09,0.21-0.13,0.33-0.13c0.18,0,0.39,0.1,0.61,0.31
			c0.41,0.38,0.88,0.93,1.41,1.65c0.34,0.46,0.6,0.85,0.79,1.19c0.12,0.21,0.18,0.41,0.18,0.61c0,0.24-0.09,0.44-0.28,0.59
			c-0.17,0.14-0.36,0.21-0.57,0.21c-0.28,0-0.49-0.15-0.64-0.45C102.06,153.71,101.92,153.42,101.76,153.12z"/>
	</g>
</g>
<g id="ガイド" display="none">
</g>
</svg>
