<?xml version="1.0" encoding="utf-8"?>
<!-- Generator: Adobe Illustrator 25.4.1, SVG Export Plug-In . SVG Version: 6.00 Build 0)  -->
<svg version="1.1" xmlns="http://www.w3.org/2000/svg" xmlns:xlink="http://www.w3.org/1999/xlink" x="0px" y="0px"
	 viewBox="0 0 164.41 252.28" enable-background="new 0 0 164.41 252.28" xml:space="preserve">
<g id="地">
	<rect fill="#DCDDDD" width="164.41" height="252.28"/>
</g>
<g id="枠">
</g>
<g id="国旗">
	<g>
		<g>
			<rect x="25.51" y="59.85" fill="#FFFFFF" width="113.39" height="75.59"/>
			<rect x="25.51" y="59.85" fill="#D0102A" width="24.98" height="75.59"/>
			<rect x="50.49" y="59.85" fill="#118749" width="88.41" height="24.85"/>
			<rect x="50.49" y="110.59" fill="#040000" width="88.41" height="24.84"/>
		</g>
	</g>
</g>
<g id="国名">
	<g>
		<path d="M45.97,146.52c0.24,0,0.46,0.06,0.66,0.18c0.27,0.17,0.4,0.41,0.4,0.72c0,0.2-0.08,0.44-0.25,0.74
			c-0.47,0.82-1.06,1.53-1.76,2.15c-0.4,0.34-0.7,0.51-0.91,0.51c-0.15,0-0.28-0.07-0.38-0.2c-0.07-0.1-0.11-0.19-0.11-0.28
			c0-0.15,0.09-0.31,0.28-0.49c0.56-0.54,0.99-1.08,1.28-1.63c0.08-0.15,0.12-0.25,0.12-0.3c0-0.06-0.05-0.09-0.15-0.09
			c-0.09,0-0.21,0-0.35,0.02c-0.08,0.01-0.33,0.02-0.75,0.05c-0.31,0.02-1.66,0.13-4.03,0.33c-0.8,0.07-1.23,0.1-1.29,0.1
			c-0.47,0-0.7-0.22-0.7-0.65c0-0.37,0.19-0.59,0.57-0.66c0.04-0.01,1.36-0.1,3.94-0.28C44.78,146.6,45.93,146.52,45.97,146.52z
			 M42.41,148.82c0.19,0,0.36,0.06,0.51,0.18c0.09,0.07,0.15,0.15,0.18,0.24c0.04,0.11,0.06,0.3,0.06,0.57
			c0,0.99-0.07,1.76-0.22,2.33c-0.32,1.22-1.05,2.18-2.18,2.86c-0.18,0.11-0.34,0.16-0.48,0.16c-0.17,0-0.29-0.06-0.38-0.17
			c-0.08-0.1-0.12-0.21-0.12-0.33c0-0.14,0.05-0.27,0.16-0.4c0.04-0.06,0.16-0.17,0.36-0.33c0.7-0.57,1.13-1.33,1.31-2.31
			c0.08-0.48,0.13-1.09,0.13-1.82l-0.01-0.3c0-0.28,0.1-0.47,0.31-0.59C42.15,148.85,42.28,148.82,42.41,148.82z"/>
		<path d="M56.69,148.71c0.42,0,0.72,0.15,0.91,0.44c0.1,0.17,0.16,0.37,0.16,0.6c0,0.33-0.11,0.76-0.34,1.29
			c-0.5,1.17-1.32,2.17-2.47,3.02c-0.61,0.45-1.25,0.79-1.92,1.04c-0.17,0.06-0.31,0.09-0.43,0.09c-0.16,0-0.29-0.07-0.38-0.2
			c-0.07-0.11-0.11-0.22-0.11-0.34c0-0.17,0.08-0.31,0.23-0.42c0.03-0.02,0.2-0.11,0.49-0.26c0.73-0.38,1.42-0.91,2.07-1.6
			c0.54-0.58,0.94-1.17,1.2-1.77c0.09-0.2,0.13-0.34,0.13-0.43c0-0.09-0.07-0.13-0.2-0.13c-0.06,0-0.72,0.04-1.99,0.12l-2.37,0.17
			c-0.9,0.07-1.37,0.1-1.4,0.1c-0.23,0-0.4-0.08-0.52-0.25c-0.07-0.11-0.11-0.24-0.11-0.39c0-0.39,0.19-0.62,0.57-0.67
			c0.24-0.03,2.02-0.15,5.36-0.34c0.27-0.01,0.47-0.03,0.61-0.04C56.46,148.72,56.64,148.71,56.69,148.71z M55.81,146.17
			c0.19,0,0.34,0.08,0.45,0.23c0.08,0.12,0.13,0.26,0.13,0.42c0,0.37-0.17,0.59-0.53,0.64c-0.28,0.04-0.69,0.08-1.22,0.13
			c-0.14,0.01-0.75,0.05-1.81,0.11c-0.65,0.04-1.08,0.05-1.31,0.05c-0.46,0-0.7-0.22-0.7-0.65c0-0.33,0.14-0.53,0.41-0.61
			c0.07-0.02,0.23-0.03,0.48-0.03c1.02-0.01,2.21-0.09,3.58-0.23c0.05-0.01,0.17-0.02,0.35-0.04
			C55.72,146.17,55.78,146.17,55.81,146.17z"/>
		<path d="M67.4,146.99c0.35,0,0.64,0.11,0.86,0.33c0.19,0.19,0.29,0.44,0.29,0.74c0,0.21-0.06,0.54-0.17,0.99s-0.23,0.85-0.37,1.2
			c-0.7,1.79-1.85,3.18-3.46,4.16c-0.64,0.39-1.1,0.59-1.38,0.59c-0.18,0-0.32-0.07-0.41-0.22c-0.07-0.11-0.1-0.21-0.1-0.32
			c0-0.2,0.13-0.38,0.38-0.52c1.08-0.62,1.96-1.43,2.65-2.42c0.61-0.87,1.03-1.82,1.26-2.85c0.02-0.08,0.03-0.14,0.03-0.19
			c0-0.09-0.05-0.13-0.15-0.13c-0.08,0-0.18,0.01-0.3,0.02c-0.21,0.02-1.16,0.08-2.86,0.2c-0.63,0.04-1.32,0.1-2.06,0.16
			c-0.07,0.01-0.13,0.01-0.16,0.01c-0.46,0-0.69-0.24-0.69-0.71c0-0.36,0.17-0.57,0.51-0.64c0.16-0.03,1.81-0.14,4.96-0.33
			c0.31-0.02,0.56-0.04,0.73-0.05C67.19,147,67.33,146.99,67.4,146.99z M68.23,145.66c0.21,0,0.54,0.21,1,0.62
			c0.39,0.35,0.58,0.63,0.58,0.83c0,0.14-0.06,0.27-0.19,0.37c-0.1,0.08-0.21,0.12-0.34,0.12c-0.17,0-0.31-0.1-0.43-0.29
			c-0.21-0.35-0.47-0.68-0.79-1.01c-0.1-0.11-0.16-0.22-0.16-0.33C67.91,145.77,68.02,145.66,68.23,145.66z M69.27,144.87
			c0.22,0,0.54,0.18,0.95,0.53c0.39,0.33,0.58,0.6,0.58,0.83c0,0.16-0.06,0.28-0.18,0.38c-0.09,0.07-0.19,0.1-0.3,0.1
			c-0.16,0-0.3-0.09-0.42-0.28c-0.2-0.3-0.46-0.61-0.79-0.92c-0.12-0.11-0.18-0.23-0.18-0.33c0-0.08,0.03-0.15,0.09-0.2
			C69.09,144.9,69.17,144.87,69.27,144.87z"/>
		<path d="M77.03,148.25c-0.21,0.31-0.44,0.62-0.69,0.92l2.45-0.18c0.03,0,0.08,0,0.14,0c0.63,0,0.94,0.34,0.94,1.01v5.15
			c0,0.16-0.06,0.29-0.17,0.39c-0.14,0.12-0.32,0.18-0.54,0.18c-0.29,0-0.5-0.1-0.63-0.29c-0.05-0.08-0.07-0.17-0.07-0.27v-0.13
			l-3.68,0.19c-0.08,0.3-0.31,0.45-0.7,0.45c-0.29,0-0.5-0.1-0.62-0.29c-0.05-0.08-0.08-0.18-0.08-0.28v-5.37
			c0-0.21,0.09-0.38,0.28-0.48c0.12-0.07,0.26-0.1,0.41-0.1c0.18,0,0.34,0.05,0.49,0.15l0.45-0.03c0.18-0.32,0.33-0.63,0.46-0.93
			l-3.21,0.19c-0.03,0-0.04,0-0.04,0c-0.35,0-0.52-0.18-0.52-0.53s0.16-0.54,0.47-0.56l2.29-0.14c-0.06-0.06-0.11-0.16-0.16-0.29
			c-0.08-0.23-0.22-0.49-0.43-0.78c-0.08-0.12-0.12-0.23-0.12-0.34c0-0.16,0.06-0.28,0.19-0.37c0.09-0.07,0.19-0.1,0.29-0.1
			c0.16,0,0.33,0.08,0.51,0.23c0.57,0.47,0.85,0.84,0.85,1.12c0,0.18-0.08,0.34-0.23,0.47l1.74-0.11c0.25-0.47,0.47-0.95,0.66-1.46
			c0.11-0.29,0.31-0.44,0.6-0.44c0.15,0,0.3,0.04,0.44,0.11c0.24,0.12,0.36,0.29,0.36,0.53c0,0.2-0.24,0.58-0.71,1.12
			c-0.02,0.02-0.04,0.04-0.05,0.06l2.31-0.14c0.12-0.01,0.25,0.02,0.37,0.09c0.14,0.08,0.22,0.23,0.22,0.44
			c0,0.23-0.07,0.39-0.2,0.49c-0.07,0.06-0.16,0.09-0.25,0.09L77.03,148.25z M78.47,150.7v-0.43c0-0.19-0.1-0.28-0.29-0.26
			l-3.37,0.24v0.69L78.47,150.7z M78.47,151.57l-3.67,0.23v0.74l3.67-0.22V151.57z M78.47,153.19l-3.67,0.22v0.8l3.67-0.19V153.19z"
			/>
		<path d="M85.07,151.44l-1.7,0.1l-0.04,0.01c-0.1,0.01-0.2-0.02-0.29-0.09c-0.15-0.1-0.23-0.26-0.23-0.48
			c0-0.36,0.17-0.55,0.51-0.57l1.89-0.12v-4.14c0-0.22,0.1-0.39,0.29-0.49c0.12-0.07,0.26-0.1,0.4-0.1c0.28,0,0.48,0.1,0.61,0.29
			l4.05-0.37c0.03,0,0.05-0.01,0.06-0.01c0.32,0,0.48,0.18,0.48,0.54c0,0.31-0.16,0.47-0.47,0.5l-4.05,0.34v0.5l3.67-0.31
			c0.01,0,0.03,0,0.05,0c0.3,0,0.45,0.14,0.45,0.43c0,0.3-0.14,0.46-0.43,0.49l-3.74,0.28v0.51l3.67-0.27c0.02,0,0.04,0,0.04,0
			c0.31,0,0.47,0.14,0.47,0.43c0,0.31-0.15,0.47-0.44,0.49l-3.74,0.25v0.56l5.65-0.35c0.01,0,0.03,0,0.04,0
			c0.15,0,0.27,0.04,0.36,0.13c0.1,0.1,0.16,0.23,0.16,0.4c0,0.37-0.17,0.57-0.5,0.59l-5.86,0.37v2.9c0.39-0.1,0.87-0.28,1.45-0.54
			c0.1-0.04,0.2-0.07,0.28-0.07c0.16,0,0.29,0.07,0.39,0.22c0.06,0.09,0.09,0.18,0.09,0.27c0,0.18-0.1,0.33-0.31,0.45
			c-0.57,0.36-1.21,0.68-1.91,0.96c-0.27,0.11-0.47,0.17-0.59,0.17c-0.18,0-0.36-0.11-0.56-0.32c-0.15-0.16-0.22-0.39-0.22-0.7
			V151.44z M89.32,152.42c0.44-0.34,0.81-0.66,1.11-0.99c0.22-0.23,0.43-0.35,0.61-0.35c0.21,0,0.39,0.08,0.54,0.25
			c0.1,0.12,0.16,0.25,0.16,0.4c0,0.19-0.09,0.36-0.28,0.51c-0.31,0.25-0.74,0.52-1.27,0.81c0.8,0.53,1.6,0.95,2.39,1.26
			c0.35,0.14,0.52,0.27,0.52,0.4c0,0.11-0.12,0.22-0.37,0.32c-0.52,0.21-0.92,0.32-1.19,0.32c-0.2,0-0.43-0.08-0.69-0.24
			c-0.73-0.45-1.49-1.06-2.28-1.84c-0.77-0.76-1.15-1.26-1.15-1.52c0-0.14,0.06-0.25,0.17-0.35c0.09-0.08,0.19-0.12,0.3-0.12
			c0.11,0,0.22,0.04,0.33,0.12c0.03,0.02,0.15,0.13,0.35,0.33C88.76,151.94,89.01,152.17,89.32,152.42z"/>
		<path d="M102.37,154.8l-6.33,0.27c-0.08,0.3-0.3,0.45-0.67,0.45c-0.29,0-0.5-0.1-0.61-0.31c-0.04-0.08-0.07-0.17-0.07-0.27v-8.58
			c0-0.21,0.09-0.36,0.27-0.46c0.12-0.07,0.27-0.11,0.42-0.11c0.29,0,0.49,0.11,0.61,0.32l6.54-0.47c0.02,0,0.06,0,0.13,0
			c0.72,0,1.07,0.38,1.07,1.15v8.18c0,0.16-0.05,0.29-0.17,0.39c-0.13,0.13-0.3,0.19-0.52,0.19c-0.31,0-0.51-0.11-0.62-0.33
			c-0.04-0.07-0.05-0.16-0.05-0.25V154.8z M102.37,153.61v-6.57c0-0.18-0.09-0.26-0.27-0.25h-0.02l-6.04,0.45v6.63L102.37,153.61z
			 M99.72,148.82v0.8l1.25-0.09c0.04,0,0.07-0.01,0.08-0.01c0.32,0,0.48,0.19,0.48,0.56c0,0.33-0.15,0.5-0.44,0.53l-0.3,0.03
			c0.18,0.06,0.34,0.16,0.49,0.3c0.13,0.13,0.2,0.27,0.2,0.43c0,0.15-0.08,0.28-0.23,0.38l0.16-0.01c0.01,0,0.03,0,0.05,0
			c0.35,0,0.53,0.2,0.53,0.61c0,0.36-0.16,0.55-0.48,0.57l-4.46,0.26l-0.05,0c-0.18,0.01-0.33-0.06-0.43-0.22
			c-0.07-0.11-0.1-0.24-0.1-0.39c0-0.37,0.16-0.56,0.47-0.58l1.54-0.09v-1.1l-1.1,0.09c-0.02,0-0.03,0-0.04,0
			c-0.32,0-0.48-0.17-0.48-0.52c0-0.36,0.15-0.55,0.44-0.57l1.18-0.09v-0.8l-1.27,0.1c-0.02,0-0.05,0-0.08,0
			c-0.32,0-0.48-0.2-0.48-0.6c0-0.35,0.15-0.53,0.46-0.55l3.99-0.31c0.02,0,0.04,0,0.06,0c0.32,0,0.49,0.2,0.49,0.61
			c0,0.34-0.15,0.53-0.46,0.55L99.72,148.82z M100.25,150.67l-0.53,0.04v1.12l0.93-0.06c-0.04-0.04-0.08-0.09-0.11-0.16
			c-0.08-0.2-0.19-0.38-0.33-0.55c-0.05-0.06-0.07-0.12-0.07-0.18C100.14,150.81,100.18,150.73,100.25,150.67z"/>
		<path d="M107.37,153.35c0.49,0.02,1.26,0.14,2.3,0.36c0.98,0.21,2.16,0.38,3.55,0.5c0.89,0.08,1.62,0.13,2.2,0.13
			c0.42,0,0.63,0.08,0.63,0.23c0,0.11-0.16,0.27-0.47,0.48c-0.29,0.2-0.52,0.33-0.68,0.42c-0.25,0.13-0.5,0.19-0.72,0.19
			c-0.59,0-2.34-0.37-5.26-1.11c-0.69-0.17-1.25-0.26-1.68-0.26c-0.32,0-0.74,0.08-1.28,0.24c-0.08,0.03-0.16,0.04-0.23,0.04
			c-0.21,0-0.36-0.1-0.44-0.31c-0.04-0.09-0.05-0.19-0.05-0.3c0-0.22,0.13-0.38,0.38-0.46c0.1-0.03,0.27-0.06,0.53-0.09l0.1-0.1
			c0.55-0.54,0.83-0.91,0.83-1.11c0-0.09-0.08-0.17-0.23-0.24c-0.25-0.12-0.38-0.29-0.38-0.51c0-0.26,0.13-0.64,0.4-1.15l-0.83,0.18
			c-0.07,0.01-0.14,0.02-0.2,0.02c-0.23,0-0.39-0.12-0.47-0.35c-0.03-0.08-0.04-0.17-0.04-0.25c0-0.31,0.14-0.5,0.43-0.54l1.75-0.29
			c0.08-0.01,0.16-0.02,0.22-0.02c0.19,0,0.34,0.05,0.45,0.14c0.12,0.1,0.18,0.24,0.18,0.41c0,0.18-0.07,0.36-0.21,0.55
			c-0.38,0.54-0.56,0.91-0.56,1.13c0,0.09,0.07,0.17,0.22,0.23c0.22,0.09,0.37,0.17,0.44,0.23c0.13,0.11,0.2,0.24,0.2,0.39
			c0,0.18-0.09,0.36-0.28,0.56C108,152.86,107.74,153.08,107.37,153.35z M106.18,145.82c0.22,0,0.6,0.18,1.15,0.54
			c0.28,0.18,0.49,0.34,0.6,0.47c0.15,0.16,0.22,0.32,0.22,0.5c0,0.15-0.06,0.29-0.17,0.43c-0.13,0.16-0.3,0.23-0.51,0.23
			c-0.13,0-0.24-0.03-0.33-0.1c-0.05-0.04-0.16-0.15-0.33-0.34c-0.23-0.26-0.5-0.53-0.8-0.8c-0.18-0.17-0.28-0.32-0.28-0.46
			c0-0.1,0.03-0.2,0.1-0.29C105.9,145.87,106.02,145.82,106.18,145.82z M112.52,151.29v0.64l2.34-0.1c0.14-0.01,0.25,0.04,0.35,0.13
			c0.1,0.1,0.16,0.23,0.16,0.4c0,0.35-0.15,0.53-0.45,0.54l-2.39,0.1v0.51c0,0.14-0.05,0.25-0.16,0.34
			c-0.12,0.1-0.28,0.15-0.49,0.15c-0.27,0-0.46-0.08-0.57-0.24c-0.05-0.07-0.07-0.15-0.07-0.25v-0.46l-1.97,0.08
			c-0.08,0-0.15-0.01-0.21-0.04c-0.19-0.09-0.29-0.25-0.29-0.49c0-0.2,0.06-0.35,0.18-0.44c0.07-0.06,0.16-0.08,0.26-0.09l2.03-0.09
			v-0.61l-0.75,0.05c-0.09,0.18-0.27,0.28-0.54,0.28c-0.36,0-0.55-0.14-0.58-0.41l-0.28-2.96c-0.01-0.14,0.04-0.26,0.17-0.35
			c0.13-0.1,0.28-0.14,0.45-0.14c0.21,0,0.37,0.06,0.48,0.19l1.05-0.09v-0.53l-1.75,0.14l-0.04,0c-0.19,0.01-0.33-0.09-0.41-0.31
			c-0.03-0.08-0.04-0.16-0.04-0.24c0-0.19,0.08-0.33,0.23-0.42c0.06-0.03,0.12-0.05,0.19-0.06l1.83-0.15v-0.62
			c0-0.17,0.07-0.29,0.2-0.38c0.12-0.07,0.26-0.11,0.44-0.11c0.23,0,0.4,0.06,0.51,0.17c0.09,0.08,0.13,0.19,0.13,0.32v0.51
			l1.67-0.14c0.02,0,0.03,0,0.03,0c0.12,0,0.23,0.04,0.31,0.13c0.1,0.09,0.14,0.22,0.14,0.39c0,0.33-0.14,0.5-0.42,0.52l-1.73,0.14
			v0.53l1.31-0.11c0.05,0,0.08,0,0.1,0c0.31,0,0.53,0.09,0.67,0.28c0.11,0.15,0.16,0.33,0.14,0.54l-0.23,2.51
			c-0.03,0.33-0.25,0.49-0.65,0.49c-0.25,0-0.42-0.1-0.52-0.29L112.52,151.29z M111.26,149.26v-0.46l-0.93,0.08l0.04,0.45
			L111.26,149.26z M111.26,150.03l-0.83,0.06l0.03,0.47l0.8-0.05V150.03z M112.48,149.16l0.97-0.08l0.02-0.29c0-0.02,0-0.03,0-0.03
			c0-0.11-0.06-0.16-0.17-0.15l-0.82,0.07V149.16z M112.48,149.94v0.5l0.89-0.06l0.03-0.51L112.48,149.94z"/>
		<path d="M120.27,148.15l-0.01,0.82l1.08-0.11c0.03,0,0.05-0.01,0.06-0.01c0.18-0.01,0.31,0.06,0.4,0.2
			c0.06,0.09,0.08,0.2,0.08,0.34c0,0.37-0.15,0.57-0.45,0.6l-1.17,0.12l-0.01,0.12c0,0.2-0.01,0.44-0.03,0.72l1.59-0.16
			c0.02,0,0.04,0,0.06,0c0.33,0.02,0.5,0.23,0.5,0.61c0,0.35-0.16,0.54-0.49,0.57l-1.8,0.18c-0.01,0.05-0.03,0.13-0.05,0.23
			c-0.22,1.08-0.66,1.97-1.34,2.66c-0.17,0.17-0.33,0.26-0.48,0.26c-0.08,0-0.15-0.03-0.22-0.08c-0.14-0.1-0.22-0.23-0.22-0.38
			c0-0.1,0.04-0.2,0.12-0.3c0.5-0.64,0.82-1.4,0.96-2.27l-1.57,0.16c-0.03,0-0.05,0.01-0.07,0.01c-0.33,0-0.5-0.19-0.5-0.56
			c0-0.39,0.16-0.6,0.49-0.64l1.77-0.17c0-0.2,0-0.36,0-0.46v-0.38l-1.18,0.12c-0.03,0-0.05,0-0.08,0c-0.33,0-0.49-0.19-0.49-0.56
			c0-0.34,0.15-0.53,0.45-0.56l1.29-0.13v-0.82l-1.38,0.14c-0.03,0-0.06,0-0.1,0c-0.32,0-0.48-0.2-0.48-0.59
			c0-0.35,0.15-0.55,0.46-0.58l1.51-0.15v-1.16c0-0.21,0.09-0.37,0.28-0.46c0.12-0.06,0.25-0.09,0.38-0.09
			c0.21,0,0.38,0.06,0.51,0.19c0.1,0.1,0.15,0.22,0.15,0.37l-0.01,1.02l1.17-0.13c0.01,0,0.04,0,0.07,0c0.34,0,0.51,0.2,0.51,0.61
			c0,0.34-0.16,0.52-0.47,0.55L120.27,148.15z M124.01,147.44v7.66c0,0.14-0.05,0.26-0.14,0.36c-0.12,0.13-0.29,0.19-0.5,0.19
			c-0.27,0-0.46-0.09-0.58-0.28c-0.04-0.08-0.07-0.17-0.07-0.27v-7.54c-0.31-0.05-0.46-0.27-0.46-0.64c0-0.34,0.17-0.53,0.53-0.56
			l2.82-0.29c0.04,0,0.09-0.01,0.15-0.01c0.52,0,0.78,0.24,0.78,0.71c0,0.15-0.04,0.35-0.11,0.61c-0.19,0.64-0.44,1.3-0.75,1.98
			c0.88,0.8,1.31,1.69,1.31,2.66c0,0.29-0.05,0.54-0.16,0.75c-0.18,0.34-0.46,0.51-0.84,0.51c-0.43,0-0.92-0.16-1.46-0.47
			c-0.23-0.13-0.35-0.29-0.35-0.46c0-0.27,0.13-0.4,0.4-0.4c0.07,0,0.15,0.01,0.25,0.04c0.15,0.04,0.32,0.06,0.49,0.06
			c0.21,0,0.32-0.13,0.32-0.4c0-0.48-0.32-1.06-0.95-1.76c-0.14-0.16-0.22-0.3-0.22-0.43c0-0.15,0.07-0.28,0.21-0.39
			c0.14-0.39,0.27-0.84,0.4-1.35c0.01-0.07,0.02-0.13,0.02-0.17c0-0.12-0.07-0.18-0.21-0.18c-0.05,0-0.08,0-0.1,0.01L124.01,147.44z
			"/>
	</g>
</g>
<g id="ガイド" display="none">
</g>
</svg>
