<?xml version="1.0" encoding="utf-8"?>
<!-- Generator: Adobe Illustrator 25.4.1, SVG Export Plug-In . SVG Version: 6.00 Build 0)  -->
<svg version="1.1" xmlns="http://www.w3.org/2000/svg" xmlns:xlink="http://www.w3.org/1999/xlink" x="0px" y="0px"
	 viewBox="0 0 164.41 252.28" enable-background="new 0 0 164.41 252.28" xml:space="preserve">
<g id="地">
	<rect fill="#DCDDDD" width="164.41" height="252.28"/>
</g>
<g id="枠">
</g>
<g id="国旗">
	<g>
		<g>
			<rect x="25.51" y="60" fill="#FFFFFF" width="113.39" height="75.59"/>
			<rect x="25.51" y="110.39" fill="#C8152A" width="113.39" height="25.2"/>
			<rect x="25.51" y="85.2" fill="#044F7F" width="113.39" height="25.2"/>
			<path fill="#FFFFFF" d="M61.6,120.6c-1.11-0.45-4.32-1.85-7.25-4.04c-3.03-2.25-8.25-7.22-9.22-15.18
				c-0.96-7.87-0.22-20.87,0.36-23.33H44.7c-0.65,2.74-1.69,15.57-0.73,23.47c0.97,7.91,5.89,13.15,9.68,15.97
				c3.79,2.82,7.95,4.36,7.95,4.36s4.16-1.53,7.95-4.36c3.79-2.82,8.71-8.07,9.68-15.97c0.97-7.91-0.08-20.73-0.73-23.47h-0.79
				c0.58,2.46,1.33,15.46,0.36,23.33c-0.97,7.96-6.2,12.93-9.22,15.18C65.91,118.75,62.7,120.15,61.6,120.6z"/>
			<path fill="#C8152A" d="M61.6,120.6c-1.11-0.45-4.32-1.85-7.25-4.04c-3.03-2.25-8.25-7.22-9.22-15.18
				c-0.96-7.87-0.22-20.87,0.36-23.33h32.22c0.58,2.46,1.33,15.46,0.36,23.33c-0.97,7.96-6.2,12.93-9.22,15.18
				C65.91,118.75,62.7,120.15,61.6,120.6z"/>
			<path fill="#044F7F" d="M61.6,120.6c-1.06-0.43-4.07-1.75-6.9-3.79l0,0c-0.12-0.08-0.23-0.17-0.35-0.25
				c-0.21-0.15-0.42-0.32-0.65-0.5c-0.02-0.01-0.03-0.03-0.05-0.04c-0.21-0.17-0.43-0.35-0.66-0.54c-0.02-0.02-0.04-0.04-0.07-0.06
				c-0.23-0.2-0.46-0.4-0.7-0.62c-0.02-0.02-0.03-0.03-0.05-0.05c-0.5-0.47-1.02-0.99-1.54-1.57c-0.02-0.02-0.03-0.04-0.05-0.06
				c-0.24-0.27-0.49-0.56-0.73-0.85c-0.02-0.03-0.04-0.06-0.07-0.08c-0.24-0.3-0.48-0.61-0.72-0.93c-0.02-0.02-0.03-0.04-0.05-0.07
				c-0.25-0.34-0.49-0.7-0.73-1.07c0,0,0,0,0,0c0.79-2.13,2.36-3.95,4.45-3.95c1.52,0,2.66,0.61,3.42,1.6
				c0.48-2.57,2.73-4.51,5.43-4.51c2.71,0,4.96,1.95,5.43,4.51c0.77-0.99,1.91-1.6,3.42-1.6c2.09,0,3.66,1.82,4.45,3.95c0,0,0,0,0,0
				c-0.24,0.37-0.48,0.73-0.73,1.07c-0.02,0.02-0.03,0.04-0.05,0.07c-0.24,0.32-0.47,0.63-0.72,0.93c-0.02,0.03-0.04,0.05-0.07,0.08
				c-0.24,0.3-0.48,0.58-0.73,0.85c-0.02,0.02-0.03,0.04-0.05,0.06c-0.52,0.58-1.04,1.1-1.54,1.57c-0.02,0.02-0.03,0.03-0.05,0.05
				c-0.24,0.22-0.47,0.43-0.7,0.62c-0.02,0.02-0.04,0.04-0.07,0.06c-0.22,0.19-0.44,0.37-0.66,0.54c-0.02,0.01-0.03,0.03-0.05,0.04
				c-0.23,0.18-0.44,0.35-0.65,0.5c-0.12,0.09-0.23,0.17-0.35,0.25l0,0C65.66,118.86,62.66,120.17,61.6,120.6z"/>
			<path fill="#FFFFFF" d="M72.06,99.47l-0.26-3.16l0.26-3.16c-3.53,1.6-6.88,1.7-8.33,1.66c-0.02-1.86-0.03-3.5-0.02-4.93
				c1.17,0.02,3.33,0.29,6.36,1.66l-0.26-3.16l0.26-3.16c-2.99,1.35-5.15,1.64-6.32,1.66c0.14-6.52,0.59-7.27,0.59-7.27
				c-1.1,0.52-2.73,0.64-2.73,0.64s-1.64-0.13-2.73-0.64c0,0,0.45,0.75,0.59,7.27c-1.17-0.03-3.33-0.31-6.32-1.66l0.26,3.16
				l-0.26,3.16c3.03-1.37,5.19-1.64,6.36-1.66c0.01,1.44,0,3.07-0.02,4.93c-1.45,0.05-4.8-0.06-8.33-1.66l0.26,3.16l-0.26,3.16
				c3.49-1.58,6.81-1.7,8.28-1.66c-0.04,1.8-0.09,3.78-0.15,5.96c0.71-0.33,1.5-0.52,2.34-0.52c0.84,0,1.63,0.19,2.34,0.52
				c-0.07-2.17-0.12-4.15-0.15-5.96C65.25,97.77,68.57,97.89,72.06,99.47z"/>
		</g>
	</g>
</g>
<g id="国名">
	<g>
		<path d="M59.69,151.75c-1.04,1.06-2.12,1.91-3.23,2.56c-0.46,0.27-0.78,0.4-0.94,0.4c-0.2,0-0.35-0.09-0.45-0.27
			c-0.06-0.1-0.09-0.19-0.09-0.27c0-0.16,0.08-0.31,0.23-0.44c0.04-0.03,0.17-0.12,0.39-0.27c0.89-0.57,1.82-1.33,2.79-2.28
			c0.98-0.97,1.7-1.92,2.17-2.86c0.08-0.16,0.12-0.27,0.12-0.32c0-0.07-0.04-0.1-0.11-0.1c-0.05,0-0.13,0.01-0.25,0.03
			c-0.22,0.03-1.08,0.1-2.58,0.22c-0.26,0.02-0.48,0.04-0.67,0.05c-0.07,0.01-0.13,0.01-0.17,0.01c-0.3,0-0.5-0.11-0.62-0.33
			c-0.05-0.1-0.07-0.21-0.07-0.33c0-0.31,0.15-0.51,0.44-0.6c0.09-0.03,0.29-0.05,0.59-0.07c1.04-0.04,2.36-0.15,3.96-0.33
			c0.07-0.01,0.13-0.01,0.18-0.01c0.32,0,0.58,0.09,0.78,0.28c0.18,0.17,0.27,0.38,0.27,0.64c0,0.2-0.1,0.49-0.29,0.9
			c-0.38,0.79-0.94,1.64-1.68,2.55c1.22,0.76,2.17,1.47,2.85,2.14c0.31,0.3,0.46,0.58,0.46,0.83c0,0.19-0.07,0.36-0.22,0.51
			c-0.15,0.16-0.32,0.23-0.52,0.23c-0.2,0-0.37-0.07-0.52-0.22c-0.02-0.02-0.08-0.09-0.19-0.21
			C61.54,153.39,60.67,152.57,59.69,151.75z"/>
		<path d="M67.98,147.57l0.38-0.03c3.25-0.24,5-0.37,5.24-0.37c0.33,0,0.61,0.11,0.83,0.33c0.21,0.2,0.31,0.46,0.31,0.78
			c0,0.21-0.21,1.41-0.62,3.59l-0.05,0.28c0.25,0.1,0.38,0.33,0.38,0.67c0,0.33-0.17,0.53-0.5,0.6c-0.06,0.01-0.22,0.02-0.48,0.02
			c-1.92,0-3.48,0.05-4.67,0.16c-0.1,0.31-0.35,0.47-0.74,0.47c-0.29,0-0.48-0.14-0.58-0.43c-0.02-0.07-0.05-0.26-0.08-0.58
			c-0.07-0.67-0.26-2.02-0.55-4.07c-0.08-0.58-0.13-0.9-0.13-0.96c0-0.3,0.13-0.5,0.39-0.61c0.12-0.05,0.25-0.08,0.39-0.08
			C67.68,147.33,67.85,147.41,67.98,147.57z M72.75,152.12c0.18-1.05,0.34-2.14,0.5-3.27c0.01-0.07,0.02-0.12,0.02-0.16
			c0-0.13-0.07-0.19-0.22-0.19c-0.23,0-1.43,0.09-3.6,0.26c-0.41,0.03-0.81,0.07-1.22,0.09c0.15,1.33,0.29,2.48,0.43,3.47l0.36-0.02
			C70.62,152.22,71.86,152.15,72.75,152.12z"/>
		<path d="M80.27,148.33c0.11,0,0.22,0.02,0.32,0.07c0.29,0.13,0.44,0.35,0.44,0.65c0,0.27-0.17,0.73-0.51,1.37
			c-0.46,0.88-1.03,1.65-1.72,2.32c-0.5,0.49-0.87,0.74-1.12,0.74c-0.14,0-0.27-0.06-0.38-0.19c-0.09-0.1-0.14-0.21-0.14-0.34
			c0-0.15,0.08-0.32,0.23-0.49c0.9-0.99,1.62-2.18,2.14-3.59C79.66,148.51,79.91,148.33,80.27,148.33z M83.86,148.1
			c0.18,0,0.39,0.12,0.63,0.35c0.58,0.56,1.14,1.25,1.68,2.07c0.61,0.91,0.91,1.54,0.91,1.9c0,0.27-0.12,0.48-0.35,0.63
			c-0.15,0.09-0.29,0.14-0.43,0.14c-0.29,0-0.51-0.13-0.65-0.38c-0.02-0.03-0.07-0.13-0.16-0.32c-0.65-1.38-1.34-2.54-2.06-3.46
			c-0.1-0.12-0.15-0.26-0.15-0.42c0-0.15,0.06-0.27,0.17-0.37C83.58,148.15,83.71,148.1,83.86,148.1z M85.03,146.57
			c0.21,0,0.54,0.21,0.99,0.62c0.39,0.35,0.58,0.63,0.58,0.83c0,0.14-0.06,0.27-0.19,0.37c-0.1,0.08-0.21,0.12-0.33,0.12
			c-0.17,0-0.31-0.1-0.43-0.29c-0.21-0.34-0.47-0.68-0.79-1.01c-0.1-0.11-0.15-0.22-0.15-0.33
			C84.71,146.67,84.82,146.57,85.03,146.57z M86.01,145.68c0.22,0,0.54,0.18,0.96,0.53c0.39,0.32,0.58,0.6,0.58,0.83
			c0,0.16-0.06,0.28-0.18,0.38c-0.09,0.07-0.19,0.1-0.3,0.1c-0.16,0-0.3-0.09-0.42-0.28c-0.2-0.3-0.46-0.61-0.79-0.92
			c-0.12-0.11-0.18-0.22-0.18-0.33c0-0.07,0.03-0.14,0.09-0.21C85.83,145.71,85.91,145.68,86.01,145.68z"/>
		<path d="M92.29,147.89l-0.28-1.38c-0.02-0.08-0.02-0.16-0.02-0.23c0-0.26,0.1-0.44,0.3-0.55c0.12-0.07,0.25-0.1,0.41-0.1
			c0.38,0,0.61,0.2,0.69,0.59l0.28,1.39c0.91-0.19,1.55-0.33,1.92-0.42c0.1-0.03,0.18-0.04,0.27-0.04c0.27,0,0.46,0.11,0.58,0.33
			c0.05,0.11,0.08,0.22,0.08,0.34c0,0.32-0.19,0.53-0.56,0.62c-0.27,0.07-0.88,0.2-1.84,0.39l-0.19,0.04l0.32,1.57
			c0.47-0.1,1.45-0.3,2.93-0.61c0.11-0.02,0.19-0.03,0.26-0.03c0.28,0,0.47,0.12,0.58,0.35c0.04,0.1,0.07,0.21,0.07,0.33
			c0,0.28-0.14,0.47-0.42,0.58c-0.06,0.02-0.19,0.05-0.38,0.09c-0.52,0.1-1.36,0.28-2.52,0.53l-0.26,0.06l0.55,2.77
			c0.01,0.07,0.02,0.14,0.02,0.22c0,0.28-0.11,0.47-0.32,0.58c-0.12,0.06-0.26,0.09-0.42,0.09c-0.37,0-0.6-0.21-0.68-0.63
			l-0.54-2.75l-0.23,0.05l-1.89,0.4c-0.8,0.17-1.23,0.25-1.31,0.25c-0.27,0-0.46-0.12-0.56-0.36c-0.04-0.1-0.07-0.22-0.07-0.35
			c0-0.28,0.15-0.48,0.45-0.58c0.04-0.01,0.69-0.15,1.95-0.42l1.13-0.24l0.25-0.06l-0.3-1.58l-0.17,0.03
			c-1.34,0.25-2.09,0.37-2.25,0.37c-0.41,0-0.62-0.23-0.62-0.68c0-0.37,0.25-0.58,0.74-0.65C90.84,148.15,91.52,148.03,92.29,147.89
			z"/>
		<path d="M108.34,146.52c0.24,0,0.46,0.06,0.66,0.18c0.27,0.17,0.4,0.41,0.4,0.72c0,0.2-0.08,0.44-0.25,0.74
			c-0.47,0.82-1.06,1.53-1.76,2.15c-0.39,0.34-0.7,0.51-0.91,0.51c-0.15,0-0.28-0.07-0.38-0.2c-0.07-0.1-0.11-0.19-0.11-0.28
			c0-0.15,0.09-0.31,0.28-0.49c0.56-0.54,0.99-1.08,1.28-1.63c0.08-0.15,0.12-0.25,0.12-0.3c0-0.06-0.05-0.09-0.15-0.09
			c-0.09,0-0.21,0-0.35,0.02c-0.08,0.01-0.33,0.02-0.75,0.05c-0.31,0.02-1.66,0.13-4.02,0.33c-0.8,0.07-1.23,0.1-1.29,0.1
			c-0.47,0-0.7-0.22-0.7-0.65c0-0.37,0.19-0.59,0.57-0.66c0.04-0.01,1.36-0.1,3.94-0.28C107.14,146.6,108.29,146.52,108.34,146.52z
			 M104.77,148.82c0.19,0,0.36,0.06,0.51,0.18c0.09,0.07,0.15,0.15,0.18,0.24c0.04,0.11,0.05,0.3,0.05,0.57
			c0,0.99-0.07,1.76-0.22,2.33c-0.32,1.22-1.05,2.18-2.18,2.86c-0.18,0.11-0.34,0.16-0.48,0.16c-0.17,0-0.29-0.06-0.38-0.17
			c-0.08-0.1-0.12-0.21-0.12-0.33c0-0.14,0.05-0.27,0.15-0.4c0.04-0.06,0.16-0.17,0.36-0.33c0.7-0.57,1.13-1.33,1.31-2.31
			c0.08-0.48,0.13-1.09,0.13-1.82l-0.01-0.3c0-0.28,0.1-0.47,0.31-0.59C104.51,148.85,104.64,148.82,104.77,148.82z"/>
	</g>
</g>
<g id="ガイド" display="none">
</g>
</svg>
