<?xml version="1.0" encoding="utf-8"?>
<!-- Generator: Adobe Illustrator 25.4.1, SVG Export Plug-In . SVG Version: 6.00 Build 0)  -->
<svg version="1.1" xmlns="http://www.w3.org/2000/svg" xmlns:xlink="http://www.w3.org/1999/xlink" x="0px" y="0px"
	 viewBox="0 0 164.41 252.28" enable-background="new 0 0 164.41 252.28" xml:space="preserve">
<g id="地">
	<rect fill="#DCDDDD" width="164.41" height="252.28"/>
</g>
<g id="枠">
</g>
<g id="国旗">
	<g>
		<g>
			<rect x="25.51" y="60" fill="#FFFFFF" width="113.39" height="75.59"/>
			<path fill="#044F7F" d="M48.81,96.91c-1.96,0-7.33-4.07-8.42-9.44c-1.09-5.37-1.53-13.21-1.53-13.21s2.11-2.03,9.95-2.03
				c7.84,0,9.95,2.03,9.95,2.03s-0.44,7.84-1.52,13.21C56.15,92.85,50.77,96.91,48.81,96.91"/>
			<rect x="25.51" y="110.39" fill="#C8152A" width="113.39" height="25.2"/>
			<rect x="25.51" y="85.2" fill="#044F7F" width="113.39" height="25.2"/>
			<polygon fill="#EFEA3C" points="51.78,73.11 52.1,73.67 52.74,73.67 52.42,74.22 52.74,74.77 52.1,74.77 51.78,75.32 
				51.47,74.77 50.83,74.77 51.15,74.22 50.83,73.67 51.47,73.67 			"/>
			<path fill="#D01124" d="M48.81,96.91c-1.96,0-7.33-4.07-8.42-9.44c-1.09-5.37-1.53-13.21-1.53-13.21s0.12-0.11,0.39-0.28
				l0.01,0.23c0.08,1.26,0.53,8.37,1.51,13.18c1.05,5.18,6.25,9.13,8.04,9.13c1.8,0,6.99-3.95,8.04-9.13
				c0.97-4.81,1.43-11.93,1.51-13.18l0.01-0.23c0.27,0.17,0.39,0.28,0.39,0.28s-0.44,7.84-1.52,13.21
				C56.15,92.85,50.77,96.91,48.81,96.91z"/>
			<path fill="#FFFFFF" d="M48.81,91.78c-1.18,0.02-1.56-0.78-2.46-0.75c-0.9-0.03-1.29,0.76-2.56,0.78c-0.2,0-0.42-0.06-0.66-0.15
				c1.96,2.54,4.52,4.18,5.68,4.18c1.15,0,3.72-1.63,5.68-4.18c-0.24,0.09-0.46,0.15-0.66,0.15c-1.27-0.02-1.66-0.81-2.56-0.78
				C50.37,91,49.99,91.75,48.81,91.78z"/>
			<path fill="#FFFFFF" d="M48.81,79.48l-2.3,4.6l-1.59-1.91l-3.92,5.47c0.12,0.39,0.27,0.77,0.43,1.14
				c0.88,0.66,1.9,1.23,2.36,1.22c1.05,0.02,1.41-0.75,2.56-0.78c1.14,0.03,1.52,0.78,2.46,0.75c0.95-0.02,1.32-0.73,2.46-0.75
				c1.15,0.03,1.51,0.8,2.56,0.78c0.46,0.01,1.48-0.56,2.36-1.22c0.16-0.37,0.31-0.75,0.43-1.14l-3.92-5.47l-1.59,1.91L48.81,79.48z
				"/>
			<path fill="#FFFFFF" d="M48.81,90.36c-1.18,0.02-1.56-0.78-2.46-0.75c-0.9-0.03-1.29,0.76-2.56,0.78
				c-0.55-0.01-1.29-0.41-2.04-0.91c0.27,0.53,0.57,1.04,0.9,1.52c0.47,0.26,0.88,0.43,1.13,0.42c1.05,0.02,1.41-0.75,2.56-0.78
				c1.14,0.03,1.52,0.78,2.46,0.75c0.95-0.02,1.32-0.73,2.46-0.75c1.15,0.03,1.51,0.8,2.56,0.78c0.25,0.01,0.66-0.16,1.13-0.42
				c0.33-0.48,0.63-0.99,0.9-1.52c-0.75,0.5-1.49,0.9-2.04,0.91c-1.27-0.02-1.66-0.81-2.56-0.78
				C50.37,89.58,49.99,90.34,48.81,90.36z"/>
			<polygon fill="#EFEA3C" points="45.84,73.11 45.53,73.67 44.89,73.67 45.21,74.22 44.89,74.77 45.53,74.77 45.84,75.32 
				46.16,74.77 46.8,74.77 46.48,74.22 46.8,73.67 46.16,73.67 			"/>
			<polygon fill="#EFEA3C" points="48.81,76.55 48.5,77.1 47.86,77.1 48.18,77.65 47.86,78.2 48.5,78.2 48.81,78.75 49.13,78.2 
				49.77,78.2 49.45,77.65 49.77,77.1 49.13,77.1 			"/>
		</g>
	</g>
</g>
<g id="国名">
	<g>
		<path d="M59.69,151.75c-1.04,1.06-2.12,1.91-3.23,2.56c-0.46,0.27-0.78,0.4-0.94,0.4c-0.2,0-0.35-0.09-0.45-0.27
			c-0.06-0.1-0.09-0.19-0.09-0.27c0-0.16,0.08-0.31,0.23-0.44c0.04-0.03,0.17-0.12,0.39-0.27c0.89-0.57,1.83-1.33,2.8-2.28
			c0.98-0.97,1.7-1.92,2.16-2.86c0.08-0.16,0.12-0.27,0.12-0.32c0-0.07-0.04-0.1-0.11-0.1c-0.05,0-0.13,0.01-0.25,0.03
			c-0.22,0.03-1.08,0.1-2.58,0.22c-0.26,0.02-0.48,0.04-0.67,0.05c-0.07,0.01-0.13,0.01-0.17,0.01c-0.3,0-0.5-0.11-0.61-0.33
			c-0.05-0.1-0.07-0.21-0.07-0.33c0-0.31,0.15-0.51,0.44-0.6c0.09-0.03,0.28-0.05,0.59-0.07c1.04-0.04,2.36-0.15,3.96-0.33
			c0.07-0.01,0.13-0.01,0.18-0.01c0.32,0,0.58,0.09,0.77,0.28c0.18,0.17,0.27,0.38,0.27,0.64c0,0.2-0.1,0.49-0.29,0.9
			c-0.38,0.79-0.94,1.64-1.68,2.55c1.22,0.76,2.17,1.47,2.85,2.14c0.31,0.3,0.46,0.58,0.46,0.83c0,0.19-0.07,0.36-0.22,0.51
			c-0.15,0.16-0.32,0.23-0.52,0.23c-0.2,0-0.37-0.07-0.52-0.22c-0.02-0.02-0.08-0.09-0.19-0.21
			C61.54,153.39,60.67,152.57,59.69,151.75z"/>
		<path d="M67.98,147.57l0.38-0.03c3.25-0.24,5-0.37,5.24-0.37c0.33,0,0.61,0.11,0.83,0.33c0.21,0.2,0.31,0.46,0.31,0.78
			c0,0.21-0.21,1.41-0.62,3.59l-0.06,0.28c0.25,0.1,0.38,0.33,0.38,0.67c0,0.33-0.17,0.53-0.5,0.6c-0.06,0.01-0.22,0.02-0.48,0.02
			c-1.92,0-3.48,0.05-4.67,0.16c-0.1,0.31-0.35,0.47-0.74,0.47c-0.28,0-0.48-0.14-0.58-0.43c-0.02-0.07-0.05-0.26-0.08-0.58
			c-0.07-0.67-0.26-2.02-0.55-4.07c-0.08-0.58-0.13-0.9-0.13-0.96c0-0.3,0.13-0.5,0.39-0.61c0.12-0.05,0.25-0.08,0.39-0.08
			C67.68,147.33,67.85,147.41,67.98,147.57z M72.75,152.12c0.18-1.05,0.34-2.14,0.5-3.27c0.01-0.07,0.02-0.12,0.02-0.16
			c0-0.13-0.07-0.19-0.22-0.19c-0.23,0-1.43,0.09-3.6,0.26c-0.41,0.03-0.81,0.07-1.22,0.09c0.15,1.33,0.29,2.48,0.43,3.47l0.36-0.02
			C70.62,152.22,71.86,152.15,72.75,152.12z"/>
		<path d="M80.8,147.77c0.23,0,0.48,0.09,0.76,0.27c0.13,0.08,0.34,0.24,0.64,0.48c2.18,1.78,3.68,2.98,4.51,3.6
			c0.25,0.18,0.37,0.41,0.37,0.67c0,0.22-0.08,0.41-0.24,0.57c-0.15,0.15-0.32,0.22-0.52,0.22c-0.19,0-0.37-0.07-0.54-0.2
			c-0.4-0.32-1.67-1.44-3.8-3.35c-0.49-0.44-0.76-0.67-0.8-0.7c-0.13-0.1-0.25-0.15-0.35-0.15c-0.11,0-0.28,0.12-0.5,0.38
			c-0.71,0.81-1.32,1.46-1.84,1.97c-0.18,0.17-0.37,0.26-0.56,0.26c-0.18,0-0.34-0.07-0.48-0.2c-0.17-0.16-0.26-0.34-0.26-0.52
			c0-0.16,0.06-0.31,0.19-0.43c0.02-0.02,0.09-0.09,0.23-0.19c0.48-0.4,1.16-1.05,2.04-1.98c0.23-0.23,0.4-0.39,0.51-0.47
			C80.37,147.84,80.59,147.77,80.8,147.77z M83.9,147.03c0.21,0,0.54,0.21,1,0.62c0.39,0.35,0.58,0.63,0.58,0.83
			c0,0.14-0.06,0.27-0.19,0.37c-0.1,0.08-0.21,0.12-0.34,0.12c-0.17,0-0.31-0.1-0.43-0.29c-0.21-0.34-0.47-0.68-0.79-1.01
			c-0.1-0.11-0.15-0.22-0.15-0.33C83.58,147.14,83.68,147.03,83.9,147.03z M85.21,146.23c0.22,0,0.54,0.18,0.96,0.53
			c0.39,0.32,0.58,0.6,0.58,0.83c0,0.16-0.06,0.28-0.18,0.38c-0.09,0.07-0.19,0.1-0.3,0.1c-0.16,0-0.3-0.09-0.42-0.28
			c-0.2-0.3-0.46-0.61-0.79-0.92c-0.12-0.11-0.18-0.22-0.18-0.33c0-0.07,0.03-0.14,0.09-0.21
			C85.03,146.26,85.11,146.23,85.21,146.23z"/>
		<path d="M97.61,151.45c0.21,0,0.38,0.05,0.5,0.14c0.17,0.13,0.25,0.31,0.25,0.54c0,0.31-0.13,0.52-0.38,0.63
			c-0.08,0.03-0.33,0.06-0.75,0.08c-2.44,0.12-5.03,0.3-7.77,0.54c-0.08,0.01-0.15,0.01-0.19,0.01c-0.44,0-0.65-0.23-0.65-0.7
			c0-0.33,0.16-0.54,0.47-0.64c0.07-0.02,0.33-0.04,0.79-0.08C94.54,151.62,97.12,151.45,97.61,151.45z M95.31,147.45
			c0.18,0,0.34,0.06,0.47,0.18c0.13,0.12,0.2,0.29,0.2,0.5c0,0.39-0.24,0.62-0.71,0.69c-0.56,0.08-1.31,0.17-2.23,0.24
			c-0.86,0.07-1.42,0.11-1.69,0.11c-0.23,0-0.4-0.07-0.53-0.2c-0.11-0.12-0.16-0.27-0.16-0.46c0-0.31,0.12-0.52,0.36-0.62
			c0.08-0.04,0.27-0.06,0.57-0.07c1.14-0.03,2.26-0.14,3.35-0.33C95.13,147.46,95.25,147.45,95.31,147.45z"/>
		<path d="M108.34,146.53c0.24,0,0.46,0.06,0.66,0.18c0.27,0.17,0.4,0.41,0.4,0.72c0,0.2-0.08,0.44-0.25,0.74
			c-0.47,0.82-1.06,1.53-1.76,2.15c-0.39,0.34-0.7,0.51-0.91,0.51c-0.15,0-0.28-0.07-0.38-0.2c-0.07-0.1-0.11-0.19-0.11-0.28
			c0-0.15,0.09-0.31,0.28-0.49c0.56-0.54,0.99-1.08,1.28-1.63c0.08-0.15,0.12-0.25,0.12-0.3c0-0.06-0.05-0.09-0.15-0.09
			c-0.09,0-0.21,0-0.35,0.02c-0.08,0.01-0.33,0.02-0.75,0.05c-0.31,0.02-1.66,0.13-4.02,0.33c-0.8,0.07-1.23,0.1-1.29,0.1
			c-0.47,0-0.7-0.22-0.7-0.65c0-0.37,0.19-0.59,0.56-0.66c0.04-0.01,1.36-0.1,3.94-0.28C107.14,146.6,108.29,146.53,108.34,146.53z
			 M104.77,148.82c0.19,0,0.36,0.06,0.51,0.18c0.09,0.07,0.15,0.15,0.18,0.24c0.04,0.11,0.06,0.3,0.06,0.57
			c0,0.99-0.07,1.76-0.22,2.33c-0.32,1.22-1.05,2.18-2.18,2.86c-0.18,0.11-0.34,0.16-0.48,0.16c-0.17,0-0.29-0.06-0.38-0.17
			c-0.08-0.1-0.12-0.21-0.12-0.33c0-0.14,0.05-0.27,0.16-0.4c0.04-0.06,0.16-0.17,0.36-0.33c0.7-0.57,1.13-1.33,1.31-2.31
			c0.08-0.48,0.13-1.09,0.13-1.82l-0.01-0.3c0-0.28,0.1-0.47,0.31-0.59C104.51,148.85,104.64,148.82,104.77,148.82z"/>
	</g>
</g>
<g id="ガイド" display="none">
</g>
</svg>
