<?xml version="1.0" encoding="utf-8"?>
<!-- Generator: Adobe Illustrator 25.4.1, SVG Export Plug-In . SVG Version: 6.00 Build 0)  -->
<svg version="1.1" xmlns="http://www.w3.org/2000/svg" xmlns:xlink="http://www.w3.org/1999/xlink" x="0px" y="0px"
	 viewBox="0 0 164.41 252.28" enable-background="new 0 0 164.41 252.28" xml:space="preserve">
<g id="地">
	<rect fill="#DCDDDD" width="164.41" height="252.28"/>
</g>
<g id="枠">
</g>
<g id="国旗">
	<g>
		<g>
			<rect x="25.51" y="60" fill="#F5CF21" width="113.39" height="75.59"/>
			<rect x="25.51" y="60" fill="#118749" width="37.8" height="75.59"/>
			<rect x="101.1" y="60" fill="#C8152A" width="37.8" height="75.59"/>
			<polygon fill="#118749" points="82.2,89.96 83.96,95.37 89.66,95.37 85.05,98.72 86.81,104.14 82.2,100.79 77.6,104.14 
				79.36,98.72 74.75,95.37 80.44,95.37 			"/>
		</g>
	</g>
</g>
<g id="国名">
	<g>
		<path d="M63.13,148.88c0-0.94-0.01-1.49-0.02-1.66c-0.01-0.29-0.02-0.51-0.02-0.66c0-0.44,0.24-0.66,0.71-0.66
			c0.39,0,0.62,0.17,0.68,0.5c0.01,0.05,0.03,0.54,0.05,1.47l0.01,0.5l0.01,0.18l0.28-0.07c2.1-0.52,3.22-0.79,3.36-0.84
			c0.11-0.03,0.21-0.04,0.3-0.04c0.26,0,0.49,0.08,0.68,0.24c0.2,0.16,0.29,0.37,0.29,0.61c0,0.35-0.34,0.96-1.03,1.8
			c-0.65,0.8-1.13,1.21-1.44,1.21c-0.14,0-0.26-0.05-0.35-0.16c-0.07-0.08-0.11-0.17-0.11-0.27c0-0.14,0.09-0.32,0.27-0.54
			c0.36-0.45,0.63-0.86,0.83-1.24c0.04-0.08,0.07-0.14,0.07-0.17c0-0.02-0.02-0.03-0.05-0.03c-0.06,0-1.02,0.24-2.87,0.73
			l-0.24,0.06v0.19l-0.01,2.4c0,0.27,0.07,0.46,0.2,0.58c0.12,0.11,0.34,0.17,0.66,0.17c1.1,0,1.99-0.05,2.67-0.14
			c0.1-0.01,0.18-0.02,0.23-0.02c0.28,0,0.46,0.13,0.56,0.39c0.04,0.1,0.06,0.21,0.06,0.33c0,0.36-0.19,0.58-0.58,0.65
			c-0.34,0.06-1.33,0.09-2.96,0.09c-0.65,0-1.14-0.09-1.48-0.26c-0.32-0.17-0.54-0.41-0.66-0.74c-0.08-0.2-0.12-0.5-0.12-0.88
			c0-0.47,0.01-1.2,0.02-2.2l0.01-0.21c-0.27,0.07-0.59,0.15-0.95,0.24c-0.52,0.13-0.84,0.2-0.95,0.2c-0.22,0-0.37-0.09-0.46-0.27
			c-0.07-0.13-0.1-0.26-0.1-0.39c0-0.28,0.14-0.48,0.43-0.59c0.04-0.01,0.48-0.12,1.32-0.32l0.54-0.13L63.13,148.88z"/>
		<path d="M75.84,151.82c-0.92,0.58-1.82,1.04-2.72,1.38c-0.35,0.14-0.6,0.21-0.74,0.21c-0.19,0-0.32-0.07-0.41-0.21
			c-0.06-0.1-0.09-0.19-0.09-0.29c0-0.2,0.09-0.35,0.27-0.47c0.06-0.04,0.19-0.1,0.38-0.19c0.92-0.4,1.82-0.91,2.73-1.54
			c0.87-0.61,1.57-1.21,2.11-1.83c0.13-0.15,0.19-0.24,0.19-0.29c0-0.04-0.03-0.06-0.1-0.06c-0.03,0-0.1,0.01-0.22,0.02
			c-0.35,0.05-1.43,0.16-3.22,0.34c-0.07,0.01-0.13,0.01-0.16,0.01c-0.17,0-0.31-0.05-0.43-0.14c-0.14-0.11-0.21-0.28-0.21-0.5
			c0-0.31,0.13-0.51,0.4-0.6c0.07-0.02,0.24-0.04,0.5-0.05c1.22-0.06,2.62-0.18,4.2-0.38c0.08-0.01,0.14-0.01,0.19-0.01
			c0.21,0,0.4,0.06,0.55,0.17c0.22,0.16,0.33,0.36,0.33,0.62c0,0.22-0.1,0.47-0.3,0.75c-0.53,0.73-1.22,1.46-2.07,2.18
			c0.1,0.11,0.15,0.23,0.15,0.36V155c0,0.38-0.23,0.57-0.68,0.57c-0.46,0-0.69-0.19-0.69-0.57V151.82z M75.36,145.25
			c0.35,0,0.82,0.17,1.41,0.5c0.22,0.12,0.39,0.24,0.53,0.35c0.17,0.15,0.26,0.33,0.26,0.53c0,0.17-0.07,0.33-0.22,0.48
			c-0.15,0.16-0.32,0.23-0.52,0.23c-0.19,0-0.38-0.1-0.57-0.3c-0.32-0.34-0.67-0.62-1.06-0.87c-0.22-0.14-0.33-0.3-0.33-0.49
			c0-0.1,0.04-0.19,0.11-0.27C75.08,145.31,75.21,145.25,75.36,145.25z M78.27,150.72c0.17,0,0.42,0.08,0.75,0.23
			c1.31,0.59,1.96,1.13,1.96,1.62c0,0.17-0.07,0.34-0.2,0.5c-0.13,0.16-0.3,0.24-0.51,0.24c-0.19,0-0.4-0.11-0.61-0.32
			c-0.43-0.42-0.97-0.86-1.61-1.31c-0.2-0.15-0.3-0.31-0.3-0.48c0-0.08,0.02-0.17,0.07-0.25C77.9,150.8,78.05,150.72,78.27,150.72z"
			/>
		<path d="M86.76,148.14c0.15-0.65,0.26-1.23,0.33-1.75c0.06-0.45,0.29-0.67,0.71-0.67c0.49,0,0.73,0.22,0.73,0.65
			c0,0.29-0.09,0.84-0.27,1.64c0.52-0.04,1.11-0.1,1.77-0.17c0.09-0.01,0.17-0.01,0.23-0.01c0.3,0,0.56,0.08,0.77,0.23
			c0.27,0.2,0.41,0.49,0.41,0.86c0,0.13-0.05,0.52-0.14,1.16c-0.28,1.85-0.65,3.24-1.11,4.16c-0.29,0.57-0.67,0.86-1.15,0.86
			c-0.25,0-0.52-0.1-0.8-0.29c-0.83-0.58-1.25-1.02-1.25-1.3c0-0.09,0.03-0.17,0.08-0.26c0.06-0.1,0.16-0.14,0.28-0.14
			c0.13,0,0.28,0.05,0.47,0.14c0.48,0.25,0.78,0.37,0.9,0.37c0.11,0,0.2-0.08,0.29-0.23c0.26-0.49,0.5-1.25,0.73-2.28
			c0.18-0.82,0.27-1.4,0.27-1.72c0-0.16-0.07-0.24-0.21-0.24c-0.24,0-0.87,0.05-1.89,0.15c-0.71,2.13-1.82,3.79-3.33,4.97
			c-0.33,0.26-0.58,0.39-0.75,0.39c-0.14,0-0.25-0.05-0.35-0.15c-0.12-0.13-0.18-0.25-0.18-0.38c0-0.14,0.06-0.27,0.19-0.41
			c0.03-0.03,0.15-0.15,0.38-0.35c0.92-0.84,1.67-1.91,2.25-3.2c0.09-0.21,0.19-0.47,0.3-0.77c-1.17,0.13-1.85,0.19-2.05,0.19
			c-0.45,0-0.68-0.22-0.68-0.67c0-0.41,0.28-0.62,0.85-0.64C85.02,148.26,85.77,148.21,86.76,148.14z M90.89,146.05
			c0.21,0,0.54,0.21,1,0.62c0.39,0.35,0.58,0.63,0.58,0.83c0,0.14-0.06,0.27-0.19,0.37c-0.1,0.08-0.21,0.12-0.34,0.12
			c-0.17,0-0.31-0.1-0.43-0.29c-0.21-0.35-0.48-0.69-0.79-1.01c-0.1-0.11-0.15-0.22-0.15-0.33
			C90.57,146.16,90.68,146.05,90.89,146.05z M91.88,145.15c0.22,0,0.54,0.18,0.96,0.53c0.39,0.33,0.58,0.6,0.58,0.83
			c0,0.16-0.06,0.29-0.18,0.38c-0.09,0.07-0.19,0.1-0.3,0.1c-0.16,0-0.3-0.09-0.42-0.28c-0.2-0.31-0.47-0.62-0.79-0.92
			c-0.12-0.11-0.18-0.23-0.18-0.33c0-0.07,0.03-0.14,0.09-0.21C91.69,145.18,91.77,145.15,91.88,145.15z"/>
		<path d="M97.01,147.24c0.47,0,0.7,0.27,0.7,0.8c0,1.92-0.36,3.46-1.07,4.63c-0.3,0.5-0.66,0.91-1.09,1.24
			c-0.15,0.12-0.31,0.18-0.49,0.18c-0.12,0-0.22-0.04-0.32-0.12c-0.11-0.1-0.16-0.21-0.16-0.35c0-0.16,0.07-0.32,0.22-0.49
			c0.6-0.69,1.01-1.51,1.22-2.46c0.17-0.74,0.26-1.64,0.26-2.7c0-0.22,0.05-0.38,0.15-0.49C96.58,147.32,96.77,147.24,97.01,147.24z
			 M100.2,146.83v5.65c0,0.14,0.03,0.22,0.1,0.22c0.14,0,0.49-0.2,1.07-0.6c0.82-0.56,1.5-1.13,2.03-1.72
			c0.18-0.21,0.36-0.31,0.52-0.31c0.13,0,0.26,0.05,0.39,0.16c0.13,0.1,0.19,0.24,0.19,0.42c0,0.15-0.06,0.31-0.18,0.48
			c-0.43,0.59-1.08,1.23-1.94,1.92c-0.68,0.54-1.33,0.95-1.94,1.26c-0.23,0.11-0.44,0.17-0.61,0.17c-0.2,0-0.39-0.07-0.59-0.21
			c-0.28-0.2-0.42-0.5-0.42-0.92v-6.51c0-0.24,0.1-0.42,0.32-0.54c0.11-0.06,0.23-0.09,0.37-0.09c0.2,0,0.37,0.06,0.51,0.17
			C100.13,146.49,100.2,146.64,100.2,146.83z"/>
	</g>
</g>
<g id="ガイド" display="none">
</g>
</svg>
