<?xml version="1.0" encoding="utf-8"?>
<!-- Generator: Adobe Illustrator 25.4.1, SVG Export Plug-In . SVG Version: 6.00 Build 0)  -->
<svg version="1.1" xmlns="http://www.w3.org/2000/svg" xmlns:xlink="http://www.w3.org/1999/xlink" x="0px" y="0px"
	 viewBox="0 0 164.41 252.28" enable-background="new 0 0 164.41 252.28" xml:space="preserve">
<g id="地">
	<rect fill="#DCDDDD" width="164.41" height="252.28"/>
</g>
<g id="枠">
</g>
<g id="国旗">
	<g>
		<g>
			<rect x="25.51" y="59.7" fill="#FFFFFF" width="113.39" height="75.59"/>
			<rect x="25.51" y="110.09" fill="#D0102A" width="113.39" height="25.2"/>
			<rect x="25.51" y="59.7" fill="#044F7F" width="113.39" height="25.2"/>
		</g>
	</g>
</g>
<g id="国名">
	<g>
		<path d="M23.45,148.88c0-0.94-0.01-1.49-0.02-1.66c-0.01-0.29-0.02-0.51-0.02-0.66c0-0.44,0.24-0.66,0.71-0.66
			c0.39,0,0.62,0.17,0.68,0.5c0.01,0.05,0.03,0.54,0.05,1.47l0.01,0.5l0.01,0.18l0.28-0.07c2.1-0.52,3.22-0.79,3.36-0.84
			c0.11-0.03,0.21-0.04,0.3-0.04c0.26,0,0.49,0.08,0.68,0.24c0.2,0.16,0.29,0.37,0.29,0.61c0,0.35-0.34,0.96-1.03,1.8
			c-0.65,0.8-1.13,1.21-1.44,1.21c-0.14,0-0.26-0.05-0.35-0.16c-0.07-0.08-0.11-0.17-0.11-0.27c0-0.14,0.09-0.32,0.27-0.54
			c0.36-0.45,0.63-0.86,0.83-1.24c0.04-0.08,0.07-0.14,0.07-0.17c0-0.02-0.02-0.03-0.05-0.03c-0.06,0-1.02,0.24-2.87,0.73
			l-0.24,0.06v0.19l-0.01,2.4c0,0.27,0.07,0.46,0.2,0.58c0.12,0.11,0.34,0.17,0.66,0.17c1.1,0,1.99-0.05,2.67-0.14
			c0.1-0.01,0.18-0.02,0.23-0.02c0.28,0,0.46,0.13,0.56,0.39c0.04,0.1,0.06,0.21,0.06,0.33c0,0.36-0.19,0.58-0.58,0.65
			c-0.34,0.06-1.33,0.09-2.96,0.09c-0.65,0-1.14-0.09-1.48-0.26c-0.32-0.17-0.54-0.41-0.66-0.74c-0.08-0.2-0.12-0.5-0.12-0.88
			c0-0.47,0.01-1.2,0.02-2.2l0.01-0.21c-0.27,0.07-0.59,0.15-0.95,0.24c-0.52,0.13-0.84,0.2-0.95,0.2c-0.22,0-0.37-0.09-0.46-0.27
			c-0.07-0.13-0.1-0.26-0.1-0.39c0-0.28,0.14-0.48,0.43-0.59c0.04-0.01,0.48-0.12,1.32-0.32l0.54-0.13L23.45,148.88z"/>
		<path d="M34.65,147.24c0.47,0,0.7,0.27,0.7,0.8c0,1.92-0.36,3.46-1.07,4.63c-0.3,0.5-0.66,0.91-1.09,1.24
			c-0.15,0.12-0.31,0.18-0.49,0.18c-0.12,0-0.22-0.04-0.32-0.12c-0.11-0.1-0.16-0.21-0.16-0.35c0-0.16,0.07-0.32,0.22-0.49
			c0.6-0.69,1.01-1.51,1.22-2.46c0.17-0.74,0.26-1.64,0.26-2.7c0-0.22,0.05-0.38,0.15-0.49C34.22,147.32,34.41,147.24,34.65,147.24z
			 M37.84,146.83v5.65c0,0.14,0.03,0.22,0.1,0.22c0.14,0,0.49-0.2,1.07-0.6c0.82-0.56,1.5-1.13,2.03-1.72
			c0.18-0.21,0.36-0.31,0.52-0.31c0.13,0,0.26,0.05,0.39,0.16c0.13,0.1,0.19,0.24,0.19,0.42c0,0.15-0.06,0.31-0.18,0.48
			c-0.43,0.59-1.08,1.23-1.94,1.92c-0.68,0.54-1.33,0.95-1.94,1.26c-0.23,0.11-0.44,0.17-0.61,0.17c-0.2,0-0.39-0.07-0.59-0.21
			c-0.28-0.2-0.42-0.5-0.42-0.92v-6.51c0-0.24,0.1-0.42,0.32-0.54c0.11-0.06,0.23-0.09,0.37-0.09c0.2,0,0.37,0.06,0.51,0.17
			C37.77,146.49,37.84,146.64,37.84,146.83z"/>
		<path d="M46.15,150.13v2.09c0,0.4,0.15,0.64,0.45,0.72c0.29,0.08,0.79,0.12,1.5,0.12c0.97,0,1.95-0.07,2.95-0.19
			c0.07-0.01,0.12-0.01,0.16-0.01c0.23,0,0.41,0.1,0.53,0.29c0.09,0.14,0.13,0.31,0.13,0.49c0,0.35-0.21,0.56-0.63,0.63
			c-0.53,0.08-1.61,0.12-3.23,0.12c-0.84,0-1.43-0.03-1.77-0.1c-0.61-0.12-1.03-0.39-1.26-0.79c-0.16-0.27-0.24-0.63-0.24-1.07
			v-5.82c0-0.4,0.23-0.6,0.7-0.6s0.7,0.2,0.7,0.6v2.28c1.74-0.27,3.12-0.51,4.15-0.73c0.13-0.03,0.24-0.04,0.33-0.04
			c0.3,0,0.51,0.12,0.62,0.35c0.05,0.11,0.08,0.24,0.08,0.37c0,0.35-0.2,0.57-0.6,0.64c-0.54,0.11-1.95,0.31-4.24,0.62L46.15,150.13
			z M50.98,146.2c0.21,0,0.54,0.21,1,0.62c0.39,0.35,0.58,0.63,0.58,0.83c0,0.15-0.06,0.28-0.19,0.38c-0.1,0.08-0.22,0.12-0.34,0.12
			c-0.17,0-0.31-0.1-0.43-0.29c-0.22-0.36-0.48-0.7-0.79-1.01c-0.1-0.11-0.15-0.22-0.15-0.33C50.66,146.31,50.76,146.2,50.98,146.2z
			 M51.96,145.31c0.22,0,0.54,0.17,0.96,0.53c0.39,0.33,0.58,0.6,0.58,0.83c0,0.16-0.06,0.29-0.18,0.38c-0.09,0.07-0.19,0.1-0.3,0.1
			c-0.15,0-0.3-0.09-0.42-0.28c-0.21-0.31-0.48-0.62-0.79-0.92c-0.12-0.11-0.18-0.22-0.18-0.33c0-0.07,0.03-0.14,0.09-0.21
			C51.78,145.34,51.86,145.31,51.96,145.31z"/>
		<path d="M62.98,146.53c0.24,0,0.46,0.06,0.66,0.18c0.27,0.17,0.4,0.41,0.4,0.72c0,0.2-0.08,0.44-0.25,0.74
			c-0.47,0.82-1.06,1.53-1.76,2.15c-0.4,0.34-0.7,0.51-0.91,0.51c-0.15,0-0.28-0.07-0.38-0.2c-0.07-0.1-0.11-0.19-0.11-0.28
			c0-0.15,0.09-0.31,0.28-0.49c0.56-0.54,0.99-1.08,1.28-1.63c0.08-0.15,0.12-0.25,0.12-0.3c0-0.06-0.05-0.09-0.15-0.09
			c-0.09,0-0.21,0-0.35,0.02c-0.08,0.01-0.33,0.02-0.75,0.05c-0.31,0.02-1.66,0.13-4.02,0.33c-0.8,0.07-1.23,0.1-1.29,0.1
			c-0.47,0-0.7-0.22-0.7-0.65c0-0.37,0.19-0.59,0.56-0.66c0.04-0.01,1.36-0.1,3.94-0.28C61.79,146.6,62.93,146.53,62.98,146.53z
			 M59.42,148.82c0.19,0,0.36,0.06,0.51,0.18c0.09,0.07,0.15,0.15,0.18,0.24c0.04,0.11,0.06,0.3,0.06,0.57
			c0,0.99-0.07,1.76-0.22,2.33c-0.32,1.22-1.05,2.18-2.18,2.86c-0.18,0.11-0.34,0.16-0.48,0.16c-0.17,0-0.29-0.06-0.38-0.17
			c-0.08-0.1-0.12-0.21-0.12-0.33c0-0.14,0.05-0.27,0.16-0.4c0.04-0.06,0.16-0.17,0.36-0.33c0.7-0.57,1.13-1.33,1.31-2.31
			c0.08-0.48,0.13-1.09,0.13-1.82l-0.01-0.3c0-0.28,0.1-0.47,0.31-0.59C59.16,148.85,59.28,148.82,59.42,148.82z"/>
		<path d="M67.47,148.62h6.79c0.13,0,0.23,0.04,0.31,0.11c0.13,0.11,0.19,0.26,0.19,0.45c0,0.23-0.08,0.39-0.24,0.49
			c-0.07,0.05-0.16,0.07-0.25,0.07h-6.79c-0.12,0-0.23-0.04-0.32-0.12c-0.11-0.11-0.17-0.25-0.17-0.44c0-0.22,0.08-0.39,0.24-0.49
			C67.29,148.65,67.37,148.62,67.47,148.62z M67.47,151.19h6.79c0.12,0,0.23,0.04,0.31,0.11c0.13,0.11,0.19,0.26,0.19,0.45
			c0,0.22-0.08,0.39-0.24,0.49c-0.07,0.04-0.16,0.07-0.25,0.07h-6.79c-0.12,0-0.22-0.03-0.3-0.1c-0.12-0.11-0.18-0.26-0.18-0.45
			c0-0.22,0.08-0.38,0.23-0.49C67.28,151.21,67.37,151.19,67.47,151.19z"/>
		<path d="M81.06,148.02l-0.12,0.01c-0.89,0.05-1.39,0.07-1.49,0.07c-0.45,0-0.68-0.22-0.68-0.67c0-0.28,0.14-0.47,0.41-0.56
			c0.08-0.03,0.26-0.05,0.54-0.05c0.67-0.02,1.62-0.1,2.85-0.24c0.49-0.06,0.87-0.11,1.13-0.15c0.11-0.02,0.19-0.03,0.26-0.03
			c0.4,0,0.6,0.21,0.6,0.64c0,0.34-0.18,0.56-0.55,0.64c-0.44,0.1-1.15,0.19-2.15,0.27c0.17,0.07,0.29,0.17,0.35,0.3
			c0.04,0.07,0.05,0.24,0.05,0.5c0,0.19,0,0.48,0.01,0.87c2.34-0.17,3.66-0.25,3.97-0.25c0.24,0,0.42,0.09,0.54,0.27
			c0.08,0.11,0.12,0.24,0.12,0.4c0,0.33-0.15,0.54-0.44,0.62c-0.06,0.01-0.21,0.03-0.44,0.03c-0.81,0.02-2.06,0.09-3.75,0.22
			c0.01,0.49,0.01,0.99,0.01,1.49c0,0.24,0.03,0.4,0.07,0.5c0.08,0.17,0.3,0.26,0.64,0.26c0.73,0,1.4-0.05,2.01-0.14
			c0.08-0.01,0.15-0.02,0.19-0.02c0.27,0,0.47,0.12,0.59,0.37c0.05,0.11,0.08,0.23,0.08,0.37c0,0.3-0.14,0.5-0.42,0.61
			c-0.23,0.1-1.06,0.14-2.47,0.14c-1.06,0-1.72-0.32-1.98-0.95c-0.08-0.21-0.13-0.45-0.13-0.72c0-0.05,0-0.45-0.01-1.2
			c0-0.12,0-0.33-0.01-0.6l-0.2,0.02c-1.4,0.12-2.22,0.19-2.46,0.22c-0.07,0.01-0.12,0.01-0.15,0.01c-0.42,0-0.63-0.23-0.63-0.68
			c0-0.35,0.17-0.56,0.5-0.63c0.04-0.01,0.74-0.07,2.1-0.17l0.63-0.04l0.22-0.02v-0.1l-0.02-0.97c0-0.28,0.05-0.48,0.14-0.58
			C81,148.07,81.02,148.05,81.06,148.02z"/>
		<path d="M90.42,146.82c0.15,0,0.41,0.07,0.78,0.2c0.69,0.24,1.26,0.53,1.71,0.86c0.24,0.17,0.35,0.39,0.35,0.65
			c0,0.14-0.05,0.29-0.14,0.43c-0.14,0.21-0.33,0.32-0.56,0.32c-0.2,0-0.43-0.09-0.67-0.28c-0.62-0.49-1.18-0.88-1.68-1.16
			c-0.25-0.14-0.38-0.31-0.38-0.51C89.83,146.99,90.02,146.82,90.42,146.82z M97.54,148.59c0.13,0,0.25,0.04,0.36,0.13
			c0.15,0.11,0.23,0.26,0.23,0.45c0,0.15-0.06,0.32-0.18,0.5c-0.85,1.27-1.97,2.37-3.36,3.3c-1.16,0.77-2.35,1.32-3.59,1.66
			c-0.13,0.03-0.24,0.05-0.34,0.05c-0.31,0-0.54-0.14-0.67-0.43c-0.06-0.13-0.09-0.25-0.09-0.37c0-0.27,0.13-0.47,0.4-0.6
			c0.06-0.03,0.3-0.1,0.74-0.23c1.59-0.47,3.06-1.3,4.43-2.51c0.52-0.47,1.02-1,1.48-1.59C97.13,148.7,97.33,148.59,97.54,148.59z"
			/>
		<path d="M104.43,150.47c-1.07,0.06-2.23,0.14-3.47,0.24c-0.1,0.01-0.16,0.01-0.19,0.01c-0.27,0-0.46-0.11-0.56-0.32
			c-0.05-0.1-0.08-0.22-0.08-0.36c0-0.37,0.2-0.57,0.59-0.61c0.51-0.06,2.85-0.2,7.04-0.42c0.78-0.04,1.18-0.06,1.21-0.06
			c0.21,0,0.38,0.06,0.5,0.19c0.11,0.12,0.17,0.27,0.17,0.46c0,0.33-0.13,0.54-0.38,0.63c-0.08,0.03-0.24,0.04-0.47,0.05
			c-0.51,0.01-1.37,0.05-2.58,0.1l-0.27,0c-0.06,1.75-0.59,3.08-1.59,3.99c-0.58,0.53-1.03,0.79-1.36,0.79
			c-0.16,0-0.29-0.06-0.39-0.19c-0.09-0.12-0.13-0.24-0.13-0.35c0-0.14,0.06-0.27,0.17-0.38c0.04-0.04,0.15-0.13,0.35-0.28
			c0.61-0.46,1.03-1.11,1.26-1.95C104.33,151.59,104.4,151.08,104.43,150.47z M106.87,146.13c0.2,0,0.36,0.06,0.48,0.18
			c0.12,0.11,0.18,0.26,0.18,0.44c0,0.36-0.17,0.58-0.5,0.66c-0.19,0.05-0.69,0.11-1.49,0.17c-1.09,0.09-2.02,0.14-2.77,0.14
			c-0.54,0-0.81-0.22-0.81-0.66c0-0.29,0.13-0.49,0.4-0.58c0.09-0.03,0.29-0.05,0.6-0.05c1,0,2.08-0.07,3.24-0.21
			c0.11-0.01,0.25-0.03,0.4-0.05C106.72,146.14,106.81,146.13,106.87,146.13z"/>
		<path d="M115.53,151.82c-0.92,0.58-1.82,1.04-2.72,1.38c-0.35,0.14-0.6,0.21-0.74,0.21c-0.19,0-0.33-0.07-0.41-0.21
			c-0.06-0.1-0.09-0.19-0.09-0.29c0-0.2,0.09-0.35,0.27-0.47c0.06-0.04,0.19-0.1,0.38-0.19c0.92-0.4,1.83-0.91,2.73-1.54
			c0.87-0.61,1.57-1.21,2.11-1.83c0.13-0.15,0.19-0.24,0.19-0.29c0-0.04-0.03-0.06-0.1-0.06c-0.03,0-0.1,0.01-0.22,0.02
			c-0.35,0.05-1.43,0.16-3.22,0.34c-0.07,0.01-0.13,0.01-0.16,0.01c-0.17,0-0.31-0.05-0.43-0.14c-0.14-0.11-0.21-0.28-0.21-0.5
			c0-0.31,0.13-0.51,0.4-0.6c0.07-0.02,0.24-0.04,0.5-0.05c1.22-0.06,2.62-0.18,4.2-0.38c0.08-0.01,0.14-0.01,0.19-0.01
			c0.21,0,0.4,0.06,0.55,0.17c0.22,0.16,0.33,0.36,0.33,0.62c0,0.22-0.1,0.47-0.3,0.75c-0.53,0.73-1.22,1.46-2.07,2.18
			c0.1,0.11,0.15,0.23,0.15,0.36V155c0,0.38-0.22,0.57-0.67,0.57c-0.46,0-0.69-0.19-0.69-0.57V151.82z M115.04,145.25
			c0.35,0,0.82,0.17,1.41,0.5c0.22,0.12,0.39,0.24,0.53,0.35c0.17,0.15,0.26,0.33,0.26,0.53c0,0.17-0.07,0.33-0.22,0.48
			c-0.15,0.16-0.32,0.23-0.52,0.23c-0.19,0-0.38-0.1-0.57-0.3c-0.32-0.34-0.67-0.62-1.06-0.87c-0.22-0.14-0.33-0.3-0.33-0.49
			c0-0.1,0.04-0.19,0.11-0.27C114.77,145.31,114.89,145.25,115.04,145.25z M117.95,150.72c0.17,0,0.42,0.08,0.75,0.23
			c1.31,0.59,1.96,1.13,1.96,1.62c0,0.17-0.07,0.34-0.2,0.5c-0.13,0.16-0.3,0.24-0.51,0.24c-0.19,0-0.4-0.11-0.61-0.32
			c-0.43-0.42-0.97-0.86-1.61-1.31c-0.2-0.15-0.3-0.31-0.3-0.48c0-0.08,0.02-0.17,0.07-0.25
			C117.59,150.8,117.74,150.72,117.95,150.72z"/>
		<path d="M127.61,146.82l1.97-0.08c0.74-0.03,1.11,0.27,1.11,0.89c0,0.37-0.15,0.92-0.44,1.64c-0.77,1.92-2.04,3.52-3.81,4.78
			c-0.55,0.39-1.09,0.71-1.62,0.95c-0.2,0.09-0.37,0.14-0.5,0.14c-0.18,0-0.32-0.08-0.43-0.23c-0.07-0.1-0.1-0.2-0.1-0.3
			c0-0.15,0.08-0.29,0.25-0.42c0.05-0.03,0.19-0.12,0.44-0.27c0.84-0.48,1.65-1.13,2.42-1.94c0.93-0.97,1.6-2.06,2.03-3.28
			c0.11-0.32,0.17-0.51,0.17-0.56c0-0.11-0.06-0.15-0.18-0.14h-0.02l-1.87,0.11c-0.69,0.93-1.5,1.72-2.43,2.37
			c-0.2,0.14-0.38,0.2-0.54,0.2c-0.14,0-0.25-0.05-0.34-0.15c-0.08-0.1-0.12-0.2-0.12-0.31c0-0.15,0.06-0.29,0.18-0.42
			c0.04-0.04,0.15-0.14,0.32-0.3c0.55-0.48,1.08-1.12,1.59-1.92c0.19-0.3,0.35-0.58,0.47-0.84c0.15-0.31,0.38-0.47,0.69-0.47
			c0.13,0,0.24,0.02,0.35,0.07C127.43,146.44,127.56,146.6,127.61,146.82z M130.64,145.73c0.21,0,0.54,0.21,1,0.62
			c0.39,0.35,0.58,0.63,0.58,0.83c0,0.15-0.06,0.27-0.19,0.38c-0.1,0.08-0.21,0.12-0.33,0.12c-0.17,0-0.31-0.1-0.43-0.29
			c-0.23-0.37-0.49-0.7-0.79-1.01c-0.1-0.11-0.16-0.22-0.16-0.33C130.33,145.83,130.43,145.73,130.64,145.73z M131.63,144.84
			c0.22,0,0.54,0.18,0.96,0.53c0.39,0.33,0.58,0.6,0.58,0.83c0,0.16-0.06,0.28-0.18,0.38c-0.09,0.07-0.19,0.1-0.3,0.1
			c-0.16,0-0.3-0.09-0.42-0.28c-0.2-0.3-0.47-0.61-0.79-0.92c-0.12-0.12-0.18-0.23-0.18-0.33c0-0.07,0.03-0.14,0.09-0.2
			C131.44,144.87,131.52,144.84,131.63,144.84z"/>
		<path d="M136.01,147.57l0.38-0.03c3.25-0.24,5-0.37,5.24-0.37c0.33,0,0.61,0.11,0.83,0.33c0.21,0.2,0.31,0.46,0.31,0.78
			c0,0.21-0.21,1.41-0.62,3.59l-0.05,0.28c0.25,0.1,0.38,0.33,0.38,0.67c0,0.33-0.17,0.53-0.5,0.6c-0.06,0.01-0.22,0.02-0.48,0.02
			c-1.92,0-3.48,0.05-4.67,0.16c-0.1,0.31-0.34,0.47-0.74,0.47c-0.28,0-0.48-0.14-0.58-0.43c-0.02-0.07-0.05-0.26-0.08-0.58
			c-0.07-0.67-0.26-2.02-0.55-4.07c-0.08-0.58-0.13-0.9-0.13-0.96c0-0.3,0.13-0.5,0.39-0.61c0.12-0.05,0.25-0.08,0.39-0.08
			C135.71,147.33,135.88,147.41,136.01,147.57z M140.78,152.12c0.18-1.05,0.34-2.14,0.5-3.27c0.01-0.07,0.02-0.12,0.02-0.16
			c0-0.13-0.07-0.19-0.22-0.19c-0.23,0-1.43,0.09-3.6,0.26c-0.41,0.03-0.81,0.07-1.22,0.09c0.15,1.33,0.29,2.48,0.43,3.47l0.36-0.02
			C138.65,152.22,139.89,152.15,140.78,152.12z"/>
	</g>
</g>
<g id="ガイド" display="none">
</g>
</svg>
