<?xml version="1.0" encoding="utf-8"?>
<!-- Generator: Adobe Illustrator 25.4.1, SVG Export Plug-In . SVG Version: 6.00 Build 0)  -->
<svg version="1.1" xmlns="http://www.w3.org/2000/svg" xmlns:xlink="http://www.w3.org/1999/xlink" x="0px" y="0px"
	 viewBox="0 0 164.41 252.28" enable-background="new 0 0 164.41 252.28" xml:space="preserve">
<g id="地">
	<rect fill="#DCDDDD" width="164.41" height="252.28"/>
</g>
<g id="枠">
</g>
<g id="国旗">
	<g>
		<g>
			<rect x="25.51" y="60" fill="#F5CF21" width="113.39" height="75.59"/>
			<polygon fill="#147F49" points="113.78,60 25.51,119.15 25.51,60 			"/>
			<polygon fill="#C8152A" points="50.63,135.59 138.9,76.44 138.9,135.59 			"/>
			<polygon fill="#040000" points="138.9,71.86 44.09,135.59 25.51,135.59 25.51,123.73 120.32,60 138.9,60 			"/>
			<polygon fill="#FFFFFF" points="59.73,123.58 57.59,116.98 50.65,116.98 56.26,112.9 54.12,106.3 59.73,110.38 65.35,106.3 
				63.2,112.9 68.82,116.98 61.88,116.98 			"/>
			<polygon fill="#FFFFFF" points="105.14,93.38 103,86.78 96.06,86.78 101.67,82.7 99.53,76.1 105.14,80.18 110.75,76.1 
				108.61,82.7 114.22,86.78 107.28,86.78 			"/>
		</g>
	</g>
</g>
<g id="国名">
	<g>
		<path d="M23.45,148.88c0-0.94-0.01-1.49-0.02-1.66c-0.01-0.29-0.02-0.51-0.02-0.66c0-0.44,0.24-0.66,0.71-0.66
			c0.39,0,0.62,0.17,0.68,0.5c0.01,0.05,0.03,0.54,0.05,1.47l0.01,0.5l0.01,0.18l0.28-0.07c2.1-0.52,3.22-0.79,3.36-0.84
			c0.11-0.03,0.21-0.04,0.3-0.04c0.26,0,0.49,0.08,0.68,0.24c0.2,0.16,0.29,0.37,0.29,0.61c0,0.35-0.34,0.96-1.03,1.8
			c-0.65,0.8-1.13,1.21-1.44,1.21c-0.14,0-0.26-0.05-0.35-0.16c-0.07-0.08-0.11-0.17-0.11-0.27c0-0.14,0.09-0.32,0.27-0.54
			c0.36-0.45,0.63-0.86,0.83-1.24c0.04-0.08,0.07-0.14,0.07-0.17c0-0.02-0.02-0.03-0.05-0.03c-0.06,0-1.02,0.24-2.87,0.73
			l-0.24,0.06v0.19l-0.01,2.4c0,0.27,0.07,0.46,0.2,0.58c0.12,0.11,0.34,0.17,0.66,0.17c1.1,0,1.99-0.05,2.67-0.14
			c0.1-0.01,0.18-0.02,0.23-0.02c0.28,0,0.46,0.13,0.56,0.39c0.04,0.1,0.06,0.21,0.06,0.33c0,0.36-0.19,0.58-0.58,0.65
			c-0.34,0.06-1.33,0.09-2.96,0.09c-0.65,0-1.14-0.09-1.48-0.26c-0.32-0.17-0.54-0.41-0.66-0.74c-0.08-0.2-0.12-0.5-0.12-0.88
			c0-0.47,0.01-1.2,0.02-2.2l0.01-0.21c-0.27,0.07-0.59,0.15-0.95,0.24c-0.52,0.13-0.84,0.2-0.95,0.2c-0.22,0-0.37-0.09-0.46-0.27
			c-0.07-0.13-0.1-0.26-0.1-0.39c0-0.28,0.14-0.48,0.43-0.59c0.04-0.01,0.48-0.12,1.32-0.32l0.54-0.13L23.45,148.88z"/>
		<path d="M33.73,146.82c0.15,0,0.41,0.07,0.78,0.2c0.69,0.24,1.26,0.53,1.71,0.86c0.24,0.17,0.35,0.39,0.35,0.65
			c0,0.14-0.05,0.29-0.14,0.43c-0.14,0.21-0.33,0.32-0.56,0.32c-0.2,0-0.43-0.09-0.67-0.28c-0.62-0.49-1.18-0.88-1.68-1.16
			c-0.25-0.14-0.38-0.31-0.38-0.51C33.14,146.99,33.33,146.82,33.73,146.82z M40.85,148.59c0.13,0,0.25,0.04,0.36,0.13
			c0.15,0.11,0.23,0.26,0.23,0.45c0,0.15-0.06,0.32-0.18,0.5c-0.85,1.27-1.97,2.37-3.36,3.3c-1.16,0.77-2.35,1.32-3.59,1.66
			c-0.13,0.03-0.24,0.05-0.34,0.05c-0.31,0-0.54-0.14-0.67-0.43c-0.06-0.13-0.09-0.25-0.09-0.37c0-0.27,0.13-0.47,0.4-0.6
			c0.06-0.03,0.3-0.1,0.74-0.23c1.59-0.47,3.06-1.3,4.43-2.51c0.52-0.47,1.02-1,1.48-1.59C40.44,148.7,40.64,148.59,40.85,148.59z"
			/>
		<path d="M48.03,150.28v4.34c0,0.21-0.07,0.37-0.2,0.48c-0.13,0.11-0.29,0.16-0.5,0.16c-0.47,0-0.71-0.21-0.71-0.64v-8.28
			c0-0.42,0.24-0.63,0.71-0.63c0.31,0,0.52,0.11,0.63,0.32c0.05,0.09,0.07,0.2,0.07,0.32v2.72c1.32,0.34,2.34,0.76,3.07,1.24
			c0.32,0.21,0.48,0.46,0.48,0.76c0,0.2-0.07,0.36-0.2,0.5c-0.14,0.15-0.31,0.23-0.52,0.23c-0.18,0-0.4-0.09-0.66-0.27
			C49.59,151.1,48.86,150.69,48.03,150.28z"/>
		<path d="M59.98,146.59l2-0.08c0.73-0.03,1.1,0.27,1.1,0.9c0,0.38-0.15,0.95-0.45,1.71c-0.8,2.04-2.16,3.7-4.08,4.99
			c-0.9,0.61-1.53,0.91-1.87,0.91c-0.18,0-0.32-0.08-0.43-0.23c-0.07-0.1-0.1-0.2-0.1-0.3c0-0.15,0.08-0.29,0.25-0.42
			c0.05-0.04,0.19-0.13,0.44-0.27c0.83-0.48,1.62-1.11,2.39-1.91c0.96-1,1.65-2.11,2.06-3.31c0.13-0.38,0.2-0.62,0.2-0.7
			c0-0.09-0.06-0.13-0.17-0.12h-0.03l-1.9,0.11c-0.69,0.93-1.5,1.72-2.43,2.37c-0.2,0.14-0.38,0.21-0.54,0.21
			c-0.14,0-0.25-0.05-0.34-0.16c-0.08-0.1-0.12-0.2-0.12-0.31c0-0.15,0.06-0.29,0.18-0.42c0.04-0.04,0.15-0.14,0.32-0.29
			c0.55-0.48,1.08-1.13,1.59-1.93c0.19-0.3,0.35-0.58,0.47-0.84c0.15-0.31,0.38-0.47,0.69-0.47c0.13,0,0.24,0.02,0.35,0.07
			C59.8,146.21,59.93,146.37,59.98,146.59z"/>
		<path d="M69.49,146.75v3.86c0,0.2-0.06,0.35-0.19,0.46c-0.13,0.11-0.3,0.17-0.53,0.17c-0.31,0-0.52-0.11-0.63-0.32
			c-0.05-0.09-0.07-0.2-0.07-0.32v-3.86c0-0.26,0.1-0.44,0.31-0.55c0.12-0.06,0.25-0.09,0.39-0.09c0.24,0,0.43,0.07,0.56,0.21
			C69.44,146.43,69.49,146.57,69.49,146.75z M73.47,146.25v3.41c0,1.12-0.13,2.07-0.4,2.85c-0.35,1.01-1,1.85-1.95,2.54
			c-0.18,0.13-0.36,0.19-0.53,0.19c-0.16,0-0.27-0.05-0.35-0.14c-0.08-0.1-0.12-0.2-0.12-0.32c0-0.16,0.08-0.33,0.25-0.5
			c0.44-0.45,0.74-0.82,0.91-1.08c0.37-0.59,0.6-1.29,0.7-2.12c0.05-0.4,0.08-0.87,0.08-1.39v-3.42c0-0.38,0.23-0.58,0.7-0.58
			C73.23,145.68,73.47,145.87,73.47,146.25z"/>
		<path d="M82.36,151.75c-1.04,1.06-2.12,1.91-3.23,2.56c-0.46,0.27-0.78,0.4-0.94,0.4c-0.2,0-0.35-0.09-0.45-0.27
			c-0.06-0.1-0.09-0.19-0.09-0.27c0-0.16,0.08-0.31,0.23-0.44c0.04-0.03,0.17-0.12,0.39-0.27c0.89-0.57,1.83-1.33,2.8-2.28
			c0.98-0.97,1.7-1.92,2.16-2.86c0.08-0.16,0.12-0.27,0.12-0.32c0-0.07-0.04-0.1-0.11-0.1c-0.05,0-0.13,0.01-0.25,0.03
			c-0.22,0.03-1.08,0.1-2.58,0.22c-0.26,0.02-0.48,0.04-0.67,0.05c-0.07,0.01-0.13,0.01-0.17,0.01c-0.3,0-0.5-0.11-0.61-0.33
			c-0.05-0.1-0.07-0.21-0.07-0.33c0-0.31,0.15-0.51,0.44-0.6c0.09-0.03,0.28-0.05,0.59-0.07c1.04-0.04,2.36-0.15,3.96-0.33
			c0.07-0.01,0.13-0.01,0.18-0.01c0.32,0,0.58,0.09,0.77,0.28c0.18,0.17,0.27,0.38,0.27,0.64c0,0.2-0.1,0.49-0.29,0.9
			c-0.38,0.79-0.94,1.64-1.68,2.55c1.22,0.76,2.17,1.47,2.85,2.14c0.31,0.3,0.46,0.58,0.46,0.83c0,0.19-0.07,0.36-0.22,0.51
			c-0.15,0.16-0.32,0.23-0.52,0.23c-0.2,0-0.37-0.07-0.52-0.22c-0.02-0.02-0.08-0.09-0.19-0.21
			C84.22,153.39,83.35,152.57,82.36,151.75z"/>
		<path d="M93.38,150.28v4.34c0,0.21-0.07,0.37-0.2,0.48c-0.13,0.11-0.29,0.16-0.5,0.16c-0.47,0-0.71-0.21-0.71-0.64v-8.28
			c0-0.42,0.24-0.63,0.71-0.63c0.31,0,0.52,0.11,0.63,0.32c0.05,0.09,0.07,0.2,0.07,0.32v2.72c1.32,0.34,2.34,0.76,3.07,1.24
			c0.32,0.21,0.48,0.46,0.48,0.76c0,0.2-0.07,0.36-0.2,0.5c-0.14,0.15-0.31,0.23-0.52,0.23c-0.18,0-0.4-0.09-0.66-0.27
			C94.94,151.1,94.22,150.69,93.38,150.28z"/>
		<path d="M107.54,146.76c0.35,0,0.64,0.11,0.86,0.33c0.19,0.19,0.29,0.44,0.29,0.74c0,0.21-0.06,0.54-0.17,0.99
			c-0.11,0.45-0.23,0.85-0.37,1.2c-0.7,1.79-1.85,3.18-3.46,4.16c-0.64,0.39-1.1,0.59-1.38,0.59c-0.18,0-0.32-0.07-0.41-0.22
			c-0.07-0.11-0.1-0.21-0.1-0.32c0-0.2,0.13-0.38,0.38-0.52c1.08-0.62,1.97-1.43,2.65-2.42c0.61-0.87,1.03-1.82,1.26-2.85
			c0.02-0.08,0.03-0.14,0.03-0.19c0-0.09-0.05-0.13-0.16-0.13c-0.08,0-0.18,0.01-0.3,0.02c-0.21,0.02-1.16,0.08-2.86,0.2
			c-0.63,0.04-1.32,0.1-2.06,0.16c-0.07,0.01-0.13,0.01-0.16,0.01c-0.46,0-0.69-0.24-0.69-0.71c0-0.36,0.17-0.57,0.51-0.64
			c0.16-0.03,1.81-0.14,4.96-0.33c0.31-0.02,0.56-0.04,0.73-0.05C107.32,146.77,107.47,146.76,107.54,146.76z"/>
		<path d="M118.88,148.13c0.21,0,0.39,0.05,0.56,0.15c0.24,0.15,0.35,0.37,0.35,0.65c0,0.17-0.07,0.38-0.21,0.62
			c-0.45,0.79-1.01,1.44-1.68,1.94c-0.17,0.13-0.32,0.19-0.46,0.19c-0.15,0-0.28-0.06-0.38-0.19c-0.06-0.08-0.09-0.16-0.09-0.24
			c0-0.14,0.11-0.32,0.34-0.54c0.32-0.31,0.62-0.71,0.9-1.18c0.04-0.06,0.06-0.11,0.06-0.14c0-0.04-0.03-0.06-0.11-0.06
			c-0.04,0-0.16,0.01-0.35,0.03c-0.24,0.03-1.43,0.13-3.57,0.3c-0.71,0.06-1.08,0.09-1.1,0.09c-0.39,0-0.59-0.21-0.59-0.63
			c0-0.27,0.14-0.44,0.41-0.53c0.07-0.02,0.25-0.03,0.55-0.05c1.08-0.05,2.7-0.17,4.87-0.37
			C118.65,148.14,118.81,148.13,118.88,148.13z M116.09,149.97c0.17,0,0.32,0.05,0.45,0.16c0.08,0.08,0.14,0.17,0.17,0.29
			c0.01,0.04,0.02,0.15,0.02,0.33c0,0.89-0.08,1.6-0.24,2.13c-0.28,0.9-0.81,1.59-1.61,2.07c-0.19,0.12-0.35,0.18-0.49,0.18
			c-0.15,0-0.26-0.05-0.34-0.14c-0.07-0.09-0.11-0.18-0.11-0.29c0-0.18,0.11-0.35,0.34-0.53c0.55-0.43,0.91-1,1.08-1.73
			c0.11-0.45,0.16-1,0.14-1.63c0-0.21,0.01-0.37,0.05-0.48c0.03-0.11,0.1-0.19,0.2-0.25C115.84,150.01,115.96,149.97,116.09,149.97z
			"/>
		<path d="M130.99,149.33c0.23,0,0.42,0.07,0.55,0.22c0.11,0.12,0.17,0.28,0.17,0.48c0,0.37-0.17,0.59-0.53,0.66
			c-0.09,0.02-1.34,0.08-3.74,0.19c-1.1,0.05-2.27,0.11-3.5,0.17c-0.04,0-0.09,0-0.13,0c-0.21,0-0.38-0.06-0.52-0.18
			c-0.14-0.13-0.22-0.3-0.22-0.51c0-0.3,0.13-0.51,0.4-0.63c0.11-0.04,0.37-0.07,0.79-0.09c0.37-0.01,1.29-0.05,2.77-0.13
			c0.63-0.03,1.5-0.07,2.59-0.12c0.37-0.01,0.66-0.03,0.88-0.04C130.78,149.33,130.94,149.33,130.99,149.33z"/>
		<path d="M135.5,148.62h6.79c0.12,0,0.23,0.04,0.31,0.11c0.13,0.11,0.19,0.26,0.19,0.45c0,0.23-0.08,0.39-0.24,0.49
			c-0.07,0.05-0.16,0.07-0.25,0.07h-6.79c-0.12,0-0.23-0.04-0.32-0.12c-0.11-0.11-0.17-0.25-0.17-0.44c0-0.22,0.08-0.39,0.24-0.49
			C135.32,148.65,135.4,148.62,135.5,148.62z M135.5,151.19h6.79c0.12,0,0.22,0.04,0.31,0.11c0.13,0.11,0.19,0.26,0.19,0.45
			c0,0.22-0.08,0.39-0.24,0.49c-0.07,0.04-0.15,0.07-0.25,0.07h-6.79c-0.12,0-0.22-0.03-0.3-0.1c-0.12-0.11-0.18-0.26-0.18-0.45
			c0-0.22,0.08-0.38,0.23-0.49C135.32,151.21,135.4,151.19,135.5,151.19z"/>
		<path d="M64.5,171.67c-0.92,0.58-1.82,1.04-2.72,1.38c-0.35,0.14-0.6,0.21-0.74,0.21c-0.19,0-0.32-0.07-0.41-0.21
			c-0.06-0.1-0.09-0.19-0.09-0.29c0-0.2,0.09-0.35,0.27-0.47c0.06-0.04,0.19-0.1,0.38-0.19c0.92-0.4,1.82-0.91,2.73-1.54
			c0.87-0.61,1.57-1.21,2.11-1.83c0.13-0.15,0.19-0.24,0.19-0.29c0-0.04-0.03-0.06-0.1-0.06c-0.03,0-0.1,0.01-0.22,0.02
			c-0.35,0.05-1.43,0.16-3.22,0.34c-0.07,0.01-0.13,0.01-0.16,0.01c-0.17,0-0.31-0.05-0.43-0.14c-0.14-0.11-0.21-0.28-0.21-0.5
			c0-0.31,0.13-0.51,0.4-0.6c0.07-0.02,0.24-0.04,0.5-0.05c1.22-0.06,2.62-0.18,4.2-0.38c0.08-0.01,0.14-0.01,0.19-0.01
			c0.21,0,0.4,0.06,0.55,0.17c0.22,0.16,0.33,0.36,0.33,0.62c0,0.22-0.1,0.47-0.3,0.75c-0.53,0.73-1.22,1.46-2.07,2.18
			c0.1,0.11,0.15,0.23,0.15,0.36v3.69c0,0.38-0.23,0.57-0.68,0.57c-0.46,0-0.69-0.19-0.69-0.57V171.67z M64.02,165.09
			c0.35,0,0.82,0.17,1.41,0.5c0.22,0.12,0.39,0.24,0.53,0.35c0.17,0.15,0.26,0.33,0.26,0.53c0,0.17-0.07,0.33-0.22,0.48
			c-0.15,0.16-0.32,0.23-0.52,0.23c-0.19,0-0.38-0.1-0.57-0.3c-0.32-0.34-0.67-0.62-1.06-0.87c-0.22-0.14-0.33-0.3-0.33-0.49
			c0-0.1,0.04-0.19,0.11-0.27C63.74,165.15,63.87,165.09,64.02,165.09z M66.93,170.56c0.17,0,0.42,0.08,0.75,0.23
			c1.31,0.59,1.96,1.13,1.96,1.62c0,0.17-0.07,0.34-0.2,0.5c-0.13,0.16-0.3,0.24-0.51,0.24c-0.19,0-0.4-0.11-0.61-0.32
			c-0.43-0.42-0.97-0.86-1.61-1.31c-0.2-0.15-0.3-0.31-0.3-0.48c0-0.08,0.02-0.17,0.07-0.25C66.56,170.64,66.72,170.56,66.93,170.56
			z"/>
		<path d="M79.97,169.17c0.23,0,0.42,0.07,0.55,0.22c0.11,0.12,0.17,0.28,0.17,0.48c0,0.37-0.18,0.59-0.53,0.66
			c-0.09,0.02-1.34,0.08-3.74,0.19c-1.1,0.05-2.27,0.11-3.5,0.17c-0.04,0-0.09,0-0.13,0c-0.21,0-0.38-0.06-0.52-0.18
			c-0.14-0.13-0.22-0.3-0.22-0.51c0-0.3,0.13-0.51,0.4-0.63c0.11-0.04,0.37-0.07,0.79-0.09c0.37-0.01,1.29-0.05,2.77-0.13
			c0.63-0.03,1.5-0.07,2.59-0.12c0.37-0.01,0.66-0.03,0.87-0.04C79.76,169.18,79.92,169.17,79.97,169.17z"/>
		<path d="M85.83,169.97v2.09c0,0.4,0.15,0.64,0.45,0.72c0.29,0.08,0.79,0.12,1.5,0.12c0.97,0,1.95-0.07,2.95-0.19
			c0.07-0.01,0.12-0.01,0.16-0.01c0.23,0,0.41,0.1,0.53,0.29c0.09,0.14,0.13,0.31,0.13,0.49c0,0.35-0.21,0.56-0.63,0.63
			c-0.53,0.08-1.61,0.12-3.23,0.12c-0.84,0-1.43-0.03-1.77-0.1c-0.61-0.12-1.03-0.39-1.26-0.79c-0.16-0.27-0.24-0.63-0.24-1.07
			v-5.82c0-0.4,0.23-0.6,0.7-0.6s0.7,0.2,0.7,0.6v2.28c1.74-0.27,3.12-0.51,4.15-0.73c0.13-0.03,0.24-0.04,0.33-0.04
			c0.3,0,0.51,0.12,0.62,0.35c0.05,0.11,0.08,0.24,0.08,0.37c0,0.35-0.2,0.57-0.6,0.64c-0.54,0.11-1.95,0.31-4.24,0.62L85.83,169.97
			z M90.66,166.05c0.21,0,0.54,0.21,1,0.62c0.39,0.35,0.58,0.63,0.58,0.83c0,0.15-0.06,0.28-0.19,0.38
			c-0.1,0.08-0.22,0.12-0.34,0.12c-0.17,0-0.31-0.1-0.43-0.29c-0.22-0.36-0.48-0.7-0.79-1.01c-0.1-0.11-0.15-0.22-0.15-0.33
			C90.34,166.15,90.45,166.05,90.66,166.05z M91.65,165.16c0.22,0,0.54,0.17,0.96,0.53c0.39,0.33,0.58,0.6,0.58,0.83
			c0,0.16-0.06,0.29-0.18,0.38c-0.09,0.07-0.19,0.1-0.3,0.1c-0.15,0-0.3-0.09-0.42-0.28c-0.21-0.31-0.48-0.62-0.79-0.92
			c-0.12-0.11-0.18-0.22-0.18-0.33c0-0.07,0.03-0.14,0.09-0.21C91.46,165.19,91.55,165.16,91.65,165.16z"/>
		<path d="M99.37,171.59c-1.04,1.06-2.12,1.91-3.23,2.56c-0.46,0.27-0.78,0.4-0.94,0.4c-0.2,0-0.35-0.09-0.45-0.27
			c-0.06-0.1-0.09-0.19-0.09-0.27c0-0.16,0.08-0.31,0.23-0.44c0.04-0.03,0.17-0.12,0.39-0.27c0.89-0.57,1.83-1.33,2.8-2.28
			c0.98-0.97,1.7-1.92,2.16-2.86c0.08-0.16,0.12-0.27,0.12-0.32c0-0.07-0.04-0.1-0.11-0.1c-0.05,0-0.13,0.01-0.25,0.03
			c-0.22,0.03-1.08,0.1-2.58,0.22c-0.26,0.02-0.48,0.04-0.67,0.05c-0.07,0.01-0.13,0.01-0.17,0.01c-0.3,0-0.5-0.11-0.61-0.33
			c-0.05-0.1-0.07-0.21-0.07-0.33c0-0.31,0.15-0.51,0.44-0.6c0.09-0.03,0.28-0.05,0.59-0.07c1.04-0.04,2.36-0.15,3.96-0.33
			c0.07-0.01,0.13-0.01,0.18-0.01c0.32,0,0.58,0.09,0.77,0.28c0.18,0.17,0.27,0.38,0.27,0.64c0,0.2-0.1,0.49-0.29,0.9
			c-0.38,0.79-0.94,1.64-1.68,2.55c1.22,0.76,2.17,1.47,2.85,2.14c0.31,0.3,0.46,0.58,0.46,0.83c0,0.19-0.07,0.36-0.22,0.51
			c-0.15,0.16-0.32,0.23-0.52,0.23c-0.2,0-0.37-0.07-0.52-0.22c-0.02-0.02-0.08-0.09-0.19-0.21
			C101.22,173.23,100.35,172.41,99.37,171.59z"/>
	</g>
</g>
<g id="ガイド" display="none">
</g>
</svg>
