<?xml version="1.0" encoding="utf-8"?>
<!-- Generator: Adobe Illustrator 25.4.1, SVG Export Plug-In . SVG Version: 6.00 Build 0)  -->
<svg version="1.1" xmlns="http://www.w3.org/2000/svg" xmlns:xlink="http://www.w3.org/1999/xlink" x="0px" y="0px"
	 viewBox="0 0 164.41 252.28" enable-background="new 0 0 164.41 252.28" xml:space="preserve">
<g id="地">
	<rect fill="#DCDDDD" width="164.41" height="252.28"/>
</g>
<g id="枠">
</g>
<g id="国旗">
	<g>
		<g>
			<rect x="25.51" y="60" fill="#F5CF21" width="113.39" height="75.59"/>
			<rect x="111.21" y="60" fill="#559F34" width="27.69" height="75.59"/>
			<rect x="25.51" y="60" fill="#085EA2" width="27.69" height="75.59"/>
			<polygon fill="#559F34" points="82.97,124.38 77.15,112.53 82.97,100.68 88.78,112.53 			"/>
			<polygon fill="#559F34" points="76.27,110.25 70.45,98.4 76.27,86.55 82.08,98.4 			"/>
			<polygon fill="#559F34" points="89.67,110.25 95.48,98.4 89.67,86.55 83.85,98.4 			"/>
		</g>
	</g>
</g>
<g id="国名">
	<g>
		<path d="M34.78,148.88c0-0.94-0.01-1.49-0.02-1.66c-0.01-0.29-0.02-0.51-0.02-0.66c0-0.44,0.24-0.66,0.71-0.66
			c0.39,0,0.62,0.17,0.68,0.5c0.01,0.05,0.03,0.54,0.05,1.47l0.01,0.5l0,0.18l0.28-0.07c2.1-0.52,3.22-0.79,3.36-0.84
			c0.11-0.03,0.21-0.04,0.3-0.04c0.26,0,0.49,0.08,0.68,0.24c0.2,0.16,0.29,0.37,0.29,0.61c0,0.35-0.34,0.96-1.03,1.8
			c-0.65,0.8-1.13,1.21-1.44,1.21c-0.14,0-0.26-0.05-0.35-0.16c-0.07-0.08-0.11-0.17-0.11-0.27c0-0.14,0.09-0.32,0.27-0.54
			c0.36-0.45,0.63-0.86,0.83-1.24c0.04-0.08,0.07-0.14,0.07-0.17c0-0.02-0.02-0.03-0.05-0.03c-0.06,0-1.02,0.24-2.87,0.73
			l-0.24,0.06v0.19l-0.01,2.4c0,0.27,0.07,0.46,0.2,0.58c0.12,0.11,0.34,0.17,0.66,0.17c1.1,0,1.99-0.05,2.67-0.14
			c0.1-0.01,0.18-0.02,0.23-0.02c0.28,0,0.46,0.13,0.56,0.39c0.04,0.1,0.06,0.21,0.06,0.33c0,0.36-0.19,0.58-0.58,0.65
			c-0.34,0.06-1.33,0.09-2.96,0.09c-0.65,0-1.14-0.09-1.48-0.26c-0.32-0.17-0.54-0.41-0.66-0.74c-0.08-0.2-0.12-0.5-0.12-0.88
			c0-0.47,0-1.2,0.02-2.2l0-0.21c-0.27,0.07-0.59,0.15-0.95,0.24c-0.52,0.13-0.84,0.2-0.95,0.2c-0.22,0-0.37-0.09-0.46-0.27
			c-0.07-0.13-0.1-0.26-0.1-0.39c0-0.28,0.14-0.48,0.43-0.59c0.04-0.01,0.48-0.12,1.32-0.32l0.54-0.13L34.78,148.88z"/>
		<path d="M45.07,146.82c0.15,0,0.41,0.07,0.78,0.2c0.69,0.24,1.26,0.53,1.71,0.86c0.24,0.17,0.35,0.39,0.35,0.65
			c0,0.14-0.05,0.29-0.14,0.43c-0.14,0.21-0.33,0.32-0.56,0.32c-0.2,0-0.43-0.09-0.67-0.28c-0.62-0.49-1.18-0.88-1.68-1.16
			c-0.25-0.14-0.38-0.31-0.38-0.51C44.47,146.99,44.67,146.82,45.07,146.82z M52.19,148.59c0.12,0,0.25,0.04,0.36,0.13
			c0.15,0.11,0.23,0.26,0.23,0.45c0,0.15-0.06,0.32-0.18,0.5c-0.85,1.27-1.97,2.37-3.36,3.3c-1.16,0.77-2.35,1.32-3.59,1.66
			c-0.13,0.03-0.24,0.05-0.34,0.05c-0.31,0-0.54-0.14-0.67-0.43c-0.06-0.13-0.09-0.25-0.09-0.37c0-0.27,0.13-0.47,0.4-0.6
			c0.06-0.03,0.3-0.1,0.74-0.23c1.59-0.47,3.07-1.3,4.43-2.51c0.52-0.47,1.02-1,1.48-1.59C51.78,148.7,51.98,148.59,52.19,148.59z"
			/>
		<path d="M59.37,150.28v4.34c0,0.21-0.07,0.37-0.2,0.48c-0.13,0.11-0.29,0.16-0.5,0.16c-0.47,0-0.71-0.21-0.71-0.64v-8.28
			c0-0.42,0.24-0.63,0.71-0.63c0.31,0,0.52,0.11,0.63,0.32c0.05,0.09,0.07,0.2,0.07,0.32v2.72c1.32,0.34,2.34,0.76,3.07,1.24
			c0.32,0.21,0.48,0.46,0.48,0.76c0,0.2-0.07,0.36-0.2,0.5c-0.14,0.15-0.31,0.23-0.52,0.23c-0.18,0-0.4-0.09-0.66-0.27
			C60.93,151.1,60.2,150.69,59.37,150.28z"/>
		<path d="M68.82,150.13v2.09c0,0.4,0.15,0.64,0.45,0.72c0.29,0.08,0.79,0.12,1.5,0.12c0.97,0,1.95-0.07,2.95-0.19
			c0.07-0.01,0.12-0.01,0.16-0.01c0.23,0,0.41,0.1,0.53,0.29c0.09,0.14,0.13,0.31,0.13,0.49c0,0.35-0.21,0.56-0.63,0.63
			c-0.53,0.08-1.61,0.12-3.23,0.12c-0.84,0-1.43-0.03-1.77-0.1c-0.61-0.12-1.03-0.39-1.26-0.79c-0.16-0.27-0.24-0.63-0.24-1.07
			v-5.82c0-0.4,0.23-0.6,0.7-0.6s0.7,0.2,0.7,0.6v2.28c1.74-0.27,3.12-0.51,4.15-0.73c0.13-0.03,0.24-0.04,0.33-0.04
			c0.3,0,0.51,0.12,0.62,0.35c0.05,0.11,0.08,0.24,0.08,0.37c0,0.35-0.2,0.57-0.6,0.64c-0.54,0.11-1.95,0.31-4.24,0.62L68.82,150.13
			z M73.66,146.2c0.21,0,0.54,0.21,1,0.62c0.39,0.35,0.58,0.63,0.58,0.83c0,0.15-0.06,0.28-0.19,0.38c-0.1,0.08-0.22,0.12-0.34,0.12
			c-0.17,0-0.31-0.1-0.43-0.29c-0.22-0.36-0.48-0.7-0.79-1.01c-0.1-0.11-0.16-0.22-0.16-0.33C73.33,146.31,73.44,146.2,73.66,146.2z
			 M74.64,145.31c0.22,0,0.54,0.17,0.96,0.53c0.39,0.33,0.58,0.6,0.58,0.83c0,0.16-0.06,0.29-0.18,0.38c-0.09,0.07-0.19,0.1-0.3,0.1
			c-0.16,0-0.3-0.09-0.42-0.28c-0.21-0.31-0.48-0.62-0.79-0.92c-0.12-0.11-0.18-0.22-0.18-0.33c0-0.07,0.03-0.14,0.09-0.21
			C74.46,145.34,74.54,145.31,74.64,145.31z"/>
		<path d="M79.08,146.82c0.15,0,0.41,0.07,0.78,0.2c0.69,0.24,1.26,0.53,1.71,0.86c0.24,0.17,0.35,0.39,0.35,0.65
			c0,0.14-0.05,0.29-0.14,0.43c-0.14,0.21-0.33,0.32-0.56,0.32c-0.2,0-0.43-0.09-0.67-0.28c-0.62-0.49-1.18-0.88-1.68-1.16
			c-0.25-0.14-0.38-0.31-0.38-0.51C78.49,146.99,78.69,146.82,79.08,146.82z M86.2,148.59c0.13,0,0.25,0.04,0.36,0.13
			c0.15,0.11,0.23,0.26,0.23,0.45c0,0.15-0.06,0.32-0.18,0.5c-0.85,1.27-1.97,2.37-3.36,3.3c-1.16,0.77-2.35,1.32-3.59,1.66
			c-0.13,0.03-0.24,0.05-0.34,0.05c-0.31,0-0.54-0.14-0.67-0.43c-0.06-0.13-0.09-0.25-0.09-0.37c0-0.27,0.13-0.47,0.4-0.6
			c0.05-0.03,0.3-0.1,0.74-0.23c1.59-0.47,3.06-1.3,4.43-2.51c0.52-0.47,1.02-1,1.48-1.59C85.8,148.7,85.99,148.59,86.2,148.59z"/>
		<path d="M91.48,148.88c0-0.94-0.01-1.49-0.02-1.66c-0.01-0.29-0.02-0.51-0.02-0.66c0-0.44,0.24-0.66,0.71-0.66
			c0.39,0,0.62,0.17,0.68,0.5c0.01,0.05,0.03,0.54,0.05,1.47l0,0.5l0.01,0.18l0.28-0.07c2.1-0.52,3.22-0.79,3.36-0.84
			c0.11-0.03,0.21-0.04,0.3-0.04c0.26,0,0.49,0.08,0.68,0.24c0.2,0.16,0.29,0.37,0.29,0.61c0,0.35-0.34,0.96-1.03,1.8
			c-0.65,0.8-1.13,1.21-1.44,1.21c-0.14,0-0.26-0.05-0.35-0.16c-0.07-0.08-0.11-0.17-0.11-0.27c0-0.14,0.09-0.32,0.27-0.54
			c0.36-0.45,0.63-0.86,0.83-1.24c0.04-0.08,0.07-0.14,0.07-0.17c0-0.02-0.02-0.03-0.05-0.03c-0.06,0-1.02,0.24-2.87,0.73
			l-0.24,0.06v0.19l-0.01,2.4c0,0.27,0.07,0.46,0.2,0.58c0.12,0.11,0.34,0.17,0.67,0.17c1.1,0,1.99-0.05,2.67-0.14
			c0.1-0.01,0.18-0.02,0.23-0.02c0.28,0,0.46,0.13,0.56,0.39c0.04,0.1,0.06,0.21,0.06,0.33c0,0.36-0.19,0.58-0.58,0.65
			c-0.34,0.06-1.33,0.09-2.96,0.09c-0.65,0-1.14-0.09-1.48-0.26c-0.32-0.17-0.54-0.41-0.67-0.74c-0.08-0.2-0.12-0.5-0.12-0.88
			c0-0.47,0.01-1.2,0.02-2.2l0.01-0.21c-0.27,0.07-0.59,0.15-0.95,0.24c-0.52,0.13-0.84,0.2-0.95,0.2c-0.22,0-0.37-0.09-0.46-0.27
			c-0.07-0.13-0.1-0.26-0.1-0.39c0-0.28,0.14-0.48,0.43-0.59c0.04-0.01,0.48-0.12,1.32-0.32l0.54-0.13L91.48,148.88z"/>
		<path d="M101.76,146.82c0.15,0,0.41,0.07,0.78,0.2c0.69,0.24,1.26,0.53,1.71,0.86c0.24,0.17,0.35,0.39,0.35,0.65
			c0,0.14-0.05,0.29-0.14,0.43c-0.14,0.21-0.33,0.32-0.56,0.32c-0.2,0-0.43-0.09-0.67-0.28c-0.62-0.49-1.18-0.88-1.68-1.16
			c-0.25-0.14-0.38-0.31-0.38-0.51C101.17,146.99,101.36,146.82,101.76,146.82z M108.88,148.59c0.12,0,0.25,0.04,0.36,0.13
			c0.15,0.11,0.23,0.26,0.23,0.45c0,0.15-0.06,0.32-0.18,0.5c-0.85,1.27-1.97,2.37-3.36,3.3c-1.16,0.77-2.35,1.32-3.59,1.66
			c-0.13,0.03-0.24,0.05-0.34,0.05c-0.31,0-0.54-0.14-0.67-0.43c-0.06-0.13-0.09-0.25-0.09-0.37c0-0.27,0.13-0.47,0.4-0.6
			c0.05-0.03,0.3-0.1,0.74-0.23c1.59-0.47,3.06-1.3,4.43-2.51c0.52-0.47,1.02-1,1.48-1.59C108.47,148.7,108.67,148.59,108.88,148.59
			z"/>
		<path d="M116.06,150.28v4.34c0,0.21-0.07,0.37-0.2,0.48c-0.13,0.11-0.29,0.16-0.5,0.16c-0.47,0-0.71-0.21-0.71-0.64v-8.28
			c0-0.42,0.24-0.63,0.71-0.63c0.31,0,0.51,0.11,0.62,0.32c0.05,0.09,0.07,0.2,0.07,0.32v2.72c1.32,0.34,2.34,0.76,3.07,1.24
			c0.32,0.21,0.48,0.46,0.48,0.76c0,0.2-0.07,0.36-0.2,0.5c-0.14,0.15-0.31,0.23-0.52,0.23c-0.18,0-0.4-0.09-0.66-0.27
			C117.62,151.1,116.89,150.69,116.06,150.28z"/>
		<path d="M124.16,148.62h6.79c0.12,0,0.23,0.04,0.31,0.11c0.13,0.11,0.19,0.26,0.19,0.45c0,0.23-0.08,0.39-0.24,0.49
			c-0.07,0.05-0.16,0.07-0.25,0.07h-6.79c-0.12,0-0.23-0.04-0.32-0.12c-0.11-0.11-0.17-0.25-0.17-0.44c0-0.22,0.08-0.39,0.24-0.49
			C123.98,148.65,124.06,148.62,124.16,148.62z M124.16,151.19h6.79c0.12,0,0.22,0.04,0.31,0.11c0.13,0.11,0.19,0.26,0.19,0.45
			c0,0.22-0.08,0.39-0.24,0.49c-0.07,0.04-0.15,0.07-0.25,0.07h-6.79c-0.12,0-0.22-0.03-0.3-0.1c-0.12-0.11-0.18-0.26-0.18-0.45
			c0-0.22,0.08-0.38,0.23-0.49C123.98,151.21,124.06,151.19,124.16,151.19z"/>
		<path d="M36.91,166.66l1.97-0.08c0.74-0.03,1.11,0.27,1.11,0.89c0,0.37-0.15,0.92-0.44,1.64c-0.77,1.92-2.04,3.52-3.81,4.78
			c-0.55,0.39-1.09,0.71-1.62,0.95c-0.2,0.09-0.37,0.14-0.5,0.14c-0.18,0-0.32-0.08-0.43-0.23c-0.07-0.1-0.1-0.2-0.1-0.3
			c0-0.15,0.08-0.29,0.25-0.42c0.05-0.03,0.19-0.12,0.44-0.27c0.84-0.48,1.65-1.13,2.42-1.94c0.93-0.97,1.6-2.06,2.03-3.28
			c0.11-0.32,0.17-0.51,0.17-0.56c0-0.11-0.06-0.15-0.18-0.14H38.2l-1.87,0.11c-0.69,0.93-1.5,1.72-2.43,2.37
			c-0.2,0.14-0.38,0.2-0.54,0.2c-0.14,0-0.25-0.05-0.34-0.15c-0.08-0.1-0.12-0.2-0.12-0.31c0-0.15,0.06-0.29,0.18-0.42
			c0.04-0.04,0.15-0.14,0.32-0.3c0.55-0.48,1.08-1.12,1.59-1.92c0.19-0.3,0.35-0.58,0.47-0.84c0.15-0.31,0.38-0.47,0.69-0.47
			c0.13,0,0.24,0.02,0.35,0.07C36.72,166.28,36.85,166.44,36.91,166.66z M39.93,165.57c0.21,0,0.54,0.21,1,0.62
			c0.39,0.35,0.58,0.63,0.58,0.83c0,0.15-0.06,0.27-0.19,0.38c-0.1,0.08-0.21,0.12-0.33,0.12c-0.17,0-0.31-0.1-0.43-0.29
			c-0.23-0.37-0.49-0.7-0.79-1.01c-0.1-0.11-0.15-0.22-0.15-0.33C39.62,165.68,39.72,165.57,39.93,165.57z M40.92,164.68
			c0.22,0,0.54,0.18,0.96,0.53c0.39,0.33,0.58,0.6,0.58,0.83c0,0.16-0.06,0.28-0.18,0.38c-0.09,0.07-0.19,0.1-0.3,0.1
			c-0.16,0-0.3-0.09-0.42-0.28c-0.2-0.3-0.47-0.61-0.79-0.92c-0.12-0.12-0.18-0.23-0.18-0.33c0-0.07,0.03-0.14,0.09-0.2
			C40.74,164.71,40.82,164.68,40.92,164.68z"/>
		<path d="M46.79,166.74v5.65c0,0.16,0.04,0.24,0.11,0.24c0.13,0,0.48-0.16,1.05-0.46c1.28-0.71,2.36-1.53,3.24-2.47
			c0.16-0.17,0.33-0.25,0.52-0.25c0.13,0,0.24,0.04,0.34,0.13c0.13,0.11,0.2,0.25,0.2,0.43c0,0.15-0.06,0.31-0.19,0.48
			c-0.69,0.93-1.64,1.8-2.86,2.6c-0.79,0.52-1.55,0.91-2.29,1.17c-0.19,0.07-0.36,0.1-0.51,0.1c-0.31,0-0.58-0.14-0.82-0.43
			c-0.15-0.18-0.22-0.43-0.22-0.73v-6.45c0-0.24,0.1-0.42,0.31-0.54c0.12-0.07,0.25-0.1,0.4-0.1c0.22,0,0.4,0.06,0.54,0.19
			C46.73,166.42,46.79,166.56,46.79,166.74z"/>
		<path d="M58.92,168.47v-2.13c0-0.2,0.07-0.36,0.21-0.48c0.13-0.11,0.3-0.17,0.51-0.17c0.28,0,0.49,0.1,0.63,0.31
			c0.06,0.1,0.09,0.21,0.09,0.34v2.04l0.23-0.02c1.41-0.1,2.32-0.17,2.75-0.21c0.06,0,0.1-0.01,0.13-0.01c0.2,0,0.36,0.06,0.49,0.18
			c0.12,0.12,0.19,0.27,0.19,0.46c0,0.28-0.09,0.48-0.27,0.59c-0.11,0.07-0.32,0.11-0.62,0.12c-0.96,0.04-1.92,0.1-2.9,0.17v0.16
			c0,1.91-0.53,3.34-1.58,4.27c-0.5,0.44-0.89,0.67-1.17,0.67c-0.17,0-0.31-0.07-0.42-0.21c-0.07-0.09-0.11-0.19-0.11-0.3
			c0-0.17,0.09-0.34,0.28-0.51c0.72-0.65,1.18-1.41,1.39-2.26c0.11-0.47,0.17-1,0.17-1.57v-0.13c-1.23,0.09-2.26,0.18-3.08,0.25
			c-0.08,0.01-0.14,0.01-0.18,0.01c-0.22,0-0.39-0.06-0.52-0.19c-0.11-0.11-0.17-0.27-0.17-0.46c0-0.35,0.16-0.57,0.48-0.66
			c0.07-0.02,0.84-0.08,2.31-0.19l0.89-0.07L58.92,168.47z"/>
		<path d="M70.24,170.32c-1.07,0.06-2.23,0.14-3.47,0.24c-0.1,0.01-0.16,0.01-0.19,0.01c-0.27,0-0.46-0.11-0.57-0.32
			c-0.05-0.1-0.08-0.22-0.08-0.36c0-0.37,0.2-0.57,0.59-0.61c0.51-0.06,2.85-0.2,7.04-0.42c0.77-0.04,1.18-0.06,1.21-0.06
			c0.21,0,0.38,0.06,0.5,0.19c0.11,0.12,0.17,0.27,0.17,0.46c0,0.33-0.13,0.54-0.38,0.63c-0.08,0.03-0.24,0.04-0.47,0.05
			c-0.51,0.01-1.37,0.05-2.59,0.1l-0.27,0c-0.06,1.75-0.59,3.08-1.59,3.99c-0.58,0.53-1.03,0.79-1.36,0.79
			c-0.16,0-0.29-0.06-0.39-0.19c-0.09-0.12-0.13-0.24-0.13-0.35c0-0.14,0.06-0.27,0.17-0.38c0.04-0.04,0.15-0.13,0.35-0.28
			c0.61-0.46,1.03-1.11,1.26-1.95C70.14,171.43,70.21,170.92,70.24,170.32z M72.63,165.99c0.17,0,0.31,0.05,0.43,0.14
			c0.14,0.12,0.22,0.29,0.22,0.5c0,0.37-0.18,0.58-0.55,0.65c-0.21,0.03-0.63,0.08-1.26,0.13c-1.16,0.1-2.11,0.14-2.86,0.14
			c-0.55,0-0.83-0.22-0.83-0.67c0-0.26,0.11-0.44,0.32-0.54c0.11-0.06,0.36-0.08,0.74-0.08c0.91,0,1.82-0.04,2.75-0.14
			c0.2-0.02,0.46-0.05,0.76-0.1C72.47,166,72.57,165.99,72.63,165.99z M73.88,165.56c0.21,0,0.54,0.21,1,0.62
			c0.39,0.35,0.58,0.63,0.58,0.84c0,0.14-0.06,0.27-0.19,0.37c-0.1,0.08-0.21,0.12-0.34,0.12c-0.17,0-0.3-0.07-0.39-0.22
			c-0.24-0.4-0.52-0.75-0.83-1.08c-0.1-0.11-0.15-0.22-0.15-0.33C73.56,165.66,73.67,165.56,73.88,165.56z M74.92,164.73
			c0.22,0,0.54,0.18,0.96,0.53c0.39,0.33,0.58,0.6,0.58,0.83c0,0.16-0.06,0.28-0.18,0.38c-0.09,0.07-0.19,0.1-0.3,0.1
			c-0.16,0-0.3-0.09-0.42-0.28c-0.2-0.3-0.46-0.61-0.79-0.92c-0.12-0.11-0.18-0.23-0.18-0.34c0-0.07,0.03-0.14,0.09-0.2
			C74.74,164.76,74.82,164.73,74.92,164.73z"/>
		<path d="M81.77,171.04c-0.77,0.51-1.54,0.91-2.28,1.2c-0.15,0.06-0.27,0.09-0.37,0.09c-0.17,0-0.3-0.08-0.37-0.23
			c-0.04-0.08-0.06-0.16-0.06-0.23c0-0.16,0.07-0.3,0.21-0.4c0.03-0.02,0.18-0.1,0.46-0.25c0.72-0.38,1.45-0.88,2.19-1.51
			c0.72-0.61,1.3-1.23,1.75-1.88c0.16-0.21,0.34-0.32,0.57-0.32c0.15,0,0.29,0.05,0.4,0.15c0.17,0.14,0.26,0.31,0.26,0.49
			c0,0.14-0.07,0.31-0.22,0.51c-0.41,0.56-0.91,1.09-1.5,1.59c0.12,0.1,0.18,0.23,0.18,0.39v3.73c0,0.17-0.05,0.3-0.16,0.4
			c-0.11,0.11-0.26,0.16-0.46,0.16c-0.27,0-0.46-0.1-0.55-0.3c-0.04-0.08-0.06-0.17-0.06-0.27V171.04z"/>
		<path d="M96.98,169.17c0.23,0,0.42,0.07,0.55,0.22c0.11,0.12,0.17,0.28,0.17,0.48c0,0.37-0.18,0.59-0.53,0.66
			c-0.09,0.02-1.34,0.08-3.74,0.19c-1.1,0.05-2.27,0.11-3.5,0.17c-0.04,0-0.09,0-0.13,0c-0.21,0-0.38-0.06-0.52-0.18
			c-0.14-0.13-0.22-0.3-0.22-0.51c0-0.3,0.13-0.51,0.4-0.63c0.11-0.04,0.37-0.07,0.79-0.09c0.37-0.01,1.29-0.05,2.77-0.13
			c0.63-0.03,1.5-0.07,2.59-0.12c0.37-0.01,0.66-0.03,0.87-0.04C96.76,169.18,96.92,169.17,96.98,169.17z"/>
		<path d="M101.76,166.66c0.15,0,0.41,0.07,0.78,0.2c0.69,0.24,1.26,0.53,1.71,0.86c0.24,0.17,0.35,0.39,0.35,0.65
			c0,0.14-0.05,0.29-0.14,0.43c-0.14,0.21-0.33,0.32-0.56,0.32c-0.2,0-0.43-0.09-0.67-0.28c-0.62-0.49-1.18-0.88-1.68-1.16
			c-0.25-0.14-0.38-0.31-0.38-0.51C101.17,166.83,101.36,166.66,101.76,166.66z M108.88,168.43c0.12,0,0.25,0.04,0.36,0.13
			c0.15,0.11,0.23,0.26,0.23,0.45c0,0.15-0.06,0.32-0.18,0.5c-0.85,1.27-1.97,2.37-3.36,3.3c-1.16,0.77-2.35,1.32-3.59,1.66
			c-0.13,0.03-0.24,0.05-0.34,0.05c-0.31,0-0.54-0.14-0.67-0.43c-0.06-0.13-0.09-0.25-0.09-0.37c0-0.27,0.13-0.47,0.4-0.6
			c0.05-0.03,0.3-0.1,0.74-0.23c1.59-0.47,3.06-1.3,4.43-2.51c0.52-0.47,1.02-1,1.48-1.59
			C108.47,168.55,108.67,168.43,108.88,168.43z"/>
		<path d="M114.92,168.23l-3.43,0.29c-0.03,0-0.05,0-0.06,0c-0.23,0.01-0.39-0.1-0.47-0.32c-0.03-0.08-0.04-0.17-0.04-0.27
			c0-0.3,0.15-0.47,0.46-0.49l3.41-0.3c0.02,0,0.04,0,0.07,0c0.17,0,0.3,0.06,0.39,0.19c0.07,0.1,0.11,0.23,0.11,0.37
			C115.36,168.03,115.21,168.2,114.92,168.23z M114.94,173.86c0.15,0.08,0.22,0.23,0.22,0.44c0,0.31-0.15,0.48-0.44,0.51l-1.9,0.18
			c-0.07,0.25-0.27,0.38-0.6,0.38s-0.51-0.17-0.54-0.5l-0.23-2.44c0-0.04-0.01-0.06-0.01-0.07c0-0.19,0.07-0.33,0.22-0.42
			c0.1-0.06,0.22-0.09,0.35-0.09c0.2,0,0.36,0.05,0.47,0.17l1.68-0.19c0.07-0.01,0.15-0.01,0.23-0.01c0.52,0,0.78,0.23,0.78,0.7
			c0,0.08-0.01,0.18-0.03,0.28L114.94,173.86z M114.44,169.77l-2.27,0.21c-0.02,0-0.05,0.01-0.07,0.01c-0.17,0-0.29-0.08-0.38-0.23
			c-0.04-0.08-0.07-0.18-0.07-0.3c0-0.29,0.14-0.45,0.42-0.48l2.26-0.22c0.01,0,0.03,0,0.07,0c0.18,0,0.31,0.07,0.39,0.22
			c0.05,0.08,0.07,0.18,0.07,0.29C114.86,169.58,114.72,169.74,114.44,169.77z M114.45,171.26l-2.28,0.22c-0.01,0-0.02,0-0.04,0
			c-0.17,0-0.3-0.07-0.39-0.21c-0.06-0.09-0.09-0.2-0.09-0.32c0-0.3,0.14-0.46,0.43-0.48l2.28-0.19c0.03,0,0.05-0.01,0.05-0.01
			c0.18,0,0.31,0.07,0.4,0.2c0.05,0.08,0.08,0.18,0.08,0.29c0,0.2-0.08,0.35-0.25,0.43C114.58,171.23,114.52,171.25,114.45,171.26z
			 M112.55,165.25c0.32,0,0.78,0.13,1.36,0.39c0.45,0.2,0.67,0.44,0.67,0.71c0,0.11-0.03,0.21-0.1,0.32
			c-0.12,0.19-0.29,0.28-0.51,0.28c-0.15,0-0.32-0.07-0.5-0.22c-0.31-0.24-0.66-0.46-1.05-0.67c-0.21-0.11-0.32-0.26-0.32-0.43
			C112.1,165.38,112.25,165.25,112.55,165.25z M113.88,173.89l0.09-0.87c0-0.01,0-0.02,0-0.03c0-0.11-0.05-0.17-0.17-0.17
			c-0.03,0-0.05,0-0.06,0l-1.08,0.13l0.09,1.06L113.88,173.89z M119.93,168.42l1.02-0.09c0.01,0,0.04,0,0.06,0
			c0.19,0,0.33,0.08,0.42,0.25c0.05,0.1,0.08,0.2,0.08,0.32c0,0.32-0.15,0.49-0.46,0.52l-2.1,0.19c-0.32,0.35-0.6,0.64-0.83,0.86
			l1.41-0.13c0.08-0.01,0.14-0.01,0.18-0.01c0.54,0,0.8,0.31,0.8,0.93V175c0,0.34-0.2,0.51-0.6,0.51c-0.39,0-0.59-0.17-0.6-0.53
			l-1.75,0.09c-0.06,0.27-0.25,0.4-0.58,0.4c-0.39,0-0.59-0.17-0.59-0.5v-2.95c-0.44,0.33-0.73,0.49-0.89,0.49
			c-0.12,0-0.22-0.05-0.29-0.15c-0.07-0.09-0.11-0.18-0.11-0.28c0-0.12,0.05-0.22,0.16-0.32c0.02-0.02,0.1-0.07,0.23-0.17
			c0.54-0.39,1.21-1.02,1.99-1.87l-1.9,0.17c-0.03,0-0.06,0.01-0.08,0.01c-0.19,0-0.33-0.09-0.41-0.27
			c-0.04-0.09-0.06-0.19-0.06-0.3c0-0.32,0.15-0.49,0.44-0.52l1.68-0.15v-0.88l-0.91,0.08c-0.02,0-0.04,0.01-0.07,0.01
			c-0.17,0-0.3-0.07-0.39-0.22c-0.05-0.08-0.08-0.18-0.08-0.3c0-0.34,0.15-0.52,0.45-0.55l0.99-0.08v-1.1
			c0-0.14,0.04-0.25,0.12-0.34c0.11-0.12,0.27-0.18,0.48-0.18c0.27,0,0.46,0.09,0.55,0.28c0.04,0.07,0.06,0.15,0.06,0.24v1
			l0.56-0.04c0.12-0.01,0.22,0.01,0.32,0.07c0.15,0.08,0.22,0.23,0.22,0.44c0.19-0.34,0.34-0.61,0.44-0.83
			c0.11-0.24,0.29-0.36,0.54-0.36c0.1,0,0.2,0.02,0.3,0.07c0.2,0.1,0.29,0.25,0.29,0.44C121.05,166.71,120.68,167.37,119.93,168.42z
			 M119.33,172.16v-0.55c0-0.19-0.08-0.28-0.24-0.28c-0.01,0-0.04,0-0.07,0.01l-1.44,0.14v0.8L119.33,172.16z M119.33,173.08
			l-1.74,0.13v0.9l1.74-0.09V173.08z M118.49,168.56c0.21-0.29,0.44-0.6,0.67-0.95c-0.03,0.01-0.06,0.02-0.09,0.02l-0.74,0.07v0.88
			L118.49,168.56z"/>
		<path d="M125.64,166.42c0.47-0.46,0.83-0.84,1.08-1.15c0.16-0.2,0.36-0.29,0.6-0.29c0.14,0,0.27,0.03,0.4,0.09
			c0.21,0.09,0.31,0.23,0.31,0.42c0,0.14-0.07,0.27-0.21,0.38c-0.12,0.09-0.33,0.24-0.63,0.44l2.54-0.18c0.06,0,0.1-0.01,0.14-0.01
			c0.58,0,0.88,0.26,0.88,0.79c0,0.07-0.01,0.15-0.02,0.25l-0.32,1.98c-0.06,0.35-0.27,0.53-0.65,0.53c-0.26,0-0.45-0.07-0.56-0.21
			l-3.63,0.27l0,0.4l5.73-0.39c0.02,0,0.04,0,0.04,0c0.29,0,0.43,0.15,0.43,0.44c0,0.3-0.14,0.46-0.43,0.48l-5.75,0.37l0.01,0.42
			l5.67-0.34c0.08,0,0.13,0,0.17,0c0.35,0,0.6,0.08,0.75,0.23c0.14,0.14,0.2,0.37,0.2,0.69c0,0.52-0.13,1.15-0.38,1.89
			c-0.2,0.57-0.41,0.98-0.62,1.23c-0.22,0.26-0.53,0.39-0.92,0.39c-0.39,0-0.79-0.13-1.2-0.39c-0.21-0.13-0.31-0.28-0.31-0.44
			c0-0.05,0.01-0.11,0.03-0.17c0.05-0.16,0.16-0.24,0.33-0.24c0.04,0,0.09,0.01,0.14,0.02c0.15,0.05,0.32,0.07,0.48,0.07
			c0.19,0,0.34-0.11,0.46-0.32c0.17-0.31,0.32-0.71,0.43-1.2c0.06-0.27,0.09-0.46,0.09-0.55c0-0.18-0.1-0.28-0.31-0.28
			c-0.03,0-0.05,0-0.06,0l-4.3,0.3c0.27,0.07,0.4,0.24,0.4,0.5v0.7l1.01-0.11l0.02-0.45c0.01-0.35,0.21-0.53,0.59-0.53h0.04
			c0.23,0,0.39,0.07,0.5,0.21c0.09,0.11,0.13,0.25,0.12,0.43l-0.07,1.26c-0.02,0.35-0.23,0.52-0.62,0.52
			c-0.37,0-0.57-0.14-0.61-0.42l-3.41,0.39c-0.13,0.01-0.25,0.02-0.36,0.02c-0.3,0-0.51-0.07-0.63-0.22
			c-0.1-0.12-0.16-0.31-0.17-0.56l-0.04-0.88c0-0.02,0-0.04,0-0.06c0-0.37,0.24-0.55,0.72-0.55c0.35,0,0.54,0.16,0.56,0.48l0.03,0.5
			c0.01,0.13,0.06,0.19,0.15,0.19c0.04,0,0.07,0,0.09-0.01l0.78-0.08v-0.84c0-0.22,0.09-0.37,0.27-0.46l-0.2,0.02
			c-0.13,0.1-0.3,0.15-0.51,0.15c-0.22,0-0.4-0.06-0.52-0.18c-0.1-0.09-0.15-0.21-0.16-0.35l-0.15-5.19c0-0.14,0.04-0.25,0.11-0.34
			c0.13-0.16,0.33-0.23,0.6-0.23c0.25,0,0.44,0.06,0.56,0.19L125.64,166.42z M129.3,167.48l0.02-0.2c0-0.14-0.07-0.21-0.21-0.21
			c-0.01,0-0.02,0-0.03,0l-3.57,0.27l0.01,0.41L129.3,167.48z M129.17,168.62l0.04-0.41l-3.67,0.28l0.01,0.41L129.17,168.62z"/>
	</g>
</g>
<g id="ガイド" display="none">
</g>
</svg>
