<?xml version="1.0" encoding="utf-8"?>
<!-- Generator: Adobe Illustrator 25.4.1, SVG Export Plug-In . SVG Version: 6.00 Build 0)  -->
<svg version="1.1" xmlns="http://www.w3.org/2000/svg" xmlns:xlink="http://www.w3.org/1999/xlink" x="0px" y="0px"
	 viewBox="0 0 164.41 252.28" enable-background="new 0 0 164.41 252.28" xml:space="preserve">
<g id="地">
	<rect fill="#DCDDDD" width="164.41" height="252.28"/>
</g>
<g id="枠">
</g>
<g id="国旗">
	<g>
		<g>
			<rect x="25.51" y="60" fill="#0B5F8D" width="113.39" height="75.59"/>
			<polygon fill="#FFFFFF" points="82.2,65.04 53.65,125.32 110.76,125.32 			"/>
			<polygon fill="#040000" points="82.2,79.78 63.06,119.65 101.35,119.65 			"/>
			<polygon fill="#F5CF21" points="53.65,125.32 82.2,108.12 110.76,125.32 			"/>
		</g>
	</g>
</g>
<g id="国名">
	<g>
		<path d="M51.79,148.88c0-0.94-0.01-1.49-0.02-1.66c-0.01-0.29-0.02-0.51-0.02-0.66c0-0.44,0.24-0.66,0.71-0.66
			c0.39,0,0.62,0.17,0.68,0.5c0.01,0.05,0.03,0.54,0.05,1.47l0.01,0.5l0,0.18l0.28-0.07c2.1-0.52,3.22-0.79,3.36-0.84
			c0.11-0.03,0.21-0.04,0.3-0.04c0.26,0,0.49,0.08,0.68,0.24c0.2,0.16,0.29,0.37,0.29,0.61c0,0.35-0.34,0.96-1.03,1.8
			c-0.65,0.8-1.13,1.21-1.44,1.21c-0.14,0-0.26-0.05-0.35-0.16c-0.07-0.08-0.11-0.17-0.11-0.27c0-0.14,0.09-0.32,0.27-0.54
			c0.36-0.45,0.63-0.86,0.83-1.24c0.04-0.08,0.07-0.14,0.07-0.17c0-0.02-0.02-0.03-0.05-0.03c-0.06,0-1.02,0.24-2.87,0.73
			l-0.24,0.06v0.19l-0.01,2.4c0,0.27,0.07,0.46,0.2,0.58c0.12,0.11,0.34,0.17,0.66,0.17c1.1,0,1.99-0.05,2.67-0.14
			c0.1-0.01,0.18-0.02,0.23-0.02c0.28,0,0.46,0.13,0.56,0.39c0.04,0.1,0.06,0.21,0.06,0.33c0,0.36-0.19,0.58-0.58,0.65
			c-0.34,0.06-1.33,0.09-2.96,0.09c-0.65,0-1.14-0.09-1.48-0.26c-0.32-0.17-0.54-0.41-0.66-0.74c-0.08-0.2-0.12-0.5-0.12-0.88
			c0-0.47,0-1.2,0.02-2.2l0-0.21c-0.27,0.07-0.59,0.15-0.95,0.24c-0.52,0.13-0.84,0.2-0.95,0.2c-0.22,0-0.37-0.09-0.46-0.27
			c-0.07-0.13-0.1-0.26-0.1-0.39c0-0.28,0.14-0.48,0.43-0.59c0.04-0.01,0.48-0.12,1.32-0.32l0.54-0.13L51.79,148.88z"/>
		<path d="M62.07,146.82c0.15,0,0.41,0.07,0.78,0.2c0.69,0.24,1.26,0.53,1.71,0.86c0.24,0.17,0.35,0.39,0.35,0.65
			c0,0.14-0.05,0.29-0.14,0.43c-0.14,0.21-0.33,0.32-0.56,0.32c-0.2,0-0.43-0.09-0.67-0.28c-0.62-0.49-1.18-0.88-1.68-1.16
			c-0.25-0.14-0.38-0.31-0.38-0.51C61.48,146.99,61.68,146.82,62.07,146.82z M69.19,148.59c0.12,0,0.25,0.04,0.36,0.13
			c0.15,0.11,0.23,0.26,0.23,0.45c0,0.15-0.06,0.32-0.18,0.5c-0.85,1.27-1.97,2.37-3.36,3.3c-1.16,0.77-2.35,1.32-3.59,1.66
			c-0.13,0.03-0.24,0.05-0.34,0.05c-0.31,0-0.54-0.14-0.67-0.43c-0.06-0.13-0.09-0.25-0.09-0.37c0-0.27,0.13-0.47,0.4-0.6
			c0.06-0.03,0.3-0.1,0.74-0.23c1.59-0.47,3.07-1.3,4.43-2.51c0.52-0.47,1.02-1,1.48-1.59C68.79,148.7,68.98,148.59,69.19,148.59z"
			/>
		<path d="M76.37,150.28v4.34c0,0.21-0.07,0.37-0.2,0.48c-0.13,0.11-0.29,0.16-0.5,0.16c-0.47,0-0.71-0.21-0.71-0.64v-8.28
			c0-0.42,0.24-0.63,0.71-0.63c0.31,0,0.52,0.11,0.63,0.32c0.05,0.09,0.07,0.2,0.07,0.32v2.72c1.32,0.34,2.34,0.76,3.07,1.24
			c0.32,0.21,0.48,0.46,0.48,0.76c0,0.2-0.07,0.36-0.2,0.5c-0.14,0.15-0.31,0.23-0.52,0.23c-0.18,0-0.4-0.09-0.66-0.27
			C77.93,151.1,77.21,150.69,76.37,150.28z"/>
		<path d="M85.68,147.24c0.47,0,0.7,0.27,0.7,0.8c0,1.92-0.36,3.46-1.07,4.63c-0.3,0.5-0.66,0.91-1.08,1.24
			c-0.15,0.12-0.31,0.18-0.49,0.18c-0.12,0-0.22-0.04-0.32-0.12c-0.11-0.1-0.16-0.21-0.16-0.35c0-0.16,0.07-0.32,0.22-0.49
			c0.6-0.69,1-1.51,1.22-2.46c0.17-0.74,0.26-1.64,0.26-2.7c0-0.22,0.05-0.38,0.15-0.49C85.25,147.32,85.44,147.24,85.68,147.24z
			 M88.86,146.83v5.65c0,0.14,0.03,0.22,0.1,0.22c0.14,0,0.49-0.2,1.07-0.6c0.82-0.56,1.5-1.13,2.03-1.72
			c0.18-0.21,0.36-0.31,0.52-0.31c0.13,0,0.26,0.05,0.39,0.16c0.13,0.1,0.19,0.24,0.19,0.42c0,0.15-0.06,0.31-0.18,0.48
			c-0.43,0.59-1.08,1.23-1.94,1.92c-0.68,0.54-1.33,0.95-1.94,1.26c-0.23,0.11-0.44,0.17-0.61,0.17c-0.2,0-0.39-0.07-0.59-0.21
			c-0.28-0.2-0.42-0.5-0.42-0.92v-6.51c0-0.24,0.11-0.42,0.32-0.54c0.11-0.06,0.23-0.09,0.37-0.09c0.2,0,0.37,0.06,0.51,0.17
			C88.79,146.49,88.86,146.64,88.86,146.83z"/>
		<path d="M95.37,148.77c0.23,0,0.56,0.08,1.01,0.24c0.52,0.19,0.95,0.41,1.3,0.66c0.24,0.18,0.36,0.39,0.36,0.65
			c0,0.16-0.05,0.31-0.17,0.45c-0.14,0.19-0.33,0.29-0.56,0.29c-0.17,0-0.35-0.08-0.57-0.25c-0.42-0.34-0.95-0.7-1.61-1.07
			c-0.22-0.13-0.33-0.28-0.33-0.48c0-0.09,0.02-0.17,0.07-0.26C94.97,148.85,95.13,148.77,95.37,148.77z M103.24,148.4
			c0.11,0,0.21,0.03,0.32,0.09c0.18,0.11,0.28,0.27,0.28,0.48c0,0.21-0.17,0.6-0.52,1.18c-0.57,0.96-1.35,1.83-2.34,2.63
			c-1.18,0.95-2.48,1.67-3.92,2.16c-0.16,0.06-0.3,0.08-0.41,0.08c-0.29,0-0.51-0.13-0.64-0.4c-0.07-0.13-0.1-0.26-0.1-0.38
			c0-0.28,0.13-0.48,0.38-0.62c0.04-0.02,0.28-0.11,0.72-0.26c1.2-0.42,2.31-1.04,3.35-1.87c1-0.79,1.77-1.68,2.31-2.67
			C102.82,148.54,103.01,148.4,103.24,148.4z M96.71,146.26c0.33,0,0.89,0.24,1.68,0.72c0.24,0.14,0.41,0.26,0.52,0.35
			c0.21,0.17,0.32,0.38,0.32,0.61c0,0.16-0.06,0.3-0.17,0.44c-0.17,0.2-0.36,0.3-0.58,0.3c-0.19,0-0.38-0.1-0.58-0.3
			c-0.32-0.34-0.81-0.73-1.44-1.2c-0.2-0.14-0.29-0.3-0.29-0.46c0-0.09,0.03-0.18,0.08-0.26C96.34,146.33,96.49,146.26,96.71,146.26
			z"/>
		<path d="M114,146.53c0.24,0,0.46,0.06,0.66,0.18c0.27,0.17,0.4,0.41,0.4,0.72c0,0.2-0.08,0.44-0.25,0.74
			c-0.47,0.82-1.05,1.53-1.76,2.15c-0.4,0.34-0.7,0.51-0.91,0.51c-0.15,0-0.28-0.07-0.38-0.2c-0.07-0.1-0.11-0.19-0.11-0.28
			c0-0.15,0.09-0.31,0.28-0.49c0.56-0.54,0.99-1.08,1.28-1.63c0.08-0.15,0.12-0.25,0.12-0.3c0-0.06-0.05-0.09-0.15-0.09
			c-0.09,0-0.21,0-0.36,0.02c-0.08,0.01-0.33,0.02-0.75,0.05c-0.31,0.02-1.66,0.13-4.03,0.33c-0.8,0.07-1.23,0.1-1.29,0.1
			c-0.47,0-0.7-0.22-0.7-0.65c0-0.37,0.19-0.59,0.57-0.66c0.04-0.01,1.36-0.1,3.94-0.28C112.81,146.6,113.96,146.53,114,146.53z
			 M110.44,148.82c0.19,0,0.36,0.06,0.51,0.18c0.09,0.07,0.15,0.15,0.18,0.24c0.04,0.11,0.05,0.3,0.05,0.57
			c0,0.99-0.07,1.76-0.22,2.33c-0.32,1.22-1.05,2.18-2.18,2.86c-0.18,0.11-0.34,0.16-0.48,0.16c-0.17,0-0.29-0.06-0.38-0.17
			c-0.08-0.1-0.12-0.21-0.12-0.33c0-0.14,0.05-0.27,0.15-0.4c0.04-0.06,0.17-0.17,0.36-0.33c0.7-0.57,1.13-1.33,1.31-2.31
			c0.08-0.48,0.13-1.09,0.13-1.82l-0.01-0.3c0-0.28,0.1-0.47,0.31-0.59C110.18,148.85,110.31,148.82,110.44,148.82z"/>
	</g>
</g>
<g id="ガイド" display="none">
</g>
</svg>
