<?xml version="1.0" encoding="utf-8"?>
<!-- Generator: Adobe Illustrator 25.4.1, SVG Export Plug-In . SVG Version: 6.00 Build 0)  -->
<svg version="1.1" xmlns="http://www.w3.org/2000/svg" xmlns:xlink="http://www.w3.org/1999/xlink" x="0px" y="0px"
	 viewBox="0 0 164.41 252.28" enable-background="new 0 0 164.41 252.28" xml:space="preserve">
<g id="地">
	<rect fill="#DCDDDD" width="164.41" height="252.28"/>
</g>
<g id="枠">
</g>
<g id="国旗">
	<g>
		<g>
			<rect x="25.51" y="60" fill="#FFFFFF" width="113.39" height="75.59"/>
			<rect x="25.51" y="116.32" fill="#147F49" width="113.39" height="19.27"/>
			<rect x="25.51" y="60" fill="#C91623" width="113.39" height="19.27"/>
			<polygon fill="#F4D625" stroke="#040000" stroke-width="1.0229" points="90.31,106.5 91.2,108.3 89.72,109.46 88.69,107.59 			
				"/>
			<polygon fill="#F4D625" stroke="#040000" stroke-width="1.0229" points="90.68,84.78 91.29,86.65 93.26,86.65 91.67,87.81 
				92.28,89.68 90.68,88.52 89.09,89.68 89.7,87.81 88.11,86.65 90.07,86.65 			"/>
			<polygon fill="#F4D625" stroke="#040000" stroke-width="1.0229" points="82.2,81.62 82.81,83.49 84.78,83.49 83.19,84.65 
				83.8,86.52 82.2,85.36 80.61,86.52 81.22,84.65 79.63,83.49 81.6,83.49 			"/>
			<polygon fill="#F4D625" stroke="#040000" stroke-width="1.0229" points="96.65,90.19 97.26,92.06 99.22,92.06 97.63,93.22 
				98.24,95.09 96.65,93.93 95.05,95.09 95.66,93.22 94.07,92.06 96.04,92.06 			"/>
			<polygon fill="#F4D625" stroke="#040000" stroke-width="1.0229" points="99.22,99.15 99.83,101.02 101.8,101.02 100.21,102.18 
				100.82,104.05 99.22,102.89 97.63,104.05 98.24,102.18 96.65,101.02 98.62,101.02 			"/>
			<path fill="#F4D625" stroke="#040000" stroke-width="1.0229" d="M82.2,102.94c-3.19,5.28-8.8,2.4-8.8,2.4s-2.26,2.84-4,2.84
				c-1.74,0-3.29-1.61-3.29-1.61c3.99,1.61,7.22-2.38,7.22-2.38c4.19,2.51,7.99-1.48,8.05-3.09c0.03-0.64,0-0.32,0-3.09
				c0-2.77-2.51-2.45-2.51-2.45s0.67-2.9,3.32-2.9c2.65,0,3.32,2.9,3.32,2.9s-2.51-0.32-2.51,2.45c0,2.77-0.03,2.45,0,3.09
				c0.06,1.61,3.87,5.61,8.05,3.09c0,0,3.22,4,7.22,2.38c0,0-1.55,1.61-3.29,1.61c-1.74,0-4-2.84-4-2.84S85.39,108.22,82.2,102.94z"
				/>
			<polygon fill="#F4D625" stroke="#040000" stroke-width="1.0229" points="82.2,107.76 80.81,106.37 82.2,104.69 83.59,106.37 			
				"/>
			<polygon fill="#F4D625" stroke="#040000" stroke-width="1.0229" points="74.1,106.5 73.21,108.3 74.69,109.46 75.72,107.59 			
				"/>
			<path fill="#F4D625" stroke="#040000" stroke-width="1.0229" d="M82.2,110.43c-6.86,0-12.59,3.13-12.59,3.13l-0.59-1.59
				c0,0,6.03-3.16,13.18-3.16c7.16,0,13.18,3.16,13.18,3.16l-0.59,1.59C94.79,113.56,89.06,110.43,82.2,110.43z"/>
			<polygon fill="#F4D625" stroke="#040000" stroke-width="1.0229" points="73.73,84.78 73.12,86.65 71.15,86.65 72.74,87.81 
				72.13,89.68 73.73,88.52 75.32,89.68 74.71,87.81 76.3,86.65 74.34,86.65 			"/>
			<polygon fill="#F4D625" stroke="#040000" stroke-width="1.0229" points="67.76,90.19 67.15,92.06 65.19,92.06 66.78,93.22 
				66.17,95.09 67.76,93.93 69.36,95.09 68.75,93.22 70.34,92.06 68.37,92.06 			"/>
			<polygon fill="#F4D625" stroke="#040000" stroke-width="1.0229" points="65.19,99.15 64.58,101.02 62.61,101.02 64.2,102.18 
				63.59,104.05 65.19,102.89 66.78,104.05 66.17,102.18 67.76,101.02 65.79,101.02 			"/>
		</g>
	</g>
</g>
<g id="国名">
	<g>
		<path d="M54.27,146.53l2.1-0.08l0.09-0.01c0.68,0,1.02,0.29,1.02,0.88c0,0.18-0.04,0.42-0.13,0.74c-0.73,2.58-2.23,4.62-4.48,6.13
			c-0.89,0.59-1.49,0.89-1.82,0.89c-0.17,0-0.3-0.07-0.4-0.22c-0.07-0.1-0.1-0.2-0.1-0.29c0-0.15,0.07-0.28,0.21-0.4
			c0.05-0.04,0.18-0.13,0.4-0.26c1.08-0.67,2.03-1.45,2.83-2.34c-0.53-0.55-1.01-0.99-1.45-1.34c-0.2-0.16-0.3-0.32-0.3-0.47
			c0-0.1,0.03-0.19,0.09-0.27c0.1-0.14,0.24-0.21,0.41-0.21c0.14,0,0.31,0.05,0.51,0.14c0.59,0.26,1.12,0.59,1.59,0.98
			c0.46-0.75,0.79-1.47,1-2.18c0.06-0.2,0.09-0.33,0.09-0.38c0-0.08-0.06-0.12-0.18-0.12c-0.01,0-0.02,0-0.03,0l-2.05,0.11
			c-0.77,1.02-1.55,1.8-2.36,2.34c-0.26,0.17-0.47,0.26-0.64,0.26c-0.15,0-0.27-0.06-0.35-0.18c-0.06-0.08-0.08-0.17-0.08-0.27
			c0-0.13,0.05-0.26,0.16-0.39c0.04-0.04,0.15-0.15,0.34-0.33c0.64-0.58,1.22-1.29,1.74-2.13c0.14-0.23,0.26-0.45,0.37-0.66
			c0.16-0.31,0.39-0.47,0.7-0.47c0.22,0,0.41,0.08,0.55,0.23C54.18,146.29,54.23,146.4,54.27,146.53z"/>
		<path d="M61.24,148.77c0.23,0,0.56,0.08,1.01,0.24c0.52,0.19,0.95,0.41,1.3,0.66c0.24,0.18,0.36,0.39,0.36,0.65
			c0,0.16-0.06,0.31-0.17,0.45c-0.14,0.19-0.33,0.29-0.56,0.29c-0.17,0-0.35-0.08-0.56-0.25c-0.42-0.34-0.95-0.7-1.61-1.07
			c-0.22-0.13-0.33-0.28-0.33-0.48c0-0.09,0.02-0.17,0.07-0.26C60.85,148.85,61.01,148.77,61.24,148.77z M69.11,148.4
			c0.11,0,0.21,0.03,0.32,0.09c0.18,0.11,0.28,0.27,0.28,0.48c0,0.21-0.17,0.6-0.52,1.18c-0.57,0.96-1.35,1.83-2.34,2.63
			c-1.18,0.95-2.48,1.67-3.92,2.16c-0.16,0.06-0.3,0.08-0.41,0.08c-0.29,0-0.51-0.13-0.64-0.4c-0.07-0.13-0.1-0.26-0.1-0.38
			c0-0.28,0.13-0.48,0.38-0.62c0.04-0.02,0.28-0.11,0.72-0.26c1.2-0.42,2.31-1.04,3.35-1.87c1-0.79,1.77-1.68,2.31-2.67
			C68.69,148.54,68.88,148.4,69.11,148.4z M62.58,146.26c0.34,0,0.9,0.24,1.68,0.72c0.24,0.14,0.41,0.26,0.52,0.35
			c0.21,0.17,0.32,0.38,0.32,0.61c0,0.16-0.06,0.3-0.17,0.44c-0.17,0.2-0.36,0.3-0.58,0.3c-0.19,0-0.38-0.1-0.58-0.3
			c-0.33-0.34-0.81-0.73-1.45-1.2c-0.2-0.14-0.29-0.3-0.29-0.46c0-0.09,0.03-0.18,0.08-0.26C62.21,146.33,62.37,146.26,62.58,146.26
			z M67.72,145.94c0.21,0,0.54,0.21,0.99,0.62c0.39,0.35,0.58,0.63,0.58,0.84c0,0.14-0.06,0.27-0.19,0.37
			c-0.1,0.08-0.21,0.12-0.34,0.12c-0.17,0-0.31-0.1-0.43-0.29c-0.21-0.35-0.48-0.69-0.79-1.01c-0.1-0.11-0.16-0.22-0.16-0.33
			C67.4,146.05,67.51,145.94,67.72,145.94z M68.87,145.11c0.22,0,0.54,0.18,0.96,0.53c0.39,0.32,0.58,0.6,0.58,0.82
			c0,0.17-0.06,0.29-0.18,0.38c-0.09,0.07-0.19,0.1-0.3,0.1c-0.16,0-0.3-0.09-0.42-0.28c-0.2-0.3-0.47-0.61-0.79-0.92
			c-0.12-0.11-0.18-0.22-0.18-0.33c0-0.07,0.03-0.14,0.09-0.21C68.69,145.14,68.77,145.11,68.87,145.11z"/>
		<path d="M75.28,147.89L75,146.5c-0.01-0.08-0.02-0.16-0.02-0.23c0-0.26,0.1-0.44,0.3-0.55c0.12-0.07,0.25-0.1,0.41-0.1
			c0.38,0,0.61,0.2,0.69,0.59l0.28,1.39c0.91-0.19,1.55-0.33,1.92-0.42c0.1-0.03,0.18-0.04,0.27-0.04c0.27,0,0.46,0.11,0.58,0.33
			c0.05,0.11,0.08,0.22,0.08,0.34c0,0.32-0.19,0.53-0.56,0.62c-0.27,0.07-0.88,0.2-1.84,0.39l-0.19,0.04l0.32,1.57
			c0.47-0.1,1.45-0.3,2.93-0.61c0.11-0.02,0.19-0.03,0.26-0.03c0.28,0,0.47,0.12,0.58,0.35c0.04,0.1,0.07,0.21,0.07,0.33
			c0,0.28-0.14,0.47-0.42,0.58c-0.06,0.02-0.19,0.05-0.38,0.09c-0.52,0.1-1.36,0.28-2.52,0.53l-0.26,0.06l0.55,2.77
			c0.01,0.07,0.02,0.14,0.02,0.22c0,0.28-0.11,0.47-0.32,0.58c-0.12,0.06-0.26,0.09-0.42,0.09c-0.37,0-0.6-0.21-0.68-0.63
			l-0.54-2.75l-0.23,0.05l-1.89,0.4c-0.8,0.17-1.23,0.25-1.31,0.25c-0.27,0-0.46-0.12-0.56-0.36c-0.04-0.1-0.07-0.22-0.07-0.35
			c0-0.28,0.15-0.48,0.45-0.58c0.04-0.01,0.69-0.15,1.95-0.42l1.13-0.24l0.25-0.06l-0.3-1.58l-0.17,0.03
			c-1.34,0.25-2.08,0.37-2.25,0.37c-0.41,0-0.62-0.23-0.62-0.68c0-0.37,0.25-0.58,0.74-0.65C73.83,148.15,74.51,148.03,75.28,147.89
			z"/>
		<path d="M88.03,151.75c-1.04,1.06-2.12,1.91-3.23,2.56c-0.46,0.27-0.78,0.4-0.94,0.4c-0.2,0-0.35-0.09-0.45-0.27
			c-0.06-0.1-0.09-0.19-0.09-0.27c0-0.16,0.08-0.31,0.23-0.44c0.04-0.03,0.17-0.12,0.39-0.27c0.89-0.57,1.83-1.33,2.8-2.28
			c0.98-0.97,1.7-1.92,2.17-2.86c0.08-0.16,0.12-0.27,0.12-0.32c0-0.07-0.04-0.1-0.11-0.1c-0.05,0-0.13,0.01-0.25,0.03
			c-0.22,0.03-1.08,0.1-2.58,0.22c-0.26,0.02-0.48,0.04-0.67,0.05c-0.07,0.01-0.13,0.01-0.17,0.01c-0.3,0-0.5-0.11-0.62-0.33
			c-0.05-0.1-0.07-0.21-0.07-0.33c0-0.31,0.15-0.51,0.44-0.6c0.09-0.03,0.28-0.05,0.59-0.07c1.04-0.04,2.36-0.15,3.96-0.33
			c0.07-0.01,0.13-0.01,0.18-0.01c0.32,0,0.58,0.09,0.77,0.28c0.18,0.17,0.27,0.38,0.27,0.64c0,0.2-0.1,0.49-0.29,0.9
			c-0.38,0.79-0.94,1.64-1.68,2.55c1.22,0.76,2.17,1.47,2.85,2.14c0.31,0.3,0.46,0.58,0.46,0.83c0,0.19-0.07,0.36-0.22,0.51
			c-0.15,0.16-0.32,0.23-0.52,0.23c-0.2,0-0.37-0.07-0.52-0.22c-0.02-0.02-0.08-0.09-0.19-0.21
			C89.89,153.39,89.02,152.57,88.03,151.75z"/>
		<path d="M99.62,146.53l2.1-0.08l0.09-0.01c0.68,0,1.02,0.29,1.02,0.88c0,0.18-0.04,0.42-0.13,0.74c-0.73,2.58-2.23,4.62-4.48,6.13
			c-0.89,0.59-1.49,0.89-1.82,0.89c-0.17,0-0.3-0.07-0.4-0.22c-0.07-0.1-0.1-0.2-0.1-0.29c0-0.15,0.07-0.28,0.21-0.4
			c0.05-0.04,0.18-0.13,0.4-0.26c1.08-0.67,2.03-1.45,2.83-2.34c-0.53-0.55-1.01-0.99-1.45-1.34c-0.2-0.16-0.3-0.32-0.3-0.47
			c0-0.1,0.03-0.19,0.09-0.27c0.1-0.14,0.24-0.21,0.41-0.21c0.14,0,0.31,0.05,0.51,0.14c0.59,0.26,1.12,0.59,1.59,0.98
			c0.46-0.75,0.79-1.47,1-2.18c0.06-0.2,0.09-0.33,0.09-0.38c0-0.08-0.06-0.12-0.18-0.12c-0.01,0-0.02,0-0.03,0l-2.05,0.11
			c-0.77,1.02-1.55,1.8-2.36,2.34c-0.26,0.17-0.47,0.26-0.64,0.26c-0.15,0-0.27-0.06-0.35-0.18c-0.06-0.08-0.08-0.17-0.08-0.27
			c0-0.13,0.05-0.26,0.16-0.39c0.04-0.04,0.15-0.15,0.34-0.33c0.64-0.58,1.22-1.29,1.74-2.13c0.14-0.23,0.26-0.45,0.37-0.66
			c0.16-0.31,0.39-0.47,0.7-0.47c0.22,0,0.41,0.08,0.55,0.23C99.53,146.29,99.59,146.4,99.62,146.53z"/>
		<path d="M107.43,146.82c0.15,0,0.41,0.07,0.78,0.2c0.69,0.24,1.26,0.53,1.71,0.86c0.24,0.17,0.36,0.39,0.36,0.65
			c0,0.14-0.05,0.29-0.14,0.43c-0.14,0.21-0.33,0.32-0.56,0.32c-0.2,0-0.43-0.09-0.67-0.28c-0.62-0.49-1.18-0.88-1.68-1.16
			c-0.25-0.14-0.38-0.31-0.38-0.51C106.84,146.99,107.03,146.82,107.43,146.82z M114.55,148.59c0.12,0,0.25,0.04,0.36,0.13
			c0.15,0.11,0.23,0.26,0.23,0.45c0,0.15-0.06,0.32-0.18,0.5c-0.85,1.27-1.97,2.37-3.36,3.3c-1.16,0.77-2.35,1.32-3.59,1.66
			c-0.13,0.03-0.24,0.05-0.34,0.05c-0.31,0-0.54-0.14-0.67-0.43c-0.06-0.13-0.09-0.25-0.09-0.37c0-0.27,0.13-0.47,0.4-0.6
			c0.06-0.03,0.3-0.1,0.74-0.23c1.59-0.47,3.07-1.3,4.44-2.51c0.52-0.47,1.02-1,1.48-1.59C114.14,148.7,114.34,148.59,114.55,148.59
			z"/>
	</g>
</g>
<g id="ガイド" display="none">
</g>
</svg>
