<?xml version="1.0" encoding="utf-8"?>
<!-- Generator: Adobe Illustrator 25.4.1, SVG Export Plug-In . SVG Version: 6.00 Build 0)  -->
<svg version="1.1" xmlns="http://www.w3.org/2000/svg" xmlns:xlink="http://www.w3.org/1999/xlink" x="0px" y="0px"
	 viewBox="0 0 164.41 252.28" enable-background="new 0 0 164.41 252.28" xml:space="preserve">
<g id="地">
	<rect fill="#DCDDDD" width="164.41" height="252.28"/>
</g>
<g id="枠">
</g>
<g id="国旗">
	<g>
		<g>
			<rect x="25.51" y="60" fill="#040000" width="113.39" height="75.59"/>
			<polygon fill="#F5CF21" points="120.13,60 115.08,60 25.51,119.75 25.51,123.12 			"/>
			<polygon fill="#118749" points="25.51,60 25.51,119.75 115.08,60 			"/>
			<polygon fill="#F5CF21" points="44.28,135.59 49.33,135.59 138.9,75.84 138.9,72.47 			"/>
			<polygon fill="#004876" points="138.9,135.59 138.9,75.84 49.33,135.59 			"/>
		</g>
	</g>
</g>
<g id="国名">
	<g>
		<path d="M59.94,146.53l2.1-0.08l0.09-0.01c0.68,0,1.02,0.29,1.02,0.88c0,0.18-0.04,0.42-0.13,0.74c-0.73,2.58-2.23,4.62-4.48,6.13
			c-0.89,0.59-1.49,0.89-1.82,0.89c-0.17,0-0.3-0.07-0.4-0.22c-0.07-0.1-0.1-0.2-0.1-0.29c0-0.15,0.07-0.28,0.21-0.4
			c0.05-0.04,0.18-0.13,0.4-0.26c1.09-0.67,2.03-1.45,2.83-2.34c-0.53-0.55-1.01-0.99-1.45-1.34c-0.2-0.16-0.3-0.32-0.3-0.47
			c0-0.1,0.03-0.19,0.09-0.27c0.1-0.14,0.24-0.21,0.41-0.21c0.14,0,0.31,0.05,0.51,0.14c0.59,0.26,1.12,0.59,1.59,0.98
			c0.46-0.75,0.79-1.47,1-2.18c0.06-0.2,0.09-0.33,0.09-0.38c0-0.08-0.06-0.12-0.18-0.12c-0.01,0-0.02,0-0.03,0l-2.05,0.11
			c-0.77,1.02-1.55,1.8-2.36,2.34c-0.26,0.17-0.47,0.26-0.64,0.26c-0.15,0-0.27-0.06-0.35-0.18c-0.06-0.08-0.08-0.17-0.08-0.27
			c0-0.13,0.05-0.26,0.16-0.39c0.04-0.04,0.15-0.15,0.34-0.33c0.64-0.58,1.22-1.29,1.74-2.13c0.14-0.23,0.26-0.45,0.37-0.66
			c0.16-0.31,0.39-0.47,0.7-0.47c0.22,0,0.41,0.08,0.55,0.23C59.84,146.29,59.9,146.4,59.94,146.53z"/>
		<path d="M67.74,146.82c0.15,0,0.41,0.07,0.78,0.2c0.69,0.24,1.26,0.53,1.71,0.86c0.24,0.17,0.35,0.39,0.35,0.65
			c0,0.14-0.05,0.29-0.14,0.43c-0.14,0.21-0.33,0.32-0.56,0.32c-0.2,0-0.43-0.09-0.67-0.28c-0.62-0.49-1.18-0.88-1.68-1.16
			c-0.25-0.14-0.38-0.31-0.38-0.51C67.15,146.99,67.35,146.82,67.74,146.82z M74.86,148.59c0.13,0,0.25,0.04,0.36,0.13
			c0.15,0.11,0.23,0.26,0.23,0.45c0,0.15-0.06,0.32-0.18,0.5c-0.85,1.27-1.97,2.37-3.36,3.3c-1.16,0.77-2.35,1.32-3.59,1.66
			c-0.13,0.03-0.24,0.05-0.34,0.05c-0.31,0-0.54-0.14-0.67-0.43c-0.06-0.13-0.09-0.25-0.09-0.37c0-0.27,0.13-0.47,0.4-0.6
			c0.06-0.03,0.3-0.1,0.74-0.23c1.59-0.47,3.06-1.3,4.43-2.51c0.52-0.47,1.02-1,1.48-1.59C74.46,148.7,74.65,148.59,74.86,148.59z"
			/>
		<path d="M83.35,148.43v-1.89c0-0.19,0.06-0.34,0.17-0.45c0.13-0.13,0.31-0.19,0.53-0.19c0.31,0,0.52,0.11,0.64,0.33
			c0.05,0.09,0.07,0.2,0.07,0.32v1.78c0.6-0.04,1.11-0.08,1.55-0.12c0.06-0.01,0.11-0.01,0.16-0.01c0.43,0,0.64,0.21,0.64,0.63
			c0,0.33-0.11,0.54-0.34,0.62c-0.07,0.03-0.21,0.05-0.4,0.06l-1.14,0.08l-0.35,0.03l-0.13,0c-0.07,1.3-0.25,2.35-0.56,3.13
			c-0.39,0.97-1.06,1.78-2,2.43c-0.19,0.13-0.37,0.19-0.53,0.19c-0.16,0-0.29-0.06-0.38-0.18c-0.08-0.11-0.13-0.22-0.13-0.34
			c0-0.12,0.04-0.23,0.12-0.33c0.04-0.05,0.17-0.17,0.39-0.35c0.73-0.6,1.22-1.47,1.47-2.62c0.1-0.48,0.17-1.08,0.21-1.8l-0.21,0.01
			c-0.72,0.05-1.39,0.11-2.01,0.15l-0.17,0.01v1.74c0,0.14-0.03,0.26-0.1,0.36c-0.12,0.19-0.32,0.28-0.59,0.28
			c-0.3,0-0.5-0.11-0.61-0.33c-0.05-0.09-0.07-0.19-0.07-0.32v-1.63l-0.12,0.01c-0.82,0.05-1.32,0.09-1.5,0.1
			c-0.1,0.01-0.18,0.01-0.22,0.01c-0.44,0-0.65-0.22-0.65-0.67c0-0.28,0.1-0.47,0.3-0.58c0.09-0.05,0.23-0.08,0.4-0.09
			c0.05,0,0.34-0.02,0.85-0.04l0.77-0.04l0.18-0.01V147c0-0.16,0.04-0.29,0.12-0.39c0.12-0.16,0.31-0.24,0.56-0.24
			c0.3,0,0.51,0.11,0.62,0.33c0.05,0.09,0.07,0.19,0.07,0.31v1.61C81.86,148.55,82.66,148.49,83.35,148.43z M85.27,145.76
			c0.21,0,0.54,0.21,1,0.62c0.39,0.35,0.58,0.63,0.58,0.83c0,0.15-0.06,0.27-0.19,0.38c-0.1,0.08-0.21,0.12-0.34,0.12
			c-0.17,0-0.31-0.1-0.43-0.29c-0.22-0.36-0.48-0.7-0.79-1.01c-0.1-0.11-0.15-0.22-0.15-0.33
			C84.95,145.87,85.06,145.76,85.27,145.76z M86.25,144.87c0.22,0,0.54,0.18,0.96,0.53c0.39,0.33,0.58,0.6,0.58,0.83
			c0,0.16-0.06,0.28-0.18,0.38c-0.09,0.07-0.19,0.1-0.3,0.1c-0.16,0-0.3-0.09-0.42-0.28c-0.2-0.3-0.47-0.61-0.79-0.92
			c-0.12-0.11-0.18-0.23-0.18-0.33c0-0.07,0.03-0.14,0.09-0.2C86.07,144.9,86.15,144.87,86.25,144.87z"/>
		<path d="M97.61,151.45c0.21,0,0.38,0.05,0.5,0.14c0.17,0.13,0.25,0.31,0.25,0.54c0,0.31-0.13,0.52-0.38,0.63
			c-0.08,0.03-0.33,0.06-0.75,0.08c-2.44,0.12-5.03,0.3-7.77,0.54c-0.08,0.01-0.15,0.01-0.19,0.01c-0.44,0-0.65-0.23-0.65-0.7
			c0-0.33,0.16-0.54,0.47-0.64c0.07-0.02,0.33-0.04,0.79-0.08C94.54,151.62,97.12,151.45,97.61,151.45z M95.31,147.45
			c0.18,0,0.34,0.06,0.47,0.18c0.13,0.12,0.2,0.29,0.2,0.5c0,0.39-0.24,0.62-0.71,0.69c-0.56,0.08-1.31,0.17-2.23,0.24
			c-0.86,0.07-1.42,0.11-1.69,0.11c-0.23,0-0.4-0.07-0.53-0.2c-0.11-0.12-0.16-0.27-0.16-0.46c0-0.31,0.12-0.52,0.36-0.62
			c0.08-0.04,0.27-0.06,0.57-0.07c1.14-0.03,2.26-0.14,3.35-0.33C95.13,147.46,95.25,147.45,95.31,147.45z"/>
		<path d="M108.34,146.53c0.24,0,0.46,0.06,0.66,0.18c0.27,0.17,0.4,0.41,0.4,0.72c0,0.2-0.08,0.44-0.25,0.74
			c-0.47,0.82-1.06,1.53-1.76,2.15c-0.39,0.34-0.7,0.51-0.91,0.51c-0.15,0-0.28-0.07-0.38-0.2c-0.07-0.1-0.11-0.19-0.11-0.28
			c0-0.15,0.09-0.31,0.28-0.49c0.56-0.54,0.99-1.08,1.28-1.63c0.08-0.15,0.12-0.25,0.12-0.3c0-0.06-0.05-0.09-0.15-0.09
			c-0.09,0-0.21,0-0.35,0.02c-0.08,0.01-0.33,0.02-0.75,0.05c-0.31,0.02-1.66,0.13-4.02,0.33c-0.8,0.07-1.23,0.1-1.29,0.1
			c-0.47,0-0.7-0.22-0.7-0.65c0-0.37,0.19-0.59,0.56-0.66c0.04-0.01,1.36-0.1,3.94-0.28C107.14,146.6,108.29,146.53,108.34,146.53z
			 M104.77,148.82c0.19,0,0.36,0.06,0.51,0.18c0.09,0.07,0.15,0.15,0.18,0.24c0.04,0.11,0.06,0.3,0.06,0.57
			c0,0.99-0.07,1.76-0.22,2.33c-0.32,1.22-1.05,2.18-2.18,2.86c-0.18,0.11-0.34,0.16-0.48,0.16c-0.17,0-0.29-0.06-0.38-0.17
			c-0.08-0.1-0.12-0.21-0.12-0.33c0-0.14,0.05-0.27,0.16-0.4c0.04-0.06,0.16-0.17,0.36-0.33c0.7-0.57,1.13-1.33,1.31-2.31
			c0.08-0.48,0.13-1.09,0.13-1.82l-0.01-0.3c0-0.28,0.1-0.47,0.31-0.59C104.51,148.85,104.64,148.82,104.77,148.82z"/>
	</g>
</g>
<g id="ガイド" display="none">
</g>
</svg>
