<?xml version="1.0" encoding="utf-8"?>
<!-- Generator: Adobe Illustrator 25.4.1, SVG Export Plug-In . SVG Version: 6.00 Build 0)  -->
<svg version="1.1" xmlns="http://www.w3.org/2000/svg" xmlns:xlink="http://www.w3.org/1999/xlink" x="0px" y="0px"
	 viewBox="0 0 164.41 252.28" enable-background="new 0 0 164.41 252.28" xml:space="preserve">
<g id="地">
	<rect fill="#DCDDDD" width="164.41" height="252.28"/>
</g>
<g id="枠">
</g>
<g id="国旗">
	<g>
		<g>
			<rect x="25.51" y="60" fill="#FFFFFF" width="113.39" height="75.59"/>
			<polygon fill="#C8152A" points="82.2,97.8 138.9,97.8 138.9,135.59 25.51,135.59 			"/>
			<polygon fill="#00477E" points="82.2,97.8 25.51,60 25.51,135.59 			"/>
		</g>
	</g>
</g>
<g id="国名">
	<g>
		<path d="M70.27,149.51v-1.35c0-0.09,0.01-0.18,0.04-0.25c-1.17,0.34-1.9,0.5-2.19,0.5c-0.33,0-0.5-0.17-0.5-0.5
			c0-0.17,0.07-0.3,0.2-0.39c0.05-0.03,0.22-0.09,0.51-0.17c0.97-0.27,1.95-0.66,2.92-1.17c0.27-0.14,0.49-0.27,0.68-0.4
			c0.17-0.11,0.33-0.16,0.49-0.16c0.23,0,0.42,0.1,0.57,0.29c0.1,0.13,0.14,0.27,0.14,0.44c0,0.24-0.13,0.44-0.39,0.59
			c-0.36,0.21-0.85,0.43-1.46,0.65c0.24,0.12,0.37,0.31,0.37,0.56v1.26l0.23-0.02l1.4-0.09c1.02-0.06,1.54-0.09,1.57-0.09
			c0.43,0,0.64,0.21,0.64,0.63c0,0.28-0.08,0.47-0.24,0.56c-0.11,0.06-0.32,0.1-0.65,0.12c-0.84,0.04-1.82,0.09-2.96,0.17
			c-0.07,0.97-0.24,1.76-0.53,2.37c-0.37,0.79-0.94,1.44-1.71,1.96c-0.2,0.13-0.38,0.2-0.54,0.2c-0.18,0-0.32-0.08-0.43-0.24
			c-0.07-0.1-0.1-0.2-0.1-0.29c0-0.16,0.11-0.34,0.33-0.53c0.65-0.56,1.09-1.21,1.32-1.93c0.13-0.39,0.2-0.88,0.24-1.45
			c-1.33,0.11-2.4,0.2-3.19,0.28c-0.08,0.01-0.15,0.01-0.19,0.01c-0.19,0-0.34-0.05-0.47-0.14c-0.16-0.12-0.24-0.3-0.24-0.54
			c0-0.31,0.15-0.5,0.45-0.58c0.06-0.01,0.19-0.03,0.39-0.04C68.68,149.63,69.77,149.55,70.27,149.51z"/>
		<path d="M81.35,150.22l-0.1,0c-0.78,0.05-1.24,0.07-1.36,0.07c-0.41,0-0.62-0.2-0.62-0.6c0-0.27,0.14-0.45,0.42-0.52
			c0.06-0.01,0.21-0.03,0.46-0.04c1.55-0.09,2.78-0.2,3.68-0.34c0.06-0.01,0.1-0.01,0.14-0.01c0.29,0,0.47,0.13,0.55,0.39
			c0.02,0.06,0.03,0.13,0.03,0.21c0,0.34-0.18,0.53-0.53,0.58c-0.34,0.04-0.8,0.1-1.4,0.15v2.38l0.21-0.01l1.45-0.08
			c0.78-0.04,1.18-0.07,1.2-0.07c0.18,0,0.32,0.05,0.43,0.16c0.11,0.11,0.17,0.25,0.17,0.44c0,0.28-0.11,0.46-0.33,0.55
			c-0.07,0.03-0.29,0.05-0.66,0.06c-0.77,0.03-2.49,0.13-5.15,0.32c-0.79,0.06-1.2,0.08-1.23,0.08c-0.25,0-0.43-0.1-0.54-0.3
			c-0.05-0.09-0.07-0.2-0.07-0.32c0-0.27,0.13-0.45,0.4-0.54c0.07-0.02,0.75-0.08,2.03-0.17l0.62-0.04l0.22-0.01V150.22z"/>
		<path d="M95.25,152.4c0.12-0.82,0.27-2.01,0.44-3.55c0.01-0.08,0.01-0.13,0.01-0.16c0-0.1-0.06-0.15-0.17-0.15
			c-0.05,0-0.17,0.01-0.37,0.03c-0.27,0.03-0.86,0.07-1.76,0.14c-1.02,0.08-1.88,0.16-2.59,0.22c-0.08,0.01-0.14,0.01-0.18,0.01
			c-0.21,0-0.37-0.07-0.49-0.19c-0.1-0.11-0.15-0.25-0.15-0.43c0-0.32,0.12-0.53,0.35-0.64c0.08-0.04,0.29-0.07,0.62-0.09
			c3.06-0.25,4.71-0.39,4.93-0.41c0.07-0.01,0.12-0.01,0.17-0.01c0.47,0,0.8,0.2,0.98,0.6c0.07,0.15,0.1,0.31,0.1,0.48
			c0,0.05-0.01,0.19-0.04,0.42c-0.21,1.72-0.36,2.97-0.47,3.75c0.24,0.1,0.37,0.3,0.37,0.6c0,0.3-0.13,0.49-0.39,0.59
			c-0.1,0.04-0.31,0.06-0.63,0.08c-1.03,0.05-2.79,0.17-5.26,0.35c-0.08,0.01-0.13,0.01-0.17,0.01c-0.43,0-0.64-0.22-0.64-0.67
			c0-0.39,0.2-0.61,0.6-0.66C90.95,152.66,92.52,152.55,95.25,152.4z"/>
	</g>
</g>
<g id="ガイド" display="none">
</g>
</svg>
