<?xml version="1.0" encoding="utf-8"?>
<!-- Generator: Adobe Illustrator 25.4.1, SVG Export Plug-In . SVG Version: 6.00 Build 0)  -->
<svg version="1.1" xmlns="http://www.w3.org/2000/svg" xmlns:xlink="http://www.w3.org/1999/xlink" x="0px" y="0px"
	 viewBox="0 0 164.41 252.28" enable-background="new 0 0 164.41 252.28" xml:space="preserve">
<g id="地">
	<rect fill="#DCDDDD" width="164.41" height="252.28"/>
</g>
<g id="枠">
</g>
<g id="国旗">
	<g>
		<g>
			<rect x="25.51" y="60" fill="#F5CF21" width="113.39" height="75.59"/>
			<rect x="25.51" y="60" fill="#004876" width="37.8" height="75.59"/>
			<rect x="101.1" y="60" fill="#C8152A" width="37.8" height="75.59"/>
		</g>
	</g>
</g>
<g id="国名">
	<g>
		<path d="M70.27,149.51v-1.35c0-0.09,0.01-0.18,0.04-0.25c-1.17,0.34-1.9,0.5-2.19,0.5c-0.33,0-0.5-0.17-0.5-0.5
			c0-0.17,0.07-0.3,0.2-0.39c0.05-0.03,0.22-0.09,0.51-0.17c0.97-0.27,1.95-0.66,2.92-1.17c0.27-0.14,0.49-0.27,0.68-0.4
			c0.17-0.11,0.33-0.16,0.49-0.16c0.23,0,0.42,0.1,0.57,0.29c0.1,0.13,0.14,0.27,0.14,0.44c0,0.24-0.13,0.44-0.39,0.59
			c-0.36,0.21-0.85,0.43-1.46,0.65c0.24,0.12,0.37,0.31,0.37,0.56v1.26l0.23-0.02l1.4-0.09c1.02-0.06,1.54-0.09,1.57-0.09
			c0.43,0,0.64,0.21,0.64,0.63c0,0.28-0.08,0.47-0.24,0.56c-0.11,0.06-0.32,0.1-0.65,0.12c-0.84,0.04-1.82,0.09-2.96,0.17
			c-0.07,0.97-0.24,1.76-0.53,2.37c-0.37,0.79-0.94,1.44-1.71,1.96c-0.2,0.13-0.38,0.2-0.54,0.2c-0.18,0-0.32-0.08-0.43-0.24
			c-0.07-0.1-0.1-0.2-0.1-0.29c0-0.16,0.11-0.34,0.33-0.53c0.65-0.56,1.09-1.21,1.32-1.93c0.13-0.39,0.2-0.88,0.24-1.45
			c-1.33,0.11-2.4,0.2-3.19,0.28c-0.08,0.01-0.15,0.01-0.19,0.01c-0.19,0-0.34-0.05-0.47-0.14c-0.16-0.12-0.24-0.3-0.24-0.54
			c0-0.31,0.15-0.5,0.45-0.58c0.06-0.01,0.19-0.03,0.39-0.04C68.68,149.63,69.77,149.55,70.27,149.51z"/>
		<path d="M80.7,149.9l-0.02-0.09l-0.14-0.6c-0.13-0.51-0.19-0.79-0.19-0.86c0-0.2,0.08-0.34,0.24-0.44
			c0.13-0.07,0.26-0.11,0.41-0.11c0.31,0,0.51,0.18,0.59,0.54c0.01,0.07,0.04,0.19,0.08,0.34c0.07,0.25,0.14,0.53,0.21,0.84
			l0.03,0.11l0.21-0.04c1.35-0.32,2.2-0.52,2.55-0.61c0.12-0.03,0.22-0.04,0.31-0.04c0.2,0,0.38,0.05,0.52,0.16
			c0.2,0.15,0.29,0.35,0.29,0.61c0,0.42-0.3,1.02-0.91,1.8c-0.44,0.56-0.78,0.85-1.03,0.85c-0.12,0-0.22-0.04-0.3-0.13
			c-0.09-0.1-0.13-0.2-0.13-0.3c0-0.11,0.06-0.24,0.19-0.4c0.28-0.35,0.5-0.71,0.65-1.07c0.03-0.07,0.05-0.12,0.05-0.15
			c0-0.04-0.02-0.06-0.07-0.06c-0.06,0-0.69,0.15-1.88,0.44l-0.19,0.04l0.07,0.27c0.51,2.06,0.79,3.18,0.84,3.37
			c0.03,0.1,0.04,0.19,0.04,0.26c0,0.25-0.11,0.42-0.33,0.53c-0.1,0.05-0.21,0.07-0.34,0.07c-0.25,0-0.43-0.13-0.53-0.38
			c-0.01-0.03-0.2-0.78-0.55-2.24l-0.32-1.28l-0.07-0.3c-0.18,0.04-0.41,0.1-0.67,0.17c-0.75,0.19-1.18,0.29-1.29,0.29
			c-0.17,0-0.3-0.05-0.39-0.15c-0.1-0.11-0.15-0.26-0.15-0.44c0-0.31,0.2-0.51,0.61-0.6C79.57,150.17,80.11,150.05,80.7,149.9z"/>
		<path d="M93.27,150.28v4.34c0,0.21-0.07,0.37-0.2,0.48c-0.13,0.11-0.29,0.16-0.5,0.16c-0.47,0-0.71-0.21-0.71-0.64v-8.28
			c0-0.42,0.24-0.63,0.71-0.63c0.31,0,0.52,0.11,0.63,0.32c0.05,0.09,0.07,0.2,0.07,0.32v2.72c1.32,0.34,2.34,0.76,3.07,1.24
			c0.32,0.21,0.48,0.46,0.48,0.76c0,0.2-0.07,0.36-0.2,0.5c-0.14,0.15-0.31,0.23-0.52,0.23c-0.18,0-0.4-0.09-0.66-0.27
			C94.83,151.1,94.11,150.69,93.27,150.28z M95.68,146.86c0.21,0,0.54,0.21,1,0.62c0.39,0.35,0.58,0.63,0.58,0.83
			c0,0.15-0.06,0.27-0.19,0.37c-0.1,0.08-0.22,0.12-0.34,0.12c-0.17,0-0.31-0.1-0.43-0.29c-0.21-0.35-0.48-0.69-0.79-1.01
			c-0.1-0.11-0.15-0.22-0.15-0.33C95.36,146.97,95.47,146.86,95.68,146.86z M96.83,145.99c0.22,0,0.54,0.18,0.96,0.53
			c0.39,0.32,0.58,0.6,0.58,0.83c0,0.16-0.06,0.28-0.18,0.38c-0.09,0.07-0.19,0.1-0.3,0.1c-0.16,0-0.3-0.09-0.42-0.28
			c-0.2-0.31-0.47-0.61-0.79-0.92c-0.12-0.11-0.18-0.22-0.18-0.33c0-0.07,0.03-0.14,0.09-0.2
			C96.65,146.03,96.73,145.99,96.83,145.99z"/>
	</g>
</g>
<g id="ガイド" display="none">
</g>
</svg>
