<?xml version="1.0" encoding="utf-8"?>
<!-- Generator: Adobe Illustrator 25.4.1, SVG Export Plug-In . SVG Version: 6.00 Build 0)  -->
<svg version="1.1" xmlns="http://www.w3.org/2000/svg" xmlns:xlink="http://www.w3.org/1999/xlink" x="0px" y="0px"
	 viewBox="0 0 164.41 252.28" enable-background="new 0 0 164.41 252.28" xml:space="preserve">
<g id="地">
	<rect fill="#DCDDDD" width="164.41" height="252.28"/>
</g>
<g id="枠">
</g>
<g id="国旗">
	<g>
		<g>
			<rect x="25.51" y="60" fill="#E7211A" width="113.39" height="75.59"/>
			<circle fill="#FFFFFF" cx="82.2" cy="97.8" r="27.65"/>
			<path fill="#E7211A" d="M68.18,97.62c0-11.02,8.93-19.95,19.95-19.95c3.91,0,7.55,1.13,10.63,3.07
				c-4.29-4.25-10.2-6.88-16.71-6.88c-13.12,0-23.75,10.63-23.75,23.75c0,13.12,10.63,23.75,23.75,23.75
				c6.52,0,12.42-2.63,16.71-6.88c-3.08,1.94-6.72,3.07-10.63,3.07C77.11,117.57,68.18,108.64,68.18,97.62z"/>
			<polygon fill="#E7211A" points="86.53,83.06 93.18,92.21 103.94,88.72 97.29,97.87 103.94,107.03 93.18,103.53 86.53,112.68 
				86.53,101.37 75.77,97.87 86.53,94.37 			"/>
		</g>
	</g>
</g>
<g id="国名">
	<g>
		<path d="M58.93,149.51v-1.35c0-0.09,0.01-0.18,0.04-0.25c-1.17,0.34-1.9,0.5-2.19,0.5c-0.33,0-0.5-0.17-0.5-0.5
			c0-0.17,0.07-0.3,0.2-0.39c0.05-0.03,0.22-0.09,0.51-0.17c0.97-0.27,1.95-0.66,2.92-1.17c0.27-0.14,0.49-0.27,0.68-0.4
			c0.17-0.11,0.33-0.16,0.49-0.16c0.23,0,0.42,0.1,0.57,0.29c0.1,0.13,0.14,0.27,0.14,0.44c0,0.24-0.13,0.44-0.39,0.59
			c-0.36,0.21-0.85,0.43-1.46,0.65c0.24,0.12,0.37,0.31,0.37,0.56v1.26l0.23-0.02l1.4-0.09c1.02-0.06,1.54-0.09,1.57-0.09
			c0.43,0,0.64,0.21,0.64,0.63c0,0.28-0.08,0.47-0.24,0.56c-0.11,0.06-0.32,0.1-0.65,0.12c-0.84,0.04-1.82,0.09-2.96,0.17
			c-0.07,0.97-0.24,1.76-0.53,2.37c-0.37,0.79-0.94,1.44-1.71,1.96c-0.2,0.13-0.38,0.2-0.54,0.2c-0.18,0-0.32-0.08-0.43-0.24
			c-0.07-0.1-0.1-0.2-0.1-0.29c0-0.16,0.11-0.34,0.33-0.53c0.65-0.56,1.09-1.21,1.32-1.93c0.13-0.39,0.2-0.88,0.24-1.45
			c-1.33,0.11-2.4,0.2-3.19,0.28c-0.08,0.01-0.15,0.01-0.19,0.01c-0.19,0-0.34-0.05-0.47-0.14c-0.16-0.12-0.24-0.3-0.24-0.54
			c0-0.31,0.15-0.5,0.45-0.58c0.06-0.01,0.19-0.03,0.39-0.04C57.34,149.63,58.43,149.55,58.93,149.51z"/>
		<path d="M71.21,152.74c0.21-1.23,0.31-1.97,0.31-2.21c0-0.11-0.05-0.16-0.14-0.16c-0.04,0-0.1,0-0.18,0.01
			c-0.25,0.03-0.69,0.06-1.32,0.11c-0.38,0.03-0.67,0.05-0.88,0.08c-0.06,0.01-0.11,0.01-0.15,0.01c-0.19,0-0.34-0.07-0.45-0.22
			c-0.07-0.1-0.11-0.23-0.11-0.38c0-0.29,0.13-0.48,0.39-0.56c0.06-0.02,0.19-0.03,0.39-0.04l1.28-0.1c0.96-0.07,1.47-0.1,1.54-0.1
			c0.38,0,0.66,0.15,0.82,0.44c0.07,0.14,0.11,0.29,0.11,0.46c0,0.07-0.01,0.17-0.03,0.32c-0.02,0.13-0.05,0.34-0.09,0.63
			c-0.07,0.47-0.14,0.95-0.21,1.44l-0.03,0.21l0.12-0.01c0.86-0.05,1.34-0.08,1.44-0.09c0.04,0,0.07-0.01,0.08-0.01
			c0.13,0,0.25,0.04,0.34,0.12c0.14,0.11,0.21,0.27,0.21,0.48c0,0.32-0.14,0.51-0.42,0.57c-0.04,0.01-1.3,0.09-3.77,0.24
			c-2.03,0.12-3.07,0.18-3.1,0.18c-0.23,0-0.39-0.09-0.49-0.28c-0.04-0.09-0.07-0.19-0.07-0.31c0-0.21,0.07-0.37,0.22-0.48
			c0.11-0.08,0.31-0.13,0.6-0.13c0.06,0,1.15-0.07,3.28-0.19L71.21,152.74z"/>
		<path d="M86.27,151.45c0.21,0,0.38,0.05,0.5,0.14c0.17,0.13,0.25,0.31,0.25,0.54c0,0.31-0.13,0.52-0.38,0.63
			c-0.08,0.03-0.33,0.06-0.75,0.08c-2.44,0.12-5.03,0.3-7.77,0.54c-0.08,0.01-0.15,0.01-0.19,0.01c-0.44,0-0.65-0.23-0.65-0.7
			c0-0.33,0.16-0.54,0.47-0.64c0.07-0.02,0.33-0.04,0.79-0.08C83.2,151.62,85.78,151.45,86.27,151.45z M83.97,147.45
			c0.18,0,0.34,0.06,0.47,0.18c0.13,0.12,0.2,0.29,0.2,0.5c0,0.39-0.24,0.62-0.71,0.69c-0.56,0.08-1.31,0.17-2.23,0.24
			c-0.86,0.07-1.42,0.11-1.69,0.11c-0.23,0-0.4-0.07-0.53-0.2c-0.11-0.12-0.16-0.27-0.16-0.46c0-0.31,0.12-0.52,0.36-0.62
			c0.08-0.04,0.27-0.06,0.57-0.07c1.14-0.03,2.26-0.14,3.35-0.33C83.79,147.46,83.91,147.45,83.97,147.45z"/>
		<path d="M89.59,148.77c0.23,0,0.56,0.08,1.01,0.24c0.52,0.19,0.95,0.41,1.3,0.66c0.24,0.18,0.36,0.39,0.36,0.65
			c0,0.16-0.06,0.31-0.17,0.45c-0.14,0.19-0.33,0.29-0.56,0.29c-0.17,0-0.35-0.08-0.56-0.25c-0.42-0.34-0.95-0.7-1.61-1.07
			c-0.22-0.13-0.33-0.28-0.33-0.48c0-0.09,0.02-0.17,0.07-0.26C89.19,148.85,89.35,148.77,89.59,148.77z M97.46,148.4
			c0.11,0,0.21,0.03,0.32,0.09c0.18,0.11,0.28,0.27,0.28,0.48c0,0.21-0.17,0.6-0.52,1.18c-0.57,0.96-1.35,1.83-2.34,2.63
			c-1.18,0.95-2.48,1.67-3.92,2.16c-0.16,0.06-0.3,0.08-0.41,0.08c-0.29,0-0.51-0.13-0.64-0.4c-0.07-0.13-0.1-0.26-0.1-0.38
			c0-0.28,0.13-0.48,0.38-0.62c0.04-0.02,0.28-0.11,0.72-0.26c1.2-0.42,2.31-1.04,3.35-1.87c1-0.79,1.77-1.68,2.31-2.67
			C97.04,148.54,97.23,148.4,97.46,148.4z M90.93,146.26c0.34,0,0.9,0.24,1.68,0.72c0.24,0.14,0.41,0.26,0.52,0.35
			c0.21,0.17,0.32,0.38,0.32,0.61c0,0.16-0.06,0.3-0.17,0.44c-0.17,0.2-0.36,0.3-0.58,0.3c-0.19,0-0.38-0.1-0.58-0.3
			c-0.33-0.34-0.81-0.73-1.45-1.2c-0.2-0.14-0.29-0.3-0.29-0.46c0-0.09,0.03-0.18,0.08-0.26C90.56,146.33,90.71,146.26,90.93,146.26
			z M96.07,145.94c0.21,0,0.54,0.21,0.99,0.62c0.39,0.35,0.58,0.63,0.58,0.84c0,0.14-0.06,0.27-0.19,0.37
			c-0.1,0.08-0.21,0.12-0.34,0.12c-0.17,0-0.31-0.1-0.43-0.29c-0.21-0.35-0.48-0.69-0.79-1.01c-0.1-0.11-0.16-0.22-0.16-0.33
			C95.75,146.05,95.85,145.94,96.07,145.94z M97.22,145.11c0.22,0,0.54,0.18,0.96,0.53c0.39,0.32,0.58,0.6,0.58,0.82
			c0,0.17-0.06,0.29-0.18,0.38c-0.09,0.07-0.19,0.1-0.3,0.1c-0.16,0-0.3-0.09-0.42-0.28c-0.2-0.3-0.47-0.61-0.79-0.92
			c-0.12-0.11-0.18-0.22-0.18-0.33c0-0.07,0.03-0.14,0.09-0.21C97.03,145.14,97.12,145.11,97.22,145.11z"/>
		<path d="M108.34,146.53c0.24,0,0.46,0.06,0.66,0.18c0.27,0.17,0.4,0.41,0.4,0.72c0,0.2-0.08,0.44-0.25,0.74
			c-0.47,0.82-1.06,1.53-1.76,2.15c-0.39,0.34-0.7,0.51-0.91,0.51c-0.15,0-0.28-0.07-0.38-0.2c-0.07-0.1-0.11-0.19-0.11-0.28
			c0-0.15,0.09-0.31,0.28-0.49c0.56-0.54,0.99-1.08,1.28-1.63c0.08-0.15,0.12-0.25,0.12-0.3c0-0.06-0.05-0.09-0.15-0.09
			c-0.09,0-0.21,0-0.35,0.02c-0.08,0.01-0.33,0.02-0.75,0.05c-0.31,0.02-1.66,0.13-4.02,0.33c-0.8,0.07-1.23,0.1-1.29,0.1
			c-0.47,0-0.7-0.22-0.7-0.65c0-0.37,0.19-0.59,0.56-0.66c0.04-0.01,1.36-0.1,3.94-0.28C107.14,146.6,108.29,146.53,108.34,146.53z
			 M104.77,148.82c0.19,0,0.36,0.06,0.51,0.18c0.09,0.07,0.15,0.15,0.18,0.24c0.04,0.11,0.06,0.3,0.06,0.57
			c0,0.99-0.07,1.76-0.22,2.33c-0.32,1.22-1.05,2.18-2.18,2.86c-0.18,0.11-0.34,0.16-0.48,0.16c-0.17,0-0.29-0.06-0.38-0.17
			c-0.08-0.1-0.12-0.21-0.12-0.33c0-0.14,0.05-0.27,0.16-0.4c0.04-0.06,0.16-0.17,0.36-0.33c0.7-0.57,1.13-1.33,1.31-2.31
			c0.08-0.48,0.13-1.09,0.13-1.82l-0.01-0.3c0-0.28,0.1-0.47,0.31-0.59C104.51,148.85,104.64,148.82,104.77,148.82z"/>
	</g>
</g>
<g id="ガイド" display="none">
</g>
</svg>
