<?xml version="1.0" encoding="utf-8"?>
<!-- Generator: Adobe Illustrator 25.4.1, SVG Export Plug-In . SVG Version: 6.00 Build 0)  -->
<svg version="1.1" xmlns="http://www.w3.org/2000/svg" xmlns:xlink="http://www.w3.org/1999/xlink" x="0px" y="0px"
	 viewBox="0 0 164.41 252.28" enable-background="new 0 0 164.41 252.28" xml:space="preserve">
<g id="地">
	<rect fill="#DCDDDD" width="164.41" height="252.28"/>
</g>
<g id="枠">
</g>
<g id="国旗">
	<g>
		<g>
			<rect x="25.51" y="60" fill="#FFFFFF" width="113.39" height="75.59"/>
			<rect x="25.51" y="97.8" fill="#D0102A" width="113.39" height="37.8"/>
			<rect x="25.51" y="60" fill="#004876" width="37.74" height="37.79"/>
			<polygon fill="#FFFFFF" points="44.13,67.6 46.77,75.7 55.28,75.7 48.39,80.7 51.02,88.8 44.13,83.8 37.24,88.8 39.88,80.7 
				32.98,75.7 41.5,75.7 			"/>
		</g>
	</g>
</g>
<g id="国名">
	<g>
		<path d="M75.94,149.51v-1.35c0-0.09,0.01-0.18,0.04-0.25c-1.17,0.34-1.9,0.5-2.19,0.5c-0.33,0-0.5-0.17-0.5-0.5
			c0-0.17,0.07-0.3,0.2-0.39c0.05-0.03,0.22-0.09,0.51-0.17c0.97-0.27,1.95-0.66,2.92-1.17c0.27-0.14,0.49-0.27,0.68-0.4
			c0.17-0.11,0.33-0.16,0.49-0.16c0.23,0,0.42,0.1,0.57,0.29c0.1,0.13,0.14,0.27,0.14,0.44c0,0.24-0.13,0.44-0.39,0.59
			c-0.36,0.21-0.85,0.43-1.46,0.65c0.24,0.12,0.37,0.31,0.37,0.56v1.26l0.23-0.02l1.4-0.09c1.02-0.06,1.54-0.09,1.57-0.09
			c0.43,0,0.64,0.21,0.64,0.63c0,0.28-0.08,0.47-0.24,0.56c-0.11,0.06-0.32,0.1-0.65,0.12c-0.84,0.04-1.82,0.09-2.96,0.17
			c-0.07,0.97-0.24,1.76-0.53,2.37c-0.37,0.79-0.94,1.44-1.71,1.96c-0.2,0.13-0.38,0.2-0.54,0.2c-0.18,0-0.32-0.08-0.43-0.24
			c-0.07-0.1-0.1-0.2-0.1-0.29c0-0.16,0.11-0.34,0.33-0.53c0.65-0.56,1.09-1.21,1.32-1.93c0.13-0.39,0.2-0.88,0.24-1.45
			c-1.33,0.11-2.4,0.2-3.19,0.28c-0.08,0.01-0.15,0.01-0.19,0.01c-0.19,0-0.34-0.05-0.47-0.14c-0.16-0.12-0.24-0.3-0.24-0.54
			c0-0.31,0.15-0.5,0.45-0.58c0.06-0.01,0.19-0.03,0.39-0.04C74.35,149.63,75.44,149.55,75.94,149.51z"/>
		<path d="M86.5,146.75v3.86c0,0.2-0.06,0.35-0.19,0.46c-0.13,0.11-0.3,0.17-0.53,0.17c-0.31,0-0.52-0.11-0.63-0.32
			c-0.05-0.09-0.07-0.2-0.07-0.32v-3.86c0-0.26,0.1-0.44,0.31-0.55c0.12-0.06,0.25-0.09,0.39-0.09c0.24,0,0.43,0.07,0.56,0.21
			C86.45,146.43,86.5,146.57,86.5,146.75z M90.48,146.25v3.41c0,1.12-0.13,2.07-0.4,2.85c-0.35,1.01-1,1.85-1.95,2.54
			c-0.18,0.13-0.36,0.19-0.53,0.19c-0.16,0-0.27-0.05-0.35-0.14c-0.08-0.1-0.12-0.2-0.12-0.32c0-0.16,0.08-0.33,0.25-0.5
			c0.44-0.45,0.74-0.82,0.91-1.08c0.37-0.59,0.6-1.29,0.7-2.12c0.05-0.4,0.08-0.87,0.08-1.39v-3.42c0-0.38,0.23-0.58,0.7-0.58
			C90.24,145.68,90.48,145.87,90.48,146.25z"/>
	</g>
</g>
<g id="ガイド" display="none">
</g>
</svg>
