<?xml version="1.0" encoding="utf-8"?>
<!-- Generator: Adobe Illustrator 25.4.1, SVG Export Plug-In . SVG Version: 6.00 Build 0)  -->
<svg version="1.1" xmlns="http://www.w3.org/2000/svg" xmlns:xlink="http://www.w3.org/1999/xlink" x="0px" y="0px"
	 viewBox="0 0 164.41 252.28" enable-background="new 0 0 164.41 252.28" xml:space="preserve">
<g id="地">
	<rect fill="#DCDDDD" width="164.41" height="252.28"/>
</g>
<g id="枠">
</g>
<g id="国旗">
	<g>
		<g>
			<rect x="25.51" y="60" fill="#C91623" width="113.39" height="75.59"/>
			<polygon fill="#FFFFFF" points="67.94,60 58.27,60 58.27,92.96 25.51,92.96 25.51,102.63 58.27,102.63 58.27,135.59 
				67.94,135.59 67.94,102.63 138.9,102.63 138.9,92.96 67.94,92.96 			"/>
		</g>
	</g>
</g>
<g id="国名">
	<g>
		<path d="M58.9,150.47c-1.07,0.06-2.23,0.14-3.47,0.24c-0.1,0.01-0.16,0.01-0.19,0.01c-0.27,0-0.46-0.11-0.57-0.32
			c-0.05-0.1-0.08-0.22-0.08-0.36c0-0.37,0.2-0.57,0.59-0.61c0.51-0.06,2.85-0.2,7.04-0.42c0.77-0.04,1.18-0.06,1.21-0.06
			c0.21,0,0.38,0.06,0.5,0.19c0.11,0.12,0.17,0.27,0.17,0.46c0,0.33-0.13,0.54-0.38,0.63c-0.08,0.03-0.24,0.04-0.47,0.05
			c-0.51,0.01-1.37,0.05-2.59,0.1l-0.27,0c-0.06,1.75-0.59,3.08-1.59,3.99c-0.58,0.53-1.03,0.79-1.36,0.79
			c-0.16,0-0.29-0.06-0.39-0.19c-0.09-0.12-0.13-0.24-0.13-0.35c0-0.14,0.06-0.27,0.17-0.38c0.04-0.04,0.15-0.13,0.35-0.28
			c0.61-0.46,1.03-1.11,1.26-1.95C58.8,151.59,58.87,151.08,58.9,150.47z M61.29,146.15c0.17,0,0.31,0.05,0.43,0.14
			c0.14,0.12,0.22,0.29,0.22,0.5c0,0.37-0.18,0.58-0.55,0.65c-0.21,0.03-0.63,0.08-1.26,0.13c-1.16,0.1-2.11,0.14-2.86,0.14
			c-0.55,0-0.83-0.22-0.83-0.67c0-0.26,0.11-0.44,0.32-0.54c0.11-0.06,0.36-0.08,0.74-0.08c0.91,0,1.82-0.04,2.75-0.14
			c0.2-0.02,0.46-0.05,0.76-0.1C61.14,146.16,61.23,146.15,61.29,146.15z M62.54,145.72c0.21,0,0.54,0.21,1,0.62
			c0.39,0.35,0.58,0.63,0.58,0.84c0,0.14-0.06,0.27-0.19,0.37c-0.1,0.08-0.21,0.12-0.34,0.12c-0.17,0-0.3-0.07-0.39-0.22
			c-0.24-0.4-0.52-0.75-0.83-1.08c-0.1-0.11-0.15-0.22-0.15-0.33C62.22,145.82,62.33,145.72,62.54,145.72z M63.59,144.89
			c0.22,0,0.54,0.18,0.96,0.53c0.39,0.33,0.58,0.6,0.58,0.83c0,0.16-0.06,0.28-0.18,0.38c-0.09,0.07-0.19,0.1-0.3,0.1
			c-0.16,0-0.3-0.09-0.42-0.28c-0.2-0.3-0.46-0.61-0.79-0.92c-0.12-0.11-0.18-0.23-0.18-0.34c0-0.07,0.03-0.14,0.09-0.2
			C63.4,144.92,63.48,144.89,63.59,144.89z"/>
		<path d="M67.74,146.82c0.15,0,0.41,0.07,0.78,0.2c0.69,0.24,1.26,0.53,1.71,0.86c0.24,0.17,0.35,0.39,0.35,0.65
			c0,0.14-0.05,0.29-0.14,0.43c-0.14,0.21-0.33,0.32-0.56,0.32c-0.2,0-0.43-0.09-0.67-0.28c-0.62-0.49-1.18-0.88-1.68-1.16
			c-0.25-0.14-0.38-0.31-0.38-0.51C67.15,146.99,67.35,146.82,67.74,146.82z M74.86,148.59c0.13,0,0.25,0.04,0.36,0.13
			c0.15,0.11,0.23,0.26,0.23,0.45c0,0.15-0.06,0.32-0.18,0.5c-0.85,1.27-1.97,2.37-3.36,3.3c-1.16,0.77-2.35,1.32-3.59,1.66
			c-0.13,0.03-0.24,0.05-0.34,0.05c-0.31,0-0.54-0.14-0.67-0.43c-0.06-0.13-0.09-0.25-0.09-0.37c0-0.27,0.13-0.47,0.4-0.6
			c0.05-0.03,0.3-0.1,0.74-0.23c1.59-0.47,3.06-1.3,4.43-2.51c0.52-0.47,1.02-1,1.48-1.59C74.46,148.7,74.65,148.59,74.86,148.59z"
			/>
		<path d="M82.35,151.51c0.94-0.7,1.72-1.48,2.35-2.34c0.12-0.17,0.18-0.27,0.18-0.31c0-0.05-0.05-0.07-0.16-0.07
			c-0.38,0-2.5,0.15-6.37,0.44c-0.08,0.01-0.13,0.01-0.16,0.01c-0.22,0-0.39-0.07-0.5-0.22c-0.1-0.12-0.15-0.28-0.15-0.46
			c0-0.37,0.17-0.58,0.5-0.66c0.06-0.01,0.86-0.07,2.41-0.19c3.25-0.2,4.99-0.29,5.2-0.29c0.34,0,0.62,0.09,0.82,0.26
			c0.2,0.17,0.3,0.39,0.3,0.65c0,0.27-0.16,0.61-0.47,1.04c-0.76,1.03-1.81,2-3.14,2.91c0.29,0.31,0.51,0.56,0.66,0.75
			c0.17,0.23,0.25,0.44,0.25,0.65c0,0.29-0.12,0.51-0.35,0.66c-0.14,0.09-0.28,0.13-0.42,0.13c-0.18,0-0.33-0.07-0.46-0.19
			c-0.04-0.04-0.12-0.15-0.23-0.31c-0.44-0.62-1-1.3-1.69-2.03c-0.16-0.17-0.33-0.34-0.52-0.52c-0.15-0.14-0.22-0.29-0.22-0.45
			c0-0.15,0.05-0.28,0.17-0.39c0.1-0.1,0.22-0.16,0.36-0.16c0.16,0,0.35,0.08,0.58,0.24C81.61,150.89,81.96,151.17,82.35,151.51z"/>
		<path d="M96.98,149.33c0.23,0,0.42,0.07,0.55,0.22c0.11,0.12,0.17,0.28,0.17,0.48c0,0.37-0.17,0.59-0.53,0.66
			c-0.09,0.02-1.34,0.08-3.74,0.19c-1.1,0.05-2.27,0.11-3.5,0.17c-0.04,0-0.09,0-0.13,0c-0.21,0-0.38-0.06-0.52-0.18
			c-0.14-0.13-0.22-0.3-0.22-0.51c0-0.3,0.13-0.51,0.4-0.63c0.11-0.04,0.37-0.07,0.79-0.09c0.37-0.01,1.29-0.05,2.77-0.13
			c0.63-0.03,1.5-0.07,2.59-0.12c0.37-0.01,0.66-0.03,0.88-0.04C96.76,149.33,96.92,149.33,96.98,149.33z"/>
		<path d="M105.33,146.59l2-0.08c0.73-0.03,1.1,0.27,1.1,0.9c0,0.38-0.15,0.95-0.45,1.71c-0.8,2.04-2.16,3.7-4.08,4.99
			c-0.9,0.61-1.53,0.91-1.87,0.91c-0.18,0-0.32-0.08-0.43-0.23c-0.07-0.1-0.1-0.2-0.1-0.3c0-0.15,0.08-0.29,0.25-0.42
			c0.05-0.04,0.19-0.13,0.44-0.27c0.83-0.48,1.62-1.11,2.39-1.91c0.96-1,1.65-2.11,2.06-3.31c0.13-0.38,0.2-0.62,0.2-0.7
			c0-0.09-0.06-0.13-0.17-0.12h-0.03l-1.9,0.11c-0.69,0.93-1.5,1.72-2.43,2.37c-0.2,0.14-0.38,0.21-0.54,0.21
			c-0.14,0-0.25-0.05-0.34-0.16c-0.08-0.1-0.12-0.2-0.12-0.31c0-0.15,0.06-0.29,0.18-0.42c0.04-0.04,0.15-0.14,0.32-0.29
			c0.55-0.48,1.08-1.13,1.59-1.93c0.19-0.3,0.35-0.58,0.47-0.84c0.15-0.31,0.38-0.47,0.69-0.47c0.12,0,0.24,0.02,0.35,0.07
			C105.15,146.21,105.28,146.37,105.33,146.59z"/>
	</g>
</g>
<g id="ガイド" display="none">
</g>
</svg>
