<?xml version="1.0" encoding="utf-8"?>
<!-- Generator: Adobe Illustrator 25.4.1, SVG Export Plug-In . SVG Version: 6.00 Build 0)  -->
<svg version="1.1" xmlns="http://www.w3.org/2000/svg" xmlns:xlink="http://www.w3.org/1999/xlink" x="0px" y="0px"
	 viewBox="0 0 164.41 252.28" enable-background="new 0 0 164.41 252.28" xml:space="preserve">
<g id="地">
	<rect fill="#DCDDDD" width="164.41" height="252.28"/>
</g>
<g id="枠">
</g>
<g id="国旗">
	<g>
		<g>
			<rect x="25.51" y="60" fill="#C91623" width="113.39" height="75.59"/>
			<rect x="25.51" y="60" fill="#040000" width="113.39" height="25.2"/>
			<rect x="25.51" y="110.39" fill="#F5B018" width="113.39" height="25.2"/>
		</g>
	</g>
</g>
<g id="国名">
	<g>
		<path d="M70.59,150.28v4.34c0,0.21-0.07,0.37-0.2,0.48c-0.12,0.11-0.29,0.16-0.5,0.16c-0.47,0-0.71-0.21-0.71-0.64v-8.28
			c0-0.42,0.24-0.63,0.71-0.63c0.31,0,0.51,0.11,0.63,0.32c0.05,0.09,0.07,0.2,0.07,0.32v2.72c1.32,0.34,2.34,0.76,3.07,1.24
			c0.32,0.21,0.48,0.46,0.48,0.76c0,0.2-0.07,0.36-0.2,0.5c-0.14,0.15-0.31,0.23-0.52,0.23c-0.18,0-0.4-0.09-0.66-0.27
			C72.15,151.1,71.43,150.69,70.59,150.28z M73,146.86c0.21,0,0.54,0.21,1,0.62c0.39,0.35,0.58,0.63,0.58,0.83
			c0,0.15-0.06,0.27-0.19,0.37c-0.1,0.08-0.22,0.12-0.34,0.12c-0.17,0-0.31-0.1-0.43-0.29c-0.21-0.35-0.48-0.69-0.79-1.01
			c-0.1-0.11-0.15-0.22-0.15-0.33C72.68,146.97,72.79,146.86,73,146.86z M74.15,145.99c0.22,0,0.54,0.18,0.96,0.53
			c0.39,0.32,0.58,0.6,0.58,0.83c0,0.16-0.06,0.28-0.18,0.38c-0.09,0.07-0.19,0.1-0.3,0.1c-0.16,0-0.3-0.09-0.42-0.28
			c-0.2-0.31-0.47-0.61-0.79-0.92c-0.12-0.11-0.18-0.22-0.18-0.33c0-0.07,0.03-0.14,0.09-0.2
			C73.97,146.03,74.05,145.99,74.15,145.99z"/>
		<path d="M81.78,150.05c-0.94,0.64-1.88,1.17-2.8,1.57c-0.32,0.14-0.55,0.21-0.69,0.21c-0.16,0-0.29-0.06-0.38-0.18
			c-0.08-0.1-0.12-0.21-0.12-0.33c0-0.17,0.08-0.32,0.23-0.43c0.06-0.04,0.26-0.15,0.61-0.34c1.06-0.57,2.08-1.26,3.07-2.08
			c0.91-0.76,1.62-1.51,2.13-2.25c0.16-0.24,0.37-0.37,0.61-0.37c0.14,0,0.27,0.04,0.41,0.13c0.24,0.15,0.36,0.35,0.36,0.6
			c0,0.17-0.1,0.38-0.29,0.63c-0.53,0.67-1.21,1.35-2.04,2.03c0.2,0.12,0.3,0.3,0.3,0.54v4.65c0,0.23-0.07,0.4-0.22,0.52
			c-0.13,0.1-0.29,0.16-0.49,0.16c-0.32,0-0.53-0.12-0.64-0.37c-0.04-0.09-0.06-0.19-0.06-0.31V150.05z"/>
		<path d="M89.57,147.2c0.25,0,0.62,0.29,1.1,0.88c0.53,0.65,0.8,1.14,0.8,1.49c0,0.22-0.09,0.4-0.26,0.55
			c-0.17,0.14-0.35,0.22-0.55,0.22c-0.29,0-0.5-0.19-0.64-0.56c-0.22-0.6-0.48-1.15-0.8-1.66c-0.11-0.17-0.16-0.32-0.16-0.44
			c0-0.11,0.05-0.22,0.14-0.31C89.3,147.25,89.43,147.2,89.57,147.2z M96.93,146.62c0.15,0,0.29,0.04,0.43,0.11
			c0.24,0.12,0.36,0.33,0.36,0.62c0,0.25-0.08,0.69-0.24,1.32c-0.69,2.61-2.15,4.57-4.4,5.87c-0.38,0.22-0.65,0.33-0.82,0.33
			c-0.2,0-0.35-0.09-0.45-0.27c-0.05-0.1-0.08-0.19-0.08-0.28c0-0.19,0.13-0.38,0.4-0.56c1.34-0.89,2.36-1.97,3.05-3.24
			c0.51-0.94,0.87-2,1.07-3.18C96.33,146.86,96.56,146.62,96.93,146.62z M92.42,146.29c0.24,0,0.51,0.22,0.81,0.66
			c0.32,0.47,0.56,0.93,0.73,1.4c0.06,0.17,0.09,0.32,0.09,0.46c0,0.28-0.11,0.5-0.32,0.64c-0.14,0.09-0.3,0.14-0.46,0.14
			c-0.3,0-0.5-0.14-0.62-0.41c-0.02-0.04-0.05-0.13-0.08-0.28c-0.17-0.69-0.36-1.27-0.57-1.75c-0.06-0.15-0.09-0.28-0.09-0.4
			c0-0.16,0.06-0.28,0.19-0.37C92.19,146.32,92.3,146.29,92.42,146.29z"/>
	</g>
</g>
<g id="ガイド" display="none">
</g>
</svg>
