<?xml version="1.0" encoding="utf-8"?>
<!-- Generator: Adobe Illustrator 25.4.1, SVG Export Plug-In . SVG Version: 6.00 Build 0)  -->
<svg version="1.1" xmlns="http://www.w3.org/2000/svg" xmlns:xlink="http://www.w3.org/1999/xlink" x="0px" y="0px"
	 viewBox="0 0 164.41 252.28" enable-background="new 0 0 164.41 252.28" xml:space="preserve">
<g id="地">
	<rect fill="#DCDDDD" width="164.41" height="252.28"/>
</g>
<g id="枠">
</g>
<g id="国旗">
	<g>
		<g>
			<rect x="25.51" y="60" fill="#F5C720" width="113.39" height="75.59"/>
			<rect x="25.51" y="120.47" fill="#147F49" width="113.39" height="15.12"/>
			<rect x="25.51" y="90.24" fill="#147F49" width="113.39" height="15.12"/>
			<rect x="25.51" y="60" fill="#147F49" width="113.39" height="15.12"/>
			<rect x="25.51" y="60" fill="#C8152A" width="45.35" height="45.35"/>
			<polygon fill="#FFFFFF" points="47.81,72.08 50.47,80.26 59.07,80.26 52.11,85.31 54.77,93.5 47.81,88.44 40.85,93.5 
				43.51,85.31 36.55,80.26 45.15,80.26 			"/>
		</g>
	</g>
</g>
<g id="国名">
	<g>
		<path d="M70.71,150.28v4.34c0,0.21-0.07,0.37-0.2,0.48c-0.13,0.11-0.29,0.16-0.5,0.16c-0.47,0-0.71-0.21-0.71-0.64v-8.28
			c0-0.42,0.24-0.63,0.71-0.63c0.31,0,0.52,0.11,0.63,0.32c0.05,0.09,0.07,0.2,0.07,0.32v2.72c1.32,0.34,2.34,0.76,3.07,1.24
			c0.32,0.21,0.48,0.46,0.48,0.76c0,0.2-0.07,0.36-0.2,0.5c-0.14,0.15-0.31,0.23-0.52,0.23c-0.18,0-0.4-0.09-0.66-0.27
			C72.26,151.1,71.54,150.69,70.71,150.28z"/>
		<path d="M85.64,149.33c0.23,0,0.42,0.07,0.55,0.22c0.11,0.12,0.17,0.28,0.17,0.48c0,0.37-0.18,0.59-0.53,0.66
			c-0.09,0.02-1.34,0.08-3.74,0.19c-1.1,0.05-2.27,0.11-3.5,0.17c-0.04,0-0.09,0-0.13,0c-0.21,0-0.38-0.06-0.52-0.18
			c-0.14-0.13-0.22-0.3-0.22-0.51c0-0.3,0.13-0.51,0.4-0.63c0.11-0.04,0.37-0.07,0.79-0.09c0.37-0.01,1.29-0.05,2.77-0.13
			c0.63-0.03,1.5-0.07,2.59-0.12c0.37-0.01,0.66-0.03,0.87-0.04C85.42,149.33,85.59,149.33,85.64,149.33z"/>
		<path d="M95.08,152.51c0.12-0.82,0.27-2,0.44-3.55c0.01-0.07,0.01-0.13,0.01-0.16c0-0.1-0.06-0.16-0.17-0.16
			c-0.05,0-0.17,0.01-0.37,0.03c-0.29,0.03-0.87,0.08-1.76,0.15c-0.93,0.07-1.79,0.14-2.59,0.22c-0.08,0.01-0.14,0.01-0.18,0.01
			c-0.21,0-0.37-0.06-0.49-0.19c-0.1-0.11-0.16-0.25-0.16-0.43c0-0.32,0.12-0.53,0.35-0.64c0.08-0.04,0.29-0.07,0.62-0.09
			c3.06-0.25,4.71-0.39,4.93-0.41c0.07-0.01,0.12-0.01,0.17-0.01c0.47,0,0.8,0.2,0.98,0.6c0.07,0.15,0.1,0.31,0.1,0.48
			c0,0.05-0.01,0.19-0.04,0.42c-0.21,1.71-0.36,2.96-0.47,3.75c0.24,0.1,0.37,0.3,0.37,0.6c0,0.29-0.13,0.49-0.39,0.6
			c-0.1,0.03-0.31,0.06-0.63,0.08c-1.03,0.04-2.79,0.16-5.26,0.35c-0.08,0.01-0.13,0.01-0.17,0.01c-0.43,0-0.64-0.22-0.64-0.66
			c0-0.4,0.2-0.62,0.6-0.67C90.77,152.77,92.35,152.67,95.08,152.51z M96.52,145.73c0.21,0,0.54,0.21,1,0.62
			c0.39,0.35,0.58,0.63,0.58,0.83c0,0.15-0.06,0.27-0.19,0.38c-0.1,0.08-0.21,0.12-0.33,0.12c-0.17,0-0.31-0.1-0.43-0.29
			c-0.22-0.37-0.49-0.7-0.79-1.01c-0.1-0.11-0.16-0.22-0.16-0.33C96.2,145.83,96.31,145.73,96.52,145.73z M97.62,144.95
			c0.22,0,0.54,0.18,0.95,0.53c0.39,0.33,0.58,0.6,0.58,0.83c0,0.16-0.06,0.28-0.18,0.38c-0.09,0.07-0.19,0.1-0.3,0.1
			c-0.16,0-0.3-0.09-0.42-0.28c-0.2-0.3-0.46-0.61-0.79-0.92c-0.12-0.11-0.18-0.23-0.18-0.33c0-0.08,0.03-0.15,0.09-0.2
			C97.43,144.99,97.51,144.95,97.62,144.95z"/>
	</g>
</g>
<g id="ガイド" display="none">
</g>
</svg>
