<?xml version="1.0" encoding="utf-8"?>
<!-- Generator: Adobe Illustrator 25.4.1, SVG Export Plug-In . SVG Version: 6.00 Build 0)  -->
<svg version="1.1" xmlns="http://www.w3.org/2000/svg" xmlns:xlink="http://www.w3.org/1999/xlink" x="0px" y="0px"
	 viewBox="0 0 164.41 252.28" enable-background="new 0 0 164.41 252.28" xml:space="preserve">
<g id="地">
	<rect fill="#DCDDDD" width="164.41" height="252.28"/>
</g>
<g id="枠">
</g>
<g id="国旗">
	<g>
		<g>
			<rect x="25.51" y="60" fill="#C8152A" width="113.39" height="75.59"/>
			<polygon fill="#FFFFFF" points="115.82,135.59 25.51,60 48.59,60 138.9,135.59 			"/>
			<polygon fill="#040000" points="29.53,60 119.84,135.59 134.88,135.59 44.57,60 			"/>
		</g>
	</g>
</g>
<g id="国名">
	<g>
		<path d="M31.02,150.28v4.34c0,0.21-0.07,0.37-0.2,0.48c-0.12,0.11-0.29,0.16-0.5,0.16c-0.47,0-0.71-0.21-0.71-0.64v-8.28
			c0-0.42,0.24-0.63,0.71-0.63c0.31,0,0.51,0.11,0.62,0.32c0.05,0.09,0.07,0.2,0.07,0.32v2.72c1.32,0.34,2.34,0.76,3.07,1.24
			c0.32,0.21,0.48,0.46,0.48,0.76c0,0.2-0.07,0.36-0.2,0.5c-0.14,0.15-0.31,0.23-0.52,0.23c-0.18,0-0.4-0.09-0.66-0.27
			C32.58,151.1,31.85,150.69,31.02,150.28z"/>
		<path d="M41.15,146.75v3.86c0,0.2-0.06,0.35-0.19,0.46c-0.13,0.11-0.3,0.17-0.53,0.17c-0.31,0-0.52-0.11-0.63-0.32
			c-0.05-0.09-0.07-0.2-0.07-0.32v-3.86c0-0.26,0.1-0.44,0.31-0.55c0.12-0.06,0.25-0.09,0.39-0.09c0.24,0,0.43,0.07,0.56,0.21
			C41.09,146.43,41.15,146.57,41.15,146.75z M45.13,146.25v3.41c0,1.12-0.13,2.07-0.4,2.85c-0.35,1.01-1,1.85-1.95,2.54
			c-0.18,0.13-0.36,0.19-0.53,0.19c-0.16,0-0.27-0.05-0.35-0.14c-0.08-0.1-0.12-0.2-0.12-0.32c0-0.16,0.08-0.33,0.25-0.5
			c0.44-0.45,0.74-0.82,0.91-1.08c0.37-0.59,0.6-1.29,0.7-2.12c0.05-0.4,0.08-0.87,0.08-1.39v-3.42c0-0.38,0.23-0.58,0.7-0.58
			C44.89,145.68,45.13,145.87,45.13,146.25z"/>
		<path d="M57.92,151.45c0.21,0,0.38,0.05,0.5,0.14c0.17,0.13,0.25,0.31,0.25,0.54c0,0.31-0.13,0.52-0.38,0.63
			c-0.08,0.03-0.33,0.06-0.75,0.08c-2.44,0.12-5.03,0.3-7.77,0.54c-0.08,0.01-0.15,0.01-0.19,0.01c-0.44,0-0.65-0.23-0.65-0.7
			c0-0.33,0.16-0.54,0.47-0.64c0.07-0.02,0.33-0.04,0.79-0.08C54.86,151.62,57.43,151.45,57.92,151.45z M55.62,147.45
			c0.18,0,0.34,0.06,0.47,0.18c0.13,0.12,0.2,0.29,0.2,0.5c0,0.39-0.24,0.62-0.71,0.69c-0.56,0.08-1.31,0.17-2.23,0.24
			c-0.86,0.07-1.42,0.11-1.69,0.11c-0.23,0-0.4-0.07-0.53-0.2c-0.11-0.12-0.16-0.27-0.16-0.46c0-0.31,0.12-0.52,0.36-0.62
			c0.08-0.04,0.28-0.06,0.57-0.07c1.14-0.03,2.26-0.14,3.35-0.33C55.45,147.46,55.57,147.45,55.62,147.45z"/>
		<path d="M65.1,146.7l2.1-0.08c0.05,0,0.08,0,0.09,0c0.68,0,1.02,0.29,1.02,0.88c0,0.18-0.04,0.42-0.13,0.74
			c-0.72,2.52-2.21,4.55-4.48,6.07c-0.89,0.59-1.49,0.89-1.82,0.89c-0.17,0-0.3-0.08-0.4-0.23c-0.07-0.1-0.1-0.2-0.1-0.29
			c0-0.13,0.06-0.26,0.18-0.38c0.05-0.04,0.19-0.14,0.42-0.28c1.04-0.64,1.97-1.41,2.8-2.32c-0.48-0.51-0.96-0.94-1.42-1.31
			c-0.2-0.15-0.3-0.31-0.3-0.47c0-0.09,0.03-0.18,0.09-0.27c0.1-0.14,0.24-0.21,0.41-0.21c0.14,0,0.31,0.05,0.51,0.14
			c0.6,0.28,1.13,0.6,1.58,0.98c0.48-0.76,0.83-1.5,1.04-2.23c0.05-0.17,0.07-0.27,0.07-0.32c0-0.09-0.07-0.13-0.21-0.12l-2.05,0.1
			c-0.76,1.02-1.55,1.8-2.36,2.35c-0.26,0.17-0.47,0.26-0.64,0.26c-0.15,0-0.27-0.06-0.35-0.18c-0.06-0.08-0.08-0.17-0.08-0.27
			c0-0.13,0.05-0.26,0.16-0.39c0.04-0.04,0.15-0.15,0.34-0.33c0.64-0.58,1.22-1.29,1.74-2.13c0.14-0.23,0.26-0.45,0.37-0.66
			c0.16-0.31,0.39-0.47,0.7-0.47c0.22,0,0.41,0.08,0.55,0.23C65,146.46,65.06,146.57,65.1,146.7z M68.26,145.74
			c0.21,0,0.54,0.21,1,0.62c0.39,0.35,0.58,0.63,0.58,0.84c0,0.14-0.06,0.27-0.19,0.37c-0.1,0.08-0.21,0.12-0.34,0.12
			c-0.17,0-0.31-0.1-0.43-0.29c-0.22-0.36-0.48-0.7-0.79-1.01c-0.1-0.11-0.16-0.22-0.16-0.33
			C67.94,145.84,68.05,145.74,68.26,145.74z M69.25,144.85c0.22,0,0.54,0.17,0.95,0.53c0.39,0.33,0.58,0.6,0.58,0.83
			c0,0.16-0.06,0.28-0.18,0.38c-0.09,0.07-0.19,0.1-0.3,0.1c-0.16,0-0.29-0.09-0.42-0.28c-0.2-0.31-0.46-0.62-0.79-0.92
			c-0.12-0.11-0.18-0.23-0.18-0.33c0-0.07,0.03-0.14,0.09-0.21C69.06,144.88,69.15,144.85,69.25,144.85z"/>
		<path d="M79.97,149.33c0.23,0,0.42,0.07,0.55,0.22c0.11,0.12,0.17,0.28,0.17,0.48c0,0.37-0.18,0.59-0.53,0.66
			c-0.09,0.02-1.34,0.08-3.74,0.19c-1.1,0.05-2.27,0.11-3.5,0.17c-0.04,0-0.09,0-0.13,0c-0.21,0-0.38-0.06-0.52-0.18
			c-0.14-0.13-0.22-0.3-0.22-0.51c0-0.3,0.13-0.51,0.4-0.63c0.11-0.04,0.37-0.07,0.79-0.09c0.37-0.01,1.29-0.05,2.77-0.13
			c0.63-0.03,1.5-0.07,2.59-0.12c0.37-0.01,0.66-0.03,0.87-0.04C79.75,149.33,79.92,149.33,79.97,149.33z"/>
		<path d="M87.6,150.28v4.34c0,0.21-0.07,0.37-0.2,0.48c-0.12,0.11-0.29,0.16-0.5,0.16c-0.47,0-0.71-0.21-0.71-0.64v-8.28
			c0-0.42,0.24-0.63,0.71-0.63c0.31,0,0.51,0.11,0.63,0.32c0.05,0.09,0.07,0.2,0.07,0.32v2.72c1.32,0.34,2.34,0.76,3.07,1.24
			c0.32,0.21,0.48,0.46,0.48,0.76c0,0.2-0.07,0.36-0.2,0.5c-0.14,0.15-0.31,0.23-0.52,0.23c-0.18,0-0.4-0.09-0.66-0.27
			C89.16,151.1,88.44,150.69,87.6,150.28z M90.01,146.86c0.21,0,0.54,0.21,1,0.62c0.39,0.35,0.58,0.63,0.58,0.83
			c0,0.15-0.06,0.27-0.19,0.37c-0.1,0.08-0.22,0.12-0.34,0.12c-0.17,0-0.31-0.1-0.43-0.29c-0.21-0.35-0.48-0.69-0.79-1.01
			c-0.1-0.11-0.15-0.22-0.15-0.33C89.69,146.97,89.8,146.86,90.01,146.86z M91.16,145.99c0.22,0,0.54,0.18,0.96,0.53
			c0.39,0.32,0.58,0.6,0.58,0.83c0,0.16-0.06,0.28-0.18,0.38c-0.09,0.07-0.19,0.1-0.3,0.1c-0.16,0-0.3-0.09-0.42-0.28
			c-0.2-0.31-0.47-0.61-0.79-0.92c-0.12-0.11-0.18-0.22-0.18-0.33c0-0.07,0.03-0.14,0.09-0.2
			C90.98,146.03,91.06,145.99,91.16,145.99z"/>
		<path d="M95.81,148.62h6.79c0.12,0,0.23,0.04,0.31,0.11c0.13,0.11,0.19,0.26,0.19,0.45c0,0.23-0.08,0.39-0.24,0.49
			c-0.07,0.05-0.16,0.07-0.25,0.07h-6.79c-0.12,0-0.23-0.04-0.32-0.12c-0.12-0.11-0.17-0.25-0.17-0.44c0-0.22,0.08-0.39,0.24-0.49
			C95.63,148.65,95.72,148.62,95.81,148.62z M95.81,151.19h6.79c0.12,0,0.22,0.04,0.31,0.11c0.13,0.11,0.19,0.26,0.19,0.45
			c0,0.22-0.08,0.39-0.24,0.49c-0.07,0.04-0.16,0.07-0.25,0.07h-6.79c-0.12,0-0.22-0.03-0.3-0.1c-0.12-0.11-0.18-0.26-0.18-0.45
			c0-0.22,0.08-0.38,0.23-0.49C95.63,151.21,95.72,151.19,95.81,151.19z"/>
		<path d="M110.28,150.28v4.34c0,0.21-0.07,0.37-0.2,0.48c-0.12,0.11-0.29,0.16-0.5,0.16c-0.47,0-0.71-0.21-0.71-0.64v-8.28
			c0-0.42,0.24-0.63,0.71-0.63c0.31,0,0.51,0.11,0.63,0.32c0.05,0.09,0.07,0.2,0.07,0.32v2.72c1.32,0.34,2.34,0.76,3.07,1.24
			c0.32,0.21,0.48,0.46,0.48,0.76c0,0.2-0.07,0.36-0.2,0.5c-0.14,0.15-0.31,0.23-0.52,0.23c-0.18,0-0.4-0.09-0.66-0.27
			C111.84,151.1,111.11,150.69,110.28,150.28z M112.69,146.86c0.21,0,0.54,0.21,1,0.62c0.39,0.35,0.58,0.63,0.58,0.83
			c0,0.15-0.06,0.27-0.19,0.37c-0.1,0.08-0.22,0.12-0.34,0.12c-0.17,0-0.31-0.1-0.43-0.29c-0.21-0.35-0.48-0.69-0.79-1.01
			c-0.1-0.11-0.16-0.22-0.16-0.33C112.37,146.97,112.47,146.86,112.69,146.86z M113.84,145.99c0.22,0,0.54,0.18,0.96,0.53
			c0.39,0.32,0.58,0.6,0.58,0.83c0,0.16-0.06,0.28-0.18,0.38c-0.09,0.07-0.19,0.1-0.3,0.1c-0.16,0-0.3-0.09-0.42-0.28
			c-0.2-0.31-0.47-0.61-0.79-0.92c-0.12-0.11-0.18-0.22-0.18-0.33c0-0.07,0.03-0.14,0.09-0.2
			C113.65,146.03,113.73,145.99,113.84,145.99z"/>
		<path d="M119.95,148.33c0.11,0,0.22,0.02,0.32,0.07c0.29,0.13,0.44,0.35,0.44,0.65c0,0.27-0.17,0.73-0.51,1.37
			c-0.46,0.88-1.03,1.65-1.72,2.32c-0.5,0.49-0.88,0.74-1.12,0.74c-0.14,0-0.27-0.06-0.38-0.19c-0.09-0.1-0.14-0.21-0.14-0.34
			c0-0.15,0.08-0.32,0.23-0.49c0.9-0.99,1.62-2.18,2.14-3.59C119.35,148.51,119.59,148.33,119.95,148.33z M123.54,148.1
			c0.18,0,0.39,0.12,0.63,0.35c0.58,0.56,1.14,1.25,1.68,2.07c0.61,0.91,0.91,1.54,0.91,1.9c0,0.27-0.12,0.48-0.35,0.63
			c-0.15,0.09-0.29,0.14-0.43,0.14c-0.29,0-0.51-0.13-0.65-0.38c-0.01-0.03-0.07-0.13-0.15-0.32c-0.65-1.38-1.34-2.54-2.06-3.46
			c-0.1-0.12-0.15-0.26-0.15-0.42c0-0.15,0.06-0.27,0.17-0.37C123.26,148.15,123.4,148.1,123.54,148.1z M124.72,146.57
			c0.21,0,0.54,0.21,0.99,0.62c0.39,0.35,0.58,0.63,0.58,0.83c0,0.14-0.06,0.27-0.19,0.37c-0.1,0.08-0.21,0.12-0.33,0.12
			c-0.17,0-0.31-0.1-0.43-0.29c-0.21-0.34-0.47-0.68-0.79-1.01c-0.1-0.11-0.15-0.22-0.15-0.33
			C124.4,146.67,124.5,146.57,124.72,146.57z M125.7,145.68c0.22,0,0.54,0.18,0.96,0.53c0.39,0.32,0.58,0.6,0.58,0.83
			c0,0.16-0.06,0.28-0.18,0.38c-0.09,0.07-0.19,0.1-0.3,0.1c-0.16,0-0.3-0.09-0.42-0.28c-0.2-0.3-0.46-0.61-0.79-0.92
			c-0.12-0.11-0.18-0.22-0.18-0.33c0-0.07,0.03-0.14,0.09-0.21C125.51,145.71,125.59,145.68,125.7,145.68z"/>
		<path d="M134.76,152.51c0.12-0.82,0.27-2,0.44-3.55c0.01-0.07,0.01-0.13,0.01-0.16c0-0.1-0.06-0.16-0.17-0.16
			c-0.05,0-0.17,0.01-0.37,0.03c-0.29,0.03-0.88,0.08-1.76,0.15c-0.93,0.07-1.79,0.14-2.59,0.22c-0.08,0.01-0.14,0.01-0.18,0.01
			c-0.21,0-0.37-0.06-0.49-0.19c-0.1-0.11-0.15-0.25-0.15-0.43c0-0.32,0.12-0.53,0.35-0.64c0.08-0.04,0.29-0.07,0.62-0.09
			c3.06-0.25,4.71-0.39,4.93-0.41c0.07-0.01,0.12-0.01,0.17-0.01c0.47,0,0.8,0.2,0.98,0.6c0.07,0.15,0.1,0.31,0.1,0.48
			c0,0.05-0.01,0.19-0.04,0.42c-0.21,1.71-0.36,2.96-0.47,3.75c0.24,0.1,0.37,0.3,0.37,0.6c0,0.29-0.13,0.49-0.39,0.6
			c-0.1,0.03-0.31,0.06-0.63,0.08c-1.03,0.04-2.79,0.16-5.26,0.35c-0.08,0.01-0.13,0.01-0.17,0.01c-0.43,0-0.64-0.22-0.64-0.66
			c0-0.4,0.2-0.62,0.6-0.67C130.46,152.77,132.04,152.67,134.76,152.51z M136.2,145.73c0.21,0,0.54,0.21,1,0.62
			c0.39,0.35,0.58,0.63,0.58,0.83c0,0.15-0.06,0.27-0.19,0.38c-0.1,0.08-0.21,0.12-0.33,0.12c-0.17,0-0.31-0.1-0.43-0.29
			c-0.22-0.37-0.49-0.7-0.79-1.01c-0.1-0.11-0.15-0.22-0.15-0.33C135.89,145.83,135.99,145.73,136.2,145.73z M137.3,144.95
			c0.22,0,0.54,0.18,0.95,0.53c0.39,0.33,0.58,0.6,0.58,0.83c0,0.16-0.06,0.28-0.18,0.38c-0.09,0.07-0.19,0.1-0.3,0.1
			c-0.16,0-0.3-0.09-0.42-0.28c-0.2-0.3-0.46-0.61-0.79-0.92c-0.12-0.11-0.18-0.23-0.18-0.33c0-0.08,0.03-0.15,0.09-0.2
			C137.12,144.99,137.2,144.95,137.3,144.95z"/>
	</g>
</g>
<g id="ガイド" display="none">
</g>
</svg>
