<?xml version="1.0" encoding="utf-8"?>
<!-- Generator: Adobe Illustrator 25.4.1, SVG Export Plug-In . SVG Version: 6.00 Build 0)  -->
<svg version="1.1" xmlns="http://www.w3.org/2000/svg" xmlns:xlink="http://www.w3.org/1999/xlink" x="0px" y="0px"
	 viewBox="0 0 164.41 252.28" enable-background="new 0 0 164.41 252.28" xml:space="preserve">
<g id="地">
	<rect fill="#DCDDDD" width="164.41" height="252.28"/>
</g>
<g id="枠">
</g>
<g id="国旗">
	<g>
		<g>
			<rect x="25.22" y="60" fill="#C8152A" width="113.39" height="75.59"/>
			<polygon fill="#FFFFFF" points="82.79,90.49 86.08,94.96 91.34,93.21 88.11,97.72 91.4,102.19 86.12,100.51 82.88,105.02 
				82.85,99.47 77.56,97.79 82.83,96.04 			"/>
			<path fill="#FFFFFF" d="M64.62,112.81c-8.35,0-15.12-6.66-15.12-14.88c0-8.22,6.77-14.88,15.12-14.88
				c5.93,0,11.05,3.36,13.53,8.24c-2.68-7.73-9.89-13.27-18.37-13.27c-10.76,0-19.18,8.91-19.18,19.91c0,11,8.41,19.19,19.18,19.19
				c8.48,0,15.69-4.82,18.37-12.55C75.67,109.45,70.55,112.81,64.62,112.81z"/>
		</g>
	</g>
</g>
<g id="国名">
	<g>
		<path d="M70.71,150.28v4.34c0,0.21-0.07,0.37-0.2,0.48c-0.13,0.11-0.29,0.16-0.5,0.16c-0.47,0-0.71-0.21-0.71-0.64v-8.28
			c0-0.42,0.24-0.63,0.71-0.63c0.31,0,0.52,0.11,0.63,0.32c0.05,0.09,0.07,0.2,0.07,0.32v2.72c1.32,0.34,2.34,0.76,3.07,1.24
			c0.32,0.21,0.48,0.46,0.48,0.76c0,0.2-0.07,0.36-0.2,0.5c-0.14,0.15-0.31,0.23-0.52,0.23c-0.18,0-0.4-0.09-0.66-0.27
			C72.26,151.1,71.54,150.69,70.71,150.28z"/>
		<path d="M80.01,147.24c0.47,0,0.7,0.27,0.7,0.8c0,1.92-0.36,3.46-1.07,4.63c-0.3,0.5-0.66,0.91-1.08,1.24
			c-0.15,0.12-0.31,0.18-0.49,0.18c-0.12,0-0.22-0.04-0.32-0.12c-0.11-0.1-0.16-0.21-0.16-0.35c0-0.16,0.07-0.32,0.22-0.49
			c0.6-0.69,1-1.51,1.22-2.46c0.17-0.74,0.26-1.64,0.26-2.7c0-0.22,0.05-0.38,0.15-0.49C79.58,147.32,79.77,147.24,80.01,147.24z
			 M83.19,146.83v5.65c0,0.14,0.03,0.22,0.1,0.22c0.14,0,0.49-0.2,1.07-0.6c0.82-0.56,1.5-1.13,2.03-1.72
			c0.18-0.21,0.36-0.31,0.52-0.31c0.13,0,0.26,0.05,0.39,0.16c0.13,0.1,0.19,0.24,0.19,0.42c0,0.15-0.06,0.31-0.18,0.48
			c-0.43,0.59-1.08,1.23-1.94,1.92c-0.68,0.54-1.33,0.95-1.94,1.26c-0.23,0.11-0.44,0.17-0.61,0.17c-0.2,0-0.39-0.07-0.59-0.21
			c-0.28-0.2-0.42-0.5-0.42-0.92v-6.51c0-0.24,0.11-0.42,0.32-0.54c0.11-0.06,0.23-0.09,0.37-0.09c0.2,0,0.37,0.06,0.51,0.17
			C83.12,146.49,83.19,146.64,83.19,146.83z"/>
		<path d="M95.25,152.4c0.12-0.82,0.27-2.01,0.44-3.55c0.01-0.08,0.01-0.13,0.01-0.16c0-0.1-0.06-0.15-0.17-0.15
			c-0.05,0-0.17,0.01-0.37,0.03c-0.27,0.03-0.86,0.07-1.76,0.14c-1.02,0.08-1.88,0.16-2.58,0.22c-0.08,0.01-0.14,0.01-0.18,0.01
			c-0.21,0-0.37-0.07-0.49-0.19c-0.1-0.11-0.16-0.25-0.16-0.43c0-0.32,0.12-0.53,0.35-0.64c0.08-0.04,0.29-0.07,0.62-0.09
			c3.06-0.25,4.71-0.39,4.93-0.41c0.07-0.01,0.12-0.01,0.17-0.01c0.47,0,0.8,0.2,0.98,0.6c0.07,0.15,0.1,0.31,0.1,0.48
			c0,0.05-0.01,0.19-0.04,0.42c-0.21,1.72-0.36,2.97-0.47,3.75c0.24,0.1,0.37,0.3,0.37,0.6c0,0.3-0.13,0.49-0.39,0.59
			c-0.1,0.04-0.31,0.06-0.63,0.08c-1.03,0.05-2.79,0.17-5.26,0.35c-0.08,0.01-0.13,0.01-0.17,0.01c-0.43,0-0.64-0.22-0.64-0.67
			c0-0.39,0.2-0.61,0.6-0.66C90.95,152.66,92.52,152.55,95.25,152.4z"/>
	</g>
</g>
<g id="ガイド" display="none">
</g>
</svg>
