<?xml version="1.0" encoding="utf-8"?>
<!-- Generator: Adobe Illustrator 25.4.1, SVG Export Plug-In . SVG Version: 6.00 Build 0)  -->
<svg version="1.1" xmlns="http://www.w3.org/2000/svg" xmlns:xlink="http://www.w3.org/1999/xlink" x="0px" y="0px"
	 viewBox="0 0 164.41 252.28" enable-background="new 0 0 164.41 252.28" xml:space="preserve">
<g id="地">
	<rect fill="#DCDDDD" width="164.41" height="252.28"/>
</g>
<g id="枠">
</g>
<g id="国旗">
	<g>
		<g>
			<rect x="25.51" y="60" fill="#C8152A" width="113.39" height="75.59"/>
			<polygon fill="#147EAB" points="25.51,60 25.51,121.66 116.97,60 			"/>
			<polygon fill="#FFFFFF" points="120.63,60 116.97,60 25.51,121.66 25.51,124.13 			"/>
			<polygon fill="#147F49" points="138.9,135.59 138.9,73.93 47.44,135.59 			"/>
			<polygon fill="#FFFFFF" points="43.78,135.59 47.44,135.59 138.9,73.93 138.9,71.46 			"/>
			<polygon fill="#F5CF21" points="41.03,69.94 45.08,72.41 47.36,68.25 49.64,72.41 53.69,69.94 53.58,74.68 58.32,74.58 
				55.86,78.63 60.02,80.9 55.86,83.18 58.32,87.23 53.58,87.13 53.69,91.87 49.64,89.4 47.36,93.56 45.08,89.4 41.03,91.86 
				41.14,87.12 36.4,87.23 38.86,83.18 34.7,80.9 38.86,78.63 36.4,74.58 41.14,74.68 			"/>
			<circle fill="#147EAB" cx="47.36" cy="80.9" r="7.81"/>
			<circle fill="#F5CF21" cx="47.36" cy="80.9" r="6.75"/>
		</g>
	</g>
</g>
<g id="国名">
	<g>
		<path d="M64.59,148.62v-2.13c0-0.2,0.07-0.36,0.21-0.48c0.13-0.11,0.3-0.17,0.51-0.17c0.28,0,0.49,0.1,0.63,0.31
			c0.06,0.1,0.09,0.21,0.09,0.34v2.04l0.23-0.02c1.41-0.1,2.32-0.17,2.75-0.21c0.06,0,0.1-0.01,0.13-0.01c0.2,0,0.36,0.06,0.49,0.18
			c0.12,0.12,0.19,0.27,0.19,0.46c0,0.28-0.09,0.48-0.27,0.59c-0.11,0.07-0.32,0.11-0.63,0.12c-0.96,0.04-1.92,0.1-2.9,0.17v0.16
			c0,1.91-0.53,3.34-1.58,4.27c-0.5,0.44-0.89,0.67-1.17,0.67c-0.17,0-0.31-0.07-0.42-0.21c-0.07-0.09-0.1-0.19-0.1-0.3
			c0-0.17,0.09-0.34,0.28-0.51c0.72-0.65,1.18-1.41,1.39-2.26c0.11-0.47,0.17-1,0.17-1.57v-0.13c-1.23,0.09-2.26,0.18-3.08,0.25
			c-0.08,0.01-0.14,0.01-0.18,0.01c-0.22,0-0.39-0.06-0.52-0.19c-0.11-0.11-0.17-0.27-0.17-0.46c0-0.35,0.16-0.57,0.48-0.66
			c0.07-0.02,0.84-0.08,2.31-0.19l0.89-0.07L64.59,148.62z"/>
		<path d="M74.43,151.8c0.18,0,0.54,0.07,1.07,0.22c1.41,0.39,2.5,0.83,3.28,1.31c0.33,0.21,0.5,0.46,0.5,0.78
			c0,0.18-0.06,0.34-0.18,0.48c-0.14,0.17-0.32,0.26-0.54,0.26c-0.17,0-0.41-0.08-0.72-0.25c-1.31-0.71-2.48-1.27-3.51-1.67
			c-0.34-0.13-0.5-0.31-0.5-0.54C73.84,151.99,74.04,151.8,74.43,151.8z M74.97,146.14c0.19,0,0.54,0.05,1.05,0.16
			c1,0.21,1.82,0.49,2.47,0.85c0.34,0.19,0.51,0.44,0.51,0.75c0,0.14-0.05,0.28-0.15,0.42c-0.14,0.19-0.33,0.29-0.58,0.29
			c-0.15,0-0.36-0.07-0.64-0.22c-0.94-0.5-1.87-0.9-2.78-1.17c-0.34-0.1-0.51-0.28-0.51-0.54c0-0.14,0.04-0.26,0.13-0.35
			C74.6,146.2,74.76,146.14,74.97,146.14z M75.06,148.93c0.17,0,0.46,0.05,0.89,0.16c0.9,0.23,1.59,0.47,2.09,0.75
			c0.35,0.2,0.53,0.45,0.53,0.77c0,0.16-0.06,0.31-0.17,0.45c-0.14,0.17-0.32,0.25-0.54,0.25c-0.16,0-0.37-0.07-0.63-0.22
			c-0.82-0.48-1.61-0.86-2.39-1.16c-0.26-0.1-0.39-0.26-0.39-0.49C74.46,149.11,74.66,148.93,75.06,148.93z"/>
		<path d="M85.83,150.13v2.09c0,0.4,0.15,0.64,0.45,0.72c0.29,0.08,0.79,0.12,1.5,0.12c0.97,0,1.95-0.07,2.95-0.19
			c0.07-0.01,0.12-0.01,0.16-0.01c0.23,0,0.41,0.1,0.53,0.29c0.09,0.14,0.13,0.31,0.13,0.49c0,0.35-0.21,0.56-0.63,0.63
			c-0.53,0.08-1.61,0.12-3.23,0.12c-0.84,0-1.43-0.03-1.77-0.1c-0.61-0.12-1.03-0.39-1.26-0.79c-0.16-0.27-0.24-0.63-0.24-1.07
			v-5.82c0-0.4,0.23-0.6,0.7-0.6s0.7,0.2,0.7,0.6v2.28c1.74-0.27,3.12-0.51,4.15-0.73c0.13-0.03,0.24-0.04,0.33-0.04
			c0.3,0,0.51,0.12,0.62,0.35c0.05,0.11,0.08,0.24,0.08,0.37c0,0.35-0.2,0.57-0.6,0.64c-0.54,0.11-1.95,0.31-4.24,0.62L85.83,150.13
			z M90.66,146.2c0.21,0,0.54,0.21,1,0.62c0.39,0.35,0.58,0.63,0.58,0.83c0,0.15-0.06,0.28-0.19,0.38c-0.1,0.08-0.22,0.12-0.34,0.12
			c-0.17,0-0.31-0.1-0.43-0.29c-0.22-0.36-0.48-0.7-0.79-1.01c-0.1-0.11-0.15-0.22-0.15-0.33C90.34,146.31,90.45,146.2,90.66,146.2z
			 M91.65,145.31c0.22,0,0.54,0.17,0.96,0.53c0.39,0.33,0.58,0.6,0.58,0.83c0,0.16-0.06,0.29-0.18,0.38c-0.09,0.07-0.19,0.1-0.3,0.1
			c-0.15,0-0.3-0.09-0.42-0.28c-0.21-0.31-0.48-0.62-0.79-0.92c-0.12-0.11-0.18-0.22-0.18-0.33c0-0.07,0.03-0.14,0.09-0.21
			C91.46,145.34,91.55,145.31,91.65,145.31z"/>
		<path d="M102.67,146.53c0.24,0,0.46,0.06,0.66,0.18c0.27,0.17,0.4,0.41,0.4,0.72c0,0.2-0.08,0.44-0.25,0.74
			c-0.47,0.82-1.06,1.53-1.76,2.15c-0.4,0.34-0.7,0.51-0.91,0.51c-0.15,0-0.28-0.07-0.38-0.2c-0.07-0.1-0.11-0.19-0.11-0.28
			c0-0.15,0.09-0.31,0.28-0.49c0.56-0.54,0.99-1.08,1.28-1.63c0.08-0.15,0.12-0.25,0.12-0.3c0-0.06-0.05-0.09-0.15-0.09
			c-0.09,0-0.21,0-0.35,0.02c-0.08,0.01-0.33,0.02-0.75,0.05c-0.31,0.02-1.66,0.13-4.02,0.33c-0.8,0.07-1.23,0.1-1.29,0.1
			c-0.47,0-0.7-0.22-0.7-0.65c0-0.37,0.19-0.59,0.56-0.66c0.04-0.01,1.36-0.1,3.94-0.28C101.47,146.6,102.62,146.53,102.67,146.53z
			 M99.1,148.82c0.19,0,0.36,0.06,0.51,0.18c0.09,0.07,0.15,0.15,0.18,0.24c0.04,0.11,0.06,0.3,0.06,0.57
			c0,0.99-0.07,1.76-0.22,2.33c-0.32,1.22-1.05,2.18-2.18,2.86c-0.18,0.11-0.34,0.16-0.48,0.16c-0.17,0-0.29-0.06-0.38-0.17
			c-0.08-0.1-0.12-0.21-0.12-0.33c0-0.14,0.05-0.27,0.16-0.4c0.04-0.06,0.16-0.17,0.36-0.33c0.7-0.57,1.13-1.33,1.31-2.31
			c0.08-0.48,0.13-1.09,0.13-1.82l-0.01-0.3c0-0.28,0.1-0.47,0.31-0.59C98.84,148.85,98.97,148.82,99.1,148.82z"/>
	</g>
</g>
<g id="ガイド" display="none">
</g>
</svg>
