<?xml version="1.0" encoding="utf-8"?>
<!-- Generator: Adobe Illustrator 25.4.1, SVG Export Plug-In . SVG Version: 6.00 Build 0)  -->
<svg version="1.1" xmlns="http://www.w3.org/2000/svg" xmlns:xlink="http://www.w3.org/1999/xlink" x="0px" y="0px"
	 viewBox="0 0 164.41 252.28" enable-background="new 0 0 164.41 252.28" xml:space="preserve">
<g id="地">
	<rect fill="#DCDDDD" width="164.41" height="252.28"/>
</g>
<g id="枠">
</g>
<g id="国旗">
	<g>
		<g>
			<rect x="25.51" y="60" fill="#FFFFFF" width="113.39" height="75.59"/>
			<rect x="25.51" y="110.39" fill="#118749" width="113.39" height="25.2"/>
			<rect x="25.51" y="60" fill="#F5A118" width="113.39" height="25.2"/>
			<circle fill="#F5A118" cx="82.2" cy="97.8" r="10.96"/>
		</g>
	</g>
</g>
<g id="国名">
	<g>
		<path d="M63.59,151.45c0.21,0,0.38,0.05,0.5,0.14c0.17,0.13,0.25,0.31,0.25,0.54c0,0.31-0.13,0.52-0.38,0.63
			c-0.08,0.03-0.33,0.06-0.75,0.08c-2.44,0.12-5.03,0.3-7.77,0.54c-0.08,0.01-0.15,0.01-0.19,0.01c-0.44,0-0.65-0.23-0.65-0.7
			c0-0.33,0.16-0.54,0.47-0.64c0.07-0.02,0.33-0.04,0.79-0.08C60.53,151.62,63.1,151.45,63.59,151.45z M61.29,147.45
			c0.18,0,0.34,0.06,0.47,0.18c0.13,0.12,0.2,0.29,0.2,0.5c0,0.39-0.24,0.62-0.71,0.69c-0.56,0.08-1.31,0.17-2.23,0.24
			c-0.86,0.07-1.42,0.11-1.69,0.11c-0.23,0-0.4-0.07-0.53-0.2c-0.11-0.12-0.16-0.27-0.16-0.46c0-0.31,0.12-0.52,0.36-0.62
			c0.08-0.04,0.27-0.06,0.57-0.07c1.14-0.03,2.26-0.14,3.35-0.33C61.12,147.46,61.24,147.45,61.29,147.45z"/>
		<path d="M66.91,148.77c0.23,0,0.56,0.08,1.01,0.24c0.52,0.19,0.95,0.41,1.3,0.66c0.24,0.18,0.36,0.39,0.36,0.65
			c0,0.16-0.06,0.31-0.17,0.45c-0.14,0.19-0.33,0.29-0.56,0.29c-0.17,0-0.35-0.08-0.56-0.25c-0.42-0.34-0.95-0.7-1.61-1.07
			c-0.22-0.13-0.33-0.28-0.33-0.48c0-0.09,0.02-0.17,0.07-0.26C66.51,148.85,66.68,148.77,66.91,148.77z M74.78,148.4
			c0.11,0,0.21,0.03,0.32,0.09c0.18,0.11,0.28,0.27,0.28,0.48c0,0.21-0.17,0.6-0.52,1.18c-0.57,0.96-1.35,1.83-2.34,2.63
			c-1.18,0.95-2.48,1.67-3.92,2.16c-0.16,0.06-0.3,0.08-0.41,0.08c-0.29,0-0.51-0.13-0.64-0.4c-0.07-0.13-0.1-0.26-0.1-0.38
			c0-0.28,0.13-0.48,0.38-0.62c0.04-0.02,0.28-0.11,0.72-0.26c1.2-0.42,2.31-1.04,3.35-1.87c1-0.79,1.77-1.68,2.31-2.67
			C74.36,148.54,74.55,148.4,74.78,148.4z M68.25,146.26c0.34,0,0.9,0.24,1.68,0.72c0.24,0.14,0.41,0.26,0.52,0.35
			c0.21,0.17,0.32,0.38,0.32,0.61c0,0.16-0.06,0.3-0.17,0.44c-0.17,0.2-0.36,0.3-0.58,0.3c-0.19,0-0.38-0.1-0.58-0.3
			c-0.33-0.34-0.81-0.73-1.45-1.2c-0.2-0.14-0.29-0.3-0.29-0.46c0-0.09,0.03-0.18,0.08-0.26C67.88,146.33,68.04,146.26,68.25,146.26
			z M73.39,145.94c0.21,0,0.54,0.21,0.99,0.62c0.39,0.35,0.58,0.63,0.58,0.84c0,0.14-0.06,0.27-0.19,0.37
			c-0.1,0.08-0.21,0.12-0.34,0.12c-0.17,0-0.31-0.1-0.43-0.29c-0.21-0.35-0.48-0.69-0.79-1.01c-0.1-0.11-0.16-0.22-0.16-0.33
			C73.07,146.05,73.18,145.94,73.39,145.94z M74.54,145.11c0.22,0,0.54,0.18,0.96,0.53c0.39,0.32,0.58,0.6,0.58,0.82
			c0,0.17-0.06,0.29-0.18,0.38c-0.09,0.07-0.19,0.1-0.3,0.1c-0.16,0-0.3-0.09-0.42-0.28c-0.2-0.3-0.47-0.61-0.79-0.92
			c-0.12-0.11-0.18-0.22-0.18-0.33c0-0.07,0.03-0.14,0.09-0.21C74.36,145.14,74.44,145.11,74.54,145.11z"/>
		<path d="M81.35,150.22l-0.1,0c-0.78,0.05-1.24,0.07-1.36,0.07c-0.41,0-0.62-0.2-0.62-0.6c0-0.27,0.14-0.45,0.42-0.52
			c0.06-0.01,0.21-0.03,0.46-0.04c1.55-0.09,2.78-0.2,3.68-0.34c0.06-0.01,0.1-0.01,0.14-0.01c0.29,0,0.47,0.13,0.55,0.39
			c0.02,0.06,0.03,0.13,0.03,0.21c0,0.34-0.18,0.53-0.53,0.58c-0.34,0.04-0.8,0.1-1.4,0.15v2.38l0.21-0.01l1.45-0.08
			c0.78-0.04,1.18-0.07,1.2-0.07c0.18,0,0.32,0.05,0.43,0.16c0.11,0.11,0.17,0.25,0.17,0.44c0,0.28-0.11,0.46-0.33,0.55
			c-0.07,0.03-0.29,0.05-0.66,0.06c-0.77,0.03-2.49,0.13-5.15,0.32c-0.79,0.06-1.2,0.08-1.23,0.08c-0.25,0-0.43-0.1-0.54-0.3
			c-0.05-0.09-0.07-0.2-0.07-0.32c0-0.27,0.13-0.45,0.4-0.54c0.07-0.02,0.75-0.08,2.03-0.17l0.62-0.04l0.22-0.01V150.22z"/>
		<path d="M96.98,149.33c0.23,0,0.42,0.07,0.55,0.22c0.11,0.12,0.17,0.28,0.17,0.48c0,0.37-0.18,0.59-0.53,0.66
			c-0.09,0.02-1.34,0.08-3.74,0.19c-1.1,0.05-2.27,0.11-3.5,0.17c-0.04,0-0.09,0-0.13,0c-0.21,0-0.38-0.06-0.52-0.18
			c-0.14-0.13-0.22-0.3-0.22-0.51c0-0.3,0.13-0.51,0.4-0.63c0.11-0.04,0.37-0.07,0.79-0.09c0.37-0.01,1.29-0.05,2.77-0.13
			c0.63-0.03,1.5-0.07,2.59-0.12c0.37-0.01,0.66-0.03,0.87-0.04C96.76,149.33,96.92,149.33,96.98,149.33z"/>
		<path d="M102.68,147.24c0.47,0,0.7,0.27,0.7,0.8c0,1.92-0.36,3.46-1.07,4.63c-0.3,0.5-0.66,0.91-1.09,1.24
			c-0.15,0.12-0.31,0.18-0.49,0.18c-0.12,0-0.22-0.04-0.32-0.12c-0.11-0.1-0.16-0.21-0.16-0.35c0-0.16,0.07-0.32,0.22-0.49
			c0.6-0.69,1.01-1.51,1.22-2.46c0.17-0.74,0.26-1.64,0.26-2.7c0-0.22,0.05-0.38,0.15-0.49
			C102.25,147.32,102.44,147.24,102.68,147.24z M105.87,146.83v5.65c0,0.14,0.03,0.22,0.1,0.22c0.14,0,0.49-0.2,1.07-0.6
			c0.82-0.56,1.5-1.13,2.03-1.72c0.18-0.21,0.36-0.31,0.52-0.31c0.13,0,0.26,0.05,0.39,0.16c0.13,0.1,0.19,0.24,0.19,0.42
			c0,0.15-0.06,0.31-0.18,0.48c-0.43,0.59-1.08,1.23-1.94,1.92c-0.68,0.54-1.33,0.95-1.94,1.26c-0.23,0.11-0.44,0.17-0.61,0.17
			c-0.2,0-0.39-0.07-0.59-0.21c-0.28-0.2-0.42-0.5-0.42-0.92v-6.51c0-0.24,0.1-0.42,0.32-0.54c0.11-0.06,0.23-0.09,0.37-0.09
			c0.2,0,0.37,0.06,0.51,0.17C105.8,146.49,105.87,146.64,105.87,146.83z"/>
	</g>
</g>
<g id="ガイド" display="none">
</g>
</svg>
