<?xml version="1.0" encoding="utf-8"?>
<!-- Generator: Adobe Illustrator 25.4.1, SVG Export Plug-In . SVG Version: 6.00 Build 0)  -->
<svg version="1.1" xmlns="http://www.w3.org/2000/svg" xmlns:xlink="http://www.w3.org/1999/xlink" x="0px" y="0px"
	 viewBox="0 0 164.41 252.28" enable-background="new 0 0 164.41 252.28" xml:space="preserve">
<g id="地">
	<rect fill="#DCDDDD" width="164.41" height="252.28"/>
</g>
<g id="枠">
</g>
<g id="国旗">
	<g>
		<g>
			<polygon fill="#004876" points="109.13,97.23 70.69,97.23 109.13,136.06 55.4,136.06 55.4,59.53 			"/>
			<polygon fill="#C91623" points="104.68,134.21 57.26,134.21 57.26,63.1 103.26,95.37 66.24,95.37 			"/>
			<polygon fill="#FFFFFF" points="70.44,107.15 72.44,111.28 76.24,108.7 75.91,113.28 80.49,112.95 77.91,116.75 82.05,118.75 
				77.91,120.75 80.49,124.55 75.91,124.22 76.24,128.8 72.44,126.22 70.44,130.35 68.44,126.22 64.64,128.8 64.98,124.22 
				60.4,124.55 62.97,120.75 58.84,118.75 62.97,116.75 60.4,112.95 64.98,113.28 64.64,108.7 68.44,111.28 			"/>
			<path fill="#FFFFFF" d="M80.24,84.08c-0.64,2.01-1.84,3.77-3.42,5.09l-1.57-0.53l1.26-1.83l-2.09,0.04l0.68-2.17l-1.97,0.75
				l0.04-2.3l-1.66,1.38l-0.61-2.2l-1.19,1.88l-1.2-1.88l-0.61,2.2l-1.67-1.38l0.04,2.3l-1.97-0.75l0.68,2.17l-2.09-0.04l1.26,1.83
				l-1.57,0.53c-1.58-1.33-2.78-3.08-3.42-5.09c0,0.04,0,0.09,0,0.13c0,5.82,4.72,10.54,10.54,10.54s10.54-4.72,10.54-10.54
				C80.25,84.16,80.24,84.12,80.24,84.08z"/>
		</g>
	</g>
</g>
<g id="国名">
	<g>
		<path d="M64.5,151.82c-0.92,0.58-1.82,1.04-2.72,1.38c-0.35,0.14-0.6,0.21-0.74,0.21c-0.19,0-0.32-0.07-0.41-0.21
			c-0.06-0.1-0.09-0.19-0.09-0.29c0-0.2,0.09-0.35,0.27-0.47c0.06-0.04,0.19-0.1,0.38-0.19c0.92-0.4,1.82-0.91,2.73-1.54
			c0.87-0.61,1.57-1.21,2.11-1.83c0.13-0.15,0.19-0.24,0.19-0.29c0-0.04-0.03-0.06-0.1-0.06c-0.03,0-0.1,0.01-0.22,0.02
			c-0.35,0.05-1.43,0.16-3.22,0.34c-0.07,0.01-0.13,0.01-0.16,0.01c-0.17,0-0.31-0.05-0.43-0.14c-0.14-0.11-0.21-0.28-0.21-0.5
			c0-0.31,0.13-0.51,0.4-0.6c0.07-0.02,0.24-0.04,0.5-0.05c1.22-0.06,2.62-0.18,4.2-0.38c0.08-0.01,0.14-0.01,0.19-0.01
			c0.21,0,0.4,0.06,0.55,0.17c0.22,0.16,0.33,0.36,0.33,0.62c0,0.22-0.1,0.47-0.3,0.75c-0.53,0.73-1.22,1.46-2.07,2.18
			c0.1,0.11,0.15,0.23,0.15,0.36V155c0,0.38-0.23,0.57-0.68,0.57c-0.46,0-0.69-0.19-0.69-0.57V151.82z M64.02,145.25
			c0.35,0,0.82,0.17,1.41,0.5c0.22,0.12,0.39,0.24,0.53,0.35c0.17,0.15,0.26,0.33,0.26,0.53c0,0.17-0.07,0.33-0.22,0.48
			c-0.15,0.16-0.32,0.23-0.52,0.23c-0.19,0-0.38-0.1-0.57-0.3c-0.32-0.34-0.67-0.62-1.06-0.87c-0.22-0.14-0.33-0.3-0.33-0.49
			c0-0.1,0.04-0.19,0.11-0.27C63.74,145.31,63.87,145.25,64.02,145.25z M66.93,150.72c0.17,0,0.42,0.08,0.75,0.23
			c1.31,0.59,1.96,1.13,1.96,1.62c0,0.17-0.07,0.34-0.2,0.5c-0.13,0.16-0.3,0.24-0.51,0.24c-0.19,0-0.4-0.11-0.61-0.32
			c-0.43-0.42-0.97-0.86-1.61-1.31c-0.2-0.15-0.3-0.31-0.3-0.48c0-0.08,0.02-0.17,0.07-0.25C66.56,150.8,66.72,150.72,66.93,150.72z
			"/>
		<path d="M74.6,148.33c0.11,0,0.22,0.02,0.32,0.07c0.29,0.13,0.44,0.35,0.44,0.65c0,0.27-0.17,0.73-0.51,1.37
			c-0.46,0.88-1.03,1.65-1.72,2.32c-0.5,0.49-0.87,0.74-1.12,0.74c-0.14,0-0.27-0.06-0.38-0.19c-0.09-0.1-0.14-0.21-0.14-0.34
			c0-0.15,0.08-0.32,0.23-0.49c0.9-0.99,1.62-2.18,2.14-3.59C73.99,148.51,74.24,148.33,74.6,148.33z M78.19,148.1
			c0.18,0,0.39,0.12,0.63,0.35c0.58,0.56,1.14,1.25,1.68,2.07c0.61,0.91,0.91,1.54,0.91,1.9c0,0.27-0.12,0.48-0.35,0.63
			c-0.15,0.09-0.29,0.14-0.43,0.14c-0.29,0-0.51-0.13-0.65-0.38c-0.02-0.03-0.07-0.13-0.16-0.32c-0.65-1.38-1.34-2.54-2.06-3.46
			c-0.1-0.12-0.15-0.26-0.15-0.42c0-0.15,0.06-0.27,0.17-0.37C77.91,148.15,78.04,148.1,78.19,148.1z M80.58,145.89
			c0.21,0,0.41,0.05,0.6,0.16c0.21,0.11,0.37,0.27,0.49,0.48c0.11,0.2,0.17,0.41,0.17,0.63c0,0.32-0.11,0.61-0.34,0.86
			c-0.25,0.28-0.56,0.42-0.94,0.42c-0.17,0-0.34-0.04-0.5-0.11c-0.21-0.1-0.38-0.24-0.52-0.43c-0.16-0.22-0.24-0.47-0.24-0.74
			c0-0.45,0.19-0.81,0.58-1.06C80.09,145.96,80.32,145.89,80.58,145.89z M80.57,146.56c-0.11,0-0.22,0.03-0.32,0.09
			c-0.19,0.12-0.28,0.29-0.28,0.51c0,0.15,0.05,0.28,0.15,0.39c0.12,0.14,0.27,0.21,0.45,0.21c0.1,0,0.19-0.02,0.27-0.07
			c0.22-0.11,0.33-0.29,0.33-0.53c0-0.19-0.07-0.34-0.22-0.46C80.84,146.61,80.72,146.56,80.57,146.56z"/>
		<path d="M91.31,149.33c0.23,0,0.42,0.07,0.55,0.22c0.11,0.12,0.17,0.28,0.17,0.48c0,0.37-0.18,0.59-0.53,0.66
			c-0.09,0.02-1.34,0.08-3.74,0.19c-1.1,0.05-2.27,0.11-3.5,0.17c-0.04,0-0.09,0-0.13,0c-0.21,0-0.38-0.06-0.52-0.18
			c-0.14-0.13-0.22-0.3-0.22-0.51c0-0.3,0.13-0.51,0.4-0.63c0.11-0.04,0.37-0.07,0.79-0.09c0.37-0.01,1.29-0.05,2.77-0.13
			c0.63-0.03,1.5-0.07,2.59-0.12c0.37-0.01,0.66-0.03,0.87-0.04C91.09,149.33,91.25,149.33,91.31,149.33z"/>
		<path d="M97.01,147.24c0.47,0,0.7,0.27,0.7,0.8c0,1.92-0.36,3.46-1.07,4.63c-0.3,0.5-0.66,0.91-1.09,1.24
			c-0.15,0.12-0.31,0.18-0.49,0.18c-0.12,0-0.22-0.04-0.32-0.12c-0.11-0.1-0.16-0.21-0.16-0.35c0-0.16,0.07-0.32,0.22-0.49
			c0.6-0.69,1.01-1.51,1.22-2.46c0.17-0.74,0.26-1.64,0.26-2.7c0-0.22,0.05-0.38,0.15-0.49C96.58,147.32,96.77,147.24,97.01,147.24z
			 M100.2,146.83v5.65c0,0.14,0.03,0.22,0.1,0.22c0.14,0,0.49-0.2,1.07-0.6c0.82-0.56,1.5-1.13,2.03-1.72
			c0.18-0.21,0.36-0.31,0.52-0.31c0.13,0,0.26,0.05,0.39,0.16c0.13,0.1,0.19,0.24,0.19,0.42c0,0.15-0.06,0.31-0.18,0.48
			c-0.43,0.59-1.08,1.23-1.94,1.92c-0.68,0.54-1.33,0.95-1.94,1.26c-0.23,0.11-0.44,0.17-0.61,0.17c-0.2,0-0.39-0.07-0.59-0.21
			c-0.28-0.2-0.42-0.5-0.42-0.92v-6.51c0-0.24,0.1-0.42,0.32-0.54c0.11-0.06,0.23-0.09,0.37-0.09c0.2,0,0.37,0.06,0.51,0.17
			C100.13,146.49,100.2,146.64,100.2,146.83z"/>
	</g>
</g>
<g id="ガイド" display="none">
</g>
</svg>
