<?xml version="1.0" encoding="utf-8"?>
<!-- Generator: Adobe Illustrator 25.4.1, SVG Export Plug-In . SVG Version: 6.00 Build 0)  -->
<svg version="1.1" xmlns="http://www.w3.org/2000/svg" xmlns:xlink="http://www.w3.org/1999/xlink" x="0px" y="0px"
	 viewBox="0 0 164.41 252.28" enable-background="new 0 0 164.41 252.28" xml:space="preserve">
<g id="地">
	<rect fill="#DCDDDD" width="164.41" height="252.28"/>
</g>
<g id="枠">
</g>
<g id="国旗">
	<g>
		<g>
			<rect x="25.51" y="60" fill="#FFFFFF" width="113.39" height="75.59"/>
			<rect x="82.2" y="60" fill="#C8152A" width="56.69" height="37.8"/>
			<rect x="25.51" y="97.8" fill="#004876" width="56.69" height="37.8"/>
			<polygon fill="#C8152A" points="110.55,105.94 113.04,113.59 121.08,113.59 114.57,118.32 117.06,125.98 110.55,121.25 
				104.04,125.98 106.53,118.32 100.02,113.59 108.06,113.59 			"/>
			<polygon fill="#004876" points="53.44,67.4 50.95,75.05 42.91,75.05 49.42,79.78 46.93,87.43 53.44,82.7 59.95,87.43 
				57.46,79.78 63.97,75.05 55.93,75.05 			"/>
		</g>
	</g>
</g>
<g id="国名">
	<g>
		<path d="M68.93,148.33c0.11,0,0.22,0.02,0.32,0.07c0.29,0.13,0.44,0.35,0.44,0.65c0,0.27-0.17,0.73-0.51,1.37
			c-0.46,0.88-1.03,1.65-1.72,2.32c-0.5,0.49-0.87,0.74-1.12,0.74c-0.14,0-0.27-0.06-0.38-0.19c-0.09-0.1-0.14-0.21-0.14-0.34
			c0-0.15,0.08-0.32,0.23-0.49c0.9-0.99,1.62-2.18,2.14-3.59C68.32,148.51,68.57,148.33,68.93,148.33z M72.52,148.1
			c0.18,0,0.39,0.12,0.63,0.35c0.58,0.56,1.14,1.25,1.68,2.07c0.61,0.91,0.91,1.54,0.91,1.9c0,0.27-0.12,0.48-0.35,0.63
			c-0.15,0.09-0.29,0.14-0.43,0.14c-0.29,0-0.51-0.13-0.65-0.38c-0.01-0.03-0.07-0.13-0.16-0.32c-0.65-1.38-1.34-2.54-2.06-3.46
			c-0.1-0.12-0.15-0.26-0.15-0.42c0-0.15,0.06-0.27,0.17-0.37C72.24,148.15,72.37,148.1,72.52,148.1z M74.91,145.89
			c0.21,0,0.41,0.05,0.6,0.16c0.21,0.11,0.37,0.27,0.49,0.48c0.11,0.2,0.17,0.41,0.17,0.63c0,0.32-0.11,0.61-0.34,0.86
			c-0.25,0.28-0.56,0.42-0.94,0.42c-0.17,0-0.34-0.04-0.5-0.11c-0.21-0.1-0.38-0.24-0.52-0.43c-0.16-0.22-0.24-0.47-0.24-0.74
			c0-0.45,0.19-0.81,0.58-1.06C74.42,145.96,74.65,145.89,74.91,145.89z M74.9,146.56c-0.11,0-0.22,0.03-0.32,0.09
			c-0.19,0.12-0.28,0.29-0.28,0.51c0,0.15,0.05,0.28,0.15,0.39c0.12,0.14,0.27,0.21,0.45,0.21c0.1,0,0.19-0.02,0.27-0.07
			c0.22-0.11,0.33-0.29,0.33-0.53c0-0.19-0.07-0.34-0.22-0.46C75.17,146.61,75.05,146.56,74.9,146.56z"/>
		<path d="M81.6,148.62v-2.13c0-0.2,0.07-0.36,0.21-0.48c0.13-0.11,0.3-0.17,0.51-0.17c0.28,0,0.49,0.1,0.63,0.31
			c0.06,0.1,0.09,0.21,0.09,0.34v2.04l0.23-0.02c1.41-0.1,2.32-0.17,2.75-0.21c0.06,0,0.1-0.01,0.13-0.01c0.2,0,0.36,0.06,0.49,0.18
			c0.12,0.12,0.19,0.27,0.19,0.46c0,0.28-0.09,0.48-0.27,0.59c-0.11,0.07-0.32,0.11-0.63,0.12c-0.96,0.04-1.92,0.1-2.9,0.17v0.16
			c0,1.91-0.53,3.34-1.58,4.27c-0.5,0.44-0.89,0.67-1.17,0.67c-0.17,0-0.31-0.07-0.42-0.21c-0.07-0.09-0.1-0.19-0.1-0.3
			c0-0.17,0.09-0.34,0.28-0.51c0.72-0.65,1.18-1.41,1.39-2.26c0.11-0.47,0.17-1,0.17-1.57v-0.13c-1.23,0.09-2.26,0.18-3.08,0.25
			c-0.08,0.01-0.14,0.01-0.18,0.01c-0.22,0-0.39-0.06-0.51-0.19c-0.11-0.11-0.17-0.27-0.17-0.46c0-0.35,0.16-0.57,0.48-0.66
			c0.07-0.02,0.84-0.08,2.31-0.19l0.89-0.07L81.6,148.62z"/>
		<path d="M93.69,151.51c0.94-0.7,1.72-1.48,2.35-2.34c0.12-0.17,0.18-0.27,0.18-0.31c0-0.05-0.05-0.07-0.16-0.07
			c-0.38,0-2.5,0.15-6.37,0.44c-0.08,0.01-0.13,0.01-0.15,0.01c-0.22,0-0.39-0.07-0.5-0.22c-0.1-0.12-0.15-0.28-0.15-0.46
			c0-0.37,0.17-0.58,0.5-0.66c0.06-0.01,0.86-0.07,2.41-0.19c3.25-0.2,4.99-0.29,5.2-0.29c0.34,0,0.62,0.09,0.82,0.26
			c0.2,0.17,0.3,0.39,0.3,0.65c0,0.27-0.16,0.61-0.47,1.04c-0.76,1.03-1.81,2-3.14,2.91c0.29,0.31,0.51,0.56,0.66,0.75
			c0.17,0.23,0.25,0.44,0.25,0.65c0,0.29-0.12,0.51-0.35,0.66c-0.14,0.09-0.28,0.13-0.42,0.13c-0.18,0-0.33-0.07-0.46-0.19
			c-0.04-0.04-0.12-0.15-0.23-0.31c-0.44-0.62-1-1.3-1.69-2.03c-0.16-0.17-0.33-0.34-0.52-0.52c-0.15-0.14-0.22-0.29-0.22-0.45
			c0-0.15,0.06-0.28,0.17-0.39c0.1-0.1,0.22-0.16,0.36-0.16c0.16,0,0.35,0.08,0.58,0.24C92.94,150.89,93.3,151.17,93.69,151.51z"/>
	</g>
</g>
<g id="ガイド" display="none">
</g>
</svg>
