<?xml version="1.0" encoding="utf-8"?>
<!-- Generator: Adobe Illustrator 25.4.1, SVG Export Plug-In . SVG Version: 6.00 Build 0)  -->
<svg version="1.1" xmlns="http://www.w3.org/2000/svg" xmlns:xlink="http://www.w3.org/1999/xlink" x="0px" y="0px"
	 viewBox="0 0 164.41 252.28" enable-background="new 0 0 164.41 252.28" xml:space="preserve">
<g id="地">
	<rect fill="#DCDDDD" width="164.41" height="252.28"/>
</g>
<g id="枠">
</g>
<g id="国旗">
	<g>
		<g>
			<rect x="25.51" y="60" fill="#F5CF21" width="113.39" height="75.59"/>
			<rect x="25.51" y="110.29" fill="#117DB1" width="113.39" height="25.31"/>
			<rect x="25.51" y="60" fill="#117DB1" width="113.39" height="25.3"/>
			<polygon fill="#040000" points="85.43,97.8 25.51,60 25.51,135.59 			"/>
		</g>
	</g>
</g>
<g id="国名">
	<g>
		<path d="M68.93,148.33c0.11,0,0.22,0.02,0.32,0.07c0.29,0.13,0.44,0.35,0.44,0.65c0,0.27-0.17,0.73-0.51,1.37
			c-0.46,0.88-1.03,1.65-1.72,2.32c-0.5,0.49-0.87,0.74-1.12,0.74c-0.14,0-0.27-0.06-0.38-0.19c-0.09-0.1-0.14-0.21-0.14-0.34
			c0-0.15,0.08-0.32,0.23-0.49c0.9-0.99,1.62-2.18,2.14-3.59C68.32,148.51,68.57,148.33,68.93,148.33z M72.52,148.1
			c0.18,0,0.39,0.12,0.63,0.35c0.58,0.56,1.14,1.25,1.68,2.07c0.61,0.91,0.91,1.54,0.91,1.9c0,0.27-0.12,0.48-0.35,0.63
			c-0.15,0.09-0.29,0.14-0.43,0.14c-0.29,0-0.51-0.13-0.65-0.38c-0.01-0.03-0.07-0.13-0.16-0.32c-0.65-1.38-1.34-2.54-2.06-3.46
			c-0.1-0.12-0.15-0.26-0.15-0.42c0-0.15,0.06-0.27,0.17-0.37C72.24,148.15,72.37,148.1,72.52,148.1z M73.69,146.57
			c0.21,0,0.54,0.21,0.99,0.62c0.39,0.35,0.58,0.63,0.58,0.83c0,0.14-0.06,0.27-0.19,0.37c-0.1,0.08-0.21,0.12-0.33,0.12
			c-0.17,0-0.31-0.1-0.43-0.29c-0.21-0.34-0.47-0.68-0.79-1.01c-0.1-0.11-0.16-0.22-0.16-0.33
			C73.37,146.67,73.48,146.57,73.69,146.57z M74.68,145.68c0.22,0,0.54,0.18,0.96,0.53c0.39,0.32,0.58,0.6,0.58,0.83
			c0,0.16-0.06,0.28-0.18,0.38c-0.09,0.07-0.19,0.1-0.3,0.1c-0.16,0-0.3-0.09-0.42-0.28c-0.2-0.3-0.46-0.61-0.79-0.92
			c-0.12-0.11-0.18-0.22-0.18-0.33c0-0.07,0.03-0.14,0.09-0.21C74.49,145.71,74.57,145.68,74.68,145.68z"/>
		<path d="M80.27,148.22c0.11,0,0.22,0.02,0.32,0.07c0.29,0.13,0.44,0.35,0.44,0.65c0,0.27-0.17,0.73-0.51,1.37
			c-0.46,0.88-1.03,1.65-1.72,2.32c-0.5,0.49-0.88,0.74-1.12,0.74c-0.14,0-0.27-0.06-0.38-0.19c-0.09-0.1-0.14-0.21-0.14-0.34
			c0-0.16,0.08-0.32,0.23-0.49c0.9-0.99,1.62-2.18,2.14-3.59C79.66,148.4,79.91,148.22,80.27,148.22z M83.96,147.99
			c0.19,0,0.4,0.12,0.64,0.35c0.57,0.56,1.13,1.25,1.68,2.07c0.61,0.91,0.91,1.54,0.91,1.91c0,0.27-0.12,0.48-0.35,0.62
			c-0.14,0.09-0.29,0.14-0.43,0.14c-0.29,0-0.51-0.13-0.65-0.38c-0.01-0.03-0.07-0.13-0.16-0.31c-0.65-1.39-1.34-2.54-2.06-3.47
			c-0.1-0.13-0.15-0.27-0.15-0.42c0-0.15,0.06-0.27,0.17-0.37C83.69,148.04,83.82,147.99,83.96,147.99z"/>
		<path d="M93.69,151.51c0.94-0.7,1.72-1.48,2.35-2.34c0.12-0.17,0.18-0.27,0.18-0.31c0-0.05-0.05-0.07-0.16-0.07
			c-0.38,0-2.5,0.15-6.37,0.44c-0.08,0.01-0.13,0.01-0.15,0.01c-0.22,0-0.39-0.07-0.5-0.22c-0.1-0.12-0.15-0.28-0.15-0.46
			c0-0.37,0.17-0.58,0.5-0.66c0.06-0.01,0.86-0.07,2.41-0.19c3.25-0.2,4.99-0.29,5.2-0.29c0.34,0,0.62,0.09,0.82,0.26
			c0.2,0.17,0.3,0.39,0.3,0.65c0,0.27-0.16,0.61-0.47,1.04c-0.76,1.03-1.81,2-3.14,2.91c0.29,0.31,0.51,0.56,0.66,0.75
			c0.17,0.23,0.25,0.44,0.25,0.65c0,0.29-0.12,0.51-0.35,0.66c-0.14,0.09-0.28,0.13-0.42,0.13c-0.18,0-0.33-0.07-0.46-0.19
			c-0.04-0.04-0.12-0.15-0.23-0.31c-0.44-0.62-1-1.3-1.69-2.03c-0.16-0.17-0.33-0.34-0.52-0.52c-0.15-0.14-0.22-0.29-0.22-0.45
			c0-0.15,0.06-0.28,0.17-0.39c0.1-0.1,0.22-0.16,0.36-0.16c0.16,0,0.35,0.08,0.58,0.24C92.94,150.89,93.3,151.17,93.69,151.51z"/>
	</g>
</g>
<g id="ガイド" display="none">
</g>
</svg>
