<?xml version="1.0" encoding="utf-8"?>
<!-- Generator: Adobe Illustrator 25.4.1, SVG Export Plug-In . SVG Version: 6.00 Build 0)  -->
<svg version="1.1" xmlns="http://www.w3.org/2000/svg" xmlns:xlink="http://www.w3.org/1999/xlink" x="0px" y="0px"
	 viewBox="0 0 164.41 252.28" enable-background="new 0 0 164.41 252.28" xml:space="preserve">
<g id="地">
	<rect fill="#DCDDDD" width="164.41" height="252.28"/>
</g>
<g id="枠">
</g>
<g id="国旗">
	<g>
		<g>
			<rect x="25.51" y="60" fill="#147F49" width="113.39" height="75.59"/>
			<path fill="#C01734" d="M100.92,98.72c0,13.92-11.28,25.2-25.2,25.2c-13.92,0-25.2-11.28-25.2-25.2c0-13.91,11.28-25.2,25.2-25.2
				C89.64,73.53,100.92,84.81,100.92,98.72z"/>
		</g>
	</g>
</g>
<g id="国名">
	<g>
		<path d="M46.25,148.33c0.11,0,0.22,0.02,0.32,0.07c0.29,0.13,0.44,0.35,0.44,0.65c0,0.27-0.17,0.73-0.51,1.37
			c-0.46,0.88-1.03,1.65-1.72,2.32c-0.5,0.49-0.87,0.74-1.12,0.74c-0.14,0-0.27-0.06-0.38-0.19c-0.09-0.1-0.14-0.21-0.14-0.34
			c0-0.15,0.08-0.32,0.23-0.49c0.9-0.99,1.62-2.18,2.14-3.59C45.65,148.51,45.89,148.33,46.25,148.33z M49.84,148.1
			c0.18,0,0.39,0.12,0.63,0.35c0.58,0.56,1.14,1.25,1.68,2.07c0.61,0.91,0.91,1.54,0.91,1.9c0,0.27-0.12,0.48-0.35,0.63
			c-0.15,0.09-0.29,0.14-0.43,0.14c-0.29,0-0.51-0.13-0.65-0.38c-0.02-0.03-0.07-0.13-0.16-0.32c-0.65-1.38-1.34-2.54-2.06-3.46
			c-0.1-0.12-0.15-0.26-0.15-0.42c0-0.15,0.06-0.27,0.17-0.37C49.56,148.15,49.7,148.1,49.84,148.1z M51.02,146.57
			c0.21,0,0.54,0.21,0.99,0.62c0.39,0.35,0.58,0.63,0.58,0.83c0,0.14-0.06,0.27-0.19,0.37c-0.1,0.08-0.21,0.12-0.33,0.12
			c-0.17,0-0.31-0.1-0.43-0.29c-0.21-0.34-0.47-0.68-0.79-1.01c-0.1-0.11-0.16-0.22-0.16-0.33C50.7,146.67,50.8,146.57,51.02,146.57
			z M52,145.68c0.22,0,0.54,0.18,0.96,0.53c0.39,0.32,0.58,0.6,0.58,0.83c0,0.16-0.06,0.28-0.18,0.38c-0.09,0.07-0.19,0.1-0.3,0.1
			c-0.16,0-0.3-0.09-0.42-0.28c-0.2-0.3-0.46-0.61-0.79-0.92c-0.12-0.11-0.18-0.22-0.18-0.33c0-0.07,0.03-0.14,0.09-0.21
			C51.81,145.71,51.89,145.68,52,145.68z"/>
		<path d="M56.4,146.82c0.15,0,0.41,0.07,0.78,0.2c0.69,0.24,1.26,0.53,1.71,0.86c0.24,0.17,0.35,0.39,0.35,0.65
			c0,0.14-0.05,0.29-0.14,0.43c-0.14,0.21-0.33,0.32-0.56,0.32c-0.2,0-0.43-0.09-0.67-0.28c-0.62-0.49-1.18-0.88-1.68-1.16
			c-0.25-0.14-0.38-0.31-0.38-0.51C55.81,146.99,56.01,146.82,56.4,146.82z M63.52,148.59c0.13,0,0.25,0.04,0.36,0.13
			c0.15,0.11,0.23,0.26,0.23,0.45c0,0.15-0.06,0.32-0.18,0.5c-0.85,1.27-1.97,2.37-3.36,3.3c-1.16,0.77-2.35,1.32-3.59,1.66
			c-0.13,0.03-0.24,0.05-0.34,0.05c-0.31,0-0.54-0.14-0.67-0.43c-0.06-0.13-0.09-0.25-0.09-0.37c0-0.27,0.13-0.47,0.4-0.6
			c0.06-0.03,0.3-0.1,0.74-0.23c1.59-0.47,3.06-1.3,4.43-2.51c0.52-0.47,1.02-1,1.48-1.59C63.12,148.7,63.31,148.59,63.52,148.59z"
			/>
		<path d="M70.92,146.82l1.97-0.08c0.74-0.03,1.11,0.27,1.11,0.89c0,0.37-0.15,0.92-0.44,1.64c-0.77,1.92-2.04,3.52-3.81,4.78
			c-0.55,0.39-1.09,0.71-1.62,0.95c-0.2,0.09-0.37,0.14-0.5,0.14c-0.18,0-0.32-0.08-0.43-0.23c-0.07-0.1-0.1-0.2-0.1-0.3
			c0-0.15,0.08-0.29,0.25-0.42c0.05-0.03,0.19-0.12,0.44-0.27c0.84-0.48,1.65-1.13,2.42-1.94c0.93-0.97,1.6-2.06,2.03-3.28
			c0.11-0.32,0.17-0.51,0.17-0.56c0-0.11-0.06-0.15-0.18-0.14h-0.02l-1.87,0.11c-0.69,0.93-1.5,1.72-2.43,2.37
			c-0.2,0.14-0.38,0.2-0.54,0.2c-0.14,0-0.25-0.05-0.34-0.15c-0.08-0.1-0.12-0.2-0.12-0.31c0-0.15,0.06-0.29,0.18-0.42
			c0.04-0.04,0.15-0.14,0.32-0.3c0.55-0.48,1.08-1.12,1.59-1.92c0.19-0.3,0.35-0.58,0.47-0.84c0.15-0.31,0.38-0.47,0.69-0.47
			c0.13,0,0.24,0.02,0.35,0.07C70.74,146.44,70.87,146.6,70.92,146.82z M73.95,145.73c0.21,0,0.54,0.21,1,0.62
			c0.39,0.35,0.58,0.63,0.58,0.83c0,0.15-0.06,0.27-0.19,0.38c-0.1,0.08-0.21,0.12-0.33,0.12c-0.17,0-0.31-0.1-0.43-0.29
			c-0.23-0.37-0.49-0.7-0.79-1.01c-0.1-0.11-0.15-0.22-0.15-0.33C73.63,145.83,73.74,145.73,73.95,145.73z M74.94,144.84
			c0.22,0,0.54,0.18,0.96,0.53c0.39,0.33,0.58,0.6,0.58,0.83c0,0.16-0.06,0.28-0.18,0.38c-0.09,0.07-0.19,0.1-0.3,0.1
			c-0.16,0-0.3-0.09-0.42-0.28c-0.2-0.3-0.47-0.61-0.79-0.92c-0.12-0.12-0.18-0.23-0.18-0.33c0-0.07,0.03-0.14,0.09-0.2
			C74.75,144.87,74.83,144.84,74.94,144.84z"/>
		<path d="M85.04,148.71c0.42,0,0.72,0.15,0.91,0.44c0.1,0.17,0.15,0.37,0.15,0.6c0,0.33-0.11,0.76-0.34,1.29
			c-0.49,1.17-1.32,2.17-2.47,3.02c-0.61,0.45-1.25,0.79-1.92,1.04c-0.17,0.06-0.31,0.09-0.43,0.09c-0.16,0-0.29-0.07-0.38-0.2
			c-0.07-0.11-0.11-0.22-0.11-0.34c0-0.17,0.08-0.31,0.23-0.42c0.03-0.02,0.2-0.11,0.49-0.26c0.73-0.38,1.42-0.91,2.06-1.6
			c0.54-0.58,0.94-1.17,1.2-1.77c0.09-0.2,0.13-0.34,0.13-0.43c0-0.09-0.07-0.13-0.2-0.13c-0.06,0-0.72,0.04-1.99,0.12l-2.37,0.17
			c-0.9,0.07-1.37,0.1-1.4,0.1c-0.23,0-0.4-0.08-0.52-0.25c-0.07-0.11-0.11-0.24-0.11-0.39c0-0.39,0.19-0.62,0.56-0.67
			c0.24-0.03,2.02-0.15,5.36-0.34c0.27-0.01,0.47-0.03,0.61-0.04C84.81,148.72,84.98,148.71,85.04,148.71z M84.16,146.17
			c0.19,0,0.34,0.08,0.45,0.23c0.08,0.12,0.13,0.26,0.13,0.42c0,0.37-0.18,0.59-0.53,0.64c-0.28,0.04-0.69,0.08-1.22,0.13
			c-0.14,0.01-0.75,0.05-1.81,0.11c-0.65,0.04-1.08,0.05-1.31,0.05c-0.46,0-0.7-0.22-0.7-0.65c0-0.33,0.14-0.53,0.41-0.61
			c0.07-0.02,0.23-0.03,0.48-0.03c1.02-0.01,2.21-0.09,3.58-0.23c0.05-0.01,0.17-0.02,0.35-0.04
			C84.07,146.17,84.12,146.17,84.16,146.17z"/>
		<path d="M92.92,150.47c-1.07,0.06-2.23,0.14-3.47,0.24c-0.1,0.01-0.16,0.01-0.19,0.01c-0.27,0-0.46-0.11-0.56-0.32
			c-0.05-0.1-0.08-0.22-0.08-0.36c0-0.37,0.2-0.57,0.59-0.61c0.51-0.06,2.85-0.2,7.04-0.42c0.77-0.04,1.18-0.06,1.21-0.06
			c0.21,0,0.38,0.06,0.5,0.19c0.11,0.12,0.17,0.27,0.17,0.46c0,0.33-0.13,0.54-0.38,0.63c-0.08,0.03-0.24,0.04-0.47,0.05
			c-0.51,0.01-1.37,0.05-2.59,0.1l-0.27,0c-0.06,1.75-0.59,3.08-1.59,3.99c-0.58,0.53-1.03,0.79-1.36,0.79
			c-0.16,0-0.29-0.06-0.39-0.19c-0.09-0.12-0.13-0.24-0.13-0.35c0-0.14,0.06-0.27,0.17-0.38c0.04-0.04,0.15-0.13,0.35-0.28
			c0.61-0.46,1.03-1.11,1.26-1.95C92.82,151.59,92.89,151.08,92.92,150.47z M95.3,146.15c0.17,0,0.31,0.05,0.43,0.14
			c0.14,0.12,0.22,0.29,0.22,0.5c0,0.37-0.18,0.58-0.55,0.65c-0.21,0.03-0.63,0.08-1.26,0.13c-1.16,0.1-2.11,0.14-2.86,0.14
			c-0.55,0-0.83-0.22-0.83-0.67c0-0.26,0.11-0.44,0.32-0.54c0.11-0.06,0.36-0.08,0.74-0.08c0.91,0,1.82-0.04,2.75-0.14
			c0.2-0.02,0.46-0.05,0.76-0.1C95.15,146.16,95.25,146.15,95.3,146.15z M96.56,145.72c0.21,0,0.54,0.21,1,0.62
			c0.39,0.35,0.58,0.63,0.58,0.84c0,0.14-0.06,0.27-0.19,0.37c-0.1,0.08-0.21,0.12-0.34,0.12c-0.17,0-0.3-0.07-0.39-0.22
			c-0.24-0.4-0.52-0.75-0.83-1.08c-0.1-0.11-0.15-0.22-0.15-0.33C96.24,145.82,96.35,145.72,96.56,145.72z M97.6,144.89
			c0.22,0,0.54,0.18,0.96,0.53c0.39,0.33,0.58,0.6,0.58,0.83c0,0.16-0.06,0.28-0.18,0.38c-0.09,0.07-0.19,0.1-0.3,0.1
			c-0.16,0-0.3-0.09-0.42-0.28c-0.2-0.3-0.46-0.61-0.79-0.92c-0.12-0.11-0.18-0.23-0.18-0.34c0-0.07,0.03-0.14,0.09-0.2
			C97.42,144.92,97.5,144.89,97.6,144.89z"/>
		<path d="M101.04,148.77c0.23,0,0.56,0.08,1.01,0.24c0.52,0.19,0.95,0.41,1.3,0.66c0.24,0.18,0.36,0.39,0.36,0.65
			c0,0.16-0.06,0.31-0.17,0.45c-0.14,0.19-0.33,0.29-0.56,0.29c-0.17,0-0.35-0.08-0.56-0.25c-0.42-0.34-0.95-0.7-1.61-1.07
			c-0.22-0.13-0.33-0.28-0.33-0.48c0-0.09,0.02-0.17,0.07-0.26C100.64,148.85,100.8,148.77,101.04,148.77z M108.91,148.4
			c0.11,0,0.21,0.03,0.32,0.09c0.18,0.11,0.28,0.27,0.28,0.48c0,0.21-0.17,0.6-0.52,1.18c-0.57,0.96-1.35,1.83-2.34,2.63
			c-1.18,0.95-2.48,1.67-3.92,2.16c-0.16,0.06-0.3,0.08-0.41,0.08c-0.29,0-0.51-0.13-0.64-0.4c-0.07-0.13-0.1-0.26-0.1-0.38
			c0-0.28,0.13-0.48,0.38-0.62c0.04-0.02,0.28-0.11,0.72-0.26c1.2-0.42,2.31-1.04,3.35-1.87c1-0.79,1.77-1.68,2.31-2.67
			C108.48,148.54,108.68,148.4,108.91,148.4z M102.38,146.26c0.34,0,0.9,0.24,1.68,0.72c0.24,0.14,0.41,0.26,0.52,0.35
			c0.21,0.17,0.32,0.38,0.32,0.61c0,0.16-0.06,0.3-0.17,0.44c-0.17,0.2-0.36,0.3-0.58,0.3c-0.19,0-0.38-0.1-0.58-0.3
			c-0.32-0.34-0.81-0.73-1.44-1.2c-0.2-0.14-0.29-0.3-0.29-0.46c0-0.09,0.03-0.18,0.08-0.26
			C102.01,146.33,102.16,146.26,102.38,146.26z"/>
		<path d="M116.56,152.74c0.21-1.23,0.31-1.97,0.31-2.21c0-0.11-0.05-0.16-0.14-0.16c-0.04,0-0.1,0-0.18,0.01
			c-0.25,0.03-0.69,0.06-1.32,0.11c-0.38,0.03-0.67,0.05-0.88,0.08c-0.06,0.01-0.11,0.01-0.15,0.01c-0.19,0-0.34-0.07-0.45-0.22
			c-0.07-0.1-0.11-0.23-0.11-0.38c0-0.29,0.13-0.48,0.39-0.56c0.06-0.02,0.19-0.03,0.39-0.04l1.28-0.1c0.96-0.07,1.47-0.1,1.54-0.1
			c0.38,0,0.66,0.15,0.82,0.44c0.07,0.14,0.11,0.29,0.11,0.46c0,0.07-0.01,0.17-0.03,0.32c-0.02,0.13-0.05,0.34-0.09,0.63
			c-0.07,0.47-0.14,0.95-0.21,1.44l-0.03,0.21l0.12-0.01c0.86-0.05,1.34-0.08,1.45-0.09c0.04,0,0.07-0.01,0.08-0.01
			c0.13,0,0.25,0.04,0.34,0.12c0.14,0.11,0.21,0.27,0.21,0.48c0,0.32-0.14,0.51-0.42,0.57c-0.04,0.01-1.3,0.09-3.77,0.24
			c-2.03,0.12-3.07,0.18-3.1,0.18c-0.23,0-0.39-0.09-0.49-0.28c-0.04-0.09-0.07-0.19-0.07-0.31c0-0.21,0.07-0.37,0.22-0.48
			c0.11-0.08,0.31-0.13,0.6-0.13c0.06,0,1.15-0.07,3.28-0.19L116.56,152.74z"/>
	</g>
</g>
<g id="ガイド" display="none">
</g>
</svg>
