<?xml version="1.0" encoding="utf-8"?>
<!-- Generator: Adobe Illustrator 25.4.1, SVG Export Plug-In . SVG Version: 6.00 Build 0)  -->
<svg version="1.1" xmlns="http://www.w3.org/2000/svg" xmlns:xlink="http://www.w3.org/1999/xlink" x="0px" y="0px"
	 viewBox="0 0 164.41 252.28" enable-background="new 0 0 164.41 252.28" xml:space="preserve">
<g id="地">
	<rect fill="#DCDDDD" width="164.41" height="252.28"/>
</g>
<g id="枠">
</g>
<g id="国旗">
	<g>
		<g>
			<rect x="25.51" y="60" fill="#FFFFFF" width="113.39" height="75.59"/>
			<polygon fill="#C8152A" points="138.9,97.8 90.23,97.8 25.51,135.59 138.9,135.59 			"/>
			<polygon fill="#004876" points="138.9,97.8 90.23,97.8 25.51,60 138.9,60 			"/>
			<path fill="#F5B819" d="M62.4,99.04l1.59-1.24l-1.59-1.24l-6.91,0.56c-0.01-0.16-0.03-0.32-0.05-0.48l5.95-0.87l-1.19-0.93
				l-4.89,1.09c-0.21-0.94-0.58-1.81-1.08-2.6l4.23-2.69l0.18-1.5l-4.82,3.6c-0.1-0.13-0.2-0.25-0.3-0.37l5.28-4.49l0.24-2l-2,0.24
				l-4.49,5.28c-0.12-0.1-0.25-0.2-0.37-0.3l3.6-4.82l-1.5,0.18l-2.69,4.23c-0.79-0.5-1.66-0.86-2.6-1.08l1.09-4.89l-0.93-1.19
				l-0.87,5.95c-0.16-0.02-0.32-0.04-0.48-0.05l0.56-6.91l-1.24-1.59l-1.24,1.59l0.56,6.91c-0.16,0.01-0.32,0.03-0.48,0.05
				l-0.87-5.95l-0.93,1.19l1.09,4.89c-0.94,0.21-1.81,0.58-2.6,1.08l-2.69-4.23l-1.5-0.18l3.6,4.82c-0.13,0.1-0.25,0.2-0.37,0.3
				l-4.49-5.28l-2-0.24l0.24,2l5.28,4.49c-0.1,0.12-0.2,0.25-0.3,0.37l-4.82-3.6l0.18,1.5l4.23,2.69c-0.5,0.79-0.86,1.66-1.08,2.6
				l-4.89-1.09l-1.19,0.93l5.95,0.87c-0.02,0.16-0.04,0.32-0.05,0.48l-6.91-0.56l-1.59,1.24l1.59,1.24l6.91-0.56
				c0.01,0.16,0.03,0.32,0.05,0.48l-5.95,0.87l1.19,0.93l4.89-1.09c0.21,0.94,0.58,1.81,1.08,2.6l-4.23,2.69l-0.18,1.5l4.82-3.6
				c0.1,0.13,0.2,0.25,0.3,0.37l-5.28,4.49l-0.24,2l2-0.24l4.49-5.28c0.12,0.1,0.25,0.21,0.37,0.3l-3.6,4.82l1.5-0.18l2.69-4.23
				c0.79,0.5,1.66,0.86,2.6,1.08l-1.09,4.89l0.93,1.19l0.87-5.95c0.16,0.02,0.32,0.04,0.48,0.05l-0.56,6.91l1.24,1.59l1.24-1.59
				l-0.56-6.91c0.16-0.01,0.32-0.03,0.48-0.05l0.87,5.95l0.93-1.19L49,105.99c0.94-0.21,1.81-0.58,2.6-1.08l2.69,4.23l1.5,0.18
				l-3.6-4.82c0.13-0.1,0.25-0.2,0.37-0.3l4.49,5.28l2,0.24l-0.24-2l-5.28-4.49c0.1-0.12,0.2-0.25,0.3-0.37l4.82,3.6l-0.18-1.5
				l-4.23-2.69c0.5-0.79,0.86-1.66,1.08-2.6l4.89,1.09l1.19-0.93l-5.95-0.87c0.02-0.16,0.04-0.32,0.05-0.48L62.4,99.04z"/>
			<polygon fill="#F5B819" points="28.52,66.2 30.72,68.12 33.22,66.62 32.08,69.3 34.28,71.21 31.38,70.96 30.24,73.64 29.58,70.8 
				26.68,70.54 29.18,69.04 			"/>
			<polygon fill="#F5B819" points="30.14,121.06 31.29,123.74 34.19,123.48 32,125.4 33.15,128.07 30.64,126.58 28.45,128.5 
				29.1,125.66 26.59,124.17 29.5,123.9 			"/>
			<polygon fill="#F5B819" points="79.9,93.77 79.89,96.69 82.66,97.6 79.88,98.49 79.87,101.4 78.17,99.04 75.39,99.93 
				77.11,97.58 75.41,95.21 78.18,96.12 			"/>
		</g>
	</g>
</g>
<g id="国名">
	<g>
		<path d="M62.18,146.76c0.35,0,0.64,0.11,0.86,0.33c0.19,0.19,0.29,0.44,0.29,0.74c0,0.21-0.06,0.54-0.17,0.99s-0.23,0.85-0.37,1.2
			c-0.7,1.79-1.85,3.18-3.46,4.16c-0.64,0.39-1.1,0.59-1.38,0.59c-0.18,0-0.32-0.07-0.41-0.22c-0.07-0.11-0.1-0.21-0.1-0.32
			c0-0.2,0.13-0.38,0.38-0.52c1.08-0.62,1.97-1.43,2.65-2.42c0.61-0.87,1.03-1.82,1.26-2.85c0.02-0.08,0.03-0.14,0.03-0.19
			c0-0.09-0.05-0.13-0.16-0.13c-0.08,0-0.18,0.01-0.3,0.02c-0.21,0.02-1.16,0.08-2.86,0.2c-0.63,0.04-1.32,0.1-2.06,0.16
			c-0.07,0.01-0.13,0.01-0.16,0.01c-0.46,0-0.69-0.24-0.69-0.71c0-0.36,0.17-0.57,0.51-0.64c0.16-0.03,1.81-0.14,4.96-0.33
			c0.31-0.02,0.56-0.04,0.73-0.05C61.97,146.77,62.12,146.76,62.18,146.76z"/>
		<path d="M70.43,151.2c-0.77,0.51-1.54,0.91-2.28,1.2c-0.15,0.06-0.27,0.09-0.37,0.09c-0.17,0-0.3-0.08-0.37-0.23
			c-0.04-0.08-0.06-0.16-0.06-0.23c0-0.16,0.07-0.3,0.21-0.4c0.03-0.02,0.18-0.1,0.47-0.25c0.72-0.38,1.45-0.88,2.19-1.51
			c0.72-0.61,1.3-1.23,1.75-1.88c0.16-0.21,0.34-0.32,0.56-0.32c0.15,0,0.29,0.05,0.4,0.15c0.17,0.14,0.26,0.31,0.26,0.49
			c0,0.14-0.07,0.31-0.22,0.51c-0.41,0.56-0.91,1.09-1.5,1.59c0.12,0.1,0.18,0.23,0.18,0.39v3.73c0,0.17-0.05,0.3-0.16,0.4
			c-0.11,0.11-0.26,0.16-0.46,0.16c-0.27,0-0.46-0.1-0.55-0.3c-0.04-0.08-0.06-0.17-0.06-0.27V151.2z"/>
		<path d="M80.83,146.75v3.86c0,0.2-0.06,0.35-0.19,0.46c-0.13,0.11-0.3,0.17-0.53,0.17c-0.31,0-0.52-0.11-0.63-0.32
			c-0.05-0.09-0.07-0.2-0.07-0.32v-3.86c0-0.26,0.1-0.44,0.31-0.55c0.12-0.06,0.25-0.09,0.39-0.09c0.24,0,0.43,0.07,0.56,0.21
			C80.78,146.43,80.83,146.57,80.83,146.75z M84.81,146.25v3.41c0,1.12-0.13,2.07-0.4,2.85c-0.35,1.01-1,1.85-1.95,2.54
			c-0.18,0.13-0.36,0.19-0.53,0.19c-0.16,0-0.27-0.05-0.35-0.14c-0.08-0.1-0.12-0.2-0.12-0.32c0-0.16,0.08-0.33,0.25-0.5
			c0.44-0.45,0.74-0.82,0.91-1.08c0.37-0.59,0.6-1.29,0.7-2.12c0.05-0.4,0.08-0.87,0.08-1.39v-3.42c0-0.38,0.23-0.58,0.7-0.58
			C84.57,145.68,84.81,145.87,84.81,146.25z"/>
		<path d="M91.5,150.13v2.09c0,0.4,0.15,0.64,0.45,0.72c0.29,0.08,0.79,0.12,1.5,0.12c0.97,0,1.95-0.07,2.95-0.19
			c0.07-0.01,0.12-0.01,0.16-0.01c0.23,0,0.41,0.1,0.53,0.29c0.09,0.14,0.13,0.31,0.13,0.49c0,0.35-0.21,0.56-0.63,0.63
			c-0.53,0.08-1.61,0.12-3.23,0.12c-0.84,0-1.43-0.03-1.77-0.1c-0.61-0.12-1.03-0.39-1.26-0.79c-0.16-0.27-0.24-0.63-0.24-1.07
			v-5.82c0-0.4,0.23-0.6,0.7-0.6s0.7,0.2,0.7,0.6v2.28c1.74-0.27,3.12-0.51,4.15-0.73c0.13-0.03,0.24-0.04,0.33-0.04
			c0.3,0,0.51,0.12,0.62,0.35c0.05,0.11,0.08,0.24,0.08,0.37c0,0.35-0.2,0.57-0.6,0.64c-0.54,0.11-1.95,0.31-4.24,0.62L91.5,150.13z
			 M97.49,145.32c0.21,0,0.41,0.05,0.61,0.16c0.21,0.11,0.37,0.27,0.49,0.48c0.11,0.2,0.17,0.41,0.17,0.62
			c0,0.33-0.11,0.61-0.34,0.86c-0.25,0.28-0.56,0.42-0.94,0.42c-0.17,0-0.34-0.03-0.5-0.1c-0.21-0.1-0.39-0.24-0.52-0.43
			c-0.16-0.22-0.24-0.47-0.24-0.74c0-0.45,0.19-0.81,0.58-1.06C97,145.39,97.24,145.32,97.49,145.32z M97.48,145.99
			c-0.11,0-0.21,0.03-0.32,0.09c-0.19,0.12-0.28,0.29-0.28,0.51c0,0.15,0.05,0.28,0.15,0.39c0.12,0.14,0.27,0.2,0.45,0.2
			c0.1,0,0.19-0.02,0.27-0.07c0.22-0.11,0.33-0.29,0.33-0.53c0-0.19-0.07-0.34-0.22-0.46C97.76,146.04,97.63,145.99,97.48,145.99z"
			/>
		<path d="M101.76,146.82c0.15,0,0.41,0.07,0.78,0.2c0.69,0.24,1.26,0.53,1.71,0.86c0.24,0.17,0.35,0.39,0.35,0.65
			c0,0.14-0.05,0.29-0.14,0.43c-0.14,0.21-0.33,0.32-0.56,0.32c-0.2,0-0.43-0.09-0.67-0.28c-0.62-0.49-1.18-0.88-1.68-1.16
			c-0.25-0.14-0.38-0.31-0.38-0.51C101.17,146.99,101.36,146.82,101.76,146.82z M108.88,148.59c0.12,0,0.25,0.04,0.36,0.13
			c0.15,0.11,0.23,0.26,0.23,0.45c0,0.15-0.06,0.32-0.18,0.5c-0.85,1.27-1.97,2.37-3.36,3.3c-1.16,0.77-2.35,1.32-3.59,1.66
			c-0.13,0.03-0.24,0.05-0.34,0.05c-0.31,0-0.54-0.14-0.67-0.43c-0.06-0.13-0.09-0.25-0.09-0.37c0-0.27,0.13-0.47,0.4-0.6
			c0.06-0.03,0.3-0.1,0.74-0.23c1.59-0.47,3.06-1.3,4.43-2.51c0.52-0.47,1.02-1,1.48-1.59C108.47,148.7,108.67,148.59,108.88,148.59
			z"/>
	</g>
</g>
<g id="ガイド" display="none">
</g>
</svg>
