<?xml version="1.0" encoding="utf-8"?>
<!-- Generator: Adobe Illustrator 25.4.1, SVG Export Plug-In . SVG Version: 6.00 Build 0)  -->
<svg version="1.1" xmlns="http://www.w3.org/2000/svg" xmlns:xlink="http://www.w3.org/1999/xlink" x="0px" y="0px"
	 viewBox="0 0 164.41 252.28" enable-background="new 0 0 164.41 252.28" xml:space="preserve">
<g id="地">
	<rect fill="#DCDDDD" width="164.41" height="252.28"/>
</g>
<g id="枠">
</g>
<g id="国旗">
	<g>
		<g>
			<rect x="25.51" y="60" fill="#FFFFFF" width="113.39" height="75.59"/>
			<polygon fill="#294097" points="81.08,88.97 81.08,60 60.72,60 60.72,88.97 25.51,88.97 25.51,109.33 60.72,109.33 60.72,135.59 
				81.08,135.59 81.08,109.33 138.9,109.33 138.9,88.97 			"/>
		</g>
	</g>
</g>
<g id="国名">
	<g>
		<path d="M56.52,146.76c0.35,0,0.64,0.11,0.86,0.33c0.19,0.19,0.29,0.44,0.29,0.74c0,0.21-0.06,0.54-0.17,0.99s-0.23,0.85-0.37,1.2
			c-0.7,1.79-1.85,3.18-3.46,4.16c-0.64,0.39-1.1,0.59-1.38,0.59c-0.18,0-0.32-0.07-0.41-0.22c-0.07-0.11-0.1-0.21-0.1-0.32
			c0-0.2,0.13-0.38,0.38-0.52c1.08-0.62,1.97-1.43,2.65-2.42c0.61-0.87,1.03-1.82,1.26-2.85c0.02-0.08,0.03-0.14,0.03-0.19
			c0-0.09-0.05-0.13-0.16-0.13c-0.08,0-0.18,0.01-0.3,0.02c-0.21,0.02-1.16,0.08-2.86,0.2c-0.63,0.04-1.32,0.1-2.06,0.16
			c-0.07,0.01-0.13,0.01-0.16,0.01c-0.46,0-0.69-0.24-0.69-0.71c0-0.36,0.17-0.57,0.51-0.64c0.16-0.03,1.81-0.14,4.96-0.33
			c0.31-0.02,0.56-0.04,0.73-0.05C56.3,146.77,56.45,146.76,56.52,146.76z"/>
		<path d="M64.76,151.2c-0.77,0.51-1.54,0.91-2.28,1.2c-0.15,0.06-0.27,0.09-0.37,0.09c-0.17,0-0.3-0.08-0.37-0.23
			c-0.04-0.08-0.06-0.16-0.06-0.23c0-0.16,0.07-0.3,0.21-0.4c0.03-0.02,0.18-0.1,0.47-0.25c0.72-0.38,1.45-0.88,2.19-1.51
			c0.72-0.61,1.3-1.23,1.75-1.88c0.16-0.21,0.34-0.32,0.56-0.32c0.15,0,0.29,0.05,0.4,0.15c0.17,0.14,0.26,0.31,0.26,0.49
			c0,0.14-0.07,0.31-0.22,0.51c-0.41,0.56-0.91,1.09-1.5,1.59c0.12,0.1,0.18,0.23,0.18,0.39v3.73c0,0.17-0.05,0.3-0.16,0.4
			c-0.11,0.11-0.26,0.16-0.46,0.16c-0.27,0-0.46-0.1-0.55-0.3c-0.04-0.08-0.06-0.17-0.06-0.27V151.2z"/>
		<path d="M73.41,146.82c0.15,0,0.41,0.07,0.78,0.2c0.69,0.24,1.26,0.53,1.71,0.86c0.24,0.17,0.35,0.39,0.35,0.65
			c0,0.14-0.05,0.29-0.14,0.43c-0.14,0.21-0.33,0.32-0.56,0.32c-0.2,0-0.43-0.09-0.67-0.28c-0.62-0.49-1.18-0.88-1.68-1.16
			c-0.25-0.14-0.38-0.31-0.38-0.51C72.82,146.99,73.02,146.82,73.41,146.82z M80.53,148.59c0.13,0,0.25,0.04,0.36,0.13
			c0.15,0.11,0.23,0.26,0.23,0.45c0,0.15-0.06,0.32-0.18,0.5c-0.85,1.27-1.97,2.37-3.36,3.3c-1.16,0.77-2.35,1.32-3.59,1.66
			c-0.13,0.03-0.24,0.05-0.34,0.05c-0.31,0-0.54-0.14-0.67-0.43c-0.06-0.13-0.09-0.25-0.09-0.37c0-0.27,0.13-0.47,0.4-0.6
			c0.06-0.03,0.3-0.1,0.74-0.23c1.59-0.47,3.06-1.3,4.43-2.51c0.52-0.47,1.02-1,1.48-1.59C80.13,148.7,80.32,148.59,80.53,148.59z"
			/>
		<path d="M90.71,148.71c0.42,0,0.72,0.15,0.91,0.44c0.1,0.17,0.15,0.37,0.15,0.6c0,0.33-0.11,0.76-0.34,1.29
			c-0.49,1.17-1.32,2.17-2.47,3.02c-0.61,0.45-1.25,0.79-1.92,1.04c-0.17,0.06-0.31,0.09-0.43,0.09c-0.16,0-0.29-0.07-0.38-0.2
			c-0.07-0.11-0.11-0.22-0.11-0.34c0-0.17,0.08-0.31,0.23-0.42c0.03-0.02,0.2-0.11,0.49-0.26c0.73-0.38,1.42-0.91,2.06-1.6
			c0.54-0.58,0.94-1.17,1.2-1.77c0.09-0.2,0.13-0.34,0.13-0.43c0-0.09-0.07-0.13-0.2-0.13c-0.06,0-0.72,0.04-1.99,0.12l-2.37,0.17
			c-0.9,0.07-1.37,0.1-1.4,0.1c-0.23,0-0.4-0.08-0.52-0.25c-0.07-0.11-0.11-0.24-0.11-0.39c0-0.39,0.19-0.62,0.56-0.67
			c0.24-0.03,2.02-0.15,5.36-0.34c0.27-0.01,0.47-0.03,0.61-0.04C90.48,148.72,90.65,148.71,90.71,148.71z M89.83,146.17
			c0.19,0,0.34,0.08,0.45,0.23c0.08,0.12,0.13,0.26,0.13,0.42c0,0.37-0.18,0.59-0.53,0.64c-0.28,0.04-0.69,0.08-1.22,0.13
			c-0.14,0.01-0.75,0.05-1.81,0.11c-0.65,0.04-1.08,0.05-1.31,0.05c-0.46,0-0.7-0.22-0.7-0.65c0-0.33,0.14-0.53,0.41-0.61
			c0.07-0.02,0.23-0.03,0.48-0.03c1.02-0.01,2.21-0.09,3.58-0.23c0.05-0.01,0.17-0.02,0.35-0.04
			C89.74,146.17,89.79,146.17,89.83,146.17z"/>
		<path d="M96.09,146.82c0.15,0,0.41,0.07,0.78,0.2c0.69,0.24,1.26,0.53,1.71,0.86c0.24,0.17,0.35,0.39,0.35,0.65
			c0,0.14-0.05,0.29-0.14,0.43c-0.14,0.21-0.33,0.32-0.56,0.32c-0.2,0-0.43-0.09-0.67-0.28c-0.62-0.49-1.18-0.88-1.68-1.16
			c-0.25-0.14-0.38-0.31-0.38-0.51C95.5,146.99,95.69,146.82,96.09,146.82z M103.21,148.59c0.13,0,0.25,0.04,0.36,0.13
			c0.15,0.11,0.23,0.26,0.23,0.45c0,0.15-0.06,0.32-0.18,0.5c-0.85,1.27-1.97,2.37-3.36,3.3c-1.16,0.77-2.35,1.32-3.59,1.66
			c-0.13,0.03-0.24,0.05-0.34,0.05c-0.31,0-0.54-0.14-0.67-0.43c-0.06-0.13-0.09-0.25-0.09-0.37c0-0.27,0.13-0.47,0.4-0.6
			c0.06-0.03,0.3-0.1,0.74-0.23c1.59-0.47,3.06-1.3,4.43-2.51c0.52-0.47,1.02-1,1.48-1.59C102.81,148.7,103,148.59,103.21,148.59z"
			/>
		<path d="M110.28,150.28v4.34c0,0.21-0.07,0.37-0.2,0.48c-0.12,0.11-0.29,0.16-0.5,0.16c-0.47,0-0.71-0.21-0.71-0.64v-8.28
			c0-0.42,0.23-0.63,0.71-0.63c0.31,0,0.52,0.11,0.63,0.32c0.05,0.09,0.07,0.2,0.07,0.32v2.72c1.32,0.34,2.34,0.76,3.07,1.24
			c0.32,0.21,0.48,0.46,0.48,0.76c0,0.2-0.07,0.36-0.2,0.5c-0.14,0.15-0.31,0.23-0.52,0.23c-0.18,0-0.4-0.09-0.66-0.27
			C111.84,151.1,111.11,150.69,110.28,150.28z M112.69,146.86c0.21,0,0.54,0.21,1,0.62c0.39,0.35,0.58,0.63,0.58,0.83
			c0,0.15-0.06,0.27-0.19,0.37c-0.1,0.08-0.21,0.12-0.34,0.12c-0.17,0-0.31-0.1-0.43-0.29c-0.21-0.35-0.48-0.69-0.79-1.01
			c-0.1-0.11-0.16-0.22-0.16-0.33C112.37,146.97,112.47,146.86,112.69,146.86z M113.84,145.99c0.22,0,0.54,0.18,0.96,0.53
			c0.39,0.32,0.58,0.6,0.58,0.83c0,0.16-0.06,0.28-0.18,0.38c-0.09,0.07-0.19,0.1-0.3,0.1c-0.16,0-0.3-0.09-0.42-0.28
			c-0.2-0.31-0.47-0.61-0.79-0.92c-0.12-0.11-0.18-0.22-0.18-0.33c0-0.07,0.03-0.14,0.09-0.2
			C113.66,146.03,113.74,145.99,113.84,145.99z"/>
	</g>
</g>
<g id="ガイド" display="none">
</g>
</svg>
