<?xml version="1.0" encoding="utf-8"?>
<!-- Generator: Adobe Illustrator 25.4.1, SVG Export Plug-In . SVG Version: 6.00 Build 0)  -->
<svg version="1.1" xmlns="http://www.w3.org/2000/svg" xmlns:xlink="http://www.w3.org/1999/xlink" x="0px" y="0px"
	 viewBox="0 0 164.41 252.28" enable-background="new 0 0 164.41 252.28" xml:space="preserve">
<g id="地">
	<rect fill="#DCDDDD" width="164.41" height="252.28"/>
</g>
<g id="枠">
</g>
<g id="国旗">
	<g>
		<g>
			<rect x="25.51" y="60" fill="#C8152A" width="113.39" height="75.59"/>
			<rect x="25.51" y="97.8" fill="#147F49" width="113.39" height="37.8"/>
			<polygon fill="#F5CF21" points="82.08,79.75 86.13,92.22 99.24,92.22 88.64,99.93 92.69,112.4 82.08,104.69 71.47,112.4 
				75.52,99.93 64.91,92.22 78.03,92.22 			"/>
		</g>
	</g>
</g>
<g id="国名">
	<g>
		<path d="M50.39,146.99c0.35,0,0.64,0.11,0.86,0.33c0.19,0.19,0.29,0.44,0.29,0.74c0,0.21-0.06,0.54-0.17,0.99
			c-0.11,0.45-0.23,0.85-0.37,1.2c-0.7,1.79-1.86,3.18-3.46,4.16c-0.64,0.39-1.1,0.59-1.38,0.59c-0.18,0-0.32-0.07-0.41-0.22
			c-0.07-0.11-0.1-0.21-0.1-0.32c0-0.2,0.13-0.38,0.38-0.52c1.08-0.62,1.97-1.43,2.65-2.42c0.61-0.87,1.03-1.82,1.26-2.85
			c0.02-0.08,0.03-0.14,0.03-0.19c0-0.09-0.05-0.13-0.16-0.13c-0.08,0-0.18,0.01-0.3,0.02c-0.21,0.02-1.16,0.08-2.86,0.2
			c-0.63,0.04-1.32,0.1-2.07,0.16c-0.07,0.01-0.13,0.01-0.16,0.01c-0.46,0-0.69-0.24-0.69-0.71c0-0.36,0.17-0.57,0.51-0.64
			c0.16-0.03,1.81-0.14,4.96-0.33c0.31-0.02,0.56-0.04,0.73-0.05C50.18,147,50.33,146.99,50.39,146.99z M51.22,145.66
			c0.21,0,0.54,0.21,1,0.62c0.39,0.35,0.58,0.63,0.58,0.83c0,0.14-0.06,0.27-0.19,0.37c-0.1,0.08-0.21,0.12-0.34,0.12
			c-0.17,0-0.31-0.1-0.43-0.29c-0.21-0.35-0.47-0.68-0.79-1.01c-0.1-0.11-0.15-0.22-0.15-0.33
			C50.9,145.77,51.01,145.66,51.22,145.66z M52.26,144.87c0.22,0,0.54,0.18,0.95,0.53c0.39,0.33,0.58,0.6,0.58,0.83
			c0,0.16-0.06,0.28-0.18,0.38c-0.09,0.07-0.19,0.1-0.3,0.1c-0.16,0-0.3-0.09-0.42-0.28c-0.2-0.3-0.46-0.61-0.79-0.92
			c-0.12-0.11-0.18-0.23-0.18-0.33c0-0.08,0.03-0.15,0.09-0.2C52.08,144.9,52.16,144.87,52.26,144.87z"/>
		<path d="M57.33,147.24c0.47,0,0.7,0.27,0.7,0.8c0,1.92-0.36,3.46-1.07,4.63c-0.3,0.5-0.67,0.91-1.09,1.24
			c-0.15,0.12-0.31,0.18-0.49,0.18c-0.12,0-0.22-0.04-0.32-0.12c-0.11-0.1-0.16-0.21-0.16-0.35c0-0.16,0.07-0.32,0.22-0.49
			c0.6-0.69,1.01-1.51,1.22-2.46c0.17-0.74,0.26-1.64,0.26-2.7c0-0.22,0.05-0.38,0.15-0.49C56.9,147.32,57.09,147.24,57.33,147.24z
			 M60.51,146.83v5.65c0,0.14,0.03,0.22,0.1,0.22c0.14,0,0.49-0.2,1.07-0.6c0.82-0.56,1.5-1.13,2.03-1.72
			c0.18-0.21,0.36-0.31,0.52-0.31c0.13,0,0.26,0.05,0.39,0.16c0.12,0.1,0.19,0.24,0.19,0.42c0,0.15-0.06,0.31-0.18,0.48
			c-0.43,0.59-1.08,1.23-1.94,1.92c-0.68,0.54-1.33,0.95-1.94,1.26c-0.23,0.11-0.44,0.17-0.62,0.17c-0.2,0-0.39-0.07-0.59-0.21
			c-0.28-0.2-0.42-0.5-0.42-0.92v-6.51c0-0.24,0.1-0.42,0.32-0.54c0.11-0.06,0.23-0.09,0.37-0.09c0.2,0,0.37,0.06,0.51,0.17
			C60.44,146.49,60.51,146.64,60.51,146.83z"/>
		<path d="M69.61,147.89l-0.28-1.38c-0.01-0.08-0.02-0.16-0.02-0.23c0-0.26,0.1-0.44,0.3-0.55c0.12-0.07,0.25-0.1,0.41-0.1
			c0.38,0,0.61,0.2,0.69,0.59l0.28,1.39c0.91-0.19,1.55-0.33,1.92-0.42c0.1-0.03,0.18-0.04,0.27-0.04c0.27,0,0.46,0.11,0.58,0.33
			c0.05,0.11,0.08,0.22,0.08,0.34c0,0.32-0.19,0.53-0.56,0.62c-0.27,0.07-0.88,0.2-1.84,0.39l-0.19,0.04l0.32,1.57
			c0.47-0.1,1.45-0.3,2.93-0.61c0.11-0.02,0.19-0.03,0.26-0.03c0.28,0,0.47,0.12,0.58,0.35c0.04,0.1,0.07,0.21,0.07,0.33
			c0,0.28-0.14,0.47-0.42,0.58c-0.06,0.02-0.19,0.05-0.38,0.09c-0.52,0.1-1.36,0.28-2.52,0.53l-0.26,0.06l0.55,2.77
			c0.01,0.07,0.02,0.14,0.02,0.22c0,0.28-0.11,0.47-0.32,0.58c-0.12,0.06-0.26,0.09-0.42,0.09c-0.37,0-0.6-0.21-0.68-0.63
			l-0.54-2.75l-0.23,0.05l-1.89,0.4c-0.8,0.17-1.23,0.25-1.31,0.25c-0.27,0-0.46-0.12-0.56-0.36c-0.04-0.1-0.07-0.22-0.07-0.35
			c0-0.28,0.15-0.48,0.45-0.58c0.04-0.01,0.69-0.15,1.95-0.42l1.13-0.24l0.25-0.06l-0.3-1.58l-0.17,0.03
			c-1.34,0.25-2.08,0.37-2.25,0.37c-0.41,0-0.62-0.23-0.62-0.68c0-0.37,0.25-0.58,0.74-0.65C68.16,148.15,68.84,148.03,69.61,147.89
			z"/>
		<path d="M81.59,148.62v-2.13c0-0.2,0.07-0.36,0.21-0.48c0.13-0.11,0.3-0.17,0.51-0.17c0.28,0,0.49,0.1,0.63,0.31
			c0.06,0.1,0.09,0.21,0.09,0.34v2.04l0.23-0.02c1.41-0.1,2.32-0.17,2.75-0.21c0.06,0,0.1-0.01,0.13-0.01c0.2,0,0.36,0.06,0.49,0.18
			c0.12,0.12,0.19,0.27,0.19,0.46c0,0.28-0.09,0.48-0.27,0.59c-0.11,0.07-0.32,0.11-0.62,0.12c-0.96,0.04-1.92,0.1-2.9,0.17v0.16
			c0,1.91-0.53,3.34-1.58,4.27c-0.5,0.44-0.89,0.67-1.17,0.67c-0.17,0-0.31-0.07-0.42-0.21c-0.07-0.09-0.11-0.19-0.11-0.3
			c0-0.17,0.09-0.34,0.28-0.51c0.72-0.65,1.18-1.41,1.39-2.26c0.11-0.47,0.17-1,0.17-1.57v-0.13c-1.23,0.09-2.26,0.18-3.08,0.25
			c-0.08,0.01-0.14,0.01-0.18,0.01c-0.22,0-0.39-0.06-0.52-0.19c-0.11-0.11-0.17-0.27-0.17-0.46c0-0.35,0.16-0.57,0.48-0.66
			c0.07-0.02,0.84-0.08,2.31-0.19l0.89-0.07L81.59,148.62z"/>
		<path d="M96.2,146.76c0.35,0,0.64,0.11,0.86,0.33c0.19,0.19,0.29,0.44,0.29,0.74c0,0.21-0.05,0.54-0.17,0.99
			c-0.11,0.45-0.23,0.85-0.37,1.2c-0.7,1.79-1.85,3.18-3.46,4.16c-0.64,0.39-1.1,0.59-1.38,0.59c-0.18,0-0.32-0.07-0.41-0.22
			c-0.07-0.11-0.1-0.21-0.1-0.32c0-0.2,0.13-0.38,0.38-0.52c1.08-0.62,1.97-1.43,2.65-2.42c0.61-0.87,1.03-1.82,1.26-2.85
			c0.02-0.08,0.03-0.14,0.03-0.19c0-0.09-0.05-0.13-0.16-0.13c-0.08,0-0.18,0.01-0.3,0.02c-0.21,0.02-1.16,0.08-2.86,0.2
			c-0.63,0.04-1.32,0.1-2.07,0.16c-0.07,0.01-0.13,0.01-0.16,0.01c-0.46,0-0.69-0.24-0.69-0.71c0-0.36,0.17-0.57,0.51-0.64
			c0.16-0.03,1.81-0.14,4.96-0.33c0.31-0.02,0.56-0.04,0.73-0.05C95.99,146.77,96.13,146.76,96.2,146.76z"/>
		<path d="M107.54,148.13c0.21,0,0.39,0.05,0.56,0.15c0.24,0.15,0.35,0.37,0.35,0.65c0,0.17-0.07,0.38-0.21,0.62
			c-0.45,0.79-1.01,1.44-1.68,1.94c-0.17,0.13-0.32,0.19-0.46,0.19c-0.16,0-0.28-0.06-0.38-0.19c-0.06-0.08-0.09-0.16-0.09-0.24
			c0-0.14,0.11-0.32,0.34-0.54c0.33-0.31,0.63-0.71,0.9-1.18c0.04-0.06,0.06-0.11,0.06-0.14c0-0.04-0.03-0.06-0.11-0.06
			c-0.04,0-0.16,0.01-0.35,0.03c-0.24,0.03-1.43,0.13-3.57,0.3c-0.71,0.06-1.08,0.09-1.1,0.09c-0.39,0-0.59-0.21-0.59-0.63
			c0-0.27,0.14-0.44,0.41-0.53c0.07-0.02,0.25-0.03,0.55-0.05c1.08-0.05,2.7-0.17,4.87-0.37
			C107.31,148.14,107.47,148.13,107.54,148.13z M104.75,149.97c0.17,0,0.32,0.05,0.45,0.16c0.08,0.08,0.14,0.17,0.17,0.29
			c0.01,0.04,0.02,0.15,0.02,0.33c0,0.89-0.08,1.6-0.24,2.13c-0.28,0.9-0.81,1.59-1.61,2.07c-0.19,0.12-0.35,0.18-0.49,0.18
			c-0.15,0-0.26-0.05-0.34-0.14c-0.07-0.09-0.11-0.18-0.11-0.29c0-0.18,0.11-0.35,0.34-0.53c0.55-0.43,0.91-1,1.08-1.73
			c0.11-0.45,0.15-1,0.14-1.63c0-0.21,0.01-0.37,0.05-0.48c0.04-0.11,0.1-0.19,0.2-0.25C104.5,150.01,104.62,149.97,104.75,149.97z"
			/>
		<path d="M112.9,146.92c0.28,0,0.67,0.24,1.16,0.73c0.69,0.69,1.04,1.23,1.04,1.62c0,0.27-0.12,0.47-0.36,0.63
			c-0.17,0.11-0.34,0.16-0.51,0.16c-0.21,0-0.38-0.09-0.51-0.27c-0.03-0.04-0.08-0.13-0.14-0.27c-0.26-0.59-0.61-1.16-1.06-1.73
			c-0.1-0.13-0.15-0.25-0.15-0.38c0-0.14,0.05-0.26,0.16-0.35C112.64,146.97,112.77,146.92,112.9,146.92z M119.41,146.49
			c0.12,0,0.23,0.02,0.34,0.06c0.3,0.12,0.45,0.35,0.45,0.69c0,0.16-0.04,0.43-0.13,0.82c-0.57,2.46-1.84,4.42-3.82,5.88
			c-0.45,0.33-0.91,0.61-1.37,0.84c-0.2,0.1-0.37,0.14-0.51,0.14c-0.18,0-0.31-0.07-0.41-0.21c-0.08-0.11-0.12-0.22-0.12-0.33
			c0-0.16,0.06-0.3,0.19-0.42c0.04-0.04,0.26-0.2,0.66-0.46c0.53-0.35,1.07-0.83,1.62-1.43c1.3-1.41,2.09-3.04,2.38-4.89
			C118.77,146.73,119.01,146.49,119.41,146.49z"/>
	</g>
</g>
<g id="ガイド" display="none">
</g>
</svg>
