<?xml version="1.0" encoding="utf-8"?>
<!-- Generator: Adobe Illustrator 25.4.1, SVG Export Plug-In . SVG Version: 6.00 Build 0)  -->
<svg version="1.1" xmlns="http://www.w3.org/2000/svg" xmlns:xlink="http://www.w3.org/1999/xlink" x="0px" y="0px"
	 viewBox="0 0 164.41 252.28" enable-background="new 0 0 164.41 252.28" xml:space="preserve">
<g id="地">
	<rect x="0" fill="#DCDDDD" width="164.41" height="252.28"/>
</g>
<g id="枠" display="none">
	<g display="inline">
		<path d="M161.57,2.83v246.61H2.83V2.83H161.57 M164.41,0H0v252.28h164.41V0L164.41,0z"/>
	</g>
</g>
<g id="国旗">
	<g>
		<g>
			<rect x="25.51" y="60" fill="#C91623" width="113.39" height="75.59"/>
			<rect x="25.51" y="60" fill="#00477E" width="113.39" height="25.2"/>
			<rect x="25.51" y="110.39" fill="#147F49" width="113.39" height="25.2"/>
			<path fill="#FFFFFF" d="M71.77,97.8c0-5.76,4.67-10.43,10.43-10.43c1.05,0,2.06,0.16,3.02,0.45c-1.74-1.04-3.77-1.63-5.94-1.63
				c-6.42,0-11.62,5.2-11.62,11.62c0,6.42,5.2,11.62,11.62,11.62c2.17,0,4.2-0.6,5.94-1.63c-0.96,0.29-1.97,0.45-3.02,0.45
				C76.44,108.23,71.77,103.56,71.77,97.8z"/>
			<polygon fill="#FFFFFF" points="91.02,92.8 92.17,94.87 94.44,94.22 93.79,96.49 95.86,97.64 93.79,98.79 94.44,101.07 
				92.17,100.41 91.02,102.48 89.87,100.41 87.59,101.07 88.25,98.79 86.18,97.64 88.25,96.49 87.59,94.22 89.87,94.87 			"/>
		</g>
	</g>
</g>
<g id="飾り">
</g>
<g id="国名">
	<g>
		<path d="M45.97,146.52c0.24,0,0.46,0.06,0.66,0.18c0.27,0.17,0.4,0.41,0.4,0.72c0,0.2-0.08,0.44-0.25,0.74
			c-0.47,0.82-1.06,1.53-1.76,2.15c-0.4,0.34-0.7,0.51-0.91,0.51c-0.15,0-0.28-0.07-0.38-0.2c-0.07-0.1-0.11-0.19-0.11-0.28
			c0-0.15,0.09-0.31,0.28-0.49c0.56-0.54,0.99-1.08,1.28-1.63c0.08-0.15,0.12-0.25,0.12-0.3c0-0.06-0.05-0.09-0.15-0.09
			c-0.09,0-0.21,0-0.35,0.02c-0.08,0.01-0.33,0.02-0.75,0.05c-0.31,0.02-1.66,0.13-4.02,0.33c-0.8,0.07-1.23,0.1-1.29,0.1
			c-0.47,0-0.7-0.22-0.7-0.65c0-0.37,0.19-0.59,0.56-0.66c0.04-0.01,1.36-0.1,3.94-0.28C44.78,146.6,45.93,146.52,45.97,146.52z
			 M42.41,148.82c0.19,0,0.36,0.06,0.51,0.18c0.09,0.07,0.15,0.15,0.18,0.24c0.04,0.11,0.06,0.3,0.06,0.57
			c0,0.99-0.07,1.76-0.22,2.33c-0.32,1.22-1.05,2.18-2.18,2.86c-0.18,0.11-0.34,0.16-0.48,0.16c-0.17,0-0.29-0.06-0.38-0.17
			c-0.08-0.1-0.12-0.21-0.12-0.33c0-0.14,0.05-0.27,0.16-0.4c0.04-0.06,0.16-0.17,0.36-0.33c0.7-0.57,1.13-1.33,1.31-2.31
			c0.08-0.48,0.13-1.09,0.13-1.82l-0.01-0.3c0-0.28,0.1-0.47,0.31-0.59C42.15,148.85,42.28,148.82,42.41,148.82z"/>
		<path d="M51.57,148.88c0-0.94-0.01-1.49-0.02-1.66c-0.01-0.29-0.02-0.51-0.02-0.66c0-0.44,0.24-0.66,0.71-0.66
			c0.39,0,0.62,0.17,0.68,0.5c0.01,0.05,0.03,0.54,0.05,1.47l0.01,0.5l0.01,0.18l0.28-0.07c2.1-0.52,3.22-0.79,3.36-0.84
			c0.11-0.03,0.21-0.04,0.3-0.04c0.26,0,0.49,0.08,0.68,0.24c0.2,0.16,0.29,0.37,0.29,0.61c0,0.35-0.34,0.96-1.03,1.8
			c-0.65,0.8-1.13,1.21-1.44,1.21c-0.14,0-0.26-0.05-0.35-0.16c-0.07-0.08-0.11-0.17-0.11-0.27c0-0.14,0.09-0.32,0.27-0.54
			c0.36-0.45,0.63-0.86,0.83-1.24c0.04-0.08,0.07-0.14,0.07-0.17c0-0.02-0.02-0.03-0.05-0.03c-0.06,0-1.02,0.24-2.87,0.73
			l-0.24,0.06v0.19l-0.01,2.4c0,0.27,0.07,0.46,0.2,0.58c0.12,0.11,0.34,0.17,0.66,0.17c1.1,0,1.99-0.05,2.67-0.14
			c0.1-0.01,0.18-0.02,0.23-0.02c0.28,0,0.46,0.13,0.56,0.39c0.04,0.1,0.06,0.21,0.06,0.33c0,0.36-0.19,0.58-0.58,0.65
			c-0.34,0.06-1.33,0.09-2.96,0.09c-0.65,0-1.14-0.09-1.48-0.26c-0.32-0.17-0.54-0.41-0.66-0.74c-0.08-0.2-0.12-0.5-0.12-0.88
			c0-0.47,0.01-1.2,0.02-2.2l0.01-0.21c-0.27,0.07-0.59,0.15-0.95,0.24c-0.52,0.13-0.84,0.2-0.95,0.2c-0.22,0-0.37-0.09-0.46-0.27
			c-0.07-0.13-0.1-0.26-0.1-0.39c0-0.28,0.14-0.48,0.43-0.59c0.04-0.01,0.48-0.12,1.32-0.32l0.54-0.13L51.57,148.88z M56.95,145.76
			c0.21,0,0.54,0.21,0.99,0.62c0.39,0.35,0.58,0.63,0.58,0.83c0,0.15-0.06,0.27-0.19,0.38c-0.1,0.08-0.21,0.12-0.33,0.12
			c-0.17,0-0.32-0.1-0.43-0.29c-0.21-0.35-0.48-0.69-0.79-1.01c-0.1-0.11-0.15-0.22-0.15-0.33
			C56.63,145.87,56.73,145.76,56.95,145.76z M57.93,144.87c0.22,0,0.54,0.18,0.96,0.53c0.39,0.33,0.58,0.6,0.58,0.83
			c0,0.16-0.06,0.28-0.18,0.38c-0.09,0.07-0.19,0.1-0.3,0.1c-0.16,0-0.3-0.09-0.42-0.28c-0.2-0.31-0.47-0.61-0.79-0.92
			c-0.12-0.11-0.18-0.23-0.18-0.33c0-0.07,0.03-0.14,0.09-0.2C57.74,144.9,57.82,144.87,57.93,144.87z"/>
		<path d="M63,147.24c0.47,0,0.7,0.27,0.7,0.8c0,1.92-0.36,3.46-1.07,4.63c-0.3,0.5-0.66,0.91-1.09,1.24
			c-0.15,0.12-0.31,0.18-0.49,0.18c-0.12,0-0.22-0.04-0.32-0.12c-0.11-0.1-0.16-0.21-0.16-0.35c0-0.16,0.07-0.32,0.22-0.49
			c0.6-0.69,1.01-1.51,1.22-2.46c0.17-0.74,0.26-1.64,0.26-2.7c0-0.22,0.05-0.38,0.15-0.49C62.57,147.32,62.76,147.24,63,147.24z
			 M66.18,146.83v5.65c0,0.14,0.03,0.22,0.1,0.22c0.14,0,0.49-0.2,1.07-0.6c0.82-0.56,1.5-1.13,2.03-1.72
			c0.18-0.21,0.36-0.31,0.52-0.31c0.13,0,0.26,0.05,0.39,0.16c0.13,0.1,0.19,0.24,0.19,0.42c0,0.15-0.06,0.31-0.18,0.48
			c-0.43,0.59-1.08,1.23-1.94,1.92c-0.68,0.54-1.33,0.95-1.94,1.26c-0.23,0.11-0.44,0.17-0.61,0.17c-0.2,0-0.39-0.07-0.59-0.21
			c-0.28-0.2-0.42-0.5-0.42-0.92v-6.51c0-0.24,0.1-0.42,0.32-0.54c0.11-0.06,0.23-0.09,0.37-0.09c0.2,0,0.37,0.06,0.51,0.17
			C66.11,146.49,66.18,146.64,66.18,146.83z"/>
		<path d="M74.6,148.33c0.11,0,0.22,0.02,0.32,0.07c0.29,0.13,0.44,0.35,0.44,0.65c0,0.27-0.17,0.73-0.51,1.37
			c-0.46,0.88-1.03,1.65-1.72,2.32c-0.5,0.49-0.87,0.74-1.12,0.74c-0.14,0-0.27-0.06-0.38-0.19c-0.09-0.1-0.14-0.21-0.14-0.34
			c0-0.15,0.08-0.32,0.23-0.49c0.9-0.99,1.62-2.18,2.14-3.59C73.99,148.51,74.24,148.33,74.6,148.33z M78.19,148.1
			c0.18,0,0.39,0.12,0.63,0.35c0.58,0.56,1.14,1.25,1.68,2.07c0.61,0.91,0.91,1.54,0.91,1.9c0,0.27-0.12,0.48-0.35,0.63
			c-0.15,0.09-0.29,0.14-0.43,0.14c-0.29,0-0.51-0.13-0.65-0.38c-0.02-0.03-0.07-0.13-0.16-0.32c-0.65-1.38-1.34-2.54-2.06-3.46
			c-0.1-0.12-0.15-0.26-0.15-0.42c0-0.15,0.06-0.27,0.17-0.37C77.91,148.15,78.04,148.1,78.19,148.1z M79.36,146.57
			c0.21,0,0.54,0.21,0.99,0.62c0.39,0.35,0.58,0.63,0.58,0.83c0,0.14-0.06,0.27-0.19,0.37c-0.1,0.08-0.21,0.12-0.33,0.12
			c-0.17,0-0.31-0.1-0.43-0.29c-0.21-0.34-0.47-0.68-0.79-1.01c-0.1-0.11-0.16-0.22-0.16-0.33
			C79.04,146.67,79.15,146.57,79.36,146.57z M80.34,145.68c0.22,0,0.54,0.18,0.96,0.53c0.39,0.32,0.58,0.6,0.58,0.83
			c0,0.16-0.06,0.28-0.18,0.38c-0.09,0.07-0.19,0.1-0.3,0.1c-0.16,0-0.3-0.09-0.42-0.28c-0.2-0.3-0.46-0.61-0.79-0.92
			c-0.12-0.11-0.18-0.22-0.18-0.33c0-0.07,0.03-0.14,0.09-0.21C80.16,145.71,80.24,145.68,80.34,145.68z"/>
		<path d="M87.45,150.05c-0.94,0.64-1.88,1.17-2.8,1.57c-0.32,0.14-0.55,0.21-0.69,0.21c-0.16,0-0.29-0.06-0.38-0.18
			c-0.08-0.1-0.12-0.21-0.12-0.33c0-0.17,0.08-0.32,0.23-0.43c0.06-0.04,0.26-0.15,0.62-0.34c1.06-0.57,2.08-1.26,3.07-2.08
			c0.91-0.76,1.62-1.51,2.13-2.25c0.16-0.24,0.37-0.37,0.61-0.37c0.14,0,0.27,0.04,0.41,0.13c0.24,0.15,0.36,0.35,0.36,0.6
			c0,0.17-0.1,0.38-0.29,0.63c-0.53,0.67-1.21,1.35-2.04,2.03c0.2,0.12,0.3,0.3,0.3,0.54v4.65c0,0.23-0.07,0.4-0.22,0.52
			c-0.12,0.1-0.29,0.16-0.49,0.16c-0.32,0-0.53-0.12-0.64-0.37c-0.04-0.09-0.06-0.19-0.06-0.31V150.05z"/>
		<path d="M95.26,148.77c0.23,0,0.56,0.08,1.01,0.24c0.52,0.19,0.95,0.41,1.3,0.66c0.24,0.18,0.36,0.39,0.36,0.65
			c0,0.16-0.05,0.31-0.17,0.45c-0.14,0.19-0.33,0.29-0.56,0.29c-0.17,0-0.35-0.08-0.57-0.25c-0.42-0.34-0.95-0.7-1.61-1.07
			c-0.22-0.13-0.33-0.28-0.33-0.48c0-0.09,0.02-0.17,0.07-0.26C94.86,148.84,95.02,148.77,95.26,148.77z M103.13,148.4
			c0.11,0,0.21,0.03,0.32,0.09c0.18,0.11,0.28,0.27,0.28,0.48c0,0.21-0.17,0.6-0.52,1.18c-0.57,0.96-1.35,1.83-2.34,2.63
			c-1.18,0.95-2.48,1.67-3.92,2.16c-0.16,0.06-0.3,0.08-0.41,0.08c-0.29,0-0.51-0.13-0.64-0.4c-0.07-0.13-0.1-0.26-0.1-0.38
			c0-0.28,0.13-0.48,0.38-0.62c0.04-0.02,0.28-0.11,0.72-0.26c1.2-0.42,2.31-1.04,3.35-1.87c1-0.79,1.77-1.68,2.31-2.67
			C102.71,148.54,102.9,148.4,103.13,148.4z M96.6,146.26c0.34,0,0.89,0.24,1.68,0.72c0.24,0.14,0.41,0.26,0.52,0.35
			c0.21,0.17,0.32,0.38,0.32,0.61c0,0.16-0.05,0.3-0.17,0.44c-0.17,0.2-0.36,0.3-0.58,0.3c-0.19,0-0.38-0.1-0.58-0.3
			c-0.33-0.34-0.81-0.73-1.45-1.2c-0.2-0.14-0.29-0.3-0.29-0.46c0-0.09,0.03-0.18,0.08-0.26C96.23,146.33,96.38,146.26,96.6,146.26z
			 M101.74,145.94c0.21,0,0.54,0.21,0.99,0.62c0.39,0.35,0.58,0.63,0.58,0.84c0,0.14-0.06,0.27-0.19,0.37
			c-0.1,0.08-0.21,0.12-0.34,0.12c-0.17,0-0.31-0.1-0.43-0.29c-0.21-0.35-0.48-0.69-0.79-1.01c-0.1-0.11-0.16-0.22-0.16-0.33
			C101.42,146.05,101.52,145.94,101.74,145.94z M102.89,145.11c0.22,0,0.54,0.18,0.96,0.53c0.39,0.32,0.58,0.6,0.58,0.82
			c0,0.17-0.06,0.29-0.18,0.38c-0.09,0.07-0.19,0.1-0.3,0.1c-0.16,0-0.3-0.09-0.42-0.28c-0.2-0.3-0.47-0.61-0.79-0.92
			c-0.12-0.11-0.18-0.22-0.18-0.33c0-0.07,0.03-0.14,0.09-0.21C102.7,145.14,102.78,145.11,102.89,145.11z"/>
		<path d="M109.04,149.9l-0.02-0.09l-0.14-0.6c-0.12-0.51-0.19-0.79-0.19-0.86c0-0.2,0.08-0.34,0.24-0.44
			c0.12-0.07,0.26-0.11,0.41-0.11c0.31,0,0.51,0.18,0.59,0.54c0.01,0.07,0.04,0.19,0.08,0.34c0.07,0.25,0.14,0.53,0.21,0.84
			l0.03,0.11l0.2-0.04c1.35-0.32,2.2-0.52,2.55-0.61c0.12-0.03,0.22-0.04,0.31-0.04c0.2,0,0.38,0.05,0.52,0.16
			c0.2,0.15,0.29,0.35,0.29,0.61c0,0.42-0.3,1.02-0.91,1.8c-0.44,0.56-0.78,0.85-1.03,0.85c-0.12,0-0.22-0.04-0.3-0.13
			c-0.09-0.1-0.13-0.2-0.13-0.3c0-0.11,0.06-0.24,0.19-0.4c0.28-0.35,0.5-0.71,0.65-1.07c0.03-0.07,0.05-0.12,0.05-0.15
			c0-0.04-0.02-0.06-0.07-0.06c-0.06,0-0.69,0.15-1.88,0.44l-0.19,0.04l0.07,0.27c0.51,2.06,0.79,3.18,0.84,3.37
			c0.03,0.1,0.04,0.19,0.04,0.26c0,0.25-0.11,0.42-0.33,0.53c-0.1,0.05-0.21,0.07-0.34,0.07c-0.25,0-0.43-0.13-0.53-0.38
			c-0.01-0.03-0.2-0.78-0.55-2.24l-0.32-1.28l-0.07-0.3c-0.18,0.04-0.41,0.1-0.67,0.17c-0.75,0.19-1.18,0.29-1.29,0.29
			c-0.17,0-0.3-0.05-0.39-0.15c-0.1-0.11-0.16-0.26-0.16-0.44c0-0.31,0.21-0.51,0.61-0.6C107.91,150.17,108.45,150.05,109.04,149.9z
			"/>
		<path d="M118.77,146.82c0.15,0,0.41,0.07,0.78,0.2c0.69,0.24,1.26,0.53,1.71,0.86c0.24,0.17,0.35,0.39,0.35,0.65
			c0,0.14-0.05,0.29-0.14,0.43c-0.14,0.21-0.33,0.32-0.56,0.32c-0.2,0-0.43-0.09-0.67-0.28c-0.62-0.49-1.18-0.88-1.68-1.16
			c-0.25-0.14-0.38-0.31-0.38-0.51C118.17,146.99,118.37,146.82,118.77,146.82z M125.89,148.59c0.12,0,0.25,0.04,0.36,0.13
			c0.15,0.11,0.23,0.26,0.23,0.45c0,0.15-0.06,0.32-0.18,0.5c-0.85,1.27-1.97,2.37-3.36,3.3c-1.16,0.77-2.35,1.32-3.59,1.66
			c-0.13,0.03-0.24,0.05-0.34,0.05c-0.31,0-0.54-0.14-0.67-0.43c-0.06-0.13-0.09-0.25-0.09-0.37c0-0.27,0.13-0.47,0.4-0.6
			c0.06-0.03,0.3-0.1,0.74-0.23c1.59-0.47,3.07-1.3,4.43-2.51c0.52-0.47,1.02-1,1.48-1.59C125.48,148.7,125.68,148.59,125.89,148.59
			z"/>
	</g>
</g>
</svg>
