<?xml version="1.0" encoding="utf-8"?>
<!-- Generator: Adobe Illustrator 25.4.1, SVG Export Plug-In . SVG Version: 6.00 Build 0)  -->
<svg version="1.1" xmlns="http://www.w3.org/2000/svg" xmlns:xlink="http://www.w3.org/1999/xlink" x="0px" y="0px"
	 viewBox="0 0 164.41 252.28" enable-background="new 0 0 164.41 252.28" xml:space="preserve">
<g id="地">
	<rect fill="#DCDDDD" width="164.41" height="252.28"/>
</g>
<g id="枠" display="none">
	<g display="inline">
		<path d="M161.57,2.83v246.61H2.83V2.83H161.57 M164.41,0H0v252.28h164.41V0L164.41,0z"/>
	</g>
</g>
<g id="国旗">
	<g>
		<g>
			<rect x="25.51" y="59.92" fill="#FFFFFF" width="113.39" height="75.59"/>
			<rect x="25.51" y="59.92" fill="#C91623" width="113.39" height="25"/>
			<rect x="25.51" y="110.51" fill="#040000" width="113.39" height="25"/>
			<polygon fill="#0D7741" points="45.1,92.8 46.43,96.88 50.71,96.88 47.24,99.4 48.57,103.47 45.1,100.95 41.64,103.47 
				42.96,99.4 39.49,96.88 43.78,96.88 			"/>
			<polygon fill="#0D7741" points="82.65,92.8 83.98,96.88 88.26,96.88 84.8,99.4 86.12,103.47 82.65,100.95 79.19,103.47 
				80.51,99.4 77.05,96.88 81.33,96.88 			"/>
			<polygon fill="#0D7741" points="118.89,92.8 120.21,96.88 124.5,96.88 121.03,99.4 122.36,103.47 118.89,100.95 115.42,103.47 
				116.75,99.4 113.28,96.88 117.57,96.88 			"/>
			<path fill="#0D7741" d="M55.41,105.65c-1.04,0-2.13-0.15-2.17-0.16l0.01-0.38c0.42-0.03,1.98-0.67,7.36-5.82l0.05-0.05
				c0.28-0.27,0.55-0.4,0.83-0.4c0.59,0,1.12,0.56,1.93,1.42c0.17,0.19,0.36,0.38,0.57,0.59c0.45,0.46,0.67,0.53,0.76,0.53
				c0.04,0,0.06-0.01,0.09-0.04c0.27-0.27,0.27-1.48,0.27-2.77l0-0.37c0-2.57,0.19-3.26,1.15-4.09c0.88-0.76,5.57-4.32,5.77-4.48
				l0.29,0.25c-0.48,0.86-2.04,3.66-2.21,3.83c-0.07,0.07-0.26,0.18-0.85,0.51c-0.76,0.43-1.91,1.07-2.25,1.42
				c-0.45,0.45-0.44,3.94-0.43,5.08l0,0.38c0,0.92-0.35,3.13-1.2,3.13c-0.36,0-0.98-0.55-2.21-1.72c-0.6-0.57-1.42-1.35-1.63-1.38
				c-0.25,0.05-1.38,1.23-2.21,2.1c-0.94,0.98-1.83,1.91-2.27,2.15C56.74,105.57,56.2,105.65,55.41,105.65L55.41,105.65z"/>
			<polygon fill="#0D7741" points="61.79,105.42 60.63,104.48 61.81,103.14 62.87,103.98 			"/>
			<polygon fill="#0D7741" points="71.67,94.6 70.66,93.77 71.57,92.69 72.35,93.52 			"/>
			<polygon fill="#0D7741" points="70.82,105 70.82,95.77 72.54,93.79 72.54,103.29 			"/>
			<path fill="#0D7741" d="M102.26,90.53c0,0-0.08,1.57-1.09,1.57c-1.01,0-0.85-1.41-0.85-1.41s0.08,0.68,0.93,0.68
				C102.1,91.37,102.26,90.53,102.26,90.53z"/>
			<path fill="#0D7741" d="M101.22,90.24c-0.36,0-0.44-0.76-0.04-0.76C101.58,89.48,101.58,90.24,101.22,90.24z"/>
			<path fill="#0D7741" d="M108.28,104.66v-9.6l2.06-2.08c0,0-0.39,9.04-0.43,9.57C109.87,103.09,108.28,104.66,108.28,104.66
				L108.28,104.66z"/>
			<path fill="#0D7741" d="M105.12,95v6.88c0,0.7-0.39,1.42-1.26,1.42c-0.86,0-1.78-1.01-1.78-2.5v-8.43l-2.24,1.61v7.63
				c0,0.76-0.73,1.9-1.82,1.9c-1.12,0-1.44-0.37-1.44-1.66v-6.88c0,0-2.72,2.17-3.69,3.2c-0.7,0.75-1.64,2.3-1.34,3.21
				c0.18,0.53,0.6,0.82,1.19,0.82c1.1,0,1.83-0.51,2.22-0.91v2.08c0,0.75,1.1,1.8,2.89,1.8c1.45,0,2.68-1.36,3.14-1.95
				c0.32,0.61,1.18,1.91,2.82,1.91c2.17,0,3.35-2.18,3.35-3.29v-8.92L105.12,95z M95.17,99.5c0,0-1.65,1.29-1.65,0.24
				s1.65-1.77,1.65-1.77V99.5z"/>
		</g>
	</g>
</g>
<g id="飾り">
</g>
<g id="国名">
	<g>
		<path d="M70.45,150.05c-0.94,0.64-1.88,1.17-2.8,1.57c-0.32,0.14-0.55,0.21-0.69,0.21c-0.16,0-0.29-0.06-0.38-0.18
			c-0.08-0.1-0.12-0.21-0.12-0.33c0-0.17,0.08-0.32,0.23-0.43c0.06-0.04,0.26-0.15,0.62-0.34c1.06-0.57,2.08-1.26,3.07-2.08
			c0.91-0.76,1.62-1.51,2.13-2.25c0.16-0.24,0.37-0.37,0.61-0.37c0.14,0,0.27,0.04,0.41,0.13c0.24,0.15,0.36,0.35,0.36,0.6
			c0,0.17-0.1,0.38-0.29,0.63c-0.53,0.67-1.21,1.35-2.04,2.03c0.2,0.12,0.3,0.3,0.3,0.54v4.65c0,0.23-0.07,0.4-0.22,0.52
			c-0.12,0.1-0.29,0.16-0.49,0.16c-0.32,0-0.53-0.12-0.64-0.37c-0.04-0.09-0.06-0.19-0.06-0.31V150.05z"/>
		<path d="M85.04,148.71c0.42,0,0.72,0.15,0.91,0.44c0.1,0.17,0.16,0.37,0.16,0.6c0,0.33-0.11,0.76-0.34,1.29
			c-0.5,1.17-1.32,2.17-2.47,3.02c-0.61,0.45-1.25,0.79-1.92,1.04c-0.17,0.06-0.31,0.09-0.43,0.09c-0.16,0-0.29-0.07-0.38-0.2
			c-0.07-0.11-0.11-0.22-0.11-0.34c0-0.17,0.08-0.31,0.23-0.42c0.03-0.02,0.2-0.11,0.49-0.26c0.73-0.38,1.42-0.91,2.07-1.6
			c0.54-0.58,0.94-1.17,1.2-1.77c0.09-0.2,0.13-0.34,0.13-0.43c0-0.09-0.07-0.13-0.2-0.13c-0.06,0-0.72,0.04-1.99,0.12l-2.37,0.17
			c-0.9,0.07-1.37,0.1-1.4,0.1c-0.23,0-0.4-0.08-0.52-0.25c-0.07-0.11-0.11-0.24-0.11-0.39c0-0.39,0.19-0.62,0.57-0.67
			c0.24-0.03,2.02-0.15,5.36-0.34c0.27-0.01,0.47-0.03,0.61-0.04C84.81,148.72,84.98,148.71,85.04,148.71z M84.16,146.17
			c0.19,0,0.34,0.08,0.45,0.23c0.08,0.12,0.13,0.26,0.13,0.42c0,0.37-0.17,0.59-0.53,0.64c-0.28,0.04-0.69,0.08-1.22,0.13
			c-0.14,0.01-0.75,0.05-1.81,0.11c-0.65,0.04-1.08,0.05-1.31,0.05c-0.46,0-0.7-0.22-0.7-0.65c0-0.33,0.14-0.53,0.41-0.61
			c0.07-0.02,0.23-0.03,0.48-0.03c1.02-0.01,2.21-0.09,3.58-0.23c0.05-0.01,0.17-0.02,0.35-0.04
			C84.07,146.17,84.12,146.17,84.16,146.17z"/>
		<path d="M94,146.59l2-0.08c0.73-0.03,1.1,0.27,1.1,0.9c0,0.38-0.15,0.95-0.45,1.71c-0.8,2.04-2.16,3.7-4.08,4.99
			c-0.9,0.61-1.53,0.91-1.87,0.91c-0.18,0-0.32-0.08-0.43-0.23c-0.07-0.1-0.1-0.2-0.1-0.3c0-0.15,0.08-0.29,0.25-0.42
			c0.05-0.04,0.19-0.13,0.44-0.27c0.83-0.48,1.62-1.11,2.39-1.91c0.96-1,1.65-2.11,2.06-3.31c0.13-0.38,0.2-0.62,0.2-0.7
			c0-0.09-0.06-0.13-0.17-0.12h-0.03l-1.91,0.11c-0.69,0.93-1.5,1.72-2.43,2.37c-0.2,0.14-0.38,0.21-0.54,0.21
			c-0.14,0-0.25-0.05-0.34-0.16c-0.08-0.1-0.12-0.2-0.12-0.31c0-0.15,0.06-0.29,0.18-0.42c0.04-0.04,0.15-0.14,0.32-0.29
			c0.55-0.48,1.08-1.13,1.59-1.93c0.19-0.3,0.35-0.58,0.47-0.84c0.15-0.31,0.38-0.47,0.69-0.47c0.13,0,0.24,0.02,0.35,0.07
			C93.81,146.21,93.95,146.37,94,146.59z"/>
	</g>
</g>
</svg>
