<?xml version="1.0" encoding="utf-8"?>
<!-- Generator: Adobe Illustrator 25.4.1, SVG Export Plug-In . SVG Version: 6.00 Build 0)  -->
<svg version="1.1" xmlns="http://www.w3.org/2000/svg" xmlns:xlink="http://www.w3.org/1999/xlink" x="0px" y="0px"
	 viewBox="0 0 164.41 252.28" enable-background="new 0 0 164.41 252.28" xml:space="preserve">
<g id="地">
	<rect fill="#DCDDDD" width="164.41" height="252.28"/>
</g>
<g id="枠" display="none">
	<g display="inline">
		<path d="M161.57,2.83v246.61H2.83V2.83H161.57 M164.41,0H0v252.28h164.41V0L164.41,0z"/>
	</g>
</g>
<g id="国旗">
	<g>
		<rect x="25.51" y="60" fill="#FFFFFF" width="113.39" height="75.59"/>
		<rect x="25.51" y="110.39" fill="#97B623" width="113.39" height="25.2"/>
		<rect x="25.51" y="60" fill="#28AAD7" width="113.39" height="25.2"/>
		<rect x="25.51" y="108.32" fill="#C8152A" width="113.39" height="2.07"/>
		<rect x="25.51" y="85.2" fill="#C8152A" width="113.39" height="2.08"/>
		<path fill="#FFFFFF" d="M36.95,72.67c0-4.69,3.8-8.5,8.5-8.5c1.21,0,2.36,0.26,3.41,0.71c-1.73-1.41-3.94-2.26-6.34-2.26
			c-5.55,0-10.04,4.5-10.04,10.04c0,5.55,4.5,10.04,10.04,10.04c2.41,0,4.61-0.85,6.34-2.26c-1.04,0.46-2.19,0.71-3.41,0.71
			C40.76,81.16,36.95,77.36,36.95,72.67z"/>
		<polygon fill="#FFFFFF" points="67.07,64.03 67.48,65.27 68.78,65.27 67.72,66.03 68.13,67.27 67.07,66.51 66.02,67.27 
			66.42,66.03 65.37,65.27 66.67,65.27 		"/>
		<polygon fill="#FFFFFF" points="73.47,64.03 73.87,65.27 75.18,65.27 74.12,66.03 74.52,67.27 73.47,66.51 72.42,67.27 
			72.82,66.03 71.77,65.27 73.07,65.27 		"/>
		<polygon fill="#FFFFFF" points="79.87,64.03 80.27,65.27 81.57,65.27 80.52,66.03 80.92,67.27 79.87,66.51 78.82,67.27 
			79.22,66.03 78.17,65.27 79.47,65.27 		"/>
		<polygon fill="#FFFFFF" points="67.07,71.16 67.48,72.4 68.78,72.4 67.72,73.16 68.13,74.4 67.07,73.63 66.02,74.4 66.42,73.16 
			65.37,72.4 66.67,72.4 		"/>
		<polygon fill="#FFFFFF" points="73.47,71.16 73.87,72.4 75.18,72.4 74.12,73.16 74.52,74.4 73.47,73.63 72.42,74.4 72.82,73.16 
			71.77,72.4 73.07,72.4 		"/>
		<polygon fill="#FFFFFF" points="60.67,71.16 61.08,72.4 62.38,72.4 61.32,73.16 61.73,74.4 60.67,73.63 59.62,74.4 60.02,73.16 
			58.97,72.4 60.27,72.4 		"/>
		<polygon fill="#FFFFFF" points="79.87,71.16 80.27,72.4 81.57,72.4 80.52,73.16 80.92,74.4 79.87,73.63 78.82,74.4 79.22,73.16 
			78.17,72.4 79.47,72.4 		"/>
		<polygon fill="#FFFFFF" points="67.07,78.28 67.48,79.52 68.78,79.52 67.72,80.29 68.13,81.52 67.07,80.76 66.02,81.52 
			66.42,80.29 65.37,79.52 66.67,79.52 		"/>
		<polygon fill="#FFFFFF" points="73.47,78.28 73.87,79.52 75.18,79.52 74.12,80.29 74.52,81.52 73.47,80.76 72.42,81.52 
			72.82,80.29 71.77,79.52 73.07,79.52 		"/>
		<polygon fill="#FFFFFF" points="79.87,78.28 80.27,79.52 81.57,79.52 80.52,80.29 80.92,81.52 79.87,80.76 78.82,81.52 
			79.22,80.29 78.17,79.52 79.47,79.52 		"/>
		<polygon fill="#FFFFFF" points="54.27,78.28 54.68,79.52 55.98,79.52 54.93,80.29 55.33,81.52 54.27,80.76 53.22,81.52 
			53.62,80.29 52.57,79.52 53.87,79.52 		"/>
		<polygon fill="#FFFFFF" points="60.67,78.28 61.08,79.52 62.38,79.52 61.32,80.29 61.73,81.52 60.67,80.76 59.62,81.52 
			60.02,80.29 58.97,79.52 60.27,79.52 		"/>
	</g>
</g>
<g id="飾り">
</g>
<g id="国名">
	<g>
		<path d="M47.4,147.67v-1.46c0-0.2,0.06-0.37,0.18-0.49c0.13-0.13,0.3-0.19,0.52-0.19c0.29,0,0.49,0.11,0.62,0.33
			c0.05,0.1,0.08,0.22,0.08,0.35v1.38l0.18-0.01c1.3-0.08,2.03-0.13,2.18-0.14c0.08-0.01,0.14-0.01,0.19-0.01
			c0.32,0,0.58,0.11,0.76,0.32c0.18,0.21,0.27,0.49,0.27,0.84c0,0.29-0.06,0.69-0.18,1.21c-0.28,1.23-0.78,2.28-1.5,3.15
			c-0.56,0.68-1.24,1.26-2.04,1.76c-0.54,0.34-0.93,0.51-1.16,0.51c-0.2,0-0.34-0.07-0.43-0.19c-0.07-0.1-0.11-0.21-0.11-0.33
			c0-0.17,0.07-0.31,0.21-0.43c0.04-0.03,0.15-0.1,0.34-0.22c0.79-0.48,1.48-1.1,2.1-1.87c0.41-0.52,0.73-1.12,0.95-1.81
			c0.19-0.58,0.28-1.06,0.28-1.46c0-0.13-0.07-0.2-0.2-0.2c-0.08,0-0.19,0-0.32,0.02c-0.79,0.08-2.4,0.18-4.81,0.3l0.17,1.74
			c0,0.04,0.01,0.07,0.01,0.09c0.01,0.3-0.13,0.5-0.44,0.6c-0.1,0.03-0.2,0.05-0.3,0.05c-0.23,0-0.4-0.08-0.53-0.25
			c-0.06-0.09-0.1-0.19-0.11-0.3l-0.27-2.69c-0.01-0.06-0.01-0.1-0.01-0.13c0-0.44,0.24-0.65,0.73-0.65c0.28,0,0.47,0.1,0.58,0.3
			l0.12-0.01l0.57-0.03C46.75,147.71,47.21,147.68,47.4,147.67z"/>
		<path d="M59.57,151.81c-1.04,1.06-2.12,1.91-3.23,2.56c-0.46,0.27-0.78,0.4-0.94,0.4c-0.2,0-0.35-0.09-0.46-0.27
			c-0.06-0.1-0.09-0.19-0.09-0.27c0-0.16,0.08-0.31,0.23-0.44c0.04-0.03,0.17-0.12,0.39-0.27c0.89-0.57,1.83-1.33,2.8-2.28
			c0.98-0.96,1.7-1.91,2.16-2.85c0.08-0.16,0.12-0.27,0.12-0.32c0-0.07-0.04-0.1-0.11-0.1c-0.05,0-0.13,0.01-0.25,0.03
			c-0.07,0.01-0.52,0.05-1.35,0.12c-1.1,0.08-1.73,0.13-1.9,0.14c-0.07,0.01-0.13,0.01-0.17,0.01c-0.3,0-0.5-0.11-0.61-0.33
			c-0.05-0.1-0.07-0.21-0.07-0.33c0-0.3,0.15-0.5,0.44-0.6c0.09-0.03,0.28-0.05,0.59-0.07c1.04-0.04,2.36-0.15,3.96-0.33
			c0.07-0.01,0.13-0.01,0.18-0.01c0.32,0,0.58,0.09,0.77,0.28c0.18,0.17,0.27,0.38,0.27,0.64c0,0.2-0.1,0.5-0.29,0.9
			c-0.38,0.8-0.94,1.65-1.68,2.55c1.22,0.76,2.17,1.47,2.85,2.14c0.31,0.3,0.46,0.58,0.46,0.82c0,0.19-0.07,0.36-0.22,0.51
			c-0.15,0.16-0.32,0.23-0.52,0.23c-0.2,0-0.37-0.07-0.52-0.22c-0.01-0.02-0.08-0.09-0.19-0.21
			C61.43,153.45,60.56,152.63,59.57,151.81z M62.53,145.76c0.21,0,0.54,0.21,1,0.62c0.39,0.35,0.58,0.63,0.58,0.83
			c0,0.15-0.06,0.27-0.19,0.38c-0.1,0.08-0.21,0.12-0.34,0.12c-0.17,0-0.29-0.07-0.39-0.22c-0.25-0.41-0.53-0.77-0.83-1.08
			c-0.1-0.11-0.16-0.22-0.16-0.33C62.21,145.87,62.32,145.76,62.53,145.76z M63.52,144.87c0.22,0,0.54,0.18,0.96,0.53
			c0.39,0.33,0.58,0.6,0.58,0.83c0,0.16-0.06,0.28-0.18,0.38c-0.09,0.07-0.19,0.1-0.3,0.1c-0.16,0-0.3-0.09-0.42-0.28
			c-0.2-0.3-0.47-0.61-0.79-0.92c-0.12-0.11-0.18-0.23-0.18-0.33c0-0.07,0.03-0.14,0.09-0.2C63.34,144.9,63.42,144.87,63.52,144.87z
			"/>
		<path d="M69.46,147.77c0.23,0,0.48,0.09,0.76,0.27c0.12,0.08,0.34,0.24,0.64,0.48c2.18,1.78,3.68,2.98,4.51,3.6
			c0.25,0.18,0.37,0.41,0.37,0.67c0,0.22-0.08,0.41-0.24,0.57c-0.15,0.15-0.32,0.22-0.52,0.22c-0.19,0-0.37-0.07-0.54-0.2
			c-0.4-0.32-1.67-1.44-3.8-3.35c-0.49-0.44-0.76-0.67-0.8-0.7c-0.13-0.1-0.25-0.15-0.35-0.15c-0.11,0-0.28,0.12-0.5,0.38
			c-0.71,0.81-1.32,1.46-1.84,1.97c-0.18,0.17-0.37,0.26-0.56,0.26c-0.18,0-0.34-0.07-0.48-0.2c-0.17-0.16-0.26-0.34-0.26-0.52
			c0-0.16,0.06-0.31,0.19-0.43c0.02-0.02,0.09-0.09,0.23-0.19c0.48-0.4,1.16-1.05,2.04-1.98c0.22-0.23,0.4-0.39,0.51-0.47
			C69.03,147.84,69.25,147.77,69.46,147.77z M72.56,147.03c0.21,0,0.54,0.21,1,0.62c0.39,0.35,0.58,0.63,0.58,0.83
			c0,0.14-0.06,0.27-0.19,0.37c-0.1,0.08-0.21,0.12-0.34,0.12c-0.17,0-0.31-0.1-0.43-0.29c-0.21-0.34-0.47-0.68-0.79-1.01
			c-0.1-0.11-0.15-0.22-0.15-0.33C72.24,147.14,72.35,147.03,72.56,147.03z M73.87,146.23c0.22,0,0.54,0.18,0.96,0.53
			c0.39,0.32,0.58,0.6,0.58,0.83c0,0.16-0.06,0.28-0.18,0.38c-0.09,0.07-0.19,0.1-0.3,0.1c-0.16,0-0.3-0.09-0.42-0.28
			c-0.2-0.3-0.46-0.61-0.79-0.92c-0.12-0.11-0.18-0.22-0.18-0.33c0-0.07,0.03-0.14,0.09-0.21
			C73.69,146.26,73.77,146.23,73.87,146.23z"/>
		<path d="M80.95,147.89l-0.28-1.38c-0.02-0.08-0.02-0.16-0.02-0.23c0-0.26,0.1-0.44,0.3-0.55c0.12-0.07,0.25-0.1,0.41-0.1
			c0.38,0,0.61,0.2,0.69,0.59l0.28,1.39c0.91-0.19,1.55-0.33,1.92-0.42c0.1-0.03,0.18-0.04,0.27-0.04c0.27,0,0.46,0.11,0.58,0.33
			c0.05,0.11,0.08,0.22,0.08,0.34c0,0.32-0.19,0.53-0.56,0.62c-0.27,0.07-0.88,0.2-1.84,0.39l-0.19,0.04l0.32,1.57
			c0.47-0.1,1.45-0.3,2.93-0.61c0.11-0.02,0.19-0.03,0.26-0.03c0.28,0,0.47,0.12,0.58,0.35c0.04,0.1,0.07,0.21,0.07,0.33
			c0,0.28-0.14,0.47-0.42,0.58c-0.06,0.02-0.19,0.05-0.38,0.09c-0.52,0.1-1.36,0.28-2.52,0.53l-0.26,0.06l0.55,2.77
			c0.01,0.07,0.02,0.14,0.02,0.22c0,0.28-0.11,0.47-0.32,0.58c-0.12,0.06-0.26,0.09-0.42,0.09c-0.37,0-0.6-0.21-0.68-0.63
			l-0.54-2.75l-0.23,0.05l-1.89,0.4c-0.8,0.17-1.23,0.25-1.31,0.25c-0.27,0-0.46-0.12-0.56-0.36c-0.04-0.1-0.07-0.22-0.07-0.35
			c0-0.28,0.15-0.48,0.45-0.58c0.04-0.01,0.69-0.15,1.95-0.42l1.13-0.24l0.25-0.06l-0.3-1.58l-0.17,0.03
			c-1.34,0.25-2.09,0.37-2.25,0.37c-0.41,0-0.62-0.23-0.62-0.68c0-0.37,0.25-0.58,0.74-0.65C79.5,148.15,80.18,148.03,80.95,147.89z
			"/>
		<path d="M93.7,151.75c-1.04,1.06-2.12,1.91-3.23,2.56c-0.46,0.27-0.78,0.4-0.94,0.4c-0.2,0-0.35-0.09-0.45-0.27
			c-0.06-0.1-0.09-0.19-0.09-0.27c0-0.16,0.08-0.31,0.23-0.44c0.04-0.03,0.17-0.12,0.39-0.27c0.89-0.57,1.82-1.33,2.79-2.28
			c0.98-0.97,1.7-1.92,2.17-2.86c0.08-0.16,0.12-0.27,0.12-0.32c0-0.07-0.04-0.1-0.11-0.1c-0.05,0-0.13,0.01-0.25,0.03
			c-0.22,0.03-1.08,0.1-2.58,0.22c-0.26,0.02-0.48,0.04-0.67,0.05c-0.07,0.01-0.13,0.01-0.17,0.01c-0.3,0-0.5-0.11-0.62-0.33
			c-0.05-0.1-0.07-0.21-0.07-0.33c0-0.31,0.15-0.51,0.44-0.6c0.09-0.03,0.29-0.05,0.59-0.07c1.04-0.04,2.36-0.15,3.96-0.33
			c0.07-0.01,0.13-0.01,0.18-0.01c0.32,0,0.58,0.09,0.78,0.28c0.18,0.17,0.27,0.38,0.27,0.64c0,0.2-0.1,0.49-0.29,0.9
			c-0.38,0.79-0.94,1.64-1.68,2.55c1.22,0.76,2.17,1.47,2.85,2.14c0.31,0.3,0.46,0.58,0.46,0.83c0,0.19-0.07,0.36-0.22,0.51
			c-0.15,0.16-0.32,0.23-0.52,0.23c-0.2,0-0.37-0.07-0.52-0.22c-0.02-0.02-0.08-0.09-0.19-0.21
			C95.56,153.39,94.68,152.57,93.7,151.75z"/>
		<path d="M105.29,146.52l2.1-0.08l0.09-0.01c0.68,0,1.02,0.29,1.02,0.88c0,0.18-0.04,0.42-0.13,0.74
			c-0.73,2.58-2.22,4.62-4.48,6.13c-0.88,0.59-1.49,0.89-1.82,0.89c-0.17,0-0.3-0.07-0.4-0.22c-0.07-0.1-0.1-0.2-0.1-0.29
			c0-0.15,0.07-0.28,0.21-0.4c0.05-0.04,0.18-0.13,0.4-0.26c1.09-0.67,2.03-1.45,2.83-2.34c-0.53-0.55-1.01-0.99-1.45-1.34
			c-0.2-0.16-0.3-0.32-0.3-0.47c0-0.1,0.03-0.19,0.09-0.27c0.1-0.14,0.24-0.21,0.41-0.21c0.14,0,0.31,0.05,0.51,0.14
			c0.59,0.26,1.12,0.59,1.59,0.98c0.46-0.75,0.79-1.47,1-2.18c0.06-0.2,0.09-0.33,0.09-0.38c0-0.08-0.06-0.12-0.18-0.12
			c-0.01,0-0.02,0-0.03,0l-2.05,0.11c-0.77,1.02-1.55,1.8-2.36,2.34c-0.26,0.17-0.47,0.26-0.64,0.26c-0.16,0-0.27-0.06-0.35-0.18
			c-0.06-0.08-0.08-0.17-0.08-0.27c0-0.13,0.05-0.26,0.16-0.39c0.04-0.04,0.15-0.15,0.34-0.33c0.64-0.58,1.22-1.29,1.74-2.13
			c0.14-0.23,0.26-0.45,0.37-0.66c0.15-0.31,0.39-0.47,0.7-0.47c0.22,0,0.41,0.08,0.55,0.23
			C105.2,146.29,105.26,146.4,105.29,146.52z"/>
		<path d="M113.1,146.82c0.15,0,0.41,0.07,0.78,0.2c0.69,0.24,1.26,0.53,1.71,0.86c0.24,0.17,0.35,0.39,0.35,0.65
			c0,0.14-0.04,0.29-0.14,0.43c-0.14,0.21-0.33,0.32-0.56,0.32c-0.2,0-0.43-0.09-0.67-0.28c-0.62-0.49-1.18-0.88-1.68-1.16
			c-0.25-0.14-0.38-0.31-0.38-0.51C112.5,146.99,112.7,146.82,113.1,146.82z M120.22,148.59c0.12,0,0.24,0.04,0.36,0.13
			c0.15,0.11,0.23,0.26,0.23,0.45c0,0.15-0.06,0.32-0.18,0.5c-0.85,1.27-1.97,2.37-3.36,3.3c-1.16,0.77-2.36,1.32-3.59,1.66
			c-0.13,0.03-0.24,0.05-0.34,0.05c-0.31,0-0.54-0.14-0.67-0.43c-0.06-0.13-0.09-0.25-0.09-0.37c0-0.27,0.13-0.47,0.4-0.6
			c0.05-0.03,0.3-0.1,0.74-0.23c1.59-0.47,3.06-1.3,4.43-2.51c0.53-0.47,1.02-1,1.48-1.59C119.81,148.7,120.01,148.59,120.22,148.59
			z"/>
	</g>
</g>
</svg>
