<?xml version="1.0" encoding="utf-8"?>
<!-- Generator: Adobe Illustrator 25.4.1, SVG Export Plug-In . SVG Version: 6.00 Build 0)  -->
<svg version="1.1" xmlns="http://www.w3.org/2000/svg" xmlns:xlink="http://www.w3.org/1999/xlink" x="0px" y="0px"
	 viewBox="0 0 164.41 252.28" enable-background="new 0 0 164.41 252.28" xml:space="preserve">
<g id="地">
	<rect fill="#DCDDDD" width="164.41" height="252.28"/>
</g>
<g id="枠" display="none">
	<g display="inline">
		<path d="M161.57,2.83v246.61H2.83V2.83H161.57 M164.41,0H0v252.28h164.41V0L164.41,0z"/>
	</g>
</g>
<g id="国旗">
	<g>
		<g>
			<rect x="25.51" y="60" fill="#FFFFFF" width="113.39" height="75.59"/>
			<polygon fill="#298041" points="25.51,60 25.51,86.19 26,86.19 26,84.97 31.78,84.97 31.78,86.19 32.27,86.19 32.27,84.97 
				38.06,84.97 38.06,86.19 38.54,86.19 38.54,84.97 44.33,84.97 44.33,86.19 44.81,86.19 44.81,84.97 50.6,84.97 50.6,86.19 
				51.09,86.19 51.09,84.97 56.87,84.97 56.87,86.19 57.36,86.19 57.36,84.97 63.14,84.97 63.14,86.19 63.63,86.19 63.63,84.97 
				69.42,84.97 69.42,86.19 69.9,86.19 69.9,84.97 75.69,84.97 75.69,86.19 76.18,86.19 76.18,84.97 81.96,84.97 81.96,86.19 
				82.45,86.19 82.45,84.97 88.23,84.97 88.23,86.19 88.72,86.19 88.72,84.97 94.51,84.97 94.51,86.19 94.99,86.19 94.99,84.97 
				100.78,84.97 100.78,86.19 101.26,86.19 101.26,84.97 107.05,84.97 107.05,86.19 107.54,86.19 107.54,84.97 113.32,84.97 
				113.32,86.19 113.81,86.19 113.81,84.97 119.59,84.97 119.59,86.19 120.08,86.19 120.08,84.97 125.87,84.97 125.87,86.19 
				126.35,86.19 126.35,84.97 132.14,84.97 132.14,86.19 132.63,86.19 132.63,84.97 138.41,84.97 138.41,86.19 138.9,86.19 
				138.9,60 			"/>
			<g>
				<rect x="25.75" y="80.65" fill="#FFFFFF" width="7.39" height="0.67"/>
				<polygon fill="#FFFFFF" points="36.53,80.65 36.53,83.4 35.9,83.4 35.9,80.65 35.23,80.65 35.23,83.4 34.6,83.4 34.6,80.65 
					33.93,80.65 33.93,82.04 31.69,82.04 31.69,84.07 33.33,84.07 33.33,83.4 32.36,83.4 32.36,82.71 33.93,82.71 33.93,84.07 
					37.2,84.07 37.2,80.65 				"/>
				<rect x="27.02" y="83.3" fill="#FFFFFF" width="0.67" height="0.76"/>
				<polygon fill="#FFFFFF" points="29.48,82.04 29.48,82.71 30.38,82.71 30.38,83.4 28.95,83.4 28.95,82.04 25.75,82.04 
					25.75,84.07 26.42,84.07 26.42,82.71 28.28,82.71 28.28,84.07 31.05,84.07 31.05,82.04 				"/>
			</g>
			<g>
				<rect x="38.43" y="80.65" fill="#FFFFFF" width="7.39" height="0.67"/>
				<polygon fill="#FFFFFF" points="49.21,80.65 49.21,83.4 48.58,83.4 48.58,80.65 47.91,80.65 47.91,83.4 47.29,83.4 47.29,80.65 
					46.62,80.65 46.62,82.04 44.38,82.04 44.38,84.07 46.01,84.07 46.01,83.4 45.05,83.4 45.05,82.71 46.62,82.71 46.62,84.07 
					49.88,84.07 49.88,80.65 				"/>
				<rect x="39.7" y="83.3" fill="#FFFFFF" width="0.67" height="0.76"/>
				<polygon fill="#FFFFFF" points="42.16,82.04 42.16,82.71 43.06,82.71 43.06,83.4 41.64,83.4 41.64,82.04 38.43,82.04 
					38.43,84.07 39.1,84.07 39.1,82.71 40.97,82.71 40.97,84.07 43.73,84.07 43.73,82.04 				"/>
			</g>
			<g>
				<rect x="51.12" y="80.65" fill="#FFFFFF" width="7.39" height="0.67"/>
				<polygon fill="#FFFFFF" points="61.89,80.65 61.89,83.4 61.27,83.4 61.27,80.65 60.6,80.65 60.6,83.4 59.97,83.4 59.97,80.65 
					59.3,80.65 59.3,82.04 57.06,82.04 57.06,84.07 58.69,84.07 58.69,83.4 57.73,83.4 57.73,82.71 59.3,82.71 59.3,84.07 
					62.56,84.07 62.56,80.65 				"/>
				<rect x="52.38" y="83.3" fill="#FFFFFF" width="0.67" height="0.76"/>
				<polygon fill="#FFFFFF" points="54.84,82.04 54.84,82.71 55.74,82.71 55.74,83.4 54.32,83.4 54.32,82.04 51.12,82.04 
					51.12,84.07 51.78,84.07 51.78,82.71 53.65,82.71 53.65,84.07 56.41,84.07 56.41,82.04 				"/>
			</g>
			<g>
				<rect x="63.8" y="80.65" fill="#FFFFFF" width="7.39" height="0.67"/>
				<polygon fill="#FFFFFF" points="74.58,80.65 74.58,83.4 73.95,83.4 73.95,80.65 73.28,80.65 73.28,83.4 72.65,83.4 72.65,80.65 
					71.98,80.65 71.98,82.04 69.74,82.04 69.74,84.07 71.37,84.07 71.37,83.4 70.41,83.4 70.41,82.71 71.98,82.71 71.98,84.07 
					75.25,84.07 75.25,80.65 				"/>
				<rect x="65.06" y="83.3" fill="#FFFFFF" width="0.67" height="0.76"/>
				<polygon fill="#FFFFFF" points="67.52,82.04 67.52,82.71 68.42,82.71 68.42,83.4 67,83.4 67,82.04 63.8,82.04 63.8,84.07 
					64.47,84.07 64.47,82.71 66.33,82.71 66.33,84.07 69.09,84.07 69.09,82.04 				"/>
			</g>
			<g>
				<rect x="76.48" y="80.65" fill="#FFFFFF" width="7.39" height="0.67"/>
				<polygon fill="#FFFFFF" points="87.26,80.65 87.26,83.4 86.63,83.4 86.63,80.65 85.96,80.65 85.96,83.4 85.33,83.4 85.33,80.65 
					84.66,80.65 84.66,82.04 82.42,82.04 82.42,84.07 84.06,84.07 84.06,83.4 83.09,83.4 83.09,82.71 84.66,82.71 84.66,84.07 
					87.93,84.07 87.93,80.65 				"/>
				<rect x="77.75" y="83.3" fill="#FFFFFF" width="0.67" height="0.76"/>
				<polygon fill="#FFFFFF" points="80.21,82.04 80.21,82.71 81.11,82.71 81.11,83.4 79.68,83.4 79.68,82.04 76.48,82.04 
					76.48,84.07 77.15,84.07 77.15,82.71 79.01,82.71 79.01,84.07 81.78,84.07 81.78,82.04 				"/>
			</g>
			<g>
				<rect x="89.16" y="80.65" fill="#FFFFFF" width="7.39" height="0.67"/>
				<polygon fill="#FFFFFF" points="99.94,80.65 99.94,83.4 99.31,83.4 99.31,80.65 98.64,80.65 98.64,83.4 98.02,83.4 98.02,80.65 
					97.35,80.65 97.35,82.04 95.11,82.04 95.11,84.07 96.74,84.07 96.74,83.4 95.78,83.4 95.78,82.71 97.35,82.71 97.35,84.07 
					100.61,84.07 100.61,80.65 				"/>
				<rect x="90.43" y="83.3" fill="#FFFFFF" width="0.67" height="0.76"/>
				<polygon fill="#FFFFFF" points="92.89,82.04 92.89,82.71 93.79,82.71 93.79,83.4 92.37,83.4 92.37,82.04 89.16,82.04 
					89.16,84.07 89.83,84.07 89.83,82.71 91.7,82.71 91.7,84.07 94.46,84.07 94.46,82.04 				"/>
			</g>
			<g>
				<rect x="101.85" y="80.65" fill="#FFFFFF" width="7.39" height="0.67"/>
				<polygon fill="#FFFFFF" points="112.62,80.65 112.62,83.4 112,83.4 112,80.65 111.33,80.65 111.33,83.4 110.7,83.4 110.7,80.65 
					110.03,80.65 110.03,82.04 107.79,82.04 107.79,84.07 109.42,84.07 109.42,83.4 108.46,83.4 108.46,82.71 110.03,82.71 
					110.03,84.07 113.29,84.07 113.29,80.65 				"/>
				<rect x="103.11" y="83.3" fill="#FFFFFF" width="0.67" height="0.76"/>
				<polygon fill="#FFFFFF" points="105.57,82.04 105.57,82.71 106.47,82.71 106.47,83.4 105.05,83.4 105.05,82.04 101.85,82.04 
					101.85,84.07 102.52,84.07 102.52,82.71 104.38,82.71 104.38,84.07 107.14,84.07 107.14,82.04 				"/>
			</g>
			<g>
				<rect x="114.53" y="80.65" fill="#FFFFFF" width="7.39" height="0.67"/>
				<polygon fill="#FFFFFF" points="125.31,80.65 125.31,83.4 124.68,83.4 124.68,80.65 124.01,80.65 124.01,83.4 123.38,83.4 
					123.38,80.65 122.71,80.65 122.71,82.04 120.47,82.04 120.47,84.07 122.11,84.07 122.11,83.4 121.14,83.4 121.14,82.71 
					122.71,82.71 122.71,84.07 125.98,84.07 125.98,80.65 				"/>
				<rect x="115.8" y="83.3" fill="#FFFFFF" width="0.67" height="0.76"/>
				<polygon fill="#FFFFFF" points="118.25,82.04 118.25,82.71 119.15,82.71 119.15,83.4 117.73,83.4 117.73,82.04 114.53,82.04 
					114.53,84.07 115.2,84.07 115.2,82.71 117.06,82.71 117.06,84.07 119.82,84.07 119.82,82.04 				"/>
			</g>
			<g>
				<rect x="127.21" y="80.65" fill="#FFFFFF" width="7.39" height="0.67"/>
				<polygon fill="#FFFFFF" points="137.99,80.65 137.99,83.4 137.36,83.4 137.36,80.65 136.69,80.65 136.69,83.4 136.06,83.4 
					136.06,80.65 135.39,80.65 135.39,82.04 133.15,82.04 133.15,84.07 134.79,84.07 134.79,83.4 133.82,83.4 133.82,82.71 
					135.39,82.71 135.39,84.07 138.66,84.07 138.66,80.65 				"/>
				<rect x="128.48" y="83.3" fill="#FFFFFF" width="0.67" height="0.76"/>
				<polygon fill="#FFFFFF" points="130.94,82.04 130.94,82.71 131.84,82.71 131.84,83.4 130.41,83.4 130.41,82.04 127.21,82.04 
					127.21,84.07 127.88,84.07 127.88,82.71 129.74,82.71 129.74,84.07 132.51,84.07 132.51,82.04 				"/>
			</g>
			<polygon fill="#C91623" points="138.9,135.59 138.9,109.4 138.41,109.4 138.41,110.62 132.63,110.62 132.63,109.4 132.14,109.4 
				132.14,110.62 126.35,110.62 126.35,109.4 125.87,109.4 125.87,110.62 120.08,110.62 120.08,109.4 119.59,109.4 119.59,110.62 
				113.81,110.62 113.81,109.4 113.32,109.4 113.32,110.62 107.54,110.62 107.54,109.4 107.05,109.4 107.05,110.62 101.26,110.62 
				101.26,109.4 100.78,109.4 100.78,110.62 94.99,110.62 94.99,109.4 94.51,109.4 94.51,110.62 88.72,110.62 88.72,109.4 
				88.23,109.4 88.23,110.62 82.45,110.62 82.45,109.4 81.96,109.4 81.96,110.62 76.18,110.62 76.18,109.4 75.69,109.4 
				75.69,110.62 69.9,110.62 69.9,109.4 69.42,109.4 69.42,110.62 63.63,110.62 63.63,109.4 63.14,109.4 63.14,110.62 57.36,110.62 
				57.36,109.4 56.87,109.4 56.87,110.62 51.09,110.62 51.09,109.4 50.6,109.4 50.6,110.62 44.81,110.62 44.81,109.4 44.33,109.4 
				44.33,110.62 38.54,110.62 38.54,109.4 38.06,109.4 38.06,110.62 32.27,110.62 32.27,109.4 31.78,109.4 31.78,110.62 26,110.62 
				26,109.4 25.51,109.4 25.51,135.59 			"/>
			<g>
				<rect x="25.75" y="111.29" fill="#FFFFFF" width="7.39" height="0.67"/>
				<polygon fill="#FFFFFF" points="36.53,111.29 36.53,114.03 35.9,114.03 35.9,111.29 35.23,111.29 35.23,114.03 34.6,114.03 
					34.6,111.29 33.93,111.29 33.93,112.67 31.69,112.67 31.69,114.7 33.33,114.7 33.33,114.03 32.36,114.03 32.36,113.34 
					33.93,113.34 33.93,114.7 37.2,114.7 37.2,111.29 				"/>
				<rect x="27.02" y="113.94" fill="#FFFFFF" width="0.67" height="0.76"/>
				<polygon fill="#FFFFFF" points="29.48,112.67 29.48,113.34 30.38,113.34 30.38,114.03 28.95,114.03 28.95,112.67 25.75,112.67 
					25.75,114.7 26.42,114.7 26.42,113.34 28.28,113.34 28.28,114.7 31.05,114.7 31.05,112.67 				"/>
			</g>
			<g>
				<rect x="38.43" y="111.29" fill="#FFFFFF" width="7.39" height="0.67"/>
				<polygon fill="#FFFFFF" points="49.21,111.29 49.21,114.03 48.58,114.03 48.58,111.29 47.91,111.29 47.91,114.03 47.29,114.03 
					47.29,111.29 46.62,111.29 46.62,112.67 44.38,112.67 44.38,114.7 46.01,114.7 46.01,114.03 45.05,114.03 45.05,113.34 
					46.62,113.34 46.62,114.7 49.88,114.7 49.88,111.29 				"/>
				<rect x="39.7" y="113.94" fill="#FFFFFF" width="0.67" height="0.76"/>
				<polygon fill="#FFFFFF" points="42.16,112.67 42.16,113.34 43.06,113.34 43.06,114.03 41.64,114.03 41.64,112.67 38.43,112.67 
					38.43,114.7 39.1,114.7 39.1,113.34 40.97,113.34 40.97,114.7 43.73,114.7 43.73,112.67 				"/>
			</g>
			<g>
				<rect x="51.12" y="111.29" fill="#FFFFFF" width="7.39" height="0.67"/>
				<polygon fill="#FFFFFF" points="61.89,111.29 61.89,114.03 61.27,114.03 61.27,111.29 60.6,111.29 60.6,114.03 59.97,114.03 
					59.97,111.29 59.3,111.29 59.3,112.67 57.06,112.67 57.06,114.7 58.69,114.7 58.69,114.03 57.73,114.03 57.73,113.34 
					59.3,113.34 59.3,114.7 62.56,114.7 62.56,111.29 				"/>
				<rect x="52.38" y="113.94" fill="#FFFFFF" width="0.67" height="0.76"/>
				<polygon fill="#FFFFFF" points="54.84,112.67 54.84,113.34 55.74,113.34 55.74,114.03 54.32,114.03 54.32,112.67 51.12,112.67 
					51.12,114.7 51.78,114.7 51.78,113.34 53.65,113.34 53.65,114.7 56.41,114.7 56.41,112.67 				"/>
			</g>
			<g>
				<rect x="63.8" y="111.29" fill="#FFFFFF" width="7.39" height="0.67"/>
				<polygon fill="#FFFFFF" points="74.58,111.29 74.58,114.03 73.95,114.03 73.95,111.29 73.28,111.29 73.28,114.03 72.65,114.03 
					72.65,111.29 71.98,111.29 71.98,112.67 69.74,112.67 69.74,114.7 71.37,114.7 71.37,114.03 70.41,114.03 70.41,113.34 
					71.98,113.34 71.98,114.7 75.25,114.7 75.25,111.29 				"/>
				<rect x="65.06" y="113.94" fill="#FFFFFF" width="0.67" height="0.76"/>
				<polygon fill="#FFFFFF" points="67.52,112.67 67.52,113.34 68.42,113.34 68.42,114.03 67,114.03 67,112.67 63.8,112.67 
					63.8,114.7 64.47,114.7 64.47,113.34 66.33,113.34 66.33,114.7 69.09,114.7 69.09,112.67 				"/>
			</g>
			<g>
				<rect x="76.48" y="111.29" fill="#FFFFFF" width="7.39" height="0.67"/>
				<polygon fill="#FFFFFF" points="87.26,111.29 87.26,114.03 86.63,114.03 86.63,111.29 85.96,111.29 85.96,114.03 85.33,114.03 
					85.33,111.29 84.66,111.29 84.66,112.67 82.42,112.67 82.42,114.7 84.06,114.7 84.06,114.03 83.09,114.03 83.09,113.34 
					84.66,113.34 84.66,114.7 87.93,114.7 87.93,111.29 				"/>
				<rect x="77.75" y="113.94" fill="#FFFFFF" width="0.67" height="0.76"/>
				<polygon fill="#FFFFFF" points="80.21,112.67 80.21,113.34 81.11,113.34 81.11,114.03 79.68,114.03 79.68,112.67 76.48,112.67 
					76.48,114.7 77.15,114.7 77.15,113.34 79.01,113.34 79.01,114.7 81.78,114.7 81.78,112.67 				"/>
			</g>
			<g>
				<rect x="89.16" y="111.29" fill="#FFFFFF" width="7.39" height="0.67"/>
				<polygon fill="#FFFFFF" points="99.94,111.29 99.94,114.03 99.31,114.03 99.31,111.29 98.64,111.29 98.64,114.03 98.02,114.03 
					98.02,111.29 97.35,111.29 97.35,112.67 95.11,112.67 95.11,114.7 96.74,114.7 96.74,114.03 95.78,114.03 95.78,113.34 
					97.35,113.34 97.35,114.7 100.61,114.7 100.61,111.29 				"/>
				<rect x="90.43" y="113.94" fill="#FFFFFF" width="0.67" height="0.76"/>
				<polygon fill="#FFFFFF" points="92.89,112.67 92.89,113.34 93.79,113.34 93.79,114.03 92.37,114.03 92.37,112.67 89.16,112.67 
					89.16,114.7 89.83,114.7 89.83,113.34 91.7,113.34 91.7,114.7 94.46,114.7 94.46,112.67 				"/>
			</g>
			<g>
				<rect x="101.85" y="111.29" fill="#FFFFFF" width="7.39" height="0.67"/>
				<polygon fill="#FFFFFF" points="112.62,111.29 112.62,114.03 112,114.03 112,111.29 111.33,111.29 111.33,114.03 110.7,114.03 
					110.7,111.29 110.03,111.29 110.03,112.67 107.79,112.67 107.79,114.7 109.42,114.7 109.42,114.03 108.46,114.03 108.46,113.34 
					110.03,113.34 110.03,114.7 113.29,114.7 113.29,111.29 				"/>
				<rect x="103.11" y="113.94" fill="#FFFFFF" width="0.67" height="0.76"/>
				<polygon fill="#FFFFFF" points="105.57,112.67 105.57,113.34 106.47,113.34 106.47,114.03 105.05,114.03 105.05,112.67 
					101.85,112.67 101.85,114.7 102.52,114.7 102.52,113.34 104.38,113.34 104.38,114.7 107.14,114.7 107.14,112.67 				"/>
			</g>
			<g>
				<rect x="114.53" y="111.29" fill="#FFFFFF" width="7.39" height="0.67"/>
				<polygon fill="#FFFFFF" points="125.31,111.29 125.31,114.03 124.68,114.03 124.68,111.29 124.01,111.29 124.01,114.03 
					123.38,114.03 123.38,111.29 122.71,111.29 122.71,112.67 120.47,112.67 120.47,114.7 122.11,114.7 122.11,114.03 
					121.14,114.03 121.14,113.34 122.71,113.34 122.71,114.7 125.98,114.7 125.98,111.29 				"/>
				<rect x="115.8" y="113.94" fill="#FFFFFF" width="0.67" height="0.76"/>
				<polygon fill="#FFFFFF" points="118.25,112.67 118.25,113.34 119.15,113.34 119.15,114.03 117.73,114.03 117.73,112.67 
					114.53,112.67 114.53,114.7 115.2,114.7 115.2,113.34 117.06,113.34 117.06,114.7 119.82,114.7 119.82,112.67 				"/>
			</g>
			<g>
				<rect x="127.21" y="111.29" fill="#FFFFFF" width="7.39" height="0.67"/>
				<polygon fill="#FFFFFF" points="137.99,111.29 137.99,114.03 137.36,114.03 137.36,111.29 136.69,111.29 136.69,114.03 
					136.06,114.03 136.06,111.29 135.39,111.29 135.39,112.67 133.15,112.67 133.15,114.7 134.79,114.7 134.79,114.03 
					133.82,114.03 133.82,113.34 135.39,113.34 135.39,114.7 138.66,114.7 138.66,111.29 				"/>
				<rect x="128.48" y="113.94" fill="#FFFFFF" width="0.67" height="0.76"/>
				<polygon fill="#FFFFFF" points="130.94,112.67 130.94,113.34 131.84,113.34 131.84,114.03 130.41,114.03 130.41,112.67 
					127.21,112.67 127.21,114.7 127.88,114.7 127.88,113.34 129.74,113.34 129.74,114.7 132.51,114.7 132.51,112.67 				"/>
			</g>
			<path fill="#C9161D" d="M85.94,91.11c0,0,4.56,2.12,4.56,6.87c0,4.75-3.47,5.73-3.47,5.73s2.2-2.15,2.2-5.73
				C89.25,94.41,85.94,91.11,85.94,91.11z"/>
			<path fill="#C9161D" d="M81.64,89.89c0,0-0.21,0.62-1.14,0.62c-0.93,0-1.11-1.25-1.11-1.25s0.45,0.69,1.11,0.69
				c0.66,0,1.14-0.76,1.14-0.76s0.48,0.76,1.14,0.76c0.66,0,1.11-0.69,1.11-0.69s-0.17,1.25-1.11,1.25
				C81.85,90.52,81.64,89.89,81.64,89.89z"/>
			<path fill="#C9161D" d="M81.64,106.4l-0.45-0.45l-0.03-0.88c-0.34,0.2-1.17,0.51-3.16,0.63c0,0,1.77-0.19,2.45-0.84
				c-0.97-0.54-4.36-2.72-4.36-6.94c0-3.82,2.61-6.81,2.61-6.81s-1.75,2.39-1.75,6.77c0,2.73,1.9,4.66,3.14,5.73
				c0.37,0.31,0.74,0.3,1.02,0.2l-0.44-12.49l0.97-0.62l0.97,0.62l-0.44,12.49c0.28,0.1,0.65,0.12,1.02-0.2
				c1.24-1.06,3.14-3,3.14-5.73c0-4.37-1.75-6.77-1.75-6.77s2.61,2.99,2.61,6.81c0,4.22-3.38,6.4-4.36,6.94
				c0.68,0.65,2.45,0.84,2.45,0.84c-1.99-0.13-2.82-0.43-3.16-0.63l-0.03,0.88L81.64,106.4z"/>
			<path fill="#C9161D" d="M77.33,91.11c0,0-4.56,2.12-4.56,6.87c0,4.75,3.47,5.73,3.47,5.73s-2.2-2.15-2.2-5.73
				C74.03,94.41,77.33,91.11,77.33,91.11z"/>
		</g>
	</g>
</g>
<g id="飾り">
</g>
<g id="国名">
	<g>
		<path d="M70.45,150.05c-0.94,0.64-1.88,1.17-2.8,1.57c-0.32,0.14-0.55,0.21-0.69,0.21c-0.16,0-0.29-0.06-0.38-0.18
			c-0.08-0.1-0.12-0.21-0.12-0.33c0-0.17,0.08-0.32,0.23-0.43c0.06-0.04,0.26-0.15,0.62-0.34c1.06-0.57,2.08-1.26,3.07-2.08
			c0.91-0.76,1.62-1.51,2.13-2.25c0.16-0.24,0.37-0.37,0.61-0.37c0.14,0,0.27,0.04,0.41,0.13c0.24,0.15,0.36,0.35,0.36,0.6
			c0,0.17-0.1,0.38-0.29,0.63c-0.53,0.67-1.21,1.35-2.04,2.03c0.2,0.12,0.3,0.3,0.3,0.54v4.65c0,0.23-0.07,0.4-0.22,0.52
			c-0.12,0.1-0.29,0.16-0.49,0.16c-0.32,0-0.53-0.12-0.64-0.37c-0.04-0.09-0.06-0.19-0.06-0.31V150.05z"/>
		<path d="M85.04,148.71c0.42,0,0.72,0.15,0.91,0.44c0.1,0.17,0.16,0.37,0.16,0.6c0,0.33-0.11,0.76-0.34,1.29
			c-0.5,1.17-1.32,2.17-2.47,3.02c-0.61,0.45-1.25,0.79-1.92,1.04c-0.17,0.06-0.31,0.09-0.43,0.09c-0.16,0-0.29-0.07-0.38-0.2
			c-0.07-0.11-0.11-0.22-0.11-0.34c0-0.17,0.08-0.31,0.23-0.42c0.03-0.02,0.2-0.11,0.49-0.26c0.73-0.38,1.42-0.91,2.07-1.6
			c0.54-0.58,0.94-1.17,1.2-1.77c0.09-0.2,0.13-0.34,0.13-0.43c0-0.09-0.07-0.13-0.2-0.13c-0.06,0-0.72,0.04-1.99,0.12l-2.37,0.17
			c-0.9,0.07-1.37,0.1-1.4,0.1c-0.23,0-0.4-0.08-0.52-0.25c-0.07-0.11-0.11-0.24-0.11-0.39c0-0.39,0.19-0.62,0.57-0.67
			c0.24-0.03,2.02-0.15,5.36-0.34c0.27-0.01,0.47-0.03,0.61-0.04C84.81,148.72,84.98,148.71,85.04,148.71z M84.16,146.17
			c0.19,0,0.34,0.08,0.45,0.23c0.08,0.12,0.13,0.26,0.13,0.42c0,0.37-0.17,0.59-0.53,0.64c-0.28,0.04-0.69,0.08-1.22,0.13
			c-0.14,0.01-0.75,0.05-1.81,0.11c-0.65,0.04-1.08,0.05-1.31,0.05c-0.46,0-0.7-0.22-0.7-0.65c0-0.33,0.14-0.53,0.41-0.61
			c0.07-0.02,0.23-0.03,0.48-0.03c1.02-0.01,2.21-0.09,3.58-0.23c0.05-0.01,0.17-0.02,0.35-0.04
			C84.07,146.17,84.12,146.17,84.16,146.17z"/>
		<path d="M90.42,146.82c0.15,0,0.41,0.07,0.78,0.2c0.69,0.24,1.26,0.53,1.71,0.86c0.24,0.17,0.35,0.39,0.35,0.65
			c0,0.14-0.05,0.29-0.14,0.43c-0.14,0.21-0.33,0.32-0.56,0.32c-0.2,0-0.43-0.09-0.67-0.28c-0.62-0.49-1.18-0.88-1.68-1.16
			c-0.25-0.14-0.38-0.31-0.38-0.51C89.83,146.99,90.03,146.82,90.42,146.82z M97.54,148.59c0.13,0,0.25,0.04,0.36,0.13
			c0.15,0.11,0.23,0.26,0.23,0.45c0,0.15-0.06,0.32-0.18,0.5c-0.85,1.27-1.97,2.37-3.36,3.3c-1.16,0.77-2.35,1.32-3.59,1.66
			c-0.13,0.03-0.24,0.05-0.34,0.05c-0.31,0-0.54-0.14-0.67-0.43c-0.06-0.13-0.09-0.25-0.09-0.37c0-0.27,0.13-0.47,0.4-0.6
			c0.05-0.03,0.3-0.1,0.74-0.23c1.59-0.47,3.06-1.3,4.43-2.51c0.52-0.47,1.02-1,1.48-1.59C97.14,148.7,97.33,148.59,97.54,148.59z"
			/>
	</g>
</g>
</svg>
