<?xml version="1.0" encoding="utf-8"?>
<!-- Generator: Adobe Illustrator 25.4.1, SVG Export Plug-In . SVG Version: 6.00 Build 0)  -->
<svg version="1.1" xmlns="http://www.w3.org/2000/svg" xmlns:xlink="http://www.w3.org/1999/xlink" x="0px" y="0px"
	 viewBox="0 0 164.41 252.28" enable-background="new 0 0 164.41 252.28" xml:space="preserve">
<g id="地">
	<rect fill="#DCDDDD" width="164.41" height="252.28"/>
</g>
<g id="枠" display="none">
	<g display="inline">
		<path d="M161.57,2.83v246.61H2.83V2.83H161.57 M164.41,0H0v252.28h164.41V0L164.41,0z"/>
	</g>
</g>
<g id="国旗">
	<g>
		<g>
			<rect x="25.51" y="60" fill="#FFFFFF" width="113.39" height="75.59"/>
			<rect x="25.51" y="66.03" fill="#147EAB" width="113.39" height="12.57"/>
			<rect x="25.51" y="117" fill="#147EAB" width="113.39" height="12.57"/>
			<polygon fill="none" stroke="#147EAB" stroke-width="8.1834" points="70.6,90.95 92.62,90.95 81.61,110.51 			"/>
			<polygon fill="none" stroke="#147EAB" stroke-width="8.1834" points="92.62,104.33 70.6,104.33 81.61,84.77 			"/>
		</g>
	</g>
</g>
<g id="飾り">
</g>
<g id="国名">
	<g>
		<path d="M59.11,150.05c-0.94,0.64-1.88,1.17-2.8,1.57c-0.32,0.14-0.55,0.21-0.69,0.21c-0.16,0-0.29-0.06-0.38-0.18
			c-0.08-0.1-0.12-0.21-0.12-0.33c0-0.17,0.08-0.32,0.23-0.43c0.06-0.04,0.26-0.15,0.62-0.34c1.06-0.57,2.08-1.26,3.07-2.08
			c0.91-0.76,1.62-1.51,2.13-2.25c0.16-0.24,0.37-0.37,0.61-0.37c0.14,0,0.27,0.04,0.41,0.13c0.24,0.15,0.36,0.35,0.36,0.6
			c0,0.17-0.1,0.38-0.29,0.63c-0.53,0.67-1.21,1.35-2.04,2.03c0.2,0.12,0.3,0.3,0.3,0.54v4.65c0,0.23-0.07,0.4-0.22,0.52
			c-0.13,0.1-0.29,0.16-0.49,0.16c-0.32,0-0.53-0.12-0.64-0.37c-0.04-0.09-0.06-0.19-0.06-0.31V150.05z"/>
		<path d="M71.03,151.75c-1.04,1.06-2.12,1.91-3.23,2.56c-0.46,0.27-0.78,0.4-0.94,0.4c-0.2,0-0.35-0.09-0.46-0.27
			c-0.06-0.1-0.09-0.19-0.09-0.27c0-0.16,0.08-0.31,0.23-0.44c0.04-0.03,0.17-0.12,0.39-0.27c0.89-0.57,1.83-1.33,2.8-2.28
			c0.98-0.97,1.7-1.92,2.16-2.86c0.08-0.16,0.12-0.27,0.12-0.32c0-0.07-0.04-0.1-0.11-0.1c-0.05,0-0.13,0.01-0.25,0.03
			c-0.22,0.03-1.08,0.1-2.58,0.22c-0.26,0.02-0.48,0.04-0.67,0.05c-0.07,0.01-0.13,0.01-0.17,0.01c-0.3,0-0.5-0.11-0.62-0.33
			c-0.05-0.1-0.07-0.21-0.07-0.33c0-0.31,0.15-0.51,0.44-0.6c0.09-0.03,0.28-0.05,0.59-0.07c1.04-0.04,2.36-0.15,3.96-0.33
			c0.07-0.01,0.13-0.01,0.18-0.01c0.32,0,0.58,0.09,0.77,0.28c0.18,0.17,0.27,0.38,0.27,0.64c0,0.2-0.1,0.49-0.29,0.9
			c-0.38,0.79-0.94,1.64-1.68,2.55c1.22,0.76,2.17,1.47,2.85,2.14c0.31,0.3,0.46,0.58,0.46,0.83c0,0.19-0.07,0.36-0.22,0.51
			c-0.15,0.16-0.32,0.23-0.52,0.23c-0.2,0-0.37-0.07-0.52-0.22c-0.02-0.02-0.08-0.09-0.19-0.21
			C72.88,153.39,72.01,152.57,71.03,151.75z"/>
		<path d="M85.04,148.71c0.42,0,0.72,0.15,0.91,0.44c0.1,0.17,0.16,0.37,0.16,0.6c0,0.33-0.11,0.76-0.34,1.29
			c-0.5,1.17-1.32,2.17-2.47,3.02c-0.61,0.45-1.25,0.79-1.92,1.04c-0.17,0.06-0.31,0.09-0.43,0.09c-0.16,0-0.29-0.07-0.38-0.2
			c-0.07-0.11-0.11-0.22-0.11-0.34c0-0.17,0.08-0.31,0.23-0.42c0.03-0.02,0.2-0.11,0.49-0.26c0.73-0.38,1.42-0.91,2.06-1.6
			c0.54-0.58,0.94-1.17,1.2-1.77c0.09-0.2,0.13-0.34,0.13-0.43c0-0.09-0.07-0.13-0.2-0.13c-0.06,0-0.72,0.04-1.99,0.12l-2.37,0.17
			c-0.9,0.07-1.37,0.1-1.4,0.1c-0.23,0-0.4-0.08-0.52-0.25c-0.07-0.11-0.11-0.24-0.11-0.39c0-0.39,0.19-0.62,0.57-0.67
			c0.24-0.03,2.02-0.15,5.36-0.34c0.27-0.01,0.47-0.03,0.61-0.04C84.81,148.72,84.98,148.71,85.04,148.71z M84.16,146.17
			c0.19,0,0.34,0.08,0.45,0.23c0.09,0.12,0.13,0.26,0.13,0.42c0,0.37-0.17,0.59-0.53,0.64c-0.28,0.04-0.68,0.08-1.22,0.13
			c-0.14,0.01-0.75,0.05-1.81,0.11c-0.65,0.04-1.09,0.05-1.31,0.05c-0.46,0-0.7-0.22-0.7-0.65c0-0.33,0.14-0.53,0.41-0.61
			c0.07-0.02,0.23-0.03,0.48-0.03c1.02-0.01,2.21-0.09,3.58-0.23c0.05-0.01,0.17-0.02,0.35-0.04
			C84.07,146.17,84.12,146.17,84.16,146.17z"/>
		<path d="M92.75,148.87c-1.09,0.09-1.75,0.14-2,0.14c-0.21,0-0.38-0.06-0.5-0.19c-0.11-0.11-0.16-0.26-0.16-0.44
			c0-0.3,0.12-0.5,0.35-0.6c0.1-0.05,0.33-0.08,0.68-0.09c1.44-0.07,2.99-0.21,4.65-0.42c0.06-0.01,0.12-0.01,0.16-0.01
			c0.3,0,0.5,0.12,0.61,0.35c0.04,0.09,0.06,0.19,0.06,0.31c0,0.37-0.19,0.58-0.56,0.65c-0.33,0.06-0.96,0.13-1.89,0.21v3.22
			l0.27-0.01c2.14-0.12,3.29-0.18,3.43-0.18c0.2,0,0.35,0.05,0.47,0.14c0.15,0.12,0.23,0.3,0.23,0.54c0,0.32-0.14,0.53-0.41,0.62
			c-0.1,0.03-0.38,0.05-0.85,0.08c-2.77,0.12-5.38,0.28-7.83,0.47c-0.07,0-0.12,0-0.15,0c-0.21,0-0.39-0.06-0.52-0.18
			c-0.12-0.12-0.18-0.28-0.18-0.49c0-0.33,0.16-0.55,0.47-0.64c0.07-0.02,0.22-0.04,0.44-0.05c0.16-0.01,0.41-0.02,0.76-0.05
			c0.56-0.04,1.29-0.09,2.2-0.15l0.27-0.02V148.87z"/>
		<path d="M102.68,147.24c0.47,0,0.7,0.27,0.7,0.8c0,1.92-0.36,3.46-1.07,4.63c-0.3,0.5-0.67,0.91-1.08,1.24
			c-0.15,0.12-0.31,0.18-0.49,0.18c-0.12,0-0.22-0.04-0.31-0.12c-0.11-0.1-0.16-0.21-0.16-0.35c0-0.16,0.07-0.32,0.22-0.49
			c0.6-0.69,1.01-1.51,1.22-2.46c0.17-0.74,0.26-1.64,0.26-2.7c0-0.22,0.05-0.38,0.15-0.49
			C102.25,147.32,102.44,147.24,102.68,147.24z M105.87,146.83v5.65c0,0.14,0.03,0.22,0.1,0.22c0.14,0,0.49-0.2,1.07-0.6
			c0.82-0.56,1.5-1.13,2.03-1.72c0.18-0.21,0.36-0.31,0.52-0.31c0.13,0,0.26,0.05,0.39,0.16c0.13,0.1,0.19,0.24,0.19,0.42
			c0,0.15-0.06,0.31-0.18,0.48c-0.43,0.59-1.08,1.23-1.94,1.92c-0.68,0.54-1.33,0.95-1.94,1.26c-0.23,0.11-0.44,0.17-0.61,0.17
			c-0.2,0-0.39-0.07-0.59-0.21c-0.28-0.2-0.42-0.5-0.42-0.92v-6.51c0-0.24,0.11-0.42,0.32-0.54c0.11-0.06,0.23-0.09,0.37-0.09
			c0.2,0,0.37,0.06,0.51,0.17C105.8,146.49,105.87,146.64,105.87,146.83z"/>
	</g>
</g>
</svg>
