<?xml version="1.0" encoding="utf-8"?>
<!-- Generator: Adobe Illustrator 25.4.1, SVG Export Plug-In . SVG Version: 6.00 Build 0)  -->
<svg version="1.1" xmlns="http://www.w3.org/2000/svg" xmlns:xlink="http://www.w3.org/1999/xlink" x="0px" y="0px"
	 viewBox="0 0 164.41 252.28" enable-background="new 0 0 164.41 252.28" xml:space="preserve">
<g id="地">
	<rect fill="#DCDDDD" width="164.41" height="252.28"/>
</g>
<g id="枠" display="none">
	<g display="inline">
		<path d="M161.57,2.83v246.61H2.83V2.83H161.57 M164.41,0H0v252.28h164.41V0L164.41,0z"/>
	</g>
</g>
<g id="国旗">
	<g>
		<g>
			<rect x="25.51" y="60" fill="#FFFFFF" width="113.39" height="75.59"/>
			<rect x="25.51" y="110.46" fill="#040000" width="113.39" height="25.13"/>
			<rect x="25.51" y="60" fill="#C91431" width="113.39" height="25.13"/>
		</g>
	</g>
</g>
<g id="飾り">
</g>
<g id="国名">
	<g>
		<path d="M64.78,150.05c-0.94,0.64-1.88,1.17-2.8,1.57c-0.32,0.14-0.55,0.21-0.69,0.21c-0.16,0-0.29-0.06-0.38-0.18
			c-0.08-0.1-0.12-0.21-0.12-0.33c0-0.17,0.08-0.32,0.23-0.43c0.06-0.04,0.26-0.15,0.62-0.34c1.06-0.57,2.08-1.26,3.07-2.08
			c0.91-0.76,1.62-1.51,2.13-2.25c0.16-0.24,0.37-0.37,0.61-0.37c0.14,0,0.27,0.04,0.41,0.13c0.24,0.15,0.36,0.35,0.36,0.6
			c0,0.17-0.1,0.38-0.29,0.63c-0.53,0.67-1.21,1.35-2.04,2.03c0.2,0.12,0.3,0.3,0.3,0.54v4.65c0,0.23-0.07,0.4-0.22,0.52
			c-0.12,0.1-0.29,0.16-0.49,0.16c-0.32,0-0.53-0.12-0.64-0.37c-0.04-0.09-0.06-0.19-0.06-0.31V150.05z"/>
		<path d="M75.74,148.87c-1.09,0.09-1.75,0.14-2,0.14c-0.21,0-0.38-0.06-0.5-0.19c-0.11-0.11-0.16-0.26-0.16-0.44
			c0-0.3,0.12-0.5,0.35-0.6c0.1-0.05,0.33-0.08,0.68-0.09c1.44-0.07,2.99-0.21,4.65-0.42c0.06-0.01,0.12-0.01,0.16-0.01
			c0.3,0,0.5,0.12,0.61,0.35c0.04,0.09,0.06,0.19,0.06,0.31c0,0.37-0.19,0.58-0.56,0.65c-0.32,0.06-0.96,0.13-1.89,0.21v3.22
			l0.27-0.01c2.14-0.12,3.29-0.18,3.43-0.18c0.2,0,0.35,0.05,0.47,0.14c0.15,0.12,0.23,0.3,0.23,0.54c0,0.32-0.14,0.53-0.41,0.62
			c-0.1,0.03-0.38,0.05-0.85,0.08c-2.77,0.12-5.38,0.28-7.83,0.47c-0.07,0-0.12,0-0.15,0c-0.21,0-0.39-0.06-0.52-0.18
			c-0.12-0.12-0.18-0.28-0.18-0.49c0-0.33,0.16-0.55,0.47-0.64c0.07-0.02,0.22-0.04,0.44-0.05c0.16-0.01,0.41-0.02,0.76-0.05
			c0.56-0.04,1.3-0.09,2.2-0.15l0.27-0.02V148.87z"/>
		<path d="M87.9,149.45c0.48-0.84,0.92-1.8,1.3-2.87c0.14-0.41,0.38-0.62,0.71-0.62c0.13,0,0.25,0.02,0.36,0.07
			c0.29,0.12,0.43,0.33,0.43,0.63c0,0.12-0.04,0.3-0.13,0.53c-0.39,1.03-0.89,2.04-1.48,3.03c0.47,0.34,0.87,0.66,1.19,0.97
			c0.2,0.19,0.3,0.41,0.3,0.65c0,0.24-0.09,0.43-0.28,0.58c-0.12,0.1-0.27,0.16-0.44,0.16c-0.21,0-0.42-0.11-0.62-0.32
			c-0.29-0.3-0.61-0.59-0.96-0.88c-0.98,1.23-2.07,2.2-3.25,2.9c-0.46,0.27-0.8,0.41-1,0.41c-0.17,0-0.31-0.07-0.41-0.21
			c-0.08-0.11-0.12-0.21-0.12-0.32c0-0.16,0.07-0.3,0.22-0.44c0.04-0.03,0.17-0.12,0.4-0.27c1.09-0.72,2.12-1.7,3.08-2.95
			c-0.5-0.37-0.97-0.69-1.41-0.94c-0.24-0.14-0.37-0.31-0.37-0.5c0-0.08,0.02-0.16,0.06-0.23c0.1-0.19,0.26-0.29,0.49-0.29
			C86.25,148.54,86.89,148.84,87.9,149.45z"/>
		<path d="M96.09,146.82c0.15,0,0.41,0.07,0.78,0.2c0.69,0.24,1.26,0.53,1.71,0.86c0.24,0.17,0.35,0.39,0.35,0.65
			c0,0.14-0.05,0.29-0.14,0.43c-0.14,0.21-0.33,0.32-0.56,0.32c-0.2,0-0.43-0.09-0.67-0.28c-0.62-0.49-1.18-0.88-1.68-1.16
			c-0.25-0.14-0.38-0.31-0.38-0.51C95.5,146.99,95.69,146.82,96.09,146.82z M103.21,148.59c0.12,0,0.25,0.04,0.36,0.13
			c0.15,0.11,0.23,0.26,0.23,0.45c0,0.15-0.06,0.32-0.18,0.5c-0.85,1.27-1.97,2.37-3.36,3.3c-1.16,0.77-2.35,1.32-3.59,1.66
			c-0.13,0.03-0.24,0.05-0.34,0.05c-0.31,0-0.54-0.14-0.67-0.43c-0.06-0.13-0.09-0.25-0.09-0.37c0-0.27,0.13-0.47,0.4-0.6
			c0.06-0.03,0.3-0.1,0.74-0.23c1.59-0.47,3.07-1.3,4.43-2.51c0.52-0.47,1.02-1,1.48-1.59C102.8,148.7,103,148.59,103.21,148.59z"/>
	</g>
</g>
</svg>
