<?xml version="1.0" encoding="utf-8"?>
<!-- Generator: Adobe Illustrator 25.4.1, SVG Export Plug-In . SVG Version: 6.00 Build 0)  -->
<svg version="1.1" xmlns="http://www.w3.org/2000/svg" xmlns:xlink="http://www.w3.org/1999/xlink" x="0px" y="0px"
	 viewBox="0 0 164.41 252.28" enable-background="new 0 0 164.41 252.28" xml:space="preserve">
<g id="地">
	<rect fill="#DCDDDD" width="164.41" height="252.28"/>
</g>
<g id="枠">
</g>
<g id="国旗">
	<g>
		<g>
			<rect x="25.51" y="59.85" fill="#040000" width="113.39" height="75.59"/>
			<rect x="25.51" y="59.85" fill="#C8152A" width="113.39" height="37.8"/>
			<path fill="#F5CF21" stroke="#040000" stroke-width="2" d="M94.42,96.76v-3.19h-1.46c-0.08-0.89-0.23-1.75-0.46-2.59l1.6-0.61
				l-1.17-2.97l-1.58,0.66c-0.39-0.75-0.84-1.46-1.35-2.12l1.25-1.17l-2.2-2.32l-1.22,1.2c-0.6-0.51-1.24-0.98-1.92-1.39l0.77-1.53
				l-2.89-1.35l-0.7,1.56c-0.7-0.24-1.42-0.43-2.16-0.57l-0.66,1.5c6.32,0.96,11.15,6.41,11.15,12.99c0,7.26-5.88,13.14-13.14,13.14
				c-3.57,0-6.81-1.43-9.18-3.74l-0.76,1.48c0.19,0.17,0.38,0.34,0.58,0.51l-0.96,1.42l2.67,1.75l0.91-1.45
				c0.91,0.47,1.87,0.84,2.88,1.12l-0.27,1.69l3.15,0.5l0.26-1.69c0.24,0.01,0.47,0.02,0.71,0.02c1.01,0,2-0.1,2.95-0.3l0.47,1.65
				l3.04-0.97l-0.54-1.62c1-0.44,1.95-0.99,2.82-1.63l1.08,1.33l2.36-2.15l-1.17-1.25c0.64-0.72,1.21-1.49,1.69-2.32l1.54,0.74
				l1.32-2.91l-1.57-0.68c0.29-0.88,0.5-1.79,0.62-2.74H94.42z"/>
			<polygon fill="#F5CF21" stroke="#040000" stroke-width="2" points="80.26,83.74 81.27,86.84 84.53,86.84 81.9,88.76 82.9,91.86 
				80.26,89.95 77.63,91.86 78.63,88.76 76,86.84 79.26,86.84 			"/>
			<path fill="#F5CF21" stroke="#040000" stroke-width="2" d="M77.34,97.11c-2.08-2.21-2.95-5.63-3.64-5.63
				c-0.69,0-1.52,1.48-1.52,3.55c0,2.08,0.69,3.74,7.47,8.81c3.5,2.62,7.12,5.19,9.85,7.11l1.57-1.8
				C85.99,104.79,78.75,98.62,77.34,97.11z"/>
			<path fill="#F5CF21" stroke="#040000" stroke-width="2" d="M95.98,113.49c-0.48-0.48-1.88-1.71-3.7-3.29l-1.46,1.67
				c1.84,1.29,3.04,2.12,3.14,2.21c0.23,0.23-0.42,1.29,0.65,1.98C95.66,116.77,97.78,115.29,95.98,113.49z"/>
			<polygon fill="#040000" points="77.96,99.15 78.2,98.86 91.17,110.07 90.92,110.36 			"/>
			<circle fill="#040000" cx="92.7" cy="111.65" r="0.32"/>
			<path fill="#040000" d="M94.23,112.75c0,0.18-0.14,0.32-0.32,0.32c-0.18,0-0.32-0.14-0.32-0.32c0-0.18,0.14-0.32,0.32-0.32
				C94.08,112.43,94.23,112.57,94.23,112.75z"/>
			<circle fill="#040000" cx="95.06" cy="114" r="0.32"/>
		</g>
	</g>
</g>
<g id="ガイド" display="none">
</g>
</svg>
