<?xml version="1.0" encoding="utf-8"?>
<!-- Generator: Adobe Illustrator 25.4.1, SVG Export Plug-In . SVG Version: 6.00 Build 0)  -->
<svg version="1.1" xmlns="http://www.w3.org/2000/svg" xmlns:xlink="http://www.w3.org/1999/xlink" x="0px" y="0px"
	 viewBox="0 0 164.41 252.28" enable-background="new 0 0 164.41 252.28" xml:space="preserve">
<g id="地">
	<rect fill="#DCDDDD" width="164.41" height="252.28"/>
</g>
<g id="枠">
</g>
<g id="国旗">
	<g>
		<g>
			<rect x="25.51" y="60" fill="#FFFFFF" width="113.39" height="75.59"/>
			<path fill="#147F49" d="M64.52,92.75l-39.01-26V129l39.04-26.03c-0.48-1.64-0.74-3.38-0.74-5.17
				C63.81,96.05,64.06,94.35,64.52,92.75z"/>
			<path fill="#C8152A" d="M128.78,135.59l-35.12-23.41c-3.14,2.51-7.12,4.01-11.46,4.01c-4.33,0-8.31-1.5-11.46-4.01l-35.12,23.41
				H128.78z"/>
			<path fill="#147F49" d="M99.89,102.84l39.01,26V66.59L99.86,92.62c0.48,1.64,0.74,3.38,0.74,5.17
				C100.6,99.55,100.35,101.24,99.89,102.84z"/>
			<path fill="#C8152A" d="M35.63,60l35.12,23.41c3.14-2.51,7.12-4.01,11.46-4.01c4.33,0,8.31,1.5,11.46,4.01L128.78,60H35.63z"/>
			<polygon fill="#147F49" points="82.2,82.14 84.29,85.75 88.46,85.75 86.37,89.36 88.46,92.97 84.29,92.97 82.2,96.58 
				80.12,92.97 75.95,92.97 78.04,89.36 75.95,85.75 80.12,85.75 			"/>
			<polygon fill="#D81624" points="82.2,95.07 80.56,92.22 77.26,92.22 78.91,89.36 77.26,86.51 80.56,86.51 82.2,83.65 
				83.85,86.51 87.15,86.51 85.5,89.36 87.15,92.22 83.85,92.22 			"/>
			<polygon fill="#147F49" points="90.13,95.87 92.22,99.48 96.38,99.48 94.3,103.09 96.38,106.7 92.22,106.7 90.13,110.31 
				88.05,106.7 83.88,106.7 85.96,103.09 83.88,99.48 88.05,99.48 			"/>
			<polygon fill="#D81624" points="90.13,108.8 88.48,105.95 85.19,105.95 86.84,103.09 85.19,100.24 88.48,100.24 90.13,97.39 
				91.78,100.24 95.07,100.24 93.43,103.09 95.07,105.95 91.78,105.95 			"/>
			<polygon fill="#147F49" points="74.28,95.87 76.36,99.48 80.53,99.48 78.45,103.09 80.53,106.7 76.36,106.7 74.28,110.31 
				72.19,106.7 68.03,106.7 70.11,103.09 68.03,99.48 72.19,99.48 			"/>
			<polygon fill="#D81624" points="74.28,108.8 72.63,105.95 69.33,105.95 70.98,103.09 69.33,100.24 72.63,100.24 74.28,97.39 
				75.93,100.24 79.22,100.24 77.57,103.09 79.22,105.95 75.93,105.95 			"/>
		</g>
	</g>
</g>
<g id="ガイド" display="none">
</g>
</svg>
