<?xml version="1.0" encoding="utf-8"?>
<!-- Generator: Adobe Illustrator 25.4.1, SVG Export Plug-In . SVG Version: 6.00 Build 0)  -->
<svg version="1.1" xmlns="http://www.w3.org/2000/svg" xmlns:xlink="http://www.w3.org/1999/xlink" x="0px" y="0px"
	 viewBox="0 0 164.41 252.28" enable-background="new 0 0 164.41 252.28" xml:space="preserve">
<g id="地">
	<rect fill="#DCDDDD" width="164.41" height="252.28"/>
</g>
<g id="枠">
</g>
<g id="国旗">
	<g>
		<g>
			<rect x="25.51" y="60.17" fill="#FFFFFF" width="113.39" height="75.59"/>
			<rect x="25.51" y="60.17" fill="#128CBA" width="113.39" height="25.2"/>
			<rect x="25.51" y="110.56" fill="#128CBA" width="113.39" height="25.2"/>
			<polygon fill="#128CBA" points="81.45,94.31 82.48,97.49 85.82,97.49 83.12,99.45 84.15,102.63 81.45,100.67 78.75,102.63 
				79.78,99.45 77.08,97.49 80.42,97.49 			"/>
			<polygon fill="#128CBA" points="71.33,86.66 72.37,89.83 75.71,89.83 73,91.79 74.04,94.97 71.33,93.01 68.63,94.97 69.66,91.79 
				66.96,89.83 70.3,89.83 			"/>
			<polygon fill="#128CBA" points="91.56,86.66 90.53,89.83 87.19,89.83 89.89,91.79 88.86,94.97 91.56,93.01 94.26,94.97 
				93.23,91.79 95.93,89.83 92.6,89.83 			"/>
			<polygon fill="#128CBA" points="71.33,101.33 72.37,104.51 75.71,104.51 73,106.47 74.04,109.64 71.33,107.68 68.63,109.64 
				69.66,106.47 66.96,104.51 70.3,104.51 			"/>
			<polygon fill="#128CBA" points="91.56,101.33 90.53,104.51 87.19,104.51 89.89,106.47 88.86,109.64 91.56,107.68 94.26,109.64 
				93.23,106.47 95.93,104.51 92.6,104.51 			"/>
		</g>
	</g>
</g>
<g id="ガイド" display="none">
</g>
</svg>
