<?xml version="1.0" encoding="utf-8"?>
<!-- Generator: Adobe Illustrator 25.4.1, SVG Export Plug-In . SVG Version: 6.00 Build 0)  -->
<svg version="1.1" xmlns="http://www.w3.org/2000/svg" xmlns:xlink="http://www.w3.org/1999/xlink" x="0px" y="0px"
	 viewBox="0 0 164.41 252.28" enable-background="new 0 0 164.41 252.28" xml:space="preserve">
<g id="地">
	<rect fill="#DCDDDD" width="164.41" height="252.28"/>
</g>
<g id="枠">
</g>
<g id="国旗">
	<g>
		<g>
			<rect x="25.51" y="60.17" fill="#04755C" width="113.39" height="75.59"/>
			<polygon fill="#F1CA27" points="82.2,72.47 83.19,75.51 86.39,75.51 83.8,77.39 84.79,80.43 82.2,78.55 79.62,80.43 80.61,77.39 
				78.02,75.51 81.22,75.51 			"/>
			<polygon fill="#F1CA27" points="93.77,82.44 92.95,80.6 90.94,80.82 92.44,79.46 91.61,77.63 93.36,78.63 94.85,77.27 
				94.44,79.25 96.19,80.25 94.19,80.47 			"/>
			<polygon fill="#F1CA27" points="98.19,90.12 98.39,88.12 96.55,87.3 98.52,86.88 98.72,84.87 99.73,86.61 101.7,86.19 
				100.36,87.69 101.38,89.43 99.53,88.62 			"/>
			<path fill="#FFFFFF" d="M82.2,103.11c-4.28,3.9-6.02,4.32-11.07,4.11c-5.05-0.22-8.55-3.32-8.55-3.32l1.77-1.05
				c5.18,4.06,10.82,3.25,10.82,3.25c-10.16-1.05-12.52-7.65-12.52-7.65c7.16-4.71,14.6,0.93,14.6,0.93
				C72.62,95.07,66.67,96,66.67,96l-1.55-1.89c7.31-1.05,12.86,4.09,12.86,4.09c-5.24-7.75-1.21-13.33-1.21-13.33l1.7,1.61
				c-2.94,6.17,0.25,11.19,0.25,11.19c-4.06-9.2,3.48-14.69,3.48-14.69s7.54,5.49,3.48,14.69c0,0,3.19-5.02,0.25-11.19l1.7-1.61
				c0,0,4.03,5.58-1.21,13.33c0,0,5.55-5.14,12.86-4.09L97.74,96c0,0-5.95-0.93-10.57,3.38c0,0,7.44-5.64,14.6-0.93
				c0,0-2.35,6.6-12.52,7.65c0,0,5.64,0.81,10.82-3.25l1.77,1.05c0,0-3.5,3.1-8.55,3.32C88.23,107.44,86.48,107.02,82.2,103.11z"/>
			<path fill="#FFFFFF" d="M82.2,106.47c-2.47,2.47-4.5,3.15-7.72,3.15c-3.22,0-9.07-0.01-10.17-0.01c-0.5-0.5-1.1-1.52-1.1-1.52
				s6.95,0,11.15,0c4.21,0,7.83-3.71,7.83-3.71s3.63,3.71,7.83,3.71c4.21,0,11.15,0,11.15,0s-0.6,1.02-1.1,1.52
				c-1.1,0-6.95,0.01-10.17,0.01C86.7,109.62,84.67,108.94,82.2,106.47z"/>
			<path fill="#FFFFFF" d="M65.62,111.5c-0.31-0.2-0.55-0.53-0.55-0.53h34.27c0,0-0.24,0.33-0.55,0.53
				C97.88,111.5,66.53,111.5,65.62,111.5z"/>
			<path fill="#FFFFFF" d="M68.06,114.17c-0.26-0.16-1.29-1.16-1.29-1.16h30.87c0,0-1.03,1-1.29,1.16H68.06z"/>
			<path fill="#FFFFFF" d="M71.83,116.78c-0.87-0.32-2.48-1.61-2.48-1.61h25.72c0,0-1.61,1.29-2.48,1.61H71.83z"/>
			<path fill="#FFFFFF" d="M82.2,119.42c-5.48,0-9.32-2.09-9.32-2.09h18.63C91.52,117.33,87.68,119.42,82.2,119.42z"/>
			<polygon fill="#F1CA27" points="70.64,82.44 71.46,80.6 73.47,80.82 71.97,79.46 72.8,77.63 71.05,78.63 69.56,77.27 
				69.97,79.25 68.22,80.25 70.22,80.47 			"/>
			<polygon fill="#F1CA27" points="66.22,90.12 66.02,88.12 67.86,87.3 65.89,86.88 65.69,84.87 64.68,86.61 62.7,86.19 
				64.05,87.69 63.03,89.43 64.88,88.62 			"/>
		</g>
	</g>
</g>
<g id="ガイド" display="none">
</g>
</svg>
