<?xml version="1.0" encoding="utf-8"?>
<!-- Generator: Adobe Illustrator 25.4.1, SVG Export Plug-In . SVG Version: 6.00 Build 0)  -->
<svg version="1.1" xmlns="http://www.w3.org/2000/svg" xmlns:xlink="http://www.w3.org/1999/xlink" x="0px" y="0px"
	 viewBox="0 0 164.41 252.28" enable-background="new 0 0 164.41 252.28" xml:space="preserve">
<g id="地">
	<rect fill="#DCDDDD" width="164.41" height="252.28"/>
</g>
<g id="枠">
</g>
<g id="国旗">
	<g>
		<g>
			<rect x="25.51" y="60.17" fill="#C81528" width="113.39" height="75.59"/>
			
				<ellipse transform="matrix(0.0602 -0.9982 0.9982 0.0602 -20.6215 174.0267)" fill="#F5B719" cx="82.11" cy="97.97" rx="11.93" ry="11.93"/>
			<path fill="#F5B719" d="M82.11,84.88c0.69,0,1.36,0.05,2.02,0.16l3.88-24.86h-11.8l3.88,24.86
				C80.75,84.93,81.43,84.88,82.11,84.88z"/>
			<path fill="#F5B719" d="M82.11,111.05c-0.69,0-1.36-0.05-2.02-0.16l-3.88,24.86h11.8l-3.88-24.86
				C83.47,111,82.8,111.05,82.11,111.05z"/>
			<path fill="#F5B719" d="M93,90.72l45.89-30.55h-23.56L90.75,88.14C91.61,88.9,92.37,89.76,93,90.72z"/>
			<path fill="#F5B719" d="M95.2,97.97c0,0.57-0.04,1.13-0.11,1.68l43.81,5.69V90.35l-43.81,5.87C95.16,96.8,95.2,97.38,95.2,97.97z
				"/>
			<path fill="#F5B719" d="M93,105.21c-0.64,0.95-1.4,1.82-2.26,2.57l24.59,27.97h23.56L93,105.21z"/>
			<path fill="#F5B719" d="M71.23,105.23l-45.72,30.53h22.83l25.05-28.04C72.58,106.99,71.85,106.15,71.23,105.23z"/>
			<path fill="#F5B719" d="M69.02,97.97c0-0.57,0.04-1.13,0.11-1.69l-43.62-5.66v14.39l43.62-5.43
				C69.06,99.05,69.02,98.51,69.02,97.97z"/>
			<path fill="#F5B719" d="M73.4,88.21L48.35,60.17H25.51L71.23,90.7C71.85,89.78,72.58,88.95,73.4,88.21z"/>
		</g>
	</g>
</g>
<g id="ガイド" display="none">
</g>
</svg>
