<?xml version="1.0" encoding="utf-8"?>
<!-- Generator: Adobe Illustrator 25.4.1, SVG Export Plug-In . SVG Version: 6.00 Build 0)  -->
<svg version="1.1" xmlns="http://www.w3.org/2000/svg" xmlns:xlink="http://www.w3.org/1999/xlink" x="0px" y="0px"
	 viewBox="0 0 164.41 252.28" enable-background="new 0 0 164.41 252.28" xml:space="preserve">
<g id="地">
	<rect fill="#DCDDDD" width="164.41" height="252.28"/>
</g>
<g id="枠">
</g>
<g id="国旗">
	<g>
		<g>
			<rect x="25.51" y="60" fill="#C81528" width="113.39" height="75.59"/>
			<polygon fill="#FFFFFF" points="82.2,135.59 104.49,105.87 59.91,105.87 			"/>
			<polygon fill="#035283" points="47.8,89.72 59.91,105.87 104.49,105.87 116.61,89.72 			"/>
			<polygon fill="#040000" points="138.9,60 25.51,60 47.8,89.72 116.61,89.72 			"/>
			<polygon fill="#F5D021" points="98.02,86.57 105.05,80.25 95.61,80.76 99.69,72.24 91.16,76.31 91.67,66.87 85.36,73.9 
				82.2,64.99 79.05,73.9 72.74,66.87 73.25,76.31 64.72,72.24 68.79,80.76 59.35,80.25 66.39,86.57 57.48,89.72 106.93,89.72 			
				"/>
		</g>
	</g>
</g>
<g id="ガイド" display="none">
</g>
</svg>
