<?xml version="1.0" encoding="utf-8"?>
<!-- Generator: Adobe Illustrator 25.4.1, SVG Export Plug-In . SVG Version: 6.00 Build 0)  -->
<svg version="1.1" xmlns="http://www.w3.org/2000/svg" xmlns:xlink="http://www.w3.org/1999/xlink" x="0px" y="0px"
	 viewBox="0 0 164.41 252.28" enable-background="new 0 0 164.41 252.28" xml:space="preserve">
<g id="地">
	<rect fill="#DCDDDD" width="164.41" height="252.28"/>
</g>
<g id="枠">
</g>
<g id="国旗">
	<g>
		<g>
			<rect x="25.55" y="60.38" fill="#C8152A" width="113.14" height="75.42"/>
			<rect x="25.55" y="110.66" fill="#147F49" width="113.14" height="25.14"/>
			<rect x="25.3" y="60.13" fill="#040000" width="113.14" height="25.14"/>
			<path fill="#C8152A" d="M82.12,70c0,0-0.88-6.03-0.88-7.23c0-1.2,0.88-1.23,0.88-1.23S83,61.57,83,62.77
				C83,63.96,82.12,70,82.12,70z"/>
			<path fill="#C8152A" d="M83.62,70.06c0,0-0.37-6.09-0.27-7.28c0.1-1.19,0.98-1.16,0.98-1.16s0.87,0.11,0.77,1.3
				C85,64.12,83.62,70.06,83.62,70.06z"/>
			<path fill="#C8152A" d="M85.11,70.25c0,0,0.15-6.1,0.35-7.28c0.2-1.18,1.07-1.07,1.07-1.07s0.86,0.18,0.66,1.36
				C86.99,64.45,85.11,70.25,85.11,70.25z"/>
			<path fill="#C8152A" d="M86.76,70.61c0,0,0.73-6.05,1.04-7.21c0.31-1.16,1.17-0.96,1.17-0.96s0.84,0.27,0.53,1.42
				C89.18,65.02,86.76,70.61,86.76,70.61z"/>
			<path fill="#C8152A" d="M88.28,71.1c0,0,1.27-5.96,1.68-7.09c0.41-1.12,1.25-0.85,1.25-0.85s0.81,0.34,0.4,1.46
				C91.19,65.74,88.28,71.1,88.28,71.1z"/>
			<path fill="#C8152A" d="M89.93,71.81c0,0,1.86-5.81,2.39-6.88c0.53-1.08,1.33-0.72,1.33-0.72s0.77,0.42,0.25,1.49
				C93.37,66.77,89.93,71.81,89.93,71.81z"/>
			<path fill="#C8152A" d="M91.31,72.56c0,0,2.37-5.62,2.98-6.64c0.62-1.02,1.39-0.6,1.39-0.6s0.73,0.49,0.11,1.51
				C95.18,67.84,91.31,72.56,91.31,72.56z"/>
			<path fill="#C8152A" d="M92.68,73.48c0,0,2.88-5.38,3.59-6.34c0.71-0.96,1.44-0.47,1.44-0.47s0.68,0.55-0.03,1.51
				C96.97,69.15,92.68,73.48,92.68,73.48z"/>
			<path fill="#C8152A" d="M94.01,74.56c0,0,3.38-5.07,4.18-5.96c0.8-0.89,1.48-0.33,1.48-0.33s0.63,0.61-0.17,1.5
				C98.69,70.66,94.01,74.56,94.01,74.56z"/>
			<path fill="#C8152A" d="M95.21,75.75c0,0,3.85-4.73,4.73-5.54c0.88-0.81,1.5-0.19,1.5-0.19s0.57,0.67-0.31,1.48
				C100.25,72.32,95.21,75.75,95.21,75.75z"/>
			<path fill="#C8152A" d="M96.21,76.93c0,0,4.25-4.38,5.19-5.11c0.95-0.73,1.51-0.06,1.51-0.06s0.51,0.72-0.44,1.45
				C101.53,73.95,96.21,76.93,96.21,76.93z"/>
			<path fill="#C8152A" d="M97.2,78.37c0,0,4.65-3.94,5.67-4.57c1.01-0.63,1.51,0.09,1.51,0.09s0.43,0.76-0.58,1.4
				C102.79,75.92,97.2,78.37,97.2,78.37z"/>
			<path fill="#C8152A" d="M98.03,79.85c0,0,5.01-3.48,6.08-4.01c1.07-0.53,1.5,0.24,1.5,0.24s0.36,0.8-0.71,1.34
				C103.83,77.95,98.03,79.85,98.03,79.85z"/>
			<path fill="#C8152A" d="M98.67,81.28c0,0,5.3-3.02,6.41-3.46c1.11-0.44,1.47,0.37,1.47,0.37s0.29,0.83-0.83,1.27
				C104.61,79.9,98.67,81.28,98.67,81.28z"/>
			<path fill="#C8152A" d="M99.24,82.99c0,0,5.57-2.47,6.73-2.79c1.15-0.32,1.43,0.51,1.43,0.51s0.2,0.86-0.95,1.18
				C105.29,82.21,99.24,82.99,99.24,82.99z"/>
			<path fill="#C8152A" d="M80.62,70.06c0,0,0.37-6.09,0.27-7.28c-0.1-1.19-0.98-1.16-0.98-1.16s-0.87,0.11-0.77,1.3
				C79.24,64.12,80.62,70.06,80.62,70.06z"/>
			<path fill="#C8152A" d="M79.12,70.25c0,0-0.15-6.1-0.35-7.28c-0.2-1.18-1.07-1.07-1.07-1.07s-0.86,0.18-0.66,1.36
				C77.24,64.45,79.12,70.25,79.12,70.25z"/>
			<path fill="#C8152A" d="M77.48,70.61c0,0-0.73-6.05-1.04-7.21c-0.31-1.16-1.17-0.96-1.17-0.96s-0.84,0.27-0.53,1.42
				C75.06,65.02,77.48,70.61,77.48,70.61z"/>
			<path fill="#C8152A" d="M75.96,71.1c0,0-1.27-5.96-1.68-7.09c-0.41-1.12-1.25-0.85-1.25-0.85s-0.81,0.34-0.4,1.46
				C73.04,65.74,75.96,71.1,75.96,71.1z"/>
			<path fill="#C8152A" d="M74.31,71.81c0,0-1.86-5.81-2.39-6.88c-0.53-1.08-1.33-0.72-1.33-0.72s-0.77,0.42-0.25,1.49
				C70.87,66.77,74.31,71.81,74.31,71.81z"/>
			<path fill="#C8152A" d="M72.93,72.56c0,0-2.37-5.62-2.98-6.64c-0.62-1.02-1.39-0.6-1.39-0.6s-0.73,0.49-0.11,1.51
				C69.06,67.84,72.93,72.56,72.93,72.56z"/>
			<path fill="#C8152A" d="M71.56,73.48c0,0-2.88-5.38-3.59-6.34c-0.71-0.96-1.44-0.47-1.44-0.47s-0.68,0.55,0.03,1.51
				C67.26,69.15,71.56,73.48,71.56,73.48z"/>
			<path fill="#C8152A" d="M70.23,74.56c0,0-3.38-5.07-4.18-5.96c-0.8-0.89-1.48-0.33-1.48-0.33s-0.63,0.61,0.17,1.5
				C65.54,70.66,70.23,74.56,70.23,74.56z"/>
			<path fill="#C8152A" d="M69.02,75.75c0,0-3.85-4.73-4.73-5.54c-0.88-0.81-1.5-0.19-1.5-0.19s-0.57,0.67,0.31,1.48
				C63.99,72.32,69.02,75.75,69.02,75.75z"/>
			<path fill="#C8152A" d="M68.03,76.93c0,0-4.25-4.38-5.19-5.11c-0.95-0.73-1.51-0.06-1.51-0.06s-0.51,0.72,0.44,1.45
				C62.71,73.95,68.03,76.93,68.03,76.93z"/>
			<path fill="#C8152A" d="M67.03,78.37c0,0-4.65-3.94-5.67-4.57c-1.01-0.63-1.51,0.09-1.51,0.09s-0.43,0.76,0.58,1.4
				C61.45,75.92,67.03,78.37,67.03,78.37z"/>
			<path fill="#C8152A" d="M66.2,79.85c0,0-5.01-3.48-6.08-4.01c-1.07-0.53-1.5,0.24-1.5,0.24s-0.36,0.8,0.71,1.34
				C60.41,77.95,66.2,79.85,66.2,79.85z"/>
			<path fill="#C8152A" d="M65.57,81.28c0,0-5.3-3.02-6.41-3.46c-1.11-0.44-1.47,0.37-1.47,0.37s-0.29,0.83,0.83,1.27
				C59.63,79.9,65.57,81.28,65.57,81.28z"/>
			<path fill="#C8152A" d="M65,82.99c0,0-5.57-2.47-6.73-2.79c-1.15-0.32-1.43,0.51-1.43,0.51s-0.2,0.86,0.95,1.18
				C58.95,82.21,65,82.99,65,82.99z"/>
			<path fill="#C8152A" d="M64.67,84.38c0,0-5.88-1.6-7.07-1.74c-1.19-0.15-1.33,0.72-1.33,0.72s-0.07,0.88,1.12,1.02
				C58.57,84.52,64.67,84.38,64.67,84.38z"/>
			<path fill="#C8152A" d="M99.57,84.38c0,0,5.88-1.6,7.07-1.74c1.19-0.15,1.33,0.72,1.33,0.72s0.07,0.88-1.12,1.02
				C105.66,84.52,99.57,84.38,99.57,84.38z"/>
			<path fill="#C8152A" d="M82.12,72.53c-7.22,0-13.26,5.01-14.84,11.75h29.68C95.38,77.54,89.34,72.53,82.12,72.53z"/>
		</g>
	</g>
</g>
<g id="ガイド" display="none">
</g>
</svg>
