<?xml version="1.0" encoding="utf-8"?>
<!-- Generator: Adobe Illustrator 25.4.1, SVG Export Plug-In . SVG Version: 6.00 Build 0)  -->
<svg version="1.1" xmlns="http://www.w3.org/2000/svg" xmlns:xlink="http://www.w3.org/1999/xlink" x="0px" y="0px"
	 viewBox="0 0 164.41 252.28" enable-background="new 0 0 164.41 252.28" xml:space="preserve">
<g id="地">
	<rect fill="#DCDDDD" width="164.41" height="252.28"/>
</g>
<g id="枠">
</g>
<g id="国旗">
	<g>
		<g>
			<rect x="25.51" y="60" fill="#C8152A" width="113.39" height="75.59"/>
			<rect x="25.51" y="97.8" fill="#FFFFFF" width="113.39" height="5.4"/>
			<rect x="25.51" y="108.59" fill="#FFFFFF" width="113.39" height="5.4"/>
			<rect x="25.51" y="130.19" fill="#FFFFFF" width="113.39" height="5.4"/>
			<rect x="25.51" y="119.39" fill="#FFFFFF" width="113.39" height="5.4"/>
			<rect x="25.51" y="65.4" fill="#FFFFFF" width="113.39" height="5.4"/>
			<rect x="25.51" y="76.2" fill="#FFFFFF" width="113.39" height="5.4"/>
			<rect x="25.51" y="87" fill="#FFFFFF" width="113.39" height="5.4"/>
			<rect x="25.51" y="60" fill="#004876" width="56.69" height="43.19"/>
			<polygon fill="#F5CF21" points="61.84,75.71 63.19,69.78 64.53,75.71 68.32,70.95 66.96,76.87 72.44,74.23 68.63,78.98 
				74.73,78.97 69.23,81.6 74.73,84.23 68.63,84.22 72.44,88.96 66.96,86.32 68.32,92.24 64.53,87.49 63.19,93.41 61.84,87.49 
				58.05,92.24 59.42,86.32 53.93,88.96 57.74,84.22 51.65,84.23 57.15,81.6 51.65,78.97 57.74,78.98 53.93,74.23 59.42,76.87 
				58.05,70.95 			"/>
			<path fill="#F5CF21" d="M37.5,81.6c0-9.03,7.32-16.36,16.36-16.36c1.45,0,2.85,0.19,4.18,0.54c-2.7-1.57-5.84-2.48-9.18-2.48
				c-10.1,0-18.29,8.19-18.29,18.29c0,10.1,8.19,18.29,18.29,18.29c3.35,0,6.48-0.9,9.18-2.48c-1.34,0.35-2.74,0.54-4.18,0.54
				C44.83,97.95,37.5,90.63,37.5,81.6z"/>
		</g>
	</g>
</g>
<g id="ガイド" display="none">
</g>
</svg>
