<?xml version="1.0" encoding="utf-8"?>
<!-- Generator: Adobe Illustrator 25.4.1, SVG Export Plug-In . SVG Version: 6.00 Build 0)  -->
<svg version="1.1" xmlns="http://www.w3.org/2000/svg" xmlns:xlink="http://www.w3.org/1999/xlink" x="0px" y="0px"
	 viewBox="0 0 164.41 252.28" enable-background="new 0 0 164.41 252.28" xml:space="preserve">
<g id="地">
	<rect fill="#DCDDDD" width="164.41" height="252.28"/>
</g>
<g id="枠">
</g>
<g id="国旗">
	<g>
		<g>
			<rect x="25.51" y="60.01" fill="#147F49" width="113.39" height="75.59"/>
			<path fill="#F5CF21" d="M82.2,102.57c-12.57,0-23.13-8.59-26.14-20.22c-0.07,0.76-0.11,1.53-0.11,2.31
				c0,14.5,11.75,26.25,26.25,26.25c14.5,0,26.25-11.75,26.25-26.25c0-0.78-0.04-1.55-0.11-2.31
				C105.34,93.98,94.77,102.57,82.2,102.57z"/>
			<polygon fill="#F5CF21" points="82.2,74.4 84.34,80.97 91.25,80.97 85.66,85.03 87.8,91.6 82.2,87.54 76.61,91.6 78.75,85.03 
				73.16,80.97 80.07,80.97 			"/>
		</g>
	</g>
</g>
<g id="ガイド" display="none">
</g>
</svg>
