<?xml version="1.0" encoding="utf-8"?>
<!-- Generator: Adobe Illustrator 25.4.1, SVG Export Plug-In . SVG Version: 6.00 Build 0)  -->
<svg version="1.1" xmlns="http://www.w3.org/2000/svg" xmlns:xlink="http://www.w3.org/1999/xlink" x="0px" y="0px"
	 viewBox="0 0 164.41 252.28" enable-background="new 0 0 164.41 252.28" xml:space="preserve">
<g id="地">
	<rect fill="#DCDDDD" width="164.41" height="252.28"/>
</g>
<g id="枠">
</g>
<g id="国旗">
	<g>
		<g>
			<rect x="25.39" y="60" fill="#C8152A" width="113.39" height="75.59"/>
			<polygon fill="#147F49" stroke="#040000" points="82.08,81.9 85.39,92.1 96.12,92.1 87.44,98.4 90.76,108.6 82.08,102.3 
				73.4,108.6 76.72,98.4 68.04,92.1 78.77,92.1 			"/>
			<line fill="none" stroke="#040000" x1="85.39" y1="92.1" x2="83.54" y2="92.1"/>
			<line fill="none" stroke="#040000" x1="85.97" y1="93.86" x2="84.11" y2="93.86"/>
			<line fill="none" stroke="#040000" x1="80.62" y1="92.1" x2="80.05" y2="93.86"/>
			<line fill="none" stroke="#040000" x1="78.19" y1="93.86" x2="78.77" y2="92.1"/>
			<line fill="none" stroke="#040000" x1="77.29" y1="96.64" x2="78.79" y2="97.73"/>
			<line fill="none" stroke="#040000" x1="78.22" y1="99.49" x2="76.72" y2="98.4"/>
			<line fill="none" stroke="#040000" x1="80.58" y1="101.21" x2="82.08" y2="100.12"/>
			<line fill="none" stroke="#040000" x1="83.58" y1="101.21" x2="82.08" y2="102.3"/>
			<line fill="none" stroke="#040000" x1="85.37" y1="97.73" x2="85.94" y2="99.49"/>
			<line fill="none" stroke="#040000" x1="87.44" y1="98.4" x2="86.87" y2="96.64"/>
			<polygon fill="#C91623" stroke="#040000" points="78.22,99.49 76.76,103.98 80.58,101.21 			"/>
			<polygon fill="#C91623" stroke="#040000" points="90.69,93.86 85.97,93.86 86.87,96.64 			"/>
			<polygon fill="#C91623" stroke="#040000" points="73.47,93.86 77.29,96.64 78.19,93.86 			"/>
			<polygon fill="#C91623" stroke="#040000" points="82.08,87.61 80.62,92.1 83.54,92.1 			"/>
			<polygon fill="#C91623" stroke="#040000" points="83.58,101.21 87.4,103.98 85.94,99.49 			"/>
			<polygon fill="#C91623" stroke="#040000" points="82.08,100.12 85.37,97.73 84.11,93.86 80.05,93.86 78.79,97.73 			"/>
		</g>
	</g>
</g>
<g id="ガイド" display="none">
</g>
</svg>
