<?xml version="1.0" encoding="utf-8"?>
<!-- Generator: Adobe Illustrator 25.4.1, SVG Export Plug-In . SVG Version: 6.00 Build 0)  -->
<svg version="1.1" xmlns="http://www.w3.org/2000/svg" xmlns:xlink="http://www.w3.org/1999/xlink" x="0px" y="0px"
	 viewBox="0 0 164.41 252.28" enable-background="new 0 0 164.41 252.28" xml:space="preserve">
<g id="地">
	<rect fill="#DCDDDD" width="164.41" height="252.28"/>
</g>
<g id="枠">
</g>
<g id="国旗">
	<g>
		<g>
			<rect x="25.51" y="60" fill="#C8152A" width="113.39" height="75.59"/>
			<rect x="63.36" y="60" fill="#147EAB" width="37.69" height="75.59"/>
			<path fill="#F5CF21" d="M48.73,87.37c0,2.37-1.92,4.29-4.29,4.29c-2.37,0-4.29-1.92-4.29-4.29c0-2.37,1.92-4.29,4.29-4.29
				C46.81,83.08,48.73,85,48.73,87.37z"/>
			<rect x="50.99" y="95.08" fill="#F5CF21" width="4.15" height="28.49"/>
			<rect x="33.16" y="95.08" fill="#F5CF21" width="4.15" height="28.49"/>
			<rect x="39.62" y="100.16" fill="#F5CF21" width="9.64" height="3.15"/>
			<rect x="39.62" y="115.69" fill="#F5CF21" width="9.64" height="3.15"/>
			<polygon fill="#F5CF21" points="39.62,120.36 49.25,120.36 44.44,123.57 			"/>
			<polygon fill="#F5CF21" points="39.62,95.33 49.25,95.33 44.44,98.54 			"/>
			<path fill="#F5CF21" d="M44.44,94.21c-2.18,0-4.51-1.69-4.51-5.08c0,0,0.86,3.33,4.51,3.33c3.66,0,4.51-3.33,4.51-3.33
				C48.95,92.51,46.62,94.21,44.44,94.21z"/>
			<path fill="#F5CF21" d="M44.44,82.49c-1.07,0-1.94-0.87-1.94-1.94c0-0.26,0.05-0.51,0.15-0.74c0,0,0.02-0.03,0.02-0.05
				c0.48-0.97,0.78-2.29,0.78-4.55c0,0,0.3,1.52,0.55,1.52s0.44-1.69,0.44-1.69s0.19,1.69,0.44,1.69c0.25,0,0.55-1.52,0.55-1.52
				c0,2.26,0.3,3.58,0.78,4.55c0.01,0.01,0.02,0.05,0.02,0.05c0.09,0.23,0.15,0.48,0.15,0.74C46.38,81.62,45.51,82.49,44.44,82.49z"
				/>
			<path fill="#C8152A" d="M42.72,107.93c0,0.33-0.27,0.6-0.61,0.6c-0.33,0-0.61-0.27-0.61-0.6c0-0.33,0.27-0.6,0.61-0.6
				C42.45,107.33,42.72,107.6,42.72,107.93z"/>
			<path fill="#F5CF21" d="M43.36,111.14c0-0.68,0.21-1.28,0.6-1.78l0,0c0.31-0.39,0.49-0.89,0.49-1.43c0-1.29-1.04-2.33-2.33-2.33
				c-0.74,0-1.39,0.34-1.82,0.88c0,0-0.02,0.02-0.05,0.07c-0.04,0.06-0.09,0.12-0.12,0.19c-0.49,0.77-1.74,3.2,0.11,5.59
				c2.25,2.9,5.49,1.69,5.49,1.69C44.38,113.75,43.36,112.57,43.36,111.14z"/>
			<path fill="#C8152A" d="M42.72,107.93c0,0.33-0.27,0.6-0.61,0.6c-0.33,0-0.61-0.27-0.61-0.6c0-0.33,0.27-0.6,0.61-0.6
				C42.45,107.33,42.72,107.6,42.72,107.93z"/>
			<path fill="#C8152A" d="M45.45,111.23c0-0.33,0.27-0.6,0.61-0.6s0.61,0.27,0.61,0.6c0,0.33-0.27,0.6-0.61,0.6
				S45.45,111.56,45.45,111.23z"/>
			<path fill="#F5CF21" d="M44.82,108.02c0,0.68-0.21,1.28-0.6,1.78l0,0c-0.31,0.39-0.49,0.89-0.49,1.43c0,1.29,1.04,2.33,2.33,2.33
				c0.74,0,1.39-0.34,1.82-0.88c0,0,0.02-0.02,0.05-0.07c0.04-0.06,0.09-0.12,0.12-0.19c0.49-0.77,1.74-3.2-0.11-5.59
				c-2.25-2.9-5.49-1.69-5.49-1.69C43.8,105.41,44.82,106.6,44.82,108.02z"/>
			<path fill="#C8152A" d="M45.45,111.23c0-0.33,0.27-0.6,0.61-0.6s0.61,0.27,0.61,0.6c0,0.33-0.27,0.6-0.61,0.6
				S45.45,111.56,45.45,111.23z"/>
		</g>
	</g>
</g>
<g id="ガイド" display="none">
</g>
</svg>
