<?xml version="1.0" encoding="utf-8"?>
<!-- Generator: Adobe Illustrator 25.4.1, SVG Export Plug-In . SVG Version: 6.00 Build 0)  -->
<svg version="1.1" xmlns="http://www.w3.org/2000/svg" xmlns:xlink="http://www.w3.org/1999/xlink" x="0px" y="0px"
	 viewBox="0 0 164.41 252.28" enable-background="new 0 0 164.41 252.28" xml:space="preserve">
<g id="地">
	<rect fill="#DCDDDD" width="164.41" height="252.28"/>
</g>
<g id="枠">
</g>
<g id="国旗">
	<g>
		<g>
			<rect x="25.51" y="60.44" fill="#044F7F" width="113.39" height="75.59"/>
			<polygon fill="#FFFFFF" points="82.2,60.44 75.27,60.44 58.3,71.75 58.3,60.44 49.41,60.44 49.41,71.45 32.89,60.44 25.51,60.44 
				25.51,65.37 39.79,74.89 25.51,74.89 25.51,83.78 40.25,83.78 25.51,93.61 25.51,98.23 33.33,98.23 49.41,87.51 49.41,98.23 
				58.3,98.23 58.3,87.23 74.81,98.23 82.2,98.23 82.2,93.31 67.9,83.78 82.2,83.78 82.2,74.89 68.35,74.89 82.2,65.65 			"/>
			<polygon fill="#C8152A" points="82.2,76.82 56.37,76.82 56.37,60.44 51.35,60.44 51.35,76.82 25.51,76.82 25.51,81.85 
				51.35,81.85 51.35,98.23 56.37,98.23 56.37,81.85 82.2,81.85 			"/>
			<polygon fill="#C8152A" points="25.51,60.44 25.51,63.53 42.47,74.83 47.1,74.83 			"/>
			<polygon fill="#C8152A" points="82.2,95.14 65.24,83.84 60.61,83.84 82.2,98.23 			"/>
			<polygon fill="#C8152A" points="58.3,74.83 58.3,73.29 77.57,60.44 82.2,60.44 60.61,74.83 			"/>
			<polygon fill="#C8152A" points="47.1,83.84 25.51,98.23 30.14,98.23 49.41,85.39 49.41,83.84 			"/>
			<polygon fill="#FFFFFF" points="100.7,83.97 101.93,87.75 105.91,87.75 102.69,90.09 103.92,93.88 100.7,91.54 97.48,93.88 
				98.71,90.09 95.49,87.75 99.47,87.75 			"/>
			<polygon fill="#C8152A" points="102.82,92.36 101.04,91.07 100.7,90.82 100.36,91.07 98.59,92.36 99.27,90.27 99.4,89.87 
				99.05,89.62 97.28,88.34 99.47,88.34 99.9,88.34 100.03,87.93 100.7,85.85 101.38,87.93 101.51,88.34 101.93,88.34 104.13,88.34 
				102.35,89.62 102.01,89.87 102.14,90.27 			"/>
			<polygon fill="#FFFFFF" points="110.87,70.63 112.1,74.41 116.08,74.41 112.86,76.75 114.09,80.54 110.87,78.2 107.65,80.54 
				108.88,76.75 105.66,74.41 109.64,74.41 			"/>
			<polygon fill="#C8152A" points="112.99,79.02 111.21,77.73 110.87,77.48 110.53,77.73 108.75,79.02 109.43,76.93 109.56,76.53 
				109.22,76.28 107.44,74.99 109.64,74.99 110.06,74.99 110.19,74.59 110.87,72.51 111.55,74.59 111.68,74.99 112.1,74.99 
				114.29,74.99 112.52,76.28 112.18,76.53 112.31,76.93 			"/>
			<polygon fill="#FFFFFF" points="110.87,115.87 112.1,119.66 116.08,119.66 112.86,122 114.09,125.78 110.87,123.44 
				107.65,125.78 108.88,122 105.66,119.66 109.64,119.66 			"/>
			<polygon fill="#C8152A" points="112.99,124.27 111.21,122.97 110.87,122.73 110.53,122.97 108.75,124.27 109.43,122.18 
				109.56,121.78 109.22,121.53 107.44,120.24 109.64,120.24 110.06,120.24 110.19,119.84 110.87,117.75 111.55,119.84 
				111.68,120.24 112.1,120.24 114.29,120.24 112.52,121.53 112.18,121.78 112.31,122.18 			"/>
			<polygon fill="#FFFFFF" points="123.84,81.89 124.92,85.2 128.4,85.2 125.58,87.24 126.66,90.55 123.84,88.5 121.03,90.55 
				122.11,87.24 119.29,85.2 122.77,85.2 			"/>
			<polygon fill="#C8152A" points="122.13,89.03 122.66,87.42 122.79,87.02 122.45,86.77 121.08,85.78 122.77,85.78 123.19,85.78 
				123.32,85.38 123.84,83.77 124.37,85.38 124.5,85.78 124.92,85.78 126.61,85.78 125.24,86.77 124.9,87.02 125.03,87.42 
				125.55,89.03 124.18,88.04 123.84,87.79 123.5,88.04 			"/>
		</g>
	</g>
</g>
<g id="ガイド" display="none">
</g>
</svg>
