<?xml version="1.0" encoding="utf-8"?>
<!-- Generator: Adobe Illustrator 25.4.1, SVG Export Plug-In . SVG Version: 6.00 Build 0)  -->
<svg version="1.1" xmlns="http://www.w3.org/2000/svg" xmlns:xlink="http://www.w3.org/1999/xlink" x="0px" y="0px"
	 viewBox="0 0 164.41 252.28" enable-background="new 0 0 164.41 252.28" xml:space="preserve">
<g id="地">
	<rect fill="#DCDDDD" width="164.41" height="252.28"/>
</g>
<g id="枠">
</g>
<g id="国旗">
	<g>
		<g>
			<rect x="25.51" y="60" fill="#004876" width="113.39" height="75.59"/>
			<path fill="#F5CF21" d="M55.9,82.65c1.28-1.28-3.76,0.09-4.53,0.47l-1.94-1.79c0-0.02-0.32-1.18-0.32-2.59l0,0
				c0-0.7,0.07-1.22,0.31-1.65l0,0c0.24-0.44,0.63-0.72,1.11-0.96l0,0c0.98-0.5,2.17-0.79,4.04-0.78l0,0c0.99,0,1.94,0.26,2.68,0.79
				l0,0c0.74,0.52,1.24,1.35,1.24,2.38l0,0c0,0.27,0,0.51,0,0.74l0,0c0.03,1.28-0.17,2.17-1.55,3.46l0,0l-0.54,0.33L55.9,82.65z"/>
			<rect x="25.51" y="97.8" fill="#B31D2A" width="113.39" height="37.8"/>
			<path fill="#F5CF21" d="M48.74,76.23c0,0.37-0.3,0.68-0.68,0.68c-0.37,0-0.68-0.3-0.68-0.68c0-0.37,0.3-0.68,0.68-0.68
				C48.43,75.55,48.74,75.85,48.74,76.23z"/>
			<path fill="#F5CF21" d="M48.74,78.06c0,0.37-0.3,0.68-0.68,0.68c-0.37,0-0.68-0.3-0.68-0.68c0-0.37,0.3-0.68,0.68-0.68
				C48.43,77.39,48.74,77.69,48.74,78.06z"/>
			<path fill="#F5CF21" d="M48.74,79.9c0,0.37-0.3,0.68-0.68,0.68c-0.37,0-0.68-0.3-0.68-0.68c0-0.37,0.3-0.68,0.68-0.68
				C48.43,79.22,48.74,79.53,48.74,79.9z"/>
			<path fill="#F5CF21" d="M50.36,75.6c0,0.37-0.3,0.68-0.68,0.68c-0.37,0-0.68-0.3-0.68-0.68c0-0.37,0.3-0.68,0.68-0.68
				C50.06,74.92,50.36,75.22,50.36,75.6z"/>
			<path fill="#F5CF21" d="M52.07,74.97c0,0.37-0.3,0.68-0.68,0.68c-0.37,0-0.68-0.3-0.68-0.68c0-0.37,0.3-0.68,0.68-0.68
				C51.77,74.29,52.07,74.6,52.07,74.97z"/>
			<path fill="#F5CF21" d="M53.89,74.63c0,0.37-0.3,0.68-0.68,0.68c-0.37,0-0.68-0.3-0.68-0.68c0-0.37,0.3-0.68,0.68-0.68
				C53.59,73.96,53.89,74.26,53.89,74.63z"/>
			<path fill="#F5CF21" d="M55.63,74.49c0,0.37-0.3,0.68-0.68,0.68c-0.37,0-0.68-0.3-0.68-0.68c0-0.37,0.3-0.68,0.68-0.68
				C55.33,73.81,55.63,74.11,55.63,74.49z"/>
			<path fill="#F5CF21" d="M57.42,74.87c0,0.37-0.3,0.68-0.68,0.68s-0.68-0.3-0.68-0.68c0-0.37,0.3-0.68,0.68-0.68
				S57.42,74.5,57.42,74.87z"/>
			<path fill="#F5CF21" d="M58.92,75.89c0,0.37-0.3,0.68-0.68,0.68c-0.37,0-0.68-0.3-0.68-0.68c0-0.37,0.3-0.68,0.68-0.68
				C58.61,75.21,58.92,75.51,58.92,75.89z"/>
			<path fill="#F5CF21" d="M59.83,77.53c0,0.37-0.3,0.68-0.68,0.68c-0.37,0-0.68-0.3-0.68-0.68c0-0.37,0.3-0.68,0.68-0.68
				C59.53,76.85,59.83,77.16,59.83,77.53z"/>
			<path fill="#F5CF21" d="M59.83,79.32c0,0.37-0.3,0.68-0.68,0.68c-0.37,0-0.68-0.3-0.68-0.68c0-0.37,0.3-0.68,0.68-0.68
				C59.53,78.64,59.83,78.95,59.83,79.32z"/>
			<path fill="#F5CF21" d="M59.54,81.06c0,0.37-0.3,0.68-0.68,0.68c-0.37,0-0.68-0.3-0.68-0.68c0-0.37,0.3-0.68,0.68-0.68
				C59.24,80.38,59.54,80.69,59.54,81.06z"/>
			<path fill="none" stroke="#004876" stroke-width="1.0229" d="M49.79,81.18c-0.06-0.25-0.29-1.26-0.29-2.43
				c0-1.34,0.29-1.81,1.21-2.27c0.92-0.46,2.03-0.74,3.87-0.74s3.53,0.97,3.53,2.78c0,1.81,0.14,2.41-1.43,3.92"/>
			<path fill="#F5CF21" d="M48.63,72c0,0.32-0.26,0.58-0.57,0.58c-0.32,0-0.58-0.26-0.58-0.58s0.26-0.58,0.58-0.58
				C48.38,71.43,48.63,71.68,48.63,72z"/>
			<path fill="#F5CF21" d="M48.63,69.58c0,0.32-0.26,0.57-0.57,0.57c-0.32,0-0.58-0.26-0.58-0.57c0-0.32,0.26-0.58,0.58-0.58
				C48.38,69.01,48.63,69.26,48.63,69.58z"/>
			<path fill="#F5CF21" d="M48.63,70.76c0,0.32-0.26,0.58-0.57,0.58c-0.32,0-0.58-0.26-0.58-0.58c0-0.32,0.26-0.58,0.58-0.58
				C48.38,70.19,48.63,70.45,48.63,70.76z"/>
			<path fill="#F5CF21" d="M49.82,70.76c0,0.32-0.26,0.58-0.58,0.58c-0.32,0-0.57-0.26-0.57-0.58c0-0.32,0.26-0.58,0.57-0.58
				C49.56,70.19,49.82,70.45,49.82,70.76z"/>
			<path fill="#F5CF21" d="M40.22,82.65c-1.28-1.28,3.76,0.09,4.53,0.47l1.94-1.79c0-0.02,0.32-1.18,0.32-2.59l0,0
				c0-0.7-0.07-1.22-0.31-1.65l0,0c-0.24-0.44-0.63-0.72-1.11-0.96l0,0c-0.98-0.5-2.17-0.79-4.04-0.78l0,0
				c-0.99,0-1.94,0.26-2.68,0.79l0,0c-0.74,0.52-1.24,1.35-1.24,2.38l0,0c0,0.27,0,0.51,0,0.74l0,0c-0.03,1.28,0.17,2.17,1.55,3.46
				l0,0l0.54,0.33L40.22,82.65z"/>
			<path fill="#F5CF21" d="M45.76,75.6c0,0.37,0.3,0.68,0.68,0.68c0.37,0,0.68-0.3,0.68-0.68c0-0.37-0.3-0.68-0.68-0.68
				C46.06,74.92,45.76,75.22,45.76,75.6z"/>
			<path fill="#F5CF21" d="M44.05,74.97c0,0.37,0.3,0.68,0.68,0.68c0.37,0,0.68-0.3,0.68-0.68c0-0.37-0.3-0.68-0.68-0.68
				C44.35,74.29,44.05,74.6,44.05,74.97z"/>
			<path fill="#F5CF21" d="M42.23,74.63c0,0.37,0.3,0.68,0.68,0.68s0.68-0.3,0.68-0.68c0-0.37-0.3-0.68-0.68-0.68
				S42.23,74.26,42.23,74.63z"/>
			<path fill="#F5CF21" d="M40.49,74.49c0,0.37,0.3,0.68,0.68,0.68c0.37,0,0.68-0.3,0.68-0.68c0-0.37-0.3-0.68-0.68-0.68
				C40.79,73.81,40.49,74.11,40.49,74.49z"/>
			<path fill="#F5CF21" d="M38.7,74.87c0,0.37,0.3,0.68,0.68,0.68c0.37,0,0.68-0.3,0.68-0.68c0-0.37-0.3-0.68-0.68-0.68
				C39,74.2,38.7,74.5,38.7,74.87z"/>
			<path fill="#F5CF21" d="M37.2,75.89c0,0.37,0.3,0.68,0.68,0.68c0.37,0,0.68-0.3,0.68-0.68c0-0.37-0.3-0.68-0.68-0.68
				C37.51,75.21,37.2,75.51,37.2,75.89z"/>
			<path fill="#F5CF21" d="M36.28,77.53c0,0.37,0.3,0.68,0.68,0.68c0.37,0,0.68-0.3,0.68-0.68c0-0.37-0.3-0.68-0.68-0.68
				C36.59,76.85,36.28,77.16,36.28,77.53z"/>
			<path fill="#F5CF21" d="M36.28,79.32c0,0.37,0.3,0.68,0.68,0.68c0.37,0,0.68-0.3,0.68-0.68c0-0.37-0.3-0.68-0.68-0.68
				C36.59,78.64,36.28,78.95,36.28,79.32z"/>
			<path fill="#F5CF21" d="M36.57,81.06c0,0.37,0.3,0.68,0.68,0.68s0.68-0.3,0.68-0.68c0-0.37-0.3-0.68-0.68-0.68
				S36.57,80.69,36.57,81.06z"/>
			<path fill="none" stroke="#004876" stroke-width="1.0229" d="M46.33,81.18c0.06-0.25,0.29-1.26,0.29-2.43
				c0-1.34-0.29-1.81-1.21-2.27c-0.92-0.46-2.03-0.74-3.87-0.74c-1.84,0-3.53,0.97-3.53,2.78c0,1.81-0.14,2.41,1.43,3.92"/>
			<path fill="#F5CF21" d="M46.3,70.76c0,0.32,0.26,0.58,0.58,0.58c0.32,0,0.57-0.26,0.57-0.58c0-0.32-0.26-0.58-0.57-0.58
				C46.56,70.19,46.3,70.45,46.3,70.76z"/>
			<path fill="#F5CF21" d="M48.06,74.92c0,0-1.09-0.05-1.09-0.58c0-0.1,0-0.21,0.01-0.32h2.17c0.01,0.11,0.01,0.22,0.01,0.32
				C49.15,74.87,48.06,74.92,48.06,74.92z"/>
			<path fill="#F5CF21" d="M46.99,73.83c0.07-0.47,0.29-0.96,1.07-1.11c0.77,0.15,1,0.65,1.07,1.11H46.99z"/>
			<path fill="#F5CF21" stroke="#004876" stroke-width="1.0229" d="M48.05,88.23c0,0-0.27-0.02-0.75-0.02
				c-1.35,0-4.38,0.12-7.84,1.01c0.49,0.67,1.41,1.05,3.49,1.16c3.87,0.19,5.11,0.14,5.11,0.14s1.24,0.05,5.11-0.14
				c2.08-0.1,3-0.49,3.49-1.16c-3.46-0.89-6.49-1.01-7.84-1.01C48.33,88.22,48.07,88.23,48.05,88.23z"/>
			<path fill="#F5CF21" stroke="#004876" stroke-width="1.0229" d="M48.05,88.04c0,0,0.27-0.02,0.76-0.02
				c1.37,0,4.44,0.12,7.95,1.03c0.33-0.56,0.43-1.29,0.66-2.2c0.53-2.17,2.42-4.45,2.42-4.45s-1.69-0.48-2.95,0.24
				c-1.64-1.74-4.11-1.93-5.65-0.48c-1.26-1.45-3.17-1.26-3.17-1.26s-1.92-0.19-3.17,1.26c-1.55-1.45-4.01-1.26-5.65,0.48
				c-1.26-0.72-2.95-0.24-2.95-0.24s1.88,2.27,2.42,4.45c0.22,0.91,0.33,1.64,0.66,2.2c3.51-0.91,6.58-1.03,7.95-1.03
				C47.79,88.02,48.06,88.04,48.05,88.04z"/>
			<path fill="#004876" d="M53.05,84.58c0,0,0.08-1.96-0.08-2.38c0,0,0.91-0.26,1.44,0.68C54.41,82.88,53.46,83.48,53.05,84.58z"/>
			<path fill="#004876" d="M57.39,84.65c0,0,0.08-1.25-0.08-1.59c0,0,0.91,0.08,1.02,0.64C58.34,83.71,57.54,84.31,57.39,84.65z"/>
			<path fill="#004876" d="M48.06,84.39c0-1.47-0.84-2.38-0.84-2.38c0.4-0.4,0.84-0.26,0.84-0.26s0.44-0.13,0.84,0.26
				C48.89,82.01,48.06,82.91,48.06,84.39z"/>
			<path fill="#004876" d="M43.07,84.58c0,0-0.08-1.96,0.08-2.38c0,0-0.91-0.26-1.43,0.68C41.71,82.88,42.65,83.48,43.07,84.58z"/>
			<path fill="#004876" d="M38.73,84.65c0,0-0.08-1.25,0.08-1.59c0,0-0.91,0.08-1.02,0.64C37.78,83.71,38.58,84.31,38.73,84.65z"/>
		</g>
	</g>
</g>
<g id="ガイド" display="none">
</g>
</svg>
