<?xml version="1.0" encoding="utf-8"?>
<!-- Generator: Adobe Illustrator 25.4.1, SVG Export Plug-In . SVG Version: 6.00 Build 0)  -->
<svg version="1.1" xmlns="http://www.w3.org/2000/svg" xmlns:xlink="http://www.w3.org/1999/xlink" x="0px" y="0px"
	 viewBox="0 0 164.41 252.28" enable-background="new 0 0 164.41 252.28" xml:space="preserve">
<g id="地">
	<rect fill="#DCDDDD" width="164.41" height="252.28"/>
</g>
<g id="枠">
</g>
<g id="国旗">
	<g>
		<g>
			<rect x="25.51" y="60" fill="#044F7F" width="113.39" height="75.59"/>
			<polygon fill="#FFFFFF" points="138.9,60 125.02,60 91.09,82.62 91.09,60 73.32,60 73.32,82.03 40.27,60 25.51,60 25.51,69.87 
				54.08,88.91 25.51,88.91 25.51,106.68 55,106.68 25.51,126.34 25.51,135.59 41.16,135.59 73.32,114.15 73.32,135.59 
				91.09,135.59 91.09,113.59 124.1,135.59 138.9,135.59 138.9,125.75 110.29,106.68 138.9,106.68 138.9,88.91 111.18,88.91 
				138.9,70.43 			"/>
			<polygon fill="#C8152A" points="138.9,92.78 87.22,92.78 87.22,60 77.18,60 77.18,92.78 25.51,92.78 25.51,102.82 77.18,102.82 
				77.18,135.59 87.22,135.59 87.22,102.82 138.9,102.82 			"/>
			<polygon fill="#C8152A" points="25.51,60 25.51,66.18 59.43,88.79 68.7,88.79 			"/>
			<polygon fill="#C8152A" points="138.9,129.41 104.98,106.8 95.71,106.8 138.9,135.59 			"/>
			<polygon fill="#C8152A" points="91.09,88.79 91.09,85.7 129.63,60 138.9,60 95.71,88.79 			"/>
			<polygon fill="#C8152A" points="68.7,106.8 25.51,135.59 34.78,135.59 73.32,109.9 73.32,106.8 			"/>
		</g>
	</g>
</g>
<g id="ガイド" display="none">
</g>
</svg>
