<?xml version="1.0" encoding="utf-8"?>
<!-- Generator: Adobe Illustrator 25.4.1, SVG Export Plug-In . SVG Version: 6.00 Build 0)  -->
<svg version="1.1" xmlns="http://www.w3.org/2000/svg" xmlns:xlink="http://www.w3.org/1999/xlink" x="0px" y="0px"
	 viewBox="0 0 164.41 252.28" enable-background="new 0 0 164.41 252.28" xml:space="preserve">
<g id="地">
	<rect fill="#DCDDDD" width="164.41" height="252.28"/>
</g>
<g id="枠">
</g>
<g id="国旗">
	<g>
		<g>
			<rect x="25.51" y="60" fill="#FFFFFF" width="113.39" height="75.59"/>
			<polygon fill="#147F49" points="138.9,135.59 138.9,82.64 59.46,135.59 			"/>
			<polygon fill="#035786" points="25.51,135.59 59.46,135.59 138.9,82.64 138.9,60 			"/>
			<path fill="#824938" d="M61.1,80.41c-1.43-2.02-4.03-3.18-6.26-3.83l2.81-5.21c0.33,0.11,0.69,0.18,1.06,0.18
				c1.83,0,3.31-1.48,3.31-3.31c0-1.83-1.48-3.31-3.31-3.31c-1.83,0-3.31,1.48-3.31,3.31c0,1.19,0.63,2.22,1.56,2.81l-2.87,5.33
				c-1.74-0.44-3.12-0.57-3.31-0.57c-0.46,0-0.8-0.88-0.8-1.08s0.77,0.03,0.77-4.08s-1.8-8.92-2.04-8.92s-2.04,4.82-2.04,8.92
				c0,4.1,0.77,3.88,0.77,4.08s-0.34,1.08-0.8,1.08c-0.19,0-1.58,0.13-3.31,0.57l-3.17-5.87c1.18-0.68,3.67-0.32,3.67-0.32
				l-7.9-5.88l1.61,9.71c0,0,0.82-2.38,1.97-3.12l3.06,5.68c-2.23,0.65-4.82,1.81-6.26,3.83c-2.77,3.91-3.84,9.07-3.84,11.34
				s1.83,1.7,2.52-0.38c0.69-2.08,2.77-7.18,5.23-7.18c2.46,0,3.46,1.89,3.46,3.09s-4.35,7.24-5.35,11.02
				c-1.01,3.78,0.63,2.39,1.32,2.08c0.25-0.11,0.99-0.52,2.01-0.99l-5.92,10.98l0.67,0.36L42.8,98.9c1.6-0.65,3.59-1.27,5.53-1.35
				v14.13h0.76V97.56c1.94,0.07,3.94,0.7,5.53,1.35l6.38,11.83l0.67-0.36l-5.92-10.98c1.03,0.47,1.76,0.88,2.02,0.99
				c0.69,0.32,2.33,1.7,1.32-2.08c-1.01-3.78-5.35-9.83-5.35-11.02s1.01-3.09,3.46-3.09s4.54,5.1,5.23,7.18
				c0.69,2.08,2.52,2.65,2.52,0.38S63.87,84.32,61.1,80.41z"/>
		</g>
	</g>
</g>
<g id="ガイド" display="none">
</g>
</svg>
