<?xml version="1.0" encoding="utf-8"?>
<!-- Generator: Adobe Illustrator 25.4.1, SVG Export Plug-In . SVG Version: 6.00 Build 0)  -->
<svg version="1.1" xmlns="http://www.w3.org/2000/svg" xmlns:xlink="http://www.w3.org/1999/xlink" x="0px" y="0px"
	 viewBox="0 0 164.41 252.28" enable-background="new 0 0 164.41 252.28" xml:space="preserve">
<g id="地">
	<rect fill="#DCDDDD" width="164.41" height="252.28"/>
</g>
<g id="枠">
</g>
<g id="国旗">
	<g>
		<g>
			<rect x="25.51" y="60" fill="#FFFFFF" width="113.39" height="75.59"/>
			<path fill="#00477E" d="M91.26,91.68c-7.09,0-9.05,6.11-9.05,6.11s-1.96,6.11-9.05,6.11c-5.64,0-10.51-3.89-9.81-13.61
				c-0.92,2.32-1.44,4.85-1.44,7.5c0,11.21,9.09,20.3,20.3,20.3c8.56,0,15.88-5.3,18.86-12.8C101.77,95.57,96.89,91.68,91.26,91.68z
				"/>
			<path fill="#C8152A" d="M82.2,77.5c-8.56,0-15.88,5.3-18.86,12.8c-0.7,9.72,4.17,13.61,9.81,13.61c7.09,0,9.05-6.11,9.05-6.11
				s1.96-6.11,9.05-6.11c5.64,0,10.51,3.89,9.81,13.61c0.92-2.32,1.44-4.85,1.44-7.5C102.5,86.58,93.42,77.5,82.2,77.5z"/>
			
				<rect x="46.97" y="79.93" transform="matrix(0.5618 -0.8273 0.8273 0.5618 -42.6806 82.1588)" fill="#040000" width="18.48" height="2.88"/>
			
				<rect x="43.17" y="77.09" transform="matrix(0.5618 -0.8273 0.8273 0.5618 -41.9991 77.7679)" fill="#040000" width="18.48" height="2.88"/>
			
				<rect x="39.36" y="74.25" transform="matrix(0.5618 -0.8273 0.8273 0.5618 -41.3176 73.3767)" fill="#040000" width="18.48" height="2.88"/>
			
				<rect x="109.91" y="68.75" transform="matrix(0.8297 -0.5582 0.5582 0.8297 -24.5727 75.436)" fill="#040000" width="2.88" height="18.48"/>
			
				<rect x="54.77" y="104.17" transform="matrix(0.8273 -0.5618 0.5618 0.8273 -54.0023 51.1616)" fill="#040000" width="2.88" height="18.48"/>
			
				<rect x="47.16" y="109.85" transform="matrix(0.8273 -0.5618 0.5618 0.8273 -58.506 47.8688)" fill="#040000" width="2.88" height="18.48"/>
			<polygon fill="#040000" points="103.33,71.99 100.94,73.6 105.59,80.51 107.97,78.88 			"/>
			<polygon fill="#040000" points="111.26,88.93 113.65,87.32 109.27,80.82 106.89,82.44 			"/>
			<polygon fill="#040000" points="111.43,67.05 109.04,68.66 113.42,75.16 115.8,73.54 			"/>
			<polygon fill="#040000" points="119.36,83.99 121.75,82.38 117.1,75.47 114.72,77.1 			"/>
			<polygon fill="#040000" points="48.41,107.8 46.02,109.41 50.57,116.11 52.93,114.46 			"/>
			<polygon fill="#040000" points="51.88,118.04 56.4,124.7 58.79,123.09 54.24,116.39 			"/>
			<polygon fill="#040000" points="113.65,107.45 111.26,105.84 106.92,112.29 109.29,113.93 			"/>
			<polygon fill="#040000" points="100.94,121.18 103.33,122.79 107.98,115.87 105.62,114.22 			"/>
			<polygon fill="#040000" points="117.7,109.92 115.31,108.32 110.81,115 113.18,116.64 			"/>
			<polygon fill="#040000" points="104.99,123.65 107.38,125.26 111.88,118.58 109.51,116.93 			"/>
			<polygon fill="#040000" points="121.75,112.4 119.36,110.79 114.71,117.7 117.07,119.35 			"/>
			<polygon fill="#040000" points="109.04,126.12 111.43,127.73 115.77,121.28 113.4,119.64 			"/>
		</g>
	</g>
</g>
<g id="ガイド" display="none">
</g>
</svg>
