<?xml version="1.0" encoding="utf-8"?>
<!-- Generator: Adobe Illustrator 25.4.1, SVG Export Plug-In . SVG Version: 6.00 Build 0)  -->
<svg version="1.1" xmlns="http://www.w3.org/2000/svg" xmlns:xlink="http://www.w3.org/1999/xlink" x="0px" y="0px"
	 viewBox="0 0 164.41 252.28" enable-background="new 0 0 164.41 252.28" xml:space="preserve">
<g id="地">
	<rect fill="#DCDDDD" width="164.41" height="252.28"/>
</g>
<g id="枠">
</g>
<g id="国旗">
	<g>
		<g>
			<rect x="25.51" y="59.94" fill="#E71F38" width="113.39" height="75.59"/>
			<polygon fill="#F5CF21" points="42.85,67.92 45.49,76.06 54.06,76.06 47.13,81.1 49.78,89.24 42.85,84.21 35.92,89.24 
				38.57,81.1 31.64,76.06 40.2,76.06 			"/>
			<polygon fill="#F5CF21" points="60.94,63.73 61.1,66.47 63.75,67.16 61.2,68.16 61.36,70.9 59.62,68.78 57.07,69.78 58.55,67.47 
				56.81,65.35 59.46,66.04 			"/>
			<polygon fill="#F5CF21" points="70.27,71.97 69.16,74.48 71.21,76.31 68.48,76.03 67.37,78.54 66.79,75.86 64.07,75.58 
				66.44,74.2 65.86,71.52 67.9,73.35 			"/>
			<polygon fill="#F5CF21" points="67.67,81.23 68.52,83.84 71.26,83.84 69.04,85.45 69.88,88.06 67.67,86.45 65.45,88.06 
				66.3,85.45 64.08,83.84 66.82,83.84 			"/>
			<polygon fill="#F5CF21" points="61.61,89.47 61.27,92.19 63.75,93.36 61.05,93.88 60.7,96.6 59.39,94.19 56.69,94.7 58.57,92.71 
				57.25,90.3 59.73,91.47 			"/>
		</g>
	</g>
</g>
<g id="ガイド" display="none">
</g>
</svg>
