<?xml version="1.0" encoding="utf-8"?>
<!-- Generator: Adobe Illustrator 25.4.1, SVG Export Plug-In . SVG Version: 6.00 Build 0)  -->
<svg version="1.1" xmlns="http://www.w3.org/2000/svg" xmlns:xlink="http://www.w3.org/1999/xlink" x="0px" y="0px"
	 viewBox="0 0 164.41 252.28" enable-background="new 0 0 164.41 252.28" xml:space="preserve">
<g id="地">
	<rect fill="#DCDDDD" width="164.41" height="252.28"/>
</g>
<g id="枠">
</g>
<g id="国旗">
	<g>
		<g>
			<rect x="25.51" y="60" fill="#0F669C" width="113.39" height="75.59"/>
			<rect x="25.51" y="72.37" fill="#FFFFFF" width="113.39" height="50.86"/>
			<rect x="25.51" y="76.04" fill="#C01734" width="113.39" height="43.52"/>
			<path fill="#FFFFFF" d="M70.93,97.8c0,9.73-7.89,17.63-17.63,17.63c-9.73,0-17.63-7.89-17.63-17.63
				c0-9.73,7.89-17.63,17.63-17.63C63.04,80.17,70.93,88.06,70.93,97.8z"/>
			<polygon fill="#C01734" points="53.31,83.5 56.52,93.38 66.9,93.38 58.5,99.48 61.71,109.36 53.31,103.26 44.91,109.36 
				48.12,99.48 39.72,93.38 50.1,93.38 			"/>
		</g>
	</g>
</g>
<g id="ガイド" display="none">
</g>
</svg>
