<?xml version="1.0" encoding="utf-8"?>
<!-- Generator: Adobe Illustrator 25.4.1, SVG Export Plug-In . SVG Version: 6.00 Build 0)  -->
<svg version="1.1" xmlns="http://www.w3.org/2000/svg" xmlns:xlink="http://www.w3.org/1999/xlink" x="0px" y="0px"
	 viewBox="0 0 164.41 252.28" enable-background="new 0 0 164.41 252.28" xml:space="preserve">
<g id="地">
	<rect fill="#DCDDDD" width="164.41" height="252.28"/>
</g>
<g id="枠">
</g>
<g id="国旗">
	<g>
		<g>
			<rect x="25.51" y="59.94" fill="#147F49" width="113.37" height="75.59"/>
			<polygon fill="#C8152A" points="138.89,85.13 138.89,59.94 46.82,59.94 84.3,85.13 			"/>
			<polygon fill="#FFFFFF" points="84.3,85.13 46.82,59.94 38.81,59.94 84.3,90.52 138.89,90.52 138.89,85.13 			"/>
			<polygon fill="#004876" points="138.89,110.37 138.87,135.56 46.81,135.49 84.31,110.33 			"/>
			<polygon fill="#FFFFFF" points="84.31,110.33 46.81,135.49 38.8,135.49 84.31,104.94 138.9,104.98 138.89,110.37 			"/>
			<polygon fill="#F5CF21" points="25.51,69.09 68.41,97.73 25.51,126.37 			"/>
			<polyline fill="#040000" points="25.51,120.84 25.51,74.62 60.13,97.73 			"/>
		</g>
	</g>
</g>
<g id="ガイド" display="none">
</g>
</svg>
