<?xml version="1.0" encoding="utf-8"?>
<!-- Generator: Adobe Illustrator 25.4.1, SVG Export Plug-In . SVG Version: 6.00 Build 0)  -->
<svg version="1.1" xmlns="http://www.w3.org/2000/svg" xmlns:xlink="http://www.w3.org/1999/xlink" x="0px" y="0px"
	 viewBox="0 0 164.41 252.28" enable-background="new 0 0 164.41 252.28" xml:space="preserve">
<g id="地">
	<rect fill="#DCDDDD" width="164.41" height="252.28"/>
</g>
<g id="枠">
</g>
<g id="国旗">
	<g>
		<rect x="25.42" y="60.19" fill="#FFFFFF" width="113.39" height="75.59"/>
		<rect x="25.42" y="110.58" fill="#97B623" width="113.39" height="25.2"/>
		<rect x="25.42" y="60.19" fill="#28AAD7" width="113.39" height="25.2"/>
		<rect x="25.42" y="108.51" fill="#C8152A" width="113.39" height="2.07"/>
		<rect x="25.42" y="85.39" fill="#C8152A" width="113.39" height="2.08"/>
		<path fill="#FFFFFF" d="M36.86,72.86c0-4.69,3.8-8.5,8.5-8.5c1.21,0,2.36,0.26,3.41,0.71c-1.73-1.41-3.94-2.26-6.34-2.26
			c-5.55,0-10.04,4.5-10.04,10.04c0,5.55,4.5,10.04,10.04,10.04c2.41,0,4.61-0.85,6.34-2.26c-1.04,0.46-2.19,0.71-3.41,0.71
			C40.66,81.35,36.86,77.55,36.86,72.86z"/>
		<polygon fill="#FFFFFF" points="66.98,64.22 67.38,65.46 68.68,65.46 67.63,66.23 68.03,67.46 66.98,66.7 65.92,67.46 
			66.33,66.23 65.27,65.46 66.57,65.46 		"/>
		<polygon fill="#FFFFFF" points="73.38,64.22 73.78,65.46 75.08,65.46 74.03,66.23 74.43,67.46 73.38,66.7 72.32,67.46 
			72.73,66.23 71.67,65.46 72.97,65.46 		"/>
		<polygon fill="#FFFFFF" points="79.77,64.22 80.18,65.46 81.48,65.46 80.43,66.23 80.83,67.46 79.77,66.7 78.72,67.46 
			79.12,66.23 78.07,65.46 79.37,65.46 		"/>
		<polygon fill="#FFFFFF" points="66.98,71.35 67.38,72.59 68.68,72.59 67.63,73.35 68.03,74.59 66.98,73.82 65.92,74.59 
			66.33,73.35 65.27,72.59 66.57,72.59 		"/>
		<polygon fill="#FFFFFF" points="73.38,71.35 73.78,72.59 75.08,72.59 74.03,73.35 74.43,74.59 73.38,73.82 72.32,74.59 
			72.73,73.35 71.67,72.59 72.97,72.59 		"/>
		<polygon fill="#FFFFFF" points="60.58,71.35 60.98,72.59 62.28,72.59 61.23,73.35 61.63,74.59 60.58,73.82 59.52,74.59 
			59.93,73.35 58.87,72.59 60.18,72.59 		"/>
		<polygon fill="#FFFFFF" points="79.77,71.35 80.18,72.59 81.48,72.59 80.43,73.35 80.83,74.59 79.77,73.82 78.72,74.59 
			79.12,73.35 78.07,72.59 79.37,72.59 		"/>
		<polygon fill="#FFFFFF" points="66.98,78.48 67.38,79.71 68.68,79.71 67.63,80.48 68.03,81.71 66.98,80.95 65.92,81.71 
			66.33,80.48 65.27,79.71 66.57,79.71 		"/>
		<polygon fill="#FFFFFF" points="73.38,78.48 73.78,79.71 75.08,79.71 74.03,80.48 74.43,81.71 73.38,80.95 72.32,81.71 
			72.73,80.48 71.67,79.71 72.97,79.71 		"/>
		<polygon fill="#FFFFFF" points="79.77,78.48 80.18,79.71 81.48,79.71 80.43,80.48 80.83,81.71 79.77,80.95 78.72,81.71 
			79.12,80.48 78.07,79.71 79.37,79.71 		"/>
		<polygon fill="#FFFFFF" points="54.18,78.48 54.58,79.71 55.88,79.71 54.83,80.48 55.23,81.71 54.18,80.95 53.13,81.71 
			53.53,80.48 52.48,79.71 53.78,79.71 		"/>
		<polygon fill="#FFFFFF" points="60.58,78.48 60.98,79.71 62.28,79.71 61.23,80.48 61.63,81.71 60.58,80.95 59.52,81.71 
			59.93,80.48 58.87,79.71 60.18,79.71 		"/>
	</g>
</g>
<g id="ガイド" display="none">
</g>
</svg>
