<?xml version="1.0" encoding="utf-8"?>
<!-- Generator: Adobe Illustrator 25.4.1, SVG Export Plug-In . SVG Version: 6.00 Build 0)  -->
<svg version="1.1" xmlns="http://www.w3.org/2000/svg" xmlns:xlink="http://www.w3.org/1999/xlink" x="0px" y="0px"
	 viewBox="0 0 164.41 252.28" enable-background="new 0 0 164.41 252.28" xml:space="preserve">
<g id="地">
	<rect fill="#DCDDDD" width="164.41" height="252.28"/>
</g>
<g id="枠">
</g>
<g id="国旗">
	<g>
		<g>
			<rect x="25.43" y="60" fill="#FFFFFF" width="113.39" height="75.59"/>
			<rect x="25.43" y="60" fill="#C91623" width="113.39" height="25"/>
			<rect x="25.43" y="110.59" fill="#040000" width="113.39" height="25"/>
			<polygon fill="#0D7741" points="45.02,92.88 46.35,96.96 50.63,96.96 47.17,99.48 48.49,103.55 45.02,101.03 41.56,103.55 
				42.88,99.48 39.42,96.96 43.7,96.96 			"/>
			<polygon fill="#0D7741" points="82.58,92.88 83.9,96.96 88.18,96.96 84.72,99.48 86.04,103.55 82.58,101.03 79.11,103.55 
				80.43,99.48 76.97,96.96 81.25,96.96 			"/>
			<polygon fill="#0D7741" points="118.81,92.88 120.14,96.96 124.42,96.96 120.95,99.48 122.28,103.55 118.81,101.03 
				115.35,103.55 116.67,99.48 113.2,96.96 117.49,96.96 			"/>
			<path fill="#0D7741" d="M55.33,105.73c-1.04,0-2.13-0.15-2.17-0.16l0.01-0.38c0.42-0.03,1.98-0.67,7.36-5.82l0.05-0.05
				c0.28-0.27,0.55-0.4,0.83-0.4c0.59,0,1.12,0.56,1.93,1.42c0.17,0.19,0.36,0.38,0.57,0.59c0.45,0.46,0.67,0.53,0.76,0.53
				c0.04,0,0.06-0.01,0.09-0.04c0.27-0.27,0.27-1.48,0.27-2.77l0-0.37c0-2.57,0.19-3.26,1.15-4.09c0.88-0.76,5.57-4.32,5.77-4.48
				l0.29,0.25c-0.48,0.86-2.04,3.66-2.21,3.83c-0.07,0.07-0.26,0.18-0.85,0.51c-0.76,0.43-1.91,1.07-2.25,1.42
				c-0.45,0.45-0.44,3.94-0.43,5.08l0,0.38c0,0.92-0.35,3.13-1.2,3.13c-0.36,0-0.98-0.55-2.21-1.72c-0.6-0.57-1.42-1.35-1.63-1.38
				c-0.25,0.05-1.38,1.23-2.21,2.1c-0.94,0.98-1.83,1.91-2.27,2.15C56.66,105.65,56.12,105.73,55.33,105.73L55.33,105.73z"/>
			<polygon fill="#0D7741" points="61.71,105.5 60.55,104.56 61.74,103.22 62.79,104.06 			"/>
			<polygon fill="#0D7741" points="71.59,94.68 70.58,93.85 71.49,92.77 72.27,93.6 			"/>
			<polygon fill="#0D7741" points="70.74,105.08 70.74,95.85 72.46,93.87 72.46,103.37 			"/>
			<path fill="#0D7741" d="M102.18,90.61c0,0-0.08,1.57-1.09,1.57c-1.01,0-0.85-1.41-0.85-1.41s0.08,0.68,0.93,0.68
				C102.02,91.45,102.18,90.61,102.18,90.61z"/>
			<path fill="#0D7741" d="M101.14,90.32c-0.36,0-0.44-0.76-0.04-0.76C101.5,89.56,101.5,90.32,101.14,90.32z"/>
			<path fill="#0D7741" d="M108.2,104.74v-9.6l2.06-2.08c0,0-0.39,9.04-0.43,9.57C109.79,103.17,108.2,104.74,108.2,104.74
				L108.2,104.74z"/>
			<path fill="#0D7741" d="M105.04,95.08v6.88c0,0.7-0.39,1.42-1.26,1.42c-0.86,0-1.78-1.01-1.78-2.5v-8.43l-2.24,1.61v7.63
				c0,0.76-0.73,1.9-1.82,1.9c-1.12,0-1.44-0.37-1.44-1.66v-6.88c0,0-2.72,2.17-3.69,3.2c-0.7,0.75-1.64,2.3-1.34,3.21
				c0.18,0.53,0.6,0.82,1.19,0.82c1.1,0,1.83-0.51,2.22-0.91v2.08c0,0.75,1.1,1.8,2.89,1.8c1.45,0,2.68-1.36,3.14-1.95
				c0.32,0.61,1.18,1.91,2.82,1.91c2.17,0,3.35-2.18,3.35-3.29v-8.92L105.04,95.08z M95.09,99.58c0,0-1.65,1.29-1.65,0.24
				c0-1.05,1.65-1.77,1.65-1.77V99.58z"/>
		</g>
	</g>
</g>
<g id="ガイド" display="none">
</g>
</svg>
