<?xml version="1.0" encoding="utf-8"?>
<!-- Generator: Adobe Illustrator 25.4.1, SVG Export Plug-In . SVG Version: 6.00 Build 0)  -->
<svg version="1.1" xmlns="http://www.w3.org/2000/svg" xmlns:xlink="http://www.w3.org/1999/xlink" x="0px" y="0px"
	 viewBox="0 0 164.41 252.28" enable-background="new 0 0 164.41 252.28" xml:space="preserve">
<g id="地">
	<rect fill="#DCDDDD" width="164.41" height="252.28"/>
</g>
<g id="枠">
</g>
<g id="国旗">
	<g>
		<g>
			<rect x="25.41" y="60" fill="#044F7F" width="113.39" height="75.59"/>
			<polygon fill="#FFFFFF" points="82.1,60 75.16,60 58.2,71.31 58.2,60 49.31,60 49.31,71.02 32.79,60 25.41,60 25.41,64.93 
				39.69,74.45 25.41,74.45 25.41,83.34 40.15,83.34 25.41,93.17 25.41,97.8 33.23,97.8 49.31,87.07 49.31,97.8 58.2,97.8 
				58.2,86.79 74.7,97.8 82.1,97.8 82.1,92.88 67.8,83.34 82.1,83.34 82.1,74.45 68.24,74.45 82.1,65.21 			"/>
			<polygon fill="#FFFFFF" points="53.74,107.51 55.09,112.89 60.15,110.6 56.79,115.01 61.73,117.53 56.18,117.66 57.29,123.1 
				53.74,118.84 50.18,123.1 51.29,117.66 45.74,117.53 50.68,115.01 47.32,110.6 52.38,112.89 			"/>
			<polygon fill="#FFFFFF" points="97.21,88.01 97.9,90.76 100.49,89.59 98.77,91.85 101.3,93.14 98.46,93.21 99.03,95.99 
				97.21,93.81 95.38,95.99 95.95,93.21 93.11,93.14 95.64,91.85 93.92,89.59 96.51,90.76 			"/>
			<polygon fill="#FFFFFF" points="109.51,117.25 110.21,120.01 112.8,118.83 111.08,121.1 113.61,122.39 110.77,122.45 
				111.34,125.24 109.51,123.06 107.69,125.24 108.26,122.45 105.41,122.39 107.95,121.1 106.23,118.83 108.82,120.01 			"/>
			<polygon fill="#FFFFFF" points="110.89,66.78 111.58,69.54 114.17,68.37 112.45,70.63 114.98,71.92 112.14,71.99 112.71,74.77 
				110.89,72.59 109.06,74.77 109.63,71.99 106.79,71.92 109.32,70.63 107.6,68.37 110.19,69.54 			"/>
			<polygon fill="#FFFFFF" points="123.97,81.28 124.66,84.04 127.25,82.87 125.53,85.13 128.06,86.42 125.22,86.49 125.79,89.27 
				123.97,87.09 122.14,89.27 122.71,86.49 119.87,86.42 122.4,85.13 120.68,82.87 123.27,84.04 			"/>
			<polygon fill="#FFFFFF" points="117.73,100.65 118.24,102.23 119.9,102.23 118.56,103.21 119.07,104.79 117.73,103.81 
				116.38,104.79 116.9,103.21 115.55,102.23 117.22,102.23 			"/>
			<polygon fill="#C8152A" points="82.1,76.39 56.27,76.39 56.27,60 51.25,60 51.25,76.39 25.41,76.39 25.41,81.41 51.25,81.41 
				51.25,97.8 56.27,97.8 56.27,81.41 82.1,81.41 			"/>
			<polygon fill="#C8152A" points="25.41,60 25.41,63.09 42.37,74.4 47,74.4 			"/>
			<polygon fill="#C8152A" points="82.1,94.71 65.14,83.4 60.51,83.4 82.1,97.8 			"/>
			<polygon fill="#C8152A" points="58.2,74.4 58.2,72.85 77.47,60 82.1,60 60.51,74.4 			"/>
			<polygon fill="#C8152A" points="47,83.4 25.41,97.8 30.04,97.8 49.31,84.95 49.31,83.4 			"/>
		</g>
	</g>
</g>
<g id="ガイド" display="none">
</g>
</svg>
