<?xml version="1.0" encoding="utf-8"?>
<!-- Generator: Adobe Illustrator 25.4.1, SVG Export Plug-In . SVG Version: 6.00 Build 0)  -->
<svg version="1.1" xmlns="http://www.w3.org/2000/svg" xmlns:xlink="http://www.w3.org/1999/xlink" x="0px" y="0px"
	 viewBox="0 0 164.41 252.28" enable-background="new 0 0 164.41 252.28" xml:space="preserve">
<g id="地">
	<rect fill="#DCDDDD" width="164.41" height="252.28"/>
</g>
<g id="枠">
</g>
<g id="国旗">
	<g>
		<g>
			<rect x="25.51" y="60.03" fill="#FFFFFF" width="113.39" height="75.59"/>
			<rect x="25.51" y="103.87" fill="#C91623" width="113.39" height="6.43"/>
			<rect x="25.51" y="116.34" fill="#004876" width="113.39" height="19.28"/>
			<rect x="25.51" y="60.03" fill="#004876" width="113.39" height="37.8"/>
			<polygon fill="#F5A819" points="60.52,85.83 61.3,88.22 63.81,88.22 61.78,89.7 62.55,92.09 60.52,90.61 58.49,92.09 59.26,89.7 
				57.23,88.22 59.74,88.22 			"/>
			<polygon fill="#F5A819" points="60.52,122.15 61.3,124.54 63.81,124.54 61.78,126.02 62.55,128.41 60.52,126.93 58.49,128.41 
				59.26,126.02 57.23,124.54 59.74,124.54 			"/>
			<polygon fill="#F5A819" points="72.33,89.5 73.11,91.89 75.62,91.89 73.59,93.37 74.37,95.76 72.33,94.28 70.3,95.76 
				71.07,93.37 69.04,91.89 71.55,91.89 			"/>
			<polygon fill="#F5A819" points="72.33,117.14 73.11,119.53 75.62,119.53 73.59,121.01 74.37,123.4 72.33,121.92 70.3,123.4 
				71.07,121.01 69.04,119.53 71.55,119.53 			"/>
			<polygon fill="#F5A819" points="77.46,97.97 78.23,100.36 80.75,100.36 78.71,101.84 79.49,104.23 77.46,102.75 75.42,104.23 
				76.2,101.84 74.17,100.36 76.68,100.36 			"/>
			<polygon fill="#F5A819" points="77.46,110.56 78.23,112.95 80.75,112.95 78.71,114.43 79.49,116.82 77.46,115.34 75.42,116.82 
				76.2,114.43 74.17,112.95 76.68,112.95 			"/>
			<polygon fill="#F5A819" points="48.71,89.5 47.93,91.89 45.42,91.89 47.45,93.37 46.67,95.76 48.71,94.28 50.74,95.76 
				49.96,93.37 52,91.89 49.48,91.89 			"/>
			<polygon fill="#F5A819" points="48.71,117.14 47.93,119.53 45.42,119.53 47.45,121.01 46.67,123.4 48.71,121.92 50.74,123.4 
				49.96,121.01 52,119.53 49.48,119.53 			"/>
			<polygon fill="#F5A819" points="43.58,97.97 42.8,100.36 40.29,100.36 42.32,101.84 41.55,104.23 43.58,102.75 45.61,104.23 
				44.84,101.84 46.87,100.36 44.36,100.36 			"/>
			<polygon fill="#F5A819" points="43.58,110.56 42.8,112.95 40.29,112.95 42.32,114.43 41.55,116.82 43.58,115.34 45.61,116.82 
				44.84,114.43 46.87,112.95 44.36,112.95 			"/>
		</g>
	</g>
</g>
<g id="ガイド" display="none">
</g>
</svg>
