<?xml version="1.0" encoding="utf-8"?>
<!-- Generator: Adobe Illustrator 25.4.1, SVG Export Plug-In . SVG Version: 6.00 Build 0)  -->
<svg version="1.1" xmlns="http://www.w3.org/2000/svg" xmlns:xlink="http://www.w3.org/1999/xlink" x="0px" y="0px"
	 viewBox="0 0 164.41 252.28" enable-background="new 0 0 164.41 252.28" xml:space="preserve">
<g id="地">
	<rect fill="#DCDDDD" width="164.41" height="252.28"/>
</g>
<g id="枠">
</g>
<g id="国旗">
	<g>
		<g>
			<rect x="25.89" y="60.21" fill="#F5D021" width="113.33" height="75.55"/>
			<rect x="25.95" y="60.21" fill="#108148" width="113.33" height="25.18"/>
			<rect x="25.89" y="60.21" fill="#108148" width="113.33" height="25.18"/>
			<rect x="25.89" y="110.58" fill="#C81528" width="113.33" height="25.18"/>
			
				<ellipse transform="matrix(0.156 -0.9878 0.9878 0.156 -27.1068 164.2487)" fill="#0F80AF" cx="82.56" cy="97.99" rx="25.69" ry="25.69"/>
			<polygon fill="#F5D021" points="84.41,92.35 80.74,92.35 79.95,94.77 94.38,94.77 89.14,98.58 87.95,94.93 85.25,94.93 
				89.66,108.5 93.2,111.07 89.91,100.96 101.77,92.35 87.12,92.35 83.93,82.54 82.58,86.7 			"/>
			<polygon fill="#F5D021" points="76.03,98.6 78.06,100.08 83.85,82.28 82.59,78.41 78.06,92.35 63.41,92.35 66.75,94.77 
				77.27,94.77 			"/>
			<polygon fill="#F5D021" points="84.46,104.92 87.59,102.65 86.82,100.26 82.44,103.45 70.71,94.93 66.96,94.93 75.26,100.96 
				70.73,114.9 74.03,112.5 77.3,102.44 80.56,104.81 75.5,108.49 74.24,112.35 82.59,106.28 94.44,114.9 93.28,111.33 			"/>
			<polygon fill="#F5D021" points="83.13,118.94 82.59,118.94 82.05,118.94 81.86,108.58 83.32,108.58 			"/>
			<polygon fill="#F5D021" points="102.37,104.84 102.18,105.34 101.99,105.85 92.23,102.38 92.75,101.01 			"/>
			<polygon fill="#F5D021" points="94.51,80.76 94.94,81.08 95.38,81.4 89.4,89.86 88.22,89 			"/>
			<polygon fill="#F5D021" points="62.8,104.84 62.99,105.34 63.18,105.85 72.94,102.38 72.43,101.01 			"/>
			<polygon fill="#F5D021" points="70.67,80.76 70.23,81.08 69.79,81.4 75.77,89.86 76.95,89 			"/>
		</g>
	</g>
</g>
<g id="ガイド" display="none">
</g>
</svg>
