<?xml version="1.0" encoding="utf-8"?>
<!-- Generator: Adobe Illustrator 25.4.1, SVG Export Plug-In . SVG Version: 6.00 Build 0)  -->
<svg version="1.1" xmlns="http://www.w3.org/2000/svg" xmlns:xlink="http://www.w3.org/1999/xlink" x="0px" y="0px"
	 viewBox="0 0 164.41 252.28" enable-background="new 0 0 164.41 252.28" xml:space="preserve">
<g id="地">
	<rect fill="#DCDDDD" width="164.41" height="252.28"/>
</g>
<g id="枠">
</g>
<g id="国旗">
	<g>
		<g>
			<rect x="25.51" y="60.03" fill="#FFFFFF" width="113.39" height="75.59"/>
			<rect x="110.14" y="60.03" fill="#C91623" width="28.76" height="75.59"/>
			<rect x="25.51" y="60.03" fill="#C91623" width="28.76" height="75.59"/>
			<path fill="#C91623" d="M81.06,126.62c0,0,0.29-11.37,0.29-11.83c0-0.46-0.46-1.29-2.5-1.29c-2.04,0-14.49,1.71-14.49,1.71
				s3.46-4.75,3.5-5.62c0.04-0.87-9.87-11.16-9.87-11.16s3.42-1.58,3.54-2.04c0.12-0.46-2.46-9.25-2.46-9.25s6.08,1.29,6.75,1.29
				c0.67,0,1.86-3.47,1.86-3.47s4.25,5.17,5.46,6.48c1.14,1.23,1.4,0.16,1.28-0.54c-0.13-0.7-2.71-12.8-2.71-12.8
				s2.2,1.47,3.58,2.46c1.37,0.99,1.85,0.64,2.4-0.16c0.54-0.8,4.53-9.88,4.53-9.88s3.99,9.08,4.53,9.88
				c0.54,0.8,1.02,1.15,2.4,0.16c1.37-0.99,3.58-2.46,3.58-2.46s-2.59,12.1-2.71,12.8c-0.13,0.7,0.14,1.77,1.28,0.54
				c1.21-1.31,5.46-6.48,5.46-6.48s1.19,3.47,1.86,3.47s6.75-1.29,6.75-1.29s-2.58,8.79-2.46,9.25s3.54,2.04,3.54,2.04
				s-9.91,10.29-9.87,11.16c0.04,0.87,3.5,5.62,3.5,5.62s-12.45-1.71-14.49-1.71c-2.04,0-2.5,0.83-2.5,1.29
				c0,0.46,0.29,11.83,0.29,11.83H81.06z"/>
		</g>
	</g>
</g>
<g id="ガイド" display="none">
</g>
</svg>
