<?xml version="1.0" encoding="utf-8"?>
<!-- Generator: Adobe Illustrator 25.4.1, SVG Export Plug-In . SVG Version: 6.00 Build 0)  -->
<svg version="1.1" xmlns="http://www.w3.org/2000/svg" xmlns:xlink="http://www.w3.org/1999/xlink" x="0px" y="0px"
	 viewBox="0 0 164.41 252.28" enable-background="new 0 0 164.41 252.28" xml:space="preserve">
<g id="地">
	<rect fill="#DCDDDD" width="164.41" height="252.28"/>
</g>
<g id="枠">
</g>
<g id="国旗">
	<g>
		<g>
			<rect x="25.51" y="60" fill="#FFFFFF" width="113.39" height="75.59"/>
			<path fill="#F5A118" d="M112.59,72.23c0,0-4.26,3.91-5.35,5.14c-1.1,1.22-2.82,4.11-5.15,5.09c-2,0.84-4.06,1.42-4.96,1.64
				c-0.9,0.23-0.97,1.68,0.26,3.19c1.22,1.51,1.71,2.26,1.74,2.87c0.03,0.61,2.42,3.87,2.03,4.03c-0.39,0.16-3.93,0.48-4.64,0.29
				c-0.71-0.19-2.9-1.64-3.83-1.77c-0.93-0.13-2.9-0.16-3.13,1.64c-0.23,1.8-0.52,4.93-2.77,6.89c-2.26,1.97-5.41,3.51-9.6,3.54
				c-4.19,0.03-5.96,0.06-6.19,0.06c-0.23,0,0,1.97,0.06,2.13c0.06,0.16,0.26,0.58-0.23,0.52c-0.48-0.06-2.32-0.1-2.61-0.1
				c-0.29,0-0.84-2.38-2-2.87c-1.16-0.48-3.83-0.55-4.77-1c-0.93-0.45-3.7-2.13-5.32-5.32c-1.61-3.19-3.25-10.63-3.51-14.14
				c0,0,2.74,3.45,3.96,3.93c1.22,0.48,2.58,0.35,2.84,0c0.26-0.35,1.71-2.93,2.71-2.96c1-0.03,4.35,1.84,4.96,2.22
				c0.61,0.39,2.48-0.06,2.48-0.93c0-0.87-0.23-6.09-0.23-6.25c0-0.16,0.19-0.35,0.87,0.48c0.68,0.84,2.74,3.25,5.19,3.51
				c2.45,0.26,6.86,0.03,7.57-0.29c0.71-0.32,4.48-2.67,5.7-3.29c1.22-0.61,6.06-0.74,7.38-1.13
				C97.38,78.98,110.6,73.04,112.59,72.23z"/>
			<path fill="#247741" d="M84.51,117.1c0,0-0.45-3.15,1.3-3.85C85.81,113.25,86.56,116.85,84.51,117.1z"/>
			<path fill="#247741" d="M87.39,116.02c0,0-0.45-3.15,1.3-3.85C88.69,112.17,89.44,115.77,87.39,116.02z"/>
			<path fill="#247741" d="M89.74,114.9c0,0-0.45-3.15,1.3-3.85C91.04,111.05,91.79,114.65,89.74,114.9z"/>
			<path fill="#247741" d="M92.04,113.85c0,0-0.45-3.15,1.3-3.85C93.34,110,94.09,113.6,92.04,113.85z"/>
			<path fill="#247741" d="M84.86,117.5c0,0,0.77,1.82,3.73,1.82C88.59,119.32,87.16,117.02,84.86,117.5z"/>
			<path fill="#247741" d="M87.81,116.41c0,0,0.77,1.82,3.72,1.82C91.53,118.23,90.11,115.94,87.81,116.41z"/>
			<path fill="#247741" d="M90.21,115.17c0,0,0.46,1.64,3.73,1.48C93.94,116.64,92.28,114.64,90.21,115.17z"/>
			<path fill="#247741" d="M92.61,114.32c0,0,1.35-1.22,3.63,0.2C96.24,114.52,94.08,115.68,92.61,114.32z"/>
			<path fill="#247741" d="M94.39,112.22c0,0,0.18-2.65,2.58-3.38C96.96,108.84,96.56,111.92,94.39,112.22z"/>
			<path fill="#247741" d="M79.79,119.38c-0.78,0.02-4.02,2.29-4.02,2.29l-0.23-0.13c0.87-0.95,3.53-2.38,3.53-2.38l-1.78-0.95
				c-1.4,2.13-3.43,1.93-3.43,1.93c0.22-1.57,3.07-2.26,3.07-2.26c-1.12-1.28-0.54-3.79-0.54-3.79c2.1,1.55,0.95,3.74,0.95,3.74
				l2.44,1.16l2.44-1.16c0,0-1.15-2.19,0.95-3.74c0,0,0.58,2.51-0.54,3.79c0,0,2.84,0.69,3.07,2.26c0,0-2.03,0.2-3.43-1.93
				l-1.77,0.95c0,0,2.65,1.43,3.53,2.38l-0.22,0.13C83.81,121.67,80.57,119.4,79.79,119.38z"/>
			<path fill="#247741" d="M75.08,117.1c0,0,0.45-3.15-1.3-3.85C73.78,113.25,73.03,116.85,75.08,117.1z"/>
			<path fill="#247741" d="M72.2,116.02c0,0,0.45-3.15-1.3-3.85C70.9,112.17,70.15,115.77,72.2,116.02z"/>
			<path fill="#247741" d="M69.85,114.9c0,0,0.45-3.15-1.3-3.85C68.55,111.05,67.8,114.65,69.85,114.9z"/>
			<path fill="#247741" d="M67.55,113.85c0,0,0.45-3.15-1.3-3.85C66.25,110,65.5,113.6,67.55,113.85z"/>
			<path fill="#247741" d="M74.73,117.5c0,0-0.77,1.82-3.72,1.82C71,119.32,72.42,117.02,74.73,117.5z"/>
			<path fill="#247741" d="M71.78,116.41c0,0-0.77,1.82-3.72,1.82C68.06,118.23,69.48,115.94,71.78,116.41z"/>
			<path fill="#247741" d="M69.38,115.17c0,0-0.46,1.64-3.73,1.48C65.65,116.64,67.31,114.64,69.38,115.17z"/>
			<path fill="#247741" d="M66.98,114.32c0,0-1.35-1.22-3.63,0.2C63.35,114.52,65.51,115.68,66.98,114.32z"/>
			<path fill="#247741" d="M65.2,112.22c0,0-0.18-2.65-2.58-3.38C62.63,108.84,63.03,111.92,65.2,112.22z"/>
		</g>
	</g>
</g>
<g id="ガイド" display="none">
</g>
</svg>
