<?xml version="1.0" encoding="utf-8"?>
<!-- Generator: Adobe Illustrator 25.4.1, SVG Export Plug-In . SVG Version: 6.00 Build 0)  -->
<svg version="1.1" xmlns="http://www.w3.org/2000/svg" xmlns:xlink="http://www.w3.org/1999/xlink" x="0px" y="0px"
	 viewBox="0 0 164.41 252.28" enable-background="new 0 0 164.41 252.28" xml:space="preserve">
<g id="地">
	<rect fill="#DCDDDD" width="164.41" height="252.28"/>
</g>
<g id="枠">
</g>
<g id="国旗">
	<g>
		<g>
			<rect x="25.51" y="60" fill="#C91623" width="113.39" height="75.59"/>
			<rect x="25.51" y="60" fill="#00477E" width="113.39" height="25.2"/>
			<rect x="25.51" y="110.39" fill="#147F49" width="113.39" height="25.2"/>
			<path fill="#FFFFFF" d="M71.77,97.8c0-5.76,4.67-10.43,10.43-10.43c1.05,0,2.06,0.16,3.02,0.45c-1.74-1.04-3.77-1.63-5.94-1.63
				c-6.42,0-11.62,5.2-11.62,11.62c0,6.42,5.2,11.62,11.62,11.62c2.17,0,4.2-0.6,5.94-1.63c-0.96,0.29-1.97,0.45-3.02,0.45
				C76.44,108.23,71.77,103.56,71.77,97.8z"/>
			<polygon fill="#FFFFFF" points="91.02,92.8 92.17,94.87 94.44,94.22 93.79,96.49 95.86,97.64 93.79,98.79 94.44,101.07 
				92.17,100.41 91.02,102.48 89.87,100.41 87.59,101.07 88.25,98.79 86.18,97.64 88.25,96.49 87.59,94.22 89.87,94.87 			"/>
		</g>
	</g>
</g>
<g id="ガイド" display="none">
</g>
</svg>
