<?xml version="1.0" encoding="utf-8"?>
<!-- Generator: Adobe Illustrator 25.4.1, SVG Export Plug-In . SVG Version: 6.00 Build 0)  -->
<svg version="1.1" xmlns="http://www.w3.org/2000/svg" xmlns:xlink="http://www.w3.org/1999/xlink" x="0px" y="0px"
	 viewBox="0 0 164.41 252.28" enable-background="new 0 0 164.41 252.28" xml:space="preserve">
<g id="地">
	<rect fill="#DCDDDD" width="164.41" height="252.28"/>
</g>
<g id="枠">
</g>
<g id="国旗">
	<g>
		<g>
			<rect x="26.02" y="60" fill="#FFFFFF" width="113.39" height="75.59"/>
			<polygon fill="#D9202E" points="139.4,90.24 90.27,90.24 90.27,60 75.15,60 75.15,90.24 26.02,90.24 26.02,105.35 75.15,105.35 
				75.15,135.59 90.27,135.59 90.27,105.35 139.4,105.35 			"/>
			<path fill="#D9202E" d="M50.62,82.25c-0.57,0-1.45,0.01-2.54,0.16c0.54-2.79,0.63-5.4,0.63-5.4s-2.61,0.09-5.4,0.63
				c0.14-1.09,0.16-1.86,0.16-2.54c0-0.68-0.01-1.45-0.16-2.54c2.79,0.54,5.4,0.63,5.4,0.63s-0.09-2.61-0.63-5.4
				c1.09,0.14,1.99,0.16,2.54,0.16c0.55,0,1.45-0.01,2.54-0.16c-0.54,2.79-0.63,5.4-0.63,5.4s2.61-0.09,5.4-0.63
				c-0.14,1.09-0.16,1.86-0.16,2.54c0,0.68,0.01,1.45,0.16,2.54c-2.79-0.54-5.4-0.63-5.4-0.63s0.09,2.61,0.63,5.4
				C52.07,82.26,51.19,82.25,50.62,82.25z"/>
			<path fill="#D9202E" d="M114.8,82.25c0.57,0,1.45,0.01,2.54,0.16c-0.54-2.79-0.63-5.4-0.63-5.4s2.61,0.09,5.4,0.63
				c-0.14-1.09-0.16-1.86-0.16-2.54c0-0.68,0.01-1.45,0.16-2.54c-2.79,0.54-5.4,0.63-5.4,0.63s0.09-2.61,0.63-5.4
				c-1.09,0.14-1.99,0.16-2.54,0.16c-0.55,0-1.45-0.01-2.54-0.16c0.54,2.79,0.63,5.4,0.63,5.4s-2.61-0.09-5.4-0.63
				c0.14,1.09,0.16,1.86,0.16,2.54c0,0.68-0.01,1.45-0.16,2.54c2.79-0.54,5.4-0.63,5.4-0.63s-0.09,2.61-0.63,5.4
				C113.34,82.26,114.23,82.25,114.8,82.25z"/>
			<path fill="#D9202E" d="M50.62,113.34c-0.57,0-1.45-0.01-2.54-0.16c0.54,2.79,0.63,5.4,0.63,5.4s-2.61-0.09-5.4-0.63
				c0.14,1.09,0.16,1.86,0.16,2.54c0,0.68-0.01,1.45-0.16,2.54c2.79-0.54,5.4-0.63,5.4-0.63s-0.09,2.61-0.63,5.4
				c1.09-0.14,1.99-0.16,2.54-0.16c0.55,0,1.45,0.01,2.54,0.16c-0.54-2.79-0.63-5.4-0.63-5.4s2.61,0.09,5.4,0.63
				c-0.14-1.09-0.16-1.86-0.16-2.54c0-0.68,0.01-1.45,0.16-2.54c-2.79,0.54-5.4,0.63-5.4,0.63s0.09-2.61,0.63-5.4
				C52.07,113.33,51.19,113.34,50.62,113.34z"/>
			<path fill="#D9202E" d="M114.8,113.34c0.57,0,1.45-0.01,2.54-0.16c-0.54,2.79-0.63,5.4-0.63,5.4s2.61-0.09,5.4-0.63
				c-0.14,1.09-0.16,1.86-0.16,2.54c0,0.68,0.01,1.45,0.16,2.54c-2.79-0.54-5.4-0.63-5.4-0.63s0.09,2.61,0.63,5.4
				c-1.09-0.14-1.99-0.16-2.54-0.16c-0.55,0-1.45,0.01-2.54,0.16c0.54-2.79,0.63-5.4,0.63-5.4s-2.61,0.09-5.4,0.63
				c0.14-1.09,0.16-1.86,0.16-2.54c0-0.68-0.01-1.45-0.16-2.54c2.79,0.54,5.4,0.63,5.4,0.63s-0.09-2.61-0.63-5.4
				C113.34,113.33,114.23,113.34,114.8,113.34z"/>
		</g>
	</g>
</g>
<g id="ガイド" display="none">
</g>
</svg>
