<?xml version="1.0" encoding="utf-8"?>
<!-- Generator: Adobe Illustrator 25.4.1, SVG Export Plug-In . SVG Version: 6.00 Build 0)  -->
<svg version="1.1" xmlns="http://www.w3.org/2000/svg" xmlns:xlink="http://www.w3.org/1999/xlink" x="0px" y="0px"
	 viewBox="0 0 164.41 252.28" enable-background="new 0 0 164.41 252.28" xml:space="preserve">
<g id="地">
	<rect fill="#DCDDDD" width="164.41" height="252.28"/>
</g>
<g id="枠">
</g>
<g id="国旗">
	<g>
		<g>
			<rect x="25.51" y="60" fill="#C8152A" width="113.39" height="75.59"/>
			<polygon fill="#F5CF21" points="130.67,68.19 33.74,68.19 82.2,97.8 			"/>
			<polygon fill="#147F49" points="33.74,68.19 33.74,127.4 82.2,97.8 			"/>
			<path fill="#040000" d="M39.83,96.32l2.47,1.09c0.71,1.51,0.88,2.76,0.88,2.76s-1.22-0.34-2.61-1.26L39.83,96.32z"/>
			<polygon fill="#F5CF21" points="33.74,127.4 130.67,127.4 82.2,97.8 			"/>
			<polygon fill="#147F49" points="82.2,97.8 130.67,127.4 130.67,68.19 			"/>
			<path fill="#C8152A" d="M88.18,97.8c0,3.3-2.67,5.97-5.97,5.97s-5.97-2.67-5.97-5.97c0-3.3,2.67-5.97,5.97-5.97
				S88.18,94.5,88.18,97.8z"/>
			<polygon fill="#F5CF21" points="82.2,93.86 83.09,96.57 85.94,96.57 83.63,98.25 84.51,100.96 82.2,99.29 79.9,100.96 
				80.78,98.25 78.47,96.57 81.32,96.57 			"/>
			<polygon fill="#F5CF21" points="57.59,61.09 58.31,63.3 60.63,63.3 58.75,64.66 59.47,66.87 57.59,65.51 55.71,66.87 
				56.43,64.66 54.55,63.3 56.88,63.3 			"/>
			<polygon fill="#F5CF21" points="82.2,61.09 82.92,63.3 85.24,63.3 83.37,64.66 84.08,66.87 82.2,65.51 80.33,66.87 81.04,64.66 
				79.17,63.3 81.49,63.3 			"/>
			<polygon fill="#F5CF21" points="106.82,61.09 107.53,63.3 109.86,63.3 107.98,64.66 108.7,66.87 106.82,65.51 104.94,66.87 
				105.66,64.66 103.78,63.3 106.1,63.3 			"/>
			<polygon fill="#F5CF21" points="57.59,128.67 58.31,130.87 60.63,130.87 58.75,132.24 59.47,134.45 57.59,133.08 55.71,134.45 
				56.43,132.24 54.55,130.87 56.88,130.87 			"/>
			<polygon fill="#F5CF21" points="82.2,128.67 82.92,130.87 85.24,130.87 83.37,132.24 84.08,134.45 82.2,133.08 80.33,134.45 
				81.04,132.24 79.17,130.87 81.49,130.87 			"/>
			<polygon fill="#F5CF21" points="106.82,128.67 107.53,130.87 109.86,130.87 107.98,132.24 108.7,134.45 106.82,133.08 
				104.94,134.45 105.66,132.24 103.78,130.87 106.1,130.87 			"/>
			<path fill="#F5CF21" d="M37.28,93.39c0,0,4.97,0.37,6.3,4.57c0,0-1.18-0.7-3.2-0.99c0,2.03,0.53,3.3,0.53,3.3
				C36.95,98.36,37.28,93.39,37.28,93.39z"/>
			<path fill="#D0102A" d="M41.62,97.22c0.37,0.87,0.68,1.95,0.68,1.95s-1.03-0.46-1.83-0.94l-0.35-1.57L41.62,97.22z"/>
		</g>
	</g>
</g>
<g id="ガイド" display="none">
</g>
</svg>
