<?xml version="1.0" encoding="utf-8"?>
<!-- Generator: Adobe Illustrator 25.4.1, SVG Export Plug-In . SVG Version: 6.00 Build 0)  -->
<svg version="1.1" xmlns="http://www.w3.org/2000/svg" xmlns:xlink="http://www.w3.org/1999/xlink" x="0px" y="0px"
	 viewBox="0 0 164.41 252.28" enable-background="new 0 0 164.41 252.28" xml:space="preserve">
<g id="地">
	<rect fill="#DCDDDD" width="164.41" height="252.28"/>
</g>
<g id="枠">
</g>
<g id="国旗">
	<g>
		<g>
			<rect x="25.51" y="60" fill="#114D96" width="113.39" height="75.59"/>
			<polygon fill="#EFEA3C" points="82.2,78.06 86.95,92.67 102.31,92.67 89.88,101.69 94.63,116.3 82.2,107.27 69.78,116.3 
				74.53,101.69 62.1,92.67 77.46,92.67 			"/>
			<polygon fill="#EFEA3C" points="39.48,64.28 40.56,67.61 44.06,67.61 41.23,69.66 42.31,72.99 39.48,70.93 36.65,72.99 
				37.73,69.66 34.9,67.61 38.4,67.61 			"/>
			<polygon fill="#EFEA3C" points="39.48,87.71 40.56,91.04 44.06,91.04 41.23,93.1 42.31,96.43 39.48,94.37 36.65,96.43 
				37.73,93.1 34.9,91.04 38.4,91.04 			"/>
			<polygon fill="#EFEA3C" points="39.48,99.43 40.56,102.76 44.06,102.76 41.23,104.82 42.31,108.14 39.48,106.09 36.65,108.14 
				37.73,104.82 34.9,102.76 38.4,102.76 			"/>
			<polygon fill="#EFEA3C" points="39.48,111.15 40.56,114.48 44.06,114.48 41.23,116.53 42.31,119.86 39.48,117.8 36.65,119.86 
				37.73,116.53 34.9,114.48 38.4,114.48 			"/>
			<polygon fill="#EFEA3C" points="39.48,122.87 40.56,126.19 44.06,126.19 41.23,128.25 42.31,131.58 39.48,129.52 36.65,131.58 
				37.73,128.25 34.9,126.19 38.4,126.19 			"/>
			<polygon fill="#EFEA3C" points="39.48,76 40.56,79.32 44.06,79.32 41.23,81.38 42.31,84.71 39.48,82.65 36.65,84.71 37.73,81.38 
				34.9,79.32 38.4,79.32 			"/>
		</g>
	</g>
</g>
<g id="ガイド" display="none">
</g>
</svg>
