<?xml version="1.0" encoding="utf-8"?>
<!-- Generator: Adobe Illustrator 25.4.1, SVG Export Plug-In . SVG Version: 6.00 Build 0)  -->
<svg version="1.1" xmlns="http://www.w3.org/2000/svg" xmlns:xlink="http://www.w3.org/1999/xlink" x="0px" y="0px"
	 viewBox="0 0 164.41 252.28" enable-background="new 0 0 164.41 252.28" xml:space="preserve">
<g id="地">
	<rect fill="#DCDDDD" width="164.41" height="252.28"/>
</g>
<g id="枠">
</g>
<g id="国旗">
	<g>
		<g>
			<rect x="25.51" y="60" fill="#147F49" width="113.39" height="75.59"/>
			<path fill="#FFFFFF" d="M56.67,77.58c-0.34-0.04-0.94,0.94-0.72,1.88c0.22,0.94,0.68,5.58,0.68,5.58s-0.46,0.16-0.63-0.19
				c-0.26-0.55-0.77-1.06-0.77-2.03c0-0.97,0.51-0.92,0.05-1.45c-0.46-0.53-1.01,0.6-1.3,1.28c-0.29,0.68-0.82,2.42-1.35,2.42
				c-0.53,0-1.18-1.09-1.3-2.05c-0.12-0.97-0.29-0.17-0.31,0.14c-0.02,0.31-0.02,3.62,1.18,3.75c1.21,0.12,1.79-2.15,1.86-2.68
				c0.07-0.53,0.36-1.01,0.36-0.17s0.87,2.63,2.37,2.61c0,0,0.82,5.34,0.82,5.87c0,0.53,0.72,0.19,0.8-1.09
				c0.07-1.28-0.39-5.11-0.39-5.11s0.5-0.69,0.97-0.86c0.59-0.22,0.87,1.26,1.81,1.14c0.94-0.12,1.57-1.35,1.64-2.22
				c0.07-0.87-0.68-1.91-0.53-2.59c0.15-0.68,0.48-0.43,0.48-0.8s-0.56-1.55-1.04-1.55c-0.48,0-0.99,0.72-0.99,1.21
				c0,0.48,1.23,3.36,1.21,3.82c-0.02,0.46-0.24,0.63-0.68,0.12c-0.43-0.51-1.69-3.38-1.74-4.08c-0.05-0.7-0.27-0.77-0.53-0.43
				c-0.27,0.34-0.68,0.85-0.6,1.4c0.07,0.56,0.68,1.43,0.56,2.1c-0.12,0.68-0.86,0.93-0.86,0.93s-0.59-3.32-0.44-4
				c0.14-0.68,0.58-0.24,0.58-0.6C57.83,79.56,57.1,77.63,56.67,77.58z"/>
			<path fill="#FFFFFF" d="M52.46,77.93c-0.36-0.02,0,1.24,0.19,1.47c0.19,0.23,0.27,1.08,0.27,1.34c0,0.26,0.6-0.63,0.68-1.35
				C53.68,78.66,52.79,77.95,52.46,77.93z"/>
			<path fill="#FFFFFF" d="M60.49,77.79c-0.26-0.01-0.29,0.31-0.45,0.29c-0.16-0.02-0.39-0.42-0.45-0.39
				c-0.06,0.03-0.05,0.77-0.35,0.69c-0.31-0.08-0.43-0.19-0.48-0.1c-0.05,0.1-0.15,1.1,0.79,1C60.48,79.19,60.96,77.81,60.49,77.79z
				"/>
			<path fill="#FFFFFF" d="M56.13,87.99c-0.32-0.22-1.51,0.29-2.32,0.63c-0.81,0.34-2.22,1.59-1.88,1.84
				c0.34,0.24,0.61-0.55,2.3-1.16C55.92,88.68,56.89,88.5,56.13,87.99z"/>
			<path fill="#FFFFFF" d="M54.08,95.91c-0.02-0.14-1.08,0.08-1.14-0.26c-0.06-0.34,0.15-2.26-0.14-2.29
				c-0.29-0.03-0.72,2.24-0.71,3.09c0.02,0.85,0.31,1.5,0.97,1.43C53.71,97.83,54.28,97.02,54.08,95.91z"/>
			<path fill="#FFFFFF" d="M55.44,91.32c-0.19,0-1,2.64-1,4.32c0,1.68,0.58,3.54,3.45,3.45c2.87-0.1,7.06-3.03,7.06-5.48
				c0-2.45,0-4.25,0-4.25s0.32-0.29,0.48-0.29c0.16,0,0.32,1.1,0.84,1.06c0.52-0.03,1.48-1.29,1.48-1.29s0.77,1.32,1.48,1.26
				c0.71-0.06,1.03-0.74,1.03-1.35c0-0.61-0.26-2-0.55-1.97c-0.29,0.03-0.58,1.42-0.81,1.42c-0.23,0-0.48-1.26-0.74-1.26
				c-0.26,0-0.52,1.48-1.16,1.26c-0.64-0.23-0.32-1.35-0.55-1.39c-0.23-0.03-1.32,1.51-1.64,1.1c0,0-0.13-3.06-0.23-3.93
				c-0.1-0.87-0.29-2.58-0.29-2.58s0.77-0.52,0.61-0.87c-0.16-0.35-1.03-2.19-1.32-2.48c-0.29-0.29-1.19,0.68-1.03,1.64
				c0.16,0.97,1.35,7.31,1.22,8.8c0,0-0.93,0.71-1.19,0.19c-0.26-0.52-0.74-1.48-1.51-1.48c-0.77,0-1.64,1.71-1.64,2.35
				c0,0.64,0.58,1.48,2.67,1.32c0,0-2.22,3.09-3.8,3.09c-1.58,0-1.61-2.77-1.61-2.77s-0.84,0.64-0.84,2.09s0.32,2.55,1.97,2.51
				c1.64-0.03,5.38-2.61,5.54-5.44l0.45-0.32c0,0,0,2.8,0,3.48c0,0.68-2.64,3.58-6.09,3.58C54.28,97.09,55.44,91.32,55.44,91.32z"/>
			<path fill="#FFFFFF" d="M69.1,79.88c0,0-2.67,2.58-3,2.67c-0.32,0.1,1.29,0.06,1.8-0.23c0.52-0.29,2.42-1.58,2.42-2.61
				c0-1.03-0.06-1.8-0.84-1.77c-0.77,0.03-1.03,0.58-1.03,1C68.45,79.37,69.1,79.88,69.1,79.88z"/>
			<path fill="#FFFFFF" d="M68.52,82.98c0,0-0.58,0.55-0.58,1.45c0,0.9,0.55,1.16,1,1.1c0.45-0.06,1.26-0.97,0.81-1.35
				c-0.45-0.39-0.93,0.06-0.93,0.06S68.45,84.27,68.52,82.98z"/>
			<path fill="#FFFFFF" d="M66.42,95.09c0,0,1.13-0.93,1.13-1.93c0-1-0.35-1.19-0.35-0.87s-0.64,0.55-0.64-0.1
				c0-0.64,0.74-0.93,1.06-0.93c0.32,0,0.68,0.16,0.68,1.39C68.29,93.87,66.42,95.09,66.42,95.09z"/>
			<path fill="#FFFFFF" d="M72.13,79.72c0,0-0.93,1.77-0.93,2.96c0,1.19,0.19,2.74,1.35,2.74s1.51-1.93,1.77-2.77
				c0.26-0.84,0.74-1.26,0.87-1.13c0.13,0.13,0.23,0.84-0.03,1.22c-0.26,0.39-0.16,2.84,1.55,2.84c1.71,0,2.64-1.84,2.64-1.84
				s0.29,1.71,2.16,1.71c1.87,0,2.19-1.68,2.19-2.38c0-0.71-0.51-2.32-0.45-2.61c0.06-0.29,0.74,0.1,0.77-0.13
				c0.03-0.23-1.39-2.51-1.64-2.84c-0.26-0.32-0.93,0.87-0.93,1.58s1.22,3,1.13,3.51c-0.1,0.52-0.55,0.87-1.06,0.87
				c-0.52,0-1.06-1.22-1.22-2.03c-0.16-0.81-0.48-3.54-0.58-3.67c-0.1-0.13-0.87,1-0.87,1.26c0,0.26,0.23,0.71,0.23,1.1
				c0,0.39,0,1.97-0.03,2.19c-0.03,0.23-1.51,1.42-2.09,1.45c-0.58,0.03-0.97-0.97-0.87-1.84c0.1-0.87,0.1-2.58-0.19-2.61
				c-0.29-0.03-1.55,1.55-2.06,2.48c-0.52,0.93-0.71,1.77-1.1,1.77c-0.41,0-0.9-0.11-0.87-1.26C71.87,81.14,72.13,79.72,72.13,79.72
				z"/>
			<path fill="#FFFFFF" d="M73.03,78.3c0,0-0.06,1.42,0.16,1.42c0.23,0,0.74-0.39,0.58-0.68C73.61,78.76,73.06,78.01,73.03,78.3z"/>
			<path fill="#FFFFFF" d="M77.15,77.63c-0.64,0.42,0.39,1.32,0.42,1.58c0.03,0.26-0.06,0.84-0.06,0.84s0.81-0.39,0.68-1.19
				C78.05,78.05,77.64,77.31,77.15,77.63z"/>
			<path fill="#FFFFFF" d="M69.29,92.13c0,0-1.32,0.93-1.1,3.16c0,0-5.54,2.96-5.99,3.13c-0.45,0.16-0.26,0.39,0.35,0.45
				c0.61,0.06,2.61-0.32,5.77-1.93c0,0,0.13,2.06,2.26,2.06c2.13,0,4.74-2.06,5.22-3.74c0,0,1.4,3.41,6.96,3.64
				c0.51,0.02,0.39-1.97,0-2.06c-0.44-0.1-2.48-0.35-2.42-1.35c0.06-1,6.12-2.42,6.51-2.71c0.39-0.29,1.58-1.35-0.32-1.35
				s-5.48,0-5.96,0c-0.48,0-0.06-0.61,0.45-0.81c0.52-0.19,3.22-0.68,3.87-1.03c0.64-0.35,1.06-0.84,1.06-1.71s-1.29-1.97-2.71-1.93
				c-1.42,0.03-2.13,1.45-2.16,2.03c-0.03,0.58-0.1,1.13-0.77,1.19c-0.68,0.06-1.42,0.87-2.06,1.61c-0.64,0.74-1.16,1.61-0.77,1.61
				s3.13,0,3.54,0c0.42,0,0.06,0.61-0.32,0.61s-1.61,0.97-1.61,2.64c0,0-3.35-3.03-3.93-9.09c0,0-1.32,1.64-1.32,1.87
				c0,0.23,1,3.9,1.55,5.38c0,0-1.39,2.38-2.67,3c-1.29,0.61-2.87,0.64-3.13-0.39c0,0,2-1.61,2.84-2.61c0.84-1,1.06-1.87,1.06-2.8
				c0-0.93-0.58-1.61-0.48-2.06c0.1-0.45,0.35-0.71,0-1.03c-0.35-0.32-1.16-0.87-1.35-1.03c-0.19-0.16-1.22,1.64-0.9,2.06
				c0.32,0.42,1.64,2.26,1.64,2.58c0,0.32-2.03,2.55-3.38,3.25C69,94.77,68.45,94.06,69.29,92.13z"/>
			<path fill="#FFFFFF" d="M77.63,86.81c0,0.39-0.19,1.87,0.84,1.71c1.03-0.16,1.64-0.81,1.64-1.45c0-0.64-0.45-0.9-0.45-0.9
				s0,0.74-0.39,0.74c-0.39,0-0.48-0.58-0.48-0.58s0.1,0.9-0.42,0.87C77.86,87.16,77.63,86.81,77.63,86.81z"/>
			<path fill="#FFFFFF" d="M85.21,85.42c-0.58,0.03-0.84-1.1-0.71-1.77c0.13-0.68,0.32,0,0.68,0.03c0.35,0.03,0.74-0.61,0.74-0.32
				C85.91,83.65,85.91,85.39,85.21,85.42z"/>
			<path fill="#FFFFFF" d="M84.95,97.31c0-0.32,0.64-0.39,0.55-0.97c-0.1-0.58-0.45-0.9-0.81-0.64c-0.35,0.26-0.81,0.58-1,0.77
				c-0.19,0.19,0.19,0.77,0.58,0.48c0.39-0.29,0.64-0.16,0.42,0.19c-0.23,0.35-0.58,1.51,0,1.35c0.58-0.16,1.71-0.68,2.06-1.1
				c0.35-0.42,0.03-0.64-0.29-0.48C86.14,97.09,84.95,97.64,84.95,97.31z"/>
			<path fill="#FFFFFF" d="M87.72,82.53c0,0-0.82-1.2-0.89-1.39c-0.07-0.19,0.48-0.43,0.19-0.82c-0.29-0.39-1.96-2.17-2.17-2.34
				c-0.22-0.17-0.65,0.99,0,2.1c0.65,1.11,3.14,5.15,3.14,5.15s1.04,10.7,1.09,11.79c0,0,0.76-1.08,0.75-1.5
				C89.8,94.86,89.51,87,89.51,87s4.06,5.97,4.37,7.95c0,0-1.47,2.08-2.54,2.49c-1.06,0.41-1.57,0.43-1.72,0.43
				c-0.14,0-0.27,0.77,1.16,0.75c1.43-0.02,3.04-1.3,3.6-2.3c0.56-0.99,1.21-2.34,1.21-3.09c0-0.75-0.12-4.42-0.24-6.72
				c-0.12-2.3-0.65-5.53-0.65-5.53s0.46-0.05,0.36-0.6c-0.1-0.56-1.04-2.8-1.18-2.95c-0.15-0.14-1.26,1.23-0.97,2.05
				c0.29,0.82,1.72,6.64,1.72,14.35c0,0-1.04-3.7-5.49-9.54c0,0-0.22-2.88-0.24-2.97c-0.02-0.1,0.48-0.1,0.34-0.51
				c-0.14-0.41-0.97-2.49-1.21-2.75c-0.24-0.27-0.77,0.39-0.7,1.14C87.4,79.95,87.72,82.53,87.72,82.53z"/>
			<path fill="#FFFFFF" d="M90.96,79.88c0.34,0.43,0.12,1.3,0.43,1.26c0.31-0.05,0.6-1.28,0.19-2.1c-0.41-0.82-0.92-1.55-1.11-1.55
				C90.28,77.48,90.09,78.76,90.96,79.88z"/>
			<path fill="#FFFFFF" d="M92.33,81.01c0,0-0.12,0.65-0.24,0.8c-0.12,0.14-0.46-0.24-0.46-0.24s0.05,0.48-0.31,0.73
				c-0.36,0.24-0.82-0.19-0.82-0.19s0.02,1.45,0.58,1.35c0.56-0.1,1.64-0.56,1.64-1.04C92.72,81.93,92.33,81.01,92.33,81.01z"/>
			<path fill="#FFFFFF" d="M97.12,80.58c0,0,0.68-0.48,0.48-0.8c-0.19-0.31-1.14-1.79-1.26-1.91c-0.12-0.12-0.85,0.75-0.65,1.96
				c0.19,1.21,1.45,11.94,1.67,13.36c0.22,1.43,0.15,2.61,0.68,1.23c0.56-1.45,0.68-2.2,0.48-3.5
				C98.33,89.61,97.17,81.35,97.12,80.58z"/>
			<path fill="#FFFFFF" d="M103.69,82.2c0,0-0.94-0.7-1.11-0.94c-0.17-0.24,0.56-0.39,0.14-0.82c-0.41-0.43-1.69-1.55-1.98-1.72
				c-0.29-0.17-0.53,0.97-0.12,1.86c0.41,0.89,3.29,4.66,3.29,4.66s0.7,5.44,0.75,6.91c0.05,1.47-0.02,2.61-0.92,2.66
				c-0.89,0.05-1.59-1.69-1.79-2.37c-0.19-0.68-1.04-1.14-1.62-0.05c-0.58,1.09-1.28,4.01-2.05,4.01c-0.77,0-1.59-2.1-1.59-2.66
				s-0.53-0.87-0.53-0.6c0,0.27,0.15,5.12,1.84,4.98c1.69-0.14,1.96-2.83,2.08-3.21c0.12-0.39,0.51-1.64,0.82-1.26
				c0.31,0.39,0.97,2.88,2.34,2.88c1.38,0,2.32-1.4,2.27-2.95c-0.05-1.55-0.41-6.93-0.41-6.93l1.96,2.08c0,0,0.27,7.8,0.27,8.17
				c0,0.36,0.92-0.75,0.92-1.52s0.05-4.28,0.05-4.28s1.76,0.94,2.9,4.25c0,0-1.21,1.96-4.45,2.97c0,0,3.04,0.29,4.49-1.47
				c1.45-1.76,1.59-2.97,1.55-4.13c-0.05-1.16-0.85-11.07-0.89-11.31c-0.05-0.24,0.29,0.07,0.29-0.7s-1.06-2.54-1.23-2.97
				c-0.17-0.43-1.06,0.22-1.04,1.04c0.02,0.82,0.72,1.64,0.8,3.04c0.07,1.4,0.94,10.9,0.92,12.23c0,0-1.5-3.89-3.58-5.82
				c0,0-0.36-6.19-0.36-6.38c0-0.19,0.53-0.12,0.39-0.53c-0.15-0.41-1.01-3.24-1.26-3.58c-0.24-0.34-1.26,0.99-1.01,1.64
				c0.24,0.65,0.65,1.67,0.77,3c0.12,1.33,0.27,3.62,0.27,3.62l-1.96-1.72c0,0-0.22-2.85-0.12-2.97c0.1-0.12,0.51-0.22,0.39-0.51
				c-0.12-0.29-0.82-2.56-1.01-2.92c-0.19-0.36-1.3,0.7-1.16,1.33C103.11,79.83,103.55,80,103.69,82.2z"/>
			<path fill="#FFFFFF" d="M109.01,83.74c0,0,0.82,0.1,0.82-1.35c0-1.45-0.58-2.68-0.85-2.92c-0.27-0.24-0.89,0.24-0.63,0.87
				c0.27,0.63,0.85,1.09,0.8,2.01C109.1,83.26,109.01,83.74,109.01,83.74z"/>
			<path fill="#FFFFFF" d="M102.75,90.89c0.22,0,0.24-1.04,0.07-1.67c-0.17-0.63-0.43-0.94-0.75-0.68c-0.31,0.27,0.02,1.21,0.1,1.52
				C102.24,90.39,102.53,90.89,102.75,90.89z"/>
			<path fill="#FFFFFF" d="M102.89,86.76c-0.36-0.34-1.18,0.75-1.93,1.09c-0.75,0.34-1.81,0.17-1.81,0.99
				c0,0.58,0.82,0.53,2.01-0.22C102.34,87.87,103.26,87.1,102.89,86.76z"/>
			<path fill="#FFFFFF" d="M100.82,84.76c-0.24-0.05-0.29-1.69-1.06-1.69c-0.77,0-0.65,0.46-0.65,0.89c0,0.43,0.12,0.68,0.58,0.65
				c0.46-0.02,0.56,0.31,0.56,0.56c0,0.24,0.39,0.97,0.75,0.97s0.36,0,0.36,0s-0.07-1.64,0.19-1.93c0.27-0.29,0.75-0.51,0.34-0.94
				c-0.41-0.43-0.92,0.12-0.89,0.53C101.01,84.2,101.06,84.8,100.82,84.76z"/>
			<path fill="#FFFFFF" d="M105.24,97.15c0-0.27,0.48,0.02,0.34-0.41c-0.15-0.43-0.75-0.19-0.99,0.05
				c-0.24,0.24,0.24,0.29,0.27,0.51c0.02,0.22-0.39,0.36-0.39,0.7c0,0.34-0.02,0.94,0.34,0.68c0.36-0.27,0.97-0.6,0.92-0.87
				C105.67,97.54,105.24,97.42,105.24,97.15z"/>
			<path fill="#FFFFFF" d="M102.31,113.73c-0.37,0-2.17,0-4.83,0v-0.33c0.24-0.12,0.4-0.36,0.4-0.64c0-0.39-0.32-0.71-0.71-0.71
				c-0.39,0-0.71,0.32-0.71,0.71c0,0.26,0.14,0.48,0.34,0.61v0.36c-11.71,0-37.79,0-37.79,0s1.93,1.98,2.75,1.98
				c0.82,0,35.04,0,35.04,0v0.87c-0.2,0.12-0.34,0.35-0.34,0.61c0,0.39,0.32,0.71,0.71,0.71c0.37,0,0.66-0.28,0.7-0.63h1.73
				c0.04,0.36,0.34,0.63,0.7,0.63c0.37,0,0.66-0.28,0.7-0.63h1.46c0.07,0.26,0.34,0.5,1,0.53c1.45,0.05,1.69-1.01,1.69-2.17
				C105.16,114.45,104.25,113.73,102.31,113.73z M102.51,115.71c0.72,0,0.53,0.72,0.24,0.82c-0.09,0.03-0.2,0.16-0.25,0.33h-1.55
				c-0.12-0.23-0.35-0.39-0.63-0.39c-0.28,0-0.51,0.16-0.63,0.39H97.8c-0.07-0.14-0.18-0.25-0.32-0.32v-0.84
				C97.48,115.71,101.78,115.71,102.51,115.71z"/>
			<path fill="#147F49" d="M61.28,89.22c-0.22,0.29-0.84-0.04-0.58-0.53C60.97,88.2,61.61,88.78,61.28,89.22z"/>
			<path fill="#147F49" d="M84.31,88.13c0,0.47-0.82,0.44-1.31,0.44s-0.8-0.53-0.8-0.91c0-0.38,0.78-0.29,1.06-0.13
				C83.55,87.69,84.31,87.89,84.31,88.13z"/>
		</g>
	</g>
</g>
<g id="ガイド" display="none">
</g>
</svg>
