<?xml version="1.0" encoding="utf-8"?>
<!-- Generator: Adobe Illustrator 25.4.1, SVG Export Plug-In . SVG Version: 6.00 Build 0)  -->
<svg version="1.1" xmlns="http://www.w3.org/2000/svg" xmlns:xlink="http://www.w3.org/1999/xlink" x="0px" y="0px"
	 viewBox="0 0 164.41 252.28" enable-background="new 0 0 164.41 252.28" xml:space="preserve">
<g id="地">
	<rect fill="#DCDDDD" width="164.41" height="252.28"/>
</g>
<g id="枠">
</g>
<g id="国旗">
	<g>
		<g>
			<rect x="25.51" y="60" fill="#F5CF21" width="113.39" height="75.59"/>
			<rect x="25.51" y="110.39" fill="#147F49" width="113.39" height="25.2"/>
			<rect x="25.51" y="60" fill="#147F49" width="113.39" height="25.2"/>
			<polygon fill="#C91623" points="63.31,97.8 25.51,135.59 25.51,60 			"/>
			<polygon fill="#040000" points="85.86,90.57 87.69,96.22 93.62,96.22 88.82,99.7 90.66,105.35 85.86,101.86 81.06,105.35 
				82.89,99.7 78.09,96.22 84.02,96.22 			"/>
			<polygon fill="#040000" points="118.08,90.57 119.91,96.22 125.84,96.22 121.04,99.7 122.88,105.35 118.08,101.86 113.28,105.35 
				115.11,99.7 110.31,96.22 116.24,96.22 			"/>
		</g>
	</g>
</g>
<g id="ガイド" display="none">
</g>
</svg>
