<?xml version="1.0" encoding="utf-8"?>
<!-- Generator: Adobe Illustrator 25.4.1, SVG Export Plug-In . SVG Version: 6.00 Build 0)  -->
<svg version="1.1" xmlns="http://www.w3.org/2000/svg" xmlns:xlink="http://www.w3.org/1999/xlink" x="0px" y="0px"
	 viewBox="0 0 164.41 252.28" enable-background="new 0 0 164.41 252.28" xml:space="preserve">
<g id="地">
	<rect fill="#DCDDDD" width="164.41" height="252.28"/>
</g>
<g id="枠">
</g>
<g id="国旗">
	<g>
		<g>
			<rect x="25.51" y="106.36" fill="#D8152B" width="113.39" height="5.81"/>
			<rect x="25.51" y="112.18" fill="#FFFFFF" width="113.39" height="5.81"/>
			<rect x="25.51" y="100.55" fill="#FFFFFF" width="113.39" height="5.82"/>
			<rect x="25.51" y="117.99" fill="#D8152B" width="113.39" height="5.81"/>
			<rect x="25.51" y="129.62" fill="#D8152B" width="113.39" height="5.81"/>
			<rect x="25.51" y="123.81" fill="#FFFFFF" width="113.39" height="5.81"/>
			<rect x="25.51" y="88.92" fill="#FFFFFF" width="113.39" height="5.81"/>
			<rect x="25.51" y="65.66" fill="#FFFFFF" width="113.39" height="5.81"/>
			<rect x="25.51" y="59.85" fill="#D8152B" width="113.39" height="5.81"/>
			<rect x="25.51" y="71.47" fill="#D8152B" width="113.39" height="5.81"/>
			<rect x="25.51" y="77.29" fill="#FFFFFF" width="113.39" height="5.81"/>
			<rect x="25.51" y="94.73" fill="#D8152B" width="113.39" height="5.81"/>
			<rect x="25.51" y="83.1" fill="#D8152B" width="113.39" height="5.81"/>
			<rect x="25.51" y="59.85" fill="#11335F" width="50.79" height="40.7"/>
			<polygon fill="#FFFFFF" points="29.7,69.79 30.23,71.4 31.92,71.4 30.55,72.39 31.07,74 29.7,73.01 28.34,74 28.86,72.39 
				27.49,71.4 29.18,71.4 			"/>
			<polygon fill="#FFFFFF" points="38.24,69.79 38.76,71.4 40.46,71.4 39.09,72.39 39.61,74 38.24,73.01 36.87,74 37.39,72.39 
				36.03,71.4 37.72,71.4 			"/>
			<polygon fill="#FFFFFF" points="46.78,69.79 47.3,71.4 48.99,71.4 47.62,72.39 48.15,74 46.78,73.01 45.41,74 45.93,72.39 
				44.56,71.4 46.25,71.4 			"/>
			<polygon fill="#FFFFFF" points="55.31,69.79 55.84,71.4 57.53,71.4 56.16,72.39 56.68,74 55.31,73.01 53.94,74 54.47,72.39 
				53.1,71.4 54.79,71.4 			"/>
			<polygon fill="#FFFFFF" points="63.85,69.79 64.37,71.4 66.06,71.4 64.69,72.39 65.22,74 63.85,73.01 62.48,74 63,72.39 
				61.63,71.4 63.32,71.4 			"/>
			<polygon fill="#FFFFFF" points="72.38,69.79 72.91,71.4 74.6,71.4 73.23,72.39 73.75,74 72.38,73.01 71.01,74 71.54,72.39 
				70.17,71.4 71.86,71.4 			"/>
			<polygon fill="#FFFFFF" points="72.38,61.54 72.91,63.15 74.6,63.15 73.23,64.14 73.75,65.75 72.38,64.76 71.01,65.75 
				71.54,64.14 70.17,63.15 71.86,63.15 			"/>
			<polygon fill="#FFFFFF" points="29.7,61.54 30.23,63.15 31.92,63.15 30.55,64.14 31.07,65.75 29.7,64.76 28.34,65.75 
				28.86,64.14 27.49,63.15 29.18,63.15 			"/>
			<polygon fill="#FFFFFF" points="38.24,61.54 38.76,63.15 40.46,63.15 39.09,64.14 39.61,65.75 38.24,64.76 36.87,65.75 
				37.39,64.14 36.03,63.15 37.72,63.15 			"/>
			<polygon fill="#FFFFFF" points="46.78,61.54 47.3,63.15 48.99,63.15 47.62,64.14 48.15,65.75 46.78,64.76 45.41,65.75 
				45.93,64.14 44.56,63.15 46.25,63.15 			"/>
			<polygon fill="#FFFFFF" points="55.31,61.54 55.84,63.15 57.53,63.15 56.16,64.14 56.68,65.75 55.31,64.76 53.94,65.75 
				54.47,64.14 53.1,63.15 54.79,63.15 			"/>
			<polygon fill="#FFFFFF" points="63.85,61.54 64.37,63.15 66.06,63.15 64.69,64.14 65.22,65.75 63.85,64.76 62.48,65.75 63,64.14 
				61.63,63.15 63.32,63.15 			"/>
			<polygon fill="#FFFFFF" points="33.97,65.75 34.5,67.36 36.19,67.36 34.82,68.35 35.34,69.96 33.97,68.97 32.6,69.96 
				33.13,68.35 31.76,67.36 33.45,67.36 			"/>
			<polygon fill="#FFFFFF" points="42.51,65.75 43.03,67.36 44.72,67.36 43.35,68.35 43.88,69.96 42.51,68.97 41.14,69.96 
				41.66,68.35 40.29,67.36 41.99,67.36 			"/>
			<polygon fill="#FFFFFF" points="51.04,65.75 51.57,67.36 53.26,67.36 51.89,68.35 52.41,69.96 51.04,68.97 49.68,69.96 
				50.2,68.35 48.83,67.36 50.52,67.36 			"/>
			<polygon fill="#FFFFFF" points="59.58,65.75 60.1,67.36 61.8,67.36 60.43,68.35 60.95,69.96 59.58,68.97 58.21,69.96 
				58.73,68.35 57.36,67.36 59.06,67.36 			"/>
			<polygon fill="#FFFFFF" points="68.12,65.75 68.64,67.36 70.33,67.36 68.96,68.35 69.48,69.96 68.12,68.97 66.75,69.96 
				67.27,68.35 65.9,67.36 67.59,67.36 			"/>
			<polygon fill="#FFFFFF" points="33.97,73.86 34.5,75.47 36.19,75.47 34.82,76.47 35.34,78.07 33.97,77.08 32.6,78.07 
				33.13,76.47 31.76,75.47 33.45,75.47 			"/>
			<polygon fill="#FFFFFF" points="42.51,73.86 43.03,75.47 44.72,75.47 43.35,76.47 43.88,78.07 42.51,77.08 41.14,78.07 
				41.66,76.47 40.29,75.47 41.99,75.47 			"/>
			<polygon fill="#FFFFFF" points="51.04,73.86 51.57,75.47 53.26,75.47 51.89,76.47 52.41,78.07 51.04,77.08 49.68,78.07 
				50.2,76.47 48.83,75.47 50.52,75.47 			"/>
			<polygon fill="#FFFFFF" points="59.58,73.86 60.1,75.47 61.8,75.47 60.43,76.47 60.95,78.07 59.58,77.08 58.21,78.07 
				58.73,76.47 57.36,75.47 59.06,75.47 			"/>
			<polygon fill="#FFFFFF" points="68.12,73.86 68.64,75.47 70.33,75.47 68.96,76.47 69.48,78.07 68.12,77.08 66.75,78.07 
				67.27,76.47 65.9,75.47 67.59,75.47 			"/>
			<polygon fill="#FFFFFF" points="33.97,81.97 34.5,83.58 36.19,83.58 34.82,84.58 35.34,86.19 33.97,85.19 32.6,86.19 
				33.13,84.58 31.76,83.58 33.45,83.58 			"/>
			<polygon fill="#FFFFFF" points="42.51,81.97 43.03,83.58 44.72,83.58 43.35,84.58 43.88,86.19 42.51,85.19 41.14,86.19 
				41.66,84.58 40.29,83.58 41.99,83.58 			"/>
			<polygon fill="#FFFFFF" points="51.04,81.97 51.57,83.58 53.26,83.58 51.89,84.58 52.41,86.19 51.04,85.19 49.68,86.19 
				50.2,84.58 48.83,83.58 50.52,83.58 			"/>
			<polygon fill="#FFFFFF" points="59.58,81.97 60.1,83.58 61.8,83.58 60.43,84.58 60.95,86.19 59.58,85.19 58.21,86.19 
				58.73,84.58 57.36,83.58 59.06,83.58 			"/>
			<polygon fill="#FFFFFF" points="68.12,81.97 68.64,83.58 70.33,83.58 68.96,84.58 69.48,86.19 68.12,85.19 66.75,86.19 
				67.27,84.58 65.9,83.58 67.59,83.58 			"/>
			<polygon fill="#FFFFFF" points="33.97,90.08 34.5,91.69 36.19,91.69 34.82,92.69 35.34,94.3 33.97,93.3 32.6,94.3 33.13,92.69 
				31.76,91.69 33.45,91.69 			"/>
			<polygon fill="#FFFFFF" points="42.51,90.08 43.03,91.69 44.72,91.69 43.35,92.69 43.88,94.3 42.51,93.3 41.14,94.3 41.66,92.69 
				40.29,91.69 41.99,91.69 			"/>
			<polygon fill="#FFFFFF" points="51.04,90.08 51.57,91.69 53.26,91.69 51.89,92.69 52.41,94.3 51.04,93.3 49.68,94.3 50.2,92.69 
				48.83,91.69 50.52,91.69 			"/>
			<polygon fill="#FFFFFF" points="59.58,90.08 60.1,91.69 61.8,91.69 60.43,92.69 60.95,94.3 59.58,93.3 58.21,94.3 58.73,92.69 
				57.36,91.69 59.06,91.69 			"/>
			<polygon fill="#FFFFFF" points="68.12,90.08 68.64,91.69 70.33,91.69 68.96,92.69 69.48,94.3 68.12,93.3 66.75,94.3 67.27,92.69 
				65.9,91.69 67.59,91.69 			"/>
			<polygon fill="#FFFFFF" points="29.7,78.04 30.23,79.65 31.92,79.65 30.55,80.64 31.07,82.25 29.7,81.26 28.34,82.25 
				28.86,80.64 27.49,79.65 29.18,79.65 			"/>
			<polygon fill="#FFFFFF" points="38.24,78.04 38.76,79.65 40.46,79.65 39.09,80.64 39.61,82.25 38.24,81.26 36.87,82.25 
				37.39,80.64 36.03,79.65 37.72,79.65 			"/>
			<polygon fill="#FFFFFF" points="46.78,78.04 47.3,79.65 48.99,79.65 47.62,80.64 48.15,82.25 46.78,81.26 45.41,82.25 
				45.93,80.64 44.56,79.65 46.25,79.65 			"/>
			<polygon fill="#FFFFFF" points="55.31,78.04 55.84,79.65 57.53,79.65 56.16,80.64 56.68,82.25 55.31,81.26 53.94,82.25 
				54.47,80.64 53.1,79.65 54.79,79.65 			"/>
			<polygon fill="#FFFFFF" points="63.85,78.04 64.37,79.65 66.06,79.65 64.69,80.64 65.22,82.25 63.85,81.26 62.48,82.25 63,80.64 
				61.63,79.65 63.32,79.65 			"/>
			<polygon fill="#FFFFFF" points="72.38,78.04 72.91,79.65 74.6,79.65 73.23,80.64 73.75,82.25 72.38,81.26 71.01,82.25 
				71.54,80.64 70.17,79.65 71.86,79.65 			"/>
			<polygon fill="#FFFFFF" points="29.7,86.29 30.23,87.9 31.92,87.9 30.55,88.89 31.07,90.5 29.7,89.51 28.34,90.5 28.86,88.89 
				27.49,87.9 29.18,87.9 			"/>
			<polygon fill="#FFFFFF" points="38.24,86.29 38.76,87.9 40.46,87.9 39.09,88.89 39.61,90.5 38.24,89.51 36.87,90.5 37.39,88.89 
				36.03,87.9 37.72,87.9 			"/>
			<polygon fill="#FFFFFF" points="46.78,86.29 47.3,87.9 48.99,87.9 47.62,88.89 48.15,90.5 46.78,89.51 45.41,90.5 45.93,88.89 
				44.56,87.9 46.25,87.9 			"/>
			<polygon fill="#FFFFFF" points="55.31,86.29 55.84,87.9 57.53,87.9 56.16,88.89 56.68,90.5 55.31,89.51 53.94,90.5 54.47,88.89 
				53.1,87.9 54.79,87.9 			"/>
			<polygon fill="#FFFFFF" points="63.85,86.29 64.37,87.9 66.06,87.9 64.69,88.89 65.22,90.5 63.85,89.51 62.48,90.5 63,88.89 
				61.63,87.9 63.32,87.9 			"/>
			<polygon fill="#FFFFFF" points="72.38,86.29 72.91,87.9 74.6,87.9 73.23,88.89 73.75,90.5 72.38,89.51 71.01,90.5 71.54,88.89 
				70.17,87.9 71.86,87.9 			"/>
			<polygon fill="#FFFFFF" points="29.7,94.54 30.23,96.15 31.92,96.15 30.55,97.15 31.07,98.75 29.7,97.76 28.34,98.75 
				28.86,97.15 27.49,96.15 29.18,96.15 			"/>
			<polygon fill="#FFFFFF" points="38.24,94.54 38.76,96.15 40.46,96.15 39.09,97.15 39.61,98.75 38.24,97.76 36.87,98.75 
				37.39,97.15 36.03,96.15 37.72,96.15 			"/>
			<polygon fill="#FFFFFF" points="46.78,94.54 47.3,96.15 48.99,96.15 47.62,97.15 48.15,98.75 46.78,97.76 45.41,98.75 
				45.93,97.15 44.56,96.15 46.25,96.15 			"/>
			<polygon fill="#FFFFFF" points="55.31,94.54 55.84,96.15 57.53,96.15 56.16,97.15 56.68,98.75 55.31,97.76 53.94,98.75 
				54.47,97.15 53.1,96.15 54.79,96.15 			"/>
			<polygon fill="#FFFFFF" points="63.85,94.54 64.37,96.15 66.06,96.15 64.69,97.15 65.22,98.75 63.85,97.76 62.48,98.75 63,97.15 
				61.63,96.15 63.32,96.15 			"/>
			<polygon fill="#FFFFFF" points="72.38,94.54 72.91,96.15 74.6,96.15 73.23,97.15 73.75,98.75 72.38,97.76 71.01,98.75 
				71.54,97.15 70.17,96.15 71.86,96.15 			"/>
		</g>
	</g>
</g>
<g id="ガイド" display="none">
</g>
</svg>
