<?xml version="1.0" encoding="utf-8"?>
<!-- Generator: Adobe Illustrator 25.4.1, SVG Export Plug-In . SVG Version: 6.00 Build 0)  -->
<svg version="1.1" xmlns="http://www.w3.org/2000/svg" xmlns:xlink="http://www.w3.org/1999/xlink" x="0px" y="0px"
	 viewBox="0 0 164.41 252.28" enable-background="new 0 0 164.41 252.28" xml:space="preserve">
<g id="地">
	<rect fill="#DCDDDD" width="164.41" height="252.28"/>
</g>
<g id="枠">
</g>
<g id="国旗">
	<g>
		<g>
			<rect x="25.51" y="60" fill="#FFFFFF" width="113.39" height="75.59"/>
			<rect x="25.51" y="60" fill="#C8152A" width="113.39" height="37.8"/>
			<path fill="#FFFFFF" d="M42.44,78.9c0-6.61,4.68-12.12,10.9-13.41c-1.08-0.27-2.22-0.42-3.39-0.42
				c-7.64,0-13.83,6.19-13.83,13.83s6.19,13.83,13.83,13.83c1.17,0,2.31-0.15,3.39-0.42C47.12,91.02,42.44,85.5,42.44,78.9z"/>
			<polygon fill="#FFFFFF" points="56.76,69.98 57.17,71.25 58.51,71.25 57.43,72.04 57.84,73.31 56.76,72.53 55.68,73.31 
				56.09,72.04 55.01,71.25 56.35,71.25 			"/>
			<polygon fill="#FFFFFF" points="49.56,75.22 49.97,76.49 51.31,76.49 50.23,77.27 50.64,78.55 49.56,77.76 48.47,78.55 
				48.89,77.27 47.8,76.49 49.14,76.49 			"/>
			<polygon fill="#FFFFFF" points="52.31,83.68 52.72,84.96 54.06,84.96 52.98,85.74 53.39,87.01 52.31,86.23 51.23,87.01 
				51.64,85.74 50.56,84.96 51.89,84.96 			"/>
			<polygon fill="#FFFFFF" points="61.21,83.68 61.63,84.96 62.96,84.96 61.88,85.74 62.3,87.01 61.21,86.23 60.13,87.01 
				60.54,85.74 59.46,84.96 60.8,84.96 			"/>
			<polygon fill="#FFFFFF" points="63.96,75.22 64.38,76.49 65.72,76.49 64.63,77.27 65.05,78.55 63.96,77.76 62.88,78.55 
				63.3,77.27 62.21,76.49 63.55,76.49 			"/>
		</g>
	</g>
</g>
<g id="ガイド" display="none">
</g>
</svg>
