<?xml version="1.0" encoding="utf-8"?>
<!-- Generator: Adobe Illustrator 25.4.1, SVG Export Plug-In . SVG Version: 6.00 Build 0)  -->
<svg version="1.1" xmlns="http://www.w3.org/2000/svg" xmlns:xlink="http://www.w3.org/1999/xlink" x="0px" y="0px"
	 viewBox="0 0 164.41 252.28" enable-background="new 0 0 164.41 252.28" xml:space="preserve">
<g id="地">
	<rect fill="#DCDDDD" width="164.41" height="252.28"/>
</g>
<g id="枠">
</g>
<g id="国旗">
	<g>
		<g>
			<rect x="25.51" y="60.41" fill="#F5CF21" width="113.39" height="75.59"/>
			<rect x="30.5" y="65.09" fill="#147F49" width="15.47" height="66.23"/>
			<rect x="45.97" y="65.09" fill="#F5B018" width="15.47" height="66.23"/>
			<rect x="66.54" y="65.09" fill="#671116" width="66.23" height="66.23"/>
			<g>
				<path fill="#F5CF21" d="M73.89,72.11c0.17-0.18-0.2-0.69-0.2-1.16s0-1.32,0-1.84c0-1.38-1.32-2.81-2.51-2.81
					c-1.19,0-1.91,0.52-2.16,0.52c-0.25,0-0.71-0.8-0.95-0.56c-0.24,0.24,0.51,0.73,0.51,1.15c0,0.42-0.36,0.89-0.36,1.65
					c0,0.76,0.64,2.66,2.31,2.66c1.67,0,2.15-0.02,2.38-0.02C73.36,71.69,73.68,72.32,73.89,72.11z"/>
				<path fill="none" stroke="#040000" stroke-width="1.0229" d="M73.89,72.11c0.17-0.18-0.2-0.69-0.2-1.16s0-1.32,0-1.84
					c0-1.38-1.32-2.81-2.51-2.81c-1.19,0-1.91,0.52-2.16,0.52c-0.25,0-0.71-0.8-0.95-0.56c-0.24,0.24,0.51,0.73,0.51,1.15
					c0,0.42-0.36,0.89-0.36,1.65c0,0.76,0.64,2.66,2.31,2.66c1.67,0,2.15-0.02,2.38-0.02C73.36,71.69,73.68,72.32,73.89,72.11z"/>
			</g>
			<g>
				<path fill="#F5CF21" d="M73.56,123.97c-0.18-0.18-0.69,0.2-1.16,0.2c-0.47,0-1.32,0-1.84,0c-1.38,0-2.81,1.32-2.81,2.51
					c0,1.19,0.52,1.91,0.52,2.16c0,0.25-0.8,0.71-0.56,0.95c0.24,0.24,0.73-0.51,1.15-0.51c0.42,0,0.89,0.36,1.65,0.36
					c0.76,0,2.66-0.64,2.66-2.31c0-1.67-0.02-2.15-0.02-2.38C73.14,124.5,73.76,124.18,73.56,123.97z"/>
				<path fill="none" stroke="#040000" stroke-width="1.0229" d="M73.56,123.97c-0.18-0.18-0.69,0.2-1.16,0.2c-0.47,0-1.32,0-1.84,0
					c-1.38,0-2.81,1.32-2.81,2.51c0,1.19,0.52,1.91,0.52,2.16c0,0.25-0.8,0.71-0.56,0.95c0.24,0.24,0.73-0.51,1.15-0.51
					c0.42,0,0.89,0.36,1.65,0.36c0.76,0,2.66-0.64,2.66-2.31c0-1.67-0.02-2.15-0.02-2.38C73.14,124.5,73.76,124.18,73.56,123.97z"/>
			</g>
			<g>
				<path fill="#F5CF21" d="M125.41,124.3c-0.18,0.18,0.2,0.69,0.2,1.16c0,0.47,0,1.32,0,1.84c0,1.38,1.32,2.81,2.51,2.81
					c1.19,0,1.91-0.52,2.16-0.52c0.25,0,0.71,0.8,0.95,0.56c0.24-0.24-0.51-0.73-0.51-1.15c0-0.42,0.36-0.89,0.36-1.65
					c0-0.76-0.64-2.65-2.31-2.65c-1.67,0-2.15,0.02-2.38,0.02C125.94,124.72,125.62,124.09,125.41,124.3z"/>
				<path fill="none" stroke="#040000" stroke-width="1.0229" d="M125.41,124.3c-0.18,0.18,0.2,0.69,0.2,1.16c0,0.47,0,1.32,0,1.84
					c0,1.38,1.32,2.81,2.51,2.81c1.19,0,1.91-0.52,2.16-0.52c0.25,0,0.71,0.8,0.95,0.56c0.24-0.24-0.51-0.73-0.51-1.15
					c0-0.42,0.36-0.89,0.36-1.65c0-0.76-0.64-2.65-2.31-2.65c-1.67,0-2.15,0.02-2.38,0.02C125.94,124.72,125.62,124.09,125.41,124.3
					z"/>
			</g>
			<g>
				<path fill="#F5CF21" d="M125.74,72.44c0.18,0.18,0.69-0.2,1.16-0.2c0.47,0,1.32,0,1.84,0c1.38,0,2.81-1.32,2.81-2.51
					c0-1.19-0.52-1.91-0.52-2.16c0-0.25,0.8-0.71,0.56-0.95c-0.24-0.24-0.73,0.51-1.15,0.51c-0.42,0-0.89-0.36-1.66-0.36
					c-0.76,0-2.65,0.64-2.65,2.31c0,1.67,0.02,2.15,0.02,2.38C126.16,71.91,125.54,72.23,125.74,72.44z"/>
				<path fill="none" stroke="#040000" stroke-width="1.0229" d="M125.74,72.44c0.18,0.18,0.69-0.2,1.16-0.2c0.47,0,1.32,0,1.84,0
					c1.38,0,2.81-1.32,2.81-2.51c0-1.19-0.52-1.91-0.52-2.16c0-0.25,0.8-0.71,0.56-0.95c-0.24-0.24-0.73,0.51-1.15,0.51
					c-0.42,0-0.89-0.36-1.66-0.36c-0.76,0-2.65,0.64-2.65,2.31c0,1.67,0.02,2.15,0.02,2.38C126.16,71.91,125.54,72.23,125.74,72.44z
					"/>
			</g>
			<path fill="#F5CF21" stroke="#040000" stroke-width="1.0229" stroke-linecap="round" stroke-linejoin="round" d="M86.94,102.59
				c0,0-0.9-1.74,1.87-4.96c2.77-3.22,3.87-2.84,3.93-3.87c0.06-1.03-0.71-0.77-0.84-0.32c-0.13,0.45-1.1,0.26-1.1,0.26
				s-0.13,0.77-0.45,0.32c-0.32-0.45-0.84-1.1-0.84-1.1s-1.35,1.1-1.42,0.71c-0.06-0.39,0.45-0.9,0.45-0.9s-1.35,0.26-1.35-0.06
				c0-0.32,0.9-1.96,0.92-2.13c0.02-0.17-0.59-0.71-0.62-1.24c0,0,0.76,0.46,1.08,0.43c0.33-0.03,0.52-0.45,0.52-0.45
				s-0.03,0.65,0.74,0.74c0.77,0.09,0.86-0.53,0.86-0.53s0.67,0.95,1.72,0.43c0,0-0.79-1.41-1.27-1.53c0,0-0.19,0.88-0.41,0.9
				c-0.22,0.02-0.79-1.03-1.02-1.14C89.5,88.03,89.5,89,89.5,89s-1.17-0.19-1.72-1.64c-0.55-1.45-0.31-2.36-0.31-2.63
				c0-0.28,0.45-0.89,1.03-0.86c0.59,0.03,0.95,0.79,1.86,0.81c0.91,0.02,1.39-0.43,1.98-0.43s0.72-1.34,1.74-1.36
				c1.02-0.02,1.29,0.53,1.81,0.53c0.52,0,0.17-1.17,0.72-1.15c0.55,0.02,1.76,0.96,2.48,0.96c0.72,0-0.09-1.53,0.76-1.57
				c0.84-0.03,1.65,1.82,2.44,1.84c0.79,0.02,1.22-1.07,1.79-0.5s-0.29,1.48-0.29,1.74c0,0.26-0.77,1-0.77,1.08
				c0,0.09,1.27,1.24,1.27,1.69c0,0.45-0.05,0.89-0.57,0.89c-0.52,0-0.65,0.29-0.43,0.52c0.22,0.22,0.48,1.53,0.22,1.93
				c-0.26,0.4-0.31,0.65-0.28,0.86c0.03,0.21,0.19,0.83,0.07,1.14c-0.12,0.31-0.17,2-0.1,2.29c0.07,0.29,1.12,0.93,2.38,0.91
				c1.26-0.02,3.89-0.55,7.28-0.9c3.39-0.34,5.97-0.52,6.23-0.52c0.26,0,1.12-1.27,1.12-2.24s-0.55-2.07-1.36-2.07
				c-0.81,0-6.66,0.58-7.93,0.62c-1.27,0.03-2.39-0.57-3.32-0.59c-0.93-0.02-1.41,0.79-1.67,0.22c-0.28-0.6-0.26-1.39,0-1.65
				c0.17-0.17,0.26-0.29,0.26-0.46c0-0.17-0.76-0.95-0.76-1.69c0-0.74,0-1.62,0-2.03c0-0.41,1.69-2.86,3.53-2.86
				c1.84,0,2.7,0,3.29,0s2.79,1.14,5.3,3.48c2.51,2.34,4.01,3.55,4.82,3.55c0,0,0-0.88,0-1.19c0-0.31,0.28-0.86,0.86-0.86
				s1.05,0.69,1.05,1.48c0,0.79-0.45,1.27-1.2,1.27c-0.76,0-2.19-0.17-2.89-0.79c-0.71-0.62-1.53-1.45-1.53-1.45l-0.12,1.15
				c0,0-2.17-2.13-2.43-2.63c0,0-1.74,0.62-1.74,0.24c0-0.38-0.24-1.38-0.74-1.79c0,0-0.34,1.34-1.58,1.33c0,0,0.67-0.55,0.36-1.34
				c-0.31-0.79-0.91-1.15-1.1-1.15c-0.19,0-0.65,1.58-0.81,1.53c-0.15-0.05-0.77-1.27-1.34-1.33c-0.57-0.05-1.74,0.07-1.93,1.22
				c-0.19,1.15-0.19,1.91-0.19,1.91s0.6-1.27,2.25-1.12c0,0-0.72,0.77-0.74,1.62c-0.02,0.84,0.45,1.82,0.74,1.82
				c0.29,0,0.41-1.15,0.79-1.17s0.12,1.26,1.27,1.51c1.15,0.26,2.65,0.29,3.41,0.17c0.76-0.12,4.03-0.45,4.89-0.07
				c0.86,0.38,2.1,1.07,2.1,3.17c0,2.1-1.62,2.91-1.62,2.91s2.31,1.41,2.31,5.03c0,3.61-1.58,5.49-1.58,7.59
				c0,2.1,1.81,2.13,1.81,2.13s-2.17,2.15-2.17,3.7s1.55,2.1,1.55,2.67c0,0.57-1.82,1.15-3.3,1.15c-1.48,0-2.15-0.19-2.17-0.64
				c0,0-0.59,0.67-1.27,0.67c-0.69,0-0.43-0.64-0.43-0.64s-1.14,0.6-1.38-0.19c0,0-1.36,0-1.63,0c-0.28,0-0.41,0.43-0.91,0.43
				c-0.5,0-0.81-0.34-1.05-0.34c-0.24,0-0.33,0.41-0.96,0.41c-0.64,0-0.43-0.43-0.91-0.43c-0.48,0-0.63-0.56-0.14-1.05
				c0.48-0.48,1.03-0.91,1.77-0.91c0.74,0,0.84-0.09,0.86-0.57c0.02-0.48,0.53-1.36,0.34-2.15c-0.19-0.79-0.33-1.57-0.5-1.82
				c-0.17-0.26-1.45-1.53-1.45-3.68c0,0-10.24,1.46-11.41,2.17c0,0-1.31,1.2-1.27,1.91c0.03,0.71,0.86,0.52,1.17,0.46
				c0.31-0.05,0,1.43-0.38,1.94c-0.38,0.52-0.93,1.14-0.6,1.39c0.33,0.26,1.14,0.62,0.88,1c-0.26,0.38-1.51,0.65-2.41,0.65
				c-0.9,0-1.67,0.71-2.56,0.74c-0.9,0.03-0.74-0.79-0.74-0.79s-1.26,0.57-1.46-0.09c0,0-0.95,0.12-1.1-0.14
				c-0.15-0.26,0.57-1.72,2.1-1.72c1.53,0,1.74-0.93,1.74-1.72c0-0.79-1.29-2.27-1.29-4.01c0,0-1.65-0.31-2.03-1
				c0,0-0.71,1.51-1.94,1.51c-1.24,0-2.36-1.12-2.5-1.69c-0.14-0.57-0.43-0.91-0.74-0.88c-0.31,0.03-0.65,0.69-0.88,0.48
				c-0.22-0.21-0.55-0.76-0.55-1.38c0-0.62,0.62-0.83,0.62-1.33c0-0.5-0.27-0.53-0.52-0.53c-0.25,0-0.7,0.13-0.7,0.37
				c0,0.24,0,0.24,0,0.24s0.41-0.03,0.41,0.71c0,0.74-0.28,0.67-0.74,0.67c-0.46,0-0.55,0.03-0.55,0.31c0,0.28,0.55,0.76,0.55,1.14
				c0,0.38-0.55,0.62-0.55,0.91c0,0.29,0,0.71,0,0.71s1.69,0,1.98,0c0.29,0,0.5,0.23,0.5,0.78s-0.12,0.79-0.52,0.79
				c-0.4,0-1.55,0-1.55,0s1.26,1.44,0.84,1.44c-0.41,0-1.26,0-1.26,0s0,0.92,0,1.11c0,0.19-0.12,0.46-0.4,0.46
				c-0.28,0-0.39-0.14-0.39-0.43c0-0.29,0-1.14,0-1.14s-1.2,0-1.4,0c-0.21,0,1.12-1.44,1.12-1.44s-1.74,0-1.89,0
				c-0.15,0-0.26-0.46-0.26-0.81c0-0.34,0.05-0.77,0.36-0.77c0.31,0,2.07,0,2.07,0s0-0.53,0-0.66c0-0.14-0.63-0.45-0.63-0.93
				c0-0.48,0.46-0.96,0.46-1.12c0-0.15-0.45-0.38-0.71-0.38c-0.26,0-1.55,0.19-1.55-0.88c0-1.07,0.59-0.98,0.77-0.98
				c0.19,0,0.53,0.26,0.84,0.26c0.31,0,0.43-0.09,0.43-0.33c0-0.24,0-0.33,0-0.33s-0.96,0.19-0.96-0.95c0,0-0.67,0.02-0.67-0.72
				c0-0.62,0.19-0.69,0.19-0.69s-0.24-0.72,0.1-1.05V99.2c0,0-0.64-0.27-0.64-1c0-0.72,0.62-0.98,1.29-0.98c0,0,0.34-9.6,0.59-11.63
				c0.24-2.03,2.89-5.95,2.89-5.95V97c0,0,1.17,0.1,1.17,0.95c0,0.84-0.79,1.26-0.79,1.26S85.97,102.19,86.94,102.59z"/>
			<path fill="none" stroke="#040000" stroke-width="1.0229" d="M89.52,107.55c0,0-2.57-0.7-2.57-4.96"/>
			<path fill="none" stroke="#040000" stroke-width="1.0229" d="M80.36,110.39c0,0,0.26-0.48,0.26-0.85c0-0.37-0.26-0.72-0.26-0.72"
				/>
			<path fill="none" stroke="#040000" stroke-width="1.0229" d="M81.84,110.39c0,0-0.33-0.39-0.33-0.85c0-0.46,0.33-0.72,0.33-0.72"
				/>
			<path fill="none" stroke="#040000" stroke-width="1.0229" d="M78.93,99.2c0,0,1.72,0.24,4.51,0"/>
			<path fill="none" stroke="#040000" stroke-width="1.0229" d="M78.93,100.06c0,0,1.2,0.34,2.85,0.34c2.3,0,1.28-1.17,1.28-1.17"/>
			<path fill="none" stroke="#040000" stroke-width="1.0229" d="M78.83,101.11c0,0,0.62,0.34,1.97,0.34c1.35,0,2.07-0.57,2.07-1.19"
				/>
			<path fill="none" stroke="#040000" stroke-width="1.0229" d="M79.31,102.52c0,0,3.72,0.7,2.99-1.41"/>
			<path fill="none" stroke="#040000" stroke-width="1.0229" d="M80.28,103.47c0,0,3.24,0.03,1.91-1.3"/>
			<path fill="none" stroke="#040000" stroke-width="1.0229" d="M82.31,104.13c0,0-0.95-0.35-0.95-0.73"/>
			<path fill="none" stroke="#040000" stroke-width="1.0229" d="M83.06,97c0,0-1.77,2.51-3.38,0.32"/>
			<path fill="none" stroke="#040000" stroke-width="1.0229" d="M91.55,108.55c0,0-0.62-2.72,0-4.13"/>
			<path fill="none" stroke="#040000" stroke-width="1.0229" d="M99.35,104.42c0,0,0.02,2.61-1.86,4.49"/>
			<path fill="none" stroke="#040000" stroke-width="1.0229" d="M91.57,116.22c0,0,0.24-0.24,0.49-0.49"/>
			<path fill="none" stroke="#040000" stroke-width="1.0229" d="M90.1,116.14c0,0,0.2-0.74,0.75-0.87"/>
			<path fill="none" stroke="#040000" stroke-width="1.0229" d="M114.85,117.05c0,0,0.19-0.49,0.77-0.49"/>
			<path fill="none" stroke="#040000" stroke-width="1.0229" d="M116.55,117.02c0,0,0.45-0.55,1.12-0.55"/>
			<path fill="none" stroke="#040000" stroke-width="1.0229" d="M114.8,115.65c-0.65,0.21-1.2,0.59-1.32,1.21"/>
			<path fill="none" stroke="#040000" stroke-width="1.0229" d="M108.9,106.74c0,0,2.98-0.91,6.3,1.76
				c0.09,0.07,0.18,0.15,0.26,0.22"/>
			<path fill="#671116" stroke="#040000" stroke-width="1.0229" d="M115.46,108.72c0,0-1.06,1.22-1.06,1.99
				c0,0.77,1.38,0.37,1.38,0.37s-0.21,1.26-0.8,1.84c-0.58,0.58-0.58,0.58-0.58,0.58s-1.09,1.7,0.4,2.15c0,0,1.06-0.22,1.53-0.22
				c1.07,0,1.1-1.56,1.1-2.05C117.43,112.89,118.44,111.26,115.46,108.72L115.46,108.72z"/>
			<path fill="none" stroke="#040000" stroke-width="1.0229" d="M91.96,96.18c0,0-0.77,1.5-0.18,1.53c0.58,0.03,1.29-0.7,1.29-0.7
				s0,1.07,0.18,1.07c0.18,0,1.32-0.98,1.32-0.98s0.4,1.2,0.64,1.2c0.24,0,0.92-0.98,0.92-0.98s1.41,1.41,1.84,1.13
				c0.43-0.28,0.28-1.56,0.28-1.56s1.19,1.45,1.41,1.32c0.22-0.13,0.13-1.26,0.13-1.26s1.26,1.41,1.38,1.26
				c0.12-0.15,0.06-1.41,0.06-1.41s0.8,0.95,0.95,0.8c0.15-0.15,0.12-0.89,0.12-0.89s1.96-0.03,2.05-0.15
				c0.09-0.12-0.5-0.88-0.5-0.88"/>
			<path fill="none" stroke="#040000" stroke-width="1.0229" d="M92.97,94.52c0,0,0.52,1.2,0.77,1.2c0.25,0,0.86-0.74,0.86-0.74
				s0.25,0.8,0.52,0.8c0.28,0,0.8-0.8,0.8-0.8s0.61,0.95,0.95,0.89c0.34-0.06,0.92-0.83,0.92-0.83s1.1,1.32,1.41,1.04
				c0.31-0.28,0.21-1.38,0.21-1.38s0.61,0.31,0.74,0.25c0.12-0.06,0.64-0.8,0.64-0.8s1.08,0.83,2.4,0.86"/>
			<path fill="none" stroke="#040000" stroke-width="1.0229" d="M103.21,93.51c0,0-2.02-1.04-2.39-2.42c0,0-0.12,0.77-0.46,0.8
				c-0.34,0.03-1.01-0.95-1.01-0.95s-0.06,0.83-0.46,0.83c-0.4,0-1.44-1.2-1.44-1.2"/>
			<path fill="none" stroke="#040000" stroke-width="1.0229" d="M98.98,92.77c0,0,0.06,1.53-0.55,1.53c-0.61,0-1.2-1.72-1.2-1.72
				s-0.12,1.35-0.7,1.32c-0.58-0.03-0.67-1.9-0.67-1.9"/>
			<line fill="none" stroke="#040000" stroke-width="1.0229" x1="90.81" y1="93.7" x2="90.83" y2="92.87"/>
			<line fill="none" stroke="#040000" stroke-width="1.0229" x1="89.52" y1="92.92" x2="89.78" y2="92.59"/>
			<path fill="none" stroke="#040000" stroke-width="1.0229" d="M88.12,90.53c0,0,0.99,0.22,2.27,0.22c1.29,0,2.64-0.12,2.64-0.12
				l-0.61-0.72"/>
			<path fill="none" stroke="#040000" stroke-width="1.0229" d="M103.23,91.55c0,0-1-0.68-1.37-1.23c-0.37-0.55-0.61-1.16-0.77-1.2
				c-0.15-0.03-0.49,1.23-0.77,1.23c-0.28,0-1.32-1.23-1.32-1.23s0.21,0.95-0.21,0.95c-0.43,0-1.23-0.86-1.23-0.86
				s0.12,0.89-0.34,0.89c-0.46,0-1.41-1.04-1.41-1.04"/>
			<path fill="none" stroke="#040000" stroke-width="1.0229" d="M95.79,90.81c0,0-1.07-0.55-1.38-1.26"/>
			<path fill="none" stroke="#040000" stroke-width="1.0229" d="M93.19,86.61c0,0,0.21-0.52,0.77-0.52c0.55,0,2.02,1.13,2.67,1.13
				c0.64,0,0.15-0.8,0.52-0.8s0.49,0.52,1.23,0.52s0.7-0.43,1.04-0.31c0.34,0.12,0.98,0.31,0.98,0.31"/>
			<path fill="none" stroke="#040000" stroke-width="1.0229" d="M98.92,86.09c0,0,2.39,0.09,3-0.77"/>
			<path fill="none" stroke="#040000" stroke-width="1.0229" d="M103.22,88.59c0,0-0.54-0.47-0.54-0.81"/>
			<line fill="none" stroke="#040000" stroke-width="1.0229" x1="103.01" y1="85.83" x2="102.72" y2="85.83"/>
		</g>
	</g>
</g>
<g id="ガイド" display="none">
</g>
</svg>
