<?xml version="1.0" encoding="utf-8"?>
<!-- Generator: Adobe Illustrator 25.4.1, SVG Export Plug-In . SVG Version: 6.00 Build 0)  -->
<svg version="1.1" xmlns="http://www.w3.org/2000/svg" xmlns:xlink="http://www.w3.org/1999/xlink" x="0px" y="0px"
	 viewBox="0 0 164.41 252.28" enable-background="new 0 0 164.41 252.28" xml:space="preserve">
<g id="地">
	<rect fill="#DCDDDD" width="164.41" height="252.28"/>
</g>
<g id="枠">
</g>
<g id="国旗">
	<g>
		<g>
			<rect x="25.51" y="60" fill="#FFFFFF" width="113.39" height="75.59"/>
			<rect x="25.51" y="110.39" fill="#C8152A" width="113.39" height="25.2"/>
			<rect x="25.51" y="85.2" fill="#044F7F" width="113.39" height="25.2"/>
			<path fill="#FFFFFF" d="M61.6,120.6c-1.11-0.45-4.32-1.85-7.25-4.04c-3.03-2.25-8.25-7.22-9.22-15.18
				c-0.96-7.87-0.22-20.87,0.36-23.33H44.7c-0.65,2.74-1.69,15.57-0.73,23.47c0.97,7.91,5.89,13.15,9.68,15.97
				c3.79,2.82,7.95,4.36,7.95,4.36s4.16-1.53,7.95-4.36c3.79-2.82,8.71-8.07,9.68-15.97c0.97-7.91-0.08-20.73-0.73-23.47h-0.79
				c0.58,2.46,1.33,15.46,0.36,23.33c-0.97,7.96-6.2,12.93-9.22,15.18C65.91,118.75,62.7,120.15,61.6,120.6z"/>
			<path fill="#C8152A" d="M61.6,120.6c-1.11-0.45-4.32-1.85-7.25-4.04c-3.03-2.25-8.25-7.22-9.22-15.18
				c-0.96-7.87-0.22-20.87,0.36-23.33h32.22c0.58,2.46,1.33,15.46,0.36,23.33c-0.97,7.96-6.2,12.93-9.22,15.18
				C65.91,118.75,62.7,120.15,61.6,120.6z"/>
			<path fill="#044F7F" d="M61.6,120.6c-1.06-0.43-4.07-1.75-6.9-3.79l0,0c-0.12-0.08-0.23-0.17-0.35-0.25
				c-0.21-0.15-0.42-0.32-0.65-0.5c-0.02-0.01-0.03-0.03-0.05-0.04c-0.21-0.17-0.43-0.35-0.66-0.54c-0.02-0.02-0.04-0.04-0.07-0.06
				c-0.23-0.2-0.46-0.4-0.7-0.62c-0.02-0.02-0.03-0.03-0.05-0.05c-0.5-0.47-1.02-0.99-1.54-1.57c-0.02-0.02-0.03-0.04-0.05-0.06
				c-0.24-0.27-0.49-0.56-0.73-0.85c-0.02-0.03-0.04-0.06-0.07-0.08c-0.24-0.3-0.48-0.61-0.72-0.93c-0.02-0.02-0.03-0.04-0.05-0.07
				c-0.25-0.34-0.49-0.7-0.73-1.07c0,0,0,0,0,0c0.79-2.13,2.36-3.95,4.45-3.95c1.52,0,2.66,0.61,3.42,1.6
				c0.48-2.57,2.73-4.51,5.43-4.51c2.71,0,4.96,1.95,5.43,4.51c0.77-0.99,1.91-1.6,3.42-1.6c2.09,0,3.66,1.82,4.45,3.95c0,0,0,0,0,0
				c-0.24,0.37-0.48,0.73-0.73,1.07c-0.02,0.02-0.03,0.04-0.05,0.07c-0.24,0.32-0.47,0.63-0.72,0.93c-0.02,0.03-0.04,0.05-0.07,0.08
				c-0.24,0.3-0.48,0.58-0.73,0.85c-0.02,0.02-0.03,0.04-0.05,0.06c-0.52,0.58-1.04,1.1-1.54,1.57c-0.02,0.02-0.03,0.03-0.05,0.05
				c-0.24,0.22-0.47,0.43-0.7,0.62c-0.02,0.02-0.04,0.04-0.07,0.06c-0.22,0.19-0.44,0.37-0.66,0.54c-0.02,0.01-0.03,0.03-0.05,0.04
				c-0.23,0.18-0.44,0.35-0.65,0.5c-0.12,0.09-0.23,0.17-0.35,0.25l0,0C65.66,118.86,62.66,120.17,61.6,120.6z"/>
			<path fill="#FFFFFF" d="M72.06,99.47l-0.26-3.16l0.26-3.16c-3.53,1.6-6.88,1.7-8.33,1.66c-0.02-1.86-0.03-3.5-0.02-4.93
				c1.17,0.02,3.33,0.29,6.36,1.66l-0.26-3.16l0.26-3.16c-2.99,1.35-5.15,1.64-6.32,1.66c0.14-6.52,0.59-7.27,0.59-7.27
				c-1.1,0.52-2.73,0.64-2.73,0.64s-1.64-0.13-2.73-0.64c0,0,0.45,0.75,0.59,7.27c-1.17-0.03-3.33-0.31-6.32-1.66l0.26,3.16
				l-0.26,3.16c3.03-1.37,5.19-1.64,6.36-1.66c0.01,1.44,0,3.07-0.02,4.93c-1.45,0.05-4.8-0.06-8.33-1.66l0.26,3.16l-0.26,3.16
				c3.49-1.58,6.81-1.7,8.28-1.66c-0.04,1.8-0.09,3.78-0.15,5.96c0.71-0.33,1.5-0.52,2.34-0.52c0.84,0,1.63,0.19,2.34,0.52
				c-0.07-2.17-0.12-4.15-0.15-5.96C65.25,97.77,68.57,97.89,72.06,99.47z"/>
		</g>
	</g>
</g>
<g id="ガイド" display="none">
</g>
</svg>
