<?xml version="1.0" encoding="utf-8"?>
<!-- Generator: Adobe Illustrator 25.4.1, SVG Export Plug-In . SVG Version: 6.00 Build 0)  -->
<svg version="1.1" xmlns="http://www.w3.org/2000/svg" xmlns:xlink="http://www.w3.org/1999/xlink" x="0px" y="0px"
	 viewBox="0 0 164.41 252.28" enable-background="new 0 0 164.41 252.28" xml:space="preserve">
<g id="地">
	<rect fill="#DCDDDD" width="164.41" height="252.28"/>
</g>
<g id="枠">
</g>
<g id="国旗">
	<g>
		<g>
			<rect x="25.51" y="60" fill="#FFFFFF" width="113.39" height="75.59"/>
			<path fill="#044F7F" d="M48.81,96.91c-1.96,0-7.33-4.07-8.42-9.44c-1.09-5.37-1.53-13.21-1.53-13.21s2.11-2.03,9.95-2.03
				c7.84,0,9.95,2.03,9.95,2.03s-0.44,7.84-1.52,13.21C56.15,92.85,50.77,96.91,48.81,96.91"/>
			<rect x="25.51" y="110.39" fill="#C8152A" width="113.39" height="25.2"/>
			<rect x="25.51" y="85.2" fill="#044F7F" width="113.39" height="25.2"/>
			<polygon fill="#EFEA3C" points="51.78,73.11 52.1,73.67 52.74,73.67 52.42,74.22 52.74,74.77 52.1,74.77 51.78,75.32 
				51.47,74.77 50.83,74.77 51.15,74.22 50.83,73.67 51.47,73.67 			"/>
			<path fill="#D01124" d="M48.81,96.91c-1.96,0-7.33-4.07-8.42-9.44c-1.09-5.37-1.53-13.21-1.53-13.21s0.12-0.11,0.39-0.28
				l0.01,0.23c0.08,1.26,0.53,8.37,1.51,13.18c1.05,5.18,6.25,9.13,8.04,9.13c1.8,0,6.99-3.95,8.04-9.13
				c0.97-4.81,1.43-11.93,1.51-13.18l0.01-0.23c0.27,0.17,0.39,0.28,0.39,0.28s-0.44,7.84-1.52,13.21
				C56.15,92.85,50.77,96.91,48.81,96.91z"/>
			<path fill="#FFFFFF" d="M48.81,91.78c-1.18,0.02-1.56-0.78-2.46-0.75c-0.9-0.03-1.29,0.76-2.56,0.78c-0.2,0-0.42-0.06-0.66-0.15
				c1.96,2.54,4.52,4.18,5.68,4.18c1.15,0,3.72-1.63,5.68-4.18c-0.24,0.09-0.46,0.15-0.66,0.15c-1.27-0.02-1.66-0.81-2.56-0.78
				C50.37,91,49.99,91.75,48.81,91.78z"/>
			<path fill="#FFFFFF" d="M48.81,79.48l-2.3,4.6l-1.59-1.91l-3.92,5.47c0.12,0.39,0.27,0.77,0.43,1.14
				c0.88,0.66,1.9,1.23,2.36,1.22c1.05,0.02,1.41-0.75,2.56-0.78c1.14,0.03,1.52,0.78,2.46,0.75c0.95-0.02,1.32-0.73,2.46-0.75
				c1.15,0.03,1.51,0.8,2.56,0.78c0.46,0.01,1.48-0.56,2.36-1.22c0.16-0.37,0.31-0.75,0.43-1.14l-3.92-5.47l-1.59,1.91L48.81,79.48z
				"/>
			<path fill="#FFFFFF" d="M48.81,90.36c-1.18,0.02-1.56-0.78-2.46-0.75c-0.9-0.03-1.29,0.76-2.56,0.78
				c-0.55-0.01-1.29-0.41-2.04-0.91c0.27,0.53,0.57,1.04,0.9,1.52c0.47,0.26,0.88,0.43,1.13,0.42c1.05,0.02,1.41-0.75,2.56-0.78
				c1.14,0.03,1.52,0.78,2.46,0.75c0.95-0.02,1.32-0.73,2.46-0.75c1.15,0.03,1.51,0.8,2.56,0.78c0.25,0.01,0.66-0.16,1.13-0.42
				c0.33-0.48,0.63-0.99,0.9-1.52c-0.75,0.5-1.49,0.9-2.04,0.91c-1.27-0.02-1.66-0.81-2.56-0.78
				C50.37,89.58,49.99,90.34,48.81,90.36z"/>
			<polygon fill="#EFEA3C" points="45.84,73.11 45.53,73.67 44.89,73.67 45.21,74.22 44.89,74.77 45.53,74.77 45.84,75.32 
				46.16,74.77 46.8,74.77 46.48,74.22 46.8,73.67 46.16,73.67 			"/>
			<polygon fill="#EFEA3C" points="48.81,76.55 48.5,77.1 47.86,77.1 48.18,77.65 47.86,78.2 48.5,78.2 48.81,78.75 49.13,78.2 
				49.77,78.2 49.45,77.65 49.77,77.1 49.13,77.1 			"/>
		</g>
	</g>
</g>
<g id="ガイド" display="none">
</g>
</svg>
