<?xml version="1.0" encoding="utf-8"?>
<!-- Generator: Adobe Illustrator 25.4.1, SVG Export Plug-In . SVG Version: 6.00 Build 0)  -->
<svg version="1.1" xmlns="http://www.w3.org/2000/svg" xmlns:xlink="http://www.w3.org/1999/xlink" x="0px" y="0px"
	 viewBox="0 0 164.41 252.28" enable-background="new 0 0 164.41 252.28" xml:space="preserve">
<g id="地">
	<rect fill="#DCDDDD" width="164.41" height="252.28"/>
</g>
<g id="枠">
</g>
<g id="国旗">
	<g>
		<g>
			<rect x="25.51" y="60" fill="#F5CF21" width="113.39" height="75.59"/>
			<polygon fill="#147F49" points="113.78,60 25.51,119.15 25.51,60 			"/>
			<polygon fill="#C8152A" points="50.63,135.59 138.9,76.44 138.9,135.59 			"/>
			<polygon fill="#040000" points="138.9,71.86 44.09,135.59 25.51,135.59 25.51,123.73 120.32,60 138.9,60 			"/>
			<polygon fill="#FFFFFF" points="59.73,123.58 57.59,116.98 50.65,116.98 56.26,112.9 54.12,106.3 59.73,110.38 65.35,106.3 
				63.2,112.9 68.82,116.98 61.88,116.98 			"/>
			<polygon fill="#FFFFFF" points="105.14,93.38 103,86.78 96.06,86.78 101.67,82.7 99.53,76.1 105.14,80.18 110.75,76.1 
				108.61,82.7 114.22,86.78 107.28,86.78 			"/>
		</g>
	</g>
</g>
<g id="ガイド" display="none">
</g>
</svg>
