<?xml version="1.0" encoding="utf-8"?>
<!-- Generator: Adobe Illustrator 25.4.1, SVG Export Plug-In . SVG Version: 6.00 Build 0)  -->
<svg version="1.1" xmlns="http://www.w3.org/2000/svg" xmlns:xlink="http://www.w3.org/1999/xlink" x="0px" y="0px"
	 viewBox="0 0 164.41 252.28" enable-background="new 0 0 164.41 252.28" xml:space="preserve">
<g id="地">
	<rect fill="#DCDDDD" width="164.41" height="252.28"/>
</g>
<g id="枠">
</g>
<g id="国旗">
	<g>
		<g>
			<rect x="25.51" y="59.85" fill="#FFFFFF" width="113.39" height="75.59"/>
			<rect x="25.51" y="59.85" fill="#147F49" width="56.69" height="75.59"/>
			<path fill="#C8152A" d="M87.22,112.5c-8.2,0-14.85-6.65-14.85-14.85s6.65-14.85,14.85-14.85c5.88,0,10.97,3.42,13.37,8.38
				c-2.64-7.27-9.62-12.47-17.81-12.47c-10.46,0-18.94,8.48-18.94,18.94s8.48,18.94,18.94,18.94c8.19,0,15.16-5.2,17.81-12.47
				C98.19,109.07,93.11,112.5,87.22,112.5z"/>
			<polygon fill="#C8152A" points="93.91,89.13 93.84,95.99 100.35,98.18 93.8,100.24 93.74,107.1 89.75,101.51 83.21,103.57 
				87.29,98.05 83.31,92.46 89.82,94.64 			"/>
		</g>
	</g>
</g>
<g id="ガイド" display="none">
</g>
</svg>
