<?xml version="1.0" encoding="utf-8"?>
<!-- Generator: Adobe Illustrator 25.4.1, SVG Export Plug-In . SVG Version: 6.00 Build 0)  -->
<svg version="1.1" xmlns="http://www.w3.org/2000/svg" xmlns:xlink="http://www.w3.org/1999/xlink" x="0px" y="0px"
	 viewBox="0 0 164.41 252.28" enable-background="new 0 0 164.41 252.28" xml:space="preserve">
<g id="地">
	<rect fill="#DCDDDD" width="164.41" height="252.28"/>
</g>
<g id="枠">
</g>
<g id="国旗">
	<g>
		<g>
			<rect x="25.51" y="60" fill="#FFFFFF" width="113.39" height="75.59"/>
			<rect x="25.51" y="116.32" fill="#147F49" width="113.39" height="19.27"/>
			<rect x="25.51" y="60" fill="#C91623" width="113.39" height="19.27"/>
			<polygon fill="#F4D625" stroke="#040000" stroke-width="1.0229" points="90.31,106.5 91.2,108.3 89.72,109.46 88.69,107.59 			
				"/>
			<polygon fill="#F4D625" stroke="#040000" stroke-width="1.0229" points="90.68,84.78 91.29,86.65 93.26,86.65 91.67,87.81 
				92.28,89.68 90.68,88.52 89.09,89.68 89.7,87.81 88.11,86.65 90.07,86.65 			"/>
			<polygon fill="#F4D625" stroke="#040000" stroke-width="1.0229" points="82.2,81.62 82.81,83.49 84.78,83.49 83.19,84.65 
				83.8,86.52 82.2,85.36 80.61,86.52 81.22,84.65 79.63,83.49 81.6,83.49 			"/>
			<polygon fill="#F4D625" stroke="#040000" stroke-width="1.0229" points="96.65,90.19 97.26,92.06 99.22,92.06 97.63,93.22 
				98.24,95.09 96.65,93.93 95.05,95.09 95.66,93.22 94.07,92.06 96.04,92.06 			"/>
			<polygon fill="#F4D625" stroke="#040000" stroke-width="1.0229" points="99.22,99.15 99.83,101.02 101.8,101.02 100.21,102.18 
				100.82,104.05 99.22,102.89 97.63,104.05 98.24,102.18 96.65,101.02 98.62,101.02 			"/>
			<path fill="#F4D625" stroke="#040000" stroke-width="1.0229" d="M82.2,102.94c-3.19,5.28-8.8,2.4-8.8,2.4s-2.26,2.84-4,2.84
				c-1.74,0-3.29-1.61-3.29-1.61c3.99,1.61,7.22-2.38,7.22-2.38c4.19,2.51,7.99-1.48,8.05-3.09c0.03-0.64,0-0.32,0-3.09
				c0-2.77-2.51-2.45-2.51-2.45s0.67-2.9,3.32-2.9c2.65,0,3.32,2.9,3.32,2.9s-2.51-0.32-2.51,2.45c0,2.77-0.03,2.45,0,3.09
				c0.06,1.61,3.87,5.61,8.05,3.09c0,0,3.22,4,7.22,2.38c0,0-1.55,1.61-3.29,1.61c-1.74,0-4-2.84-4-2.84S85.39,108.22,82.2,102.94z"
				/>
			<polygon fill="#F4D625" stroke="#040000" stroke-width="1.0229" points="82.2,107.76 80.81,106.37 82.2,104.69 83.59,106.37 			
				"/>
			<polygon fill="#F4D625" stroke="#040000" stroke-width="1.0229" points="74.1,106.5 73.21,108.3 74.69,109.46 75.72,107.59 			
				"/>
			<path fill="#F4D625" stroke="#040000" stroke-width="1.0229" d="M82.2,110.43c-6.86,0-12.59,3.13-12.59,3.13l-0.59-1.59
				c0,0,6.03-3.16,13.18-3.16c7.16,0,13.18,3.16,13.18,3.16l-0.59,1.59C94.79,113.56,89.06,110.43,82.2,110.43z"/>
			<polygon fill="#F4D625" stroke="#040000" stroke-width="1.0229" points="73.73,84.78 73.12,86.65 71.15,86.65 72.74,87.81 
				72.13,89.68 73.73,88.52 75.32,89.68 74.71,87.81 76.3,86.65 74.34,86.65 			"/>
			<polygon fill="#F4D625" stroke="#040000" stroke-width="1.0229" points="67.76,90.19 67.15,92.06 65.19,92.06 66.78,93.22 
				66.17,95.09 67.76,93.93 69.36,95.09 68.75,93.22 70.34,92.06 68.37,92.06 			"/>
			<polygon fill="#F4D625" stroke="#040000" stroke-width="1.0229" points="65.19,99.15 64.58,101.02 62.61,101.02 64.2,102.18 
				63.59,104.05 65.19,102.89 66.78,104.05 66.17,102.18 67.76,101.02 65.79,101.02 			"/>
		</g>
	</g>
</g>
<g id="ガイド" display="none">
</g>
</svg>
