<?xml version="1.0" encoding="utf-8"?>
<!-- Generator: Adobe Illustrator 25.4.1, SVG Export Plug-In . SVG Version: 6.00 Build 0)  -->
<svg version="1.1" xmlns="http://www.w3.org/2000/svg" xmlns:xlink="http://www.w3.org/1999/xlink" x="0px" y="0px"
	 viewBox="0 0 164.41 252.28" enable-background="new 0 0 164.41 252.28" xml:space="preserve">
<g id="地">
	<rect fill="#DCDDDD" width="164.41" height="252.28"/>
</g>
<g id="枠">
</g>
<g id="国旗">
	<g>
		<g>
			<rect x="25.51" y="60" fill="#E7211A" width="113.39" height="75.59"/>
			<circle fill="#FFFFFF" cx="82.2" cy="97.8" r="27.65"/>
			<path fill="#E7211A" d="M68.18,97.62c0-11.02,8.93-19.95,19.95-19.95c3.91,0,7.55,1.13,10.63,3.07
				c-4.29-4.25-10.2-6.88-16.71-6.88c-13.12,0-23.75,10.63-23.75,23.75c0,13.12,10.63,23.75,23.75,23.75
				c6.52,0,12.42-2.63,16.71-6.88c-3.08,1.94-6.72,3.07-10.63,3.07C77.11,117.57,68.18,108.64,68.18,97.62z"/>
			<polygon fill="#E7211A" points="86.53,83.06 93.18,92.21 103.94,88.72 97.29,97.87 103.94,107.03 93.18,103.53 86.53,112.68 
				86.53,101.37 75.77,97.87 86.53,94.37 			"/>
		</g>
	</g>
</g>
<g id="ガイド" display="none">
</g>
</svg>
