<?xml version="1.0" encoding="utf-8"?>
<!-- Generator: Adobe Illustrator 25.4.1, SVG Export Plug-In . SVG Version: 6.00 Build 0)  -->
<svg version="1.1" xmlns="http://www.w3.org/2000/svg" xmlns:xlink="http://www.w3.org/1999/xlink" x="0px" y="0px"
	 viewBox="0 0 164.41 252.28" enable-background="new 0 0 164.41 252.28" xml:space="preserve">
<g id="地">
	<rect fill="#DCDDDD" width="164.41" height="252.28"/>
</g>
<g id="枠">
</g>
<g id="国旗">
	<g>
		<g>
			<rect x="25.22" y="60" fill="#C8152A" width="113.39" height="75.59"/>
			<polygon fill="#FFFFFF" points="82.79,90.49 86.08,94.96 91.34,93.21 88.11,97.72 91.4,102.19 86.12,100.51 82.88,105.02 
				82.85,99.47 77.56,97.79 82.83,96.04 			"/>
			<path fill="#FFFFFF" d="M64.62,112.81c-8.35,0-15.12-6.66-15.12-14.88c0-8.22,6.77-14.88,15.12-14.88
				c5.93,0,11.05,3.36,13.53,8.24c-2.68-7.73-9.89-13.27-18.37-13.27c-10.76,0-19.18,8.91-19.18,19.91c0,11,8.41,19.19,19.18,19.19
				c8.48,0,15.69-4.82,18.37-12.55C75.67,109.45,70.55,112.81,64.62,112.81z"/>
		</g>
	</g>
</g>
<g id="ガイド" display="none">
</g>
</svg>
