<?xml version="1.0" encoding="utf-8"?>
<!-- Generator: Adobe Illustrator 25.4.1, SVG Export Plug-In . SVG Version: 6.00 Build 0)  -->
<svg version="1.1" xmlns="http://www.w3.org/2000/svg" xmlns:xlink="http://www.w3.org/1999/xlink" x="0px" y="0px"
	 viewBox="0 0 164.41 252.28" enable-background="new 0 0 164.41 252.28" xml:space="preserve">
<g id="地">
	<rect fill="#DCDDDD" width="164.41" height="252.28"/>
</g>
<g id="枠">
</g>
<g id="国旗">
	<g>
		<g>
			<rect x="25.51" y="60" fill="#C8152A" width="113.39" height="75.59"/>
			<polygon fill="#147EAB" points="25.51,60 25.51,121.66 116.97,60 			"/>
			<polygon fill="#FFFFFF" points="120.63,60 116.97,60 25.51,121.66 25.51,124.13 			"/>
			<polygon fill="#147F49" points="138.9,135.59 138.9,73.93 47.44,135.59 			"/>
			<polygon fill="#FFFFFF" points="43.78,135.59 47.44,135.59 138.9,73.93 138.9,71.46 			"/>
			<polygon fill="#F5CF21" points="41.03,69.94 45.08,72.41 47.36,68.25 49.64,72.41 53.69,69.94 53.58,74.68 58.32,74.58 
				55.86,78.63 60.02,80.9 55.86,83.18 58.32,87.23 53.58,87.13 53.69,91.87 49.64,89.4 47.36,93.56 45.08,89.4 41.03,91.86 
				41.14,87.12 36.4,87.23 38.86,83.18 34.7,80.9 38.86,78.63 36.4,74.58 41.14,74.68 			"/>
			<circle fill="#147EAB" cx="47.36" cy="80.9" r="7.81"/>
			<circle fill="#F5CF21" cx="47.36" cy="80.9" r="6.75"/>
		</g>
	</g>
</g>
<g id="ガイド" display="none">
</g>
</svg>
