<?xml version="1.0" encoding="utf-8"?>
<!-- Generator: Adobe Illustrator 25.4.1, SVG Export Plug-In . SVG Version: 6.00 Build 0)  -->
<svg version="1.1" xmlns="http://www.w3.org/2000/svg" xmlns:xlink="http://www.w3.org/1999/xlink" x="0px" y="0px"
	 viewBox="0 0 164.41 252.28" enable-background="new 0 0 164.41 252.28" xml:space="preserve">
<g id="地">
	<rect fill="#DCDDDD" width="164.41" height="252.28"/>
</g>
<g id="枠">
</g>
<g id="国旗">
	<g>
		<g>
			<polygon fill="#004876" points="109.13,97.23 70.69,97.23 109.13,136.06 55.4,136.06 55.4,59.53 			"/>
			<polygon fill="#C91623" points="104.68,134.21 57.26,134.21 57.26,63.1 103.26,95.37 66.24,95.37 			"/>
			<polygon fill="#FFFFFF" points="70.44,107.15 72.44,111.28 76.24,108.7 75.91,113.28 80.49,112.95 77.91,116.75 82.05,118.75 
				77.91,120.75 80.49,124.55 75.91,124.22 76.24,128.8 72.44,126.22 70.44,130.35 68.44,126.22 64.64,128.8 64.98,124.22 
				60.4,124.55 62.97,120.75 58.84,118.75 62.97,116.75 60.4,112.95 64.98,113.28 64.64,108.7 68.44,111.28 			"/>
			<path fill="#FFFFFF" d="M80.24,84.08c-0.64,2.01-1.84,3.77-3.42,5.09l-1.57-0.53l1.26-1.83l-2.09,0.04l0.68-2.17l-1.97,0.75
				l0.04-2.3l-1.66,1.38l-0.61-2.2l-1.19,1.88l-1.2-1.88l-0.61,2.2l-1.67-1.38l0.04,2.3l-1.97-0.75l0.68,2.17l-2.09-0.04l1.26,1.83
				l-1.57,0.53c-1.58-1.33-2.78-3.08-3.42-5.09c0,0.04,0,0.09,0,0.13c0,5.82,4.72,10.54,10.54,10.54s10.54-4.72,10.54-10.54
				C80.25,84.16,80.24,84.12,80.24,84.08z"/>
		</g>
	</g>
</g>
<g id="ガイド" display="none">
</g>
</svg>
