<?xml version="1.0" encoding="utf-8"?>
<!-- Generator: Adobe Illustrator 25.4.1, SVG Export Plug-In . SVG Version: 6.00 Build 0)  -->
<svg version="1.1" xmlns="http://www.w3.org/2000/svg" xmlns:xlink="http://www.w3.org/1999/xlink" x="0px" y="0px"
	 viewBox="0 0 164.41 252.28" enable-background="new 0 0 164.41 252.28" xml:space="preserve">
<g id="地">
	<rect fill="#DCDDDD" width="164.41" height="252.28"/>
</g>
<g id="枠">
</g>
<g id="国旗">
	<g>
		<g>
			<rect x="25.51" y="60" fill="#C91623" width="113.39" height="75.59"/>
			<polygon fill="#FFFFFF" points="138.9,88.32 72.58,88.32 72.58,60 53.63,60 53.63,88.32 25.51,88.32 25.51,88.32 25.51,107.27 
				25.51,107.27 53.63,107.27 53.63,135.59 72.58,135.59 72.58,107.27 138.9,107.27 138.9,107.27 138.9,88.32 			"/>
			<polygon fill="#00477E" points="67.94,60 58.27,60 58.27,92.96 25.51,92.96 25.51,102.63 58.27,102.63 58.27,135.59 
				67.94,135.59 67.94,102.63 138.9,102.63 138.9,92.96 67.94,92.96 			"/>
		</g>
	</g>
</g>
<g id="ガイド" display="none">
</g>
</svg>
