<?xml version="1.0" encoding="utf-8"?>
<!-- Generator: Adobe Illustrator 25.4.1, SVG Export Plug-In . SVG Version: 6.00 Build 0)  -->
<svg version="1.1" xmlns="http://www.w3.org/2000/svg" xmlns:xlink="http://www.w3.org/1999/xlink" x="0px" y="0px"
	 viewBox="0 0 164.41 252.28" enable-background="new 0 0 164.41 252.28" xml:space="preserve">
<g id="地">
	<rect fill="#DCDDDD" width="164.41" height="252.28"/>
</g>
<g id="枠">
</g>
<g id="国旗">
	<g>
		<g>
			<rect x="25.51" y="60" fill="#147F49" width="113.39" height="75.59"/>
			<rect x="25.51" y="60" fill="#FFFFFF" width="30.12" height="75.59"/>
			<polygon fill="#FFFFFF" points="103.88,80.57 107.72,85.05 113.17,82.8 110.08,87.83 113.92,92.31 108.18,90.94 105.1,95.97 
				104.63,90.09 98.89,88.71 104.35,86.45 			"/>
			<path fill="#FFFFFF" d="M101.59,113.3c-11.36,0-20.58-9.21-20.58-20.58c0-6.86,3.36-12.93,8.51-16.67
				C79.65,78.7,72.38,87.7,72.38,98.4c0,12.77,10.36,23.13,23.13,23.13c10.15,0,18.76-6.54,21.88-15.63
				C113.62,110.42,107.94,113.3,101.59,113.3z"/>
		</g>
	</g>
</g>
<g id="ガイド" display="none">
</g>
</svg>
