<?xml version="1.0" encoding="utf-8"?>
<!-- Generator: Adobe Illustrator 25.4.1, SVG Export Plug-In . SVG Version: 6.00 Build 0)  -->
<svg version="1.1" xmlns="http://www.w3.org/2000/svg" xmlns:xlink="http://www.w3.org/1999/xlink" x="0px" y="0px"
	 viewBox="0 0 164.41 252.28" enable-background="new 0 0 164.41 252.28" xml:space="preserve">
<g id="地">
	<rect fill="#DCDDDD" width="164.41" height="252.28"/>
</g>
<g id="枠">
</g>
<g id="国旗">
	<g>
		<g>
			<rect x="25.51" y="60" fill="#F5A819" width="113.39" height="75.59"/>
			<rect x="25.51" y="60" fill="#004876" width="37.8" height="75.59"/>
			<rect x="101.1" y="60" fill="#004876" width="37.8" height="75.59"/>
			<path fill="#040000" d="M93.55,84.52c-3.87,2.01-4.04,3.22-3.4,3.86s1.34,1.31,1.34,1.31s-3.69,6.82-4.63,16.97h-2.99V88.52
				c1.91-0.99,3.26-2.76,3.26-2.76c-2.86-2.41-4.6-9.51-4.6-9.51s-1.74,7.1-4.6,9.51c0,0,1.35,1.77,3.26,2.76v18.14h-2.99
				c-0.93-10.15-4.63-16.97-4.63-16.97s0.7-0.66,1.34-1.31s0.47-1.86-3.4-3.86c-3.87-2.01-5.8-1.58-5.8-1.58
				c8.24,7.38,9.67,26.37,9.67,26.37h5.8v10.39h2.68v-10.39h5.8c0,0,1.43-18.99,9.67-26.37C99.36,82.94,97.42,82.51,93.55,84.52z"/>
		</g>
	</g>
</g>
<g id="ガイド" display="none">
</g>
</svg>
