<?xml version="1.0" encoding="utf-8"?>
<!-- Generator: Adobe Illustrator 25.4.1, SVG Export Plug-In . SVG Version: 6.00 Build 0)  -->
<svg version="1.1" xmlns="http://www.w3.org/2000/svg" xmlns:xlink="http://www.w3.org/1999/xlink" x="0px" y="0px"
	 viewBox="0 0 164.41 252.28" enable-background="new 0 0 164.41 252.28" xml:space="preserve">
<g id="地">
	<rect fill="#DCDDDD" width="164.41" height="252.28"/>
</g>
<g id="枠">
</g>
<g id="国旗">
	<g>
		<g>
			<rect x="25.51" y="60" fill="#FFFFFF" width="113.39" height="75.59"/>
			<polygon fill="#C8152A" points="138.9,97.8 90.23,97.8 25.51,135.59 138.9,135.59 			"/>
			<polygon fill="#004876" points="138.9,97.8 90.23,97.8 25.51,60 138.9,60 			"/>
			<path fill="#F5B819" d="M62.4,99.04l1.59-1.24l-1.59-1.24l-6.91,0.56c-0.01-0.16-0.03-0.32-0.05-0.48l5.95-0.87l-1.19-0.93
				l-4.89,1.09c-0.21-0.94-0.58-1.81-1.08-2.6l4.23-2.69l0.18-1.5l-4.82,3.6c-0.1-0.13-0.2-0.25-0.3-0.37l5.28-4.49l0.24-2l-2,0.24
				l-4.49,5.28c-0.12-0.1-0.25-0.2-0.37-0.3l3.6-4.82l-1.5,0.18l-2.69,4.23c-0.79-0.5-1.66-0.86-2.6-1.08l1.09-4.89l-0.93-1.19
				l-0.87,5.95c-0.16-0.02-0.32-0.04-0.48-0.05l0.56-6.91l-1.24-1.59l-1.24,1.59l0.56,6.91c-0.16,0.01-0.32,0.03-0.48,0.05
				l-0.87-5.95l-0.93,1.19l1.09,4.89c-0.94,0.21-1.81,0.58-2.6,1.08l-2.69-4.23l-1.5-0.18l3.6,4.82c-0.13,0.1-0.25,0.2-0.37,0.3
				l-4.49-5.28l-2-0.24l0.24,2l5.28,4.49c-0.1,0.12-0.2,0.25-0.3,0.37l-4.82-3.6l0.18,1.5l4.23,2.69c-0.5,0.79-0.86,1.66-1.08,2.6
				l-4.89-1.09l-1.19,0.93l5.95,0.87c-0.02,0.16-0.04,0.32-0.05,0.48l-6.91-0.56l-1.59,1.24l1.59,1.24l6.91-0.56
				c0.01,0.16,0.03,0.32,0.05,0.48l-5.95,0.87l1.19,0.93l4.89-1.09c0.21,0.94,0.58,1.81,1.08,2.6l-4.23,2.69l-0.18,1.5l4.82-3.6
				c0.1,0.13,0.2,0.25,0.3,0.37l-5.28,4.49l-0.24,2l2-0.24l4.49-5.28c0.12,0.1,0.25,0.21,0.37,0.3l-3.6,4.82l1.5-0.18l2.69-4.23
				c0.79,0.5,1.66,0.86,2.6,1.08l-1.09,4.89l0.93,1.19l0.87-5.95c0.16,0.02,0.32,0.04,0.48,0.05l-0.56,6.91l1.24,1.59l1.24-1.59
				l-0.56-6.91c0.16-0.01,0.32-0.03,0.48-0.05l0.87,5.95l0.93-1.19L49,105.99c0.94-0.21,1.81-0.58,2.6-1.08l2.69,4.23l1.5,0.18
				l-3.6-4.82c0.13-0.1,0.25-0.2,0.37-0.3l4.49,5.28l2,0.24l-0.24-2l-5.28-4.49c0.1-0.12,0.2-0.25,0.3-0.37l4.82,3.6l-0.18-1.5
				l-4.23-2.69c0.5-0.79,0.86-1.66,1.08-2.6l4.89,1.09l1.19-0.93l-5.95-0.87c0.02-0.16,0.04-0.32,0.05-0.48L62.4,99.04z"/>
			<polygon fill="#F5B819" points="28.52,66.2 30.72,68.12 33.22,66.62 32.08,69.3 34.28,71.21 31.38,70.96 30.24,73.64 29.58,70.8 
				26.68,70.54 29.18,69.04 			"/>
			<polygon fill="#F5B819" points="30.14,121.06 31.29,123.74 34.19,123.48 32,125.4 33.15,128.07 30.64,126.58 28.45,128.5 
				29.1,125.66 26.59,124.17 29.5,123.9 			"/>
			<polygon fill="#F5B819" points="79.9,93.77 79.89,96.69 82.66,97.6 79.88,98.49 79.87,101.4 78.17,99.04 75.39,99.93 
				77.11,97.58 75.41,95.21 78.18,96.12 			"/>
		</g>
	</g>
</g>
<g id="ガイド" display="none">
</g>
</svg>
