<?xml version="1.0" encoding="utf-8"?>
<!-- Generator: Adobe Illustrator 25.4.1, SVG Export Plug-In . SVG Version: 6.00 Build 0)  -->
<svg version="1.1" xmlns="http://www.w3.org/2000/svg" xmlns:xlink="http://www.w3.org/1999/xlink" x="0px" y="0px"
	 viewBox="0 0 164.41 252.28" enable-background="new 0 0 164.41 252.28" xml:space="preserve">
<g id="地">
	<rect fill="#DCDDDD" width="164.41" height="252.28"/>
</g>
<g id="枠">
</g>
<g id="国旗">
	<g>
		<g>
			<rect x="25.64" y="60.02" fill="#F5CF21" width="113.39" height="75.59"/>
			<polygon fill="#040000" points="25.64,79.49 139.03,116.15 139.03,132.34 25.64,95.68 			"/>
			<polygon fill="#FFFFFF" points="25.64,63.3 139.03,99.96 139.03,116.15 25.64,79.49 			"/>
			<polygon fill="#D0102A" stroke="#040000" stroke-width="1.0229" points="82.09,82.49 81.82,82.49 81.82,87.38 82.09,87.38 
				82.37,87.38 82.37,82.49 			"/>
			<path fill="#D0102A" stroke="#040000" stroke-width="1.0229" d="M82.09,86.7c0,0-1.57-1.79-3.96-1.79
				c-2.39,0-6.43,3.66-8.45,3.66c-2.02,0-2.24-0.97-2.24-0.97s0,2.47,2.99,2.47c0,0-0.67,1.5,1.94,1.5c0,0-0.07,0.97,2.54,0.97
				c0,0-0.08,0.75,1.42,0.75c1.5,0,2.99-1.72,2.99-1.72s-0.15,1.42,1.27,1.12v2.1c0,0-0.78-0.18-1.21-0.18
				c0.66,0.51,1.73,1.14,1.73,2.56c0,1.42-0.67,1.72-0.67,2.39c0,0.67,0,2.09,0,2.09s-0.22-0.22-0.67-0.22c0,0,1.2,1.27,1.2,2.47
				c0,1.2-1.27,2.32-1.27,3.89c0,1.57,0.37,1.79,0.37,1.79s-1.64-0.52-2.02-0.82c0,0,1.64,3.21,4.04,3.21
				c2.39,0,4.04-3.21,4.04-3.21c-0.37,0.3-2.02,0.82-2.02,0.82s0.37-0.22,0.37-1.79c0-1.57-1.27-2.69-1.27-3.89
				c0-1.2,1.2-2.47,1.2-2.47c-0.45,0-0.67,0.22-0.67,0.22s0-1.42,0-2.09c0-0.67-0.67-0.97-0.67-2.39c0-1.42,1.07-2.04,1.73-2.56
				c-0.42,0-1.21,0.18-1.21,0.18v-2.1c1.42,0.3,1.27-1.12,1.27-1.12s1.5,1.72,2.99,1.72c1.5,0,1.42-0.75,1.42-0.75
				c2.62,0,2.54-0.97,2.54-0.97c2.62,0,1.94-1.5,1.94-1.5c2.99,0,2.99-2.47,2.99-2.47s-0.22,0.97-2.24,0.97s-6.06-3.66-8.45-3.66
				C83.66,84.91,82.09,86.7,82.09,86.7z"/>
			<path fill="#D0102A" stroke="#040000" stroke-width="1.0229" d="M103.96,114.25c-1.79,0-3.44-0.85-3.63-1.19
				c-0.34-0.61,0.48-0.71,0.48-0.71s-0.35-1.22,0.64-1c0,0-0.46-0.99,0.41-0.94c0,0,0.24-7.93,0.24-8.41c0-0.48-0.48-0.97-0.39-1.84
				c0.1-0.87,0.39-1.35,0.77-1.59c0.39-0.24,3.19-2.22,3.33-2.51c0.15-0.29,0.05-1.16,0.48-1.35c0,0-0.15-1.55-0.15-1.98
				c0-0.43,0.48-0.97,1.01-0.19c0,0,0.05-1.06,0.82-0.77c0,0,0.53-0.53,0.92-0.19c0,0,0.87-0.58,0.87,0.39c0,0.97,0,2.56,0,3.04
				c0,0.48-0.53,3.04-1.93,4.25c-1.4,1.21-2.32,2.08-2.32,2.61c0,0.53,0.43,8.46,0.43,8.46s0.92,0,0.58,0.97
				c0,0,0.97,0.05,0.58,1.01c0,0,1.21-0.01,0.53,0.86C106.99,114.03,106.02,114.25,103.96,114.25z"/>
			<line fill="none" stroke="#040000" stroke-width="1.0229" x1="83.59" y1="92.68" x2="82.99" y2="92.08"/>
			<line fill="none" stroke="#040000" stroke-width="1.0229" x1="84.86" y1="91.56" x2="83.52" y2="90.17"/>
			<path fill="#D0102A" stroke="#040000" stroke-width="1.0229" d="M89.27,92.53c0,0-2.56-1.72-3.72-2.64"/>
			<path fill="#D0102A" stroke="#040000" stroke-width="1.0229" d="M91.81,91.56c0,0-1.4-0.23-3.83-2.02"/>
			<path fill="#D0102A" stroke="#040000" stroke-width="1.0229" d="M93.75,90.07c0,0-2.02,0.05-3.78-1.36"/>
			<path fill="#D0102A" stroke="#040000" stroke-width="1.0229" d="M101.87,110.42c0,0,0.67,0.41,2.06,0.41s2.05-0.51,2.05-0.51"/>
			<path fill="#D0102A" stroke="#040000" stroke-width="1.0229" d="M101.45,111.36c0,0,0.89,0.56,2.62,0.56
				c1.73,0,2.48-0.63,2.48-0.63"/>
			<path fill="#D0102A" stroke="#040000" stroke-width="1.0229" d="M107.13,112.3c0,0-0.63,0.66-3.03,0.66c-2.4,0-3.29-0.6-3.29-0.6
				"/>
			<path fill="#D0102A" stroke="#040000" stroke-width="1.0229" d="M105.83,96.06c0,0,0.98-0.99,1.29-0.24
				c0.31,0.75-2.71,3.77-2.71,3.77s2.28-0.82,3.08-1.91c0.8-1.09,0.8-1.62,0.8-2.2c0-0.58,0.8-1.69,0.8-1.69"/>
			<path fill="#D0102A" stroke="#040000" stroke-width="1.0229" d="M108.92,91.57c0,0-0.34,0.61-0.24,2.89"/>
			<path fill="#D0102A" stroke="#040000" stroke-width="1.0229" d="M108,91.76c0,0-0.17,0.41-0.17,2.78c0,0.44-0.2,1.77-0.2,1.77"/>
			<path fill="#D0102A" stroke="#040000" stroke-width="1.0229" d="M107.18,92.54c0,0,0,2.43,0,2.67c0,0.24-0.06,0.62-0.06,0.62"/>
			<path fill="#D0102A" stroke="#040000" stroke-width="1.0229" d="M60.22,114.25c1.79,0,3.44-0.85,3.63-1.19
				c0.34-0.61-0.48-0.71-0.48-0.71s0.35-1.22-0.64-1c0,0,0.46-0.99-0.41-0.94c0,0-0.24-7.93-0.24-8.41c0-0.48,0.48-0.97,0.39-1.84
				c-0.1-0.87-0.39-1.35-0.77-1.59c-0.39-0.24-3.19-2.22-3.33-2.51c-0.14-0.29-0.05-1.16-0.48-1.35c0,0,0.14-1.55,0.14-1.98
				c0-0.43-0.48-0.97-1.01-0.19c0,0-0.05-1.06-0.82-0.77c0,0-0.53-0.53-0.92-0.19c0,0-0.87-0.58-0.87,0.39c0,0.97,0,2.56,0,3.04
				c0,0.48,0.53,3.04,1.93,4.25c1.4,1.21,2.32,2.08,2.32,2.61c0,0.53-0.43,8.46-0.43,8.46s-0.92,0-0.58,0.97
				c0,0-0.97,0.05-0.58,1.01c0,0-1.21-0.01-0.53,0.86S58.16,114.25,60.22,114.25z"/>
			<path fill="#D0102A" stroke="#040000" stroke-width="1.0229" d="M82.09,79.51c-3.52,0-3.58,1.28-3.58,1.28
				c0,1.74-0.8,3.41-0.8,3.41l1.45-1.28l0.89,1.5l1.35-1.5l0.68,1.33l0.68-1.33l1.35,1.5l0.89-1.5l1.45,1.28c0,0-0.8-1.67-0.8-3.41
				C85.68,80.79,85.61,79.51,82.09,79.51z"/>
			<path fill="none" stroke="#040000" stroke-width="1.0229" d="M80.45,101.65c0,0,0.82,0.46,0.87,0.87c0,0,0.49-1.22,0.78-1.22
				c0.29,0,0.78,1.22,0.78,1.22c0.05-0.41,0.87-0.87,0.87-0.87"/>
			<path fill="none" stroke="#040000" stroke-width="1.0229" d="M80.07,109.58c0,0,0.64,0.29,0.79,0.61c0,0,0.61-1.9,1.23-2.19
				c0.62,0.29,1.23,2.19,1.23,2.19c0.15-0.32,0.79-0.61,0.79-0.61"/>
			<path fill="none" stroke="#040000" stroke-width="1.0229" d="M80.6,94.79c0,0,0.55,0.23,0.7,0.7c0,0,0.37-1.08,0.8-1.37
				c0.43,0.29,0.8,1.37,0.8,1.37c0.14-0.47,0.7-0.7,0.7-0.7"/>
			<line fill="none" stroke="#040000" stroke-width="1.0229" x1="80.6" y1="92.68" x2="81.2" y2="92.08"/>
			<line fill="none" stroke="#040000" stroke-width="1.0229" x1="79.33" y1="91.56" x2="80.67" y2="90.17"/>
			<path fill="#D0102A" stroke="#040000" stroke-width="1.0229" d="M74.92,92.53c0,0,2.56-1.72,3.72-2.64"/>
			<path fill="#D0102A" stroke="#040000" stroke-width="1.0229" d="M72.37,91.56c0,0,1.4-0.23,3.83-2.02"/>
			<path fill="#D0102A" stroke="#040000" stroke-width="1.0229" d="M70.43,90.07c0,0,2.02,0.05,3.78-1.36"/>
			<path fill="none" stroke="#040000" stroke-width="1.0229" d="M78.51,80.79c0,1.26,3.58,1.01,3.58,1.01s3.58,0.24,3.58-1.01"/>
			<path fill="#D0102A" stroke="#040000" stroke-width="1.0229" d="M62.32,110.42c0,0-0.67,0.41-2.06,0.41
				c-1.39,0-2.05-0.51-2.05-0.51"/>
			<path fill="#D0102A" stroke="#040000" stroke-width="1.0229" d="M62.73,111.36c0,0-0.89,0.56-2.62,0.56
				c-1.73,0-2.48-0.63-2.48-0.63"/>
			<path fill="#D0102A" stroke="#040000" stroke-width="1.0229" d="M57.05,112.3c0,0,0.63,0.66,3.03,0.66c2.4,0,3.29-0.6,3.29-0.6"
				/>
			<path fill="#D0102A" stroke="#040000" stroke-width="1.0229" d="M58.36,96.06c0,0-0.98-0.99-1.29-0.24
				c-0.31,0.75,2.71,3.77,2.71,3.77s-2.28-0.82-3.08-1.91c-0.8-1.09-0.8-1.62-0.8-2.2c0-0.58-0.8-1.69-0.8-1.69"/>
			<path fill="#D0102A" stroke="#040000" stroke-width="1.0229" d="M55.26,91.57c0,0,0.34,0.61,0.24,2.89"/>
			<path fill="#D0102A" stroke="#040000" stroke-width="1.0229" d="M56.18,91.76c0,0,0.17,0.41,0.17,2.78c0,0.44,0.2,1.77,0.2,1.77"
				/>
			<path fill="#D0102A" stroke="#040000" stroke-width="1.0229" d="M57,92.54c0,0,0,2.43,0,2.67c0,0.24,0.06,0.62,0.06,0.62"/>
			<g>
				<path fill="#D0102A" stroke="#040000" stroke-width="1.0229" d="M81.82,80.78c0,0.07,0.12,0.13,0.27,0.13
					c0.15,0,0.27-0.06,0.27-0.13v-8.31c0-0.07-0.12-0.12-0.27-0.12c-0.15,0-0.27,0.05-0.27,0.12V80.78z"/>
				<path fill="none" stroke="#040000" stroke-width="1.0229" d="M82.37,72.48c0,0.07-0.12,0.12-0.27,0.12
					c-0.15,0-0.27-0.05-0.27-0.12"/>
			</g>
			<path fill="#D0102A" stroke="#040000" stroke-width="1.0229" d="M82.09,77.24l3.7,2.42l-2.17-3.5h2.25
				c-1.3-1.3-3.78-2.78-3.78-2.78V77.24z"/>
			<path fill="none" d="M92.39,114.57c-0.09,0.06-0.19,0.15-0.29,0.25c-0.19,0.18-0.37,0.42-0.39,0.48c0,0.06-0.01,0.14-0.01,0.25
				c0.3-0.21,0.59-0.43,0.86-0.65c-0.06-0.11-0.11-0.22-0.13-0.36C92.42,114.55,92.41,114.56,92.39,114.57z"/>
			<path fill="none" d="M66.45,114.67c0.09,0.13,0.19,0.22,0.36,0.22c0.07,0,0.14,0.01,0.22,0.02c-0.02-0.04-0.05-0.09-0.07-0.13
				C66.79,114.75,66.61,114.72,66.45,114.67z"/>
			<path fill="none" d="M67.4,108.43c0.03,0.07,0.09,0.16,0.18,0.26c-0.08-0.16-0.16-0.32-0.23-0.49c0.01,0.06,0.01,0.1,0.01,0.1
				C67.35,108.31,67.36,108.35,67.4,108.43z"/>
			<path fill="#D0102A" stroke="#040000" stroke-width="1.0229" d="M94.71,91.29c1.01,1.95,1.59,4.17,1.59,6.52
				c0,7.85-6.36,14.21-14.21,14.21s-14.21-6.36-14.21-14.21c0-2.35,0.58-4.57,1.59-6.52c-2.25,2.78-3.6,6.32-3.6,10.18
				c0,8.96,7.26,16.22,16.22,16.22c8.96,0,16.22-7.26,16.22-16.22C98.31,97.62,96.96,94.08,94.71,91.29z"/>
			<path fill="#D0102A" stroke="#040000" stroke-width="1.0229" d="M82.09,118.44c-5.71,0-9.04-2.22-11.36-4.3
				c-2.32-2.08-2.71-1.74-3.29-1.26c-0.58,0.48-1.35,1.3,0.39,3.04c0,0-0.82-0.48-1.93-0.43c-1.11,0.05-2.08,0.97-1.98,1.64
				c0.1,0.68,0.63,1.06,0.63,1.06s-1.88,0.05-2.13,1.16c-0.24,1.11,0.68,0.63,0.87,0.48c0.19-0.15,0.77-0.58,2.32-0.58
				s4.16,2.03,4.98,2.42c0.82,0.39,2.37,0.58,2.32-1.5c0,0,3.11,2.61,9.19,2.61c6.08,0,9.19-2.61,9.19-2.61
				c-0.05,2.08,1.5,1.88,2.32,1.5c0.82-0.39,3.43-2.42,4.98-2.42c1.55,0,2.13,0.43,2.32,0.58c0.19,0.14,1.11,0.63,0.87-0.48
				c-0.24-1.11-2.13-1.16-2.13-1.16s0.53-0.39,0.63-1.06c0.1-0.68-0.87-1.59-1.98-1.64c-1.11-0.05-1.93,0.43-1.93,0.43
				c1.74-1.74,0.97-2.56,0.39-3.04c-0.58-0.48-0.97-0.82-3.29,1.26C91.14,116.22,87.8,118.44,82.09,118.44z"/>
			<path fill="#F3CA26" stroke="#C31B28" stroke-width="0.1624" d="M84.98,119.62c0.52,0.09,0.99,0.5,0.8,0.92
				c-0.21,0.51-0.99,0.63-1.28,0.59c-0.32-0.15-0.13-0.36,0.84-0.44c0.63-0.18,0.06-0.51-0.42-0.67
				C84.66,119.94,84.74,119.58,84.98,119.62z"/>
			<path fill="#F3CA26" stroke="#C31B28" stroke-width="0.1624" d="M83.38,119.49c0.24-0.21,0.44,0.44,0.49,0.89
				c0.07,0.44,0.08,0.98-0.15,1.01c-0.14,0.02-0.02-0.5-0.17-0.98C83.36,119.84,83.28,119.58,83.38,119.49z"/>
			<path fill="#F3CA26" stroke="#C24F45" stroke-width="0.1624" d="M82.82,120.29c0.6,0.45-0.42,1.76-2.66,1.19
				c-0.13-0.18,0.89,0,1.6-0.1C83.13,121.21,82.55,120.09,82.82,120.29z"/>
			<path fill="#F3CA26" stroke="#C31B28" stroke-width="0.1624" d="M81.73,119.39c0.24-0.21,0.1,0.46,0.15,0.91
				c0.05,0.42-0.01,0.94-0.27,0.87c-0.14-0.05,0.09-0.53-0.05-0.97C81.4,119.63,81.55,119.53,81.73,119.39z"/>
			<path fill="#F3CA26" stroke="#C31B28" stroke-width="0.1624" d="M80.19,119.21c0.43,0,0.31,0.09,0.28,0.97
				c-0.03,0.99-1.11,1.1-1.37,0.83c-0.22-0.21-0.14-0.28-1.1-0.2c-0.22-0.08-0.21-0.26-0.91-0.22c-0.18,0.03-0.18-0.24-0.5-0.4
				c-0.57-0.27-0.76,0.2-1.86-0.29c-0.07-0.03-0.51-0.25-0.43-0.68c0.08-0.54-0.56,0.07-1.26-0.17c-0.14-0.05-0.55-0.18-0.91-0.43
				c-0.51-0.34,0.02-0.41,0.72-0.06c0.43,0.21,1.06-0.27,1.07-0.76c0.04-0.51-0.29-0.65,0.22-0.63c0.28,0.01,0.22,0.89-0.27,1.29
				c-0.65,0.54-0.21,0.44,0.02,0.41c0.24-0.05,1.34-1.1,1.52-1.01c0.29,0.15-0.85,0.82-0.6,1.46c0.12,0.28,0.8,0.55,1.36,0.6
				c0.66,0.08,0.66-0.61,0.93-0.48c0.37,0.19-0.7,0.54,0.42,0.8c0.25,0.06,0.39-0.43,0.54-0.41c0.35,0.04-0.23,0.57,0.4,0.66
				c0.44,0.06,0.32-0.49,0.59-0.46c0.32-0.02,0.02,0.88,0.9,0.79C80.33,120.77,79.75,119.21,80.19,119.21z"/>
			<path fill="#F3CA26" stroke="#C31B28" stroke-width="0.1624" d="M72.25,118.05c0.25-0.04,0.69-0.22,0.71-0.52
				c0.04-0.32-0.54-0.43-1.23-0.35c-0.36,0.04-0.98-0.14-1.34-0.38c-0.36-0.35-0.36-0.74-0.8-0.57c-0.33,0.11,0.45,0.76,0.83,0.91
				c0.38,0.15,1,0.14,1.03,0.36C71.48,117.73,71.3,118.08,72.25,118.05z"/>
			<path fill="#F3CA26" stroke="#C31B28" stroke-width="0.1624" d="M87.68,119.55c-0.14,0.05-0.25,1.03,0.54,1.05
				c0.99,0.03,1.49-0.36,1.74-0.5c0.41-0.24,1.16-0.73,0.81-1.15c-0.17-0.15-0.27,0.28-0.47,0.53c-0.27,0.37-1.2,0.81-1.91,0.75
				C87.53,120.2,87.85,119.52,87.68,119.55z"/>
			<path fill="#F3CA26" stroke="#C31B28" stroke-width="0.1624" d="M89.72,119.1c-0.2-0.12,0.45-0.31,0.52-0.49
				c0.07-0.18-0.29-0.35-0.09-0.56c0.21-0.26,0.22,0.5,0.48,0.52c0.73,0.06,0.21,0.42-0.07,0.35
				C90.25,118.85,89.84,119.19,89.72,119.1z"/>
			<path fill="#F3CA26" stroke="#C31B28" stroke-width="0.1624" d="M89.15,117.95c-0.05,0.25,0.15,0.32,0.21,0.17
				C89.44,117.85,89.24,117.72,89.15,117.95z"/>
			<path fill="#F3CA26" stroke="#C31B28" stroke-width="0.1624" d="M89.68,117.68c-0.12,0.01-0.13,0.32,0.02,0.33
				c0.16,0.01,0.09,0.23,0.23,0.22c0.16,0,0.18-0.36-0.01-0.36C89.75,117.87,89.79,117.69,89.68,117.68z"/>
			<path fill="#F3CA26" stroke="#C31B28" stroke-width="0.1624" d="M91,117.62c-0.14,0.14-0.4-0.53,0.49-0.62
				c0.42,0.03,0.79,0.57,0.75,1.09c-0.01,0.19-0.02,0.63-0.16,0.84c-0.11,0.2-0.52,0.87-0.72,0.81c-0.2-0.06,0.05-0.34,0.39-0.72
				c0.27-0.32,0.37-1.19,0.24-1.35c-0.14-0.15-0.28,0.38-0.56,0.5c-0.24,0.1-0.49-0.18-0.52-0.32c-0.03-0.16,0.16-0.26,0.29-0.07
				c0.1,0.14,0.42-0.14,0.41-0.34C91.59,117.11,91.31,117.37,91,117.62z"/>
			<path fill="#F3CA26" stroke="#C31B28" stroke-width="0.1624" d="M92.92,116.15c-0.11,0.13-0.5,0.4-0.57,0.52
				c-0.07,0.12-0.09,0.32,0.04,0.51c0.12,0.19,0.39,0.5,0.34,0.78c-0.05,0.28-0.3,0.86-0.16,0.81c0.14-0.05,0.47-0.62,0.4-1.05
				c-0.07-0.43-0.34-0.67-0.29-0.82c0.05-0.14,0.36-0.41,0.42-0.6c0.06-0.18-0.04-0.67-0.12-0.71c-0.09-0.04-0.4,0.05-0.3,0.21
				C92.77,115.96,92.98,115.87,92.92,116.15z"/>
			<path fill="#F3CA26" stroke="#C31B28" stroke-width="0.1529" d="M93.44,116.37c-0.14,0.1-0.07,0.64,0.12,0.44
				C93.73,116.63,93.55,116.28,93.44,116.37z"/>
			<path fill="#F3CA26" stroke="#C31B28" stroke-width="0.1847" d="M89.77,120.35c-0.07,0.23,0.23,0.31,0.32,0.17
				C90.19,120.28,89.89,120.14,89.77,120.35z"/>
			<path fill="#F3CA26" stroke="#C31B28" stroke-width="0.2036" d="M90.23,120.15c-0.1,0.19,0.34,0.21,0.46,0.1
				C90.83,120.05,90.4,119.98,90.23,120.15z"/>
			<path fill="#C31B28" stroke="#C31B28" stroke-width="0.1624" d="M72.19,117.38c-0.23-0.08-0.22,0.28-0.11,0.38
				C72.19,117.85,72.82,117.6,72.19,117.38z"/>
			<path fill="#F3CA26" stroke="#C31B28" stroke-width="0.2765" d="M69.69,106.05c-0.16,0.17-0.29-0.27-0.83,0.04
				c-0.3,0.2-0.42,0.5-0.42,1.14c0,0.54,0.4,0.9,0.64,0.87c0.36-0.04,0.17-0.7,0.56-0.82c0.56-0.2,1.35,0.11,1.49,0.51
				s-0.26,0.83-0.7,0.78c-0.25-0.07,0.14-0.35,0.17-0.47c0.03-0.12,0.08-0.52-0.3-0.63c-0.37-0.11-0.31,0.29-0.33,0.4
				c-0.02,0.11-0.28,0.45-0.58,0.43c-0.3-0.01-0.77-0.01-1.23-0.4c-0.25-0.2-0.54-0.73-0.28-1.41c0.26-0.67,0.72-0.73,0.96-0.75
				C69.12,105.74,69.76,105.86,69.69,106.05z"/>
			<path fill="#F3CA26" stroke="#C31B28" stroke-width="0.2765" d="M69.06,108.85c-0.26-0.11,0.1-0.5-0.58-0.36
				c-0.27,0.06,0.4,0.66,0.7,0.69C69.51,109.15,69.42,108.99,69.06,108.85z"/>
			<path fill="#F3CA26" stroke="#C31B28" stroke-width="0.2765" d="M69.77,109.18c0.14,0.49,0.27,0.45,0.3,0.7
				c0.01,0.31-0.68,0.18-0.78,0.33c-0.09,0.14-0.22,0.52,0.23,0.54c0.45,0.02,1.1-0.11,1.23,0.13c0.35,0.68,1.1,0.58,1.45,0.48
				c0.4-0.12,1.33-0.77,1.54-0.83c0.32-0.09-0.3-0.26-0.65-0.02c-0.09,0.07-0.87,0.69-1.28,0.7c-0.3,0.03-0.75-0.55-0.73-0.76
				c0.03-0.14,0.71-0.03,0.81-0.32c0.07-0.21,0.08-0.45-0.14-0.46c-0.22-0.01-1.24,0.1-1.28-0.02c-0.19-0.35,0.19-0.49,0.05-0.59
				C70.36,109,69.79,108.92,69.77,109.18z"/>
			<path fill="#F3CA26" stroke="#C31B28" stroke-width="0.2765" d="M73.23,111.09c-0.33,0.27-1.2,0.69-1.2,0.99
				c0,0.17,0.24,0.44,0.44,0.5c0.3,0.09,0.76,0.07,1.11-0.14c0.39-0.25,0.57-0.5,0.4-0.54c-0.6-0.13-0.61,0.5-0.9,0.52
				c-0.27,0.02-0.69-0.32-0.14-0.74c0.55-0.42,1.3-0.84,1.27-0.96C74.19,110.6,73.47,110.9,73.23,111.09z"/>
			<path fill="#F3CA26" stroke="#C31B28" stroke-width="0.2765" d="M71.81,112.86c-0.02,0.17,0.56,0.17,0.66,0.02
				C72.56,112.77,71.84,112.68,71.81,112.86z"/>
			<path fill="#F3CA26" stroke="#C31B28" stroke-width="0.2765" d="M73.78,112.97c-0.33,0.27,0.04,0.57,0.29,0.82
				c0.14,0.13,0.46,0.26,0.66,0.33c0.3,0.09,0.89,0.06,1.24-0.15c0.39-0.25,0.43-0.68,0.19-0.68c-0.62-0.01-0.19,0.64-0.47,0.65
				c-0.27,0.02-1.04-0.12-1.41-0.73c-0.21-0.36,0.39-0.43,0.3-0.58C74.48,112.45,74.02,112.78,73.78,112.97z"/>
			<path fill="#F3CA26" stroke="#C31B28" stroke-width="0.2765" d="M75.39,112.94c0.13,0.14,0.56-0.16,0.51-0.33
				C75.86,112.49,75.26,112.8,75.39,112.94z"/>
			<path fill="#F3CA26" stroke="#C31B28" stroke-width="0.2765" d="M76.26,114.21c-0.02,0.2,0.06,0.46-0.24,0.47
				c-0.3,0.01-0.67-0.3-0.97-0.29c-0.3,0.01-0.42,0.19-0.39,0.28c0.03,0.1,0.55,0.21,1.43,0.17c0.88-0.04,0.69,0.37,1.3,0.34
				c0.62-0.04,0.71-0.19,0.66-0.3c-0.05-0.11-0.57-0.04-0.77-0.06c-0.19-0.03-0.54-0.27-0.58-0.47c-0.05-0.2-0.05-0.55,0.18-0.56
				c0.42-0.01,0.23,0.3,0.24,0.4c0.01,0.09,0.15,0.19,0.34,0.02c0.25-0.23,0.11-0.58-0.13-0.71
				C77.1,113.38,76.3,113.74,76.26,114.21z"/>
			<path fill="#F3CA26" stroke="#C31B28" stroke-width="0.2765" d="M78.44,114.25c-0.05,0.35-0.37,0.38-0.33,0.5
				c0.05,0.15,0.16,0.19,0.24,0.56c0.04,0.18,0.33,0.26,0.7,0.24c0.3-0.01,0.5-0.32,0.7-0.31c0.27,0.01,0.05,0.49,0.69,0.49
				c0.51,0,0.64-0.34,0.82-0.35c0.18-0.01,0.16,0.4,0.58,0.4c0.42,0,0.61-0.37,0.8-0.38c0.21,0.01,0.21,0.4,0.83,0.37
				c0.63-0.03,1.1-0.1,1.25-0.19c0.15-0.1,0.22-0.42,0.42-0.43c0.21-0.02,0.53,0.3,0.81,0.3c0.28,0,0.88-0.56,1.06-0.57
				c0.18-0.01,0.33,0.34,0.74,0.34c0.64-0.01,0.71-0.65,1.01-0.68c0.54-0.04,0.56-0.21,0.59-0.25c0.06-0.12,0-0.7-0.13-0.97
				c-0.06-0.14-0.74-1.32-1.05-1.35c-0.31-0.03-0.22,0.32-0.03,0.52c0.18,0.2,1.12,1.15,0.99,1.42c-0.13,0.27-0.79-0.12-1.32-0.12
				c-0.73,0-1.18,1.14-1.69,1.18c-0.23,0.02-0.47-0.15-0.39-0.27c0.15-0.18,0.32-0.6-0.25-0.54c-0.57,0.06-1.15,0.27-1.06,0.5
				c0.09,0.24,0.44,0.48,0.06,0.57c-0.38,0.1-1.03,0.12-1.35,0.04c-0.32-0.08-0.13-0.64-0.32-0.64c-0.22,0-0.23,0.65-0.54,0.67
				c-0.31,0.02-0.58-0.08-0.65-0.27c-0.07-0.19,0.11-0.42-0.09-0.44c-0.21-0.03-0.41,0.73-0.72,0.72c-0.31-0.02-0.32-0.07-0.5-0.22
				c-0.18-0.15,0.16-0.66-0.15-0.71c-0.31-0.04-0.62,0.76-0.82,0.75c-0.21-0.01-0.51-0.02-0.61-0.18c-0.05-0.08-0.03-0.58-0.02-0.78
				C78.71,114.1,78.42,114.14,78.44,114.25z"/>
			<path fill="#F3CA26" stroke="#C31B28" stroke-width="0.2765" d="M88.84,112.08c0.56,0.66,1.07,1.55,1.38,1.6
				c0.21,0.02-0.65-1.19-0.94-1.47C89.04,111.93,88.35,111.51,88.84,112.08z"/>
			<path fill="#F3CA26" stroke="#C31B28" stroke-width="0.2765" d="M78.39,113.69c-0.08,0.16-0.05,0.31,0.09,0.29
				c0.14-0.02,0.33-0.29,0.28-0.34C78.71,113.59,78.5,113.54,78.39,113.69z"/>
			<path fill="#F3CA26" stroke="#C31B28" stroke-width="0.2765" d="M90.49,112.37c0,0.36,0.33,0.76,0.93,0.74
				c0.61-0.03,1.28-0.55,1.33-1.08c0.05-0.53-0.81-0.93-1.02-0.81c-0.21,0.11,0.08,0.51,0.63,0.54c0.23,0.01,0.16,0.37-0.29,0.64
				c-0.47,0.29-1.17,0.28-1.34,0.08C90.6,112.2,90.48,112.2,90.49,112.37z"/>
			<path fill="#F3CA26" stroke="#C31B28" stroke-width="0.2765" d="M90.86,111.29c-0.09,0.14,0.1,0.47,0.3,0.45
				C91.36,111.73,90.92,111.2,90.86,111.29z"/>
			<path fill="#F3CA26" stroke="#C31B28" stroke-width="0.2765" d="M92.65,111.04c0.12,0.21,0.26,0.53,0.51,0.53
				c0.25,0,0.45,0.05,0.45,0.22c0,0.16-0.65,0.71-0.67,0.89c-0.04,0.31,0.26,0.3,0.4,0.13c0.14-0.17,0.53-0.98,0.61-1.2
				c0.04-0.18,0.32-0.51,0.33-0.85c-0.02-0.39,0.44-0.07,0.66-0.06c0.2,0.01,0.42-0.28,0.45-0.49c0.03-0.21-0.21-0.25-0.21-0.43
				c0-0.1,0.26-0.44,0.27-0.66c0.03-0.2-0.5-0.77-0.72-0.76c-0.18,0.01-0.03,0.22,0.08,0.3c0.11,0.09,0.38,0.28,0.28,0.44
				c-0.17,0.32-1.02,0.4-1.06,0.74c-0.04,0.25,0.04,1.02-0.22,1.02c-0.26,0-0.47-0.48-0.88-0.48
				C92.48,110.37,92.55,110.88,92.65,111.04z"/>
			<path fill="#F3CA26" stroke="#C31B28" stroke-width="0.2765" d="M93.31,108.1c0.01,0.14,0.39,0.74,0.61,0.74
				c0.32,0-0.14-0.28-0.12-0.39c0.03-0.1,0.48-0.26,0.3-0.3C93.77,108.07,93.3,107.92,93.31,108.1z"/>
			<path fill="#F3CA26" stroke="#C31B28" stroke-width="0.2765" d="M93.28,107.33c0.07,0.19,1.1,0.48,1.54,0.58
				c0.44,0.1,0.98,0.51,1.18,0.37c0.2-0.13-1.36-0.61-1.59-0.68C94.19,107.54,93.23,107.13,93.28,107.33z"/>
			<path fill="#F3CA26" stroke="#C31B28" stroke-width="0.2765" d="M96.39,108.58c0.39,0.01,0.17-0.58,0.08-0.72
				c-0.1-0.14-0.24,0.27-0.22,0.39C96.26,108.36,96.28,108.57,96.39,108.58z"/>
			<path fill="#F3CA26" stroke="#C31B28" stroke-width="0.2765" d="M94.15,105.65c0,0.13,1.06,0.04,1.56,0.14
				c0.21,0.05,0.94,0.35,1.08,0.27c0.15-0.16-0.99-0.49-1.65-0.49C94.93,105.58,94.15,105.5,94.15,105.65z"/>
			<path fill="#F3CA26" stroke="#C31B28" stroke-width="0.2765" d="M93.87,106.03c-0.19,0.16,0.64,0.33,1.38,0.36
				c0.74,0.02,1.22,0.37,1.16,0.62c-0.11,0.42-1.03,0.15-0.91,0.38c0.07,0.18,0.47,0.11,0.52,0.31c0.03,0.19,0.29,0.23,0.28-0.01
				c0-0.19,0.57-0.5,0.56-0.59c-0.03-0.18-0.38-0.8-1.26-0.87C94.71,106.15,94.11,105.82,93.87,106.03z"/>
			<path fill="#D0102A" d="M70.21,110.2c-0.12-0.05-0.54,0.24-0.39,0.31C70.11,110.64,70.39,110.28,70.21,110.2z"/>
			<path fill="#D0102A" d="M71.12,109.85c-0.21-0.02-0.3,0.32-0.13,0.34C71.42,110.24,71.51,109.89,71.12,109.85z"/>
			<path fill="#D0102A" d="M87.51,114.29c-0.21,0.35-0.03,0.7,0.3,0.63c0.33-0.07,0.66-0.56,0.42-0.71
				C87.99,114.06,87.65,114.06,87.51,114.29z"/>
		</g>
	</g>
</g>
<g id="ガイド" display="none">
</g>
</svg>
